<?xml version="1.0" encoding="utf-8" standalone="no"?>
<!DOCTYPE svg PUBLIC "-//W3C//DTD SVG 1.1//EN"
  "http://www.w3.org/Graphics/SVG/1.1/DTD/svg11.dtd">
<svg xmlns:xlink="http://www.w3.org/1999/xlink" width="576pt" height="252pt" viewBox="0 0 576 252" xmlns="http://www.w3.org/2000/svg" version="1.1">
 <metadata>
  <rdf:RDF xmlns:dc="http://purl.org/dc/elements/1.1/" xmlns:cc="http://creativecommons.org/ns#" xmlns:rdf="http://www.w3.org/1999/02/22-rdf-syntax-ns#">
   <cc:Work>
    <dc:type rdf:resource="http://purl.org/dc/dcmitype/StillImage"/>
    <dc:date>2023-12-07T21:42:47.008264</dc:date>
    <dc:format>image/svg+xml</dc:format>
    <dc:creator>
     <cc:Agent>
      <dc:title>Matplotlib v3.7.4, https://matplotlib.org/</dc:title>
     </cc:Agent>
    </dc:creator>
   </cc:Work>
  </rdf:RDF>
 </metadata>
 <defs>
  <style type="text/css">*{stroke-linejoin: round; stroke-linecap: butt}</style>
 </defs>
 <g id="figure_1">
  <g id="patch_1">
   <path d="M 0 252 
L 576 252 
L 576 0 
L 0 0 
z
" style="fill: #ffffff"/>
  </g>
  <g id="axes_1">
   <g id="patch_2">
    <path d="M 63.26 210.04 
L 525.43 210.04 
L 525.43 10.8 
L 63.26 10.8 
z
" style="fill: #ffffff"/>
   </g>
   <g id="matplotlib.axis_1">
    <g id="xtick_1">
     <g id="line2d_1">
      <defs>
       <path id="mb6e43e0270" d="M 0 0 
L 0 3.5 
" style="stroke: #000000; stroke-width: 0.8"/>
      </defs>
      <g>
       <use xlink:href="#mb6e43e0270" x="84.267727" y="210.04" style="stroke: #000000; stroke-width: 0.8"/>
      </g>
     </g>
     <g id="text_1">
      <text style="font: 10px 'DejaVu Sans', 'Bitstream Vera Sans', 'Computer Modern Sans Serif', 'Lucida Grande', 'Verdana', 'Geneva', 'Lucid', 'Arial', 'Helvetica', 'Avant Garde', sans-serif; text-anchor: middle" x="84.267727" y="224.638438" transform="rotate(-0 84.267727 224.638438)">0</text>
     </g>
    </g>
    <g id="xtick_2">
     <g id="line2d_2">
      <g>
       <use xlink:href="#mb6e43e0270" x="168.63611" y="210.04" style="stroke: #000000; stroke-width: 0.8"/>
      </g>
     </g>
     <g id="text_2">
      <text style="font: 10px 'DejaVu Sans', 'Bitstream Vera Sans', 'Computer Modern Sans Serif', 'Lucida Grande', 'Verdana', 'Geneva', 'Lucid', 'Arial', 'Helvetica', 'Avant Garde', sans-serif; text-anchor: middle" x="168.63611" y="224.638438" transform="rotate(-0 168.63611 224.638438)">50</text>
     </g>
    </g>
    <g id="xtick_3">
     <g id="line2d_3">
      <g>
       <use xlink:href="#mb6e43e0270" x="253.004493" y="210.04" style="stroke: #000000; stroke-width: 0.8"/>
      </g>
     </g>
     <g id="text_3">
      <text style="font: 10px 'DejaVu Sans', 'Bitstream Vera Sans', 'Computer Modern Sans Serif', 'Lucida Grande', 'Verdana', 'Geneva', 'Lucid', 'Arial', 'Helvetica', 'Avant Garde', sans-serif; text-anchor: middle" x="253.004493" y="224.638438" transform="rotate(-0 253.004493 224.638438)">100</text>
     </g>
    </g>
    <g id="xtick_4">
     <g id="line2d_4">
      <g>
       <use xlink:href="#mb6e43e0270" x="337.372875" y="210.04" style="stroke: #000000; stroke-width: 0.8"/>
      </g>
     </g>
     <g id="text_4">
      <text style="font: 10px 'DejaVu Sans', 'Bitstream Vera Sans', 'Computer Modern Sans Serif', 'Lucida Grande', 'Verdana', 'Geneva', 'Lucid', 'Arial', 'Helvetica', 'Avant Garde', sans-serif; text-anchor: middle" x="337.372875" y="224.638438" transform="rotate(-0 337.372875 224.638438)">150</text>
     </g>
    </g>
    <g id="xtick_5">
     <g id="line2d_5">
      <g>
       <use xlink:href="#mb6e43e0270" x="421.741258" y="210.04" style="stroke: #000000; stroke-width: 0.8"/>
      </g>
     </g>
     <g id="text_5">
      <text style="font: 10px 'DejaVu Sans', 'Bitstream Vera Sans', 'Computer Modern Sans Serif', 'Lucida Grande', 'Verdana', 'Geneva', 'Lucid', 'Arial', 'Helvetica', 'Avant Garde', sans-serif; text-anchor: middle" x="421.741258" y="224.638438" transform="rotate(-0 421.741258 224.638438)">200</text>
     </g>
    </g>
    <g id="xtick_6">
     <g id="line2d_6">
      <g>
       <use xlink:href="#mb6e43e0270" x="506.10964" y="210.04" style="stroke: #000000; stroke-width: 0.8"/>
      </g>
     </g>
     <g id="text_6">
      <text style="font: 10px 'DejaVu Sans', 'Bitstream Vera Sans', 'Computer Modern Sans Serif', 'Lucida Grande', 'Verdana', 'Geneva', 'Lucid', 'Arial', 'Helvetica', 'Avant Garde', sans-serif; text-anchor: middle" x="506.10964" y="224.638438" transform="rotate(-0 506.10964 224.638438)">250</text>
     </g>
    </g>
    <g id="text_7">
     <text style="font: 10px 'DejaVu Sans', 'Bitstream Vera Sans', 'Computer Modern Sans Serif', 'Lucida Grande', 'Verdana', 'Geneva', 'Lucid', 'Arial', 'Helvetica', 'Avant Garde', sans-serif; text-anchor: middle" x="294.345" y="238.316563" transform="rotate(-0 294.345 238.316563)">Experiment</text>
    </g>
   </g>
   <g id="matplotlib.axis_2">
    <g id="ytick_1">
     <g id="line2d_7">
      <defs>
       <path id="md638e9d554" d="M 0 0 
L -3.5 0 
" style="stroke: #000000; stroke-width: 0.8"/>
      </defs>
      <g>
       <use xlink:href="#md638e9d554" x="63.26" y="196.464869" style="stroke: #000000; stroke-width: 0.8"/>
      </g>
     </g>
     <g id="text_8">
      <text style="font: 10px 'DejaVu Sans', 'Bitstream Vera Sans', 'Computer Modern Sans Serif', 'Lucida Grande', 'Verdana', 'Geneva', 'Lucid', 'Arial', 'Helvetica', 'Avant Garde', sans-serif; text-anchor: end" x="56.26" y="200.264087" transform="rotate(-0 56.26 200.264087)">6900</text>
     </g>
    </g>
    <g id="ytick_2">
     <g id="line2d_8">
      <g>
       <use xlink:href="#md638e9d554" x="63.26" y="158.808471" style="stroke: #000000; stroke-width: 0.8"/>
      </g>
     </g>
     <g id="text_9">
      <text style="font: 10px 'DejaVu Sans', 'Bitstream Vera Sans', 'Computer Modern Sans Serif', 'Lucida Grande', 'Verdana', 'Geneva', 'Lucid', 'Arial', 'Helvetica', 'Avant Garde', sans-serif; text-anchor: end" x="56.26" y="162.60769" transform="rotate(-0 56.26 162.60769)">7000</text>
     </g>
    </g>
    <g id="ytick_3">
     <g id="line2d_9">
      <g>
       <use xlink:href="#md638e9d554" x="63.26" y="121.152073" style="stroke: #000000; stroke-width: 0.8"/>
      </g>
     </g>
     <g id="text_10">
      <text style="font: 10px 'DejaVu Sans', 'Bitstream Vera Sans', 'Computer Modern Sans Serif', 'Lucida Grande', 'Verdana', 'Geneva', 'Lucid', 'Arial', 'Helvetica', 'Avant Garde', sans-serif; text-anchor: end" x="56.26" y="124.951292" transform="rotate(-0 56.26 124.951292)">7100</text>
     </g>
    </g>
    <g id="ytick_4">
     <g id="line2d_10">
      <g>
       <use xlink:href="#md638e9d554" x="63.26" y="83.495676" style="stroke: #000000; stroke-width: 0.8"/>
      </g>
     </g>
     <g id="text_11">
      <text style="font: 10px 'DejaVu Sans', 'Bitstream Vera Sans', 'Computer Modern Sans Serif', 'Lucida Grande', 'Verdana', 'Geneva', 'Lucid', 'Arial', 'Helvetica', 'Avant Garde', sans-serif; text-anchor: end" x="56.26" y="87.294894" transform="rotate(-0 56.26 87.294894)">7200</text>
     </g>
    </g>
    <g id="ytick_5">
     <g id="line2d_11">
      <g>
       <use xlink:href="#md638e9d554" x="63.26" y="45.839278" style="stroke: #000000; stroke-width: 0.8"/>
      </g>
     </g>
     <g id="text_12">
      <text style="font: 10px 'DejaVu Sans', 'Bitstream Vera Sans', 'Computer Modern Sans Serif', 'Lucida Grande', 'Verdana', 'Geneva', 'Lucid', 'Arial', 'Helvetica', 'Avant Garde', sans-serif; text-anchor: end" x="56.26" y="49.638497" transform="rotate(-0 56.26 49.638497)">7300</text>
     </g>
    </g>
    <g id="text_13">
     <text style="font: 10px 'DejaVu Sans', 'Bitstream Vera Sans', 'Computer Modern Sans Serif', 'Lucida Grande', 'Verdana', 'Geneva', 'Lucid', 'Arial', 'Helvetica', 'Avant Garde', sans-serif; text-anchor: middle" x="18.730312" y="110.42" transform="rotate(-90 18.730312 110.42)">power (uW)</text>
    </g>
   </g>
   <g id="line2d_12">
    <path d="M 84.267727 197.971125 
L 85.955095 139.980272 
L 87.642463 183.661693 
L 89.32983 133.955249 
L 91.017198 110.231718 
L 92.704566 53.747122 
L 94.391933 90.650391 
L 96.079301 133.955249 
L 97.766668 99.687927 
L 99.454036 130.189609 
L 101.141404 97.805107 
L 102.828771 191.946101 
L 104.516139 97.051979 
L 106.203507 107.219206 
L 107.890874 156.172523 
L 109.578242 101.194183 
L 111.26561 145.628732 
L 112.952977 178.766362 
L 114.640345 192.699229 
L 116.327713 105.71295 
L 118.01508 122.281765 
L 119.702448 133.955249 
L 121.389816 95.545723 
L 123.077183 111.36141 
L 124.764551 161.444419 
L 126.451919 163.327239 
L 128.139286 95.922287 
L 131.514022 122.658329 
L 133.201389 156.549087 
L 134.888757 193.452357 
L 136.576124 143.745912 
L 138.263492 77.847216 
L 139.95086 107.59577 
L 141.638227 195.711741 
L 143.325595 107.59577 
L 145.012963 124.917713 
L 146.70033 195.711741 
L 148.387698 108.348898 
L 150.075066 196.464869 
L 151.762433 112.114538 
L 153.449801 111.36141 
L 155.137169 138.85058 
L 156.824536 185.167949 
L 158.511904 133.202121 
L 160.199272 162.950675 
L 161.886639 119.645817 
L 163.574007 142.61622 
L 165.261375 195.711741 
L 166.948742 128.306789 
L 168.63611 174.247594 
L 170.323478 121.528637 
L 172.010845 192.322665 
L 173.698213 99.311363 
L 175.385581 178.389798 
L 177.072948 107.59577 
L 178.760316 113.24423 
L 180.447683 111.36141 
L 182.135051 108.725462 
L 183.822419 130.189609 
L 185.509786 121.152073 
L 187.197154 148.26468 
L 188.884522 158.431907 
L 190.571889 173.117902 
L 192.259257 179.896054 
L 193.946625 145.628732 
L 195.633992 179.51949 
L 197.32136 113.997358 
L 199.008728 88.767571 
L 200.696095 117.762998 
L 202.383463 136.591196 
L 204.070831 106.089514 
L 205.758198 184.414821 
L 207.445566 176.883542 
L 210.820301 128.683353 
L 212.507669 149.770936 
L 214.195037 134.331813 
L 215.882404 200.983636 
L 217.569772 123.411457 
L 219.257139 140.356836 
L 220.944507 129.436481 
L 222.631875 197.594561 
L 224.319242 196.088305 
L 226.00661 173.494466 
L 227.693978 121.905201 
L 229.381345 186.674205 
L 231.068713 123.788021 
L 232.756081 133.578685 
L 234.443448 111.737974 
L 236.130816 147.511552 
L 237.818184 106.089514 
L 239.505551 116.256742 
L 241.192919 125.294277 
L 242.880287 117.00987 
L 244.567654 100.441055 
L 246.255022 140.356836 
L 247.94239 137.720888 
L 249.629757 194.205485 
L 251.317125 182.155438 
L 253.004493 94.039467 
L 254.69186 106.842642 
L 256.379228 122.658329 
L 258.066595 103.453566 
L 259.753963 131.695865 
L 261.441331 124.164585 
L 263.128698 96.675415 
L 264.816066 19.856364 
L 266.503434 106.089514 
L 268.190801 198.724253 
L 269.878169 119.645817 
L 271.565537 179.896054 
L 273.252904 168.22257 
L 274.940272 161.444419 
L 276.62764 178.766362 
L 278.315007 140.356836 
L 280.002375 123.411457 
L 281.689743 151.277191 
L 283.37711 145.252168 
L 285.064478 137.720888 
L 286.751846 159.938163 
L 288.439213 104.583258 
L 290.126581 159.561599 
L 291.813949 106.842642 
L 293.501316 116.256742 
L 295.188684 152.783447 
L 296.876051 127.177097 
L 298.563419 125.670841 
L 300.250787 111.36141 
L 301.938154 102.700438 
L 303.625522 117.386434 
L 305.31289 143.745912 
L 307.000257 45.839278 
L 308.687625 105.71295 
L 310.374993 151.277191 
L 312.06236 134.708376 
L 313.749728 149.394372 
L 315.437096 44.709586 
L 317.124463 138.474016 
L 318.811831 111.737974 
L 320.499199 162.950675 
L 322.186566 86.508187 
L 323.873934 130.566173 
L 325.561302 133.578685 
L 327.248669 182.532002 
L 328.936037 100.817619 
L 330.623405 180.649182 
L 332.310772 118.139562 
L 333.99814 185.544513 
L 335.685507 94.792595 
L 337.372875 111.36141 
L 339.060243 170.858518 
L 340.74761 117.762998 
L 342.434978 90.273827 
L 344.122346 190.816409 
L 345.809713 151.277191 
L 347.497081 133.202121 
L 349.184449 120.022381 
L 350.871816 117.00987 
L 352.559184 104.206694 
L 354.246552 160.314727 
L 355.933919 112.867666 
L 357.621287 94.792595 
L 359.308655 152.030319 
L 360.996022 127.553661 
L 362.68339 134.708376 
L 364.370758 162.197547 
L 366.058125 157.678779 
L 367.745493 133.202121 
L 369.432861 139.603708 
L 371.120228 126.423969 
L 372.807596 111.36141 
L 374.494963 135.08494 
L 376.182331 82.365984 
L 377.869699 143.745912 
L 379.557066 92.533211 
L 381.244434 125.294277 
L 382.931802 189.686717 
L 384.619169 134.331813 
L 386.306537 94.416031 
L 387.993905 190.816409 
L 389.681272 132.072429 
L 391.36864 133.578685 
L 393.056008 81.236292 
L 394.743375 128.683353 
L 396.430743 83.495676 
L 398.118111 118.139562 
L 399.805478 127.177097 
L 401.492846 127.553661 
L 403.180214 107.219206 
L 404.867581 119.269253 
L 406.554949 196.464869 
L 408.242317 123.034893 
L 409.929684 109.47859 
L 411.617052 121.905201 
L 413.304419 120.022381 
L 414.991787 122.281765 
L 416.679155 67.679989 
L 418.366522 100.064491 
L 420.05389 182.532002 
L 421.741258 123.788021 
L 423.428625 93.662903 
L 425.115993 179.51949 
L 426.803361 132.448993 
L 428.490728 106.089514 
L 430.178096 100.064491 
L 431.865464 122.281765 
L 433.552831 119.645817 
L 435.240199 166.339751 
L 436.927567 192.322665 
L 438.614934 111.737974 
L 440.302302 121.905201 
L 441.98967 123.034893 
L 443.677037 181.778874 
L 445.364405 147.511552 
L 447.051773 134.331813 
L 448.73914 117.762998 
L 450.426508 158.431907 
L 452.113876 170.481954 
L 453.801243 89.520699 
L 455.488611 116.256742 
L 457.175978 189.686717 
L 458.863346 117.762998 
L 460.550714 156.925651 
L 462.238081 112.491102 
L 463.925449 184.038257 
L 465.612817 104.959822 
L 467.300184 127.553661 
L 468.987552 196.088305 
L 470.67492 138.85058 
L 472.362287 127.930225 
L 474.049655 190.816409 
L 475.737023 155.419395 
L 477.42439 114.750486 
L 479.111758 173.87103 
L 480.799126 100.064491 
L 482.486493 150.900627 
L 484.173861 95.169159 
L 485.861229 190.063281 
L 487.548596 157.302215 
L 489.235964 111.737974 
L 490.923332 132.448993 
L 492.610699 168.22257 
L 494.298067 139.227144 
L 495.985434 182.155438 
L 497.672802 122.281765 
L 499.36017 102.323875 
L 501.047537 173.494466 
L 502.734905 104.206694 
L 504.422273 94.416031 
L 504.422273 94.416031 
" clip-path="url(#pb3f8061e45)" style="fill: none; stroke: #99004d; stroke-width: 0.8; stroke-linecap: square"/>
   </g>
   <g id="patch_3">
    <path d="M 63.26 210.04 
L 63.26 10.8 
" style="fill: none; stroke: #000000; stroke-width: 0.8; stroke-linejoin: miter; stroke-linecap: square"/>
   </g>
   <g id="patch_4">
    <path d="M 525.43 210.04 
L 525.43 10.8 
" style="fill: none; stroke: #000000; stroke-width: 0.8; stroke-linejoin: miter; stroke-linecap: square"/>
   </g>
   <g id="patch_5">
    <path d="M 63.26 210.04 
L 525.43 210.04 
" style="fill: none; stroke: #000000; stroke-width: 0.8; stroke-linejoin: miter; stroke-linecap: square"/>
   </g>
   <g id="patch_6">
    <path d="M 63.26 10.8 
L 525.43 10.8 
" style="fill: none; stroke: #000000; stroke-width: 0.8; stroke-linejoin: miter; stroke-linecap: square"/>
   </g>
  </g>
  <g id="axes_2">
   <g id="matplotlib.axis_3">
    <g id="ytick_6">
     <g id="line2d_13">
      <defs>
       <path id="m7d36969db3" d="M 0 0 
L 3.5 0 
" style="stroke: #000000; stroke-width: 0.8"/>
      </defs>
      <g>
       <use xlink:href="#m7d36969db3" x="525.43" y="206.158701" style="stroke: #000000; stroke-width: 0.8"/>
      </g>
     </g>
     <g id="text_14">
      <text style="font: 10px 'DejaVu Sans', 'Bitstream Vera Sans', 'Computer Modern Sans Serif', 'Lucida Grande', 'Verdana', 'Geneva', 'Lucid', 'Arial', 'Helvetica', 'Avant Garde', sans-serif; text-anchor: start" x="532.43" y="209.95792" transform="rotate(-0 532.43 209.95792)">0</text>
     </g>
    </g>
    <g id="ytick_7">
     <g id="line2d_14">
      <g>
       <use xlink:href="#m7d36969db3" x="525.43" y="180.283377" style="stroke: #000000; stroke-width: 0.8"/>
      </g>
     </g>
     <g id="text_15">
      <text style="font: 10px 'DejaVu Sans', 'Bitstream Vera Sans', 'Computer Modern Sans Serif', 'Lucida Grande', 'Verdana', 'Geneva', 'Lucid', 'Arial', 'Helvetica', 'Avant Garde', sans-serif; text-anchor: start" x="532.43" y="184.082595" transform="rotate(-0 532.43 184.082595)">5</text>
     </g>
    </g>
    <g id="ytick_8">
     <g id="line2d_15">
      <g>
       <use xlink:href="#m7d36969db3" x="525.43" y="154.408052" style="stroke: #000000; stroke-width: 0.8"/>
      </g>
     </g>
     <g id="text_16">
      <text style="font: 10px 'DejaVu Sans', 'Bitstream Vera Sans', 'Computer Modern Sans Serif', 'Lucida Grande', 'Verdana', 'Geneva', 'Lucid', 'Arial', 'Helvetica', 'Avant Garde', sans-serif; text-anchor: start" x="532.43" y="158.207271" transform="rotate(-0 532.43 158.207271)">10</text>
     </g>
    </g>
    <g id="ytick_9">
     <g id="line2d_16">
      <g>
       <use xlink:href="#m7d36969db3" x="525.43" y="128.532727" style="stroke: #000000; stroke-width: 0.8"/>
      </g>
     </g>
     <g id="text_17">
      <text style="font: 10px 'DejaVu Sans', 'Bitstream Vera Sans', 'Computer Modern Sans Serif', 'Lucida Grande', 'Verdana', 'Geneva', 'Lucid', 'Arial', 'Helvetica', 'Avant Garde', sans-serif; text-anchor: start" x="532.43" y="132.331946" transform="rotate(-0 532.43 132.331946)">15</text>
     </g>
    </g>
    <g id="ytick_10">
     <g id="line2d_17">
      <g>
       <use xlink:href="#m7d36969db3" x="525.43" y="102.657403" style="stroke: #000000; stroke-width: 0.8"/>
      </g>
     </g>
     <g id="text_18">
      <text style="font: 10px 'DejaVu Sans', 'Bitstream Vera Sans', 'Computer Modern Sans Serif', 'Lucida Grande', 'Verdana', 'Geneva', 'Lucid', 'Arial', 'Helvetica', 'Avant Garde', sans-serif; text-anchor: start" x="532.43" y="106.456621" transform="rotate(-0 532.43 106.456621)">20</text>
     </g>
    </g>
    <g id="ytick_11">
     <g id="line2d_18">
      <g>
       <use xlink:href="#m7d36969db3" x="525.43" y="76.782078" style="stroke: #000000; stroke-width: 0.8"/>
      </g>
     </g>
     <g id="text_19">
      <text style="font: 10px 'DejaVu Sans', 'Bitstream Vera Sans', 'Computer Modern Sans Serif', 'Lucida Grande', 'Verdana', 'Geneva', 'Lucid', 'Arial', 'Helvetica', 'Avant Garde', sans-serif; text-anchor: start" x="532.43" y="80.581297" transform="rotate(-0 532.43 80.581297)">25</text>
     </g>
    </g>
    <g id="ytick_12">
     <g id="line2d_19">
      <g>
       <use xlink:href="#m7d36969db3" x="525.43" y="50.906753" style="stroke: #000000; stroke-width: 0.8"/>
      </g>
     </g>
     <g id="text_20">
      <text style="font: 10px 'DejaVu Sans', 'Bitstream Vera Sans', 'Computer Modern Sans Serif', 'Lucida Grande', 'Verdana', 'Geneva', 'Lucid', 'Arial', 'Helvetica', 'Avant Garde', sans-serif; text-anchor: start" x="532.43" y="54.705972" transform="rotate(-0 532.43 54.705972)">30</text>
     </g>
    </g>
    <g id="ytick_13">
     <g id="line2d_20">
      <g>
       <use xlink:href="#m7d36969db3" x="525.43" y="25.031429" style="stroke: #000000; stroke-width: 0.8"/>
      </g>
     </g>
     <g id="text_21">
      <text style="font: 10px 'DejaVu Sans', 'Bitstream Vera Sans', 'Computer Modern Sans Serif', 'Lucida Grande', 'Verdana', 'Geneva', 'Lucid', 'Arial', 'Helvetica', 'Avant Garde', sans-serif; text-anchor: start" x="532.43" y="28.830647" transform="rotate(-0 532.43 28.830647)">35</text>
     </g>
    </g>
    <g id="text_22">
     <text style="font: 10px 'DejaVu Sans', 'Bitstream Vera Sans', 'Computer Modern Sans Serif', 'Lucida Grande', 'Verdana', 'Geneva', 'Lucid', 'Arial', 'Helvetica', 'Avant Garde', sans-serif; text-anchor: middle" x="562.753438" y="110.42" transform="rotate(-90 562.753438 110.42)">hw(data)</text>
    </g>
   </g>
   <g id="line2d_21">
    <path d="M 84.267727 149.232987 
L 85.955095 149.232987 
L 87.642463 97.482338 
L 89.32983 66.431948 
L 91.017198 30.206494 
L 92.704566 128.532727 
L 94.391933 50.906753 
L 96.079301 66.431948 
L 97.766668 102.657403 
L 99.454036 87.132208 
L 101.141404 76.782078 
L 102.828771 138.882857 
L 104.516139 66.431948 
L 106.203507 61.256883 
L 107.890874 154.408052 
L 109.578242 50.906753 
L 111.26561 81.957143 
L 112.952977 175.108312 
L 114.640345 149.232987 
L 116.327713 40.556623 
L 118.01508 50.906753 
L 119.702448 66.431948 
L 121.389816 45.731688 
L 123.077183 118.182597 
L 124.764551 81.957143 
L 126.451919 107.832468 
L 128.139286 50.906753 
L 129.826654 92.307273 
L 131.514022 56.081818 
L 133.201389 87.132208 
L 134.888757 159.583117 
L 136.576124 128.532727 
L 138.263492 102.657403 
L 139.95086 66.431948 
L 141.638227 118.182597 
L 143.325595 66.431948 
L 145.012963 87.132208 
L 146.70033 118.182597 
L 148.387698 76.782078 
L 150.075066 128.532727 
L 151.762433 56.081818 
L 153.449801 45.731688 
L 155.137169 133.707792 
L 156.824536 190.633506 
L 158.511904 56.081818 
L 160.199272 102.657403 
L 161.886639 87.132208 
L 163.574007 113.007532 
L 165.261375 190.633506 
L 166.948742 133.707792 
L 168.63611 113.007532 
L 170.323478 113.007532 
L 172.010845 144.057922 
L 173.698213 25.031429 
L 175.385581 169.933247 
L 177.072948 66.431948 
L 178.760316 71.607013 
L 180.447683 45.731688 
L 182.135051 81.957143 
L 183.822419 87.132208 
L 185.509786 107.832468 
L 187.197154 118.182597 
L 188.884522 113.007532 
L 190.571889 97.482338 
L 192.259257 118.182597 
L 193.946625 81.957143 
L 195.633992 185.458442 
L 197.32136 81.957143 
L 199.008728 25.031429 
L 200.696095 61.256883 
L 202.383463 102.657403 
L 204.070831 118.182597 
L 205.758198 107.832468 
L 207.445566 149.232987 
L 209.132934 118.182597 
L 210.820301 138.882857 
L 212.507669 138.882857 
L 214.195037 71.607013 
L 215.882404 190.633506 
L 217.569772 66.431948 
L 219.257139 81.957143 
L 220.944507 76.782078 
L 222.631875 144.057922 
L 226.00661 102.657403 
L 227.693978 118.182597 
L 229.381345 138.882857 
L 231.068713 71.607013 
L 234.443448 50.906753 
L 236.130816 107.832468 
L 237.818184 45.731688 
L 239.505551 113.007532 
L 241.192919 92.307273 
L 242.880287 50.906753 
L 244.567654 40.556623 
L 246.255022 81.957143 
L 247.94239 118.182597 
L 249.629757 169.933247 
L 251.317125 149.232987 
L 253.004493 25.031429 
L 254.69186 56.081818 
L 256.379228 128.532727 
L 258.066595 81.957143 
L 259.753963 107.832468 
L 261.441331 76.782078 
L 263.128698 61.256883 
L 264.816066 71.607013 
L 266.503434 45.731688 
L 268.190801 159.583117 
L 269.878169 87.132208 
L 271.565537 118.182597 
L 273.252904 102.657403 
L 274.940272 154.408052 
L 276.62764 175.108312 
L 278.315007 81.957143 
L 280.002375 66.431948 
L 281.689743 87.132208 
L 283.37711 149.232987 
L 285.064478 118.182597 
L 286.751846 133.707792 
L 288.439213 97.482338 
L 290.126581 128.532727 
L 291.813949 56.081818 
L 293.501316 40.556623 
L 295.188684 107.832468 
L 296.876051 118.182597 
L 298.563419 97.482338 
L 300.250787 45.731688 
L 301.938154 71.607013 
L 303.625522 56.081818 
L 305.31289 56.081818 
L 307.000257 50.906753 
L 308.687625 40.556623 
L 310.374993 87.132208 
L 312.06236 76.782078 
L 313.749728 133.707792 
L 315.437096 56.081818 
L 317.124463 56.081818 
L 318.811831 50.906753 
L 320.499199 102.657403 
L 322.186566 66.431948 
L 323.873934 92.307273 
L 325.561302 61.256883 
L 327.248669 154.408052 
L 328.936037 45.731688 
L 330.623405 128.532727 
L 332.310772 66.431948 
L 333.99814 123.357662 
L 335.685507 35.381558 
L 337.372875 45.731688 
L 339.060243 138.882857 
L 340.74761 61.256883 
L 342.434978 45.731688 
L 344.122346 123.357662 
L 345.809713 87.132208 
L 347.497081 56.081818 
L 349.184449 92.307273 
L 350.871816 50.906753 
L 352.559184 19.856364 
L 354.246552 138.882857 
L 355.933919 66.431948 
L 357.621287 35.381558 
L 359.308655 97.482338 
L 360.996022 123.357662 
L 362.68339 76.782078 
L 364.370758 92.307273 
L 366.058125 102.657403 
L 367.745493 128.532727 
L 369.432861 71.607013 
L 371.120228 113.007532 
L 372.807596 118.182597 
L 374.494963 81.957143 
L 376.182331 50.906753 
L 377.869699 128.532727 
L 379.557066 76.782078 
L 382.931802 107.832468 
L 384.619169 71.607013 
L 386.306537 30.206494 
L 387.993905 123.357662 
L 389.681272 113.007532 
L 391.36864 61.256883 
L 393.056008 133.707792 
L 394.743375 66.431948 
L 396.430743 30.206494 
L 398.118111 66.431948 
L 399.805478 45.731688 
L 401.492846 123.357662 
L 403.180214 66.431948 
L 404.867581 81.957143 
L 406.554949 200.983636 
L 408.242317 133.707792 
L 409.929684 92.307273 
L 411.617052 45.731688 
L 413.304419 92.307273 
L 414.991787 50.906753 
L 416.679155 50.906753 
L 418.366522 35.381558 
L 420.05389 154.408052 
L 421.741258 71.607013 
L 423.428625 92.307273 
L 425.115993 185.458442 
L 426.803361 118.182597 
L 428.490728 45.731688 
L 430.178096 35.381558 
L 431.865464 123.357662 
L 433.552831 87.132208 
L 435.240199 149.232987 
L 436.927567 144.057922 
L 438.614934 123.357662 
L 440.302302 118.182597 
L 441.98967 61.256883 
L 443.677037 144.057922 
L 447.051773 71.607013 
L 448.73914 61.256883 
L 450.426508 113.007532 
L 452.113876 133.707792 
L 453.801243 35.381558 
L 455.488611 113.007532 
L 457.175978 107.832468 
L 458.863346 61.256883 
L 460.550714 164.758182 
L 462.238081 61.256883 
L 463.925449 102.657403 
L 465.612817 30.206494 
L 467.300184 50.906753 
L 468.987552 195.808571 
L 470.67492 133.707792 
L 474.049655 123.357662 
L 475.737023 71.607013 
L 477.42439 92.307273 
L 479.111758 107.832468 
L 480.799126 35.381558 
L 482.486493 81.957143 
L 484.173861 40.556623 
L 485.861229 185.458442 
L 487.548596 97.482338 
L 489.235964 50.906753 
L 490.923332 118.182597 
L 492.610699 175.108312 
L 494.298067 66.431948 
L 495.985434 149.232987 
L 497.672802 123.357662 
L 499.36017 66.431948 
L 501.047537 175.108312 
L 502.734905 92.307273 
L 504.422273 61.256883 
L 504.422273 61.256883 
" clip-path="url(#pb3f8061e45)" style="fill: none; stroke: #235996; stroke-width: 0.8; stroke-linecap: square"/>
   </g>
   <g id="patch_7">
    <path d="M 63.26 210.04 
L 63.26 10.8 
" style="fill: none; stroke: #000000; stroke-width: 0.8; stroke-linejoin: miter; stroke-linecap: square"/>
   </g>
   <g id="patch_8">
    <path d="M 525.43 210.04 
L 525.43 10.8 
" style="fill: none; stroke: #000000; stroke-width: 0.8; stroke-linejoin: miter; stroke-linecap: square"/>
   </g>
   <g id="patch_9">
    <path d="M 63.26 210.04 
L 525.43 210.04 
" style="fill: none; stroke: #000000; stroke-width: 0.8; stroke-linejoin: miter; stroke-linecap: square"/>
   </g>
   <g id="patch_10">
    <path d="M 63.26 10.8 
L 525.43 10.8 
" style="fill: none; stroke: #000000; stroke-width: 0.8; stroke-linejoin: miter; stroke-linecap: square"/>
   </g>
   <g id="legend_1">
    <g id="patch_11">
     <path d="M 153.734625 43.4565 
L 434.955375 43.4565 
Q 437.835375 43.4565 437.835375 40.5765 
L 437.835375 20.88 
Q 437.835375 18 434.955375 18 
L 153.734625 18 
Q 150.854625 18 150.854625 20.88 
L 150.854625 40.5765 
Q 150.854625 43.4565 153.734625 43.4565 
z
" style="fill: #ffffff; opacity: 0.8; stroke: #000000; stroke-linejoin: miter"/>
    </g>
    <g id="line2d_22">
     <path d="M 156.614625 29.66175 
L 171.014625 29.66175 
L 185.414625 29.66175 
" style="fill: none; stroke: #99004d; stroke-width: 0.8; stroke-linecap: square"/>
    </g>
    <g id="text_23">
     <text style="font: 14.4px 'DejaVu Sans', 'Bitstream Vera Sans', 'Computer Modern Sans Serif', 'Lucida Grande', 'Verdana', 'Geneva', 'Lucid', 'Arial', 'Helvetica', 'Avant Garde', sans-serif; text-anchor: start" x="196.934625" y="34.70175" transform="rotate(-0 196.934625 34.70175)">power</text>
    </g>
    <g id="line2d_23">
     <path d="M 270.244125 29.66175 
L 284.644125 29.66175 
L 299.044125 29.66175 
" style="fill: none; stroke: #235996; stroke-width: 0.8; stroke-linecap: square"/>
    </g>
    <g id="text_24">
     <text style="font: 14.4px 'DejaVu Sans', 'Bitstream Vera Sans', 'Computer Modern Sans Serif', 'Lucida Grande', 'Verdana', 'Geneva', 'Lucid', 'Arial', 'Helvetica', 'Avant Garde', sans-serif; text-anchor: start" x="310.564125" y="34.70175" transform="rotate(-0 310.564125 34.70175)">hw(rs1)+hw(rs2)</text>
    </g>
   </g>
  </g>
 </g>
 <defs>
  <clipPath id="pb3f8061e45">
   <rect x="63.26" y="10.8" width="462.17" height="199.24"/>
  </clipPath>
 </defs>
</svg>
