<?xml version="1.0" encoding="utf-8" standalone="no"?>
<!DOCTYPE svg PUBLIC "-//W3C//DTD SVG 1.1//EN"
  "http://www.w3.org/Graphics/SVG/1.1/DTD/svg11.dtd">
<svg xmlns:xlink="http://www.w3.org/1999/xlink" width="576pt" height="252pt" viewBox="0 0 576 252" xmlns="http://www.w3.org/2000/svg" version="1.1">
 <metadata>
  <rdf:RDF xmlns:dc="http://purl.org/dc/elements/1.1/" xmlns:cc="http://creativecommons.org/ns#" xmlns:rdf="http://www.w3.org/1999/02/22-rdf-syntax-ns#">
   <cc:Work>
    <dc:type rdf:resource="http://purl.org/dc/dcmitype/StillImage"/>
    <dc:date>2023-12-05T15:21:43.159280</dc:date>
    <dc:format>image/svg+xml</dc:format>
    <dc:creator>
     <cc:Agent>
      <dc:title>Matplotlib v3.7.4, https://matplotlib.org/</dc:title>
     </cc:Agent>
    </dc:creator>
   </cc:Work>
  </rdf:RDF>
 </metadata>
 <defs>
  <style type="text/css">*{stroke-linejoin: round; stroke-linecap: butt}</style>
 </defs>
 <g id="figure_1">
  <g id="patch_1">
   <path d="M 0 252 
L 576 252 
L 576 0 
L 0 0 
z
" style="fill: #ffffff"/>
  </g>
  <g id="axes_1">
   <g id="patch_2">
    <path d="M 56.87 210.04 
L 525.43 210.04 
L 525.43 14.02821 
L 56.87 14.02821 
z
" style="fill: #ffffff"/>
   </g>
   <g id="matplotlib.axis_1">
    <g id="xtick_1">
     <g id="line2d_1">
      <defs>
       <path id="m84be1a6ef2" d="M 0 0 
L 0 3.5 
" style="stroke: #000000; stroke-width: 0.8"/>
      </defs>
      <g>
       <use xlink:href="#m84be1a6ef2" x="78.168182" y="210.04" style="stroke: #000000; stroke-width: 0.8"/>
      </g>
     </g>
     <g id="text_1">
      <text style="font: 10px 'DejaVu Sans', 'Bitstream Vera Sans', 'Computer Modern Sans Serif', 'Lucida Grande', 'Verdana', 'Geneva', 'Lucid', 'Arial', 'Helvetica', 'Avant Garde', sans-serif; text-anchor: middle" x="78.168182" y="224.638438" transform="rotate(-0 78.168182 224.638438)">0</text>
     </g>
    </g>
    <g id="xtick_2">
     <g id="line2d_2">
      <g>
       <use xlink:href="#m84be1a6ef2" x="163.703049" y="210.04" style="stroke: #000000; stroke-width: 0.8"/>
      </g>
     </g>
     <g id="text_2">
      <text style="font: 10px 'DejaVu Sans', 'Bitstream Vera Sans', 'Computer Modern Sans Serif', 'Lucida Grande', 'Verdana', 'Geneva', 'Lucid', 'Arial', 'Helvetica', 'Avant Garde', sans-serif; text-anchor: middle" x="163.703049" y="224.638438" transform="rotate(-0 163.703049 224.638438)">50</text>
     </g>
    </g>
    <g id="xtick_3">
     <g id="line2d_3">
      <g>
       <use xlink:href="#m84be1a6ef2" x="249.237915" y="210.04" style="stroke: #000000; stroke-width: 0.8"/>
      </g>
     </g>
     <g id="text_3">
      <text style="font: 10px 'DejaVu Sans', 'Bitstream Vera Sans', 'Computer Modern Sans Serif', 'Lucida Grande', 'Verdana', 'Geneva', 'Lucid', 'Arial', 'Helvetica', 'Avant Garde', sans-serif; text-anchor: middle" x="249.237915" y="224.638438" transform="rotate(-0 249.237915 224.638438)">100</text>
     </g>
    </g>
    <g id="xtick_4">
     <g id="line2d_4">
      <g>
       <use xlink:href="#m84be1a6ef2" x="334.772782" y="210.04" style="stroke: #000000; stroke-width: 0.8"/>
      </g>
     </g>
     <g id="text_4">
      <text style="font: 10px 'DejaVu Sans', 'Bitstream Vera Sans', 'Computer Modern Sans Serif', 'Lucida Grande', 'Verdana', 'Geneva', 'Lucid', 'Arial', 'Helvetica', 'Avant Garde', sans-serif; text-anchor: middle" x="334.772782" y="224.638438" transform="rotate(-0 334.772782 224.638438)">150</text>
     </g>
    </g>
    <g id="xtick_5">
     <g id="line2d_5">
      <g>
       <use xlink:href="#m84be1a6ef2" x="420.307649" y="210.04" style="stroke: #000000; stroke-width: 0.8"/>
      </g>
     </g>
     <g id="text_5">
      <text style="font: 10px 'DejaVu Sans', 'Bitstream Vera Sans', 'Computer Modern Sans Serif', 'Lucida Grande', 'Verdana', 'Geneva', 'Lucid', 'Arial', 'Helvetica', 'Avant Garde', sans-serif; text-anchor: middle" x="420.307649" y="224.638438" transform="rotate(-0 420.307649 224.638438)">200</text>
     </g>
    </g>
    <g id="xtick_6">
     <g id="line2d_6">
      <g>
       <use xlink:href="#m84be1a6ef2" x="505.842516" y="210.04" style="stroke: #000000; stroke-width: 0.8"/>
      </g>
     </g>
     <g id="text_6">
      <text style="font: 10px 'DejaVu Sans', 'Bitstream Vera Sans', 'Computer Modern Sans Serif', 'Lucida Grande', 'Verdana', 'Geneva', 'Lucid', 'Arial', 'Helvetica', 'Avant Garde', sans-serif; text-anchor: middle" x="505.842516" y="224.638438" transform="rotate(-0 505.842516 224.638438)">250</text>
     </g>
    </g>
    <g id="text_7">
     <text style="font: 10px 'DejaVu Sans', 'Bitstream Vera Sans', 'Computer Modern Sans Serif', 'Lucida Grande', 'Verdana', 'Geneva', 'Lucid', 'Arial', 'Helvetica', 'Avant Garde', sans-serif; text-anchor: middle" x="291.15" y="238.316563" transform="rotate(-0 291.15 238.316563)">Cycles</text>
    </g>
   </g>
   <g id="matplotlib.axis_2">
    <g id="ytick_1">
     <g id="line2d_7">
      <defs>
       <path id="m5d137168c8" d="M 0 0 
L -3.5 0 
" style="stroke: #000000; stroke-width: 0.8"/>
      </defs>
      <g>
       <use xlink:href="#m5d137168c8" x="56.87" y="209.300773" style="stroke: #000000; stroke-width: 0.8"/>
      </g>
     </g>
     <g id="text_8">
      <text style="font: 10px 'DejaVu Sans', 'Bitstream Vera Sans', 'Computer Modern Sans Serif', 'Lucida Grande', 'Verdana', 'Geneva', 'Lucid', 'Arial', 'Helvetica', 'Avant Garde', sans-serif; text-anchor: end" x="49.87" y="213.099992" transform="rotate(-0 49.87 213.099992)">300</text>
     </g>
    </g>
    <g id="ytick_2">
     <g id="line2d_8">
      <g>
       <use xlink:href="#m5d137168c8" x="56.87" y="170.394106" style="stroke: #000000; stroke-width: 0.8"/>
      </g>
     </g>
     <g id="text_9">
      <text style="font: 10px 'DejaVu Sans', 'Bitstream Vera Sans', 'Computer Modern Sans Serif', 'Lucida Grande', 'Verdana', 'Geneva', 'Lucid', 'Arial', 'Helvetica', 'Avant Garde', sans-serif; text-anchor: end" x="49.87" y="174.193325" transform="rotate(-0 49.87 174.193325)">400</text>
     </g>
    </g>
    <g id="ytick_3">
     <g id="line2d_9">
      <g>
       <use xlink:href="#m5d137168c8" x="56.87" y="131.487439" style="stroke: #000000; stroke-width: 0.8"/>
      </g>
     </g>
     <g id="text_10">
      <text style="font: 10px 'DejaVu Sans', 'Bitstream Vera Sans', 'Computer Modern Sans Serif', 'Lucida Grande', 'Verdana', 'Geneva', 'Lucid', 'Arial', 'Helvetica', 'Avant Garde', sans-serif; text-anchor: end" x="49.87" y="135.286657" transform="rotate(-0 49.87 135.286657)">500</text>
     </g>
    </g>
    <g id="ytick_4">
     <g id="line2d_10">
      <g>
       <use xlink:href="#m5d137168c8" x="56.87" y="92.580771" style="stroke: #000000; stroke-width: 0.8"/>
      </g>
     </g>
     <g id="text_11">
      <text style="font: 10px 'DejaVu Sans', 'Bitstream Vera Sans', 'Computer Modern Sans Serif', 'Lucida Grande', 'Verdana', 'Geneva', 'Lucid', 'Arial', 'Helvetica', 'Avant Garde', sans-serif; text-anchor: end" x="49.87" y="96.37999" transform="rotate(-0 49.87 96.37999)">600</text>
     </g>
    </g>
    <g id="ytick_5">
     <g id="line2d_11">
      <g>
       <use xlink:href="#m5d137168c8" x="56.87" y="53.674104" style="stroke: #000000; stroke-width: 0.8"/>
      </g>
     </g>
     <g id="text_12">
      <text style="font: 10px 'DejaVu Sans', 'Bitstream Vera Sans', 'Computer Modern Sans Serif', 'Lucida Grande', 'Verdana', 'Geneva', 'Lucid', 'Arial', 'Helvetica', 'Avant Garde', sans-serif; text-anchor: end" x="49.87" y="57.473322" transform="rotate(-0 49.87 57.473322)">700</text>
     </g>
    </g>
    <g id="ytick_6">
     <g id="line2d_12">
      <g>
       <use xlink:href="#m5d137168c8" x="56.87" y="14.767436" style="stroke: #000000; stroke-width: 0.8"/>
      </g>
     </g>
     <g id="text_13">
      <text style="font: 10px 'DejaVu Sans', 'Bitstream Vera Sans', 'Computer Modern Sans Serif', 'Lucida Grande', 'Verdana', 'Geneva', 'Lucid', 'Arial', 'Helvetica', 'Avant Garde', sans-serif; text-anchor: end" x="49.87" y="18.566655" transform="rotate(-0 49.87 18.566655)">800</text>
     </g>
    </g>
    <g id="text_14">
     <text style="font: 10px 'DejaVu Sans', 'Bitstream Vera Sans', 'Computer Modern Sans Serif', 'Lucida Grande', 'Verdana', 'Geneva', 'Lucid', 'Arial', 'Helvetica', 'Avant Garde', sans-serif; text-anchor: middle" x="18.702813" y="112.034105" transform="rotate(-90 18.702813 112.034105)">power (uW)</text>
    </g>
   </g>
   <g id="line2d_13">
    <path d="M 78.168182 99.973038 
L 79.878879 99.973038 
L 81.589576 64.567971 
L 83.300274 80.519704 
L 85.010971 77.796237 
L 86.721668 89.468238 
L 88.432366 75.072771 
L 90.143063 78.185304 
L 91.85376 68.847704 
L 93.564458 129.931172 
L 95.275155 122.927972 
L 96.985853 101.918371 
L 98.69655 40.05677 
L 100.407247 77.796237 
L 102.117945 123.706105 
L 103.828642 113.590371 
L 105.539339 85.966638 
L 107.250037 140.825039 
L 108.960734 77.796237 
L 110.671431 57.953837 
L 112.382129 64.178904 
L 114.092826 50.950637 
L 115.803523 107.754371 
L 117.514221 77.796237 
L 119.224918 50.56157 
L 120.935615 201.130373 
L 122.646313 111.645038 
L 124.35701 50.950637 
L 126.067707 96.860505 
L 127.778405 81.297838 
L 129.489102 52.506904 
L 131.199799 59.510104 
L 132.910497 75.072771 
L 136.331891 60.677304 
L 138.042589 66.902371 
L 139.753286 56.786637 
L 141.463983 95.304238 
L 143.174681 37.72237 
L 144.885378 32.275437 
L 146.596075 57.56477 
L 148.306773 70.014904 
L 150.01747 94.526104 
L 151.728167 57.56477 
L 153.438865 118.648238 
L 155.149562 66.513304 
L 158.570957 159.500239 
L 160.281654 68.847704 
L 161.992351 50.172504 
L 163.703049 54.06317 
L 165.413746 47.838104 
L 167.124443 44.336504 
L 168.835141 51.72877 
L 170.545838 94.137038 
L 172.256535 74.294637 
L 173.967233 106.198105 
L 175.67793 161.445572 
L 177.388627 104.252771 
L 179.099325 53.674104 
L 180.810022 77.407171 
L 182.520719 65.346104 
L 184.231417 140.825039 
L 185.942114 87.133838 
L 187.652811 58.73197 
L 189.363509 98.416771 
L 191.074206 66.902371 
L 192.784903 53.674104 
L 196.206298 141.992239 
L 197.916995 89.079171 
L 199.627693 73.905571 
L 201.33839 81.297838 
L 203.049087 48.616237 
L 204.759785 64.178904 
L 206.470482 56.39757 
L 208.181179 56.786637 
L 209.891877 72.738371 
L 211.602574 98.805838 
L 213.313271 47.838104 
L 215.023969 63.011704 
L 216.734666 93.358904 
L 218.445363 87.911971 
L 220.156061 37.333303 
L 221.866758 62.233571 
L 223.577455 76.239971 
L 225.288153 78.574371 
L 226.99885 83.243171 
L 228.709547 80.130638 
L 230.420245 73.127437 
L 232.130942 123.317038 
L 233.841639 84.799438 
L 235.552337 75.850904 
L 237.263034 74.294637 
L 238.973731 59.510104 
L 240.684429 78.963438 
L 242.395126 117.481038 
L 244.105823 98.805838 
L 245.816521 127.207705 
L 247.527218 91.413571 
L 249.237915 113.979438 
L 250.948613 130.709305 
L 252.65931 88.301038 
L 254.370007 79.741571 
L 256.080705 64.567971 
L 257.791402 99.973038 
L 259.502099 71.571171 
L 261.212797 124.484238 
L 262.923494 181.287973 
L 266.344889 88.301038 
L 268.055586 58.73197 
L 269.766283 59.89917 
L 271.476981 70.403971 
L 273.187678 82.465038 
L 274.898375 73.516504 
L 276.609073 69.625837 
L 278.31977 82.854104 
L 280.030467 84.410371 
L 281.741165 83.243171 
L 283.451862 87.133838 
L 285.162559 106.976238 
L 286.873257 58.342904 
L 288.583954 110.088771 
L 290.294651 35.777037 
L 292.005349 90.246371 
L 293.716046 102.307438 
L 295.426743 68.458637 
L 297.137441 120.593572 
L 298.848138 46.281837 
L 300.558835 137.712505 
L 302.269533 141.992239 
L 303.98023 100.751171 
L 305.690927 138.490639 
L 307.401625 64.567971 
L 309.112322 54.06317 
L 310.823019 64.567971 
L 312.533717 98.805838 
L 314.244414 142.770372 
L 315.955111 61.844504 
L 317.665809 82.854104 
L 319.376506 116.702905 
L 321.087203 89.857304 
L 322.797901 83.632238 
L 324.508598 110.866905 
L 326.219295 66.902371 
L 327.929993 77.018104 
L 329.64069 52.89597 
L 331.351387 49.005304 
L 333.062085 71.571171 
L 334.772782 110.866905 
L 336.483479 64.178904 
L 338.194177 64.567971 
L 339.904874 90.246371 
L 341.615571 38.111437 
L 343.326269 32.664503 
L 346.747663 152.107972 
L 348.458361 59.121037 
L 350.169058 67.680504 
L 351.879755 96.471438 
L 353.590453 70.793037 
L 355.30115 66.513304 
L 357.011847 99.973038 
L 358.722545 65.735171 
L 360.433242 58.342904 
L 362.143939 125.651438 
L 363.854637 49.783437 
L 365.565334 138.101572 
L 367.276031 94.137038 
L 368.986729 79.741571 
L 370.697426 80.130638 
L 372.408123 113.201305 
L 374.118821 57.56477 
L 375.829518 127.207705 
L 377.540215 53.285037 
L 379.250913 67.680504 
L 380.96161 56.008504 
L 382.672307 104.252771 
L 384.383005 67.291437 
L 386.093702 106.587171 
L 387.804399 74.683704 
L 389.515097 103.085571 
L 391.225794 61.455437 
L 392.936491 50.950637 
L 394.647189 61.844504 
L 396.357886 103.474638 
L 398.068583 22.937836 
L 399.779281 92.580771 
L 401.489978 61.844504 
L 403.200675 115.924772 
L 404.911373 76.239971 
L 406.62207 76.239971 
L 408.332767 104.252771 
L 410.043465 79.741571 
L 411.754162 87.133838 
L 413.464859 129.542105 
L 415.175557 55.23037 
L 416.886254 112.812238 
L 418.596951 74.683704 
L 420.307649 57.953837 
L 422.018346 66.124237 
L 423.729043 48.616237 
L 425.439741 66.124237 
L 427.150438 116.702905 
L 428.861135 86.355704 
L 430.571833 94.137038 
L 432.28253 163.779972 
L 433.993227 50.56157 
L 435.703925 147.439172 
L 437.414622 69.236771 
L 439.125319 58.73197 
L 440.836017 75.850904 
L 442.546714 113.979438 
L 444.257411 60.288237 
L 445.968109 34.609837 
L 447.678806 62.622637 
L 449.389503 66.902371 
L 451.100201 50.56157 
L 452.810898 39.278637 
L 454.521595 117.091972 
L 456.232293 120.982638 
L 457.94299 68.458637 
L 459.653687 71.182104 
L 461.364385 64.567971 
L 463.075082 77.018104 
L 464.785779 47.449037 
L 466.496477 92.191704 
L 468.207174 66.902371 
L 469.917871 78.963438 
L 471.628569 149.773572 
L 473.339266 65.735171 
L 475.049963 95.693304 
L 476.760661 79.741571 
L 478.471358 48.616237 
L 480.182055 96.082371 
L 481.892753 74.683704 
L 483.60345 57.175704 
L 485.314147 52.117837 
L 487.024845 72.738371 
L 488.735542 66.124237 
L 490.44624 77.407171 
L 492.156937 73.905571 
L 493.867634 89.468238 
L 495.578332 48.22717 
L 497.289029 131.487439 
L 498.999726 89.468238 
L 500.710424 50.56157 
L 502.421121 80.130638 
L 504.131818 118.259172 
L 504.131818 118.259172 
" clip-path="url(#pc705cc3ab3)" style="fill: none; stroke: #99004d; stroke-width: 0.8; stroke-linecap: square"/>
   </g>
   <g id="patch_3">
    <path d="M 56.87 210.04 
L 56.87 14.02821 
" style="fill: none; stroke: #000000; stroke-width: 0.8; stroke-linejoin: miter; stroke-linecap: square"/>
   </g>
   <g id="patch_4">
    <path d="M 525.43 210.04 
L 525.43 14.02821 
" style="fill: none; stroke: #000000; stroke-width: 0.8; stroke-linejoin: miter; stroke-linecap: square"/>
   </g>
   <g id="patch_5">
    <path d="M 56.87 210.04 
L 525.43 210.04 
" style="fill: none; stroke: #000000; stroke-width: 0.8; stroke-linejoin: miter; stroke-linecap: square"/>
   </g>
   <g id="patch_6">
    <path d="M 56.87 14.02821 
L 525.43 14.02821 
" style="fill: none; stroke: #000000; stroke-width: 0.8; stroke-linejoin: miter; stroke-linecap: square"/>
   </g>
  </g>
  <g id="axes_2">
   <g id="matplotlib.axis_3">
    <g id="ytick_7">
     <g id="line2d_14">
      <defs>
       <path id="m10a5614b62" d="M 0 0 
L 3.5 0 
" style="stroke: #000000; stroke-width: 0.8"/>
      </defs>
      <g>
       <use xlink:href="#m10a5614b62" x="525.43" y="185.407502" style="stroke: #000000; stroke-width: 0.8"/>
      </g>
     </g>
     <g id="text_15">
      <text style="font: 10px 'DejaVu Sans', 'Bitstream Vera Sans', 'Computer Modern Sans Serif', 'Lucida Grande', 'Verdana', 'Geneva', 'Lucid', 'Arial', 'Helvetica', 'Avant Garde', sans-serif; text-anchor: start" x="532.43" y="189.206721" transform="rotate(-0 532.43 189.206721)">5</text>
     </g>
    </g>
    <g id="ytick_8">
     <g id="line2d_15">
      <g>
       <use xlink:href="#m10a5614b62" x="525.43" y="159.202717" style="stroke: #000000; stroke-width: 0.8"/>
      </g>
     </g>
     <g id="text_16">
      <text style="font: 10px 'DejaVu Sans', 'Bitstream Vera Sans', 'Computer Modern Sans Serif', 'Lucida Grande', 'Verdana', 'Geneva', 'Lucid', 'Arial', 'Helvetica', 'Avant Garde', sans-serif; text-anchor: start" x="532.43" y="163.001936" transform="rotate(-0 532.43 163.001936)">10</text>
     </g>
    </g>
    <g id="ytick_9">
     <g id="line2d_16">
      <g>
       <use xlink:href="#m10a5614b62" x="525.43" y="132.997933" style="stroke: #000000; stroke-width: 0.8"/>
      </g>
     </g>
     <g id="text_17">
      <text style="font: 10px 'DejaVu Sans', 'Bitstream Vera Sans', 'Computer Modern Sans Serif', 'Lucida Grande', 'Verdana', 'Geneva', 'Lucid', 'Arial', 'Helvetica', 'Avant Garde', sans-serif; text-anchor: start" x="532.43" y="136.797151" transform="rotate(-0 532.43 136.797151)">15</text>
     </g>
    </g>
    <g id="ytick_10">
     <g id="line2d_17">
      <g>
       <use xlink:href="#m10a5614b62" x="525.43" y="106.793148" style="stroke: #000000; stroke-width: 0.8"/>
      </g>
     </g>
     <g id="text_18">
      <text style="font: 10px 'DejaVu Sans', 'Bitstream Vera Sans', 'Computer Modern Sans Serif', 'Lucida Grande', 'Verdana', 'Geneva', 'Lucid', 'Arial', 'Helvetica', 'Avant Garde', sans-serif; text-anchor: start" x="532.43" y="110.592367" transform="rotate(-0 532.43 110.592367)">20</text>
     </g>
    </g>
    <g id="ytick_11">
     <g id="line2d_18">
      <g>
       <use xlink:href="#m10a5614b62" x="525.43" y="80.588363" style="stroke: #000000; stroke-width: 0.8"/>
      </g>
     </g>
     <g id="text_19">
      <text style="font: 10px 'DejaVu Sans', 'Bitstream Vera Sans', 'Computer Modern Sans Serif', 'Lucida Grande', 'Verdana', 'Geneva', 'Lucid', 'Arial', 'Helvetica', 'Avant Garde', sans-serif; text-anchor: start" x="532.43" y="84.387582" transform="rotate(-0 532.43 84.387582)">25</text>
     </g>
    </g>
    <g id="ytick_12">
     <g id="line2d_19">
      <g>
       <use xlink:href="#m10a5614b62" x="525.43" y="54.383578" style="stroke: #000000; stroke-width: 0.8"/>
      </g>
     </g>
     <g id="text_20">
      <text style="font: 10px 'DejaVu Sans', 'Bitstream Vera Sans', 'Computer Modern Sans Serif', 'Lucida Grande', 'Verdana', 'Geneva', 'Lucid', 'Arial', 'Helvetica', 'Avant Garde', sans-serif; text-anchor: start" x="532.43" y="58.182797" transform="rotate(-0 532.43 58.182797)">30</text>
     </g>
    </g>
    <g id="ytick_13">
     <g id="line2d_20">
      <g>
       <use xlink:href="#m10a5614b62" x="525.43" y="28.178793" style="stroke: #000000; stroke-width: 0.8"/>
      </g>
     </g>
     <g id="text_21">
      <text style="font: 10px 'DejaVu Sans', 'Bitstream Vera Sans', 'Computer Modern Sans Serif', 'Lucida Grande', 'Verdana', 'Geneva', 'Lucid', 'Arial', 'Helvetica', 'Avant Garde', sans-serif; text-anchor: start" x="532.43" y="31.978012" transform="rotate(-0 532.43 31.978012)">35</text>
     </g>
    </g>
    <g id="text_22">
     <text style="font: 10px 'DejaVu Sans', 'Bitstream Vera Sans', 'Computer Modern Sans Serif', 'Lucida Grande', 'Verdana', 'Geneva', 'Lucid', 'Arial', 'Helvetica', 'Avant Garde', sans-serif; text-anchor: middle" x="562.753438" y="112.034105" transform="rotate(-90 562.753438 112.034105)">hw(data)</text>
    </g>
   </g>
   <g id="line2d_21">
    <path d="M 78.168182 138.23889 
L 79.878879 117.275062 
L 81.589576 85.82932 
L 83.300274 122.516019 
L 85.010971 54.383578 
L 86.721668 138.23889 
L 88.432366 101.552191 
L 90.143063 112.034105 
L 91.85376 54.383578 
L 93.564458 180.166545 
L 95.275155 70.106449 
L 96.985853 64.865492 
L 98.69655 43.901664 
L 100.407247 59.624535 
L 102.117945 159.202717 
L 103.828642 153.961761 
L 105.539339 80.588363 
L 107.250037 148.720804 
L 108.960734 122.516019 
L 110.671431 91.070277 
L 112.382129 64.865492 
L 114.092826 43.901664 
L 115.803523 169.684631 
L 117.514221 106.793148 
L 119.224918 85.82932 
L 120.935615 201.130373 
L 122.646313 54.383578 
L 124.35701 49.142621 
L 126.067707 138.23889 
L 127.778405 70.106449 
L 129.489102 22.937836 
L 131.199799 64.865492 
L 132.910497 28.178793 
L 134.621194 75.347406 
L 136.331891 85.82932 
L 138.042589 80.588363 
L 139.753286 59.624535 
L 141.463983 80.588363 
L 143.174681 43.901664 
L 144.885378 22.937836 
L 146.596075 49.142621 
L 148.306773 64.865492 
L 150.01747 117.275062 
L 151.728167 49.142621 
L 153.438865 106.793148 
L 155.149562 96.311234 
L 156.860259 112.034105 
L 158.570957 159.202717 
L 160.281654 101.552191 
L 161.992351 70.106449 
L 163.703049 64.865492 
L 165.413746 91.070277 
L 167.124443 64.865492 
L 168.835141 75.347406 
L 170.545838 38.660707 
L 172.256535 127.756976 
L 173.967233 143.479847 
L 175.67793 148.720804 
L 177.388627 138.23889 
L 179.099325 49.142621 
L 180.810022 148.720804 
L 182.520719 91.070277 
L 184.231417 169.684631 
L 185.942114 43.901664 
L 187.652811 64.865492 
L 189.363509 75.347406 
L 191.074206 54.383578 
L 192.784903 54.383578 
L 194.495601 132.997933 
L 196.206298 153.961761 
L 197.916995 106.793148 
L 199.627693 70.106449 
L 201.33839 96.311234 
L 203.049087 38.660707 
L 204.759785 70.106449 
L 206.470482 54.383578 
L 208.181179 54.383578 
L 209.891877 49.142621 
L 211.602574 122.516019 
L 213.313271 43.901664 
L 215.023969 70.106449 
L 216.734666 91.070277 
L 218.445363 106.793148 
L 220.156061 59.624535 
L 221.866758 122.516019 
L 223.577455 64.865492 
L 225.288153 96.311234 
L 226.99885 43.901664 
L 228.709547 106.793148 
L 230.420245 75.347406 
L 232.130942 117.275062 
L 233.841639 59.624535 
L 235.552337 91.070277 
L 237.263034 64.865492 
L 238.973731 112.034105 
L 240.684429 43.901664 
L 242.395126 117.275062 
L 244.105823 138.23889 
L 245.816521 153.961761 
L 247.527218 122.516019 
L 249.237915 138.23889 
L 250.948613 138.23889 
L 252.65931 112.034105 
L 254.370007 122.516019 
L 256.080705 64.865492 
L 257.791402 112.034105 
L 259.502099 85.82932 
L 261.212797 159.202717 
L 262.923494 195.889416 
L 264.634191 101.552191 
L 266.344889 101.552191 
L 268.055586 75.347406 
L 269.766283 64.865492 
L 271.476981 91.070277 
L 273.187678 80.588363 
L 274.898375 101.552191 
L 276.609073 64.865492 
L 278.31977 80.588363 
L 280.030467 54.383578 
L 281.741165 112.034105 
L 283.451862 96.311234 
L 285.162559 106.793148 
L 286.873257 49.142621 
L 288.583954 106.793148 
L 290.294651 49.142621 
L 292.005349 101.552191 
L 293.716046 127.756976 
L 295.426743 85.82932 
L 297.137441 117.275062 
L 298.848138 49.142621 
L 300.558835 143.479847 
L 302.269533 148.720804 
L 303.98023 101.552191 
L 305.690927 127.756976 
L 307.401625 70.106449 
L 309.112322 64.865492 
L 310.823019 91.070277 
L 312.533717 80.588363 
L 314.244414 164.443674 
L 315.955111 85.82932 
L 317.665809 59.624535 
L 319.376506 153.961761 
L 321.087203 85.82932 
L 322.797901 112.034105 
L 324.508598 132.997933 
L 326.219295 70.106449 
L 327.929993 59.624535 
L 329.64069 43.901664 
L 331.351387 64.865492 
L 333.062085 96.311234 
L 334.772782 132.997933 
L 336.483479 54.383578 
L 338.194177 64.865492 
L 339.904874 80.588363 
L 341.615571 59.624535 
L 343.326269 49.142621 
L 345.036966 96.311234 
L 346.747663 180.166545 
L 348.458361 64.865492 
L 350.169058 80.588363 
L 351.879755 101.552191 
L 353.590453 96.311234 
L 355.30115 101.552191 
L 357.011847 127.756976 
L 358.722545 80.588363 
L 360.433242 59.624535 
L 362.143939 127.756976 
L 363.854637 54.383578 
L 365.565334 185.407502 
L 367.276031 96.311234 
L 368.986729 59.624535 
L 370.697426 122.516019 
L 372.408123 117.275062 
L 374.118821 54.383578 
L 375.829518 106.793148 
L 377.540215 80.588363 
L 379.250913 96.311234 
L 380.96161 54.383578 
L 382.672307 64.865492 
L 384.383005 122.516019 
L 386.093702 112.034105 
L 387.804399 59.624535 
L 389.515097 101.552191 
L 391.225794 101.552191 
L 392.936491 75.347406 
L 396.357886 127.756976 
L 398.068583 28.178793 
L 399.779281 101.552191 
L 403.200675 122.516019 
L 404.911373 75.347406 
L 406.62207 127.756976 
L 410.043465 96.311234 
L 411.754162 143.479847 
L 413.464859 138.23889 
L 415.175557 64.865492 
L 416.886254 112.034105 
L 418.596951 54.383578 
L 420.307649 80.588363 
L 422.018346 43.901664 
L 423.729043 64.865492 
L 425.439741 91.070277 
L 427.150438 159.202717 
L 428.861135 75.347406 
L 430.571833 80.588363 
L 432.28253 180.166545 
L 433.993227 64.865492 
L 435.703925 174.925588 
L 437.414622 70.106449 
L 439.125319 59.624535 
L 440.836017 91.070277 
L 442.546714 127.756976 
L 444.257411 85.82932 
L 445.968109 28.178793 
L 447.678806 70.106449 
L 449.389503 91.070277 
L 451.100201 117.275062 
L 452.810898 64.865492 
L 454.521595 127.756976 
L 456.232293 143.479847 
L 457.94299 54.383578 
L 459.653687 49.142621 
L 461.364385 70.106449 
L 463.075082 132.997933 
L 464.785779 59.624535 
L 466.496477 122.516019 
L 468.207174 28.178793 
L 469.917871 64.865492 
L 471.628569 132.997933 
L 473.339266 91.070277 
L 475.049963 91.070277 
L 476.760661 59.624535 
L 478.471358 33.41975 
L 480.182055 80.588363 
L 481.892753 117.275062 
L 483.60345 106.793148 
L 485.314147 75.347406 
L 487.024845 101.552191 
L 488.735542 28.178793 
L 490.44624 80.588363 
L 492.156937 49.142621 
L 493.867634 85.82932 
L 495.578332 22.937836 
L 497.289029 122.516019 
L 498.999726 106.793148 
L 500.710424 28.178793 
L 502.421121 112.034105 
L 504.131818 169.684631 
L 504.131818 169.684631 
" clip-path="url(#pc705cc3ab3)" style="fill: none; stroke: #235996; stroke-width: 0.8; stroke-linecap: square"/>
   </g>
   <g id="patch_7">
    <path d="M 56.87 210.04 
L 56.87 14.02821 
" style="fill: none; stroke: #000000; stroke-width: 0.8; stroke-linejoin: miter; stroke-linecap: square"/>
   </g>
   <g id="patch_8">
    <path d="M 525.43 210.04 
L 525.43 14.02821 
" style="fill: none; stroke: #000000; stroke-width: 0.8; stroke-linejoin: miter; stroke-linecap: square"/>
   </g>
   <g id="patch_9">
    <path d="M 56.87 210.04 
L 525.43 210.04 
" style="fill: none; stroke: #000000; stroke-width: 0.8; stroke-linejoin: miter; stroke-linecap: square"/>
   </g>
   <g id="patch_10">
    <path d="M 56.87 14.02821 
L 525.43 14.02821 
" style="fill: none; stroke: #000000; stroke-width: 0.8; stroke-linejoin: miter; stroke-linecap: square"/>
   </g>
   <g id="legend_1">
    <g id="patch_11">
     <path d="M 150.539625 46.68471 
L 431.760375 46.68471 
Q 434.640375 46.68471 434.640375 43.80471 
L 434.640375 24.10821 
Q 434.640375 21.22821 431.760375 21.22821 
L 150.539625 21.22821 
Q 147.659625 21.22821 147.659625 24.10821 
L 147.659625 43.80471 
Q 147.659625 46.68471 150.539625 46.68471 
z
" style="fill: #ffffff; opacity: 0.8; stroke: #000000; stroke-linejoin: miter"/>
    </g>
    <g id="line2d_22">
     <path d="M 153.419625 32.88996 
L 167.819625 32.88996 
L 182.219625 32.88996 
" style="fill: none; stroke: #99004d; stroke-width: 0.8; stroke-linecap: square"/>
    </g>
    <g id="text_23">
     <text style="font: 14.4px 'DejaVu Sans', 'Bitstream Vera Sans', 'Computer Modern Sans Serif', 'Lucida Grande', 'Verdana', 'Geneva', 'Lucid', 'Arial', 'Helvetica', 'Avant Garde', sans-serif; text-anchor: start" x="193.739625" y="37.92996" transform="rotate(-0 193.739625 37.92996)">power</text>
    </g>
    <g id="line2d_23">
     <path d="M 267.049125 32.88996 
L 281.449125 32.88996 
L 295.849125 32.88996 
" style="fill: none; stroke: #235996; stroke-width: 0.8; stroke-linecap: square"/>
    </g>
    <g id="text_24">
     <text style="font: 14.4px 'DejaVu Sans', 'Bitstream Vera Sans', 'Computer Modern Sans Serif', 'Lucida Grande', 'Verdana', 'Geneva', 'Lucid', 'Arial', 'Helvetica', 'Avant Garde', sans-serif; text-anchor: start" x="307.369125" y="37.92996" transform="rotate(-0 307.369125 37.92996)">hw(rs1)+hw(rs2)</text>
    </g>
   </g>
  </g>
 </g>
 <defs>
  <clipPath id="pc705cc3ab3">
   <rect x="56.87" y="14.02821" width="468.56" height="196.01179"/>
  </clipPath>
 </defs>
</svg>
