<?xml version="1.0" encoding="utf-8" standalone="no"?>
<!DOCTYPE svg PUBLIC "-//W3C//DTD SVG 1.1//EN"
  "http://www.w3.org/Graphics/SVG/1.1/DTD/svg11.dtd">
<svg xmlns:xlink="http://www.w3.org/1999/xlink" width="576pt" height="252pt" viewBox="0 0 576 252" xmlns="http://www.w3.org/2000/svg" version="1.1">
 <metadata>
  <rdf:RDF xmlns:dc="http://purl.org/dc/elements/1.1/" xmlns:cc="http://creativecommons.org/ns#" xmlns:rdf="http://www.w3.org/1999/02/22-rdf-syntax-ns#">
   <cc:Work>
    <dc:type rdf:resource="http://purl.org/dc/dcmitype/StillImage"/>
    <dc:date>2023-12-06T16:44:49.452354</dc:date>
    <dc:format>image/svg+xml</dc:format>
    <dc:creator>
     <cc:Agent>
      <dc:title>Matplotlib v3.7.4, https://matplotlib.org/</dc:title>
     </cc:Agent>
    </dc:creator>
   </cc:Work>
  </rdf:RDF>
 </metadata>
 <defs>
  <style type="text/css">*{stroke-linejoin: round; stroke-linecap: butt}</style>
 </defs>
 <g id="figure_1">
  <g id="patch_1">
   <path d="M 0 252 
L 576 252 
L 576 0 
L 0 0 
z
" style="fill: #ffffff"/>
  </g>
  <g id="axes_1">
   <g id="patch_2">
    <path d="M 56.87 210.04 
L 525.43 210.04 
L 525.43 13.226087 
L 56.87 13.226087 
z
" style="fill: #ffffff"/>
   </g>
   <g id="matplotlib.axis_1">
    <g id="xtick_1">
     <g id="line2d_1">
      <defs>
       <path id="mf8bbab4135" d="M 0 0 
L 0 3.5 
" style="stroke: #000000; stroke-width: 0.8"/>
      </defs>
      <g>
       <use xlink:href="#mf8bbab4135" x="78.168182" y="210.04" style="stroke: #000000; stroke-width: 0.8"/>
      </g>
     </g>
     <g id="text_1">
      <text style="font: 10px 'DejaVu Sans', 'Bitstream Vera Sans', 'Computer Modern Sans Serif', 'Lucida Grande', 'Verdana', 'Geneva', 'Lucid', 'Arial', 'Helvetica', 'Avant Garde', sans-serif; text-anchor: middle" x="78.168182" y="224.638438" transform="rotate(-0 78.168182 224.638438)">0</text>
     </g>
    </g>
    <g id="xtick_2">
     <g id="line2d_2">
      <g>
       <use xlink:href="#mf8bbab4135" x="163.703049" y="210.04" style="stroke: #000000; stroke-width: 0.8"/>
      </g>
     </g>
     <g id="text_2">
      <text style="font: 10px 'DejaVu Sans', 'Bitstream Vera Sans', 'Computer Modern Sans Serif', 'Lucida Grande', 'Verdana', 'Geneva', 'Lucid', 'Arial', 'Helvetica', 'Avant Garde', sans-serif; text-anchor: middle" x="163.703049" y="224.638438" transform="rotate(-0 163.703049 224.638438)">50</text>
     </g>
    </g>
    <g id="xtick_3">
     <g id="line2d_3">
      <g>
       <use xlink:href="#mf8bbab4135" x="249.237915" y="210.04" style="stroke: #000000; stroke-width: 0.8"/>
      </g>
     </g>
     <g id="text_3">
      <text style="font: 10px 'DejaVu Sans', 'Bitstream Vera Sans', 'Computer Modern Sans Serif', 'Lucida Grande', 'Verdana', 'Geneva', 'Lucid', 'Arial', 'Helvetica', 'Avant Garde', sans-serif; text-anchor: middle" x="249.237915" y="224.638438" transform="rotate(-0 249.237915 224.638438)">100</text>
     </g>
    </g>
    <g id="xtick_4">
     <g id="line2d_4">
      <g>
       <use xlink:href="#mf8bbab4135" x="334.772782" y="210.04" style="stroke: #000000; stroke-width: 0.8"/>
      </g>
     </g>
     <g id="text_4">
      <text style="font: 10px 'DejaVu Sans', 'Bitstream Vera Sans', 'Computer Modern Sans Serif', 'Lucida Grande', 'Verdana', 'Geneva', 'Lucid', 'Arial', 'Helvetica', 'Avant Garde', sans-serif; text-anchor: middle" x="334.772782" y="224.638438" transform="rotate(-0 334.772782 224.638438)">150</text>
     </g>
    </g>
    <g id="xtick_5">
     <g id="line2d_5">
      <g>
       <use xlink:href="#mf8bbab4135" x="420.307649" y="210.04" style="stroke: #000000; stroke-width: 0.8"/>
      </g>
     </g>
     <g id="text_5">
      <text style="font: 10px 'DejaVu Sans', 'Bitstream Vera Sans', 'Computer Modern Sans Serif', 'Lucida Grande', 'Verdana', 'Geneva', 'Lucid', 'Arial', 'Helvetica', 'Avant Garde', sans-serif; text-anchor: middle" x="420.307649" y="224.638438" transform="rotate(-0 420.307649 224.638438)">200</text>
     </g>
    </g>
    <g id="xtick_6">
     <g id="line2d_6">
      <g>
       <use xlink:href="#mf8bbab4135" x="505.842516" y="210.04" style="stroke: #000000; stroke-width: 0.8"/>
      </g>
     </g>
     <g id="text_6">
      <text style="font: 10px 'DejaVu Sans', 'Bitstream Vera Sans', 'Computer Modern Sans Serif', 'Lucida Grande', 'Verdana', 'Geneva', 'Lucid', 'Arial', 'Helvetica', 'Avant Garde', sans-serif; text-anchor: middle" x="505.842516" y="224.638438" transform="rotate(-0 505.842516 224.638438)">250</text>
     </g>
    </g>
    <g id="text_7">
     <text style="font: 10px 'DejaVu Sans', 'Bitstream Vera Sans', 'Computer Modern Sans Serif', 'Lucida Grande', 'Verdana', 'Geneva', 'Lucid', 'Arial', 'Helvetica', 'Avant Garde', sans-serif; text-anchor: middle" x="291.15" y="238.316563" transform="rotate(-0 291.15 238.316563)">Cycles</text>
    </g>
   </g>
   <g id="matplotlib.axis_2">
    <g id="ytick_1">
     <g id="line2d_7">
      <defs>
       <path id="maae0c0ada7" d="M 0 0 
L -3.5 0 
" style="stroke: #000000; stroke-width: 0.8"/>
      </defs>
      <g>
       <use xlink:href="#maae0c0ada7" x="56.87" y="209.262079" style="stroke: #000000; stroke-width: 0.8"/>
      </g>
     </g>
     <g id="text_8">
      <text style="font: 10px 'DejaVu Sans', 'Bitstream Vera Sans', 'Computer Modern Sans Serif', 'Lucida Grande', 'Verdana', 'Geneva', 'Lucid', 'Arial', 'Helvetica', 'Avant Garde', sans-serif; text-anchor: end" x="49.87" y="213.061298" transform="rotate(-0 49.87 213.061298)">300</text>
     </g>
    </g>
    <g id="ytick_2">
     <g id="line2d_8">
      <g>
       <use xlink:href="#maae0c0ada7" x="56.87" y="170.366049" style="stroke: #000000; stroke-width: 0.8"/>
      </g>
     </g>
     <g id="text_9">
      <text style="font: 10px 'DejaVu Sans', 'Bitstream Vera Sans', 'Computer Modern Sans Serif', 'Lucida Grande', 'Verdana', 'Geneva', 'Lucid', 'Arial', 'Helvetica', 'Avant Garde', sans-serif; text-anchor: end" x="49.87" y="174.165268" transform="rotate(-0 49.87 174.165268)">400</text>
     </g>
    </g>
    <g id="ytick_3">
     <g id="line2d_9">
      <g>
       <use xlink:href="#maae0c0ada7" x="56.87" y="131.470019" style="stroke: #000000; stroke-width: 0.8"/>
      </g>
     </g>
     <g id="text_10">
      <text style="font: 10px 'DejaVu Sans', 'Bitstream Vera Sans', 'Computer Modern Sans Serif', 'Lucida Grande', 'Verdana', 'Geneva', 'Lucid', 'Arial', 'Helvetica', 'Avant Garde', sans-serif; text-anchor: end" x="49.87" y="135.269238" transform="rotate(-0 49.87 135.269238)">500</text>
     </g>
    </g>
    <g id="ytick_4">
     <g id="line2d_10">
      <g>
       <use xlink:href="#maae0c0ada7" x="56.87" y="92.573989" style="stroke: #000000; stroke-width: 0.8"/>
      </g>
     </g>
     <g id="text_11">
      <text style="font: 10px 'DejaVu Sans', 'Bitstream Vera Sans', 'Computer Modern Sans Serif', 'Lucida Grande', 'Verdana', 'Geneva', 'Lucid', 'Arial', 'Helvetica', 'Avant Garde', sans-serif; text-anchor: end" x="49.87" y="96.373207" transform="rotate(-0 49.87 96.373207)">600</text>
     </g>
    </g>
    <g id="ytick_5">
     <g id="line2d_11">
      <g>
       <use xlink:href="#maae0c0ada7" x="56.87" y="53.677958" style="stroke: #000000; stroke-width: 0.8"/>
      </g>
     </g>
     <g id="text_12">
      <text style="font: 10px 'DejaVu Sans', 'Bitstream Vera Sans', 'Computer Modern Sans Serif', 'Lucida Grande', 'Verdana', 'Geneva', 'Lucid', 'Arial', 'Helvetica', 'Avant Garde', sans-serif; text-anchor: end" x="49.87" y="57.477177" transform="rotate(-0 49.87 57.477177)">700</text>
     </g>
    </g>
    <g id="ytick_6">
     <g id="line2d_12">
      <g>
       <use xlink:href="#maae0c0ada7" x="56.87" y="14.781928" style="stroke: #000000; stroke-width: 0.8"/>
      </g>
     </g>
     <g id="text_13">
      <text style="font: 10px 'DejaVu Sans', 'Bitstream Vera Sans', 'Computer Modern Sans Serif', 'Lucida Grande', 'Verdana', 'Geneva', 'Lucid', 'Arial', 'Helvetica', 'Avant Garde', sans-serif; text-anchor: end" x="49.87" y="18.581147" transform="rotate(-0 49.87 18.581147)">800</text>
     </g>
    </g>
    <g id="text_14">
     <text style="font: 10px 'DejaVu Sans', 'Bitstream Vera Sans', 'Computer Modern Sans Serif', 'Lucida Grande', 'Verdana', 'Geneva', 'Lucid', 'Arial', 'Helvetica', 'Avant Garde', sans-serif; text-anchor: middle" x="18.702813" y="111.633043" transform="rotate(-90 18.702813 111.633043)">power (uW)</text>
    </g>
   </g>
   <g id="line2d_13">
    <path d="M 78.168182 78.182457 
L 79.878879 49.010435 
L 81.589576 86.739584 
L 83.300274 61.846125 
L 85.010971 91.796068 
L 86.721668 173.477732 
L 88.432366 37.341626 
L 90.143063 27.228658 
L 91.85376 124.468733 
L 93.564458 34.229943 
L 95.275155 49.788355 
L 96.985853 101.909036 
L 98.69655 52.900038 
L 100.407247 57.956522 
L 102.117945 96.074631 
L 103.828642 125.246654 
L 105.539339 39.675388 
L 107.250037 76.626616 
L 108.960734 38.508507 
L 110.671431 120.57913 
L 112.382129 48.232514 
L 114.092826 89.462306 
L 115.803523 74.681815 
L 117.514221 26.450737 
L 119.224918 68.84741 
L 120.935615 127.580416 
L 122.646313 57.567561 
L 124.35701 77.015577 
L 126.067707 65.735728 
L 127.778405 128.358336 
L 129.489102 138.082344 
L 131.199799 125.635614 
L 132.910497 130.692098 
L 134.621194 81.6831 
L 136.331891 69.625331 
L 138.042589 115.911607 
L 139.753286 79.349338 
L 141.463983 157.919319 
L 143.174681 75.848696 
L 144.885378 62.235085 
L 146.596075 105.798639 
L 148.306773 47.843554 
L 150.01747 58.734442 
L 151.728167 89.073346 
L 153.438865 51.733157 
L 155.149562 75.848696 
L 156.860259 89.462306 
L 158.570957 124.079773 
L 160.281654 71.570132 
L 161.992351 84.794783 
L 163.703049 71.570132 
L 165.413746 136.915463 
L 167.124443 38.897467 
L 168.835141 62.235085 
L 170.545838 66.124688 
L 172.256535 110.855123 
L 173.967233 61.068204 
L 175.67793 119.80121 
L 177.388627 79.738299 
L 179.099325 112.410964 
L 180.810022 70.792212 
L 182.520719 96.463592 
L 184.231417 54.844839 
L 185.942114 46.287713 
L 187.652811 89.073346 
L 189.363509 142.749868 
L 191.074206 69.236371 
L 192.784903 84.016862 
L 194.495601 145.86155 
L 196.206298 62.235085 
L 197.916995 71.570132 
L 199.627693 116.300567 
L 201.33839 147.028431 
L 203.049087 90.240227 
L 204.759785 71.181172 
L 206.470482 117.856408 
L 208.181179 154.418677 
L 209.891877 118.634329 
L 211.602574 77.015577 
L 213.313271 122.912892 
L 215.023969 85.961664 
L 216.734666 118.634329 
L 218.445363 129.525217 
L 220.156061 57.567561 
L 221.866758 75.459735 
L 223.577455 103.075917 
L 225.288153 114.744726 
L 226.99885 107.35448 
L 228.709547 133.02586 
L 230.420245 134.192741 
L 232.130942 173.088771 
L 233.841639 58.345482 
L 235.552337 75.459735 
L 237.263034 115.133686 
L 238.973731 130.303138 
L 240.684429 64.957807 
L 242.395126 99.964234 
L 244.105823 103.464877 
L 245.816521 69.625331 
L 247.527218 82.461021 
L 249.237915 63.013006 
L 250.948613 96.074631 
L 252.65931 94.12983 
L 254.370007 63.401966 
L 256.080705 69.625331 
L 257.791402 54.844839 
L 259.502099 60.290284 
L 261.212797 56.789641 
L 262.923494 49.399395 
L 266.344889 103.853837 
L 268.055586 108.910321 
L 269.766283 68.84741 
L 271.476981 100.353195 
L 273.187678 65.346767 
L 274.898375 99.186314 
L 276.609073 92.185028 
L 278.31977 67.680529 
L 280.030467 115.522647 
L 281.741165 70.792212 
L 283.451862 75.459735 
L 285.162559 72.737013 
L 286.873257 59.123403 
L 288.583954 84.794783 
L 290.294651 40.064348 
L 292.005349 56.400681 
L 293.716046 103.464877 
L 295.426743 61.068204 
L 297.137441 150.529074 
L 298.848138 140.805066 
L 300.558835 50.566276 
L 302.269533 66.902609 
L 303.98023 123.690813 
L 305.690927 73.125974 
L 307.401625 63.790926 
L 309.112322 84.794783 
L 310.823019 62.235085 
L 312.533717 168.810208 
L 314.244414 56.400681 
L 315.955111 178.145255 
L 317.665809 52.511078 
L 319.376506 46.287713 
L 321.087203 129.914178 
L 322.797901 39.286427 
L 324.508598 98.408393 
L 326.219295 88.684386 
L 327.929993 91.796068 
L 329.64069 82.461021 
L 331.351387 58.345482 
L 333.062085 57.956522 
L 334.772782 73.125974 
L 336.483479 71.959093 
L 338.194177 61.846125 
L 339.904874 124.079773 
L 341.615571 68.84741 
L 343.326269 22.172174 
L 345.036966 133.41482 
L 346.747663 70.014291 
L 348.458361 81.29414 
L 350.169058 90.629187 
L 351.879755 201.093913 
L 353.590453 39.675388 
L 355.30115 93.351909 
L 357.011847 127.580416 
L 358.722545 136.915463 
L 360.433242 88.295425 
L 362.143939 101.520076 
L 363.854637 67.680529 
L 365.565334 92.962949 
L 367.276031 104.631758 
L 368.986729 164.531645 
L 370.697426 105.798639 
L 372.408123 74.681815 
L 374.118821 105.409679 
L 375.829518 96.463592 
L 377.540215 71.570132 
L 379.250913 24.116975 
L 380.96161 78.571418 
L 382.672307 60.679244 
L 384.383005 144.694669 
L 386.093702 171.14397 
L 387.804399 79.738299 
L 389.515097 55.62276 
L 391.225794 87.906465 
L 392.936491 49.010435 
L 394.647189 71.570132 
L 396.357886 167.254367 
L 398.068583 133.02586 
L 399.779281 110.855123 
L 401.489978 60.290284 
L 403.200675 74.292854 
L 404.911373 91.407108 
L 406.62207 52.122117 
L 408.332767 68.84741 
L 410.043465 92.962949 
L 411.754162 30.34034 
L 413.464859 87.517505 
L 415.175557 138.860265 
L 416.886254 49.010435 
L 418.596951 60.290284 
L 420.307649 112.799924 
L 422.018346 61.457164 
L 423.729043 61.068204 
L 425.439741 107.35448 
L 427.150438 51.733157 
L 428.861135 63.013006 
L 430.571833 145.86155 
L 432.28253 44.731871 
L 433.993227 115.522647 
L 435.703925 60.290284 
L 437.414622 96.852552 
L 439.125319 70.792212 
L 440.836017 47.454594 
L 442.546714 137.693384 
L 444.257411 55.62276 
L 445.968109 44.731871 
L 447.678806 31.896181 
L 449.389503 59.901323 
L 451.100201 65.735728 
L 452.810898 67.680529 
L 454.521595 78.182457 
L 456.232293 96.463592 
L 457.94299 43.564991 
L 459.653687 95.685671 
L 461.364385 154.807637 
L 463.075082 173.088771 
L 464.785779 104.631758 
L 466.496477 113.577845 
L 468.207174 63.013006 
L 469.917871 62.235085 
L 471.628569 108.521361 
L 473.339266 134.970662 
L 475.049963 70.792212 
L 476.760661 81.29414 
L 478.471358 60.290284 
L 480.182055 166.087486 
L 481.892753 114.744726 
L 483.60345 41.620189 
L 485.314147 121.746011 
L 487.024845 97.630473 
L 488.735542 61.457164 
L 490.44624 68.84741 
L 492.156937 110.077202 
L 493.867634 64.568847 
L 495.578332 66.124688 
L 497.289029 112.410964 
L 498.999726 85.183743 
L 500.710424 40.064348 
L 502.421121 61.457164 
L 504.131818 64.568847 
L 504.131818 64.568847 
" clip-path="url(#p7ba46af8cc)" style="fill: none; stroke: #99004d; stroke-width: 0.8; stroke-linecap: square"/>
   </g>
   <g id="patch_3">
    <path d="M 56.87 210.04 
L 56.87 13.226087 
" style="fill: none; stroke: #000000; stroke-width: 0.8; stroke-linejoin: miter; stroke-linecap: square"/>
   </g>
   <g id="patch_4">
    <path d="M 525.43 210.04 
L 525.43 13.226087 
" style="fill: none; stroke: #000000; stroke-width: 0.8; stroke-linejoin: miter; stroke-linecap: square"/>
   </g>
   <g id="patch_5">
    <path d="M 56.87 210.04 
L 525.43 210.04 
" style="fill: none; stroke: #000000; stroke-width: 0.8; stroke-linejoin: miter; stroke-linecap: square"/>
   </g>
   <g id="patch_6">
    <path d="M 56.87 13.226087 
L 525.43 13.226087 
" style="fill: none; stroke: #000000; stroke-width: 0.8; stroke-linejoin: miter; stroke-linecap: square"/>
   </g>
  </g>
  <g id="axes_2">
   <g id="matplotlib.axis_3">
    <g id="ytick_7">
     <g id="line2d_14">
      <defs>
       <path id="mffbc1627a2" d="M 0 0 
L 3.5 0 
" style="stroke: #000000; stroke-width: 0.8"/>
      </defs>
      <g>
       <use xlink:href="#mffbc1627a2" x="525.43" y="206.063961" style="stroke: #000000; stroke-width: 0.8"/>
      </g>
     </g>
     <g id="text_15">
      <text style="font: 10px 'DejaVu Sans', 'Bitstream Vera Sans', 'Computer Modern Sans Serif', 'Lucida Grande', 'Verdana', 'Geneva', 'Lucid', 'Arial', 'Helvetica', 'Avant Garde', sans-serif; text-anchor: start" x="532.43" y="209.86318" transform="rotate(-0 532.43 209.86318)">0</text>
     </g>
    </g>
    <g id="ytick_8">
     <g id="line2d_15">
      <g>
       <use xlink:href="#mffbc1627a2" x="525.43" y="181.21372" style="stroke: #000000; stroke-width: 0.8"/>
      </g>
     </g>
     <g id="text_16">
      <text style="font: 10px 'DejaVu Sans', 'Bitstream Vera Sans', 'Computer Modern Sans Serif', 'Lucida Grande', 'Verdana', 'Geneva', 'Lucid', 'Arial', 'Helvetica', 'Avant Garde', sans-serif; text-anchor: start" x="532.43" y="185.012939" transform="rotate(-0 532.43 185.012939)">5</text>
     </g>
    </g>
    <g id="ytick_9">
     <g id="line2d_16">
      <g>
       <use xlink:href="#mffbc1627a2" x="525.43" y="156.363478" style="stroke: #000000; stroke-width: 0.8"/>
      </g>
     </g>
     <g id="text_17">
      <text style="font: 10px 'DejaVu Sans', 'Bitstream Vera Sans', 'Computer Modern Sans Serif', 'Lucida Grande', 'Verdana', 'Geneva', 'Lucid', 'Arial', 'Helvetica', 'Avant Garde', sans-serif; text-anchor: start" x="532.43" y="160.162697" transform="rotate(-0 532.43 160.162697)">10</text>
     </g>
    </g>
    <g id="ytick_10">
     <g id="line2d_17">
      <g>
       <use xlink:href="#mffbc1627a2" x="525.43" y="131.513237" style="stroke: #000000; stroke-width: 0.8"/>
      </g>
     </g>
     <g id="text_18">
      <text style="font: 10px 'DejaVu Sans', 'Bitstream Vera Sans', 'Computer Modern Sans Serif', 'Lucida Grande', 'Verdana', 'Geneva', 'Lucid', 'Arial', 'Helvetica', 'Avant Garde', sans-serif; text-anchor: start" x="532.43" y="135.312455" transform="rotate(-0 532.43 135.312455)">15</text>
     </g>
    </g>
    <g id="ytick_11">
     <g id="line2d_18">
      <g>
       <use xlink:href="#mffbc1627a2" x="525.43" y="106.662995" style="stroke: #000000; stroke-width: 0.8"/>
      </g>
     </g>
     <g id="text_19">
      <text style="font: 10px 'DejaVu Sans', 'Bitstream Vera Sans', 'Computer Modern Sans Serif', 'Lucida Grande', 'Verdana', 'Geneva', 'Lucid', 'Arial', 'Helvetica', 'Avant Garde', sans-serif; text-anchor: start" x="532.43" y="110.462214" transform="rotate(-0 532.43 110.462214)">20</text>
     </g>
    </g>
    <g id="ytick_12">
     <g id="line2d_19">
      <g>
       <use xlink:href="#mffbc1627a2" x="525.43" y="81.812754" style="stroke: #000000; stroke-width: 0.8"/>
      </g>
     </g>
     <g id="text_20">
      <text style="font: 10px 'DejaVu Sans', 'Bitstream Vera Sans', 'Computer Modern Sans Serif', 'Lucida Grande', 'Verdana', 'Geneva', 'Lucid', 'Arial', 'Helvetica', 'Avant Garde', sans-serif; text-anchor: start" x="532.43" y="85.611972" transform="rotate(-0 532.43 85.611972)">25</text>
     </g>
    </g>
    <g id="ytick_13">
     <g id="line2d_20">
      <g>
       <use xlink:href="#mffbc1627a2" x="525.43" y="56.962512" style="stroke: #000000; stroke-width: 0.8"/>
      </g>
     </g>
     <g id="text_21">
      <text style="font: 10px 'DejaVu Sans', 'Bitstream Vera Sans', 'Computer Modern Sans Serif', 'Lucida Grande', 'Verdana', 'Geneva', 'Lucid', 'Arial', 'Helvetica', 'Avant Garde', sans-serif; text-anchor: start" x="532.43" y="60.761731" transform="rotate(-0 532.43 60.761731)">30</text>
     </g>
    </g>
    <g id="ytick_14">
     <g id="line2d_21">
      <g>
       <use xlink:href="#mffbc1627a2" x="525.43" y="32.112271" style="stroke: #000000; stroke-width: 0.8"/>
      </g>
     </g>
     <g id="text_22">
      <text style="font: 10px 'DejaVu Sans', 'Bitstream Vera Sans', 'Computer Modern Sans Serif', 'Lucida Grande', 'Verdana', 'Geneva', 'Lucid', 'Arial', 'Helvetica', 'Avant Garde', sans-serif; text-anchor: start" x="532.43" y="35.911489" transform="rotate(-0 532.43 35.911489)">35</text>
     </g>
    </g>
    <g id="text_23">
     <text style="font: 10px 'DejaVu Sans', 'Bitstream Vera Sans', 'Computer Modern Sans Serif', 'Lucida Grande', 'Verdana', 'Geneva', 'Lucid', 'Arial', 'Helvetica', 'Avant Garde', sans-serif; text-anchor: middle" x="562.753438" y="111.633043" transform="rotate(-90 562.753438 111.633043)">hw(data)</text>
    </g>
   </g>
   <g id="line2d_22">
    <path d="M 78.168182 96.722899 
L 79.878879 71.872657 
L 81.589576 106.662995 
L 83.300274 76.842705 
L 85.010971 116.603092 
L 86.721668 201.093913 
L 88.432366 66.902609 
L 90.143063 51.992464 
L 91.85376 166.303575 
L 93.564458 32.112271 
L 95.275155 91.75285 
L 96.985853 61.93256 
L 100.407247 61.93256 
L 102.117945 111.633043 
L 103.828642 141.453333 
L 105.539339 47.022415 
L 107.250037 51.992464 
L 108.960734 61.93256 
L 110.671431 121.57314 
L 112.382129 61.93256 
L 114.092826 96.722899 
L 115.803523 96.722899 
L 117.514221 27.142222 
L 120.935615 116.603092 
L 122.646313 106.662995 
L 124.35701 101.692947 
L 126.067707 47.022415 
L 127.778405 146.423382 
L 129.489102 146.423382 
L 132.910497 136.483285 
L 134.621194 91.75285 
L 136.331891 71.872657 
L 138.042589 116.603092 
L 139.753286 76.842705 
L 141.463983 176.243671 
L 143.174681 56.962512 
L 144.885378 66.902609 
L 146.596075 141.453333 
L 148.306773 61.93256 
L 150.01747 51.992464 
L 151.728167 37.082319 
L 153.438865 111.633043 
L 155.149562 106.662995 
L 156.860259 116.603092 
L 158.570957 161.333527 
L 160.281654 96.722899 
L 161.992351 47.022415 
L 163.703049 61.93256 
L 165.413746 141.453333 
L 167.124443 51.992464 
L 168.835141 56.962512 
L 170.545838 126.543188 
L 172.256535 126.543188 
L 173.967233 61.93256 
L 175.67793 121.57314 
L 177.388627 51.992464 
L 179.099325 146.423382 
L 180.810022 106.662995 
L 182.520719 131.513237 
L 184.231417 61.93256 
L 185.942114 71.872657 
L 187.652811 111.633043 
L 189.363509 156.363478 
L 191.074206 76.842705 
L 192.784903 71.872657 
L 194.495601 146.423382 
L 196.206298 76.842705 
L 197.916995 47.022415 
L 199.627693 151.39343 
L 201.33839 146.423382 
L 203.049087 91.75285 
L 204.759785 76.842705 
L 206.470482 146.423382 
L 208.181179 151.39343 
L 209.891877 161.333527 
L 211.602574 81.812754 
L 213.313271 141.453333 
L 215.023969 71.872657 
L 216.734666 121.57314 
L 218.445363 106.662995 
L 220.156061 47.022415 
L 221.866758 76.842705 
L 223.577455 76.842705 
L 225.288153 116.603092 
L 226.99885 141.453333 
L 228.709547 141.453333 
L 230.420245 151.39343 
L 232.130942 186.183768 
L 233.841639 76.842705 
L 235.552337 51.992464 
L 237.263034 121.57314 
L 238.973731 146.423382 
L 240.684429 27.142222 
L 242.395126 121.57314 
L 244.105823 136.483285 
L 245.816521 71.872657 
L 247.527218 91.75285 
L 249.237915 47.022415 
L 250.948613 101.692947 
L 252.65931 161.333527 
L 254.370007 61.93256 
L 256.080705 86.782802 
L 257.791402 71.872657 
L 259.502099 86.782802 
L 261.212797 47.022415 
L 262.923494 71.872657 
L 264.634191 47.022415 
L 266.344889 126.543188 
L 268.055586 71.872657 
L 269.766283 37.082319 
L 271.476981 126.543188 
L 273.187678 51.992464 
L 274.898375 131.513237 
L 276.609073 136.483285 
L 278.31977 76.842705 
L 280.030467 66.902609 
L 281.741165 51.992464 
L 283.451862 111.633043 
L 285.162559 91.75285 
L 286.873257 66.902609 
L 288.583954 96.722899 
L 290.294651 42.052367 
L 292.005349 71.872657 
L 293.716046 71.872657 
L 295.426743 81.812754 
L 297.137441 191.153816 
L 298.848138 106.662995 
L 300.558835 91.75285 
L 302.269533 101.692947 
L 303.98023 141.453333 
L 305.690927 86.782802 
L 307.401625 76.842705 
L 309.112322 106.662995 
L 310.823019 47.022415 
L 312.533717 151.39343 
L 314.244414 86.782802 
L 315.955111 181.21372 
L 317.665809 56.962512 
L 319.376506 56.962512 
L 321.087203 96.722899 
L 322.797901 56.962512 
L 324.508598 116.603092 
L 326.219295 81.812754 
L 327.929993 116.603092 
L 329.64069 86.782802 
L 331.351387 86.782802 
L 333.062085 81.812754 
L 334.772782 81.812754 
L 336.483479 76.842705 
L 338.194177 66.902609 
L 339.904874 161.333527 
L 341.615571 121.57314 
L 343.326269 22.172174 
L 345.036966 136.483285 
L 346.747663 71.872657 
L 348.458361 116.603092 
L 350.169058 81.812754 
L 351.879755 196.123865 
L 353.590453 42.052367 
L 355.30115 101.692947 
L 357.011847 116.603092 
L 358.722545 186.183768 
L 360.433242 106.662995 
L 362.143939 121.57314 
L 363.854637 101.692947 
L 365.565334 126.543188 
L 367.276031 101.692947 
L 368.986729 171.273623 
L 370.697426 116.603092 
L 372.408123 116.603092 
L 374.118821 101.692947 
L 375.829518 131.513237 
L 377.540215 71.872657 
L 379.250913 42.052367 
L 380.96161 101.692947 
L 382.672307 51.992464 
L 384.383005 141.453333 
L 386.093702 161.333527 
L 389.515097 71.872657 
L 391.225794 47.022415 
L 392.936491 47.022415 
L 394.647189 116.603092 
L 396.357886 171.273623 
L 398.068583 181.21372 
L 399.779281 146.423382 
L 401.489978 66.902609 
L 403.200675 86.782802 
L 404.911373 111.633043 
L 406.62207 81.812754 
L 408.332767 71.872657 
L 410.043465 91.75285 
L 411.754162 42.052367 
L 413.464859 61.93256 
L 415.175557 121.57314 
L 416.886254 32.112271 
L 418.596951 42.052367 
L 420.307649 141.453333 
L 422.018346 106.662995 
L 423.729043 96.722899 
L 425.439741 111.633043 
L 427.150438 71.872657 
L 428.861135 111.633043 
L 430.571833 111.633043 
L 432.28253 56.962512 
L 433.993227 121.57314 
L 435.703925 101.692947 
L 437.414622 126.543188 
L 439.125319 81.812754 
L 440.836017 56.962512 
L 442.546714 146.423382 
L 444.257411 66.902609 
L 445.968109 37.082319 
L 447.678806 37.082319 
L 449.389503 56.962512 
L 451.100201 101.692947 
L 452.810898 116.603092 
L 454.521595 121.57314 
L 456.232293 116.603092 
L 457.94299 71.872657 
L 459.653687 91.75285 
L 461.364385 161.333527 
L 463.075082 191.153816 
L 464.785779 116.603092 
L 466.496477 141.453333 
L 468.207174 71.872657 
L 469.917871 101.692947 
L 471.628569 121.57314 
L 473.339266 136.483285 
L 475.049963 91.75285 
L 476.760661 96.722899 
L 478.471358 96.722899 
L 480.182055 181.21372 
L 481.892753 131.513237 
L 483.60345 56.962512 
L 485.314147 156.363478 
L 487.024845 116.603092 
L 488.735542 81.812754 
L 490.44624 106.662995 
L 492.156937 66.902609 
L 493.867634 51.992464 
L 495.578332 76.842705 
L 497.289029 106.662995 
L 498.999726 101.692947 
L 500.710424 27.142222 
L 502.421121 71.872657 
L 504.131818 81.812754 
L 504.131818 81.812754 
" clip-path="url(#p7ba46af8cc)" style="fill: none; stroke: #235996; stroke-width: 0.8; stroke-linecap: square"/>
   </g>
   <g id="patch_7">
    <path d="M 56.87 210.04 
L 56.87 13.226087 
" style="fill: none; stroke: #000000; stroke-width: 0.8; stroke-linejoin: miter; stroke-linecap: square"/>
   </g>
   <g id="patch_8">
    <path d="M 525.43 210.04 
L 525.43 13.226087 
" style="fill: none; stroke: #000000; stroke-width: 0.8; stroke-linejoin: miter; stroke-linecap: square"/>
   </g>
   <g id="patch_9">
    <path d="M 56.87 210.04 
L 525.43 210.04 
" style="fill: none; stroke: #000000; stroke-width: 0.8; stroke-linejoin: miter; stroke-linecap: square"/>
   </g>
   <g id="patch_10">
    <path d="M 56.87 13.226087 
L 525.43 13.226087 
" style="fill: none; stroke: #000000; stroke-width: 0.8; stroke-linejoin: miter; stroke-linecap: square"/>
   </g>
   <g id="legend_1">
    <g id="patch_11">
     <path d="M 150.539625 45.882587 
L 431.760375 45.882587 
Q 434.640375 45.882587 434.640375 43.002587 
L 434.640375 23.306087 
Q 434.640375 20.426087 431.760375 20.426087 
L 150.539625 20.426087 
Q 147.659625 20.426087 147.659625 23.306087 
L 147.659625 43.002587 
Q 147.659625 45.882587 150.539625 45.882587 
z
" style="fill: #ffffff; opacity: 0.8; stroke: #000000; stroke-linejoin: miter"/>
    </g>
    <g id="line2d_23">
     <path d="M 153.419625 32.087837 
L 167.819625 32.087837 
L 182.219625 32.087837 
" style="fill: none; stroke: #99004d; stroke-width: 0.8; stroke-linecap: square"/>
    </g>
    <g id="text_24">
     <text style="font: 14.4px 'DejaVu Sans', 'Bitstream Vera Sans', 'Computer Modern Sans Serif', 'Lucida Grande', 'Verdana', 'Geneva', 'Lucid', 'Arial', 'Helvetica', 'Avant Garde', sans-serif; text-anchor: start" x="193.739625" y="37.127837" transform="rotate(-0 193.739625 37.127837)">power</text>
    </g>
    <g id="line2d_24">
     <path d="M 267.049125 32.087837 
L 281.449125 32.087837 
L 295.849125 32.087837 
" style="fill: none; stroke: #235996; stroke-width: 0.8; stroke-linecap: square"/>
    </g>
    <g id="text_25">
     <text style="font: 14.4px 'DejaVu Sans', 'Bitstream Vera Sans', 'Computer Modern Sans Serif', 'Lucida Grande', 'Verdana', 'Geneva', 'Lucid', 'Arial', 'Helvetica', 'Avant Garde', sans-serif; text-anchor: start" x="307.369125" y="37.127837" transform="rotate(-0 307.369125 37.127837)">hw(rs1)+hw(rs2)</text>
    </g>
   </g>
  </g>
 </g>
 <defs>
  <clipPath id="p7ba46af8cc">
   <rect x="56.87" y="13.226087" width="468.56" height="196.813913"/>
  </clipPath>
 </defs>
</svg>
