<?xml version="1.0" encoding="utf-8" standalone="no"?>
<!DOCTYPE svg PUBLIC "-//W3C//DTD SVG 1.1//EN"
  "http://www.w3.org/Graphics/SVG/1.1/DTD/svg11.dtd">
<svg xmlns:xlink="http://www.w3.org/1999/xlink" width="576pt" height="252pt" viewBox="0 0 576 252" xmlns="http://www.w3.org/2000/svg" version="1.1">
 <metadata>
  <rdf:RDF xmlns:dc="http://purl.org/dc/elements/1.1/" xmlns:cc="http://creativecommons.org/ns#" xmlns:rdf="http://www.w3.org/1999/02/22-rdf-syntax-ns#">
   <cc:Work>
    <dc:type rdf:resource="http://purl.org/dc/dcmitype/StillImage"/>
    <dc:date>2023-12-06T04:13:17.415752</dc:date>
    <dc:format>image/svg+xml</dc:format>
    <dc:creator>
     <cc:Agent>
      <dc:title>Matplotlib v3.7.4, https://matplotlib.org/</dc:title>
     </cc:Agent>
    </dc:creator>
   </cc:Work>
  </rdf:RDF>
 </metadata>
 <defs>
  <style type="text/css">*{stroke-linejoin: round; stroke-linecap: butt}</style>
 </defs>
 <g id="figure_1">
  <g id="patch_1">
   <path d="M 0 252 
L 576 252 
L 576 0 
L 0 0 
z
" style="fill: #ffffff"/>
  </g>
  <g id="axes_1">
   <g id="patch_2">
    <path d="M 56.87 210.04 
L 525.43 210.04 
L 525.43 10.8 
L 56.87 10.8 
z
" style="fill: #ffffff"/>
   </g>
   <g id="matplotlib.axis_1">
    <g id="xtick_1">
     <g id="line2d_1">
      <defs>
       <path id="md2b910eed7" d="M 0 0 
L 0 3.5 
" style="stroke: #000000; stroke-width: 0.8"/>
      </defs>
      <g>
       <use xlink:href="#md2b910eed7" x="78.168182" y="210.04" style="stroke: #000000; stroke-width: 0.8"/>
      </g>
     </g>
     <g id="text_1">
      <text style="font: 10px 'DejaVu Sans', 'Bitstream Vera Sans', 'Computer Modern Sans Serif', 'Lucida Grande', 'Verdana', 'Geneva', 'Lucid', 'Arial', 'Helvetica', 'Avant Garde', sans-serif; text-anchor: middle" x="78.168182" y="224.638438" transform="rotate(-0 78.168182 224.638438)">0</text>
     </g>
    </g>
    <g id="xtick_2">
     <g id="line2d_2">
      <g>
       <use xlink:href="#md2b910eed7" x="163.703049" y="210.04" style="stroke: #000000; stroke-width: 0.8"/>
      </g>
     </g>
     <g id="text_2">
      <text style="font: 10px 'DejaVu Sans', 'Bitstream Vera Sans', 'Computer Modern Sans Serif', 'Lucida Grande', 'Verdana', 'Geneva', 'Lucid', 'Arial', 'Helvetica', 'Avant Garde', sans-serif; text-anchor: middle" x="163.703049" y="224.638438" transform="rotate(-0 163.703049 224.638438)">50</text>
     </g>
    </g>
    <g id="xtick_3">
     <g id="line2d_3">
      <g>
       <use xlink:href="#md2b910eed7" x="249.237915" y="210.04" style="stroke: #000000; stroke-width: 0.8"/>
      </g>
     </g>
     <g id="text_3">
      <text style="font: 10px 'DejaVu Sans', 'Bitstream Vera Sans', 'Computer Modern Sans Serif', 'Lucida Grande', 'Verdana', 'Geneva', 'Lucid', 'Arial', 'Helvetica', 'Avant Garde', sans-serif; text-anchor: middle" x="249.237915" y="224.638438" transform="rotate(-0 249.237915 224.638438)">100</text>
     </g>
    </g>
    <g id="xtick_4">
     <g id="line2d_4">
      <g>
       <use xlink:href="#md2b910eed7" x="334.772782" y="210.04" style="stroke: #000000; stroke-width: 0.8"/>
      </g>
     </g>
     <g id="text_4">
      <text style="font: 10px 'DejaVu Sans', 'Bitstream Vera Sans', 'Computer Modern Sans Serif', 'Lucida Grande', 'Verdana', 'Geneva', 'Lucid', 'Arial', 'Helvetica', 'Avant Garde', sans-serif; text-anchor: middle" x="334.772782" y="224.638438" transform="rotate(-0 334.772782 224.638438)">150</text>
     </g>
    </g>
    <g id="xtick_5">
     <g id="line2d_5">
      <g>
       <use xlink:href="#md2b910eed7" x="420.307649" y="210.04" style="stroke: #000000; stroke-width: 0.8"/>
      </g>
     </g>
     <g id="text_5">
      <text style="font: 10px 'DejaVu Sans', 'Bitstream Vera Sans', 'Computer Modern Sans Serif', 'Lucida Grande', 'Verdana', 'Geneva', 'Lucid', 'Arial', 'Helvetica', 'Avant Garde', sans-serif; text-anchor: middle" x="420.307649" y="224.638438" transform="rotate(-0 420.307649 224.638438)">200</text>
     </g>
    </g>
    <g id="xtick_6">
     <g id="line2d_6">
      <g>
       <use xlink:href="#md2b910eed7" x="505.842516" y="210.04" style="stroke: #000000; stroke-width: 0.8"/>
      </g>
     </g>
     <g id="text_6">
      <text style="font: 10px 'DejaVu Sans', 'Bitstream Vera Sans', 'Computer Modern Sans Serif', 'Lucida Grande', 'Verdana', 'Geneva', 'Lucid', 'Arial', 'Helvetica', 'Avant Garde', sans-serif; text-anchor: middle" x="505.842516" y="224.638438" transform="rotate(-0 505.842516 224.638438)">250</text>
     </g>
    </g>
    <g id="text_7">
     <text style="font: 10px 'DejaVu Sans', 'Bitstream Vera Sans', 'Computer Modern Sans Serif', 'Lucida Grande', 'Verdana', 'Geneva', 'Lucid', 'Arial', 'Helvetica', 'Avant Garde', sans-serif; text-anchor: middle" x="291.15" y="238.316563" transform="rotate(-0 291.15 238.316563)">Cycles</text>
    </g>
   </g>
   <g id="matplotlib.axis_2">
    <g id="ytick_1">
     <g id="line2d_7">
      <defs>
       <path id="ma30a23ffa2" d="M 0 0 
L -3.5 0 
" style="stroke: #000000; stroke-width: 0.8"/>
      </defs>
      <g>
       <use xlink:href="#ma30a23ffa2" x="56.87" y="173.943309" style="stroke: #000000; stroke-width: 0.8"/>
      </g>
     </g>
     <g id="text_8">
      <text style="font: 10px 'DejaVu Sans', 'Bitstream Vera Sans', 'Computer Modern Sans Serif', 'Lucida Grande', 'Verdana', 'Geneva', 'Lucid', 'Arial', 'Helvetica', 'Avant Garde', sans-serif; text-anchor: end" x="49.87" y="177.742528" transform="rotate(-0 49.87 177.742528)">400</text>
     </g>
    </g>
    <g id="ytick_2">
     <g id="line2d_8">
      <g>
       <use xlink:href="#ma30a23ffa2" x="56.87" y="131.022154" style="stroke: #000000; stroke-width: 0.8"/>
      </g>
     </g>
     <g id="text_9">
      <text style="font: 10px 'DejaVu Sans', 'Bitstream Vera Sans', 'Computer Modern Sans Serif', 'Lucida Grande', 'Verdana', 'Geneva', 'Lucid', 'Arial', 'Helvetica', 'Avant Garde', sans-serif; text-anchor: end" x="49.87" y="134.821373" transform="rotate(-0 49.87 134.821373)">500</text>
     </g>
    </g>
    <g id="ytick_3">
     <g id="line2d_9">
      <g>
       <use xlink:href="#ma30a23ffa2" x="56.87" y="88.101" style="stroke: #000000; stroke-width: 0.8"/>
      </g>
     </g>
     <g id="text_10">
      <text style="font: 10px 'DejaVu Sans', 'Bitstream Vera Sans', 'Computer Modern Sans Serif', 'Lucida Grande', 'Verdana', 'Geneva', 'Lucid', 'Arial', 'Helvetica', 'Avant Garde', sans-serif; text-anchor: end" x="49.87" y="91.900218" transform="rotate(-0 49.87 91.900218)">600</text>
     </g>
    </g>
    <g id="ytick_4">
     <g id="line2d_10">
      <g>
       <use xlink:href="#ma30a23ffa2" x="56.87" y="45.179845" style="stroke: #000000; stroke-width: 0.8"/>
      </g>
     </g>
     <g id="text_11">
      <text style="font: 10px 'DejaVu Sans', 'Bitstream Vera Sans', 'Computer Modern Sans Serif', 'Lucida Grande', 'Verdana', 'Geneva', 'Lucid', 'Arial', 'Helvetica', 'Avant Garde', sans-serif; text-anchor: end" x="49.87" y="48.979064" transform="rotate(-0 49.87 48.979064)">700</text>
     </g>
    </g>
    <g id="text_12">
     <text style="font: 10px 'DejaVu Sans', 'Bitstream Vera Sans', 'Computer Modern Sans Serif', 'Lucida Grande', 'Verdana', 'Geneva', 'Lucid', 'Arial', 'Helvetica', 'Avant Garde', sans-serif; text-anchor: middle" x="18.702813" y="110.42" transform="rotate(-90 18.702813 110.42)">power (uW)</text>
    </g>
   </g>
   <g id="line2d_11">
    <path d="M 78.168182 91.963903 
L 79.878879 83.808884 
L 81.589576 158.920905 
L 83.300274 53.764076 
L 85.010971 91.963903 
L 86.721668 71.361749 
L 88.432366 46.038268 
L 90.143063 135.31427 
L 91.85376 67.069634 
L 93.564458 110.42 
L 95.275155 84.238096 
L 96.985853 73.937019 
L 98.69655 72.220172 
L 100.407247 79.087557 
L 102.117945 46.896691 
L 103.828642 45.609056 
L 105.539339 180.381482 
L 107.250037 105.698673 
L 108.960734 19.856364 
L 110.671431 39.170883 
L 112.382129 113.424481 
L 114.092826 77.799922 
L 115.803523 104.84025 
L 117.514221 168.363559 
L 119.224918 27.582171 
L 120.935615 70.074115 
L 122.646313 74.36623 
L 124.35701 72.649384 
L 126.067707 51.188807 
L 127.778405 98.831288 
L 129.489102 70.932538 
L 131.199799 90.247057 
L 132.910497 104.84025 
L 134.621194 68.78648 
L 136.331891 64.065153 
L 138.042589 65.352788 
L 139.753286 74.36623 
L 141.463983 128.446885 
L 143.174681 138.318751 
L 144.885378 77.370711 
L 146.596075 52.905653 
L 148.306773 38.31246 
L 150.01747 45.179845 
L 151.728167 49.901172 
L 153.438865 61.489884 
L 155.149562 136.172693 
L 156.860259 64.065153 
L 158.570957 72.649384 
L 160.281654 43.033787 
L 161.992351 67.069634 
L 163.703049 95.826807 
L 165.413746 134.885058 
L 167.124443 64.494364 
L 168.835141 26.723748 
L 170.545838 150.336674 
L 172.256535 30.157441 
L 173.967233 123.296346 
L 175.67793 57.62698 
L 177.388627 200.983636 
L 179.099325 68.78648 
L 180.810022 47.325903 
L 182.520719 67.928057 
L 184.231417 97.114442 
L 185.942114 105.698673 
L 187.652811 55.05171 
L 189.363509 127.588462 
L 191.074206 117.287385 
L 192.784903 92.822327 
L 194.495601 91.534692 
L 196.206298 52.905653 
L 197.916995 140.035597 
L 199.627693 124.154769 
L 201.33839 154.628789 
L 203.049087 74.36623 
L 204.759785 42.175364 
L 206.470482 101.406558 
L 208.181179 82.092038 
L 209.891877 84.238096 
L 211.602574 147.332193 
L 213.313271 60.631461 
L 215.023969 89.388634 
L 216.734666 79.94598 
L 218.445363 88.530211 
L 220.156061 94.968384 
L 221.866758 118.145808 
L 223.577455 66.640422 
L 225.288153 113.853692 
L 226.99885 101.406558 
L 228.709547 94.539173 
L 230.420245 47.325903 
L 232.130942 64.065153 
L 233.841639 47.325903 
L 235.552337 113.424481 
L 237.263034 64.923576 
L 238.973731 122.008712 
L 240.684429 79.516769 
L 242.395126 59.773037 
L 244.105823 70.074115 
L 245.816521 105.698673 
L 247.527218 47.755114 
L 249.237915 79.94598 
L 250.948613 129.73452 
L 252.65931 61.060672 
L 254.370007 74.36623 
L 256.080705 100.548134 
L 257.791402 87.242576 
L 259.502099 160.637751 
L 261.212797 62.777518 
L 262.923494 39.600095 
L 264.634191 91.10548 
L 266.344889 84.667307 
L 268.055586 44.321422 
L 269.766283 97.114442 
L 271.476981 57.62698 
L 273.187678 58.056191 
L 274.898375 87.242576 
L 276.609073 132.309789 
L 278.31977 22.860844 
L 280.030467 42.604576 
L 281.741165 40.458518 
L 283.451862 56.339345 
L 285.162559 61.489884 
L 286.873257 115.99975 
L 288.583954 34.878768 
L 292.005349 169.651193 
L 293.716046 50.330383 
L 295.426743 72.649384 
L 297.137441 40.887729 
L 298.848138 76.083076 
L 300.558835 104.84025 
L 302.269533 69.644903 
L 303.98023 58.485403 
L 305.690927 149.049039 
L 307.401625 64.494364 
L 309.112322 73.507807 
L 310.823019 130.163731 
L 312.533717 47.755114 
L 314.244414 46.038268 
L 315.955111 130.163731 
L 317.665809 61.489884 
L 319.376506 50.330383 
L 321.087203 54.622499 
L 322.797901 57.62698 
L 324.508598 128.876097 
L 326.219295 47.325903 
L 327.929993 73.507807 
L 329.64069 49.47196 
L 331.351387 101.835769 
L 333.062085 28.440595 
L 334.772782 25.865325 
L 336.483479 85.52573 
L 338.194177 55.480922 
L 339.904874 97.543654 
L 341.615571 28.011383 
L 343.326269 56.768557 
L 345.036966 51.188807 
L 346.747663 48.184326 
L 348.458361 55.480922 
L 350.169058 92.822327 
L 351.879755 61.060672 
L 353.590453 48.184326 
L 355.30115 49.901172 
L 357.011847 79.94598 
L 358.722545 115.570539 
L 360.433242 109.561577 
L 362.143939 143.469289 
L 363.854637 88.959423 
L 365.565334 106.557096 
L 367.276031 54.193287 
L 368.986729 34.449556 
L 370.697426 41.746153 
L 372.408123 122.008712 
L 374.118821 61.060672 
L 375.829518 149.049039 
L 377.540215 42.175364 
L 379.250913 51.618018 
L 380.96161 70.932538 
L 382.672307 94.539173 
L 384.383005 72.220172 
L 386.093702 88.959423 
L 387.804399 98.402077 
L 389.515097 67.928057 
L 391.225794 63.20673 
L 392.936491 154.199578 
L 394.647189 71.361749 
L 396.357886 104.411038 
L 398.068583 65.781999 
L 399.779281 29.728229 
L 401.489978 100.548134 
L 403.200675 124.154769 
L 404.911373 98.402077 
L 406.62207 51.618018 
L 408.332767 66.640422 
L 410.043465 25.436114 
L 411.754162 95.397596 
L 413.464859 85.954942 
L 415.175557 43.033787 
L 416.886254 113.424481 
L 418.596951 53.334864 
L 420.307649 59.343826 
L 422.018346 44.321422 
L 423.729043 57.197768 
L 425.439741 65.781999 
L 427.150438 49.47196 
L 428.861135 54.193287 
L 430.571833 106.986308 
L 432.28253 100.548134 
L 433.993227 171.797251 
L 435.703925 44.321422 
L 437.414622 96.256019 
L 439.125319 76.941499 
L 440.836017 97.972865 
L 442.546714 67.069634 
L 444.257411 143.898501 
L 445.968109 41.316941 
L 447.678806 60.631461 
L 449.389503 108.703154 
L 451.100201 68.78648 
L 452.810898 41.746153 
L 454.521595 98.402077 
L 456.232293 65.781999 
L 457.94299 120.291866 
L 459.653687 40.029306 
L 461.364385 154.199578 
L 463.075082 76.512288 
L 464.785779 51.188807 
L 466.496477 85.954942 
L 468.207174 85.954942 
L 469.917871 103.123404 
L 471.628569 68.78648 
L 473.339266 78.658346 
L 475.049963 67.069634 
L 476.760661 77.370711 
L 478.471358 50.759595 
L 480.182055 68.357268 
L 481.892753 31.874287 
L 483.60345 54.622499 
L 485.314147 93.68075 
L 487.024845 70.503326 
L 488.735542 81.233615 
L 490.44624 79.087557 
L 492.156937 65.781999 
L 493.867634 51.188807 
L 495.578332 118.575019 
L 497.289029 113.424481 
L 498.999726 65.352788 
L 500.710424 127.15925 
L 502.421121 55.480922 
L 504.131818 81.662826 
L 504.131818 81.662826 
" clip-path="url(#pf637caf01a)" style="fill: none; stroke: #99004d; stroke-width: 0.8; stroke-linecap: square"/>
   </g>
   <g id="patch_3">
    <path d="M 56.87 210.04 
L 56.87 10.8 
" style="fill: none; stroke: #000000; stroke-width: 0.8; stroke-linejoin: miter; stroke-linecap: square"/>
   </g>
   <g id="patch_4">
    <path d="M 525.43 210.04 
L 525.43 10.8 
" style="fill: none; stroke: #000000; stroke-width: 0.8; stroke-linejoin: miter; stroke-linecap: square"/>
   </g>
   <g id="patch_5">
    <path d="M 56.87 210.04 
L 525.43 210.04 
" style="fill: none; stroke: #000000; stroke-width: 0.8; stroke-linejoin: miter; stroke-linecap: square"/>
   </g>
   <g id="patch_6">
    <path d="M 56.87 10.8 
L 525.43 10.8 
" style="fill: none; stroke: #000000; stroke-width: 0.8; stroke-linejoin: miter; stroke-linecap: square"/>
   </g>
  </g>
  <g id="axes_2">
   <g id="matplotlib.axis_3">
    <g id="ytick_5">
     <g id="line2d_12">
      <defs>
       <path id="m49858a5847" d="M 0 0 
L 3.5 0 
" style="stroke: #000000; stroke-width: 0.8"/>
      </defs>
      <g>
       <use xlink:href="#m49858a5847" x="525.43" y="206.014949" style="stroke: #000000; stroke-width: 0.8"/>
      </g>
     </g>
     <g id="text_13">
      <text style="font: 10px 'DejaVu Sans', 'Bitstream Vera Sans', 'Computer Modern Sans Serif', 'Lucida Grande', 'Verdana', 'Geneva', 'Lucid', 'Arial', 'Helvetica', 'Avant Garde', sans-serif; text-anchor: start" x="532.43" y="209.814168" transform="rotate(-0 532.43 209.814168)">0</text>
     </g>
    </g>
    <g id="ytick_6">
     <g id="line2d_13">
      <g>
       <use xlink:href="#m49858a5847" x="525.43" y="180.858384" style="stroke: #000000; stroke-width: 0.8"/>
      </g>
     </g>
     <g id="text_14">
      <text style="font: 10px 'DejaVu Sans', 'Bitstream Vera Sans', 'Computer Modern Sans Serif', 'Lucida Grande', 'Verdana', 'Geneva', 'Lucid', 'Arial', 'Helvetica', 'Avant Garde', sans-serif; text-anchor: start" x="532.43" y="184.657603" transform="rotate(-0 532.43 184.657603)">5</text>
     </g>
    </g>
    <g id="ytick_7">
     <g id="line2d_14">
      <g>
       <use xlink:href="#m49858a5847" x="525.43" y="155.701818" style="stroke: #000000; stroke-width: 0.8"/>
      </g>
     </g>
     <g id="text_15">
      <text style="font: 10px 'DejaVu Sans', 'Bitstream Vera Sans', 'Computer Modern Sans Serif', 'Lucida Grande', 'Verdana', 'Geneva', 'Lucid', 'Arial', 'Helvetica', 'Avant Garde', sans-serif; text-anchor: start" x="532.43" y="159.501037" transform="rotate(-0 532.43 159.501037)">10</text>
     </g>
    </g>
    <g id="ytick_8">
     <g id="line2d_15">
      <g>
       <use xlink:href="#m49858a5847" x="525.43" y="130.545253" style="stroke: #000000; stroke-width: 0.8"/>
      </g>
     </g>
     <g id="text_16">
      <text style="font: 10px 'DejaVu Sans', 'Bitstream Vera Sans', 'Computer Modern Sans Serif', 'Lucida Grande', 'Verdana', 'Geneva', 'Lucid', 'Arial', 'Helvetica', 'Avant Garde', sans-serif; text-anchor: start" x="532.43" y="134.344471" transform="rotate(-0 532.43 134.344471)">15</text>
     </g>
    </g>
    <g id="ytick_9">
     <g id="line2d_16">
      <g>
       <use xlink:href="#m49858a5847" x="525.43" y="105.388687" style="stroke: #000000; stroke-width: 0.8"/>
      </g>
     </g>
     <g id="text_17">
      <text style="font: 10px 'DejaVu Sans', 'Bitstream Vera Sans', 'Computer Modern Sans Serif', 'Lucida Grande', 'Verdana', 'Geneva', 'Lucid', 'Arial', 'Helvetica', 'Avant Garde', sans-serif; text-anchor: start" x="532.43" y="109.187906" transform="rotate(-0 532.43 109.187906)">20</text>
     </g>
    </g>
    <g id="ytick_10">
     <g id="line2d_17">
      <g>
       <use xlink:href="#m49858a5847" x="525.43" y="80.232121" style="stroke: #000000; stroke-width: 0.8"/>
      </g>
     </g>
     <g id="text_18">
      <text style="font: 10px 'DejaVu Sans', 'Bitstream Vera Sans', 'Computer Modern Sans Serif', 'Lucida Grande', 'Verdana', 'Geneva', 'Lucid', 'Arial', 'Helvetica', 'Avant Garde', sans-serif; text-anchor: start" x="532.43" y="84.03134" transform="rotate(-0 532.43 84.03134)">25</text>
     </g>
    </g>
    <g id="ytick_11">
     <g id="line2d_18">
      <g>
       <use xlink:href="#m49858a5847" x="525.43" y="55.075556" style="stroke: #000000; stroke-width: 0.8"/>
      </g>
     </g>
     <g id="text_19">
      <text style="font: 10px 'DejaVu Sans', 'Bitstream Vera Sans', 'Computer Modern Sans Serif', 'Lucida Grande', 'Verdana', 'Geneva', 'Lucid', 'Arial', 'Helvetica', 'Avant Garde', sans-serif; text-anchor: start" x="532.43" y="58.874774" transform="rotate(-0 532.43 58.874774)">30</text>
     </g>
    </g>
    <g id="ytick_12">
     <g id="line2d_19">
      <g>
       <use xlink:href="#m49858a5847" x="525.43" y="29.91899" style="stroke: #000000; stroke-width: 0.8"/>
      </g>
     </g>
     <g id="text_20">
      <text style="font: 10px 'DejaVu Sans', 'Bitstream Vera Sans', 'Computer Modern Sans Serif', 'Lucida Grande', 'Verdana', 'Geneva', 'Lucid', 'Arial', 'Helvetica', 'Avant Garde', sans-serif; text-anchor: start" x="532.43" y="33.718209" transform="rotate(-0 532.43 33.718209)">35</text>
     </g>
    </g>
    <g id="text_21">
     <text style="font: 10px 'DejaVu Sans', 'Bitstream Vera Sans', 'Computer Modern Sans Serif', 'Lucida Grande', 'Verdana', 'Geneva', 'Lucid', 'Arial', 'Helvetica', 'Avant Garde', sans-serif; text-anchor: middle" x="562.753438" y="110.42" transform="rotate(-90 562.753438 110.42)">hw(data)</text>
    </g>
   </g>
   <g id="line2d_20">
    <path d="M 78.168182 100.357374 
L 79.878879 120.482626 
L 81.589576 130.545253 
L 83.300274 80.232121 
L 85.010971 105.388687 
L 86.721668 65.138182 
L 88.432366 90.294747 
L 90.143063 155.701818 
L 91.85376 85.263434 
L 93.564458 135.576566 
L 95.275155 105.388687 
L 96.985853 100.357374 
L 98.69655 90.294747 
L 102.117945 50.044242 
L 103.828642 90.294747 
L 105.539339 180.858384 
L 107.250037 95.326061 
L 108.960734 75.200808 
L 110.671431 60.106869 
L 112.382129 120.482626 
L 114.092826 115.451313 
L 115.803523 125.513939 
L 117.514221 185.889697 
L 119.224918 65.138182 
L 122.646313 75.200808 
L 124.35701 50.044242 
L 127.778405 100.357374 
L 129.489102 29.91899 
L 131.199799 130.545253 
L 132.910497 145.639192 
L 134.621194 120.482626 
L 136.331891 70.169495 
L 138.042589 50.044242 
L 139.753286 95.326061 
L 141.463983 175.827071 
L 143.174681 125.513939 
L 144.885378 70.169495 
L 146.596075 75.200808 
L 150.01747 75.200808 
L 153.438865 45.012929 
L 155.149562 135.576566 
L 156.860259 95.326061 
L 158.570957 90.294747 
L 160.281654 70.169495 
L 161.992351 95.326061 
L 163.703049 105.388687 
L 165.413746 150.670505 
L 167.124443 85.263434 
L 168.835141 50.044242 
L 170.545838 150.670505 
L 172.256535 50.044242 
L 173.967233 120.482626 
L 175.67793 115.451313 
L 177.388627 190.92101 
L 179.099325 65.138182 
L 180.810022 60.106869 
L 182.520719 105.388687 
L 184.231417 80.232121 
L 185.942114 120.482626 
L 187.652811 55.075556 
L 189.363509 130.545253 
L 191.074206 130.545253 
L 192.784903 60.106869 
L 194.495601 125.513939 
L 196.206298 50.044242 
L 197.916995 125.513939 
L 199.627693 150.670505 
L 201.33839 170.795758 
L 203.049087 60.106869 
L 204.759785 45.012929 
L 206.470482 125.513939 
L 208.181179 65.138182 
L 209.891877 50.044242 
L 211.602574 145.639192 
L 213.313271 34.950303 
L 215.023969 95.326061 
L 216.734666 90.294747 
L 218.445363 75.200808 
L 220.156061 85.263434 
L 221.866758 125.513939 
L 223.577455 55.075556 
L 225.288153 120.482626 
L 226.99885 140.607879 
L 228.709547 100.357374 
L 230.420245 75.200808 
L 232.130942 60.106869 
L 233.841639 50.044242 
L 235.552337 115.451313 
L 237.263034 85.263434 
L 238.973731 150.670505 
L 240.684429 80.232121 
L 242.395126 90.294747 
L 244.105823 125.513939 
L 245.816521 130.545253 
L 249.237915 50.044242 
L 250.948613 115.451313 
L 252.65931 45.012929 
L 254.370007 90.294747 
L 256.080705 105.388687 
L 257.791402 110.42 
L 259.502099 150.670505 
L 261.212797 110.42 
L 262.923494 90.294747 
L 264.634191 90.294747 
L 266.344889 95.326061 
L 268.055586 60.106869 
L 269.766283 105.388687 
L 271.476981 100.357374 
L 273.187678 65.138182 
L 274.898375 90.294747 
L 276.609073 155.701818 
L 278.31977 50.044242 
L 280.030467 85.263434 
L 281.741165 60.106869 
L 283.451862 39.981616 
L 285.162559 105.388687 
L 286.873257 135.576566 
L 288.583954 70.169495 
L 290.294651 120.482626 
L 292.005349 200.983636 
L 293.716046 75.200808 
L 295.426743 80.232121 
L 297.137441 45.012929 
L 298.848138 95.326061 
L 300.558835 135.576566 
L 302.269533 105.388687 
L 303.98023 90.294747 
L 305.690927 125.513939 
L 307.401625 65.138182 
L 309.112322 120.482626 
L 310.823019 150.670505 
L 312.533717 105.388687 
L 314.244414 80.232121 
L 315.955111 150.670505 
L 317.665809 55.075556 
L 319.376506 85.263434 
L 321.087203 60.106869 
L 322.797901 70.169495 
L 324.508598 135.576566 
L 326.219295 65.138182 
L 327.929993 65.138182 
L 329.64069 55.075556 
L 331.351387 100.357374 
L 333.062085 65.138182 
L 334.772782 39.981616 
L 338.194177 110.42 
L 339.904874 70.169495 
L 341.615571 70.169495 
L 343.326269 50.044242 
L 345.036966 39.981616 
L 346.747663 55.075556 
L 348.458361 85.263434 
L 350.169058 110.42 
L 351.879755 60.106869 
L 353.590453 70.169495 
L 355.30115 55.075556 
L 357.011847 125.513939 
L 358.722545 115.451313 
L 360.433242 140.607879 
L 362.143939 150.670505 
L 363.854637 110.42 
L 365.565334 100.357374 
L 367.276031 60.106869 
L 368.986729 50.044242 
L 370.697426 65.138182 
L 372.408123 130.545253 
L 374.118821 55.075556 
L 375.829518 175.827071 
L 377.540215 39.981616 
L 379.250913 90.294747 
L 380.96161 50.044242 
L 382.672307 155.701818 
L 384.383005 125.513939 
L 386.093702 105.388687 
L 387.804399 110.42 
L 389.515097 95.326061 
L 391.225794 85.263434 
L 392.936491 155.701818 
L 394.647189 80.232121 
L 396.357886 150.670505 
L 398.068583 55.075556 
L 399.779281 50.044242 
L 401.489978 135.576566 
L 403.200675 130.545253 
L 404.911373 95.326061 
L 406.62207 90.294747 
L 408.332767 110.42 
L 410.043465 24.887677 
L 413.464859 125.513939 
L 415.175557 29.91899 
L 416.886254 110.42 
L 418.596951 75.200808 
L 420.307649 90.294747 
L 422.018346 45.012929 
L 423.729043 70.169495 
L 425.439741 100.357374 
L 427.150438 45.012929 
L 428.861135 85.263434 
L 430.571833 120.482626 
L 432.28253 145.639192 
L 433.993227 145.639192 
L 435.703925 70.169495 
L 437.414622 115.451313 
L 439.125319 110.42 
L 440.836017 125.513939 
L 442.546714 80.232121 
L 444.257411 175.827071 
L 445.968109 45.012929 
L 447.678806 75.200808 
L 449.389503 115.451313 
L 451.100201 70.169495 
L 452.810898 65.138182 
L 454.521595 100.357374 
L 456.232293 110.42 
L 457.94299 145.639192 
L 459.653687 55.075556 
L 461.364385 185.889697 
L 463.075082 100.357374 
L 464.785779 85.263434 
L 466.496477 125.513939 
L 468.207174 80.232121 
L 469.917871 125.513939 
L 471.628569 100.357374 
L 473.339266 70.169495 
L 475.049963 70.169495 
L 480.182055 85.263434 
L 481.892753 39.981616 
L 483.60345 105.388687 
L 485.314147 85.263434 
L 487.024845 100.357374 
L 488.735542 150.670505 
L 490.44624 80.232121 
L 492.156937 85.263434 
L 493.867634 85.263434 
L 495.578332 140.607879 
L 497.289029 95.326061 
L 498.999726 19.856364 
L 500.710424 155.701818 
L 502.421121 85.263434 
L 504.131818 80.232121 
L 504.131818 80.232121 
" clip-path="url(#pf637caf01a)" style="fill: none; stroke: #235996; stroke-width: 0.8; stroke-linecap: square"/>
   </g>
   <g id="patch_7">
    <path d="M 56.87 210.04 
L 56.87 10.8 
" style="fill: none; stroke: #000000; stroke-width: 0.8; stroke-linejoin: miter; stroke-linecap: square"/>
   </g>
   <g id="patch_8">
    <path d="M 525.43 210.04 
L 525.43 10.8 
" style="fill: none; stroke: #000000; stroke-width: 0.8; stroke-linejoin: miter; stroke-linecap: square"/>
   </g>
   <g id="patch_9">
    <path d="M 56.87 210.04 
L 525.43 210.04 
" style="fill: none; stroke: #000000; stroke-width: 0.8; stroke-linejoin: miter; stroke-linecap: square"/>
   </g>
   <g id="patch_10">
    <path d="M 56.87 10.8 
L 525.43 10.8 
" style="fill: none; stroke: #000000; stroke-width: 0.8; stroke-linejoin: miter; stroke-linecap: square"/>
   </g>
   <g id="legend_1">
    <g id="patch_11">
     <path d="M 150.539625 43.4565 
L 431.760375 43.4565 
Q 434.640375 43.4565 434.640375 40.5765 
L 434.640375 20.88 
Q 434.640375 18 431.760375 18 
L 150.539625 18 
Q 147.659625 18 147.659625 20.88 
L 147.659625 40.5765 
Q 147.659625 43.4565 150.539625 43.4565 
z
" style="fill: #ffffff; opacity: 0.8; stroke: #000000; stroke-linejoin: miter"/>
    </g>
    <g id="line2d_21">
     <path d="M 153.419625 29.66175 
L 167.819625 29.66175 
L 182.219625 29.66175 
" style="fill: none; stroke: #99004d; stroke-width: 0.8; stroke-linecap: square"/>
    </g>
    <g id="text_22">
     <text style="font: 14.4px 'DejaVu Sans', 'Bitstream Vera Sans', 'Computer Modern Sans Serif', 'Lucida Grande', 'Verdana', 'Geneva', 'Lucid', 'Arial', 'Helvetica', 'Avant Garde', sans-serif; text-anchor: start" x="193.739625" y="34.70175" transform="rotate(-0 193.739625 34.70175)">power</text>
    </g>
    <g id="line2d_22">
     <path d="M 267.049125 29.66175 
L 281.449125 29.66175 
L 295.849125 29.66175 
" style="fill: none; stroke: #235996; stroke-width: 0.8; stroke-linecap: square"/>
    </g>
    <g id="text_23">
     <text style="font: 14.4px 'DejaVu Sans', 'Bitstream Vera Sans', 'Computer Modern Sans Serif', 'Lucida Grande', 'Verdana', 'Geneva', 'Lucid', 'Arial', 'Helvetica', 'Avant Garde', sans-serif; text-anchor: start" x="307.369125" y="34.70175" transform="rotate(-0 307.369125 34.70175)">hw(rs1)+hw(rs2)</text>
    </g>
   </g>
  </g>
 </g>
 <defs>
  <clipPath id="pf637caf01a">
   <rect x="56.87" y="10.8" width="468.56" height="199.24"/>
  </clipPath>
 </defs>
</svg>
