<?xml version="1.0" encoding="utf-8" standalone="no"?>
<!DOCTYPE svg PUBLIC "-//W3C//DTD SVG 1.1//EN"
  "http://www.w3.org/Graphics/SVG/1.1/DTD/svg11.dtd">
<svg xmlns:xlink="http://www.w3.org/1999/xlink" width="576pt" height="252pt" viewBox="0 0 576 252" xmlns="http://www.w3.org/2000/svg" version="1.1">
 <metadata>
  <rdf:RDF xmlns:dc="http://purl.org/dc/elements/1.1/" xmlns:cc="http://creativecommons.org/ns#" xmlns:rdf="http://www.w3.org/1999/02/22-rdf-syntax-ns#">
   <cc:Work>
    <dc:type rdf:resource="http://purl.org/dc/dcmitype/StillImage"/>
    <dc:date>2023-12-06T19:46:47.448647</dc:date>
    <dc:format>image/svg+xml</dc:format>
    <dc:creator>
     <cc:Agent>
      <dc:title>Matplotlib v3.7.4, https://matplotlib.org/</dc:title>
     </cc:Agent>
    </dc:creator>
   </cc:Work>
  </rdf:RDF>
 </metadata>
 <defs>
  <style type="text/css">*{stroke-linejoin: round; stroke-linecap: butt}</style>
 </defs>
 <g id="figure_1">
  <g id="patch_1">
   <path d="M 0 252 
L 576 252 
L 576 0 
L 0 0 
z
" style="fill: #ffffff"/>
  </g>
  <g id="axes_1">
   <g id="patch_2">
    <path d="M 56.87 210.04 
L 525.43 210.04 
L 525.43 10.8 
L 56.87 10.8 
z
" style="fill: #ffffff"/>
   </g>
   <g id="matplotlib.axis_1">
    <g id="xtick_1">
     <g id="line2d_1">
      <defs>
       <path id="m908ae58584" d="M 0 0 
L 0 3.5 
" style="stroke: #000000; stroke-width: 0.8"/>
      </defs>
      <g>
       <use xlink:href="#m908ae58584" x="78.168182" y="210.04" style="stroke: #000000; stroke-width: 0.8"/>
      </g>
     </g>
     <g id="text_1">
      <text style="font: 10px 'DejaVu Sans', 'Bitstream Vera Sans', 'Computer Modern Sans Serif', 'Lucida Grande', 'Verdana', 'Geneva', 'Lucid', 'Arial', 'Helvetica', 'Avant Garde', sans-serif; text-anchor: middle" x="78.168182" y="224.638438" transform="rotate(-0 78.168182 224.638438)">0</text>
     </g>
    </g>
    <g id="xtick_2">
     <g id="line2d_2">
      <g>
       <use xlink:href="#m908ae58584" x="163.703049" y="210.04" style="stroke: #000000; stroke-width: 0.8"/>
      </g>
     </g>
     <g id="text_2">
      <text style="font: 10px 'DejaVu Sans', 'Bitstream Vera Sans', 'Computer Modern Sans Serif', 'Lucida Grande', 'Verdana', 'Geneva', 'Lucid', 'Arial', 'Helvetica', 'Avant Garde', sans-serif; text-anchor: middle" x="163.703049" y="224.638438" transform="rotate(-0 163.703049 224.638438)">50</text>
     </g>
    </g>
    <g id="xtick_3">
     <g id="line2d_3">
      <g>
       <use xlink:href="#m908ae58584" x="249.237915" y="210.04" style="stroke: #000000; stroke-width: 0.8"/>
      </g>
     </g>
     <g id="text_3">
      <text style="font: 10px 'DejaVu Sans', 'Bitstream Vera Sans', 'Computer Modern Sans Serif', 'Lucida Grande', 'Verdana', 'Geneva', 'Lucid', 'Arial', 'Helvetica', 'Avant Garde', sans-serif; text-anchor: middle" x="249.237915" y="224.638438" transform="rotate(-0 249.237915 224.638438)">100</text>
     </g>
    </g>
    <g id="xtick_4">
     <g id="line2d_4">
      <g>
       <use xlink:href="#m908ae58584" x="334.772782" y="210.04" style="stroke: #000000; stroke-width: 0.8"/>
      </g>
     </g>
     <g id="text_4">
      <text style="font: 10px 'DejaVu Sans', 'Bitstream Vera Sans', 'Computer Modern Sans Serif', 'Lucida Grande', 'Verdana', 'Geneva', 'Lucid', 'Arial', 'Helvetica', 'Avant Garde', sans-serif; text-anchor: middle" x="334.772782" y="224.638438" transform="rotate(-0 334.772782 224.638438)">150</text>
     </g>
    </g>
    <g id="xtick_5">
     <g id="line2d_5">
      <g>
       <use xlink:href="#m908ae58584" x="420.307649" y="210.04" style="stroke: #000000; stroke-width: 0.8"/>
      </g>
     </g>
     <g id="text_5">
      <text style="font: 10px 'DejaVu Sans', 'Bitstream Vera Sans', 'Computer Modern Sans Serif', 'Lucida Grande', 'Verdana', 'Geneva', 'Lucid', 'Arial', 'Helvetica', 'Avant Garde', sans-serif; text-anchor: middle" x="420.307649" y="224.638438" transform="rotate(-0 420.307649 224.638438)">200</text>
     </g>
    </g>
    <g id="xtick_6">
     <g id="line2d_6">
      <g>
       <use xlink:href="#m908ae58584" x="505.842516" y="210.04" style="stroke: #000000; stroke-width: 0.8"/>
      </g>
     </g>
     <g id="text_6">
      <text style="font: 10px 'DejaVu Sans', 'Bitstream Vera Sans', 'Computer Modern Sans Serif', 'Lucida Grande', 'Verdana', 'Geneva', 'Lucid', 'Arial', 'Helvetica', 'Avant Garde', sans-serif; text-anchor: middle" x="505.842516" y="224.638438" transform="rotate(-0 505.842516 224.638438)">250</text>
     </g>
    </g>
    <g id="text_7">
     <text style="font: 10px 'DejaVu Sans', 'Bitstream Vera Sans', 'Computer Modern Sans Serif', 'Lucida Grande', 'Verdana', 'Geneva', 'Lucid', 'Arial', 'Helvetica', 'Avant Garde', sans-serif; text-anchor: middle" x="291.15" y="238.316563" transform="rotate(-0 291.15 238.316563)">Cycles</text>
    </g>
   </g>
   <g id="matplotlib.axis_2">
    <g id="ytick_1">
     <g id="line2d_7">
      <defs>
       <path id="mc91e3680d1" d="M 0 0 
L -3.5 0 
" style="stroke: #000000; stroke-width: 0.8"/>
      </defs>
      <g>
       <use xlink:href="#mc91e3680d1" x="56.87" y="171.270623" style="stroke: #000000; stroke-width: 0.8"/>
      </g>
     </g>
     <g id="text_8">
      <text style="font: 10px 'DejaVu Sans', 'Bitstream Vera Sans', 'Computer Modern Sans Serif', 'Lucida Grande', 'Verdana', 'Geneva', 'Lucid', 'Arial', 'Helvetica', 'Avant Garde', sans-serif; text-anchor: end" x="49.87" y="175.069842" transform="rotate(-0 49.87 175.069842)">400</text>
     </g>
    </g>
    <g id="ytick_2">
     <g id="line2d_8">
      <g>
       <use xlink:href="#mc91e3680d1" x="56.87" y="130.567865" style="stroke: #000000; stroke-width: 0.8"/>
      </g>
     </g>
     <g id="text_9">
      <text style="font: 10px 'DejaVu Sans', 'Bitstream Vera Sans', 'Computer Modern Sans Serif', 'Lucida Grande', 'Verdana', 'Geneva', 'Lucid', 'Arial', 'Helvetica', 'Avant Garde', sans-serif; text-anchor: end" x="49.87" y="134.367084" transform="rotate(-0 49.87 134.367084)">500</text>
     </g>
    </g>
    <g id="ytick_3">
     <g id="line2d_9">
      <g>
       <use xlink:href="#mc91e3680d1" x="56.87" y="89.865107" style="stroke: #000000; stroke-width: 0.8"/>
      </g>
     </g>
     <g id="text_10">
      <text style="font: 10px 'DejaVu Sans', 'Bitstream Vera Sans', 'Computer Modern Sans Serif', 'Lucida Grande', 'Verdana', 'Geneva', 'Lucid', 'Arial', 'Helvetica', 'Avant Garde', sans-serif; text-anchor: end" x="49.87" y="93.664326" transform="rotate(-0 49.87 93.664326)">600</text>
     </g>
    </g>
    <g id="ytick_4">
     <g id="line2d_10">
      <g>
       <use xlink:href="#mc91e3680d1" x="56.87" y="49.162349" style="stroke: #000000; stroke-width: 0.8"/>
      </g>
     </g>
     <g id="text_11">
      <text style="font: 10px 'DejaVu Sans', 'Bitstream Vera Sans', 'Computer Modern Sans Serif', 'Lucida Grande', 'Verdana', 'Geneva', 'Lucid', 'Arial', 'Helvetica', 'Avant Garde', sans-serif; text-anchor: end" x="49.87" y="52.961568" transform="rotate(-0 49.87 52.961568)">700</text>
     </g>
    </g>
    <g id="text_12">
     <text style="font: 10px 'DejaVu Sans', 'Bitstream Vera Sans', 'Computer Modern Sans Serif', 'Lucida Grande', 'Verdana', 'Geneva', 'Lucid', 'Arial', 'Helvetica', 'Avant Garde', sans-serif; text-anchor: middle" x="18.702813" y="110.42" transform="rotate(-90 18.702813 110.42)">power (uW)</text>
    </g>
   </g>
   <g id="line2d_11">
    <path d="M 78.168182 124.869479 
L 79.878879 47.941267 
L 81.589576 90.272135 
L 83.300274 118.764065 
L 85.010971 103.297017 
L 86.721668 98.005659 
L 88.432366 98.819714 
L 90.143063 111.030541 
L 91.85376 118.357038 
L 93.564458 113.472707 
L 95.275155 53.639653 
L 96.985853 63.001287 
L 98.69655 88.644025 
L 100.407247 58.116956 
L 102.117945 82.945638 
L 103.828642 88.236997 
L 105.539339 65.443453 
L 107.250037 65.443453 
L 108.960734 49.162349 
L 110.671431 52.011542 
L 112.382129 101.261879 
L 114.092826 84.166721 
L 115.803523 135.045169 
L 117.514221 73.584004 
L 119.224918 120.799203 
L 120.935615 79.689418 
L 122.646313 89.45808 
L 124.35701 75.212114 
L 126.067707 68.292646 
L 127.778405 52.011542 
L 129.489102 89.051052 
L 131.199799 56.895873 
L 132.910497 157.024658 
L 134.621194 84.573749 
L 136.331891 81.724556 
L 138.042589 81.317528 
L 139.753286 69.513728 
L 141.463983 87.829969 
L 143.174681 145.220858 
L 144.885378 73.584004 
L 146.596075 83.759694 
L 148.306773 98.819714 
L 150.01747 62.187232 
L 151.728167 144.406803 
L 153.438865 73.176977 
L 155.149562 62.187232 
L 156.860259 107.774321 
L 158.570957 56.895873 
L 160.281654 81.724556 
L 161.992351 93.935383 
L 163.703049 54.860735 
L 165.413746 72.769949 
L 167.124443 51.197487 
L 168.835141 128.1257 
L 170.545838 124.055424 
L 172.256535 45.499101 
L 173.967233 48.348294 
L 175.67793 114.69379 
L 177.388627 63.815342 
L 179.099325 44.685046 
L 180.810022 87.829969 
L 182.520719 55.674791 
L 184.231417 93.121328 
L 185.942114 103.297017 
L 187.652811 105.739183 
L 189.363509 103.297017 
L 191.074206 41.428825 
L 192.784903 105.739183 
L 194.495601 75.619142 
L 196.206298 67.47859 
L 197.916995 55.674791 
L 199.627693 56.081818 
L 201.33839 55.674791 
L 203.049087 71.141839 
L 204.759785 71.141839 
L 206.470482 132.195975 
L 208.181179 129.346782 
L 209.891877 56.488846 
L 211.602574 55.674791 
L 213.313271 170.04954 
L 215.023969 97.191604 
L 216.734666 43.463963 
L 218.445363 66.257508 
L 220.156061 166.386292 
L 221.866758 57.709928 
L 223.577455 56.895873 
L 225.288153 71.548866 
L 226.99885 78.875363 
L 228.709547 39.393687 
L 230.420245 43.870991 
L 232.130942 69.513728 
L 233.841639 148.884106 
L 235.552337 123.241369 
L 237.263034 84.980776 
L 238.973731 89.051052 
L 240.684429 135.045169 
L 242.395126 80.503473 
L 244.105823 93.935383 
L 245.816521 84.980776 
L 247.527218 81.724556 
L 249.237915 58.116956 
L 250.948613 19.856364 
L 252.65931 67.47859 
L 254.370007 38.98666 
L 256.080705 21.891502 
L 257.791402 67.071563 
L 259.502099 87.422942 
L 261.212797 157.024658 
L 262.923494 93.528355 
L 264.634191 48.348294 
L 266.344889 104.925128 
L 268.055586 43.870991 
L 269.766283 88.644025 
L 271.476981 55.267763 
L 273.187678 80.096445 
L 274.898375 126.090562 
L 278.31977 60.559122 
L 280.030467 71.548866 
L 281.741165 19.856364 
L 283.451862 82.131583 
L 285.162559 87.015914 
L 286.873257 45.092074 
L 288.583954 107.774321 
L 290.294651 44.685046 
L 292.005349 73.176977 
L 293.716046 126.497589 
L 295.426743 74.398059 
L 297.137441 67.885618 
L 298.848138 59.745066 
L 300.558835 95.970521 
L 302.269533 152.547354 
L 303.98023 79.28239 
L 305.690927 34.916384 
L 307.401625 65.036425 
L 309.112322 64.629397 
L 310.823019 63.815342 
L 312.533717 36.544494 
L 314.244414 65.85048 
L 315.955111 68.699673 
L 317.665809 62.594259 
L 319.376506 78.875363 
L 321.087203 71.141839 
L 322.797901 73.176977 
L 324.508598 86.608887 
L 326.219295 157.024658 
L 327.929993 146.848968 
L 329.64069 49.569377 
L 331.351387 113.065679 
L 333.062085 65.443453 
L 334.772782 57.709928 
L 336.483479 98.412686 
L 338.194177 122.834341 
L 339.904874 103.297017 
L 341.615571 117.135955 
L 343.326269 91.08619 
L 345.036966 76.433197 
L 346.747663 48.755322 
L 348.458361 70.327783 
L 350.169058 27.18286 
L 351.879755 144.406803 
L 353.590453 52.825598 
L 355.30115 95.970521 
L 357.011847 68.699673 
L 358.722545 97.191604 
L 360.433242 50.383432 
L 362.143939 75.212114 
L 363.854637 63.001287 
L 365.565334 115.914872 
L 367.276031 87.422942 
L 368.986729 183.48145 
L 370.697426 140.743555 
L 372.408123 60.559122 
L 374.118821 107.367293 
L 375.829518 94.749438 
L 377.540215 47.127211 
L 379.250913 89.865107 
L 380.96161 119.985148 
L 382.672307 58.116956 
L 384.383005 71.548866 
L 386.093702 89.051052 
L 387.804399 94.342411 
L 389.515097 109.402431 
L 391.225794 100.854852 
L 392.936491 77.65428 
L 394.647189 78.061307 
L 396.357886 120.392176 
L 398.068583 115.507845 
L 399.779281 125.276507 
L 401.489978 85.387804 
L 403.200675 107.774321 
L 404.911373 44.685046 
L 406.62207 90.272135 
L 408.332767 34.102329 
L 410.043465 70.327783 
L 411.754162 92.7143 
L 413.464859 62.594259 
L 415.175557 53.639653 
L 416.886254 58.523984 
L 418.596951 73.584004 
L 420.307649 143.18572 
L 422.018346 55.267763 
L 423.729043 199.355526 
L 425.439741 107.367293 
L 427.150438 78.875363 
L 428.861135 85.794831 
L 430.571833 104.5181 
L 432.28253 88.644025 
L 433.993227 44.685046 
L 435.703925 23.519612 
L 437.414622 42.649908 
L 439.125319 75.619142 
L 440.836017 60.966149 
L 442.546714 100.447824 
L 444.257411 200.983636 
L 445.968109 57.709928 
L 447.678806 54.04668 
L 449.389503 76.433197 
L 451.100201 65.443453 
L 452.810898 122.427314 
L 454.521595 117.135955 
L 456.232293 67.47859 
L 457.94299 31.253136 
L 459.653687 53.232625 
L 461.364385 57.302901 
L 463.075082 108.588376 
L 464.785779 46.313156 
L 466.496477 79.28239 
L 468.207174 50.383432 
L 469.917871 100.854852 
L 471.628569 41.428825 
L 473.339266 97.191604 
L 475.049963 108.995403 
L 476.760661 89.051052 
L 478.471358 49.976404 
L 480.182055 53.232625 
L 481.892753 39.800715 
L 483.60345 114.69379 
L 485.314147 57.709928 
L 487.024845 75.212114 
L 488.735542 105.332155 
L 490.44624 111.437569 
L 492.156937 143.999775 
L 493.867634 104.925128 
L 495.578332 57.709928 
L 497.289029 95.156466 
L 498.999726 139.522472 
L 500.710424 94.749438 
L 502.421121 152.954382 
L 504.131818 76.433197 
L 504.131818 76.433197 
" clip-path="url(#pf630c1714b)" style="fill: none; stroke: #99004d; stroke-width: 0.8; stroke-linecap: square"/>
   </g>
   <g id="patch_3">
    <path d="M 56.87 210.04 
L 56.87 10.8 
" style="fill: none; stroke: #000000; stroke-width: 0.8; stroke-linejoin: miter; stroke-linecap: square"/>
   </g>
   <g id="patch_4">
    <path d="M 525.43 210.04 
L 525.43 10.8 
" style="fill: none; stroke: #000000; stroke-width: 0.8; stroke-linejoin: miter; stroke-linecap: square"/>
   </g>
   <g id="patch_5">
    <path d="M 56.87 210.04 
L 525.43 210.04 
" style="fill: none; stroke: #000000; stroke-width: 0.8; stroke-linejoin: miter; stroke-linecap: square"/>
   </g>
   <g id="patch_6">
    <path d="M 56.87 10.8 
L 525.43 10.8 
" style="fill: none; stroke: #000000; stroke-width: 0.8; stroke-linejoin: miter; stroke-linecap: square"/>
   </g>
  </g>
  <g id="axes_2">
   <g id="matplotlib.axis_3">
    <g id="ytick_5">
     <g id="line2d_12">
      <defs>
       <path id="m8b3380e0aa" d="M 0 0 
L 3.5 0 
" style="stroke: #000000; stroke-width: 0.8"/>
      </defs>
      <g>
       <use xlink:href="#m8b3380e0aa" x="525.43" y="200.983636" style="stroke: #000000; stroke-width: 0.8"/>
      </g>
     </g>
     <g id="text_13">
      <text style="font: 10px 'DejaVu Sans', 'Bitstream Vera Sans', 'Computer Modern Sans Serif', 'Lucida Grande', 'Verdana', 'Geneva', 'Lucid', 'Arial', 'Helvetica', 'Avant Garde', sans-serif; text-anchor: start" x="532.43" y="204.782855" transform="rotate(-0 532.43 204.782855)">0</text>
     </g>
    </g>
    <g id="ytick_6">
     <g id="line2d_13">
      <g>
       <use xlink:href="#m8b3380e0aa" x="525.43" y="175.827071" style="stroke: #000000; stroke-width: 0.8"/>
      </g>
     </g>
     <g id="text_14">
      <text style="font: 10px 'DejaVu Sans', 'Bitstream Vera Sans', 'Computer Modern Sans Serif', 'Lucida Grande', 'Verdana', 'Geneva', 'Lucid', 'Arial', 'Helvetica', 'Avant Garde', sans-serif; text-anchor: start" x="532.43" y="179.626289" transform="rotate(-0 532.43 179.626289)">5</text>
     </g>
    </g>
    <g id="ytick_7">
     <g id="line2d_14">
      <g>
       <use xlink:href="#m8b3380e0aa" x="525.43" y="150.670505" style="stroke: #000000; stroke-width: 0.8"/>
      </g>
     </g>
     <g id="text_15">
      <text style="font: 10px 'DejaVu Sans', 'Bitstream Vera Sans', 'Computer Modern Sans Serif', 'Lucida Grande', 'Verdana', 'Geneva', 'Lucid', 'Arial', 'Helvetica', 'Avant Garde', sans-serif; text-anchor: start" x="532.43" y="154.469724" transform="rotate(-0 532.43 154.469724)">10</text>
     </g>
    </g>
    <g id="ytick_8">
     <g id="line2d_15">
      <g>
       <use xlink:href="#m8b3380e0aa" x="525.43" y="125.513939" style="stroke: #000000; stroke-width: 0.8"/>
      </g>
     </g>
     <g id="text_16">
      <text style="font: 10px 'DejaVu Sans', 'Bitstream Vera Sans', 'Computer Modern Sans Serif', 'Lucida Grande', 'Verdana', 'Geneva', 'Lucid', 'Arial', 'Helvetica', 'Avant Garde', sans-serif; text-anchor: start" x="532.43" y="129.313158" transform="rotate(-0 532.43 129.313158)">15</text>
     </g>
    </g>
    <g id="ytick_9">
     <g id="line2d_16">
      <g>
       <use xlink:href="#m8b3380e0aa" x="525.43" y="100.357374" style="stroke: #000000; stroke-width: 0.8"/>
      </g>
     </g>
     <g id="text_17">
      <text style="font: 10px 'DejaVu Sans', 'Bitstream Vera Sans', 'Computer Modern Sans Serif', 'Lucida Grande', 'Verdana', 'Geneva', 'Lucid', 'Arial', 'Helvetica', 'Avant Garde', sans-serif; text-anchor: start" x="532.43" y="104.156592" transform="rotate(-0 532.43 104.156592)">20</text>
     </g>
    </g>
    <g id="ytick_10">
     <g id="line2d_17">
      <g>
       <use xlink:href="#m8b3380e0aa" x="525.43" y="75.200808" style="stroke: #000000; stroke-width: 0.8"/>
      </g>
     </g>
     <g id="text_18">
      <text style="font: 10px 'DejaVu Sans', 'Bitstream Vera Sans', 'Computer Modern Sans Serif', 'Lucida Grande', 'Verdana', 'Geneva', 'Lucid', 'Arial', 'Helvetica', 'Avant Garde', sans-serif; text-anchor: start" x="532.43" y="79.000027" transform="rotate(-0 532.43 79.000027)">25</text>
     </g>
    </g>
    <g id="ytick_11">
     <g id="line2d_18">
      <g>
       <use xlink:href="#m8b3380e0aa" x="525.43" y="50.044242" style="stroke: #000000; stroke-width: 0.8"/>
      </g>
     </g>
     <g id="text_19">
      <text style="font: 10px 'DejaVu Sans', 'Bitstream Vera Sans', 'Computer Modern Sans Serif', 'Lucida Grande', 'Verdana', 'Geneva', 'Lucid', 'Arial', 'Helvetica', 'Avant Garde', sans-serif; text-anchor: start" x="532.43" y="53.843461" transform="rotate(-0 532.43 53.843461)">30</text>
     </g>
    </g>
    <g id="ytick_12">
     <g id="line2d_19">
      <g>
       <use xlink:href="#m8b3380e0aa" x="525.43" y="24.887677" style="stroke: #000000; stroke-width: 0.8"/>
      </g>
     </g>
     <g id="text_20">
      <text style="font: 10px 'DejaVu Sans', 'Bitstream Vera Sans', 'Computer Modern Sans Serif', 'Lucida Grande', 'Verdana', 'Geneva', 'Lucid', 'Arial', 'Helvetica', 'Avant Garde', sans-serif; text-anchor: start" x="532.43" y="28.686896" transform="rotate(-0 532.43 28.686896)">35</text>
     </g>
    </g>
    <g id="text_21">
     <text style="font: 10px 'DejaVu Sans', 'Bitstream Vera Sans', 'Computer Modern Sans Serif', 'Lucida Grande', 'Verdana', 'Geneva', 'Lucid', 'Arial', 'Helvetica', 'Avant Garde', sans-serif; text-anchor: middle" x="562.753438" y="110.42" transform="rotate(-90 562.753438 110.42)">hw(data)</text>
    </g>
   </g>
   <g id="line2d_20">
    <path d="M 78.168182 185.889697 
L 79.878879 55.075556 
L 81.589576 100.357374 
L 83.300274 135.576566 
L 85.010971 120.482626 
L 86.721668 120.482626 
L 88.432366 90.294747 
L 90.143063 120.482626 
L 93.564458 120.482626 
L 95.275155 39.981616 
L 96.985853 55.075556 
L 98.69655 95.326061 
L 100.407247 65.138182 
L 102.117945 45.012929 
L 103.828642 120.482626 
L 105.539339 85.263434 
L 107.250037 55.075556 
L 108.960734 55.075556 
L 110.671431 80.232121 
L 112.382129 100.357374 
L 114.092826 95.326061 
L 115.803523 110.42 
L 117.514221 39.981616 
L 119.224918 135.576566 
L 120.935615 65.138182 
L 122.646313 95.326061 
L 124.35701 85.263434 
L 126.067707 95.326061 
L 127.778405 65.138182 
L 129.489102 115.451313 
L 131.199799 60.106869 
L 132.910497 145.639192 
L 134.621194 90.294747 
L 136.331891 65.138182 
L 138.042589 70.169495 
L 139.753286 29.91899 
L 141.463983 100.357374 
L 143.174681 165.764444 
L 144.885378 75.200808 
L 146.596075 90.294747 
L 148.306773 70.169495 
L 150.01747 45.012929 
L 151.728167 140.607879 
L 153.438865 65.138182 
L 155.149562 50.044242 
L 156.860259 85.263434 
L 158.570957 85.263434 
L 160.281654 145.639192 
L 161.992351 130.545253 
L 163.703049 50.044242 
L 165.413746 85.263434 
L 167.124443 39.981616 
L 168.835141 160.733131 
L 170.545838 140.607879 
L 172.256535 65.138182 
L 173.967233 55.075556 
L 175.67793 130.545253 
L 177.388627 60.106869 
L 179.099325 39.981616 
L 180.810022 80.232121 
L 184.231417 100.357374 
L 185.942114 80.232121 
L 187.652811 135.576566 
L 189.363509 120.482626 
L 191.074206 29.91899 
L 192.784903 160.733131 
L 194.495601 39.981616 
L 196.206298 75.200808 
L 197.916995 70.169495 
L 199.627693 55.075556 
L 201.33839 70.169495 
L 203.049087 39.981616 
L 204.759785 110.42 
L 206.470482 130.545253 
L 208.181179 110.42 
L 209.891877 80.232121 
L 211.602574 65.138182 
L 213.313271 135.576566 
L 215.023969 150.670505 
L 216.734666 29.91899 
L 218.445363 125.513939 
L 220.156061 165.764444 
L 221.866758 34.950303 
L 223.577455 65.138182 
L 225.288153 65.138182 
L 226.99885 105.388687 
L 228.709547 60.106869 
L 230.420245 60.106869 
L 232.130942 80.232121 
L 233.841639 170.795758 
L 237.263034 120.482626 
L 238.973731 60.106869 
L 240.684429 140.607879 
L 242.395126 75.200808 
L 244.105823 75.200808 
L 245.816521 110.42 
L 247.527218 80.232121 
L 249.237915 39.981616 
L 250.948613 29.91899 
L 252.65931 115.451313 
L 254.370007 55.075556 
L 256.080705 24.887677 
L 257.791402 100.357374 
L 259.502099 75.200808 
L 261.212797 155.701818 
L 262.923494 145.639192 
L 264.634191 65.138182 
L 266.344889 105.388687 
L 268.055586 50.044242 
L 269.766283 115.451313 
L 271.476981 29.91899 
L 273.187678 105.388687 
L 274.898375 110.42 
L 276.609073 120.482626 
L 278.31977 39.981616 
L 280.030467 55.075556 
L 281.741165 45.012929 
L 283.451862 105.388687 
L 285.162559 105.388687 
L 286.873257 80.232121 
L 288.583954 120.482626 
L 290.294651 34.950303 
L 292.005349 105.388687 
L 293.716046 140.607879 
L 295.426743 60.106869 
L 297.137441 105.388687 
L 298.848138 70.169495 
L 300.558835 90.294747 
L 302.269533 150.670505 
L 303.98023 55.075556 
L 305.690927 65.138182 
L 307.401625 29.91899 
L 310.823019 70.169495 
L 312.533717 50.044242 
L 314.244414 70.169495 
L 315.955111 65.138182 
L 317.665809 70.169495 
L 319.376506 45.012929 
L 321.087203 90.294747 
L 322.797901 110.42 
L 324.508598 70.169495 
L 326.219295 115.451313 
L 327.929993 145.639192 
L 329.64069 50.044242 
L 331.351387 135.576566 
L 333.062085 60.106869 
L 334.772782 50.044242 
L 336.483479 95.326061 
L 338.194177 115.451313 
L 339.904874 120.482626 
L 341.615571 165.764444 
L 343.326269 80.232121 
L 345.036966 115.451313 
L 346.747663 80.232121 
L 348.458361 105.388687 
L 350.169058 45.012929 
L 351.879755 175.827071 
L 353.590453 70.169495 
L 355.30115 50.044242 
L 357.011847 65.138182 
L 358.722545 105.388687 
L 360.433242 45.012929 
L 362.143939 85.263434 
L 363.854637 70.169495 
L 365.565334 105.388687 
L 367.276031 105.388687 
L 368.986729 190.92101 
L 370.697426 145.639192 
L 372.408123 55.075556 
L 374.118821 120.482626 
L 377.540215 90.294747 
L 379.250913 145.639192 
L 380.96161 165.764444 
L 382.672307 75.200808 
L 384.383005 105.388687 
L 386.093702 95.326061 
L 387.804399 130.545253 
L 389.515097 125.513939 
L 391.225794 75.200808 
L 392.936491 70.169495 
L 394.647189 85.263434 
L 396.357886 160.733131 
L 398.068583 115.451313 
L 399.779281 170.795758 
L 401.489978 90.294747 
L 403.200675 70.169495 
L 406.62207 100.357374 
L 408.332767 24.887677 
L 410.043465 45.012929 
L 411.754162 19.856364 
L 413.464859 85.263434 
L 415.175557 45.012929 
L 416.886254 45.012929 
L 418.596951 105.388687 
L 420.307649 125.513939 
L 422.018346 39.981616 
L 423.729043 200.983636 
L 425.439741 170.795758 
L 427.150438 50.044242 
L 428.861135 110.42 
L 430.571833 110.42 
L 432.28253 90.294747 
L 433.993227 75.200808 
L 435.703925 70.169495 
L 437.414622 70.169495 
L 439.125319 100.357374 
L 440.836017 55.075556 
L 442.546714 110.42 
L 444.257411 175.827071 
L 445.968109 60.106869 
L 449.389503 100.357374 
L 451.100201 95.326061 
L 452.810898 130.545253 
L 454.521595 115.451313 
L 456.232293 95.326061 
L 457.94299 34.950303 
L 459.653687 70.169495 
L 461.364385 65.138182 
L 463.075082 125.513939 
L 464.785779 39.981616 
L 466.496477 95.326061 
L 468.207174 70.169495 
L 469.917871 85.263434 
L 471.628569 45.012929 
L 473.339266 105.388687 
L 475.049963 110.42 
L 476.760661 65.138182 
L 478.471358 60.106869 
L 480.182055 60.106869 
L 481.892753 24.887677 
L 483.60345 115.451313 
L 485.314147 80.232121 
L 487.024845 150.670505 
L 488.735542 155.701818 
L 490.44624 100.357374 
L 492.156937 115.451313 
L 493.867634 85.263434 
L 495.578332 65.138182 
L 497.289029 90.294747 
L 498.999726 125.513939 
L 500.710424 105.388687 
L 502.421121 180.858384 
L 504.131818 80.232121 
L 504.131818 80.232121 
" clip-path="url(#pf630c1714b)" style="fill: none; stroke: #235996; stroke-width: 0.8; stroke-linecap: square"/>
   </g>
   <g id="patch_7">
    <path d="M 56.87 210.04 
L 56.87 10.8 
" style="fill: none; stroke: #000000; stroke-width: 0.8; stroke-linejoin: miter; stroke-linecap: square"/>
   </g>
   <g id="patch_8">
    <path d="M 525.43 210.04 
L 525.43 10.8 
" style="fill: none; stroke: #000000; stroke-width: 0.8; stroke-linejoin: miter; stroke-linecap: square"/>
   </g>
   <g id="patch_9">
    <path d="M 56.87 210.04 
L 525.43 210.04 
" style="fill: none; stroke: #000000; stroke-width: 0.8; stroke-linejoin: miter; stroke-linecap: square"/>
   </g>
   <g id="patch_10">
    <path d="M 56.87 10.8 
L 525.43 10.8 
" style="fill: none; stroke: #000000; stroke-width: 0.8; stroke-linejoin: miter; stroke-linecap: square"/>
   </g>
   <g id="legend_1">
    <g id="patch_11">
     <path d="M 150.539625 43.4565 
L 431.760375 43.4565 
Q 434.640375 43.4565 434.640375 40.5765 
L 434.640375 20.88 
Q 434.640375 18 431.760375 18 
L 150.539625 18 
Q 147.659625 18 147.659625 20.88 
L 147.659625 40.5765 
Q 147.659625 43.4565 150.539625 43.4565 
z
" style="fill: #ffffff; opacity: 0.8; stroke: #000000; stroke-linejoin: miter"/>
    </g>
    <g id="line2d_21">
     <path d="M 153.419625 29.66175 
L 167.819625 29.66175 
L 182.219625 29.66175 
" style="fill: none; stroke: #99004d; stroke-width: 0.8; stroke-linecap: square"/>
    </g>
    <g id="text_22">
     <text style="font: 14.4px 'DejaVu Sans', 'Bitstream Vera Sans', 'Computer Modern Sans Serif', 'Lucida Grande', 'Verdana', 'Geneva', 'Lucid', 'Arial', 'Helvetica', 'Avant Garde', sans-serif; text-anchor: start" x="193.739625" y="34.70175" transform="rotate(-0 193.739625 34.70175)">power</text>
    </g>
    <g id="line2d_22">
     <path d="M 267.049125 29.66175 
L 281.449125 29.66175 
L 295.849125 29.66175 
" style="fill: none; stroke: #235996; stroke-width: 0.8; stroke-linecap: square"/>
    </g>
    <g id="text_23">
     <text style="font: 14.4px 'DejaVu Sans', 'Bitstream Vera Sans', 'Computer Modern Sans Serif', 'Lucida Grande', 'Verdana', 'Geneva', 'Lucid', 'Arial', 'Helvetica', 'Avant Garde', sans-serif; text-anchor: start" x="307.369125" y="34.70175" transform="rotate(-0 307.369125 34.70175)">hw(rs1)+hw(rs2)</text>
    </g>
   </g>
  </g>
 </g>
 <defs>
  <clipPath id="pf630c1714b">
   <rect x="56.87" y="10.8" width="468.56" height="199.24"/>
  </clipPath>
 </defs>
</svg>
