<?xml version="1.0" encoding="utf-8" standalone="no"?>
<!DOCTYPE svg PUBLIC "-//W3C//DTD SVG 1.1//EN"
  "http://www.w3.org/Graphics/SVG/1.1/DTD/svg11.dtd">
<svg xmlns:xlink="http://www.w3.org/1999/xlink" width="576pt" height="252pt" viewBox="0 0 576 252" xmlns="http://www.w3.org/2000/svg" version="1.1">
 <metadata>
  <rdf:RDF xmlns:dc="http://purl.org/dc/elements/1.1/" xmlns:cc="http://creativecommons.org/ns#" xmlns:rdf="http://www.w3.org/1999/02/22-rdf-syntax-ns#">
   <cc:Work>
    <dc:type rdf:resource="http://purl.org/dc/dcmitype/StillImage"/>
    <dc:date>2023-12-04T21:08:18.230877</dc:date>
    <dc:format>image/svg+xml</dc:format>
    <dc:creator>
     <cc:Agent>
      <dc:title>Matplotlib v3.7.4, https://matplotlib.org/</dc:title>
     </cc:Agent>
    </dc:creator>
   </cc:Work>
  </rdf:RDF>
 </metadata>
 <defs>
  <style type="text/css">*{stroke-linejoin: round; stroke-linecap: butt}</style>
 </defs>
 <g id="figure_1">
  <g id="patch_1">
   <path d="M 0 252 
L 576 252 
L 576 0 
L 0 0 
z
" style="fill: #ffffff"/>
  </g>
  <g id="axes_1">
   <g id="patch_2">
    <path d="M 56.87 210.04 
L 525.43 210.04 
L 525.43 10.8 
L 56.87 10.8 
z
" style="fill: #ffffff"/>
   </g>
   <g id="matplotlib.axis_1">
    <g id="xtick_1">
     <g id="line2d_1">
      <defs>
       <path id="mb0c600739b" d="M 0 0 
L 0 3.5 
" style="stroke: #000000; stroke-width: 0.8"/>
      </defs>
      <g>
       <use xlink:href="#mb0c600739b" x="78.168182" y="210.04" style="stroke: #000000; stroke-width: 0.8"/>
      </g>
     </g>
     <g id="text_1">
      <text style="font: 10px 'DejaVu Sans', 'Bitstream Vera Sans', 'Computer Modern Sans Serif', 'Lucida Grande', 'Verdana', 'Geneva', 'Lucid', 'Arial', 'Helvetica', 'Avant Garde', sans-serif; text-anchor: middle" x="78.168182" y="224.638438" transform="rotate(-0 78.168182 224.638438)">0</text>
     </g>
    </g>
    <g id="xtick_2">
     <g id="line2d_2">
      <g>
       <use xlink:href="#mb0c600739b" x="163.703049" y="210.04" style="stroke: #000000; stroke-width: 0.8"/>
      </g>
     </g>
     <g id="text_2">
      <text style="font: 10px 'DejaVu Sans', 'Bitstream Vera Sans', 'Computer Modern Sans Serif', 'Lucida Grande', 'Verdana', 'Geneva', 'Lucid', 'Arial', 'Helvetica', 'Avant Garde', sans-serif; text-anchor: middle" x="163.703049" y="224.638438" transform="rotate(-0 163.703049 224.638438)">50</text>
     </g>
    </g>
    <g id="xtick_3">
     <g id="line2d_3">
      <g>
       <use xlink:href="#mb0c600739b" x="249.237915" y="210.04" style="stroke: #000000; stroke-width: 0.8"/>
      </g>
     </g>
     <g id="text_3">
      <text style="font: 10px 'DejaVu Sans', 'Bitstream Vera Sans', 'Computer Modern Sans Serif', 'Lucida Grande', 'Verdana', 'Geneva', 'Lucid', 'Arial', 'Helvetica', 'Avant Garde', sans-serif; text-anchor: middle" x="249.237915" y="224.638438" transform="rotate(-0 249.237915 224.638438)">100</text>
     </g>
    </g>
    <g id="xtick_4">
     <g id="line2d_4">
      <g>
       <use xlink:href="#mb0c600739b" x="334.772782" y="210.04" style="stroke: #000000; stroke-width: 0.8"/>
      </g>
     </g>
     <g id="text_4">
      <text style="font: 10px 'DejaVu Sans', 'Bitstream Vera Sans', 'Computer Modern Sans Serif', 'Lucida Grande', 'Verdana', 'Geneva', 'Lucid', 'Arial', 'Helvetica', 'Avant Garde', sans-serif; text-anchor: middle" x="334.772782" y="224.638438" transform="rotate(-0 334.772782 224.638438)">150</text>
     </g>
    </g>
    <g id="xtick_5">
     <g id="line2d_5">
      <g>
       <use xlink:href="#mb0c600739b" x="420.307649" y="210.04" style="stroke: #000000; stroke-width: 0.8"/>
      </g>
     </g>
     <g id="text_5">
      <text style="font: 10px 'DejaVu Sans', 'Bitstream Vera Sans', 'Computer Modern Sans Serif', 'Lucida Grande', 'Verdana', 'Geneva', 'Lucid', 'Arial', 'Helvetica', 'Avant Garde', sans-serif; text-anchor: middle" x="420.307649" y="224.638438" transform="rotate(-0 420.307649 224.638438)">200</text>
     </g>
    </g>
    <g id="xtick_6">
     <g id="line2d_6">
      <g>
       <use xlink:href="#mb0c600739b" x="505.842516" y="210.04" style="stroke: #000000; stroke-width: 0.8"/>
      </g>
     </g>
     <g id="text_6">
      <text style="font: 10px 'DejaVu Sans', 'Bitstream Vera Sans', 'Computer Modern Sans Serif', 'Lucida Grande', 'Verdana', 'Geneva', 'Lucid', 'Arial', 'Helvetica', 'Avant Garde', sans-serif; text-anchor: middle" x="505.842516" y="224.638438" transform="rotate(-0 505.842516 224.638438)">250</text>
     </g>
    </g>
    <g id="text_7">
     <text style="font: 10px 'DejaVu Sans', 'Bitstream Vera Sans', 'Computer Modern Sans Serif', 'Lucida Grande', 'Verdana', 'Geneva', 'Lucid', 'Arial', 'Helvetica', 'Avant Garde', sans-serif; text-anchor: middle" x="291.15" y="238.316563" transform="rotate(-0 291.15 238.316563)">Cycles</text>
    </g>
   </g>
   <g id="matplotlib.axis_2">
    <g id="ytick_1">
     <g id="line2d_7">
      <defs>
       <path id="mb3c904dbb2" d="M 0 0 
L -3.5 0 
" style="stroke: #000000; stroke-width: 0.8"/>
      </defs>
      <g>
       <use xlink:href="#mb3c904dbb2" x="56.87" y="193.609498" style="stroke: #000000; stroke-width: 0.8"/>
      </g>
     </g>
     <g id="text_8">
      <text style="font: 10px 'DejaVu Sans', 'Bitstream Vera Sans', 'Computer Modern Sans Serif', 'Lucida Grande', 'Verdana', 'Geneva', 'Lucid', 'Arial', 'Helvetica', 'Avant Garde', sans-serif; text-anchor: end" x="49.87" y="197.408717" transform="rotate(-0 49.87 197.408717)">400</text>
     </g>
    </g>
    <g id="ytick_2">
     <g id="line2d_8">
      <g>
       <use xlink:href="#mb3c904dbb2" x="56.87" y="170.565316" style="stroke: #000000; stroke-width: 0.8"/>
      </g>
     </g>
     <g id="text_9">
      <text style="font: 10px 'DejaVu Sans', 'Bitstream Vera Sans', 'Computer Modern Sans Serif', 'Lucida Grande', 'Verdana', 'Geneva', 'Lucid', 'Arial', 'Helvetica', 'Avant Garde', sans-serif; text-anchor: end" x="49.87" y="174.364535" transform="rotate(-0 49.87 174.364535)">450</text>
     </g>
    </g>
    <g id="ytick_3">
     <g id="line2d_9">
      <g>
       <use xlink:href="#mb3c904dbb2" x="56.87" y="147.521133" style="stroke: #000000; stroke-width: 0.8"/>
      </g>
     </g>
     <g id="text_10">
      <text style="font: 10px 'DejaVu Sans', 'Bitstream Vera Sans', 'Computer Modern Sans Serif', 'Lucida Grande', 'Verdana', 'Geneva', 'Lucid', 'Arial', 'Helvetica', 'Avant Garde', sans-serif; text-anchor: end" x="49.87" y="151.320352" transform="rotate(-0 49.87 151.320352)">500</text>
     </g>
    </g>
    <g id="ytick_4">
     <g id="line2d_10">
      <g>
       <use xlink:href="#mb3c904dbb2" x="56.87" y="124.476951" style="stroke: #000000; stroke-width: 0.8"/>
      </g>
     </g>
     <g id="text_11">
      <text style="font: 10px 'DejaVu Sans', 'Bitstream Vera Sans', 'Computer Modern Sans Serif', 'Lucida Grande', 'Verdana', 'Geneva', 'Lucid', 'Arial', 'Helvetica', 'Avant Garde', sans-serif; text-anchor: end" x="49.87" y="128.27617" transform="rotate(-0 49.87 128.27617)">550</text>
     </g>
    </g>
    <g id="ytick_5">
     <g id="line2d_11">
      <g>
       <use xlink:href="#mb3c904dbb2" x="56.87" y="101.432769" style="stroke: #000000; stroke-width: 0.8"/>
      </g>
     </g>
     <g id="text_12">
      <text style="font: 10px 'DejaVu Sans', 'Bitstream Vera Sans', 'Computer Modern Sans Serif', 'Lucida Grande', 'Verdana', 'Geneva', 'Lucid', 'Arial', 'Helvetica', 'Avant Garde', sans-serif; text-anchor: end" x="49.87" y="105.231988" transform="rotate(-0 49.87 105.231988)">600</text>
     </g>
    </g>
    <g id="ytick_6">
     <g id="line2d_12">
      <g>
       <use xlink:href="#mb3c904dbb2" x="56.87" y="78.388587" style="stroke: #000000; stroke-width: 0.8"/>
      </g>
     </g>
     <g id="text_13">
      <text style="font: 10px 'DejaVu Sans', 'Bitstream Vera Sans', 'Computer Modern Sans Serif', 'Lucida Grande', 'Verdana', 'Geneva', 'Lucid', 'Arial', 'Helvetica', 'Avant Garde', sans-serif; text-anchor: end" x="49.87" y="82.187805" transform="rotate(-0 49.87 82.187805)">650</text>
     </g>
    </g>
    <g id="ytick_7">
     <g id="line2d_13">
      <g>
       <use xlink:href="#mb3c904dbb2" x="56.87" y="55.344404" style="stroke: #000000; stroke-width: 0.8"/>
      </g>
     </g>
     <g id="text_14">
      <text style="font: 10px 'DejaVu Sans', 'Bitstream Vera Sans', 'Computer Modern Sans Serif', 'Lucida Grande', 'Verdana', 'Geneva', 'Lucid', 'Arial', 'Helvetica', 'Avant Garde', sans-serif; text-anchor: end" x="49.87" y="59.143623" transform="rotate(-0 49.87 59.143623)">700</text>
     </g>
    </g>
    <g id="ytick_8">
     <g id="line2d_14">
      <g>
       <use xlink:href="#mb3c904dbb2" x="56.87" y="32.300222" style="stroke: #000000; stroke-width: 0.8"/>
      </g>
     </g>
     <g id="text_15">
      <text style="font: 10px 'DejaVu Sans', 'Bitstream Vera Sans', 'Computer Modern Sans Serif', 'Lucida Grande', 'Verdana', 'Geneva', 'Lucid', 'Arial', 'Helvetica', 'Avant Garde', sans-serif; text-anchor: end" x="49.87" y="36.099441" transform="rotate(-0 49.87 36.099441)">750</text>
     </g>
    </g>
    <g id="text_16">
     <text style="font: 10px 'DejaVu Sans', 'Bitstream Vera Sans', 'Computer Modern Sans Serif', 'Lucida Grande', 'Verdana', 'Geneva', 'Lucid', 'Arial', 'Helvetica', 'Avant Garde', sans-serif; text-anchor: middle" x="18.702813" y="110.42" transform="rotate(-90 18.702813 110.42)">power (uW)</text>
    </g>
   </g>
   <g id="line2d_15">
    <path d="M 78.168182 200.983636 
L 79.878879 90.371561 
L 81.589576 99.128351 
L 83.300274 111.111325 
L 85.010971 151.669086 
L 86.721668 149.825552 
L 88.432366 52.118219 
L 90.143063 95.902165 
L 91.85376 74.701517 
L 93.564458 83.458307 
L 95.275155 66.866495 
L 96.985853 85.762725 
L 98.69655 139.225228 
L 100.407247 145.677599 
L 102.117945 47.048499 
L 103.828642 89.910678 
L 105.539339 54.883521 
L 107.250037 106.502489 
L 108.960734 24.004316 
L 110.671431 109.267791 
L 112.382129 127.242253 
L 114.092826 85.301841 
L 115.803523 62.718543 
L 117.514221 109.267791 
L 119.224918 136.92081 
L 120.935615 141.529646 
L 122.646313 53.039986 
L 124.35701 121.711649 
L 126.067707 72.397099 
L 127.778405 83.91919 
L 129.489102 96.363049 
L 131.199799 49.813801 
L 132.910497 81.153889 
L 134.621194 177.939454 
L 136.331891 126.781369 
L 138.042589 84.840958 
L 139.753286 106.963373 
L 141.463983 78.84947 
L 143.174681 67.788263 
L 144.885378 90.832445 
L 146.596075 75.162401 
L 148.306773 82.075656 
L 150.01747 166.417363 
L 151.728167 95.441282 
L 153.438865 104.658954 
L 155.149562 89.449794 
L 156.860259 80.693005 
L 158.570957 78.388587 
L 160.281654 77.466819 
L 161.992351 141.99053 
L 163.703049 82.997423 
L 165.413746 88.067143 
L 167.124443 51.657335 
L 168.835141 148.903784 
L 170.545838 155.817039 
L 172.256535 104.658954 
L 173.967233 58.57059 
L 175.67793 88.067143 
L 177.388627 52.118219 
L 179.099325 98.667467 
L 180.810022 56.727055 
L 182.520719 109.728675 
L 184.231417 74.240634 
L 185.942114 33.221989 
L 187.652811 168.721781 
L 189.363509 64.562077 
L 191.074206 57.187939 
L 192.784903 111.111325 
L 194.495601 84.380074 
L 196.206298 89.910678 
L 197.916995 171.026199 
L 199.627693 189.922429 
L 201.33839 123.0943 
L 203.049087 127.703137 
L 204.759785 83.91919 
L 206.470482 79.771238 
L 208.181179 83.458307 
L 209.891877 93.136863 
L 211.602574 67.327379 
L 213.313271 92.215096 
L 215.023969 123.0943 
L 216.734666 67.788263 
L 218.445363 57.187939 
L 220.156061 103.737187 
L 221.866758 138.303461 
L 223.577455 70.553565 
L 225.288153 108.346024 
L 226.99885 101.893653 
L 228.709547 67.327379 
L 230.420245 113.876627 
L 232.130942 88.067143 
L 233.841639 71.475332 
L 235.552337 137.842577 
L 237.263034 89.449794 
L 238.973731 145.216715 
L 240.684429 79.310354 
L 242.395126 98.206583 
L 244.105823 94.058631 
L 245.816521 61.796775 
L 247.527218 90.832445 
L 249.237915 136.459926 
L 250.948613 68.249146 
L 252.65931 46.587615 
L 254.370007 81.153889 
L 256.080705 80.693005 
L 257.791402 92.215096 
L 259.502099 71.014448 
L 261.212797 127.242253 
L 262.923494 55.805288 
L 264.634191 76.545052 
L 266.344889 62.257659 
L 268.055586 79.771238 
L 269.766283 50.735568 
L 271.476981 57.187939 
L 273.187678 39.67436 
L 274.898375 120.328998 
L 276.609073 99.589234 
L 278.31977 130.929322 
L 280.030467 72.857983 
L 281.741165 88.067143 
L 283.451862 58.109706 
L 285.162559 102.354536 
L 286.873257 187.157127 
L 288.583954 83.91919 
L 290.294651 65.483845 
L 292.005349 152.590854 
L 293.716046 66.866495 
L 295.426743 92.67598 
L 297.137441 113.876627 
L 298.848138 51.196452 
L 300.558835 88.528027 
L 302.269533 115.720162 
L 303.98023 60.414124 
L 305.690927 118.946347 
L 307.401625 66.866495 
L 309.112322 48.43115 
L 310.823019 78.388587 
L 312.533717 55.344404 
L 314.244414 113.415744 
L 315.955111 75.623285 
L 317.665809 52.579102 
L 319.376506 60.875008 
L 321.087203 100.050118 
L 322.797901 96.363049 
L 324.508598 62.718543 
L 326.219295 123.0943 
L 327.929993 39.213477 
L 329.64069 43.822313 
L 331.351387 79.771238 
L 333.062085 153.051737 
L 334.772782 72.397099 
L 336.483479 100.050118 
L 338.194177 105.119838 
L 339.904874 68.71003 
L 341.615571 77.927703 
L 343.326269 60.875008 
L 345.036966 78.388587 
L 346.747663 94.058631 
L 348.458361 165.956479 
L 350.169058 143.373181 
L 351.879755 94.519514 
L 353.590453 74.240634 
L 355.30115 140.607879 
L 357.011847 98.667467 
L 358.722545 90.371561 
L 360.433242 46.126731 
L 362.143939 55.344404 
L 363.854637 141.99053 
L 365.565334 47.048499 
L 367.276031 74.240634 
L 368.986729 130.468439 
L 370.697426 88.528027 
L 372.408123 72.397099 
L 374.118821 137.381693 
L 375.829518 136.459926 
L 377.540215 147.06025 
L 379.250913 85.762725 
L 380.96161 54.422637 
L 382.672307 149.364668 
L 386.093702 103.737187 
L 387.804399 55.805288 
L 389.515097 38.291709 
L 391.225794 59.953241 
L 392.936491 86.684492 
L 394.647189 55.805288 
L 396.357886 127.703137 
L 398.068583 73.318867 
L 399.779281 157.660574 
L 401.489978 115.720162 
L 403.200675 52.579102 
L 404.911373 46.587615 
L 406.62207 80.693005 
L 408.332767 111.572209 
L 410.043465 94.980398 
L 411.754162 107.88514 
L 413.464859 139.225228 
L 415.175557 80.693005 
L 416.886254 106.041605 
L 418.596951 114.798395 
L 420.307649 135.077275 
L 422.018346 95.441282 
L 423.729043 138.303461 
L 425.439741 88.528027 
L 427.150438 151.208203 
L 428.861135 183.009174 
L 430.571833 84.380074 
L 432.28253 46.587615 
L 433.993227 127.703137 
L 435.703925 35.987291 
L 437.414622 48.43115 
L 439.125319 55.805288 
L 440.836017 149.825552 
L 442.546714 103.276303 
L 444.257411 84.840958 
L 445.968109 87.60626 
L 447.678806 111.111325 
L 449.389503 190.383313 
L 451.100201 153.512621 
L 452.810898 144.294948 
L 454.521595 81.614772 
L 456.232293 126.320486 
L 457.94299 82.536539 
L 459.653687 146.138483 
L 461.364385 84.380074 
L 463.075082 80.232121 
L 464.785779 150.747319 
L 466.496477 91.293329 
L 468.207174 64.562077 
L 469.917871 106.963373 
L 471.628569 142.912297 
L 473.339266 52.118219 
L 476.760661 98.206583 
L 478.471358 65.944728 
L 480.182055 82.536539 
L 481.892753 109.728675 
L 483.60345 19.856364 
L 485.314147 85.762725 
L 487.024845 104.198071 
L 488.735542 135.999042 
L 490.44624 69.631797 
L 492.156937 70.553565 
L 493.867634 84.380074 
L 495.578332 83.91919 
L 497.289029 95.902165 
L 498.999726 85.301841 
L 500.710424 76.084168 
L 502.421121 42.439662 
L 504.131818 71.936216 
L 504.131818 71.936216 
" clip-path="url(#paa41af43e2)" style="fill: none; stroke: #99004d; stroke-width: 0.8; stroke-linecap: square"/>
   </g>
   <g id="patch_3">
    <path d="M 56.87 210.04 
L 56.87 10.8 
" style="fill: none; stroke: #000000; stroke-width: 0.8; stroke-linejoin: miter; stroke-linecap: square"/>
   </g>
   <g id="patch_4">
    <path d="M 525.43 210.04 
L 525.43 10.8 
" style="fill: none; stroke: #000000; stroke-width: 0.8; stroke-linejoin: miter; stroke-linecap: square"/>
   </g>
   <g id="patch_5">
    <path d="M 56.87 210.04 
L 525.43 210.04 
" style="fill: none; stroke: #000000; stroke-width: 0.8; stroke-linejoin: miter; stroke-linecap: square"/>
   </g>
   <g id="patch_6">
    <path d="M 56.87 10.8 
L 525.43 10.8 
" style="fill: none; stroke: #000000; stroke-width: 0.8; stroke-linejoin: miter; stroke-linecap: square"/>
   </g>
  </g>
  <g id="axes_2">
   <g id="matplotlib.axis_3">
    <g id="ytick_9">
     <g id="line2d_16">
      <defs>
       <path id="m1e671ec1c5" d="M 0 0 
L 3.5 0 
" style="stroke: #000000; stroke-width: 0.8"/>
      </defs>
      <g>
       <use xlink:href="#m1e671ec1c5" x="525.43" y="184.517521" style="stroke: #000000; stroke-width: 0.8"/>
      </g>
     </g>
     <g id="text_17">
      <text style="font: 10px 'DejaVu Sans', 'Bitstream Vera Sans', 'Computer Modern Sans Serif', 'Lucida Grande', 'Verdana', 'Geneva', 'Lucid', 'Arial', 'Helvetica', 'Avant Garde', sans-serif; text-anchor: start" x="532.43" y="188.316739" transform="rotate(-0 532.43 188.316739)">5</text>
     </g>
    </g>
    <g id="ytick_10">
     <g id="line2d_17">
      <g>
       <use xlink:href="#m1e671ec1c5" x="525.43" y="157.073994" style="stroke: #000000; stroke-width: 0.8"/>
      </g>
     </g>
     <g id="text_18">
      <text style="font: 10px 'DejaVu Sans', 'Bitstream Vera Sans', 'Computer Modern Sans Serif', 'Lucida Grande', 'Verdana', 'Geneva', 'Lucid', 'Arial', 'Helvetica', 'Avant Garde', sans-serif; text-anchor: start" x="532.43" y="160.873213" transform="rotate(-0 532.43 160.873213)">10</text>
     </g>
    </g>
    <g id="ytick_11">
     <g id="line2d_18">
      <g>
       <use xlink:href="#m1e671ec1c5" x="525.43" y="129.630468" style="stroke: #000000; stroke-width: 0.8"/>
      </g>
     </g>
     <g id="text_19">
      <text style="font: 10px 'DejaVu Sans', 'Bitstream Vera Sans', 'Computer Modern Sans Serif', 'Lucida Grande', 'Verdana', 'Geneva', 'Lucid', 'Arial', 'Helvetica', 'Avant Garde', sans-serif; text-anchor: start" x="532.43" y="133.429687" transform="rotate(-0 532.43 133.429687)">15</text>
     </g>
    </g>
    <g id="ytick_12">
     <g id="line2d_19">
      <g>
       <use xlink:href="#m1e671ec1c5" x="525.43" y="102.186942" style="stroke: #000000; stroke-width: 0.8"/>
      </g>
     </g>
     <g id="text_20">
      <text style="font: 10px 'DejaVu Sans', 'Bitstream Vera Sans', 'Computer Modern Sans Serif', 'Lucida Grande', 'Verdana', 'Geneva', 'Lucid', 'Arial', 'Helvetica', 'Avant Garde', sans-serif; text-anchor: start" x="532.43" y="105.986161" transform="rotate(-0 532.43 105.986161)">20</text>
     </g>
    </g>
    <g id="ytick_13">
     <g id="line2d_20">
      <g>
       <use xlink:href="#m1e671ec1c5" x="525.43" y="74.743416" style="stroke: #000000; stroke-width: 0.8"/>
      </g>
     </g>
     <g id="text_21">
      <text style="font: 10px 'DejaVu Sans', 'Bitstream Vera Sans', 'Computer Modern Sans Serif', 'Lucida Grande', 'Verdana', 'Geneva', 'Lucid', 'Arial', 'Helvetica', 'Avant Garde', sans-serif; text-anchor: start" x="532.43" y="78.542635" transform="rotate(-0 532.43 78.542635)">25</text>
     </g>
    </g>
    <g id="ytick_14">
     <g id="line2d_21">
      <g>
       <use xlink:href="#m1e671ec1c5" x="525.43" y="47.29989" style="stroke: #000000; stroke-width: 0.8"/>
      </g>
     </g>
     <g id="text_22">
      <text style="font: 10px 'DejaVu Sans', 'Bitstream Vera Sans', 'Computer Modern Sans Serif', 'Lucida Grande', 'Verdana', 'Geneva', 'Lucid', 'Arial', 'Helvetica', 'Avant Garde', sans-serif; text-anchor: start" x="532.43" y="51.099109" transform="rotate(-0 532.43 51.099109)">30</text>
     </g>
    </g>
    <g id="ytick_15">
     <g id="line2d_22">
      <g>
       <use xlink:href="#m1e671ec1c5" x="525.43" y="19.856364" style="stroke: #000000; stroke-width: 0.8"/>
      </g>
     </g>
     <g id="text_23">
      <text style="font: 10px 'DejaVu Sans', 'Bitstream Vera Sans', 'Computer Modern Sans Serif', 'Lucida Grande', 'Verdana', 'Geneva', 'Lucid', 'Arial', 'Helvetica', 'Avant Garde', sans-serif; text-anchor: start" x="532.43" y="23.655582" transform="rotate(-0 532.43 23.655582)">35</text>
     </g>
    </g>
    <g id="text_24">
     <text style="font: 10px 'DejaVu Sans', 'Bitstream Vera Sans', 'Computer Modern Sans Serif', 'Lucida Grande', 'Verdana', 'Geneva', 'Lucid', 'Arial', 'Helvetica', 'Avant Garde', sans-serif; text-anchor: middle" x="562.753438" y="110.42" transform="rotate(-90 562.753438 110.42)">hw(data)</text>
    </g>
   </g>
   <g id="line2d_23">
    <path d="M 78.168182 200.983636 
L 79.878879 80.232121 
L 81.589576 107.675647 
L 83.300274 113.164353 
L 85.010971 135.119174 
L 86.721668 168.051405 
L 88.432366 91.209532 
L 90.143063 91.209532 
L 91.85376 47.29989 
L 93.564458 85.720826 
L 95.275155 91.209532 
L 96.985853 63.766006 
L 98.69655 146.096584 
L 100.407247 124.141763 
L 102.117945 41.811185 
L 103.828642 129.630468 
L 105.539339 63.766006 
L 107.250037 107.675647 
L 108.960734 30.833774 
L 110.671431 96.698237 
L 112.382129 102.186942 
L 114.092826 47.29989 
L 115.803523 36.322479 
L 117.514221 135.119174 
L 119.224918 151.585289 
L 120.935615 129.630468 
L 122.646313 80.232121 
L 124.35701 129.630468 
L 126.067707 58.2773 
L 129.489102 124.141763 
L 131.199799 36.322479 
L 132.910497 25.345069 
L 134.621194 179.028815 
L 136.331891 135.119174 
L 138.042589 69.254711 
L 141.463983 102.186942 
L 143.174681 85.720826 
L 144.885378 118.653058 
L 146.596075 113.164353 
L 148.306773 58.2773 
L 150.01747 184.517521 
L 151.728167 118.653058 
L 153.438865 96.698237 
L 155.149562 96.698237 
L 156.860259 91.209532 
L 158.570957 58.2773 
L 160.281654 135.119174 
L 161.992351 151.585289 
L 163.703049 96.698237 
L 165.413746 74.743416 
L 167.124443 74.743416 
L 168.835141 140.607879 
L 172.256535 129.630468 
L 173.967233 25.345069 
L 175.67793 124.141763 
L 177.388627 58.2773 
L 179.099325 118.653058 
L 180.810022 63.766006 
L 182.520719 102.186942 
L 184.231417 102.186942 
L 185.942114 36.322479 
L 187.652811 168.051405 
L 191.074206 58.2773 
L 192.784903 58.2773 
L 194.495601 52.788595 
L 196.206298 113.164353 
L 197.916995 168.051405 
L 199.627693 129.630468 
L 201.33839 107.675647 
L 203.049087 118.653058 
L 204.759785 19.856364 
L 206.470482 69.254711 
L 208.181179 69.254711 
L 209.891877 107.675647 
L 213.313271 63.766006 
L 215.023969 162.5627 
L 216.734666 41.811185 
L 218.445363 107.675647 
L 220.156061 107.675647 
L 221.866758 129.630468 
L 223.577455 80.232121 
L 225.288153 63.766006 
L 226.99885 146.096584 
L 228.709547 69.254711 
L 230.420245 124.141763 
L 232.130942 63.766006 
L 233.841639 80.232121 
L 235.552337 107.675647 
L 237.263034 74.743416 
L 238.973731 118.653058 
L 240.684429 91.209532 
L 242.395126 69.254711 
L 244.105823 58.2773 
L 245.816521 113.164353 
L 247.527218 36.322479 
L 249.237915 173.54011 
L 250.948613 58.2773 
L 252.65931 58.2773 
L 254.370007 85.720826 
L 256.080705 74.743416 
L 257.791402 74.743416 
L 259.502099 52.788595 
L 261.212797 118.653058 
L 262.923494 74.743416 
L 264.634191 113.164353 
L 266.344889 41.811185 
L 268.055586 80.232121 
L 269.766283 41.811185 
L 271.476981 85.720826 
L 273.187678 74.743416 
L 274.898375 118.653058 
L 276.609073 113.164353 
L 278.31977 135.119174 
L 280.030467 113.164353 
L 281.741165 113.164353 
L 283.451862 69.254711 
L 285.162559 47.29989 
L 286.873257 195.494931 
L 288.583954 58.2773 
L 290.294651 52.788595 
L 292.005349 124.141763 
L 293.716046 85.720826 
L 295.426743 91.209532 
L 297.137441 107.675647 
L 298.848138 52.788595 
L 300.558835 146.096584 
L 302.269533 107.675647 
L 303.98023 30.833774 
L 305.690927 151.585289 
L 307.401625 52.788595 
L 309.112322 41.811185 
L 310.823019 96.698237 
L 312.533717 102.186942 
L 314.244414 135.119174 
L 315.955111 58.2773 
L 317.665809 69.254711 
L 319.376506 69.254711 
L 321.087203 107.675647 
L 322.797901 91.209532 
L 324.508598 30.833774 
L 326.219295 129.630468 
L 327.929993 41.811185 
L 329.64069 85.720826 
L 331.351387 80.232121 
L 333.062085 135.119174 
L 334.772782 69.254711 
L 336.483479 107.675647 
L 338.194177 113.164353 
L 339.904874 91.209532 
L 341.615571 80.232121 
L 343.326269 58.2773 
L 345.036966 63.766006 
L 346.747663 91.209532 
L 348.458361 168.051405 
L 350.169058 107.675647 
L 351.879755 30.833774 
L 353.590453 41.811185 
L 355.30115 85.720826 
L 357.011847 118.653058 
L 358.722545 74.743416 
L 360.433242 58.2773 
L 362.143939 19.856364 
L 363.854637 107.675647 
L 365.565334 41.811185 
L 367.276031 36.322479 
L 368.986729 162.5627 
L 370.697426 41.811185 
L 372.408123 102.186942 
L 374.118821 118.653058 
L 379.250913 102.186942 
L 380.96161 25.345069 
L 382.672307 179.028815 
L 384.383005 113.164353 
L 386.093702 91.209532 
L 387.804399 47.29989 
L 389.515097 52.788595 
L 391.225794 36.322479 
L 392.936491 91.209532 
L 394.647189 74.743416 
L 398.068583 118.653058 
L 399.779281 184.517521 
L 401.489978 102.186942 
L 403.200675 58.2773 
L 404.911373 41.811185 
L 406.62207 52.788595 
L 408.332767 118.653058 
L 410.043465 102.186942 
L 411.754162 69.254711 
L 413.464859 157.073994 
L 415.175557 52.788595 
L 416.886254 102.186942 
L 418.596951 118.653058 
L 420.307649 118.653058 
L 422.018346 69.254711 
L 423.729043 107.675647 
L 425.439741 52.788595 
L 427.150438 157.073994 
L 428.861135 151.585289 
L 430.571833 30.833774 
L 432.28253 41.811185 
L 433.993227 135.119174 
L 435.703925 52.788595 
L 437.414622 63.766006 
L 439.125319 47.29989 
L 440.836017 129.630468 
L 442.546714 129.630468 
L 444.257411 107.675647 
L 445.968109 107.675647 
L 447.678806 124.141763 
L 449.389503 184.517521 
L 451.100201 140.607879 
L 452.810898 129.630468 
L 454.521595 107.675647 
L 456.232293 146.096584 
L 457.94299 96.698237 
L 459.653687 129.630468 
L 461.364385 41.811185 
L 463.075082 69.254711 
L 464.785779 173.54011 
L 466.496477 25.345069 
L 468.207174 58.2773 
L 469.917871 118.653058 
L 471.628569 129.630468 
L 473.339266 30.833774 
L 475.049963 96.698237 
L 476.760661 157.073994 
L 478.471358 36.322479 
L 480.182055 69.254711 
L 481.892753 52.788595 
L 483.60345 47.29989 
L 485.314147 80.232121 
L 487.024845 96.698237 
L 488.735542 124.141763 
L 490.44624 47.29989 
L 492.156937 52.788595 
L 493.867634 85.720826 
L 495.578332 91.209532 
L 497.289029 80.232121 
L 498.999726 96.698237 
L 500.710424 135.119174 
L 502.421121 36.322479 
L 504.131818 74.743416 
L 504.131818 74.743416 
" clip-path="url(#paa41af43e2)" style="fill: none; stroke: #235996; stroke-width: 0.8; stroke-linecap: square"/>
   </g>
   <g id="patch_7">
    <path d="M 56.87 210.04 
L 56.87 10.8 
" style="fill: none; stroke: #000000; stroke-width: 0.8; stroke-linejoin: miter; stroke-linecap: square"/>
   </g>
   <g id="patch_8">
    <path d="M 525.43 210.04 
L 525.43 10.8 
" style="fill: none; stroke: #000000; stroke-width: 0.8; stroke-linejoin: miter; stroke-linecap: square"/>
   </g>
   <g id="patch_9">
    <path d="M 56.87 210.04 
L 525.43 210.04 
" style="fill: none; stroke: #000000; stroke-width: 0.8; stroke-linejoin: miter; stroke-linecap: square"/>
   </g>
   <g id="patch_10">
    <path d="M 56.87 10.8 
L 525.43 10.8 
" style="fill: none; stroke: #000000; stroke-width: 0.8; stroke-linejoin: miter; stroke-linecap: square"/>
   </g>
   <g id="legend_1">
    <g id="patch_11">
     <path d="M 150.539625 43.4565 
L 431.760375 43.4565 
Q 434.640375 43.4565 434.640375 40.5765 
L 434.640375 20.88 
Q 434.640375 18 431.760375 18 
L 150.539625 18 
Q 147.659625 18 147.659625 20.88 
L 147.659625 40.5765 
Q 147.659625 43.4565 150.539625 43.4565 
z
" style="fill: #ffffff; opacity: 0.8; stroke: #000000; stroke-linejoin: miter"/>
    </g>
    <g id="line2d_24">
     <path d="M 153.419625 29.66175 
L 167.819625 29.66175 
L 182.219625 29.66175 
" style="fill: none; stroke: #99004d; stroke-width: 0.8; stroke-linecap: square"/>
    </g>
    <g id="text_25">
     <text style="font: 14.4px 'DejaVu Sans', 'Bitstream Vera Sans', 'Computer Modern Sans Serif', 'Lucida Grande', 'Verdana', 'Geneva', 'Lucid', 'Arial', 'Helvetica', 'Avant Garde', sans-serif; text-anchor: start" x="193.739625" y="34.70175" transform="rotate(-0 193.739625 34.70175)">power</text>
    </g>
    <g id="line2d_25">
     <path d="M 267.049125 29.66175 
L 281.449125 29.66175 
L 295.849125 29.66175 
" style="fill: none; stroke: #235996; stroke-width: 0.8; stroke-linecap: square"/>
    </g>
    <g id="text_26">
     <text style="font: 14.4px 'DejaVu Sans', 'Bitstream Vera Sans', 'Computer Modern Sans Serif', 'Lucida Grande', 'Verdana', 'Geneva', 'Lucid', 'Arial', 'Helvetica', 'Avant Garde', sans-serif; text-anchor: start" x="307.369125" y="34.70175" transform="rotate(-0 307.369125 34.70175)">hw(rs1)+hw(rs2)</text>
    </g>
   </g>
  </g>
 </g>
 <defs>
  <clipPath id="paa41af43e2">
   <rect x="56.87" y="10.8" width="468.56" height="199.24"/>
  </clipPath>
 </defs>
</svg>
