<?xml version="1.0" encoding="utf-8" standalone="no"?>
<!DOCTYPE svg PUBLIC "-//W3C//DTD SVG 1.1//EN"
  "http://www.w3.org/Graphics/SVG/1.1/DTD/svg11.dtd">
<svg xmlns:xlink="http://www.w3.org/1999/xlink" width="576pt" height="252pt" viewBox="0 0 576 252" xmlns="http://www.w3.org/2000/svg" version="1.1">
 <metadata>
  <rdf:RDF xmlns:dc="http://purl.org/dc/elements/1.1/" xmlns:cc="http://creativecommons.org/ns#" xmlns:rdf="http://www.w3.org/1999/02/22-rdf-syntax-ns#">
   <cc:Work>
    <dc:type rdf:resource="http://purl.org/dc/dcmitype/StillImage"/>
    <dc:date>2023-11-26T17:37:39.236257</dc:date>
    <dc:format>image/svg+xml</dc:format>
    <dc:creator>
     <cc:Agent>
      <dc:title>Matplotlib v3.8.2, https://matplotlib.org/</dc:title>
     </cc:Agent>
    </dc:creator>
   </cc:Work>
  </rdf:RDF>
 </metadata>
 <defs>
  <style type="text/css">*{stroke-linejoin: round; stroke-linecap: butt}</style>
 </defs>
 <g id="figure_1">
  <g id="patch_1">
   <path d="M 0 252 
L 576 252 
L 576 0 
L 0 0 
z
" style="fill: #ffffff"/>
  </g>
  <g id="axes_1">
   <g id="patch_2">
    <path d="M 56.87 210.04 
L 525.43 210.04 
L 525.43 10.8 
L 56.87 10.8 
z
" style="fill: #ffffff"/>
   </g>
   <g id="matplotlib.axis_1">
    <g id="xtick_1">
     <g id="line2d_1">
      <defs>
       <path id="m319a44f16f" d="M 0 0 
L 0 3.5 
" style="stroke: #000000; stroke-width: 0.8"/>
      </defs>
      <g>
       <use xlink:href="#m319a44f16f" x="78.168182" y="210.04" style="stroke: #000000; stroke-width: 0.8"/>
      </g>
     </g>
     <g id="text_1">
      <text style="font: 10px 'DejaVu Sans', 'Bitstream Vera Sans', 'Computer Modern Sans Serif', 'Lucida Grande', 'Verdana', 'Geneva', 'Lucid', 'Arial', 'Helvetica', 'Avant Garde', sans-serif; text-anchor: middle" x="78.168182" y="224.638438" transform="rotate(-0 78.168182 224.638438)">0</text>
     </g>
    </g>
    <g id="xtick_2">
     <g id="line2d_2">
      <g>
       <use xlink:href="#m319a44f16f" x="163.703049" y="210.04" style="stroke: #000000; stroke-width: 0.8"/>
      </g>
     </g>
     <g id="text_2">
      <text style="font: 10px 'DejaVu Sans', 'Bitstream Vera Sans', 'Computer Modern Sans Serif', 'Lucida Grande', 'Verdana', 'Geneva', 'Lucid', 'Arial', 'Helvetica', 'Avant Garde', sans-serif; text-anchor: middle" x="163.703049" y="224.638438" transform="rotate(-0 163.703049 224.638438)">50</text>
     </g>
    </g>
    <g id="xtick_3">
     <g id="line2d_3">
      <g>
       <use xlink:href="#m319a44f16f" x="249.237915" y="210.04" style="stroke: #000000; stroke-width: 0.8"/>
      </g>
     </g>
     <g id="text_3">
      <text style="font: 10px 'DejaVu Sans', 'Bitstream Vera Sans', 'Computer Modern Sans Serif', 'Lucida Grande', 'Verdana', 'Geneva', 'Lucid', 'Arial', 'Helvetica', 'Avant Garde', sans-serif; text-anchor: middle" x="249.237915" y="224.638438" transform="rotate(-0 249.237915 224.638438)">100</text>
     </g>
    </g>
    <g id="xtick_4">
     <g id="line2d_4">
      <g>
       <use xlink:href="#m319a44f16f" x="334.772782" y="210.04" style="stroke: #000000; stroke-width: 0.8"/>
      </g>
     </g>
     <g id="text_4">
      <text style="font: 10px 'DejaVu Sans', 'Bitstream Vera Sans', 'Computer Modern Sans Serif', 'Lucida Grande', 'Verdana', 'Geneva', 'Lucid', 'Arial', 'Helvetica', 'Avant Garde', sans-serif; text-anchor: middle" x="334.772782" y="224.638438" transform="rotate(-0 334.772782 224.638438)">150</text>
     </g>
    </g>
    <g id="xtick_5">
     <g id="line2d_5">
      <g>
       <use xlink:href="#m319a44f16f" x="420.307649" y="210.04" style="stroke: #000000; stroke-width: 0.8"/>
      </g>
     </g>
     <g id="text_5">
      <text style="font: 10px 'DejaVu Sans', 'Bitstream Vera Sans', 'Computer Modern Sans Serif', 'Lucida Grande', 'Verdana', 'Geneva', 'Lucid', 'Arial', 'Helvetica', 'Avant Garde', sans-serif; text-anchor: middle" x="420.307649" y="224.638438" transform="rotate(-0 420.307649 224.638438)">200</text>
     </g>
    </g>
    <g id="xtick_6">
     <g id="line2d_6">
      <g>
       <use xlink:href="#m319a44f16f" x="505.842516" y="210.04" style="stroke: #000000; stroke-width: 0.8"/>
      </g>
     </g>
     <g id="text_6">
      <text style="font: 10px 'DejaVu Sans', 'Bitstream Vera Sans', 'Computer Modern Sans Serif', 'Lucida Grande', 'Verdana', 'Geneva', 'Lucid', 'Arial', 'Helvetica', 'Avant Garde', sans-serif; text-anchor: middle" x="505.842516" y="224.638438" transform="rotate(-0 505.842516 224.638438)">250</text>
     </g>
    </g>
    <g id="text_7">
     <text style="font: 10px 'DejaVu Sans', 'Bitstream Vera Sans', 'Computer Modern Sans Serif', 'Lucida Grande', 'Verdana', 'Geneva', 'Lucid', 'Arial', 'Helvetica', 'Avant Garde', sans-serif; text-anchor: middle" x="291.15" y="238.316563" transform="rotate(-0 291.15 238.316563)">Cycles</text>
    </g>
   </g>
   <g id="matplotlib.axis_2">
    <g id="ytick_1">
     <g id="line2d_7">
      <defs>
       <path id="m43245b90c0" d="M 0 0 
L -3.5 0 
" style="stroke: #000000; stroke-width: 0.8"/>
      </defs>
      <g>
       <use xlink:href="#m43245b90c0" x="56.87" y="208.515662" style="stroke: #000000; stroke-width: 0.8"/>
      </g>
     </g>
     <g id="text_8">
      <text style="font: 10px 'DejaVu Sans', 'Bitstream Vera Sans', 'Computer Modern Sans Serif', 'Lucida Grande', 'Verdana', 'Geneva', 'Lucid', 'Arial', 'Helvetica', 'Avant Garde', sans-serif; text-anchor: end" x="49.87" y="212.31488" transform="rotate(-0 49.87 212.31488)">300</text>
     </g>
    </g>
    <g id="ytick_2">
     <g id="line2d_8">
      <g>
       <use xlink:href="#m43245b90c0" x="56.87" y="172.648875" style="stroke: #000000; stroke-width: 0.8"/>
      </g>
     </g>
     <g id="text_9">
      <text style="font: 10px 'DejaVu Sans', 'Bitstream Vera Sans', 'Computer Modern Sans Serif', 'Lucida Grande', 'Verdana', 'Geneva', 'Lucid', 'Arial', 'Helvetica', 'Avant Garde', sans-serif; text-anchor: end" x="49.87" y="176.448094" transform="rotate(-0 49.87 176.448094)">400</text>
     </g>
    </g>
    <g id="ytick_3">
     <g id="line2d_9">
      <g>
       <use xlink:href="#m43245b90c0" x="56.87" y="136.782088" style="stroke: #000000; stroke-width: 0.8"/>
      </g>
     </g>
     <g id="text_10">
      <text style="font: 10px 'DejaVu Sans', 'Bitstream Vera Sans', 'Computer Modern Sans Serif', 'Lucida Grande', 'Verdana', 'Geneva', 'Lucid', 'Arial', 'Helvetica', 'Avant Garde', sans-serif; text-anchor: end" x="49.87" y="140.581307" transform="rotate(-0 49.87 140.581307)">500</text>
     </g>
    </g>
    <g id="ytick_4">
     <g id="line2d_10">
      <g>
       <use xlink:href="#m43245b90c0" x="56.87" y="100.915302" style="stroke: #000000; stroke-width: 0.8"/>
      </g>
     </g>
     <g id="text_11">
      <text style="font: 10px 'DejaVu Sans', 'Bitstream Vera Sans', 'Computer Modern Sans Serif', 'Lucida Grande', 'Verdana', 'Geneva', 'Lucid', 'Arial', 'Helvetica', 'Avant Garde', sans-serif; text-anchor: end" x="49.87" y="104.71452" transform="rotate(-0 49.87 104.71452)">600</text>
     </g>
    </g>
    <g id="ytick_5">
     <g id="line2d_11">
      <g>
       <use xlink:href="#m43245b90c0" x="56.87" y="65.048515" style="stroke: #000000; stroke-width: 0.8"/>
      </g>
     </g>
     <g id="text_12">
      <text style="font: 10px 'DejaVu Sans', 'Bitstream Vera Sans', 'Computer Modern Sans Serif', 'Lucida Grande', 'Verdana', 'Geneva', 'Lucid', 'Arial', 'Helvetica', 'Avant Garde', sans-serif; text-anchor: end" x="49.87" y="68.847734" transform="rotate(-0 49.87 68.847734)">700</text>
     </g>
    </g>
    <g id="ytick_6">
     <g id="line2d_12">
      <g>
       <use xlink:href="#m43245b90c0" x="56.87" y="29.181728" style="stroke: #000000; stroke-width: 0.8"/>
      </g>
     </g>
     <g id="text_13">
      <text style="font: 10px 'DejaVu Sans', 'Bitstream Vera Sans', 'Computer Modern Sans Serif', 'Lucida Grande', 'Verdana', 'Geneva', 'Lucid', 'Arial', 'Helvetica', 'Avant Garde', sans-serif; text-anchor: end" x="49.87" y="32.980947" transform="rotate(-0 49.87 32.980947)">800</text>
     </g>
    </g>
    <g id="text_14">
     <text style="font: 10px 'DejaVu Sans', 'Bitstream Vera Sans', 'Computer Modern Sans Serif', 'Lucida Grande', 'Verdana', 'Geneva', 'Lucid', 'Arial', 'Helvetica', 'Avant Garde', sans-serif; text-anchor: middle" x="18.702813" y="110.42" transform="rotate(-90 18.702813 110.42)">power (uW)</text>
    </g>
   </g>
   <g id="line2d_13">
    <path d="M 78.168182 101.991305 
L 79.878879 106.29532 
L 81.589576 95.535284 
L 83.300274 67.917858 
L 85.010971 61.103168 
L 86.721668 98.045959 
L 88.432366 35.63775 
L 90.143063 69.711197 
L 91.85376 77.243222 
L 93.564458 121.000702 
L 95.275155 76.884554 
L 96.985853 115.979352 
L 98.69655 107.371323 
L 100.407247 108.447327 
L 102.117945 85.492583 
L 105.539339 136.42342 
L 107.250037 112.392673 
L 108.960734 131.760738 
L 110.671431 136.42342 
L 112.382129 90.155266 
L 114.092826 85.133915 
L 115.803523 181.974239 
L 117.514221 90.155266 
L 119.224918 60.385833 
L 120.935615 68.276526 
L 122.646313 82.62324 
L 124.35701 80.471233 
L 126.067707 123.511377 
L 127.778405 136.782088 
L 129.489102 95.535284 
L 131.199799 59.309829 
L 132.910497 107.371323 
L 134.621194 113.827345 
L 136.331891 113.468677 
L 138.042589 102.708641 
L 139.753286 58.592493 
L 141.463983 96.969955 
L 143.174681 92.307273 
L 144.885378 70.428533 
L 146.596075 45.68045 
L 148.306773 75.808551 
L 150.01747 200.983636 
L 151.728167 80.112565 
L 153.438865 56.440486 
L 155.149562 136.42342 
L 156.860259 75.449883 
L 158.570957 142.879442 
L 160.281654 114.186013 
L 161.992351 111.31667 
L 163.703049 124.228713 
L 165.413746 126.022052 
L 167.124443 88.361926 
L 168.835141 66.483186 
L 170.545838 68.635194 
L 172.256535 136.064752 
L 173.967233 99.839298 
L 175.67793 171.931539 
L 177.388627 85.851251 
L 179.099325 87.64459 
L 180.810022 83.340576 
L 182.520719 125.304716 
L 184.231417 93.383276 
L 185.942114 104.860648 
L 187.652811 117.414023 
L 189.363509 19.856364 
L 191.074206 125.663384 
L 192.784903 99.839298 
L 194.495601 54.647147 
L 196.206298 153.639478 
L 197.916995 112.392673 
L 199.627693 124.587381 
L 201.33839 133.19541 
L 203.049087 138.575428 
L 204.759785 140.727435 
L 206.470482 80.471233 
L 208.181179 100.556634 
L 209.891877 84.41658 
L 211.602574 107.371323 
L 213.313271 157.584824 
L 215.023969 86.927255 
L 216.734666 98.763294 
L 218.445363 88.361926 
L 220.156061 151.846139 
L 221.866758 97.328623 
L 223.577455 66.124518 
L 225.288153 74.373879 
L 226.99885 132.119406 
L 228.709547 109.52333 
L 232.130942 126.38072 
L 233.841639 75.808551 
L 235.552337 145.031449 
L 237.263034 100.915302 
L 238.973731 85.492583 
L 240.684429 135.347417 
L 242.395126 84.057912 
L 244.105823 73.297876 
L 245.816521 124.228713 
L 247.527218 97.328623 
L 249.237915 134.988749 
L 250.948613 136.42342 
L 252.65931 142.879442 
L 254.370007 91.948605 
L 256.080705 95.893951 
L 257.791402 126.38072 
L 259.502099 99.121962 
L 261.212797 83.340576 
L 262.923494 77.60189 
L 264.634191 68.993861 
L 266.344889 101.991305 
L 268.055586 82.264572 
L 271.476981 93.383276 
L 273.187678 90.872601 
L 274.898375 134.988749 
L 276.609073 124.587381 
L 278.31977 84.775248 
L 280.030467 76.525887 
L 281.741165 57.157822 
L 283.451862 91.589937 
L 285.162559 76.525887 
L 286.873257 93.024608 
L 290.294651 69.352529 
L 292.005349 60.027165 
L 293.716046 100.556634 
L 295.426743 108.805995 
L 297.137441 94.45928 
L 298.848138 128.532727 
L 300.558835 65.765851 
L 302.269533 125.304716 
L 303.98023 84.057912 
L 305.690927 70.428533 
L 307.401625 72.221872 
L 309.112322 145.748785 
L 310.823019 131.40207 
L 312.533717 146.824788 
L 314.244414 71.863204 
L 315.955111 74.373879 
L 317.665809 115.620684 
L 319.376506 67.55919 
L 321.087203 77.60189 
L 322.797901 89.079262 
L 324.508598 124.946049 
L 326.219295 83.340576 
L 327.929993 67.200522 
L 329.64069 98.045959 
L 331.351387 124.946049 
L 333.062085 96.611287 
L 334.772782 81.188569 
L 336.483479 89.079262 
L 338.194177 61.461836 
L 339.904874 75.449883 
L 341.615571 111.31667 
L 343.326269 99.121962 
L 345.036966 124.587381 
L 346.747663 129.250063 
L 348.458361 96.969955 
L 350.169058 113.110009 
L 351.879755 175.876886 
L 353.590453 164.399514 
L 355.30115 70.428533 
L 357.011847 51.419136 
L 358.722545 68.276526 
L 360.433242 93.024608 
L 362.143939 93.383276 
L 363.854637 110.958002 
L 365.565334 108.447327 
L 367.276031 47.473789 
L 368.986729 158.30216 
L 370.697426 100.197966 
L 372.408123 117.055356 
L 374.118821 103.067309 
L 375.829518 95.893951 
L 377.540215 113.110009 
L 379.250913 77.243222 
L 380.96161 76.167219 
L 382.672307 43.528443 
L 384.383005 145.390117 
L 386.093702 134.988749 
L 387.804399 39.224428 
L 389.515097 97.328623 
L 391.225794 68.993861 
L 392.936491 93.383276 
L 394.647189 88.361926 
L 396.357886 81.905905 
L 398.068583 114.54468 
L 399.779281 88.720594 
L 401.489978 71.145869 
L 403.200675 136.782088 
L 404.911373 63.255176 
L 406.62207 71.863204 
L 408.332767 132.836742 
L 410.043465 76.167219 
L 411.754162 96.611287 
L 413.464859 77.60189 
L 415.175557 138.934095 
L 416.886254 84.057912 
L 418.596951 155.074149 
L 420.307649 75.449883 
L 422.018346 89.796598 
L 423.729043 76.167219 
L 425.439741 89.796598 
L 427.150438 84.775248 
L 428.861135 89.796598 
L 430.571833 115.979352 
L 432.28253 98.045959 
L 433.993227 93.024608 
L 435.703925 131.760738 
L 437.414622 120.642034 
L 439.125319 130.684734 
L 440.836017 152.204806 
L 442.546714 57.51649 
L 444.257411 73.297876 
L 445.968109 129.967399 
L 447.678806 56.440486 
L 449.389503 117.772691 
L 451.100201 108.088659 
L 452.810898 65.048515 
L 454.521595 147.542124 
L 456.232293 83.340576 
L 457.94299 117.772691 
L 459.653687 81.905905 
L 461.364385 76.884554 
L 463.075082 90.872601 
L 464.785779 153.28081 
L 466.496477 91.948605 
L 468.207174 99.48063 
L 469.917871 77.960558 
L 471.628569 79.036562 
L 473.339266 65.407183 
L 475.049963 115.620684 
L 476.760661 85.492583 
L 478.471358 103.067309 
L 480.182055 78.677894 
L 481.892753 150.052799 
L 483.60345 80.829901 
L 485.314147 133.19541 
L 487.024845 57.51649 
L 488.735542 66.841854 
L 490.44624 104.50198 
L 492.156937 86.209919 
L 493.867634 129.250063 
L 495.578332 63.613843 
L 497.289029 114.54468 
L 498.999726 87.64459 
L 500.710424 90.155266 
L 502.421121 115.979352 
L 504.131818 108.088659 
L 504.131818 108.088659 
" clip-path="url(#p3c06834f9f)" style="fill: none; stroke: #99004d; stroke-width: 0.8; stroke-linecap: square"/>
   </g>
   <g id="patch_3">
    <path d="M 56.87 210.04 
L 56.87 10.8 
" style="fill: none; stroke: #000000; stroke-width: 0.8; stroke-linejoin: miter; stroke-linecap: square"/>
   </g>
   <g id="patch_4">
    <path d="M 525.43 210.04 
L 525.43 10.8 
" style="fill: none; stroke: #000000; stroke-width: 0.8; stroke-linejoin: miter; stroke-linecap: square"/>
   </g>
   <g id="patch_5">
    <path d="M 56.87 210.04 
L 525.43 210.04 
" style="fill: none; stroke: #000000; stroke-width: 0.8; stroke-linejoin: miter; stroke-linecap: square"/>
   </g>
   <g id="patch_6">
    <path d="M 56.87 10.8 
L 525.43 10.8 
" style="fill: none; stroke: #000000; stroke-width: 0.8; stroke-linejoin: miter; stroke-linecap: square"/>
   </g>
  </g>
  <g id="axes_2">
   <g id="matplotlib.axis_3">
    <g id="ytick_7">
     <g id="line2d_14">
      <defs>
       <path id="mfb56544dad" d="M 0 0 
L 3.5 0 
" style="stroke: #000000; stroke-width: 0.8"/>
      </defs>
      <g>
       <use xlink:href="#mfb56544dad" x="525.43" y="185.458442" style="stroke: #000000; stroke-width: 0.8"/>
      </g>
     </g>
     <g id="text_15">
      <text style="font: 10px 'DejaVu Sans', 'Bitstream Vera Sans', 'Computer Modern Sans Serif', 'Lucida Grande', 'Verdana', 'Geneva', 'Lucid', 'Arial', 'Helvetica', 'Avant Garde', sans-serif; text-anchor: start" x="532.43" y="189.25766" transform="rotate(-0 532.43 189.25766)">5</text>
     </g>
    </g>
    <g id="ytick_8">
     <g id="line2d_15">
      <g>
       <use xlink:href="#mfb56544dad" x="525.43" y="159.583117" style="stroke: #000000; stroke-width: 0.8"/>
      </g>
     </g>
     <g id="text_16">
      <text style="font: 10px 'DejaVu Sans', 'Bitstream Vera Sans', 'Computer Modern Sans Serif', 'Lucida Grande', 'Verdana', 'Geneva', 'Lucid', 'Arial', 'Helvetica', 'Avant Garde', sans-serif; text-anchor: start" x="532.43" y="163.382336" transform="rotate(-0 532.43 163.382336)">10</text>
     </g>
    </g>
    <g id="ytick_9">
     <g id="line2d_16">
      <g>
       <use xlink:href="#mfb56544dad" x="525.43" y="133.707792" style="stroke: #000000; stroke-width: 0.8"/>
      </g>
     </g>
     <g id="text_17">
      <text style="font: 10px 'DejaVu Sans', 'Bitstream Vera Sans', 'Computer Modern Sans Serif', 'Lucida Grande', 'Verdana', 'Geneva', 'Lucid', 'Arial', 'Helvetica', 'Avant Garde', sans-serif; text-anchor: start" x="532.43" y="137.507011" transform="rotate(-0 532.43 137.507011)">15</text>
     </g>
    </g>
    <g id="ytick_10">
     <g id="line2d_17">
      <g>
       <use xlink:href="#mfb56544dad" x="525.43" y="107.832468" style="stroke: #000000; stroke-width: 0.8"/>
      </g>
     </g>
     <g id="text_18">
      <text style="font: 10px 'DejaVu Sans', 'Bitstream Vera Sans', 'Computer Modern Sans Serif', 'Lucida Grande', 'Verdana', 'Geneva', 'Lucid', 'Arial', 'Helvetica', 'Avant Garde', sans-serif; text-anchor: start" x="532.43" y="111.631686" transform="rotate(-0 532.43 111.631686)">20</text>
     </g>
    </g>
    <g id="ytick_11">
     <g id="line2d_18">
      <g>
       <use xlink:href="#mfb56544dad" x="525.43" y="81.957143" style="stroke: #000000; stroke-width: 0.8"/>
      </g>
     </g>
     <g id="text_19">
      <text style="font: 10px 'DejaVu Sans', 'Bitstream Vera Sans', 'Computer Modern Sans Serif', 'Lucida Grande', 'Verdana', 'Geneva', 'Lucid', 'Arial', 'Helvetica', 'Avant Garde', sans-serif; text-anchor: start" x="532.43" y="85.756362" transform="rotate(-0 532.43 85.756362)">25</text>
     </g>
    </g>
    <g id="ytick_12">
     <g id="line2d_19">
      <g>
       <use xlink:href="#mfb56544dad" x="525.43" y="56.081818" style="stroke: #000000; stroke-width: 0.8"/>
      </g>
     </g>
     <g id="text_20">
      <text style="font: 10px 'DejaVu Sans', 'Bitstream Vera Sans', 'Computer Modern Sans Serif', 'Lucida Grande', 'Verdana', 'Geneva', 'Lucid', 'Arial', 'Helvetica', 'Avant Garde', sans-serif; text-anchor: start" x="532.43" y="59.881037" transform="rotate(-0 532.43 59.881037)">30</text>
     </g>
    </g>
    <g id="ytick_13">
     <g id="line2d_20">
      <g>
       <use xlink:href="#mfb56544dad" x="525.43" y="30.206494" style="stroke: #000000; stroke-width: 0.8"/>
      </g>
     </g>
     <g id="text_21">
      <text style="font: 10px 'DejaVu Sans', 'Bitstream Vera Sans', 'Computer Modern Sans Serif', 'Lucida Grande', 'Verdana', 'Geneva', 'Lucid', 'Arial', 'Helvetica', 'Avant Garde', sans-serif; text-anchor: start" x="532.43" y="34.005712" transform="rotate(-0 532.43 34.005712)">35</text>
     </g>
    </g>
    <g id="text_22">
     <text style="font: 10px 'DejaVu Sans', 'Bitstream Vera Sans', 'Computer Modern Sans Serif', 'Lucida Grande', 'Verdana', 'Geneva', 'Lucid', 'Arial', 'Helvetica', 'Avant Garde', sans-serif; text-anchor: middle" x="562.753438" y="110.42" transform="rotate(-90 562.753438 110.42)">hw(data)</text>
    </g>
   </g>
   <g id="line2d_21">
    <path d="M 78.168182 123.357662 
L 81.589576 81.957143 
L 83.300274 71.607013 
L 85.010971 87.132208 
L 86.721668 97.482338 
L 88.432366 30.206494 
L 90.143063 66.431948 
L 91.85376 71.607013 
L 93.564458 138.882857 
L 95.275155 92.307273 
L 96.985853 107.832468 
L 98.69655 92.307273 
L 100.407247 102.657403 
L 102.117945 123.357662 
L 103.828642 169.933247 
L 105.539339 123.357662 
L 107.250037 113.007532 
L 108.960734 138.882857 
L 110.671431 144.057922 
L 112.382129 113.007532 
L 114.092826 113.007532 
L 115.803523 195.808571 
L 117.514221 133.707792 
L 119.224918 66.431948 
L 120.935615 66.431948 
L 124.35701 76.782078 
L 126.067707 138.882857 
L 127.778405 128.532727 
L 129.489102 81.957143 
L 131.199799 40.556623 
L 132.910497 81.957143 
L 134.621194 92.307273 
L 136.331891 144.057922 
L 138.042589 102.657403 
L 139.753286 81.957143 
L 141.463983 97.482338 
L 143.174681 144.057922 
L 144.885378 92.307273 
L 146.596075 45.731688 
L 148.306773 61.256883 
L 150.01747 200.983636 
L 151.728167 113.007532 
L 153.438865 50.906753 
L 155.149562 133.707792 
L 156.860259 56.081818 
L 158.570957 149.232987 
L 160.281654 107.832468 
L 161.992351 144.057922 
L 163.703049 128.532727 
L 165.413746 169.933247 
L 167.124443 66.431948 
L 168.835141 66.431948 
L 170.545838 71.607013 
L 172.256535 138.882857 
L 173.967233 61.256883 
L 175.67793 175.108312 
L 177.388627 71.607013 
L 179.099325 113.007532 
L 180.810022 61.256883 
L 182.520719 164.758182 
L 184.231417 50.906753 
L 185.942114 81.957143 
L 187.652811 133.707792 
L 189.363509 19.856364 
L 191.074206 149.232987 
L 192.784903 76.782078 
L 194.495601 40.556623 
L 196.206298 149.232987 
L 197.916995 113.007532 
L 199.627693 128.532727 
L 201.33839 133.707792 
L 203.049087 128.532727 
L 204.759785 180.283377 
L 206.470482 102.657403 
L 208.181179 107.832468 
L 209.891877 66.431948 
L 211.602574 81.957143 
L 213.313271 149.232987 
L 215.023969 61.256883 
L 216.734666 118.182597 
L 218.445363 56.081818 
L 220.156061 190.633506 
L 221.866758 66.431948 
L 223.577455 92.307273 
L 225.288153 66.431948 
L 226.99885 154.408052 
L 228.709547 102.657403 
L 230.420245 144.057922 
L 232.130942 149.232987 
L 233.841639 61.256883 
L 235.552337 133.707792 
L 237.263034 138.882857 
L 238.973731 76.782078 
L 240.684429 133.707792 
L 242.395126 113.007532 
L 244.105823 97.482338 
L 245.816521 154.408052 
L 247.527218 87.132208 
L 249.237915 144.057922 
L 250.948613 175.108312 
L 252.65931 144.057922 
L 254.370007 71.607013 
L 256.080705 76.782078 
L 257.791402 118.182597 
L 259.502099 76.782078 
L 261.212797 107.832468 
L 262.923494 102.657403 
L 264.634191 50.906753 
L 266.344889 118.182597 
L 268.055586 35.381558 
L 269.766283 102.657403 
L 271.476981 87.132208 
L 273.187678 113.007532 
L 274.898375 154.408052 
L 278.31977 92.307273 
L 280.030467 66.431948 
L 281.741165 45.731688 
L 283.451862 71.607013 
L 285.162559 81.957143 
L 286.873257 149.232987 
L 288.583954 81.957143 
L 290.294651 87.132208 
L 292.005349 97.482338 
L 293.716046 81.957143 
L 295.426743 144.057922 
L 297.137441 66.431948 
L 298.848138 154.408052 
L 300.558835 45.731688 
L 302.269533 133.707792 
L 303.98023 107.832468 
L 305.690927 102.657403 
L 307.401625 92.307273 
L 309.112322 175.108312 
L 310.823019 97.482338 
L 312.533717 185.458442 
L 314.244414 71.607013 
L 315.955111 97.482338 
L 317.665809 118.182597 
L 319.376506 102.657403 
L 321.087203 50.906753 
L 322.797901 50.906753 
L 324.508598 164.758182 
L 326.219295 81.957143 
L 327.929993 56.081818 
L 329.64069 128.532727 
L 333.062085 97.482338 
L 334.772782 123.357662 
L 336.483479 123.357662 
L 338.194177 81.957143 
L 339.904874 61.256883 
L 341.615571 138.882857 
L 345.036966 107.832468 
L 346.747663 118.182597 
L 348.458361 102.657403 
L 350.169058 97.482338 
L 351.879755 195.808571 
L 353.590453 154.408052 
L 355.30115 56.081818 
L 357.011847 40.556623 
L 358.722545 61.256883 
L 360.433242 92.307273 
L 362.143939 118.182597 
L 363.854637 76.782078 
L 365.565334 66.431948 
L 367.276031 61.256883 
L 368.986729 169.933247 
L 370.697426 66.431948 
L 372.408123 149.232987 
L 374.118821 159.583117 
L 375.829518 61.256883 
L 377.540215 76.782078 
L 379.250913 76.782078 
L 382.672307 45.731688 
L 384.383005 169.933247 
L 386.093702 180.283377 
L 387.804399 45.731688 
L 389.515097 128.532727 
L 391.225794 66.431948 
L 392.936491 102.657403 
L 394.647189 97.482338 
L 396.357886 118.182597 
L 398.068583 133.707792 
L 399.779281 66.431948 
L 401.489978 87.132208 
L 403.200675 169.933247 
L 404.911373 56.081818 
L 406.62207 61.256883 
L 408.332767 133.707792 
L 410.043465 92.307273 
L 411.754162 92.307273 
L 413.464859 81.957143 
L 415.175557 144.057922 
L 416.886254 87.132208 
L 418.596951 149.232987 
L 422.018346 56.081818 
L 423.729043 102.657403 
L 425.439741 113.007532 
L 427.150438 50.906753 
L 428.861135 71.607013 
L 430.571833 56.081818 
L 432.28253 102.657403 
L 433.993227 102.657403 
L 435.703925 123.357662 
L 437.414622 113.007532 
L 439.125319 107.832468 
L 440.836017 185.458442 
L 442.546714 50.906753 
L 444.257411 76.782078 
L 445.968109 149.232987 
L 447.678806 45.731688 
L 449.389503 123.357662 
L 451.100201 87.132208 
L 452.810898 66.431948 
L 454.521595 144.057922 
L 456.232293 97.482338 
L 457.94299 128.532727 
L 459.653687 87.132208 
L 461.364385 87.132208 
L 463.075082 138.882857 
L 464.785779 175.108312 
L 466.496477 71.607013 
L 468.207174 118.182597 
L 469.917871 113.007532 
L 471.628569 50.906753 
L 473.339266 71.607013 
L 475.049963 61.256883 
L 476.760661 71.607013 
L 478.471358 92.307273 
L 480.182055 66.431948 
L 481.892753 118.182597 
L 483.60345 87.132208 
L 485.314147 123.357662 
L 487.024845 50.906753 
L 488.735542 66.431948 
L 490.44624 71.607013 
L 492.156937 113.007532 
L 493.867634 138.882857 
L 495.578332 76.782078 
L 497.289029 123.357662 
L 498.999726 92.307273 
L 500.710424 76.782078 
L 502.421121 102.657403 
L 504.131818 113.007532 
L 504.131818 113.007532 
" clip-path="url(#p3c06834f9f)" style="fill: none; stroke: #235996; stroke-width: 0.8; stroke-linecap: square"/>
   </g>
   <g id="patch_7">
    <path d="M 56.87 210.04 
L 56.87 10.8 
" style="fill: none; stroke: #000000; stroke-width: 0.8; stroke-linejoin: miter; stroke-linecap: square"/>
   </g>
   <g id="patch_8">
    <path d="M 525.43 210.04 
L 525.43 10.8 
" style="fill: none; stroke: #000000; stroke-width: 0.8; stroke-linejoin: miter; stroke-linecap: square"/>
   </g>
   <g id="patch_9">
    <path d="M 56.87 210.04 
L 525.43 210.04 
" style="fill: none; stroke: #000000; stroke-width: 0.8; stroke-linejoin: miter; stroke-linecap: square"/>
   </g>
   <g id="patch_10">
    <path d="M 56.87 10.8 
L 525.43 10.8 
" style="fill: none; stroke: #000000; stroke-width: 0.8; stroke-linejoin: miter; stroke-linecap: square"/>
   </g>
   <g id="legend_1">
    <g id="patch_11">
     <path d="M 150.539625 43.4565 
L 431.760375 43.4565 
Q 434.640375 43.4565 434.640375 40.5765 
L 434.640375 20.88 
Q 434.640375 18 431.760375 18 
L 150.539625 18 
Q 147.659625 18 147.659625 20.88 
L 147.659625 40.5765 
Q 147.659625 43.4565 150.539625 43.4565 
z
" style="fill: #ffffff; opacity: 0.8; stroke: #000000; stroke-linejoin: miter"/>
    </g>
    <g id="line2d_22">
     <path d="M 153.419625 29.66175 
L 167.819625 29.66175 
L 182.219625 29.66175 
" style="fill: none; stroke: #99004d; stroke-width: 0.8; stroke-linecap: square"/>
    </g>
    <g id="text_23">
     <text style="font: 14.4px 'DejaVu Sans', 'Bitstream Vera Sans', 'Computer Modern Sans Serif', 'Lucida Grande', 'Verdana', 'Geneva', 'Lucid', 'Arial', 'Helvetica', 'Avant Garde', sans-serif; text-anchor: start" x="193.739625" y="34.70175" transform="rotate(-0 193.739625 34.70175)">power</text>
    </g>
    <g id="line2d_23">
     <path d="M 267.049125 29.66175 
L 281.449125 29.66175 
L 295.849125 29.66175 
" style="fill: none; stroke: #235996; stroke-width: 0.8; stroke-linecap: square"/>
    </g>
    <g id="text_24">
     <text style="font: 14.4px 'DejaVu Sans', 'Bitstream Vera Sans', 'Computer Modern Sans Serif', 'Lucida Grande', 'Verdana', 'Geneva', 'Lucid', 'Arial', 'Helvetica', 'Avant Garde', sans-serif; text-anchor: start" x="307.369125" y="34.70175" transform="rotate(-0 307.369125 34.70175)">hw(rs1)+hw(rs2)</text>
    </g>
   </g>
  </g>
 </g>
 <defs>
  <clipPath id="p3c06834f9f">
   <rect x="56.87" y="10.8" width="468.56" height="199.24"/>
  </clipPath>
 </defs>
</svg>
