<?xml version="1.0" encoding="utf-8" standalone="no"?>
<!DOCTYPE svg PUBLIC "-//W3C//DTD SVG 1.1//EN"
  "http://www.w3.org/Graphics/SVG/1.1/DTD/svg11.dtd">
<svg xmlns:xlink="http://www.w3.org/1999/xlink" width="576pt" height="252pt" viewBox="0 0 576 252" xmlns="http://www.w3.org/2000/svg" version="1.1">
 <metadata>
  <rdf:RDF xmlns:dc="http://purl.org/dc/elements/1.1/" xmlns:cc="http://creativecommons.org/ns#" xmlns:rdf="http://www.w3.org/1999/02/22-rdf-syntax-ns#">
   <cc:Work>
    <dc:type rdf:resource="http://purl.org/dc/dcmitype/StillImage"/>
    <dc:date>2023-12-06T19:15:41.531424</dc:date>
    <dc:format>image/svg+xml</dc:format>
    <dc:creator>
     <cc:Agent>
      <dc:title>Matplotlib v3.7.4, https://matplotlib.org/</dc:title>
     </cc:Agent>
    </dc:creator>
   </cc:Work>
  </rdf:RDF>
 </metadata>
 <defs>
  <style type="text/css">*{stroke-linejoin: round; stroke-linecap: butt}</style>
 </defs>
 <g id="figure_1">
  <g id="patch_1">
   <path d="M 0 252 
L 576 252 
L 576 0 
L 0 0 
z
" style="fill: #ffffff"/>
  </g>
  <g id="axes_1">
   <g id="patch_2">
    <path d="M 56.87 210.04 
L 525.43 210.04 
L 525.43 10.8 
L 56.87 10.8 
z
" style="fill: #ffffff"/>
   </g>
   <g id="matplotlib.axis_1">
    <g id="xtick_1">
     <g id="line2d_1">
      <defs>
       <path id="me3f704483d" d="M 0 0 
L 0 3.5 
" style="stroke: #000000; stroke-width: 0.8"/>
      </defs>
      <g>
       <use xlink:href="#me3f704483d" x="78.168182" y="210.04" style="stroke: #000000; stroke-width: 0.8"/>
      </g>
     </g>
     <g id="text_1">
      <text style="font: 10px 'DejaVu Sans', 'Bitstream Vera Sans', 'Computer Modern Sans Serif', 'Lucida Grande', 'Verdana', 'Geneva', 'Lucid', 'Arial', 'Helvetica', 'Avant Garde', sans-serif; text-anchor: middle" x="78.168182" y="224.638438" transform="rotate(-0 78.168182 224.638438)">0</text>
     </g>
    </g>
    <g id="xtick_2">
     <g id="line2d_2">
      <g>
       <use xlink:href="#me3f704483d" x="163.703049" y="210.04" style="stroke: #000000; stroke-width: 0.8"/>
      </g>
     </g>
     <g id="text_2">
      <text style="font: 10px 'DejaVu Sans', 'Bitstream Vera Sans', 'Computer Modern Sans Serif', 'Lucida Grande', 'Verdana', 'Geneva', 'Lucid', 'Arial', 'Helvetica', 'Avant Garde', sans-serif; text-anchor: middle" x="163.703049" y="224.638438" transform="rotate(-0 163.703049 224.638438)">50</text>
     </g>
    </g>
    <g id="xtick_3">
     <g id="line2d_3">
      <g>
       <use xlink:href="#me3f704483d" x="249.237915" y="210.04" style="stroke: #000000; stroke-width: 0.8"/>
      </g>
     </g>
     <g id="text_3">
      <text style="font: 10px 'DejaVu Sans', 'Bitstream Vera Sans', 'Computer Modern Sans Serif', 'Lucida Grande', 'Verdana', 'Geneva', 'Lucid', 'Arial', 'Helvetica', 'Avant Garde', sans-serif; text-anchor: middle" x="249.237915" y="224.638438" transform="rotate(-0 249.237915 224.638438)">100</text>
     </g>
    </g>
    <g id="xtick_4">
     <g id="line2d_4">
      <g>
       <use xlink:href="#me3f704483d" x="334.772782" y="210.04" style="stroke: #000000; stroke-width: 0.8"/>
      </g>
     </g>
     <g id="text_4">
      <text style="font: 10px 'DejaVu Sans', 'Bitstream Vera Sans', 'Computer Modern Sans Serif', 'Lucida Grande', 'Verdana', 'Geneva', 'Lucid', 'Arial', 'Helvetica', 'Avant Garde', sans-serif; text-anchor: middle" x="334.772782" y="224.638438" transform="rotate(-0 334.772782 224.638438)">150</text>
     </g>
    </g>
    <g id="xtick_5">
     <g id="line2d_5">
      <g>
       <use xlink:href="#me3f704483d" x="420.307649" y="210.04" style="stroke: #000000; stroke-width: 0.8"/>
      </g>
     </g>
     <g id="text_5">
      <text style="font: 10px 'DejaVu Sans', 'Bitstream Vera Sans', 'Computer Modern Sans Serif', 'Lucida Grande', 'Verdana', 'Geneva', 'Lucid', 'Arial', 'Helvetica', 'Avant Garde', sans-serif; text-anchor: middle" x="420.307649" y="224.638438" transform="rotate(-0 420.307649 224.638438)">200</text>
     </g>
    </g>
    <g id="xtick_6">
     <g id="line2d_6">
      <g>
       <use xlink:href="#me3f704483d" x="505.842516" y="210.04" style="stroke: #000000; stroke-width: 0.8"/>
      </g>
     </g>
     <g id="text_6">
      <text style="font: 10px 'DejaVu Sans', 'Bitstream Vera Sans', 'Computer Modern Sans Serif', 'Lucida Grande', 'Verdana', 'Geneva', 'Lucid', 'Arial', 'Helvetica', 'Avant Garde', sans-serif; text-anchor: middle" x="505.842516" y="224.638438" transform="rotate(-0 505.842516 224.638438)">250</text>
     </g>
    </g>
    <g id="text_7">
     <text style="font: 10px 'DejaVu Sans', 'Bitstream Vera Sans', 'Computer Modern Sans Serif', 'Lucida Grande', 'Verdana', 'Geneva', 'Lucid', 'Arial', 'Helvetica', 'Avant Garde', sans-serif; text-anchor: middle" x="291.15" y="238.316563" transform="rotate(-0 291.15 238.316563)">Cycles</text>
    </g>
   </g>
   <g id="matplotlib.axis_2">
    <g id="ytick_1">
     <g id="line2d_7">
      <defs>
       <path id="m21a118c086" d="M 0 0 
L -3.5 0 
" style="stroke: #000000; stroke-width: 0.8"/>
      </defs>
      <g>
       <use xlink:href="#m21a118c086" x="56.87" y="172.826961" style="stroke: #000000; stroke-width: 0.8"/>
      </g>
     </g>
     <g id="text_8">
      <text style="font: 10px 'DejaVu Sans', 'Bitstream Vera Sans', 'Computer Modern Sans Serif', 'Lucida Grande', 'Verdana', 'Geneva', 'Lucid', 'Arial', 'Helvetica', 'Avant Garde', sans-serif; text-anchor: end" x="49.87" y="176.626179" transform="rotate(-0 49.87 176.626179)">400</text>
     </g>
    </g>
    <g id="ytick_2">
     <g id="line2d_8">
      <g>
       <use xlink:href="#m21a118c086" x="56.87" y="130.802071" style="stroke: #000000; stroke-width: 0.8"/>
      </g>
     </g>
     <g id="text_9">
      <text style="font: 10px 'DejaVu Sans', 'Bitstream Vera Sans', 'Computer Modern Sans Serif', 'Lucida Grande', 'Verdana', 'Geneva', 'Lucid', 'Arial', 'Helvetica', 'Avant Garde', sans-serif; text-anchor: end" x="49.87" y="134.60129" transform="rotate(-0 49.87 134.60129)">500</text>
     </g>
    </g>
    <g id="ytick_3">
     <g id="line2d_9">
      <g>
       <use xlink:href="#m21a118c086" x="56.87" y="88.777182" style="stroke: #000000; stroke-width: 0.8"/>
      </g>
     </g>
     <g id="text_10">
      <text style="font: 10px 'DejaVu Sans', 'Bitstream Vera Sans', 'Computer Modern Sans Serif', 'Lucida Grande', 'Verdana', 'Geneva', 'Lucid', 'Arial', 'Helvetica', 'Avant Garde', sans-serif; text-anchor: end" x="49.87" y="92.576401" transform="rotate(-0 49.87 92.576401)">600</text>
     </g>
    </g>
    <g id="ytick_4">
     <g id="line2d_10">
      <g>
       <use xlink:href="#m21a118c086" x="56.87" y="46.752293" style="stroke: #000000; stroke-width: 0.8"/>
      </g>
     </g>
     <g id="text_11">
      <text style="font: 10px 'DejaVu Sans', 'Bitstream Vera Sans', 'Computer Modern Sans Serif', 'Lucida Grande', 'Verdana', 'Geneva', 'Lucid', 'Arial', 'Helvetica', 'Avant Garde', sans-serif; text-anchor: end" x="49.87" y="50.551512" transform="rotate(-0 49.87 50.551512)">700</text>
     </g>
    </g>
    <g id="text_12">
     <text style="font: 10px 'DejaVu Sans', 'Bitstream Vera Sans', 'Computer Modern Sans Serif', 'Lucida Grande', 'Verdana', 'Geneva', 'Lucid', 'Arial', 'Helvetica', 'Avant Garde', sans-serif; text-anchor: middle" x="18.702813" y="110.42" transform="rotate(-90 18.702813 110.42)">power (uW)</text>
    </g>
   </g>
   <g id="line2d_11">
    <path d="M 78.168182 97.18216 
L 79.878879 121.136347 
L 81.589576 47.172542 
L 83.300274 53.476275 
L 85.010971 79.951955 
L 86.721668 53.896524 
L 88.432366 55.157271 
L 90.143063 84.574693 
L 91.85376 74.068471 
L 93.564458 175.768703 
L 95.275155 54.737022 
L 96.985853 126.599582 
L 98.69655 72.807724 
L 100.407247 78.691209 
L 102.117945 74.068471 
L 103.828642 52.635777 
L 105.539339 89.61768 
L 107.250037 113.151618 
L 108.960734 46.332044 
L 110.671431 84.574693 
L 112.382129 49.273786 
L 114.092826 118.614853 
L 115.803523 69.865982 
L 117.514221 84.994942 
L 119.224918 77.850711 
L 120.935615 54.737022 
L 122.646313 97.602409 
L 124.35701 119.035102 
L 126.067707 53.896524 
L 127.778405 53.476275 
L 129.489102 122.817342 
L 131.199799 123.65784 
L 132.910497 124.078089 
L 134.621194 75.329217 
L 136.331891 103.065644 
L 138.042589 116.933858 
L 139.753286 53.896524 
L 141.463983 130.802071 
L 143.174681 124.498338 
L 144.885378 69.865982 
L 146.596075 43.390302 
L 148.306773 72.387475 
L 150.01747 81.632951 
L 151.728167 142.989289 
L 153.438865 88.356933 
L 155.149562 65.243244 
L 156.860259 75.329217 
L 158.570957 63.562248 
L 160.281654 132.903316 
L 161.992351 80.372204 
L 163.703049 76.169715 
L 165.413746 72.807724 
L 167.124443 73.648222 
L 168.835141 87.516435 
L 170.545838 69.865982 
L 173.967233 63.982497 
L 175.67793 113.151618 
L 177.388627 110.209876 
L 179.099325 124.078089 
L 180.810022 170.305467 
L 182.520719 19.856364 
L 184.231417 36.666319 
L 185.942114 92.979671 
L 187.652811 87.096186 
L 189.363509 112.731369 
L 191.074206 103.485893 
L 192.784903 113.571867 
L 194.495601 54.316773 
L 196.206298 65.663493 
L 197.916995 74.068471 
L 199.627693 93.39992 
L 201.33839 74.908969 
L 203.049087 76.169715 
L 204.759785 150.974018 
L 206.470482 52.635777 
L 208.181179 150.13352 
L 209.891877 107.688382 
L 211.602574 50.534533 
L 213.313271 31.203084 
L 215.023969 73.648222 
L 216.734666 104.326391 
L 218.445363 72.807724 
L 220.156061 121.136347 
L 221.866758 91.298675 
L 223.577455 52.215528 
L 225.288153 83.313946 
L 226.99885 148.872774 
L 230.420245 67.764737 
L 232.130942 52.635777 
L 233.841639 78.27096 
L 235.552337 68.605235 
L 237.263034 64.402746 
L 238.973731 157.698 
L 240.684429 86.675938 
L 242.395126 116.513609 
L 244.105823 139.207049 
L 245.816521 36.24607 
L 247.527218 94.240418 
L 250.948613 45.491546 
L 252.65931 93.39992 
L 254.370007 58.519262 
L 256.080705 29.101839 
L 257.791402 96.761911 
L 259.502099 72.387475 
L 261.212797 66.503991 
L 262.923494 106.427636 
L 264.634191 85.83544 
L 266.344889 56.838266 
L 268.055586 92.979671 
L 269.766283 56.418017 
L 271.476981 78.691209 
L 273.187678 91.718924 
L 274.898375 108.52888 
L 276.609073 103.906142 
L 278.31977 50.954782 
L 280.030467 69.865982 
L 281.741165 164.842232 
L 283.451862 57.258515 
L 285.162559 139.627298 
L 286.873257 47.172542 
L 288.583954 94.660667 
L 290.294651 79.111457 
L 292.005349 66.503991 
L 293.716046 63.562248 
L 295.426743 123.237591 
L 297.137441 110.630124 
L 298.848138 53.476275 
L 300.558835 126.599582 
L 302.269533 47.592791 
L 303.98023 97.18216 
L 305.690927 67.764737 
L 307.401625 55.57752 
L 309.112322 60.200257 
L 310.823019 130.802071 
L 312.533717 113.151618 
L 314.244414 141.308294 
L 315.955111 95.921413 
L 317.665809 35.825822 
L 319.376506 126.179333 
L 321.087203 111.890871 
L 322.797901 34.985324 
L 324.508598 61.881253 
L 326.219295 71.546977 
L 327.929993 123.237591 
L 329.64069 44.651048 
L 331.351387 65.663493 
L 333.062085 50.534533 
L 334.772782 68.184986 
L 336.483479 76.589964 
L 338.194177 89.197431 
L 339.904874 109.369378 
L 341.615571 200.983636 
L 343.326269 64.402746 
L 345.036966 45.491546 
L 346.747663 125.759085 
L 348.458361 55.997768 
L 350.169058 74.908969 
L 351.879755 115.673111 
L 353.590453 67.764737 
L 355.30115 93.820169 
L 357.011847 74.068471 
L 358.722545 66.083742 
L 360.433242 76.169715 
L 362.143939 66.083742 
L 363.854637 34.144826 
L 365.565334 125.338836 
L 367.276031 84.994942 
L 368.986729 182.912934 
L 370.697426 49.273786 
L 372.408123 56.418017 
L 374.118821 100.544151 
L 375.829518 57.678764 
L 377.540215 76.169715 
L 379.250913 60.200257 
L 380.96161 78.691209 
L 382.672307 54.316773 
L 384.383005 87.936684 
L 386.093702 144.670285 
L 387.804399 42.549804 
L 389.515097 143.409538 
L 391.225794 111.890871 
L 392.936491 87.096186 
L 394.647189 103.065644 
L 396.357886 75.749466 
L 398.068583 65.663493 
L 399.779281 38.767564 
L 401.489978 80.372204 
L 403.200675 80.792453 
L 404.911373 112.31112 
L 406.62207 55.157271 
L 410.043465 121.556596 
L 411.754162 126.599582 
L 413.464859 102.225147 
L 415.175557 116.933858 
L 416.886254 53.896524 
L 418.596951 68.605235 
L 420.307649 117.354107 
L 422.018346 118.614853 
L 423.729043 49.273786 
L 425.439741 53.896524 
L 427.150438 71.126729 
L 428.861135 71.546977 
L 430.571833 83.313946 
L 432.28253 105.166889 
L 433.993227 58.519262 
L 435.703925 111.470622 
L 437.414622 82.0532 
L 439.125319 87.936684 
L 440.836017 100.123902 
L 442.546714 65.663493 
L 444.257411 121.136347 
L 445.968109 100.123902 
L 447.678806 49.694035 
L 449.389503 132.903316 
L 451.100201 98.863155 
L 452.810898 84.154444 
L 454.521595 73.227973 
L 456.232293 63.142 
L 457.94299 114.832613 
L 459.653687 50.114284 
L 461.364385 70.70648 
L 463.075082 86.255689 
L 464.785779 72.387475 
L 466.496477 62.721751 
L 468.207174 172.826961 
L 469.917871 150.553769 
L 471.628569 49.694035 
L 473.339266 135.845058 
L 475.049963 66.92424 
L 476.760661 88.777182 
L 478.471358 124.498338 
L 480.182055 45.911795 
L 481.892753 55.157271 
L 483.60345 49.273786 
L 485.314147 167.363725 
L 487.024845 64.402746 
L 488.735542 90.037929 
L 490.44624 63.982497 
L 492.156937 79.111457 
L 493.867634 171.986463 
L 497.289029 75.329217 
L 498.999726 63.562248 
L 500.710424 54.316773 
L 502.421121 115.673111 
L 504.131818 75.329217 
L 504.131818 75.329217 
" clip-path="url(#p302aeca9ef)" style="fill: none; stroke: #99004d; stroke-width: 0.8; stroke-linecap: square"/>
   </g>
   <g id="patch_3">
    <path d="M 56.87 210.04 
L 56.87 10.8 
" style="fill: none; stroke: #000000; stroke-width: 0.8; stroke-linejoin: miter; stroke-linecap: square"/>
   </g>
   <g id="patch_4">
    <path d="M 525.43 210.04 
L 525.43 10.8 
" style="fill: none; stroke: #000000; stroke-width: 0.8; stroke-linejoin: miter; stroke-linecap: square"/>
   </g>
   <g id="patch_5">
    <path d="M 56.87 210.04 
L 525.43 210.04 
" style="fill: none; stroke: #000000; stroke-width: 0.8; stroke-linejoin: miter; stroke-linecap: square"/>
   </g>
   <g id="patch_6">
    <path d="M 56.87 10.8 
L 525.43 10.8 
" style="fill: none; stroke: #000000; stroke-width: 0.8; stroke-linejoin: miter; stroke-linecap: square"/>
   </g>
  </g>
  <g id="axes_2">
   <g id="matplotlib.axis_3">
    <g id="ytick_5">
     <g id="line2d_12">
      <defs>
       <path id="m4e64adaf5d" d="M 0 0 
L 3.5 0 
" style="stroke: #000000; stroke-width: 0.8"/>
      </defs>
      <g>
       <use xlink:href="#m4e64adaf5d" x="525.43" y="200.983636" style="stroke: #000000; stroke-width: 0.8"/>
      </g>
     </g>
     <g id="text_13">
      <text style="font: 10px 'DejaVu Sans', 'Bitstream Vera Sans', 'Computer Modern Sans Serif', 'Lucida Grande', 'Verdana', 'Geneva', 'Lucid', 'Arial', 'Helvetica', 'Avant Garde', sans-serif; text-anchor: start" x="532.43" y="204.782855" transform="rotate(-0 532.43 204.782855)">0</text>
     </g>
    </g>
    <g id="ytick_6">
     <g id="line2d_13">
      <g>
       <use xlink:href="#m4e64adaf5d" x="525.43" y="177.1511" style="stroke: #000000; stroke-width: 0.8"/>
      </g>
     </g>
     <g id="text_14">
      <text style="font: 10px 'DejaVu Sans', 'Bitstream Vera Sans', 'Computer Modern Sans Serif', 'Lucida Grande', 'Verdana', 'Geneva', 'Lucid', 'Arial', 'Helvetica', 'Avant Garde', sans-serif; text-anchor: start" x="532.43" y="180.950319" transform="rotate(-0 532.43 180.950319)">5</text>
     </g>
    </g>
    <g id="ytick_7">
     <g id="line2d_14">
      <g>
       <use xlink:href="#m4e64adaf5d" x="525.43" y="153.318565" style="stroke: #000000; stroke-width: 0.8"/>
      </g>
     </g>
     <g id="text_15">
      <text style="font: 10px 'DejaVu Sans', 'Bitstream Vera Sans', 'Computer Modern Sans Serif', 'Lucida Grande', 'Verdana', 'Geneva', 'Lucid', 'Arial', 'Helvetica', 'Avant Garde', sans-serif; text-anchor: start" x="532.43" y="157.117783" transform="rotate(-0 532.43 157.117783)">10</text>
     </g>
    </g>
    <g id="ytick_8">
     <g id="line2d_15">
      <g>
       <use xlink:href="#m4e64adaf5d" x="525.43" y="129.486029" style="stroke: #000000; stroke-width: 0.8"/>
      </g>
     </g>
     <g id="text_16">
      <text style="font: 10px 'DejaVu Sans', 'Bitstream Vera Sans', 'Computer Modern Sans Serif', 'Lucida Grande', 'Verdana', 'Geneva', 'Lucid', 'Arial', 'Helvetica', 'Avant Garde', sans-serif; text-anchor: start" x="532.43" y="133.285247" transform="rotate(-0 532.43 133.285247)">15</text>
     </g>
    </g>
    <g id="ytick_9">
     <g id="line2d_16">
      <g>
       <use xlink:href="#m4e64adaf5d" x="525.43" y="105.653493" style="stroke: #000000; stroke-width: 0.8"/>
      </g>
     </g>
     <g id="text_17">
      <text style="font: 10px 'DejaVu Sans', 'Bitstream Vera Sans', 'Computer Modern Sans Serif', 'Lucida Grande', 'Verdana', 'Geneva', 'Lucid', 'Arial', 'Helvetica', 'Avant Garde', sans-serif; text-anchor: start" x="532.43" y="109.452712" transform="rotate(-0 532.43 109.452712)">20</text>
     </g>
    </g>
    <g id="ytick_10">
     <g id="line2d_17">
      <g>
       <use xlink:href="#m4e64adaf5d" x="525.43" y="81.820957" style="stroke: #000000; stroke-width: 0.8"/>
      </g>
     </g>
     <g id="text_18">
      <text style="font: 10px 'DejaVu Sans', 'Bitstream Vera Sans', 'Computer Modern Sans Serif', 'Lucida Grande', 'Verdana', 'Geneva', 'Lucid', 'Arial', 'Helvetica', 'Avant Garde', sans-serif; text-anchor: start" x="532.43" y="85.620176" transform="rotate(-0 532.43 85.620176)">25</text>
     </g>
    </g>
    <g id="ytick_11">
     <g id="line2d_18">
      <g>
       <use xlink:href="#m4e64adaf5d" x="525.43" y="57.988421" style="stroke: #000000; stroke-width: 0.8"/>
      </g>
     </g>
     <g id="text_19">
      <text style="font: 10px 'DejaVu Sans', 'Bitstream Vera Sans', 'Computer Modern Sans Serif', 'Lucida Grande', 'Verdana', 'Geneva', 'Lucid', 'Arial', 'Helvetica', 'Avant Garde', sans-serif; text-anchor: start" x="532.43" y="61.78764" transform="rotate(-0 532.43 61.78764)">30</text>
     </g>
    </g>
    <g id="ytick_12">
     <g id="line2d_19">
      <g>
       <use xlink:href="#m4e64adaf5d" x="525.43" y="34.155885" style="stroke: #000000; stroke-width: 0.8"/>
      </g>
     </g>
     <g id="text_20">
      <text style="font: 10px 'DejaVu Sans', 'Bitstream Vera Sans', 'Computer Modern Sans Serif', 'Lucida Grande', 'Verdana', 'Geneva', 'Lucid', 'Arial', 'Helvetica', 'Avant Garde', sans-serif; text-anchor: start" x="532.43" y="37.955104" transform="rotate(-0 532.43 37.955104)">35</text>
     </g>
    </g>
    <g id="text_21">
     <text style="font: 10px 'DejaVu Sans', 'Bitstream Vera Sans', 'Computer Modern Sans Serif', 'Lucida Grande', 'Verdana', 'Geneva', 'Lucid', 'Arial', 'Helvetica', 'Avant Garde', sans-serif; text-anchor: middle" x="562.753438" y="110.42" transform="rotate(-90 562.753438 110.42)">hw(data)</text>
    </g>
   </g>
   <g id="line2d_20">
    <path d="M 78.168182 139.019043 
L 79.878879 124.719522 
L 81.589576 100.886986 
L 83.300274 100.886986 
L 85.010971 77.05445 
L 86.721668 105.653493 
L 88.432366 100.886986 
L 90.143063 77.05445 
L 91.85376 86.587464 
L 93.564458 181.917608 
L 95.275155 53.221914 
L 96.985853 124.719522 
L 98.69655 91.353971 
L 100.407247 24.622871 
L 102.117945 67.521435 
L 103.828642 53.221914 
L 105.539339 91.353971 
L 107.250037 139.019043 
L 108.960734 43.6889 
L 110.671431 115.186507 
L 112.382129 57.988421 
L 114.092826 115.186507 
L 115.803523 119.953014 
L 117.514221 105.653493 
L 119.224918 81.820957 
L 120.935615 72.287943 
L 122.646313 100.886986 
L 124.35701 115.186507 
L 126.067707 72.287943 
L 127.778405 53.221914 
L 129.489102 134.252536 
L 131.199799 139.019043 
L 132.910497 162.851579 
L 134.621194 81.820957 
L 136.331891 72.287943 
L 138.042589 110.42 
L 139.753286 48.455407 
L 141.463983 153.318565 
L 143.174681 119.953014 
L 144.885378 105.653493 
L 146.596075 77.05445 
L 148.306773 53.221914 
L 150.01747 129.486029 
L 151.728167 153.318565 
L 153.438865 110.42 
L 155.149562 105.653493 
L 156.860259 91.353971 
L 158.570957 48.455407 
L 160.281654 129.486029 
L 161.992351 91.353971 
L 163.703049 57.988421 
L 165.413746 119.953014 
L 167.124443 124.719522 
L 168.835141 86.587464 
L 170.545838 86.587464 
L 172.256535 53.221914 
L 173.967233 96.120478 
L 175.67793 153.318565 
L 177.388627 129.486029 
L 179.099325 115.186507 
L 180.810022 172.384593 
L 182.520719 48.455407 
L 184.231417 19.856364 
L 185.942114 105.653493 
L 187.652811 100.886986 
L 189.363509 139.019043 
L 191.074206 91.353971 
L 192.784903 172.384593 
L 194.495601 86.587464 
L 196.206298 62.754928 
L 197.916995 124.719522 
L 199.627693 100.886986 
L 201.33839 81.820957 
L 203.049087 53.221914 
L 204.759785 129.486029 
L 206.470482 72.287943 
L 208.181179 124.719522 
L 209.891877 91.353971 
L 211.602574 100.886986 
L 213.313271 34.155885 
L 215.023969 72.287943 
L 216.734666 119.953014 
L 218.445363 153.318565 
L 220.156061 172.384593 
L 221.866758 100.886986 
L 223.577455 67.521435 
L 225.288153 110.42 
L 226.99885 129.486029 
L 228.709547 158.085072 
L 230.420245 72.287943 
L 232.130942 62.754928 
L 233.841639 96.120478 
L 235.552337 110.42 
L 237.263034 100.886986 
L 238.973731 148.552057 
L 240.684429 119.953014 
L 242.395126 148.552057 
L 244.105823 158.085072 
L 245.816521 38.922392 
L 247.527218 110.42 
L 249.237915 91.353971 
L 250.948613 77.05445 
L 252.65931 72.287943 
L 254.370007 139.019043 
L 256.080705 38.922392 
L 257.791402 148.552057 
L 259.502099 72.287943 
L 261.212797 91.353971 
L 262.923494 119.953014 
L 264.634191 62.754928 
L 266.344889 100.886986 
L 268.055586 62.754928 
L 269.766283 91.353971 
L 271.476981 139.019043 
L 273.187678 119.953014 
L 274.898375 143.78555 
L 276.609073 158.085072 
L 278.31977 67.521435 
L 280.030467 86.587464 
L 281.741165 177.1511 
L 283.451862 139.019043 
L 285.162559 158.085072 
L 286.873257 86.587464 
L 288.583954 91.353971 
L 290.294651 72.287943 
L 292.005349 115.186507 
L 293.716046 91.353971 
L 295.426743 100.886986 
L 297.137441 115.186507 
L 298.848138 57.988421 
L 300.558835 148.552057 
L 302.269533 57.988421 
L 303.98023 81.820957 
L 305.690927 57.988421 
L 307.401625 134.252536 
L 309.112322 91.353971 
L 310.823019 119.953014 
L 312.533717 105.653493 
L 314.244414 148.552057 
L 315.955111 105.653493 
L 317.665809 53.221914 
L 319.376506 115.186507 
L 321.087203 91.353971 
L 322.797901 57.988421 
L 324.508598 105.653493 
L 326.219295 105.653493 
L 327.929993 139.019043 
L 329.64069 86.587464 
L 331.351387 96.120478 
L 333.062085 53.221914 
L 334.772782 86.587464 
L 336.483479 91.353971 
L 338.194177 143.78555 
L 339.904874 119.953014 
L 341.615571 200.983636 
L 343.326269 62.754928 
L 345.036966 72.287943 
L 346.747663 139.019043 
L 348.458361 81.820957 
L 350.169058 67.521435 
L 351.879755 139.019043 
L 353.590453 86.587464 
L 355.30115 96.120478 
L 357.011847 34.155885 
L 358.722545 115.186507 
L 362.143939 105.653493 
L 363.854637 48.455407 
L 365.565334 162.851579 
L 367.276031 105.653493 
L 368.986729 177.1511 
L 370.697426 77.05445 
L 372.408123 86.587464 
L 374.118821 100.886986 
L 375.829518 81.820957 
L 377.540215 57.988421 
L 379.250913 77.05445 
L 380.96161 81.820957 
L 382.672307 91.353971 
L 384.383005 86.587464 
L 386.093702 139.019043 
L 387.804399 62.754928 
L 389.515097 153.318565 
L 391.225794 115.186507 
L 392.936491 115.186507 
L 394.647189 124.719522 
L 396.357886 77.05445 
L 398.068583 77.05445 
L 399.779281 67.521435 
L 401.489978 91.353971 
L 403.200675 62.754928 
L 404.911373 110.42 
L 406.62207 105.653493 
L 408.332767 129.486029 
L 411.754162 129.486029 
L 413.464859 115.186507 
L 415.175557 162.851579 
L 416.886254 81.820957 
L 418.596951 72.287943 
L 420.307649 119.953014 
L 422.018346 139.019043 
L 423.729043 91.353971 
L 425.439741 96.120478 
L 427.150438 96.120478 
L 428.861135 77.05445 
L 430.571833 72.287943 
L 432.28253 148.552057 
L 433.993227 67.521435 
L 435.703925 124.719522 
L 437.414622 100.886986 
L 439.125319 100.886986 
L 440.836017 162.851579 
L 442.546714 67.521435 
L 444.257411 124.719522 
L 445.968109 153.318565 
L 447.678806 53.221914 
L 449.389503 143.78555 
L 451.100201 110.42 
L 452.810898 62.754928 
L 456.232293 72.287943 
L 457.94299 139.019043 
L 459.653687 48.455407 
L 461.364385 105.653493 
L 463.075082 100.886986 
L 464.785779 124.719522 
L 466.496477 62.754928 
L 468.207174 181.917608 
L 469.917871 162.851579 
L 471.628569 77.05445 
L 473.339266 139.019043 
L 475.049963 96.120478 
L 476.760661 110.42 
L 478.471358 162.851579 
L 480.182055 86.587464 
L 481.892753 53.221914 
L 483.60345 86.587464 
L 485.314147 186.684115 
L 487.024845 86.587464 
L 488.735542 67.521435 
L 490.44624 86.587464 
L 492.156937 67.521435 
L 493.867634 172.384593 
L 495.578332 119.953014 
L 497.289029 105.653493 
L 498.999726 62.754928 
L 500.710424 38.922392 
L 502.421121 129.486029 
L 504.131818 100.886986 
L 504.131818 100.886986 
" clip-path="url(#p302aeca9ef)" style="fill: none; stroke: #235996; stroke-width: 0.8; stroke-linecap: square"/>
   </g>
   <g id="patch_7">
    <path d="M 56.87 210.04 
L 56.87 10.8 
" style="fill: none; stroke: #000000; stroke-width: 0.8; stroke-linejoin: miter; stroke-linecap: square"/>
   </g>
   <g id="patch_8">
    <path d="M 525.43 210.04 
L 525.43 10.8 
" style="fill: none; stroke: #000000; stroke-width: 0.8; stroke-linejoin: miter; stroke-linecap: square"/>
   </g>
   <g id="patch_9">
    <path d="M 56.87 210.04 
L 525.43 210.04 
" style="fill: none; stroke: #000000; stroke-width: 0.8; stroke-linejoin: miter; stroke-linecap: square"/>
   </g>
   <g id="patch_10">
    <path d="M 56.87 10.8 
L 525.43 10.8 
" style="fill: none; stroke: #000000; stroke-width: 0.8; stroke-linejoin: miter; stroke-linecap: square"/>
   </g>
   <g id="legend_1">
    <g id="patch_11">
     <path d="M 150.539625 43.4565 
L 431.760375 43.4565 
Q 434.640375 43.4565 434.640375 40.5765 
L 434.640375 20.88 
Q 434.640375 18 431.760375 18 
L 150.539625 18 
Q 147.659625 18 147.659625 20.88 
L 147.659625 40.5765 
Q 147.659625 43.4565 150.539625 43.4565 
z
" style="fill: #ffffff; opacity: 0.8; stroke: #000000; stroke-linejoin: miter"/>
    </g>
    <g id="line2d_21">
     <path d="M 153.419625 29.66175 
L 167.819625 29.66175 
L 182.219625 29.66175 
" style="fill: none; stroke: #99004d; stroke-width: 0.8; stroke-linecap: square"/>
    </g>
    <g id="text_22">
     <text style="font: 14.4px 'DejaVu Sans', 'Bitstream Vera Sans', 'Computer Modern Sans Serif', 'Lucida Grande', 'Verdana', 'Geneva', 'Lucid', 'Arial', 'Helvetica', 'Avant Garde', sans-serif; text-anchor: start" x="193.739625" y="34.70175" transform="rotate(-0 193.739625 34.70175)">power</text>
    </g>
    <g id="line2d_22">
     <path d="M 267.049125 29.66175 
L 281.449125 29.66175 
L 295.849125 29.66175 
" style="fill: none; stroke: #235996; stroke-width: 0.8; stroke-linecap: square"/>
    </g>
    <g id="text_23">
     <text style="font: 14.4px 'DejaVu Sans', 'Bitstream Vera Sans', 'Computer Modern Sans Serif', 'Lucida Grande', 'Verdana', 'Geneva', 'Lucid', 'Arial', 'Helvetica', 'Avant Garde', sans-serif; text-anchor: start" x="307.369125" y="34.70175" transform="rotate(-0 307.369125 34.70175)">hw(rs1)+hw(rs2)</text>
    </g>
   </g>
  </g>
 </g>
 <defs>
  <clipPath id="p302aeca9ef">
   <rect x="56.87" y="10.8" width="468.56" height="199.24"/>
  </clipPath>
 </defs>
</svg>
