<?xml version="1.0" encoding="utf-8" standalone="no"?>
<!DOCTYPE svg PUBLIC "-//W3C//DTD SVG 1.1//EN"
  "http://www.w3.org/Graphics/SVG/1.1/DTD/svg11.dtd">
<svg xmlns:xlink="http://www.w3.org/1999/xlink" width="576pt" height="252pt" viewBox="0 0 576 252" xmlns="http://www.w3.org/2000/svg" version="1.1">
 <metadata>
  <rdf:RDF xmlns:dc="http://purl.org/dc/elements/1.1/" xmlns:cc="http://creativecommons.org/ns#" xmlns:rdf="http://www.w3.org/1999/02/22-rdf-syntax-ns#">
   <cc:Work>
    <dc:type rdf:resource="http://purl.org/dc/dcmitype/StillImage"/>
    <dc:date>2023-12-06T11:15:14.567225</dc:date>
    <dc:format>image/svg+xml</dc:format>
    <dc:creator>
     <cc:Agent>
      <dc:title>Matplotlib v3.7.4, https://matplotlib.org/</dc:title>
     </cc:Agent>
    </dc:creator>
   </cc:Work>
  </rdf:RDF>
 </metadata>
 <defs>
  <style type="text/css">*{stroke-linejoin: round; stroke-linecap: butt}</style>
 </defs>
 <g id="figure_1">
  <g id="patch_1">
   <path d="M 0 252 
L 576 252 
L 576 0 
L 0 0 
z
" style="fill: #ffffff"/>
  </g>
  <g id="axes_1">
   <g id="patch_2">
    <path d="M 44.57 210.04 
L 565.2 210.04 
L 565.2 10.8 
L 44.57 10.8 
z
" style="fill: #ffffff"/>
   </g>
   <g id="matplotlib.axis_1">
    <g id="xtick_1">
     <g id="line2d_1">
      <defs>
       <path id="m41451f69e6" d="M 0 0 
L 0 3.5 
" style="stroke: #000000; stroke-width: 0.8"/>
      </defs>
      <g>
       <use xlink:href="#m41451f69e6" x="68.235" y="210.04" style="stroke: #000000; stroke-width: 0.8"/>
      </g>
     </g>
     <g id="text_1">
      <text style="font: 10px 'DejaVu Sans', 'Bitstream Vera Sans', 'Computer Modern Sans Serif', 'Lucida Grande', 'Verdana', 'Geneva', 'Lucid', 'Arial', 'Helvetica', 'Avant Garde', sans-serif; text-anchor: middle" x="68.235" y="224.638438" transform="rotate(-0 68.235 224.638438)">0</text>
     </g>
    </g>
    <g id="xtick_2">
     <g id="line2d_2">
      <g>
       <use xlink:href="#m41451f69e6" x="165.024366" y="210.04" style="stroke: #000000; stroke-width: 0.8"/>
      </g>
     </g>
     <g id="text_2">
      <text style="font: 10px 'DejaVu Sans', 'Bitstream Vera Sans', 'Computer Modern Sans Serif', 'Lucida Grande', 'Verdana', 'Geneva', 'Lucid', 'Arial', 'Helvetica', 'Avant Garde', sans-serif; text-anchor: middle" x="165.024366" y="224.638438" transform="rotate(-0 165.024366 224.638438)">100</text>
     </g>
    </g>
    <g id="xtick_3">
     <g id="line2d_3">
      <g>
       <use xlink:href="#m41451f69e6" x="261.813732" y="210.04" style="stroke: #000000; stroke-width: 0.8"/>
      </g>
     </g>
     <g id="text_3">
      <text style="font: 10px 'DejaVu Sans', 'Bitstream Vera Sans', 'Computer Modern Sans Serif', 'Lucida Grande', 'Verdana', 'Geneva', 'Lucid', 'Arial', 'Helvetica', 'Avant Garde', sans-serif; text-anchor: middle" x="261.813732" y="224.638438" transform="rotate(-0 261.813732 224.638438)">200</text>
     </g>
    </g>
    <g id="xtick_4">
     <g id="line2d_4">
      <g>
       <use xlink:href="#m41451f69e6" x="358.603098" y="210.04" style="stroke: #000000; stroke-width: 0.8"/>
      </g>
     </g>
     <g id="text_4">
      <text style="font: 10px 'DejaVu Sans', 'Bitstream Vera Sans', 'Computer Modern Sans Serif', 'Lucida Grande', 'Verdana', 'Geneva', 'Lucid', 'Arial', 'Helvetica', 'Avant Garde', sans-serif; text-anchor: middle" x="358.603098" y="224.638438" transform="rotate(-0 358.603098 224.638438)">300</text>
     </g>
    </g>
    <g id="xtick_5">
     <g id="line2d_5">
      <g>
       <use xlink:href="#m41451f69e6" x="455.392464" y="210.04" style="stroke: #000000; stroke-width: 0.8"/>
      </g>
     </g>
     <g id="text_5">
      <text style="font: 10px 'DejaVu Sans', 'Bitstream Vera Sans', 'Computer Modern Sans Serif', 'Lucida Grande', 'Verdana', 'Geneva', 'Lucid', 'Arial', 'Helvetica', 'Avant Garde', sans-serif; text-anchor: middle" x="455.392464" y="224.638438" transform="rotate(-0 455.392464 224.638438)">400</text>
     </g>
    </g>
    <g id="xtick_6">
     <g id="line2d_6">
      <g>
       <use xlink:href="#m41451f69e6" x="552.18183" y="210.04" style="stroke: #000000; stroke-width: 0.8"/>
      </g>
     </g>
     <g id="text_6">
      <text style="font: 10px 'DejaVu Sans', 'Bitstream Vera Sans', 'Computer Modern Sans Serif', 'Lucida Grande', 'Verdana', 'Geneva', 'Lucid', 'Arial', 'Helvetica', 'Avant Garde', sans-serif; text-anchor: middle" x="552.18183" y="224.638438" transform="rotate(-0 552.18183 224.638438)">500</text>
     </g>
    </g>
    <g id="text_7">
     <text style="font: 10px 'DejaVu Sans', 'Bitstream Vera Sans', 'Computer Modern Sans Serif', 'Lucida Grande', 'Verdana', 'Geneva', 'Lucid', 'Arial', 'Helvetica', 'Avant Garde', sans-serif; text-anchor: middle" x="304.885" y="238.316563" transform="rotate(-0 304.885 238.316563)">Iterations</text>
    </g>
   </g>
   <g id="matplotlib.axis_2">
    <g id="ytick_1">
     <g id="line2d_7">
      <defs>
       <path id="mbaef4d9a63" d="M 0 0 
L -3.5 0 
" style="stroke: #000000; stroke-width: 0.8"/>
      </defs>
      <g>
       <use xlink:href="#mbaef4d9a63" x="44.57" y="200.983636" style="stroke: #000000; stroke-width: 0.8"/>
      </g>
     </g>
     <g id="text_8">
      <text style="font: 10px 'DejaVu Sans', 'Bitstream Vera Sans', 'Computer Modern Sans Serif', 'Lucida Grande', 'Verdana', 'Geneva', 'Lucid', 'Arial', 'Helvetica', 'Avant Garde', sans-serif; text-anchor: end" x="37.57" y="204.782855" transform="rotate(-0 37.57 204.782855)">0</text>
     </g>
    </g>
    <g id="ytick_2">
     <g id="line2d_8">
      <g>
       <use xlink:href="#mbaef4d9a63" x="44.57" y="159.818347" style="stroke: #000000; stroke-width: 0.8"/>
      </g>
     </g>
     <g id="text_9">
      <text style="font: 10px 'DejaVu Sans', 'Bitstream Vera Sans', 'Computer Modern Sans Serif', 'Lucida Grande', 'Verdana', 'Geneva', 'Lucid', 'Arial', 'Helvetica', 'Avant Garde', sans-serif; text-anchor: end" x="37.57" y="163.617566" transform="rotate(-0 37.57 163.617566)">10</text>
     </g>
    </g>
    <g id="ytick_3">
     <g id="line2d_9">
      <g>
       <use xlink:href="#mbaef4d9a63" x="44.57" y="118.653058" style="stroke: #000000; stroke-width: 0.8"/>
      </g>
     </g>
     <g id="text_10">
      <text style="font: 10px 'DejaVu Sans', 'Bitstream Vera Sans', 'Computer Modern Sans Serif', 'Lucida Grande', 'Verdana', 'Geneva', 'Lucid', 'Arial', 'Helvetica', 'Avant Garde', sans-serif; text-anchor: end" x="37.57" y="122.452277" transform="rotate(-0 37.57 122.452277)">20</text>
     </g>
    </g>
    <g id="ytick_4">
     <g id="line2d_10">
      <g>
       <use xlink:href="#mbaef4d9a63" x="44.57" y="77.487769" style="stroke: #000000; stroke-width: 0.8"/>
      </g>
     </g>
     <g id="text_11">
      <text style="font: 10px 'DejaVu Sans', 'Bitstream Vera Sans', 'Computer Modern Sans Serif', 'Lucida Grande', 'Verdana', 'Geneva', 'Lucid', 'Arial', 'Helvetica', 'Avant Garde', sans-serif; text-anchor: end" x="37.57" y="81.286987" transform="rotate(-0 37.57 81.286987)">30</text>
     </g>
    </g>
    <g id="ytick_5">
     <g id="line2d_11">
      <g>
       <use xlink:href="#mbaef4d9a63" x="44.57" y="36.322479" style="stroke: #000000; stroke-width: 0.8"/>
      </g>
     </g>
     <g id="text_12">
      <text style="font: 10px 'DejaVu Sans', 'Bitstream Vera Sans', 'Computer Modern Sans Serif', 'Lucida Grande', 'Verdana', 'Geneva', 'Lucid', 'Arial', 'Helvetica', 'Avant Garde', sans-serif; text-anchor: end" x="37.57" y="40.121698" transform="rotate(-0 37.57 40.121698)">40</text>
     </g>
    </g>
    <g id="text_13">
     <text style="font: 10px 'DejaVu Sans', 'Bitstream Vera Sans', 'Computer Modern Sans Serif', 'Lucida Grande', 'Verdana', 'Geneva', 'Lucid', 'Arial', 'Helvetica', 'Avant Garde', sans-serif; text-anchor: middle" x="18.765313" y="110.42" transform="rotate(-90 18.765313 110.42)">Randomness</text>
    </g>
   </g>
   <g id="line2d_12">
    <path d="M 68.235 81.604298 
L 69.202894 81.604298 
L 70.170787 77.487769 
L 71.138681 65.138182 
L 72.106575 69.254711 
L 73.074468 61.021653 
L 74.042362 85.720826 
L 75.010256 85.720826 
L 75.978149 52.788595 
L 76.946043 81.604298 
L 77.913937 65.138182 
L 78.88183 56.905124 
L 79.849724 73.37124 
L 80.817618 65.138182 
L 81.785511 48.672066 
L 82.753405 69.254711 
L 83.721299 61.021653 
L 84.689192 69.254711 
L 85.657086 81.604298 
L 86.62498 85.720826 
L 87.592873 61.021653 
L 88.560767 85.720826 
L 89.528661 89.837355 
L 90.496554 89.837355 
L 91.464448 65.138182 
L 92.432342 65.138182 
L 94.368129 56.905124 
L 95.336022 61.021653 
L 96.303916 77.487769 
L 97.27181 77.487769 
L 98.239703 93.953884 
L 99.207597 48.672066 
L 100.175491 85.720826 
L 101.143384 69.254711 
L 102.111278 61.021653 
L 103.079172 69.254711 
L 104.047065 85.720826 
L 105.014959 69.254711 
L 105.982853 44.555537 
L 106.950746 69.254711 
L 107.91864 81.604298 
L 108.886534 110.42 
L 109.854427 48.672066 
L 110.822321 65.138182 
L 111.790215 77.487769 
L 112.758108 61.021653 
L 113.726002 69.254711 
L 114.693896 65.138182 
L 115.661789 81.604298 
L 116.629683 52.788595 
L 117.597577 69.254711 
L 118.56547 44.555537 
L 119.533364 89.837355 
L 120.501258 52.788595 
L 121.469151 69.254711 
L 122.437045 93.953884 
L 123.404939 56.905124 
L 124.372832 65.138182 
L 125.340726 77.487769 
L 126.30862 118.653058 
L 127.276513 89.837355 
L 128.244407 81.604298 
L 129.212301 40.439008 
L 130.180194 69.254711 
L 131.148088 69.254711 
L 132.115982 40.439008 
L 133.083875 77.487769 
L 134.051769 56.905124 
L 135.019663 102.186942 
L 135.987556 73.37124 
L 136.95545 77.487769 
L 137.923344 61.021653 
L 138.891237 77.487769 
L 139.859131 89.837355 
L 140.827025 61.021653 
L 141.794918 114.536529 
L 142.762812 65.138182 
L 143.730706 56.905124 
L 144.698599 93.953884 
L 145.666493 77.487769 
L 147.60228 61.021653 
L 148.570174 61.021653 
L 149.538067 32.20595 
L 150.505961 89.837355 
L 151.473855 36.322479 
L 152.441748 48.672066 
L 153.409642 69.254711 
L 154.377536 93.953884 
L 155.345429 61.021653 
L 156.313323 48.672066 
L 157.281217 93.953884 
L 158.24911 69.254711 
L 159.217004 69.254711 
L 160.184898 81.604298 
L 162.120685 73.37124 
L 163.088579 77.487769 
L 165.024366 69.254711 
L 165.99226 81.604298 
L 166.960153 61.021653 
L 167.928047 52.788595 
L 168.895941 73.37124 
L 169.863834 40.439008 
L 170.831728 85.720826 
L 171.799622 65.138182 
L 172.767515 48.672066 
L 173.735409 48.672066 
L 174.703303 65.138182 
L 175.671196 40.439008 
L 176.63909 81.604298 
L 177.606984 85.720826 
L 178.574877 73.37124 
L 179.542771 65.138182 
L 180.510665 48.672066 
L 181.478558 65.138182 
L 182.446452 69.254711 
L 183.414346 56.905124 
L 184.382239 61.021653 
L 185.350133 69.254711 
L 186.318027 69.254711 
L 187.28592 81.604298 
L 188.253814 61.021653 
L 189.221708 69.254711 
L 190.189601 73.37124 
L 191.157495 44.555537 
L 192.125389 69.254711 
L 193.093282 77.487769 
L 194.061176 61.021653 
L 195.02907 56.905124 
L 195.996963 93.953884 
L 196.964857 32.20595 
L 197.932751 89.837355 
L 198.900644 81.604298 
L 199.868538 77.487769 
L 201.804325 44.555537 
L 202.772219 65.138182 
L 203.740112 52.788595 
L 204.708006 61.021653 
L 205.6759 65.138182 
L 206.643793 48.672066 
L 207.611687 61.021653 
L 208.579581 65.138182 
L 209.547474 93.953884 
L 210.515368 56.905124 
L 211.483262 69.254711 
L 212.451155 56.905124 
L 213.419049 85.720826 
L 214.386943 77.487769 
L 215.354836 48.672066 
L 216.32273 98.070413 
L 217.290624 44.555537 
L 218.258517 69.254711 
L 219.226411 56.905124 
L 220.194305 73.37124 
L 221.162198 73.37124 
L 222.130092 81.604298 
L 223.097986 56.905124 
L 224.065879 81.604298 
L 225.033773 69.254711 
L 226.001667 98.070413 
L 226.96956 93.953884 
L 227.937454 61.021653 
L 228.905348 69.254711 
L 229.873241 65.138182 
L 230.841135 52.788595 
L 231.809029 52.788595 
L 232.776922 48.672066 
L 233.744816 81.604298 
L 234.71271 93.953884 
L 235.680603 69.254711 
L 236.648497 73.37124 
L 237.616391 110.42 
L 238.584284 69.254711 
L 239.552178 36.322479 
L 240.520072 56.905124 
L 241.487965 48.672066 
L 242.455859 69.254711 
L 243.423753 48.672066 
L 244.391646 81.604298 
L 245.35954 93.953884 
L 246.327434 81.604298 
L 247.295327 73.37124 
L 248.263221 69.254711 
L 249.231115 61.021653 
L 250.199008 93.953884 
L 251.166902 73.37124 
L 252.134796 77.487769 
L 253.102689 69.254711 
L 254.070583 52.788595 
L 256.00637 61.021653 
L 256.974264 61.021653 
L 257.942157 65.138182 
L 258.910051 56.905124 
L 259.877945 77.487769 
L 260.845838 81.604298 
L 261.813732 56.905124 
L 263.749519 65.138182 
L 264.717413 93.953884 
L 265.685307 81.604298 
L 266.6532 65.138182 
L 267.621094 65.138182 
L 268.588988 93.953884 
L 269.556881 48.672066 
L 270.524775 85.720826 
L 271.492669 32.20595 
L 272.460562 77.487769 
L 273.428456 56.905124 
L 274.39635 44.555537 
L 275.364243 65.138182 
L 276.332137 65.138182 
L 277.300031 77.487769 
L 278.267924 65.138182 
L 279.235818 65.138182 
L 280.203712 85.720826 
L 281.171605 85.720826 
L 282.139499 69.254711 
L 283.107393 56.905124 
L 284.075286 61.021653 
L 285.04318 52.788595 
L 286.978967 52.788595 
L 287.946861 65.138182 
L 288.914755 36.322479 
L 289.882648 73.37124 
L 290.850542 61.021653 
L 291.818436 61.021653 
L 292.786329 81.604298 
L 293.754223 69.254711 
L 294.722117 36.322479 
L 295.69001 81.604298 
L 296.657904 81.604298 
L 297.625798 52.788595 
L 298.593691 85.720826 
L 299.561585 69.254711 
L 300.529479 23.972893 
L 301.497372 28.089421 
L 302.465266 85.720826 
L 303.43316 65.138182 
L 304.401053 56.905124 
L 305.368947 56.905124 
L 306.33684 81.604298 
L 307.304734 56.905124 
L 308.272628 52.788595 
L 309.240521 52.788595 
L 310.208415 44.555537 
L 311.176309 81.604298 
L 312.144202 61.021653 
L 313.112096 56.905124 
L 314.07999 56.905124 
L 315.047883 89.837355 
L 316.015777 73.37124 
L 316.983671 73.37124 
L 317.951564 77.487769 
L 318.919458 65.138182 
L 319.887352 89.837355 
L 320.855245 61.021653 
L 321.823139 102.186942 
L 322.791033 69.254711 
L 323.758926 77.487769 
L 324.72682 77.487769 
L 325.694714 81.604298 
L 326.662607 56.905124 
L 327.630501 93.953884 
L 328.598395 52.788595 
L 329.566288 77.487769 
L 330.534182 36.322479 
L 331.502076 65.138182 
L 332.469969 106.303471 
L 333.437863 61.021653 
L 334.405757 48.672066 
L 335.37365 85.720826 
L 336.341544 40.439008 
L 337.309438 56.905124 
L 338.277331 19.856364 
L 339.245225 36.322479 
L 340.213119 44.555537 
L 341.181012 98.070413 
L 342.148906 77.487769 
L 343.1168 65.138182 
L 344.084693 19.856364 
L 345.052587 81.604298 
L 346.020481 48.672066 
L 346.988374 98.070413 
L 347.956268 65.138182 
L 348.924162 61.021653 
L 349.892055 32.20595 
L 350.859949 32.20595 
L 352.795736 65.138182 
L 353.76363 69.254711 
L 354.731524 69.254711 
L 355.699417 77.487769 
L 356.667311 93.953884 
L 357.635204 69.254711 
L 358.603098 69.254711 
L 359.570992 52.788595 
L 360.538885 73.37124 
L 362.474673 81.604298 
L 363.442566 65.138182 
L 364.41046 65.138182 
L 365.378354 56.905124 
L 366.346247 98.070413 
L 367.314141 56.905124 
L 368.282035 65.138182 
L 369.249928 61.021653 
L 370.217822 73.37124 
L 371.185716 52.788595 
L 372.153609 61.021653 
L 373.121503 73.37124 
L 374.089397 48.672066 
L 375.05729 106.303471 
L 376.025184 73.37124 
L 376.993078 73.37124 
L 377.960971 61.021653 
L 378.928865 73.37124 
L 379.896759 77.487769 
L 380.864652 93.953884 
L 381.832546 69.254711 
L 382.80044 73.37124 
L 383.768333 98.070413 
L 384.736227 81.604298 
L 385.704121 61.021653 
L 386.672014 73.37124 
L 387.639908 61.021653 
L 388.607802 40.439008 
L 389.575695 65.138182 
L 390.543589 56.905124 
L 391.511483 69.254711 
L 392.479376 56.905124 
L 393.44727 52.788595 
L 394.415164 73.37124 
L 395.383057 69.254711 
L 396.350951 93.953884 
L 397.318845 81.604298 
L 398.286738 93.953884 
L 399.254632 77.487769 
L 400.222526 48.672066 
L 401.190419 73.37124 
L 402.158313 56.905124 
L 403.126207 85.720826 
L 404.0941 77.487769 
L 405.061994 52.788595 
L 406.029888 81.604298 
L 406.997781 89.837355 
L 407.965675 93.953884 
L 408.933569 85.720826 
L 409.901462 81.604298 
L 410.869356 65.138182 
L 411.837249 106.303471 
L 412.805143 73.37124 
L 413.773037 69.254711 
L 414.74093 48.672066 
L 415.708824 65.138182 
L 416.676718 77.487769 
L 417.644611 73.37124 
L 418.612505 77.487769 
L 419.580399 52.788595 
L 420.548292 56.905124 
L 421.516186 81.604298 
L 422.48408 61.021653 
L 423.451973 98.070413 
L 424.419867 40.439008 
L 425.387761 69.254711 
L 426.355654 77.487769 
L 428.291442 85.720826 
L 429.259335 48.672066 
L 430.227229 73.37124 
L 431.195123 69.254711 
L 432.163016 48.672066 
L 433.13091 85.720826 
L 434.098804 85.720826 
L 435.066697 69.254711 
L 436.034591 81.604298 
L 437.002485 69.254711 
L 437.970378 73.37124 
L 438.938272 52.788595 
L 439.906166 98.070413 
L 440.874059 73.37124 
L 441.841953 52.788595 
L 443.77774 52.788595 
L 444.745634 65.138182 
L 445.713528 65.138182 
L 446.681421 44.555537 
L 447.649315 44.555537 
L 448.617209 61.021653 
L 449.585102 52.788595 
L 451.52089 69.254711 
L 452.488783 36.322479 
L 453.456677 40.439008 
L 454.424571 61.021653 
L 455.392464 85.720826 
L 456.360358 65.138182 
L 457.328252 52.788595 
L 458.296145 85.720826 
L 459.264039 32.20595 
L 460.231933 77.487769 
L 461.199826 48.672066 
L 462.16772 77.487769 
L 463.135613 81.604298 
L 464.103507 73.37124 
L 466.039294 65.138182 
L 467.007188 89.837355 
L 467.975082 61.021653 
L 468.942975 61.021653 
L 469.910869 77.487769 
L 470.878763 69.254711 
L 471.846656 65.138182 
L 473.782444 89.837355 
L 474.750337 81.604298 
L 475.718231 81.604298 
L 476.686125 36.322479 
L 477.654018 28.089421 
L 478.621912 69.254711 
L 479.589806 52.788595 
L 480.557699 102.186942 
L 481.525593 52.788595 
L 482.493487 61.021653 
L 483.46138 65.138182 
L 484.429274 56.905124 
L 485.397168 65.138182 
L 486.365061 65.138182 
L 488.300849 40.439008 
L 489.268742 65.138182 
L 490.236636 56.905124 
L 491.20453 77.487769 
L 493.140317 77.487769 
L 494.108211 69.254711 
L 495.076104 65.138182 
L 496.043998 52.788595 
L 497.011892 56.905124 
L 497.979785 52.788595 
L 498.947679 56.905124 
L 499.915573 73.37124 
L 500.883466 77.487769 
L 501.85136 44.555537 
L 502.819254 93.953884 
L 503.787147 40.439008 
L 504.755041 73.37124 
L 505.722935 81.604298 
L 506.690828 44.555537 
L 507.658722 65.138182 
L 508.626616 65.138182 
L 509.594509 69.254711 
L 510.562403 56.905124 
L 511.530297 98.070413 
L 512.49819 61.021653 
L 513.466084 85.720826 
L 514.433978 61.021653 
L 515.401871 40.439008 
L 516.369765 73.37124 
L 517.337658 48.672066 
L 518.305552 61.021653 
L 519.273446 48.672066 
L 520.241339 73.37124 
L 521.209233 56.905124 
L 522.177127 85.720826 
L 523.14502 48.672066 
L 525.080808 65.138182 
L 526.048701 48.672066 
L 527.984489 40.439008 
L 528.952382 73.37124 
L 530.88817 73.37124 
L 531.856063 61.021653 
L 532.823957 77.487769 
L 533.791851 23.972893 
L 534.759744 48.672066 
L 535.727638 81.604298 
L 536.695532 52.788595 
L 538.631319 85.720826 
L 539.599213 85.720826 
L 540.567106 93.953884 
L 541.535 81.604298 
L 541.535 81.604298 
" clip-path="url(#p62414e0724)" style="fill: none; stroke: #99004d; stroke-width: 0.8; stroke-linecap: square"/>
   </g>
   <g id="line2d_13">
    <path d="M 68.235 81.604298 
L 69.202894 73.37124 
L 70.170787 163.934876 
L 71.138681 69.254711 
L 72.106575 131.002645 
L 73.074468 180.400992 
L 74.042362 126.886116 
L 75.010256 184.517521 
L 75.978149 77.487769 
L 76.946043 52.788595 
L 77.913937 147.46876 
L 78.88183 131.002645 
L 79.849724 106.303471 
L 80.817618 139.235702 
L 81.785511 200.983636 
L 82.753405 52.788595 
L 83.721299 93.953884 
L 84.689192 61.021653 
L 85.657086 196.867107 
L 86.62498 98.070413 
L 87.592873 77.487769 
L 88.560767 73.37124 
L 89.528661 155.701818 
L 90.496554 85.720826 
L 91.464448 163.934876 
L 92.432342 126.886116 
L 93.400235 131.002645 
L 94.368129 77.487769 
L 95.336022 131.002645 
L 96.303916 61.021653 
L 97.27181 93.953884 
L 98.239703 131.002645 
L 99.207597 56.905124 
L 100.175491 118.653058 
L 101.143384 106.303471 
L 102.111278 131.002645 
L 103.079172 89.837355 
L 104.047065 176.284463 
L 105.014959 65.138182 
L 107.91864 126.886116 
L 108.886534 61.021653 
L 109.854427 131.002645 
L 110.822321 135.119174 
L 111.790215 56.905124 
L 112.758108 192.750579 
L 113.726002 102.186942 
L 114.693896 69.254711 
L 115.661789 77.487769 
L 116.629683 155.701818 
L 117.597577 180.400992 
L 118.56547 126.886116 
L 119.533364 188.63405 
L 120.501258 176.284463 
L 121.469151 122.769587 
L 122.437045 61.021653 
L 123.404939 131.002645 
L 124.372832 56.905124 
L 125.340726 65.138182 
L 126.30862 139.235702 
L 127.276513 159.818347 
L 128.244407 69.254711 
L 129.212301 122.769587 
L 130.180194 89.837355 
L 131.148088 163.934876 
L 132.115982 73.37124 
L 133.083875 110.42 
L 134.051769 98.070413 
L 135.019663 114.536529 
L 136.95545 81.604298 
L 137.923344 168.051405 
L 139.859131 151.585289 
L 140.827025 102.186942 
L 141.794918 184.517521 
L 142.762812 106.303471 
L 143.730706 77.487769 
L 144.698599 114.536529 
L 145.666493 106.303471 
L 146.634387 159.818347 
L 147.60228 85.720826 
L 149.538067 172.167934 
L 150.505961 89.837355 
L 151.473855 168.051405 
L 152.441748 85.720826 
L 153.409642 147.46876 
L 154.377536 126.886116 
L 155.345429 77.487769 
L 156.313323 126.886116 
L 157.281217 135.119174 
L 158.24911 65.138182 
L 159.217004 73.37124 
L 160.184898 102.186942 
L 161.152791 184.517521 
L 162.120685 77.487769 
L 163.088579 77.487769 
L 164.056472 118.653058 
L 165.024366 110.42 
L 165.99226 69.254711 
L 166.960153 73.37124 
L 167.928047 89.837355 
L 168.895941 61.021653 
L 169.863834 98.070413 
L 170.831728 102.186942 
L 171.799622 65.138182 
L 172.767515 147.46876 
L 173.735409 184.517521 
L 174.703303 48.672066 
L 175.671196 52.788595 
L 176.63909 110.42 
L 177.606984 159.818347 
L 178.574877 85.720826 
L 179.542771 73.37124 
L 180.510665 180.400992 
L 181.478558 98.070413 
L 182.446452 143.352231 
L 183.414346 85.720826 
L 184.382239 151.585289 
L 185.350133 69.254711 
L 186.318027 131.002645 
L 187.28592 93.953884 
L 188.253814 69.254711 
L 189.221708 151.585289 
L 190.189601 98.070413 
L 191.157495 77.487769 
L 192.125389 114.536529 
L 193.093282 81.604298 
L 194.061176 73.37124 
L 195.02907 69.254711 
L 195.996963 110.42 
L 196.964857 126.886116 
L 198.900644 184.517521 
L 199.868538 98.070413 
L 200.836431 163.934876 
L 201.804325 93.953884 
L 202.772219 69.254711 
L 203.740112 81.604298 
L 204.708006 77.487769 
L 205.6759 110.42 
L 206.643793 61.021653 
L 207.611687 52.788595 
L 208.579581 77.487769 
L 209.547474 196.867107 
L 210.515368 73.37124 
L 211.483262 69.254711 
L 212.451155 85.720826 
L 213.419049 81.604298 
L 214.386943 135.119174 
L 215.354836 126.886116 
L 216.32273 69.254711 
L 217.290624 77.487769 
L 218.258517 143.352231 
L 219.226411 151.585289 
L 220.194305 77.487769 
L 221.162198 114.536529 
L 222.130092 131.002645 
L 223.097986 69.254711 
L 224.065879 168.051405 
L 225.033773 168.051405 
L 226.001667 151.585289 
L 226.96956 143.352231 
L 227.937454 155.701818 
L 228.905348 65.138182 
L 229.873241 135.119174 
L 230.841135 188.63405 
L 231.809029 131.002645 
L 232.776922 61.021653 
L 233.744816 106.303471 
L 234.71271 118.653058 
L 235.680603 69.254711 
L 236.648497 159.818347 
L 237.616391 126.886116 
L 238.584284 114.536529 
L 239.552178 81.604298 
L 240.520072 139.235702 
L 241.487965 122.769587 
L 242.455859 102.186942 
L 243.423753 126.886116 
L 244.391646 73.37124 
L 245.35954 85.720826 
L 246.327434 131.002645 
L 247.295327 159.818347 
L 248.263221 69.254711 
L 249.231115 102.186942 
L 250.199008 89.837355 
L 251.166902 196.867107 
L 252.134796 114.536529 
L 253.102689 135.119174 
L 254.070583 81.604298 
L 255.038476 106.303471 
L 256.00637 163.934876 
L 256.974264 77.487769 
L 257.942157 168.051405 
L 258.910051 102.186942 
L 259.877945 118.653058 
L 260.845838 159.818347 
L 261.813732 159.818347 
L 262.781626 122.769587 
L 263.749519 155.701818 
L 264.717413 106.303471 
L 265.685307 89.837355 
L 266.6532 89.837355 
L 267.621094 200.983636 
L 268.588988 69.254711 
L 269.556881 81.604298 
L 270.524775 77.487769 
L 271.492669 184.517521 
L 272.460562 110.42 
L 273.428456 139.235702 
L 274.39635 135.119174 
L 275.364243 61.021653 
L 276.332137 163.934876 
L 277.300031 69.254711 
L 278.267924 73.37124 
L 279.235818 114.536529 
L 280.203712 61.021653 
L 281.171605 98.070413 
L 282.139499 122.769587 
L 283.107393 110.42 
L 284.075286 110.42 
L 285.04318 184.517521 
L 286.011074 73.37124 
L 286.978967 147.46876 
L 287.946861 56.905124 
L 288.914755 56.905124 
L 289.882648 131.002645 
L 290.850542 81.604298 
L 291.818436 102.186942 
L 292.786329 77.487769 
L 293.754223 126.886116 
L 294.722117 73.37124 
L 295.69001 143.352231 
L 296.657904 122.769587 
L 297.625798 89.837355 
L 298.593691 93.953884 
L 299.561585 188.63405 
L 300.529479 81.604298 
L 301.497372 98.070413 
L 302.465266 77.487769 
L 303.43316 102.186942 
L 304.401053 93.953884 
L 305.368947 200.983636 
L 306.33684 65.138182 
L 307.304734 69.254711 
L 308.272628 77.487769 
L 309.240521 126.886116 
L 310.208415 102.186942 
L 311.176309 85.720826 
L 312.144202 102.186942 
L 313.112096 159.818347 
L 314.07999 69.254711 
L 315.047883 143.352231 
L 316.015777 151.585289 
L 316.983671 110.42 
L 317.951564 85.720826 
L 318.919458 184.517521 
L 319.887352 85.720826 
L 320.855245 168.051405 
L 321.823139 85.720826 
L 322.791033 61.021653 
L 323.758926 163.934876 
L 324.72682 93.953884 
L 325.694714 61.021653 
L 326.662607 188.63405 
L 327.630501 122.769587 
L 328.598395 122.769587 
L 329.566288 110.42 
L 330.534182 73.37124 
L 331.502076 98.070413 
L 333.437863 65.138182 
L 334.405757 85.720826 
L 335.37365 77.487769 
L 336.341544 73.37124 
L 337.309438 135.119174 
L 338.277331 110.42 
L 339.245225 143.352231 
L 340.213119 102.186942 
L 341.181012 143.352231 
L 342.148906 151.585289 
L 343.1168 65.138182 
L 344.084693 52.788595 
L 345.052587 69.254711 
L 346.020481 163.934876 
L 346.988374 61.021653 
L 347.956268 122.769587 
L 348.924162 65.138182 
L 349.892055 69.254711 
L 350.859949 85.720826 
L 351.827843 98.070413 
L 352.795736 159.818347 
L 353.76363 77.487769 
L 354.731524 143.352231 
L 355.699417 69.254711 
L 357.635204 77.487769 
L 358.603098 126.886116 
L 359.570992 163.934876 
L 360.538885 98.070413 
L 362.474673 188.63405 
L 363.442566 93.953884 
L 364.41046 56.905124 
L 365.378354 118.653058 
L 366.346247 139.235702 
L 367.314141 172.167934 
L 368.282035 65.138182 
L 369.249928 155.701818 
L 370.217822 65.138182 
L 371.185716 151.585289 
L 372.153609 93.953884 
L 373.121503 81.604298 
L 374.089397 77.487769 
L 375.05729 110.42 
L 376.025184 69.254711 
L 376.993078 159.818347 
L 377.960971 77.487769 
L 379.896759 77.487769 
L 380.864652 135.119174 
L 381.832546 114.536529 
L 382.80044 168.051405 
L 384.736227 73.37124 
L 385.704121 98.070413 
L 386.672014 147.46876 
L 387.639908 114.536529 
L 388.607802 196.867107 
L 389.575695 106.303471 
L 390.543589 102.186942 
L 391.511483 77.487769 
L 392.479376 106.303471 
L 393.44727 196.867107 
L 394.415164 163.934876 
L 395.383057 61.021653 
L 396.350951 131.002645 
L 397.318845 77.487769 
L 398.286738 73.37124 
L 399.254632 65.138182 
L 400.222526 73.37124 
L 401.190419 176.284463 
L 402.158313 69.254711 
L 403.126207 69.254711 
L 404.0941 73.37124 
L 405.061994 93.953884 
L 406.029888 118.653058 
L 406.997781 184.517521 
L 407.965675 77.487769 
L 408.933569 106.303471 
L 409.901462 93.953884 
L 410.869356 114.536529 
L 411.837249 73.37124 
L 412.805143 77.487769 
L 413.773037 184.517521 
L 414.74093 81.604298 
L 415.708824 69.254711 
L 416.676718 143.352231 
L 417.644611 102.186942 
L 418.612505 77.487769 
L 419.580399 143.352231 
L 420.548292 89.837355 
L 421.516186 200.983636 
L 422.48408 131.002645 
L 423.451973 126.886116 
L 424.419867 69.254711 
L 425.387761 65.138182 
L 426.355654 52.788595 
L 427.323548 168.051405 
L 428.291442 77.487769 
L 429.259335 85.720826 
L 430.227229 118.653058 
L 431.195123 77.487769 
L 432.163016 118.653058 
L 433.13091 106.303471 
L 434.098804 73.37124 
L 435.066697 106.303471 
L 436.034591 89.837355 
L 437.002485 118.653058 
L 437.970378 73.37124 
L 438.938272 77.487769 
L 439.906166 131.002645 
L 440.874059 73.37124 
L 441.841953 126.886116 
L 442.809847 122.769587 
L 443.77774 131.002645 
L 444.745634 65.138182 
L 445.713528 93.953884 
L 446.681421 61.021653 
L 447.649315 93.953884 
L 448.617209 118.653058 
L 449.585102 89.837355 
L 450.552996 118.653058 
L 451.52089 61.021653 
L 452.488783 131.002645 
L 453.456677 135.119174 
L 454.424571 188.63405 
L 455.392464 77.487769 
L 456.360358 89.837355 
L 457.328252 163.934876 
L 458.296145 163.934876 
L 459.264039 155.701818 
L 460.231933 102.186942 
L 461.199826 122.769587 
L 462.16772 126.886116 
L 463.135613 85.720826 
L 464.103507 52.788595 
L 465.071401 188.63405 
L 466.039294 65.138182 
L 467.007188 155.701818 
L 467.975082 85.720826 
L 468.942975 102.186942 
L 469.910869 89.837355 
L 470.878763 98.070413 
L 471.846656 135.119174 
L 472.81455 89.837355 
L 473.782444 85.720826 
L 474.750337 69.254711 
L 475.718231 106.303471 
L 476.686125 110.42 
L 477.654018 69.254711 
L 478.621912 106.303471 
L 479.589806 69.254711 
L 480.557699 81.604298 
L 481.525593 147.46876 
L 482.493487 114.536529 
L 483.46138 85.720826 
L 484.429274 139.235702 
L 485.397168 118.653058 
L 486.365061 85.720826 
L 487.332955 135.119174 
L 488.300849 65.138182 
L 489.268742 184.517521 
L 490.236636 56.905124 
L 491.20453 77.487769 
L 492.172423 188.63405 
L 493.140317 81.604298 
L 494.108211 192.750579 
L 496.043998 69.254711 
L 497.011892 114.536529 
L 497.979785 81.604298 
L 498.947679 147.46876 
L 499.915573 126.886116 
L 500.883466 155.701818 
L 501.85136 139.235702 
L 502.819254 81.604298 
L 503.787147 77.487769 
L 504.755041 126.886116 
L 505.722935 69.254711 
L 506.690828 93.953884 
L 507.658722 143.352231 
L 508.626616 102.186942 
L 509.594509 102.186942 
L 510.562403 77.487769 
L 511.530297 126.886116 
L 512.49819 73.37124 
L 513.466084 69.254711 
L 514.433978 93.953884 
L 515.401871 180.400992 
L 516.369765 65.138182 
L 517.337658 143.352231 
L 518.305552 52.788595 
L 519.273446 106.303471 
L 520.241339 147.46876 
L 521.209233 110.42 
L 522.177127 98.070413 
L 523.14502 61.021653 
L 525.080808 102.186942 
L 526.048701 114.536529 
L 527.016595 188.63405 
L 527.984489 73.37124 
L 528.952382 89.837355 
L 529.920276 118.653058 
L 530.88817 81.604298 
L 531.856063 200.983636 
L 532.823957 81.604298 
L 533.791851 89.837355 
L 534.759744 172.167934 
L 535.727638 73.37124 
L 536.695532 77.487769 
L 537.663425 110.42 
L 538.631319 110.42 
L 539.599213 200.983636 
L 540.567106 77.487769 
L 541.535 114.536529 
L 541.535 114.536529 
" clip-path="url(#p62414e0724)" style="fill: none; stroke: #235996; stroke-width: 0.8; stroke-linecap: square"/>
   </g>
   <g id="patch_3">
    <path d="M 44.57 210.04 
L 44.57 10.8 
" style="fill: none; stroke: #000000; stroke-width: 0.8; stroke-linejoin: miter; stroke-linecap: square"/>
   </g>
   <g id="patch_4">
    <path d="M 565.2 210.04 
L 565.2 10.8 
" style="fill: none; stroke: #000000; stroke-width: 0.8; stroke-linejoin: miter; stroke-linecap: square"/>
   </g>
   <g id="patch_5">
    <path d="M 44.57 210.04 
L 565.2 210.04 
" style="fill: none; stroke: #000000; stroke-width: 0.8; stroke-linejoin: miter; stroke-linecap: square"/>
   </g>
   <g id="patch_6">
    <path d="M 44.57 10.8 
L 565.2 10.8 
" style="fill: none; stroke: #000000; stroke-width: 0.8; stroke-linejoin: miter; stroke-linecap: square"/>
   </g>
   <g id="legend_1">
    <g id="patch_7">
     <path d="M 156.8845 43.4565 
L 452.8855 43.4565 
Q 455.7655 43.4565 455.7655 40.5765 
L 455.7655 20.88 
Q 455.7655 18 452.8855 18 
L 156.8845 18 
Q 154.0045 18 154.0045 20.88 
L 154.0045 40.5765 
Q 154.0045 43.4565 156.8845 43.4565 
z
" style="fill: #ffffff; opacity: 0.8; stroke: #000000; stroke-linejoin: miter"/>
    </g>
    <g id="line2d_14">
     <path d="M 159.7645 29.66175 
L 174.1645 29.66175 
L 188.5645 29.66175 
" style="fill: none; stroke: #99004d; stroke-width: 0.8; stroke-linecap: square"/>
    </g>
    <g id="text_14">
     <text style="font: 14.4px 'DejaVu Sans', 'Bitstream Vera Sans', 'Computer Modern Sans Serif', 'Lucida Grande', 'Verdana', 'Geneva', 'Lucid', 'Arial', 'Helvetica', 'Avant Garde', sans-serif; text-anchor: start" x="200.0845" y="34.70175" transform="rotate(-0 200.0845 34.70175)">hw(random)</text>
    </g>
    <g id="line2d_15">
     <path d="M 316.873 29.66175 
L 331.273 29.66175 
L 345.673 29.66175 
" style="fill: none; stroke: #235996; stroke-width: 0.8; stroke-linecap: square"/>
    </g>
    <g id="text_15">
     <text style="font: 14.4px 'DejaVu Sans', 'Bitstream Vera Sans', 'Computer Modern Sans Serif', 'Lucida Grande', 'Verdana', 'Geneva', 'Lucid', 'Arial', 'Helvetica', 'Avant Garde', sans-serif; text-anchor: start" x="357.193" y="34.70175" transform="rotate(-0 357.193 34.70175)"> hw(HWGEN)</text>
    </g>
   </g>
  </g>
 </g>
 <defs>
  <clipPath id="p62414e0724">
   <rect x="44.57" y="10.8" width="520.63" height="199.24"/>
  </clipPath>
 </defs>
</svg>
