<?xml version="1.0" encoding="utf-8" standalone="no"?>
<!DOCTYPE svg PUBLIC "-//W3C//DTD SVG 1.1//EN"
  "http://www.w3.org/Graphics/SVG/1.1/DTD/svg11.dtd">
<svg xmlns:xlink="http://www.w3.org/1999/xlink" width="576pt" height="252pt" viewBox="0 0 576 252" xmlns="http://www.w3.org/2000/svg" version="1.1">
 <metadata>
  <rdf:RDF xmlns:dc="http://purl.org/dc/elements/1.1/" xmlns:cc="http://creativecommons.org/ns#" xmlns:rdf="http://www.w3.org/1999/02/22-rdf-syntax-ns#">
   <cc:Work>
    <dc:type rdf:resource="http://purl.org/dc/dcmitype/StillImage"/>
    <dc:date>2023-12-04T21:08:44.187595</dc:date>
    <dc:format>image/svg+xml</dc:format>
    <dc:creator>
     <cc:Agent>
      <dc:title>Matplotlib v3.7.4, https://matplotlib.org/</dc:title>
     </cc:Agent>
    </dc:creator>
   </cc:Work>
  </rdf:RDF>
 </metadata>
 <defs>
  <style type="text/css">*{stroke-linejoin: round; stroke-linecap: butt}</style>
 </defs>
 <g id="figure_1">
  <g id="patch_1">
   <path d="M 0 252 
L 576 252 
L 576 0 
L 0 0 
z
" style="fill: #ffffff"/>
  </g>
  <g id="axes_1">
   <g id="patch_2">
    <path d="M 44.57 210.04 
L 565.2 210.04 
L 565.2 10.8 
L 44.57 10.8 
z
" style="fill: #ffffff"/>
   </g>
   <g id="matplotlib.axis_1">
    <g id="xtick_1">
     <g id="line2d_1">
      <defs>
       <path id="m87699d85fe" d="M 0 0 
L 0 3.5 
" style="stroke: #000000; stroke-width: 0.8"/>
      </defs>
      <g>
       <use xlink:href="#m87699d85fe" x="68.235" y="210.04" style="stroke: #000000; stroke-width: 0.8"/>
      </g>
     </g>
     <g id="text_1">
      <text style="font: 10px 'DejaVu Sans', 'Bitstream Vera Sans', 'Computer Modern Sans Serif', 'Lucida Grande', 'Verdana', 'Geneva', 'Lucid', 'Arial', 'Helvetica', 'Avant Garde', sans-serif; text-anchor: middle" x="68.235" y="224.638438" transform="rotate(-0 68.235 224.638438)">0</text>
     </g>
    </g>
    <g id="xtick_2">
     <g id="line2d_2">
      <g>
       <use xlink:href="#m87699d85fe" x="165.024366" y="210.04" style="stroke: #000000; stroke-width: 0.8"/>
      </g>
     </g>
     <g id="text_2">
      <text style="font: 10px 'DejaVu Sans', 'Bitstream Vera Sans', 'Computer Modern Sans Serif', 'Lucida Grande', 'Verdana', 'Geneva', 'Lucid', 'Arial', 'Helvetica', 'Avant Garde', sans-serif; text-anchor: middle" x="165.024366" y="224.638438" transform="rotate(-0 165.024366 224.638438)">100</text>
     </g>
    </g>
    <g id="xtick_3">
     <g id="line2d_3">
      <g>
       <use xlink:href="#m87699d85fe" x="261.813732" y="210.04" style="stroke: #000000; stroke-width: 0.8"/>
      </g>
     </g>
     <g id="text_3">
      <text style="font: 10px 'DejaVu Sans', 'Bitstream Vera Sans', 'Computer Modern Sans Serif', 'Lucida Grande', 'Verdana', 'Geneva', 'Lucid', 'Arial', 'Helvetica', 'Avant Garde', sans-serif; text-anchor: middle" x="261.813732" y="224.638438" transform="rotate(-0 261.813732 224.638438)">200</text>
     </g>
    </g>
    <g id="xtick_4">
     <g id="line2d_4">
      <g>
       <use xlink:href="#m87699d85fe" x="358.603098" y="210.04" style="stroke: #000000; stroke-width: 0.8"/>
      </g>
     </g>
     <g id="text_4">
      <text style="font: 10px 'DejaVu Sans', 'Bitstream Vera Sans', 'Computer Modern Sans Serif', 'Lucida Grande', 'Verdana', 'Geneva', 'Lucid', 'Arial', 'Helvetica', 'Avant Garde', sans-serif; text-anchor: middle" x="358.603098" y="224.638438" transform="rotate(-0 358.603098 224.638438)">300</text>
     </g>
    </g>
    <g id="xtick_5">
     <g id="line2d_5">
      <g>
       <use xlink:href="#m87699d85fe" x="455.392464" y="210.04" style="stroke: #000000; stroke-width: 0.8"/>
      </g>
     </g>
     <g id="text_5">
      <text style="font: 10px 'DejaVu Sans', 'Bitstream Vera Sans', 'Computer Modern Sans Serif', 'Lucida Grande', 'Verdana', 'Geneva', 'Lucid', 'Arial', 'Helvetica', 'Avant Garde', sans-serif; text-anchor: middle" x="455.392464" y="224.638438" transform="rotate(-0 455.392464 224.638438)">400</text>
     </g>
    </g>
    <g id="xtick_6">
     <g id="line2d_6">
      <g>
       <use xlink:href="#m87699d85fe" x="552.18183" y="210.04" style="stroke: #000000; stroke-width: 0.8"/>
      </g>
     </g>
     <g id="text_6">
      <text style="font: 10px 'DejaVu Sans', 'Bitstream Vera Sans', 'Computer Modern Sans Serif', 'Lucida Grande', 'Verdana', 'Geneva', 'Lucid', 'Arial', 'Helvetica', 'Avant Garde', sans-serif; text-anchor: middle" x="552.18183" y="224.638438" transform="rotate(-0 552.18183 224.638438)">500</text>
     </g>
    </g>
    <g id="text_7">
     <text style="font: 10px 'DejaVu Sans', 'Bitstream Vera Sans', 'Computer Modern Sans Serif', 'Lucida Grande', 'Verdana', 'Geneva', 'Lucid', 'Arial', 'Helvetica', 'Avant Garde', sans-serif; text-anchor: middle" x="304.885" y="238.316563" transform="rotate(-0 304.885 238.316563)">Iterations</text>
    </g>
   </g>
   <g id="matplotlib.axis_2">
    <g id="ytick_1">
     <g id="line2d_7">
      <defs>
       <path id="me8491bbab3" d="M 0 0 
L -3.5 0 
" style="stroke: #000000; stroke-width: 0.8"/>
      </defs>
      <g>
       <use xlink:href="#me8491bbab3" x="44.57" y="200.983636" style="stroke: #000000; stroke-width: 0.8"/>
      </g>
     </g>
     <g id="text_8">
      <text style="font: 10px 'DejaVu Sans', 'Bitstream Vera Sans', 'Computer Modern Sans Serif', 'Lucida Grande', 'Verdana', 'Geneva', 'Lucid', 'Arial', 'Helvetica', 'Avant Garde', sans-serif; text-anchor: end" x="37.57" y="204.782855" transform="rotate(-0 37.57 204.782855)">0</text>
     </g>
    </g>
    <g id="ytick_2">
     <g id="line2d_8">
      <g>
       <use xlink:href="#me8491bbab3" x="44.57" y="159.818347" style="stroke: #000000; stroke-width: 0.8"/>
      </g>
     </g>
     <g id="text_9">
      <text style="font: 10px 'DejaVu Sans', 'Bitstream Vera Sans', 'Computer Modern Sans Serif', 'Lucida Grande', 'Verdana', 'Geneva', 'Lucid', 'Arial', 'Helvetica', 'Avant Garde', sans-serif; text-anchor: end" x="37.57" y="163.617566" transform="rotate(-0 37.57 163.617566)">10</text>
     </g>
    </g>
    <g id="ytick_3">
     <g id="line2d_9">
      <g>
       <use xlink:href="#me8491bbab3" x="44.57" y="118.653058" style="stroke: #000000; stroke-width: 0.8"/>
      </g>
     </g>
     <g id="text_10">
      <text style="font: 10px 'DejaVu Sans', 'Bitstream Vera Sans', 'Computer Modern Sans Serif', 'Lucida Grande', 'Verdana', 'Geneva', 'Lucid', 'Arial', 'Helvetica', 'Avant Garde', sans-serif; text-anchor: end" x="37.57" y="122.452277" transform="rotate(-0 37.57 122.452277)">20</text>
     </g>
    </g>
    <g id="ytick_4">
     <g id="line2d_10">
      <g>
       <use xlink:href="#me8491bbab3" x="44.57" y="77.487769" style="stroke: #000000; stroke-width: 0.8"/>
      </g>
     </g>
     <g id="text_11">
      <text style="font: 10px 'DejaVu Sans', 'Bitstream Vera Sans', 'Computer Modern Sans Serif', 'Lucida Grande', 'Verdana', 'Geneva', 'Lucid', 'Arial', 'Helvetica', 'Avant Garde', sans-serif; text-anchor: end" x="37.57" y="81.286987" transform="rotate(-0 37.57 81.286987)">30</text>
     </g>
    </g>
    <g id="ytick_5">
     <g id="line2d_11">
      <g>
       <use xlink:href="#me8491bbab3" x="44.57" y="36.322479" style="stroke: #000000; stroke-width: 0.8"/>
      </g>
     </g>
     <g id="text_12">
      <text style="font: 10px 'DejaVu Sans', 'Bitstream Vera Sans', 'Computer Modern Sans Serif', 'Lucida Grande', 'Verdana', 'Geneva', 'Lucid', 'Arial', 'Helvetica', 'Avant Garde', sans-serif; text-anchor: end" x="37.57" y="40.121698" transform="rotate(-0 37.57 40.121698)">40</text>
     </g>
    </g>
    <g id="text_13">
     <text style="font: 10px 'DejaVu Sans', 'Bitstream Vera Sans', 'Computer Modern Sans Serif', 'Lucida Grande', 'Verdana', 'Geneva', 'Lucid', 'Arial', 'Helvetica', 'Avant Garde', sans-serif; text-anchor: middle" x="18.765313" y="110.42" transform="rotate(-90 18.765313 110.42)">Randomness</text>
    </g>
   </g>
   <g id="line2d_12">
    <path d="M 68.235 61.021653 
L 69.202894 44.555537 
L 70.170787 61.021653 
L 71.138681 56.905124 
L 72.106575 73.37124 
L 73.074468 52.788595 
L 74.042362 81.604298 
L 75.010256 81.604298 
L 75.978149 44.555537 
L 76.946043 56.905124 
L 77.913937 85.720826 
L 78.88183 81.604298 
L 79.849724 65.138182 
L 80.817618 40.439008 
L 81.785511 65.138182 
L 82.753405 36.322479 
L 83.721299 93.953884 
L 84.689192 93.953884 
L 85.657086 32.20595 
L 87.592873 73.37124 
L 88.560767 73.37124 
L 89.528661 40.439008 
L 90.496554 89.837355 
L 91.464448 56.905124 
L 92.432342 69.254711 
L 93.400235 69.254711 
L 94.368129 65.138182 
L 95.336022 73.37124 
L 96.303916 69.254711 
L 97.27181 89.837355 
L 98.239703 65.138182 
L 99.207597 61.021653 
L 100.175491 81.604298 
L 101.143384 61.021653 
L 103.079172 69.254711 
L 104.047065 85.720826 
L 105.014959 40.439008 
L 105.982853 85.720826 
L 106.950746 52.788595 
L 107.91864 52.788595 
L 108.886534 77.487769 
L 109.854427 81.604298 
L 110.822321 36.322479 
L 111.790215 73.37124 
L 112.758108 73.37124 
L 113.726002 65.138182 
L 114.693896 93.953884 
L 115.661789 77.487769 
L 116.629683 56.905124 
L 117.597577 93.953884 
L 118.56547 52.788595 
L 119.533364 89.837355 
L 120.501258 52.788595 
L 121.469151 81.604298 
L 122.437045 77.487769 
L 123.404939 102.186942 
L 124.372832 28.089421 
L 125.340726 85.720826 
L 126.30862 98.070413 
L 127.276513 61.021653 
L 128.244407 52.788595 
L 129.212301 85.720826 
L 130.180194 56.905124 
L 131.148088 65.138182 
L 132.115982 98.070413 
L 133.083875 114.536529 
L 134.051769 52.788595 
L 135.019663 81.604298 
L 135.987556 85.720826 
L 136.95545 106.303471 
L 137.923344 65.138182 
L 138.891237 44.555537 
L 139.859131 65.138182 
L 140.827025 69.254711 
L 141.794918 77.487769 
L 142.762812 52.788595 
L 143.730706 52.788595 
L 144.698599 98.070413 
L 145.666493 69.254711 
L 146.634387 32.20595 
L 147.60228 65.138182 
L 149.538067 89.837355 
L 150.505961 65.138182 
L 151.473855 89.837355 
L 152.441748 93.953884 
L 153.409642 44.555537 
L 154.377536 65.138182 
L 155.345429 69.254711 
L 156.313323 65.138182 
L 159.217004 65.138182 
L 160.184898 98.070413 
L 161.152791 36.322479 
L 162.120685 48.672066 
L 163.088579 52.788595 
L 164.056472 102.186942 
L 165.024366 89.837355 
L 165.99226 56.905124 
L 167.928047 73.37124 
L 168.895941 73.37124 
L 169.863834 93.953884 
L 170.831728 73.37124 
L 171.799622 65.138182 
L 172.767515 106.303471 
L 173.735409 40.439008 
L 174.703303 56.905124 
L 175.671196 89.837355 
L 176.63909 69.254711 
L 177.606984 89.837355 
L 178.574877 52.788595 
L 179.542771 81.604298 
L 180.510665 102.186942 
L 181.478558 48.672066 
L 182.446452 44.555537 
L 183.414346 89.837355 
L 184.382239 93.953884 
L 185.350133 89.837355 
L 186.318027 73.37124 
L 187.28592 61.021653 
L 188.253814 65.138182 
L 189.221708 73.37124 
L 190.189601 89.837355 
L 191.157495 65.138182 
L 192.125389 93.953884 
L 193.093282 81.604298 
L 194.061176 81.604298 
L 195.02907 65.138182 
L 195.996963 65.138182 
L 196.964857 77.487769 
L 197.932751 73.37124 
L 198.900644 81.604298 
L 199.868538 28.089421 
L 200.836431 69.254711 
L 201.804325 61.021653 
L 202.772219 93.953884 
L 203.740112 81.604298 
L 204.708006 65.138182 
L 205.6759 56.905124 
L 206.643793 73.37124 
L 207.611687 61.021653 
L 208.579581 77.487769 
L 209.547474 73.37124 
L 210.515368 61.021653 
L 211.483262 89.837355 
L 212.451155 61.021653 
L 213.419049 81.604298 
L 214.386943 81.604298 
L 215.354836 52.788595 
L 216.32273 69.254711 
L 217.290624 73.37124 
L 218.258517 93.953884 
L 219.226411 73.37124 
L 220.194305 77.487769 
L 221.162198 65.138182 
L 222.130092 73.37124 
L 223.097986 69.254711 
L 224.065879 73.37124 
L 225.033773 65.138182 
L 226.001667 69.254711 
L 226.96956 102.186942 
L 227.937454 65.138182 
L 228.905348 65.138182 
L 229.873241 73.37124 
L 230.841135 56.905124 
L 231.809029 93.953884 
L 232.776922 102.186942 
L 233.744816 89.837355 
L 235.680603 56.905124 
L 236.648497 81.604298 
L 237.616391 69.254711 
L 238.584284 81.604298 
L 239.552178 61.021653 
L 240.520072 73.37124 
L 243.423753 48.672066 
L 244.391646 81.604298 
L 245.35954 48.672066 
L 246.327434 85.720826 
L 247.295327 85.720826 
L 248.263221 61.021653 
L 249.231115 73.37124 
L 250.199008 61.021653 
L 251.166902 69.254711 
L 252.134796 65.138182 
L 253.102689 81.604298 
L 254.070583 69.254711 
L 255.038476 77.487769 
L 256.00637 48.672066 
L 256.974264 48.672066 
L 257.942157 32.20595 
L 258.910051 77.487769 
L 259.877945 81.604298 
L 260.845838 48.672066 
L 261.813732 52.788595 
L 262.781626 73.37124 
L 263.749519 81.604298 
L 264.717413 85.720826 
L 265.685307 77.487769 
L 266.6532 93.953884 
L 267.621094 52.788595 
L 268.588988 69.254711 
L 269.556881 52.788595 
L 270.524775 28.089421 
L 271.492669 56.905124 
L 272.460562 40.439008 
L 274.39635 56.905124 
L 275.364243 40.439008 
L 276.332137 56.905124 
L 277.300031 52.788595 
L 278.267924 61.021653 
L 279.235818 89.837355 
L 280.203712 69.254711 
L 281.171605 85.720826 
L 282.139499 56.905124 
L 283.107393 61.021653 
L 284.075286 56.905124 
L 285.04318 77.487769 
L 286.011074 61.021653 
L 286.978967 77.487769 
L 287.946861 52.788595 
L 289.882648 52.788595 
L 290.850542 81.604298 
L 291.818436 61.021653 
L 292.786329 85.720826 
L 293.754223 52.788595 
L 294.722117 40.439008 
L 295.69001 52.788595 
L 296.657904 98.070413 
L 297.625798 65.138182 
L 298.593691 48.672066 
L 299.561585 73.37124 
L 300.529479 77.487769 
L 301.497372 61.021653 
L 302.465266 56.905124 
L 303.43316 56.905124 
L 304.401053 32.20595 
L 305.368947 44.555537 
L 306.33684 81.604298 
L 307.304734 89.837355 
L 308.272628 77.487769 
L 310.208415 61.021653 
L 311.176309 69.254711 
L 312.144202 52.788595 
L 313.112096 85.720826 
L 314.07999 61.021653 
L 315.047883 93.953884 
L 316.015777 81.604298 
L 316.983671 52.788595 
L 317.951564 48.672066 
L 318.919458 52.788595 
L 319.887352 81.604298 
L 320.855245 89.837355 
L 321.823139 106.303471 
L 322.791033 81.604298 
L 323.758926 89.837355 
L 324.72682 85.720826 
L 325.694714 89.837355 
L 326.662607 44.555537 
L 327.630501 73.37124 
L 328.598395 48.672066 
L 329.566288 56.905124 
L 330.534182 44.555537 
L 331.502076 73.37124 
L 332.469969 69.254711 
L 333.437863 61.021653 
L 334.405757 81.604298 
L 335.37365 65.138182 
L 336.341544 56.905124 
L 337.309438 93.953884 
L 338.277331 65.138182 
L 339.245225 73.37124 
L 340.213119 56.905124 
L 341.181012 110.42 
L 342.148906 61.021653 
L 343.1168 52.788595 
L 344.084693 61.021653 
L 345.052587 65.138182 
L 346.020481 89.837355 
L 346.988374 89.837355 
L 347.956268 69.254711 
L 348.924162 65.138182 
L 349.892055 69.254711 
L 350.859949 89.837355 
L 351.827843 89.837355 
L 352.795736 73.37124 
L 353.76363 98.070413 
L 354.731524 69.254711 
L 355.699417 61.021653 
L 356.667311 77.487769 
L 357.635204 69.254711 
L 358.603098 77.487769 
L 359.570992 52.788595 
L 360.538885 93.953884 
L 361.506779 65.138182 
L 362.474673 69.254711 
L 363.442566 81.604298 
L 364.41046 44.555537 
L 365.378354 89.837355 
L 366.346247 61.021653 
L 367.314141 89.837355 
L 368.282035 48.672066 
L 369.249928 56.905124 
L 370.217822 73.37124 
L 371.185716 77.487769 
L 372.153609 61.021653 
L 373.121503 89.837355 
L 374.089397 65.138182 
L 375.05729 89.837355 
L 376.025184 77.487769 
L 376.993078 89.837355 
L 377.960971 77.487769 
L 378.928865 61.021653 
L 379.896759 56.905124 
L 380.864652 77.487769 
L 381.832546 81.604298 
L 382.80044 61.021653 
L 383.768333 93.953884 
L 384.736227 61.021653 
L 385.704121 73.37124 
L 386.672014 56.905124 
L 387.639908 69.254711 
L 388.607802 73.37124 
L 390.543589 56.905124 
L 391.511483 89.837355 
L 392.479376 73.37124 
L 393.44727 69.254711 
L 394.415164 48.672066 
L 395.383057 73.37124 
L 396.350951 69.254711 
L 397.318845 69.254711 
L 398.286738 81.604298 
L 399.254632 65.138182 
L 400.222526 36.322479 
L 401.190419 73.37124 
L 402.158313 65.138182 
L 403.126207 73.37124 
L 404.0941 77.487769 
L 405.061994 73.37124 
L 406.029888 106.303471 
L 406.997781 77.487769 
L 407.965675 73.37124 
L 408.933569 48.672066 
L 409.901462 48.672066 
L 410.869356 85.720826 
L 411.837249 44.555537 
L 412.805143 52.788595 
L 413.773037 85.720826 
L 414.74093 56.905124 
L 415.708824 77.487769 
L 417.644611 77.487769 
L 418.612505 65.138182 
L 419.580399 61.021653 
L 421.516186 61.021653 
L 423.451973 85.720826 
L 424.419867 52.788595 
L 425.387761 56.905124 
L 426.355654 56.905124 
L 427.323548 36.322479 
L 428.291442 73.37124 
L 429.259335 85.720826 
L 430.227229 81.604298 
L 431.195123 89.837355 
L 432.163016 61.021653 
L 433.13091 52.788595 
L 434.098804 65.138182 
L 435.066697 85.720826 
L 436.034591 65.138182 
L 437.002485 56.905124 
L 437.970378 73.37124 
L 438.938272 56.905124 
L 439.906166 48.672066 
L 440.874059 69.254711 
L 441.841953 44.555537 
L 442.809847 69.254711 
L 443.77774 77.487769 
L 444.745634 52.788595 
L 445.713528 81.604298 
L 446.681421 81.604298 
L 447.649315 89.837355 
L 448.617209 69.254711 
L 449.585102 106.303471 
L 450.552996 102.186942 
L 451.52089 73.37124 
L 453.456677 65.138182 
L 454.424571 77.487769 
L 455.392464 61.021653 
L 456.360358 89.837355 
L 457.328252 77.487769 
L 458.296145 73.37124 
L 459.264039 52.788595 
L 460.231933 65.138182 
L 461.199826 65.138182 
L 462.16772 81.604298 
L 463.135613 73.37124 
L 464.103507 56.905124 
L 465.071401 69.254711 
L 466.039294 56.905124 
L 467.007188 89.837355 
L 467.975082 65.138182 
L 468.942975 69.254711 
L 469.910869 89.837355 
L 470.878763 77.487769 
L 471.846656 61.021653 
L 472.81455 93.953884 
L 473.782444 69.254711 
L 474.750337 36.322479 
L 475.718231 52.788595 
L 476.686125 73.37124 
L 477.654018 56.905124 
L 478.621912 61.021653 
L 479.589806 81.604298 
L 480.557699 65.138182 
L 481.525593 65.138182 
L 482.493487 73.37124 
L 484.429274 81.604298 
L 485.397168 81.604298 
L 488.300849 69.254711 
L 489.268742 77.487769 
L 490.236636 77.487769 
L 491.20453 73.37124 
L 492.172423 56.905124 
L 493.140317 52.788595 
L 494.108211 19.856364 
L 495.076104 52.788595 
L 496.043998 81.604298 
L 497.011892 44.555537 
L 497.979785 56.905124 
L 498.947679 44.555537 
L 499.915573 77.487769 
L 500.883466 61.021653 
L 501.85136 69.254711 
L 502.819254 81.604298 
L 503.787147 56.905124 
L 504.755041 52.788595 
L 505.722935 73.37124 
L 506.690828 65.138182 
L 507.658722 28.089421 
L 509.594509 106.303471 
L 510.562403 61.021653 
L 511.530297 69.254711 
L 512.49819 52.788595 
L 513.466084 56.905124 
L 514.433978 89.837355 
L 515.401871 56.905124 
L 516.369765 52.788595 
L 517.337658 93.953884 
L 518.305552 69.254711 
L 519.273446 36.322479 
L 520.241339 85.720826 
L 521.209233 69.254711 
L 522.177127 65.138182 
L 523.14502 77.487769 
L 525.080808 61.021653 
L 526.048701 77.487769 
L 527.016595 40.439008 
L 527.984489 44.555537 
L 528.952382 52.788595 
L 529.920276 65.138182 
L 530.88817 89.837355 
L 531.856063 56.905124 
L 532.823957 69.254711 
L 533.791851 69.254711 
L 534.759744 89.837355 
L 536.695532 65.138182 
L 537.663425 69.254711 
L 538.631319 56.905124 
L 539.599213 77.487769 
L 540.567106 69.254711 
L 541.535 73.37124 
L 541.535 73.37124 
" clip-path="url(#p8644379142)" style="fill: none; stroke: #99004d; stroke-width: 0.8; stroke-linecap: square"/>
   </g>
   <g id="line2d_13">
    <path d="M 68.235 196.867107 
L 69.202894 77.487769 
L 70.170787 85.720826 
L 71.138681 77.487769 
L 72.106575 102.186942 
L 73.074468 81.604298 
L 74.042362 81.604298 
L 75.010256 151.585289 
L 75.978149 151.585289 
L 76.946043 135.119174 
L 77.913937 85.720826 
L 78.88183 180.400992 
L 79.849724 155.701818 
L 80.817618 73.37124 
L 81.785511 131.002645 
L 82.753405 106.303471 
L 83.721299 172.167934 
L 84.689192 81.604298 
L 85.657086 77.487769 
L 86.62498 135.119174 
L 87.592873 131.002645 
L 88.560767 65.138182 
L 89.528661 89.837355 
L 90.496554 65.138182 
L 91.464448 163.934876 
L 92.432342 98.070413 
L 93.400235 110.42 
L 94.368129 147.46876 
L 95.336022 61.021653 
L 96.303916 114.536529 
L 97.27181 65.138182 
L 98.239703 192.750579 
L 99.207597 114.536529 
L 100.175491 106.303471 
L 101.143384 102.186942 
L 102.111278 172.167934 
L 103.079172 131.002645 
L 104.047065 61.021653 
L 105.014959 77.487769 
L 105.982853 188.63405 
L 106.950746 56.905124 
L 107.91864 73.37124 
L 108.886534 81.604298 
L 109.854427 118.653058 
L 110.822321 56.905124 
L 111.790215 89.837355 
L 112.758108 61.021653 
L 113.726002 114.536529 
L 114.693896 65.138182 
L 115.661789 122.769587 
L 116.629683 61.021653 
L 117.597577 73.37124 
L 118.56547 200.983636 
L 119.533364 93.953884 
L 120.501258 163.934876 
L 121.469151 89.837355 
L 122.437045 131.002645 
L 123.404939 69.254711 
L 124.372832 139.235702 
L 125.340726 89.837355 
L 126.30862 69.254711 
L 127.276513 61.021653 
L 128.244407 172.167934 
L 129.212301 93.953884 
L 130.180194 81.604298 
L 131.148088 131.002645 
L 132.115982 93.953884 
L 133.083875 196.867107 
L 134.051769 52.788595 
L 135.019663 135.119174 
L 135.987556 89.837355 
L 136.95545 89.837355 
L 138.891237 106.303471 
L 139.859131 172.167934 
L 140.827025 77.487769 
L 141.794918 61.021653 
L 142.762812 65.138182 
L 143.730706 168.051405 
L 144.698599 147.46876 
L 145.666493 155.701818 
L 146.634387 159.818347 
L 147.60228 135.119174 
L 148.570174 93.953884 
L 149.538067 93.953884 
L 150.505961 159.818347 
L 151.473855 77.487769 
L 152.441748 126.886116 
L 153.409642 139.235702 
L 154.377536 81.604298 
L 155.345429 118.653058 
L 156.313323 81.604298 
L 158.24911 73.37124 
L 159.217004 73.37124 
L 160.184898 81.604298 
L 162.120685 114.536529 
L 163.088579 155.701818 
L 164.056472 65.138182 
L 165.024366 122.769587 
L 165.99226 69.254711 
L 166.960153 147.46876 
L 167.928047 135.119174 
L 168.895941 52.788595 
L 169.863834 93.953884 
L 170.831728 73.37124 
L 171.799622 81.604298 
L 173.735409 65.138182 
L 174.703303 77.487769 
L 175.671196 69.254711 
L 176.63909 151.585289 
L 177.606984 106.303471 
L 178.574877 81.604298 
L 179.542771 118.653058 
L 180.510665 73.37124 
L 181.478558 196.867107 
L 182.446452 69.254711 
L 183.414346 81.604298 
L 184.382239 85.720826 
L 185.350133 77.487769 
L 186.318027 93.953884 
L 187.28592 69.254711 
L 188.253814 85.720826 
L 189.221708 188.63405 
L 190.189601 77.487769 
L 191.157495 139.235702 
L 192.125389 102.186942 
L 193.093282 139.235702 
L 194.061176 139.235702 
L 195.02907 131.002645 
L 195.996963 65.138182 
L 196.964857 69.254711 
L 197.932751 69.254711 
L 198.900644 102.186942 
L 199.868538 89.837355 
L 200.836431 200.983636 
L 201.804325 93.953884 
L 202.772219 65.138182 
L 203.740112 85.720826 
L 204.708006 159.818347 
L 205.6759 81.604298 
L 206.643793 89.837355 
L 207.611687 126.886116 
L 208.579581 69.254711 
L 209.547474 106.303471 
L 210.515368 85.720826 
L 212.451155 126.886116 
L 213.419049 126.886116 
L 214.386943 106.303471 
L 215.354836 93.953884 
L 216.32273 114.536529 
L 217.290624 69.254711 
L 218.258517 85.720826 
L 219.226411 69.254711 
L 220.194305 143.352231 
L 221.162198 106.303471 
L 222.130092 77.487769 
L 223.097986 131.002645 
L 224.065879 73.37124 
L 225.033773 85.720826 
L 226.001667 168.051405 
L 226.96956 126.886116 
L 227.937454 151.585289 
L 228.905348 61.021653 
L 229.873241 77.487769 
L 230.841135 163.934876 
L 231.809029 61.021653 
L 232.776922 89.837355 
L 233.744816 180.400992 
L 234.71271 65.138182 
L 235.680603 77.487769 
L 236.648497 77.487769 
L 237.616391 176.284463 
L 239.552178 77.487769 
L 240.520072 192.750579 
L 241.487965 73.37124 
L 242.455859 93.953884 
L 243.423753 155.701818 
L 244.391646 163.934876 
L 245.35954 81.604298 
L 246.327434 110.42 
L 247.295327 135.119174 
L 248.263221 118.653058 
L 249.231115 180.400992 
L 250.199008 163.934876 
L 251.166902 110.42 
L 252.134796 85.720826 
L 253.102689 81.604298 
L 254.070583 151.585289 
L 255.038476 106.303471 
L 256.00637 102.186942 
L 256.974264 69.254711 
L 257.942157 122.769587 
L 258.910051 73.37124 
L 259.877945 93.953884 
L 260.845838 139.235702 
L 261.813732 77.487769 
L 262.781626 56.905124 
L 263.749519 73.37124 
L 264.717413 180.400992 
L 265.685307 110.42 
L 266.6532 65.138182 
L 267.621094 184.517521 
L 268.588988 77.487769 
L 269.556881 77.487769 
L 270.524775 188.63405 
L 271.492669 89.837355 
L 272.460562 163.934876 
L 273.428456 85.720826 
L 274.39635 147.46876 
L 275.364243 73.37124 
L 276.332137 122.769587 
L 277.300031 126.886116 
L 278.267924 85.720826 
L 279.235818 106.303471 
L 280.203712 77.487769 
L 281.171605 89.837355 
L 282.139499 135.119174 
L 283.107393 81.604298 
L 284.075286 81.604298 
L 285.04318 65.138182 
L 286.011074 98.070413 
L 286.978967 77.487769 
L 287.946861 85.720826 
L 288.914755 102.186942 
L 289.882648 163.934876 
L 290.850542 73.37124 
L 291.818436 69.254711 
L 292.786329 188.63405 
L 293.754223 172.167934 
L 294.722117 143.352231 
L 295.69001 69.254711 
L 296.657904 73.37124 
L 297.625798 147.46876 
L 298.593691 122.769587 
L 299.561585 69.254711 
L 300.529479 69.254711 
L 301.497372 56.905124 
L 302.465266 85.720826 
L 303.43316 180.400992 
L 304.401053 77.487769 
L 305.368947 126.886116 
L 306.33684 69.254711 
L 308.272628 159.818347 
L 309.240521 77.487769 
L 310.208415 73.37124 
L 311.176309 106.303471 
L 312.144202 73.37124 
L 313.112096 168.051405 
L 314.07999 131.002645 
L 315.047883 188.63405 
L 316.015777 110.42 
L 316.983671 122.769587 
L 317.951564 61.021653 
L 318.919458 89.837355 
L 319.887352 93.953884 
L 320.855245 65.138182 
L 321.823139 151.585289 
L 322.791033 143.352231 
L 323.758926 188.63405 
L 324.72682 135.119174 
L 325.694714 147.46876 
L 326.662607 77.487769 
L 327.630501 77.487769 
L 328.598395 114.536529 
L 329.566288 102.186942 
L 330.534182 196.867107 
L 331.502076 102.186942 
L 332.469969 106.303471 
L 333.437863 192.750579 
L 334.405757 143.352231 
L 335.37365 180.400992 
L 337.309438 139.235702 
L 338.277331 147.46876 
L 339.245225 52.788595 
L 340.213119 81.604298 
L 341.181012 200.983636 
L 343.1168 106.303471 
L 344.084693 106.303471 
L 345.052587 151.585289 
L 346.020481 106.303471 
L 346.988374 135.119174 
L 347.956268 61.021653 
L 348.924162 65.138182 
L 349.892055 73.37124 
L 350.859949 93.953884 
L 351.827843 184.517521 
L 352.795736 143.352231 
L 353.76363 114.536529 
L 354.731524 77.487769 
L 355.699417 89.837355 
L 356.667311 188.63405 
L 357.635204 81.604298 
L 358.603098 93.953884 
L 359.570992 163.934876 
L 360.538885 126.886116 
L 361.506779 81.604298 
L 362.474673 118.653058 
L 363.442566 114.536529 
L 364.41046 122.769587 
L 365.378354 176.284463 
L 366.346247 89.837355 
L 367.314141 122.769587 
L 368.282035 188.63405 
L 369.249928 192.750579 
L 370.217822 81.604298 
L 371.185716 106.303471 
L 372.153609 73.37124 
L 373.121503 188.63405 
L 374.089397 192.750579 
L 375.05729 168.051405 
L 376.025184 73.37124 
L 376.993078 69.254711 
L 377.960971 143.352231 
L 378.928865 196.867107 
L 379.896759 56.905124 
L 380.864652 73.37124 
L 381.832546 81.604298 
L 382.80044 98.070413 
L 383.768333 85.720826 
L 384.736227 135.119174 
L 385.704121 73.37124 
L 386.672014 73.37124 
L 387.639908 180.400992 
L 388.607802 131.002645 
L 389.575695 114.536529 
L 390.543589 73.37124 
L 391.511483 81.604298 
L 392.479376 143.352231 
L 393.44727 69.254711 
L 394.415164 69.254711 
L 395.383057 89.837355 
L 396.350951 73.37124 
L 397.318845 98.070413 
L 398.286738 118.653058 
L 399.254632 168.051405 
L 400.222526 151.585289 
L 401.190419 69.254711 
L 402.158313 98.070413 
L 403.126207 180.400992 
L 404.0941 65.138182 
L 405.061994 73.37124 
L 406.029888 69.254711 
L 406.997781 77.487769 
L 407.965675 118.653058 
L 408.933569 81.604298 
L 409.901462 151.585289 
L 410.869356 131.002645 
L 411.837249 106.303471 
L 412.805143 56.905124 
L 413.773037 172.167934 
L 414.74093 200.983636 
L 415.708824 85.720826 
L 416.676718 159.818347 
L 417.644611 172.167934 
L 418.612505 93.953884 
L 419.580399 52.788595 
L 420.548292 118.653058 
L 421.516186 40.439008 
L 422.48408 98.070413 
L 423.451973 184.517521 
L 424.419867 122.769587 
L 425.387761 151.585289 
L 426.355654 192.750579 
L 427.323548 56.905124 
L 428.291442 77.487769 
L 429.259335 147.46876 
L 430.227229 155.701818 
L 431.195123 106.303471 
L 432.163016 102.186942 
L 433.13091 69.254711 
L 434.098804 196.867107 
L 435.066697 98.070413 
L 436.034591 77.487769 
L 437.002485 159.818347 
L 437.970378 159.818347 
L 438.938272 89.837355 
L 439.906166 200.983636 
L 440.874059 159.818347 
L 441.841953 131.002645 
L 442.809847 77.487769 
L 443.77774 56.905124 
L 444.745634 85.720826 
L 445.713528 131.002645 
L 446.681421 143.352231 
L 447.649315 65.138182 
L 448.617209 73.37124 
L 449.585102 102.186942 
L 450.552996 172.167934 
L 451.52089 73.37124 
L 452.488783 126.886116 
L 453.456677 172.167934 
L 454.424571 106.303471 
L 455.392464 52.788595 
L 456.360358 69.254711 
L 457.328252 110.42 
L 458.296145 77.487769 
L 459.264039 200.983636 
L 460.231933 77.487769 
L 461.199826 159.818347 
L 462.16772 81.604298 
L 463.135613 143.352231 
L 464.103507 69.254711 
L 465.071401 69.254711 
L 466.039294 77.487769 
L 467.007188 163.934876 
L 467.975082 61.021653 
L 468.942975 93.953884 
L 469.910869 102.186942 
L 470.878763 151.585289 
L 471.846656 122.769587 
L 472.81455 77.487769 
L 473.782444 184.517521 
L 474.750337 93.953884 
L 475.718231 176.284463 
L 476.686125 73.37124 
L 477.654018 85.720826 
L 478.621912 122.769587 
L 479.589806 69.254711 
L 480.557699 77.487769 
L 481.525593 155.701818 
L 482.493487 73.37124 
L 483.46138 159.818347 
L 484.429274 93.953884 
L 485.397168 69.254711 
L 486.365061 81.604298 
L 487.332955 61.021653 
L 489.268742 147.46876 
L 490.236636 77.487769 
L 491.20453 122.769587 
L 492.172423 81.604298 
L 494.108211 180.400992 
L 495.076104 159.818347 
L 496.043998 180.400992 
L 497.011892 168.051405 
L 497.979785 139.235702 
L 498.947679 102.186942 
L 499.915573 85.720826 
L 500.883466 147.46876 
L 501.85136 143.352231 
L 502.819254 168.051405 
L 503.787147 180.400992 
L 504.755041 98.070413 
L 505.722935 73.37124 
L 506.690828 168.051405 
L 507.658722 155.701818 
L 508.626616 69.254711 
L 509.594509 102.186942 
L 510.562403 77.487769 
L 511.530297 73.37124 
L 512.49819 163.934876 
L 513.466084 102.186942 
L 514.433978 69.254711 
L 515.401871 85.720826 
L 516.369765 192.750579 
L 517.337658 81.604298 
L 518.305552 89.837355 
L 519.273446 106.303471 
L 520.241339 200.983636 
L 521.209233 200.983636 
L 522.177127 77.487769 
L 523.14502 65.138182 
L 524.112914 106.303471 
L 525.080808 61.021653 
L 526.048701 102.186942 
L 527.016595 73.37124 
L 528.952382 89.837355 
L 529.920276 118.653058 
L 530.88817 110.42 
L 531.856063 159.818347 
L 532.823957 151.585289 
L 533.791851 114.536529 
L 534.759744 110.42 
L 535.727638 168.051405 
L 536.695532 139.235702 
L 537.663425 172.167934 
L 538.631319 56.905124 
L 539.599213 126.886116 
L 540.567106 77.487769 
L 541.535 163.934876 
L 541.535 163.934876 
" clip-path="url(#p8644379142)" style="fill: none; stroke: #235996; stroke-width: 0.8; stroke-linecap: square"/>
   </g>
   <g id="patch_3">
    <path d="M 44.57 210.04 
L 44.57 10.8 
" style="fill: none; stroke: #000000; stroke-width: 0.8; stroke-linejoin: miter; stroke-linecap: square"/>
   </g>
   <g id="patch_4">
    <path d="M 565.2 210.04 
L 565.2 10.8 
" style="fill: none; stroke: #000000; stroke-width: 0.8; stroke-linejoin: miter; stroke-linecap: square"/>
   </g>
   <g id="patch_5">
    <path d="M 44.57 210.04 
L 565.2 210.04 
" style="fill: none; stroke: #000000; stroke-width: 0.8; stroke-linejoin: miter; stroke-linecap: square"/>
   </g>
   <g id="patch_6">
    <path d="M 44.57 10.8 
L 565.2 10.8 
" style="fill: none; stroke: #000000; stroke-width: 0.8; stroke-linejoin: miter; stroke-linecap: square"/>
   </g>
   <g id="legend_1">
    <g id="patch_7">
     <path d="M 156.8845 43.4565 
L 452.8855 43.4565 
Q 455.7655 43.4565 455.7655 40.5765 
L 455.7655 20.88 
Q 455.7655 18 452.8855 18 
L 156.8845 18 
Q 154.0045 18 154.0045 20.88 
L 154.0045 40.5765 
Q 154.0045 43.4565 156.8845 43.4565 
z
" style="fill: #ffffff; opacity: 0.8; stroke: #000000; stroke-linejoin: miter"/>
    </g>
    <g id="line2d_14">
     <path d="M 159.7645 29.66175 
L 174.1645 29.66175 
L 188.5645 29.66175 
" style="fill: none; stroke: #99004d; stroke-width: 0.8; stroke-linecap: square"/>
    </g>
    <g id="text_14">
     <text style="font: 14.4px 'DejaVu Sans', 'Bitstream Vera Sans', 'Computer Modern Sans Serif', 'Lucida Grande', 'Verdana', 'Geneva', 'Lucid', 'Arial', 'Helvetica', 'Avant Garde', sans-serif; text-anchor: start" x="200.0845" y="34.70175" transform="rotate(-0 200.0845 34.70175)">hw(random)</text>
    </g>
    <g id="line2d_15">
     <path d="M 316.873 29.66175 
L 331.273 29.66175 
L 345.673 29.66175 
" style="fill: none; stroke: #235996; stroke-width: 0.8; stroke-linecap: square"/>
    </g>
    <g id="text_15">
     <text style="font: 14.4px 'DejaVu Sans', 'Bitstream Vera Sans', 'Computer Modern Sans Serif', 'Lucida Grande', 'Verdana', 'Geneva', 'Lucid', 'Arial', 'Helvetica', 'Avant Garde', sans-serif; text-anchor: start" x="357.193" y="34.70175" transform="rotate(-0 357.193 34.70175)"> hw(HWGEN)</text>
    </g>
   </g>
  </g>
 </g>
 <defs>
  <clipPath id="p8644379142">
   <rect x="44.57" y="10.8" width="520.63" height="199.24"/>
  </clipPath>
 </defs>
</svg>
