<?xml version="1.0" encoding="utf-8" standalone="no"?>
<!DOCTYPE svg PUBLIC "-//W3C//DTD SVG 1.1//EN"
  "http://www.w3.org/Graphics/SVG/1.1/DTD/svg11.dtd">
<svg xmlns:xlink="http://www.w3.org/1999/xlink" width="576pt" height="252pt" viewBox="0 0 576 252" xmlns="http://www.w3.org/2000/svg" version="1.1">
 <metadata>
  <rdf:RDF xmlns:dc="http://purl.org/dc/elements/1.1/" xmlns:cc="http://creativecommons.org/ns#" xmlns:rdf="http://www.w3.org/1999/02/22-rdf-syntax-ns#">
   <cc:Work>
    <dc:type rdf:resource="http://purl.org/dc/dcmitype/StillImage"/>
    <dc:date>2025-04-10T15:43:35.564595</dc:date>
    <dc:format>image/svg+xml</dc:format>
    <dc:creator>
     <cc:Agent>
      <dc:title>Matplotlib v3.7.5, https://matplotlib.org/</dc:title>
     </cc:Agent>
    </dc:creator>
   </cc:Work>
  </rdf:RDF>
 </metadata>
 <defs>
  <style type="text/css">*{stroke-linejoin: round; stroke-linecap: butt}</style>
 </defs>
 <g id="figure_1">
  <g id="patch_1">
   <path d="M 0 252 
L 576 252 
L 576 0 
L 0 0 
z
" style="fill: #ffffff"/>
  </g>
  <g id="axes_1">
   <g id="patch_2">
    <path d="M 44.57 210.04 
L 565.2 210.04 
L 565.2 10.8 
L 44.57 10.8 
z
" style="fill: #ffffff"/>
   </g>
   <g id="matplotlib.axis_1">
    <g id="xtick_1">
     <g id="line2d_1">
      <defs>
       <path id="m6737a7b2e9" d="M 0 0 
L 0 3.5 
" style="stroke: #000000; stroke-width: 0.8"/>
      </defs>
      <g>
       <use xlink:href="#m6737a7b2e9" x="68.235" y="210.04" style="stroke: #000000; stroke-width: 0.8"/>
      </g>
     </g>
     <g id="text_1">
      <text style="font: 10px 'DejaVu Sans', 'Bitstream Vera Sans', 'Computer Modern Sans Serif', 'Lucida Grande', 'Verdana', 'Geneva', 'Lucid', 'Arial', 'Helvetica', 'Avant Garde', sans-serif; text-anchor: middle" x="68.235" y="224.638438" transform="rotate(-0 68.235 224.638438)">0</text>
     </g>
    </g>
    <g id="xtick_2">
     <g id="line2d_2">
      <g>
       <use xlink:href="#m6737a7b2e9" x="165.024366" y="210.04" style="stroke: #000000; stroke-width: 0.8"/>
      </g>
     </g>
     <g id="text_2">
      <text style="font: 10px 'DejaVu Sans', 'Bitstream Vera Sans', 'Computer Modern Sans Serif', 'Lucida Grande', 'Verdana', 'Geneva', 'Lucid', 'Arial', 'Helvetica', 'Avant Garde', sans-serif; text-anchor: middle" x="165.024366" y="224.638438" transform="rotate(-0 165.024366 224.638438)">100</text>
     </g>
    </g>
    <g id="xtick_3">
     <g id="line2d_3">
      <g>
       <use xlink:href="#m6737a7b2e9" x="261.813732" y="210.04" style="stroke: #000000; stroke-width: 0.8"/>
      </g>
     </g>
     <g id="text_3">
      <text style="font: 10px 'DejaVu Sans', 'Bitstream Vera Sans', 'Computer Modern Sans Serif', 'Lucida Grande', 'Verdana', 'Geneva', 'Lucid', 'Arial', 'Helvetica', 'Avant Garde', sans-serif; text-anchor: middle" x="261.813732" y="224.638438" transform="rotate(-0 261.813732 224.638438)">200</text>
     </g>
    </g>
    <g id="xtick_4">
     <g id="line2d_4">
      <g>
       <use xlink:href="#m6737a7b2e9" x="358.603098" y="210.04" style="stroke: #000000; stroke-width: 0.8"/>
      </g>
     </g>
     <g id="text_4">
      <text style="font: 10px 'DejaVu Sans', 'Bitstream Vera Sans', 'Computer Modern Sans Serif', 'Lucida Grande', 'Verdana', 'Geneva', 'Lucid', 'Arial', 'Helvetica', 'Avant Garde', sans-serif; text-anchor: middle" x="358.603098" y="224.638438" transform="rotate(-0 358.603098 224.638438)">300</text>
     </g>
    </g>
    <g id="xtick_5">
     <g id="line2d_5">
      <g>
       <use xlink:href="#m6737a7b2e9" x="455.392464" y="210.04" style="stroke: #000000; stroke-width: 0.8"/>
      </g>
     </g>
     <g id="text_5">
      <text style="font: 10px 'DejaVu Sans', 'Bitstream Vera Sans', 'Computer Modern Sans Serif', 'Lucida Grande', 'Verdana', 'Geneva', 'Lucid', 'Arial', 'Helvetica', 'Avant Garde', sans-serif; text-anchor: middle" x="455.392464" y="224.638438" transform="rotate(-0 455.392464 224.638438)">400</text>
     </g>
    </g>
    <g id="xtick_6">
     <g id="line2d_6">
      <g>
       <use xlink:href="#m6737a7b2e9" x="552.18183" y="210.04" style="stroke: #000000; stroke-width: 0.8"/>
      </g>
     </g>
     <g id="text_6">
      <text style="font: 10px 'DejaVu Sans', 'Bitstream Vera Sans', 'Computer Modern Sans Serif', 'Lucida Grande', 'Verdana', 'Geneva', 'Lucid', 'Arial', 'Helvetica', 'Avant Garde', sans-serif; text-anchor: middle" x="552.18183" y="224.638438" transform="rotate(-0 552.18183 224.638438)">500</text>
     </g>
    </g>
    <g id="text_7">
     <text style="font: 10px 'DejaVu Sans', 'Bitstream Vera Sans', 'Computer Modern Sans Serif', 'Lucida Grande', 'Verdana', 'Geneva', 'Lucid', 'Arial', 'Helvetica', 'Avant Garde', sans-serif; text-anchor: middle" x="304.885" y="238.316563" transform="rotate(-0 304.885 238.316563)">Iterations</text>
    </g>
   </g>
   <g id="matplotlib.axis_2">
    <g id="ytick_1">
     <g id="line2d_7">
      <defs>
       <path id="mf2060e6ed2" d="M 0 0 
L -3.5 0 
" style="stroke: #000000; stroke-width: 0.8"/>
      </defs>
      <g>
       <use xlink:href="#mf2060e6ed2" x="44.57" y="200.983636" style="stroke: #000000; stroke-width: 0.8"/>
      </g>
     </g>
     <g id="text_8">
      <text style="font: 10px 'DejaVu Sans', 'Bitstream Vera Sans', 'Computer Modern Sans Serif', 'Lucida Grande', 'Verdana', 'Geneva', 'Lucid', 'Arial', 'Helvetica', 'Avant Garde', sans-serif; text-anchor: end" x="37.57" y="204.782855" transform="rotate(-0 37.57 204.782855)">0</text>
     </g>
    </g>
    <g id="ytick_2">
     <g id="line2d_8">
      <g>
       <use xlink:href="#mf2060e6ed2" x="44.57" y="159.818347" style="stroke: #000000; stroke-width: 0.8"/>
      </g>
     </g>
     <g id="text_9">
      <text style="font: 10px 'DejaVu Sans', 'Bitstream Vera Sans', 'Computer Modern Sans Serif', 'Lucida Grande', 'Verdana', 'Geneva', 'Lucid', 'Arial', 'Helvetica', 'Avant Garde', sans-serif; text-anchor: end" x="37.57" y="163.617566" transform="rotate(-0 37.57 163.617566)">10</text>
     </g>
    </g>
    <g id="ytick_3">
     <g id="line2d_9">
      <g>
       <use xlink:href="#mf2060e6ed2" x="44.57" y="118.653058" style="stroke: #000000; stroke-width: 0.8"/>
      </g>
     </g>
     <g id="text_10">
      <text style="font: 10px 'DejaVu Sans', 'Bitstream Vera Sans', 'Computer Modern Sans Serif', 'Lucida Grande', 'Verdana', 'Geneva', 'Lucid', 'Arial', 'Helvetica', 'Avant Garde', sans-serif; text-anchor: end" x="37.57" y="122.452277" transform="rotate(-0 37.57 122.452277)">20</text>
     </g>
    </g>
    <g id="ytick_4">
     <g id="line2d_10">
      <g>
       <use xlink:href="#mf2060e6ed2" x="44.57" y="77.487769" style="stroke: #000000; stroke-width: 0.8"/>
      </g>
     </g>
     <g id="text_11">
      <text style="font: 10px 'DejaVu Sans', 'Bitstream Vera Sans', 'Computer Modern Sans Serif', 'Lucida Grande', 'Verdana', 'Geneva', 'Lucid', 'Arial', 'Helvetica', 'Avant Garde', sans-serif; text-anchor: end" x="37.57" y="81.286987" transform="rotate(-0 37.57 81.286987)">30</text>
     </g>
    </g>
    <g id="ytick_5">
     <g id="line2d_11">
      <g>
       <use xlink:href="#mf2060e6ed2" x="44.57" y="36.322479" style="stroke: #000000; stroke-width: 0.8"/>
      </g>
     </g>
     <g id="text_12">
      <text style="font: 10px 'DejaVu Sans', 'Bitstream Vera Sans', 'Computer Modern Sans Serif', 'Lucida Grande', 'Verdana', 'Geneva', 'Lucid', 'Arial', 'Helvetica', 'Avant Garde', sans-serif; text-anchor: end" x="37.57" y="40.121698" transform="rotate(-0 37.57 40.121698)">40</text>
     </g>
    </g>
    <g id="text_13">
     <text style="font: 10px 'DejaVu Sans', 'Bitstream Vera Sans', 'Computer Modern Sans Serif', 'Lucida Grande', 'Verdana', 'Geneva', 'Lucid', 'Arial', 'Helvetica', 'Avant Garde', sans-serif; text-anchor: middle" x="18.765313" y="110.42" transform="rotate(-90 18.765313 110.42)">Randomness</text>
    </g>
   </g>
   <g id="line2d_12">
    <path d="M 68.235 48.672066 
L 69.202894 65.138182 
L 70.170787 52.788595 
L 72.106575 85.720826 
L 73.074468 52.788595 
L 74.042362 69.254711 
L 75.010256 65.138182 
L 75.978149 89.837355 
L 76.946043 73.37124 
L 77.913937 32.20595 
L 78.88183 65.138182 
L 79.849724 93.953884 
L 80.817618 61.021653 
L 81.785511 56.905124 
L 82.753405 89.837355 
L 83.721299 61.021653 
L 84.689192 73.37124 
L 85.657086 65.138182 
L 86.62498 98.070413 
L 87.592873 98.070413 
L 88.560767 73.37124 
L 89.528661 89.837355 
L 90.496554 73.37124 
L 91.464448 85.720826 
L 92.432342 61.021653 
L 93.400235 69.254711 
L 94.368129 36.322479 
L 95.336022 85.720826 
L 96.303916 61.021653 
L 97.27181 65.138182 
L 98.239703 73.37124 
L 99.207597 93.953884 
L 100.175491 65.138182 
L 101.143384 48.672066 
L 102.111278 65.138182 
L 103.079172 19.856364 
L 104.047065 61.021653 
L 105.014959 89.837355 
L 105.982853 81.604298 
L 106.950746 81.604298 
L 107.91864 77.487769 
L 108.886534 61.021653 
L 109.854427 48.672066 
L 110.822321 89.837355 
L 111.790215 61.021653 
L 112.758108 65.138182 
L 113.726002 73.37124 
L 114.693896 52.788595 
L 115.661789 89.837355 
L 116.629683 48.672066 
L 117.597577 69.254711 
L 118.56547 85.720826 
L 119.533364 81.604298 
L 120.501258 56.905124 
L 121.469151 56.905124 
L 122.437045 65.138182 
L 123.404939 56.905124 
L 124.372832 81.604298 
L 125.340726 77.487769 
L 126.30862 77.487769 
L 127.276513 61.021653 
L 128.244407 81.604298 
L 129.212301 81.604298 
L 130.180194 61.021653 
L 131.148088 65.138182 
L 132.115982 77.487769 
L 134.051769 52.788595 
L 135.019663 73.37124 
L 135.987556 52.788595 
L 136.95545 73.37124 
L 137.923344 65.138182 
L 138.891237 89.837355 
L 139.859131 52.788595 
L 140.827025 77.487769 
L 141.794918 56.905124 
L 142.762812 23.972893 
L 143.730706 65.138182 
L 144.698599 81.604298 
L 145.666493 48.672066 
L 146.634387 69.254711 
L 147.60228 77.487769 
L 148.570174 77.487769 
L 149.538067 73.37124 
L 150.505961 85.720826 
L 151.473855 81.604298 
L 152.441748 73.37124 
L 153.409642 81.604298 
L 154.377536 73.37124 
L 155.345429 73.37124 
L 156.313323 69.254711 
L 157.281217 73.37124 
L 158.24911 69.254711 
L 159.217004 56.905124 
L 160.184898 61.021653 
L 161.152791 52.788595 
L 162.120685 65.138182 
L 163.088579 40.439008 
L 164.056472 36.322479 
L 165.024366 85.720826 
L 165.99226 56.905124 
L 166.960153 52.788595 
L 167.928047 77.487769 
L 168.895941 65.138182 
L 169.863834 85.720826 
L 170.831728 69.254711 
L 171.799622 73.37124 
L 172.767515 61.021653 
L 173.735409 32.20595 
L 174.703303 48.672066 
L 175.671196 61.021653 
L 176.63909 44.555537 
L 177.606984 44.555537 
L 178.574877 69.254711 
L 179.542771 52.788595 
L 180.510665 73.37124 
L 181.478558 65.138182 
L 182.446452 28.089421 
L 183.414346 81.604298 
L 184.382239 81.604298 
L 185.350133 89.837355 
L 187.28592 73.37124 
L 188.253814 110.42 
L 189.221708 61.021653 
L 190.189601 44.555537 
L 191.157495 77.487769 
L 192.125389 77.487769 
L 193.093282 56.905124 
L 194.061176 93.953884 
L 195.02907 73.37124 
L 195.996963 69.254711 
L 196.964857 85.720826 
L 197.932751 69.254711 
L 198.900644 73.37124 
L 199.868538 69.254711 
L 200.836431 102.186942 
L 201.804325 77.487769 
L 202.772219 89.837355 
L 203.740112 77.487769 
L 204.708006 69.254711 
L 205.6759 73.37124 
L 206.643793 61.021653 
L 207.611687 69.254711 
L 208.579581 56.905124 
L 209.547474 65.138182 
L 210.515368 44.555537 
L 211.483262 69.254711 
L 212.451155 81.604298 
L 213.419049 73.37124 
L 214.386943 52.788595 
L 215.354836 52.788595 
L 216.32273 77.487769 
L 217.290624 89.837355 
L 218.258517 81.604298 
L 219.226411 56.905124 
L 220.194305 61.021653 
L 221.162198 77.487769 
L 222.130092 73.37124 
L 223.097986 40.439008 
L 224.065879 69.254711 
L 225.033773 85.720826 
L 226.001667 52.788595 
L 226.96956 65.138182 
L 227.937454 81.604298 
L 228.905348 48.672066 
L 229.873241 23.972893 
L 230.841135 69.254711 
L 231.809029 73.37124 
L 232.776922 65.138182 
L 233.744816 77.487769 
L 234.71271 114.536529 
L 235.680603 93.953884 
L 236.648497 52.788595 
L 237.616391 106.303471 
L 238.584284 93.953884 
L 239.552178 61.021653 
L 240.520072 69.254711 
L 241.487965 65.138182 
L 242.455859 52.788595 
L 243.423753 69.254711 
L 244.391646 81.604298 
L 245.35954 85.720826 
L 246.327434 52.788595 
L 247.295327 77.487769 
L 248.263221 52.788595 
L 249.231115 52.788595 
L 250.199008 77.487769 
L 251.166902 52.788595 
L 252.134796 89.837355 
L 253.102689 65.138182 
L 256.00637 77.487769 
L 256.974264 52.788595 
L 257.942157 56.905124 
L 258.910051 69.254711 
L 259.877945 61.021653 
L 260.845838 69.254711 
L 261.813732 69.254711 
L 262.781626 48.672066 
L 263.749519 73.37124 
L 264.717413 89.837355 
L 265.685307 93.953884 
L 266.6532 40.439008 
L 267.621094 73.37124 
L 268.588988 93.953884 
L 269.556881 40.439008 
L 270.524775 56.905124 
L 271.492669 85.720826 
L 272.460562 77.487769 
L 273.428456 23.972893 
L 274.39635 65.138182 
L 275.364243 69.254711 
L 276.332137 77.487769 
L 277.300031 61.021653 
L 278.267924 69.254711 
L 279.235818 61.021653 
L 280.203712 69.254711 
L 281.171605 52.788595 
L 282.139499 61.021653 
L 283.107393 23.972893 
L 284.075286 56.905124 
L 285.04318 65.138182 
L 286.011074 85.720826 
L 286.978967 77.487769 
L 287.946861 85.720826 
L 288.914755 56.905124 
L 289.882648 56.905124 
L 290.850542 85.720826 
L 291.818436 65.138182 
L 292.786329 77.487769 
L 293.754223 65.138182 
L 294.722117 44.555537 
L 295.69001 61.021653 
L 296.657904 81.604298 
L 297.625798 69.254711 
L 298.593691 52.788595 
L 299.561585 61.021653 
L 300.529479 73.37124 
L 301.497372 98.070413 
L 302.465266 52.788595 
L 303.43316 69.254711 
L 304.401053 77.487769 
L 305.368947 65.138182 
L 306.33684 85.720826 
L 307.304734 56.905124 
L 308.272628 73.37124 
L 309.240521 85.720826 
L 310.208415 56.905124 
L 311.176309 52.788595 
L 312.144202 40.439008 
L 313.112096 48.672066 
L 314.07999 65.138182 
L 316.015777 56.905124 
L 316.983671 56.905124 
L 317.951564 44.555537 
L 318.919458 69.254711 
L 319.887352 73.37124 
L 320.855245 85.720826 
L 321.823139 73.37124 
L 322.791033 44.555537 
L 323.758926 81.604298 
L 324.72682 73.37124 
L 325.694714 73.37124 
L 326.662607 65.138182 
L 327.630501 69.254711 
L 328.598395 52.788595 
L 329.566288 65.138182 
L 330.534182 56.905124 
L 331.502076 32.20595 
L 332.469969 48.672066 
L 333.437863 69.254711 
L 334.405757 44.555537 
L 335.37365 110.42 
L 336.341544 52.788595 
L 337.309438 44.555537 
L 338.277331 52.788595 
L 339.245225 81.604298 
L 341.181012 81.604298 
L 342.148906 65.138182 
L 343.1168 73.37124 
L 344.084693 65.138182 
L 345.052587 81.604298 
L 346.020481 48.672066 
L 346.988374 77.487769 
L 347.956268 48.672066 
L 348.924162 65.138182 
L 349.892055 85.720826 
L 350.859949 52.788595 
L 351.827843 32.20595 
L 352.795736 81.604298 
L 353.76363 81.604298 
L 354.731524 73.37124 
L 355.699417 89.837355 
L 356.667311 56.905124 
L 357.635204 73.37124 
L 358.603098 98.070413 
L 360.538885 81.604298 
L 361.506779 65.138182 
L 362.474673 102.186942 
L 363.442566 73.37124 
L 364.41046 69.254711 
L 365.378354 40.439008 
L 366.346247 81.604298 
L 367.314141 77.487769 
L 369.249928 85.720826 
L 370.217822 48.672066 
L 371.185716 89.837355 
L 372.153609 56.905124 
L 373.121503 89.837355 
L 374.089397 65.138182 
L 375.05729 61.021653 
L 376.025184 73.37124 
L 376.993078 52.788595 
L 377.960971 85.720826 
L 378.928865 77.487769 
L 379.896759 52.788595 
L 380.864652 61.021653 
L 381.832546 73.37124 
L 382.80044 89.837355 
L 383.768333 89.837355 
L 384.736227 81.604298 
L 385.704121 65.138182 
L 386.672014 65.138182 
L 387.639908 56.905124 
L 388.607802 85.720826 
L 389.575695 93.953884 
L 390.543589 56.905124 
L 391.511483 77.487769 
L 392.479376 85.720826 
L 393.44727 56.905124 
L 395.383057 73.37124 
L 396.350951 69.254711 
L 397.318845 89.837355 
L 398.286738 106.303471 
L 400.222526 40.439008 
L 401.190419 69.254711 
L 402.158313 81.604298 
L 403.126207 89.837355 
L 404.0941 65.138182 
L 405.061994 73.37124 
L 406.029888 85.720826 
L 406.997781 52.788595 
L 407.965675 102.186942 
L 408.933569 69.254711 
L 409.901462 52.788595 
L 410.869356 56.905124 
L 411.837249 85.720826 
L 412.805143 69.254711 
L 413.773037 48.672066 
L 414.74093 81.604298 
L 415.708824 56.905124 
L 416.676718 77.487769 
L 417.644611 69.254711 
L 418.612505 93.953884 
L 419.580399 77.487769 
L 420.548292 69.254711 
L 421.516186 56.905124 
L 422.48408 114.536529 
L 423.451973 56.905124 
L 424.419867 85.720826 
L 425.387761 85.720826 
L 426.355654 73.37124 
L 427.323548 69.254711 
L 428.291442 93.953884 
L 429.259335 52.788595 
L 430.227229 89.837355 
L 431.195123 69.254711 
L 432.163016 69.254711 
L 433.13091 73.37124 
L 434.098804 85.720826 
L 435.066697 69.254711 
L 436.034591 61.021653 
L 437.002485 73.37124 
L 437.970378 89.837355 
L 438.938272 73.37124 
L 439.906166 52.788595 
L 440.874059 65.138182 
L 441.841953 81.604298 
L 442.809847 65.138182 
L 443.77774 69.254711 
L 444.745634 56.905124 
L 445.713528 48.672066 
L 446.681421 44.555537 
L 447.649315 23.972893 
L 448.617209 48.672066 
L 449.585102 61.021653 
L 450.552996 81.604298 
L 451.52089 81.604298 
L 452.488783 44.555537 
L 453.456677 65.138182 
L 454.424571 65.138182 
L 455.392464 98.070413 
L 456.360358 48.672066 
L 457.328252 126.886116 
L 458.296145 85.720826 
L 459.264039 73.37124 
L 460.231933 93.953884 
L 461.199826 73.37124 
L 462.16772 23.972893 
L 463.135613 44.555537 
L 464.103507 81.604298 
L 465.071401 52.788595 
L 466.039294 77.487769 
L 467.007188 89.837355 
L 467.975082 69.254711 
L 468.942975 77.487769 
L 469.910869 81.604298 
L 470.878763 65.138182 
L 471.846656 69.254711 
L 472.81455 56.905124 
L 473.782444 36.322479 
L 474.750337 69.254711 
L 475.718231 89.837355 
L 476.686125 77.487769 
L 477.654018 69.254711 
L 478.621912 69.254711 
L 479.589806 65.138182 
L 480.557699 73.37124 
L 482.493487 65.138182 
L 483.46138 65.138182 
L 484.429274 73.37124 
L 486.365061 48.672066 
L 487.332955 89.837355 
L 488.300849 89.837355 
L 489.268742 85.720826 
L 490.236636 56.905124 
L 491.20453 89.837355 
L 492.172423 73.37124 
L 493.140317 89.837355 
L 494.108211 85.720826 
L 495.076104 69.254711 
L 496.043998 73.37124 
L 497.011892 65.138182 
L 497.979785 81.604298 
L 498.947679 69.254711 
L 499.915573 89.837355 
L 500.883466 65.138182 
L 501.85136 56.905124 
L 502.819254 56.905124 
L 503.787147 40.439008 
L 504.755041 85.720826 
L 505.722935 89.837355 
L 506.690828 73.37124 
L 507.658722 36.322479 
L 508.626616 69.254711 
L 509.594509 69.254711 
L 510.562403 73.37124 
L 511.530297 52.788595 
L 512.49819 61.021653 
L 513.466084 48.672066 
L 515.401871 73.37124 
L 516.369765 56.905124 
L 517.337658 77.487769 
L 518.305552 65.138182 
L 519.273446 81.604298 
L 520.241339 114.536529 
L 521.209233 69.254711 
L 522.177127 52.788595 
L 523.14502 81.604298 
L 524.112914 61.021653 
L 525.080808 56.905124 
L 526.048701 36.322479 
L 527.016595 73.37124 
L 527.984489 65.138182 
L 528.952382 40.439008 
L 529.920276 77.487769 
L 530.88817 77.487769 
L 531.856063 73.37124 
L 532.823957 40.439008 
L 533.791851 106.303471 
L 534.759744 85.720826 
L 535.727638 89.837355 
L 536.695532 65.138182 
L 537.663425 52.788595 
L 538.631319 44.555537 
L 539.599213 65.138182 
L 540.567106 44.555537 
L 541.535 65.138182 
L 541.535 65.138182 
" clip-path="url(#p856e89eac3)" style="fill: none; stroke: #99004d; stroke-width: 0.8; stroke-linecap: square"/>
   </g>
   <g id="line2d_13">
    <path d="M 68.235 56.905124 
L 69.202894 85.720826 
L 70.170787 69.254711 
L 71.138681 81.604298 
L 72.106575 77.487769 
L 73.074468 159.818347 
L 74.042362 93.953884 
L 75.010256 184.517521 
L 75.978149 89.837355 
L 76.946043 163.934876 
L 77.913937 77.487769 
L 78.88183 106.303471 
L 79.849724 65.138182 
L 80.817618 89.837355 
L 81.785511 168.051405 
L 82.753405 85.720826 
L 83.721299 73.37124 
L 85.657086 192.750579 
L 86.62498 93.953884 
L 87.592873 65.138182 
L 88.560767 180.400992 
L 89.528661 98.070413 
L 90.496554 73.37124 
L 91.464448 73.37124 
L 92.432342 69.254711 
L 93.400235 176.284463 
L 94.368129 163.934876 
L 95.336022 69.254711 
L 96.303916 69.254711 
L 97.27181 110.42 
L 98.239703 89.837355 
L 99.207597 151.585289 
L 100.175491 85.720826 
L 101.143384 200.983636 
L 102.111278 147.46876 
L 103.079172 69.254711 
L 104.047065 110.42 
L 105.014959 98.070413 
L 105.982853 126.886116 
L 106.950746 106.303471 
L 107.91864 122.769587 
L 108.886534 81.604298 
L 109.854427 61.021653 
L 110.822321 143.352231 
L 111.790215 131.002645 
L 112.758108 85.720826 
L 113.726002 192.750579 
L 115.661789 98.070413 
L 116.629683 131.002645 
L 117.597577 77.487769 
L 118.56547 118.653058 
L 119.533364 110.42 
L 120.501258 151.585289 
L 121.469151 151.585289 
L 122.437045 118.653058 
L 123.404939 114.536529 
L 124.372832 73.37124 
L 125.340726 139.235702 
L 126.30862 126.886116 
L 127.276513 143.352231 
L 128.244407 93.953884 
L 129.212301 176.284463 
L 130.180194 73.37124 
L 131.148088 69.254711 
L 132.115982 151.585289 
L 133.083875 73.37124 
L 134.051769 81.604298 
L 135.019663 159.818347 
L 135.987556 73.37124 
L 136.95545 65.138182 
L 137.923344 61.021653 
L 138.891237 69.254711 
L 139.859131 118.653058 
L 140.827025 85.720826 
L 141.794918 151.585289 
L 142.762812 81.604298 
L 143.730706 118.653058 
L 144.698599 73.37124 
L 145.666493 81.604298 
L 146.634387 122.769587 
L 147.60228 131.002645 
L 148.570174 85.720826 
L 149.538067 159.818347 
L 150.505961 180.400992 
L 151.473855 135.119174 
L 152.441748 139.235702 
L 153.409642 147.46876 
L 154.377536 89.837355 
L 155.345429 73.37124 
L 156.313323 102.186942 
L 157.281217 122.769587 
L 158.24911 85.720826 
L 159.217004 147.46876 
L 160.184898 139.235702 
L 161.152791 69.254711 
L 162.120685 163.934876 
L 163.088579 192.750579 
L 164.056472 98.070413 
L 165.99226 81.604298 
L 166.960153 139.235702 
L 167.928047 188.63405 
L 168.895941 168.051405 
L 169.863834 77.487769 
L 170.831728 77.487769 
L 171.799622 98.070413 
L 172.767515 81.604298 
L 173.735409 85.720826 
L 174.703303 172.167934 
L 175.671196 192.750579 
L 176.63909 85.720826 
L 177.606984 81.604298 
L 178.574877 102.186942 
L 179.542771 85.720826 
L 180.510665 126.886116 
L 181.478558 85.720826 
L 182.446452 122.769587 
L 183.414346 52.788595 
L 184.382239 143.352231 
L 185.350133 52.788595 
L 186.318027 93.953884 
L 187.28592 65.138182 
L 188.253814 69.254711 
L 190.189601 155.701818 
L 191.157495 114.536529 
L 192.125389 188.63405 
L 193.093282 102.186942 
L 194.061176 69.254711 
L 195.996963 77.487769 
L 196.964857 65.138182 
L 197.932751 139.235702 
L 198.900644 163.934876 
L 199.868538 102.186942 
L 200.836431 77.487769 
L 201.804325 106.303471 
L 202.772219 85.720826 
L 203.740112 77.487769 
L 205.6759 159.818347 
L 206.643793 102.186942 
L 207.611687 85.720826 
L 208.579581 139.235702 
L 209.547474 114.536529 
L 210.515368 81.604298 
L 211.483262 69.254711 
L 212.451155 176.284463 
L 213.419049 126.886116 
L 214.386943 89.837355 
L 215.354836 122.769587 
L 216.32273 151.585289 
L 217.290624 106.303471 
L 218.258517 126.886116 
L 219.226411 61.021653 
L 220.194305 85.720826 
L 221.162198 147.46876 
L 222.130092 184.517521 
L 223.097986 56.905124 
L 224.065879 77.487769 
L 225.033773 89.837355 
L 226.001667 126.886116 
L 226.96956 89.837355 
L 227.937454 196.867107 
L 228.905348 77.487769 
L 229.873241 65.138182 
L 230.841135 114.536529 
L 231.809029 77.487769 
L 232.776922 122.769587 
L 233.744816 93.953884 
L 234.71271 135.119174 
L 235.680603 56.905124 
L 236.648497 93.953884 
L 237.616391 73.37124 
L 238.584284 73.37124 
L 239.552178 155.701818 
L 240.520072 184.517521 
L 241.487965 110.42 
L 242.455859 147.46876 
L 243.423753 192.750579 
L 244.391646 110.42 
L 245.35954 126.886116 
L 246.327434 135.119174 
L 247.295327 196.867107 
L 248.263221 65.138182 
L 249.231115 73.37124 
L 250.199008 200.983636 
L 251.166902 110.42 
L 252.134796 73.37124 
L 253.102689 85.720826 
L 254.070583 65.138182 
L 255.038476 81.604298 
L 256.00637 172.167934 
L 256.974264 85.720826 
L 257.942157 114.536529 
L 258.910051 69.254711 
L 259.877945 77.487769 
L 260.845838 139.235702 
L 261.813732 65.138182 
L 262.781626 73.37124 
L 263.749519 126.886116 
L 265.685307 48.672066 
L 266.6532 102.186942 
L 267.621094 73.37124 
L 268.588988 114.536529 
L 269.556881 106.303471 
L 270.524775 85.720826 
L 271.492669 151.585289 
L 272.460562 139.235702 
L 273.428456 77.487769 
L 274.39635 155.701818 
L 275.364243 44.555537 
L 276.332137 52.788595 
L 277.300031 139.235702 
L 278.267924 135.119174 
L 279.235818 65.138182 
L 280.203712 69.254711 
L 281.171605 77.487769 
L 282.139499 52.788595 
L 283.107393 89.837355 
L 284.075286 114.536529 
L 285.04318 184.517521 
L 286.011074 85.720826 
L 286.978967 118.653058 
L 287.946861 73.37124 
L 288.914755 77.487769 
L 289.882648 102.186942 
L 290.850542 81.604298 
L 291.818436 163.934876 
L 292.786329 147.46876 
L 293.754223 196.867107 
L 294.722117 93.953884 
L 295.69001 81.604298 
L 296.657904 172.167934 
L 297.625798 135.119174 
L 298.593691 73.37124 
L 299.561585 188.63405 
L 300.529479 98.070413 
L 301.497372 77.487769 
L 302.465266 81.604298 
L 303.43316 200.983636 
L 304.401053 98.070413 
L 305.368947 93.953884 
L 306.33684 131.002645 
L 307.304734 135.119174 
L 309.240521 151.585289 
L 310.208415 69.254711 
L 311.176309 200.983636 
L 312.144202 147.46876 
L 314.07999 69.254711 
L 315.047883 69.254711 
L 316.015777 89.837355 
L 316.983671 143.352231 
L 317.951564 143.352231 
L 318.919458 155.701818 
L 319.887352 65.138182 
L 320.855245 77.487769 
L 321.823139 159.818347 
L 322.791033 147.46876 
L 323.758926 65.138182 
L 324.72682 163.934876 
L 325.694714 139.235702 
L 326.662607 48.672066 
L 327.630501 81.604298 
L 328.598395 147.46876 
L 329.566288 81.604298 
L 330.534182 65.138182 
L 331.502076 168.051405 
L 332.469969 98.070413 
L 333.437863 89.837355 
L 334.405757 106.303471 
L 335.37365 61.021653 
L 336.341544 192.750579 
L 337.309438 168.051405 
L 338.277331 85.720826 
L 339.245225 93.953884 
L 340.213119 168.051405 
L 341.181012 61.021653 
L 342.148906 77.487769 
L 343.1168 159.818347 
L 344.084693 56.905124 
L 345.052587 81.604298 
L 346.020481 89.837355 
L 346.988374 176.284463 
L 347.956268 85.720826 
L 348.924162 176.284463 
L 349.892055 65.138182 
L 350.859949 52.788595 
L 351.827843 122.769587 
L 352.795736 98.070413 
L 353.76363 106.303471 
L 354.731524 98.070413 
L 355.699417 184.517521 
L 356.667311 85.720826 
L 357.635204 139.235702 
L 358.603098 102.186942 
L 359.570992 196.867107 
L 360.538885 65.138182 
L 361.506779 65.138182 
L 362.474673 77.487769 
L 363.442566 81.604298 
L 365.378354 159.818347 
L 366.346247 176.284463 
L 367.314141 114.536529 
L 368.282035 131.002645 
L 369.249928 77.487769 
L 370.217822 122.769587 
L 371.185716 192.750579 
L 372.153609 81.604298 
L 373.121503 81.604298 
L 374.089397 118.653058 
L 375.05729 77.487769 
L 376.025184 106.303471 
L 376.993078 61.021653 
L 377.960971 69.254711 
L 378.928865 85.720826 
L 379.896759 65.138182 
L 380.864652 81.604298 
L 381.832546 102.186942 
L 382.80044 69.254711 
L 383.768333 151.585289 
L 384.736227 81.604298 
L 385.704121 69.254711 
L 386.672014 98.070413 
L 387.639908 65.138182 
L 388.607802 126.886116 
L 389.575695 85.720826 
L 390.543589 65.138182 
L 391.511483 102.186942 
L 392.479376 85.720826 
L 393.44727 110.42 
L 394.415164 85.720826 
L 395.383057 196.867107 
L 396.350951 180.400992 
L 397.318845 93.953884 
L 398.286738 93.953884 
L 399.254632 106.303471 
L 400.222526 192.750579 
L 401.190419 85.720826 
L 402.158313 73.37124 
L 403.126207 106.303471 
L 404.0941 102.186942 
L 405.061994 147.46876 
L 406.029888 143.352231 
L 406.997781 143.352231 
L 407.965675 81.604298 
L 408.933569 135.119174 
L 409.901462 114.536529 
L 410.869356 73.37124 
L 411.837249 118.653058 
L 412.805143 106.303471 
L 413.773037 73.37124 
L 414.74093 106.303471 
L 415.708824 143.352231 
L 416.676718 81.604298 
L 417.644611 56.905124 
L 418.612505 122.769587 
L 419.580399 122.769587 
L 420.548292 110.42 
L 421.516186 131.002645 
L 422.48408 159.818347 
L 423.451973 69.254711 
L 424.419867 106.303471 
L 425.387761 85.720826 
L 426.355654 163.934876 
L 427.323548 65.138182 
L 428.291442 77.487769 
L 429.259335 131.002645 
L 430.227229 85.720826 
L 431.195123 188.63405 
L 432.163016 168.051405 
L 433.13091 52.788595 
L 434.098804 77.487769 
L 435.066697 192.750579 
L 436.034591 180.400992 
L 437.002485 118.653058 
L 437.970378 143.352231 
L 438.938272 73.37124 
L 439.906166 73.37124 
L 440.874059 106.303471 
L 441.841953 81.604298 
L 442.809847 85.720826 
L 443.77774 81.604298 
L 444.745634 114.536529 
L 445.713528 81.604298 
L 446.681421 89.837355 
L 447.649315 151.585289 
L 448.617209 168.051405 
L 449.585102 77.487769 
L 450.552996 147.46876 
L 451.52089 131.002645 
L 452.488783 85.720826 
L 453.456677 122.769587 
L 454.424571 106.303471 
L 455.392464 168.051405 
L 456.360358 135.119174 
L 457.328252 69.254711 
L 458.296145 200.983636 
L 459.264039 110.42 
L 460.231933 93.953884 
L 461.199826 200.983636 
L 462.16772 110.42 
L 463.135613 44.555537 
L 464.103507 118.653058 
L 465.071401 89.837355 
L 466.039294 188.63405 
L 467.007188 77.487769 
L 467.975082 61.021653 
L 468.942975 85.720826 
L 469.910869 85.720826 
L 470.878763 192.750579 
L 471.846656 69.254711 
L 472.81455 151.585289 
L 473.782444 85.720826 
L 474.750337 61.021653 
L 475.718231 184.517521 
L 476.686125 184.517521 
L 477.654018 81.604298 
L 478.621912 65.138182 
L 479.589806 65.138182 
L 480.557699 126.886116 
L 481.525593 69.254711 
L 482.493487 77.487769 
L 483.46138 151.585289 
L 484.429274 77.487769 
L 485.397168 85.720826 
L 486.365061 196.867107 
L 487.332955 192.750579 
L 488.300849 85.720826 
L 489.268742 126.886116 
L 490.236636 69.254711 
L 491.20453 184.517521 
L 492.172423 159.818347 
L 493.140317 73.37124 
L 494.108211 61.021653 
L 495.076104 135.119174 
L 496.043998 98.070413 
L 497.011892 159.818347 
L 497.979785 65.138182 
L 498.947679 69.254711 
L 499.915573 85.720826 
L 500.883466 61.021653 
L 501.85136 69.254711 
L 502.819254 73.37124 
L 503.787147 196.867107 
L 504.755041 69.254711 
L 505.722935 81.604298 
L 506.690828 73.37124 
L 507.658722 73.37124 
L 508.626616 98.070413 
L 509.594509 131.002645 
L 510.562403 89.837355 
L 511.530297 200.983636 
L 512.49819 77.487769 
L 513.466084 69.254711 
L 514.433978 85.720826 
L 515.401871 196.867107 
L 516.369765 180.400992 
L 517.337658 69.254711 
L 518.305552 85.720826 
L 519.273446 126.886116 
L 520.241339 69.254711 
L 521.209233 114.536529 
L 522.177127 147.46876 
L 523.14502 168.051405 
L 524.112914 77.487769 
L 525.080808 77.487769 
L 526.048701 73.37124 
L 527.016595 85.720826 
L 527.984489 155.701818 
L 528.952382 155.701818 
L 530.88817 77.487769 
L 531.856063 118.653058 
L 532.823957 81.604298 
L 533.791851 77.487769 
L 534.759744 81.604298 
L 535.727638 52.788595 
L 536.695532 85.720826 
L 537.663425 163.934876 
L 538.631319 61.021653 
L 539.599213 77.487769 
L 540.567106 65.138182 
L 541.535 159.818347 
L 541.535 159.818347 
" clip-path="url(#p856e89eac3)" style="fill: none; stroke: #235996; stroke-width: 0.8; stroke-linecap: square"/>
   </g>
   <g id="patch_3">
    <path d="M 44.57 210.04 
L 44.57 10.8 
" style="fill: none; stroke: #000000; stroke-width: 0.8; stroke-linejoin: miter; stroke-linecap: square"/>
   </g>
   <g id="patch_4">
    <path d="M 565.2 210.04 
L 565.2 10.8 
" style="fill: none; stroke: #000000; stroke-width: 0.8; stroke-linejoin: miter; stroke-linecap: square"/>
   </g>
   <g id="patch_5">
    <path d="M 44.57 210.04 
L 565.2 210.04 
" style="fill: none; stroke: #000000; stroke-width: 0.8; stroke-linejoin: miter; stroke-linecap: square"/>
   </g>
   <g id="patch_6">
    <path d="M 44.57 10.8 
L 565.2 10.8 
" style="fill: none; stroke: #000000; stroke-width: 0.8; stroke-linejoin: miter; stroke-linecap: square"/>
   </g>
   <g id="legend_1">
    <g id="patch_7">
     <path d="M 156.8845 43.4565 
L 452.8855 43.4565 
Q 455.7655 43.4565 455.7655 40.5765 
L 455.7655 20.88 
Q 455.7655 18 452.8855 18 
L 156.8845 18 
Q 154.0045 18 154.0045 20.88 
L 154.0045 40.5765 
Q 154.0045 43.4565 156.8845 43.4565 
z
" style="fill: #ffffff; opacity: 0.8; stroke: #000000; stroke-linejoin: miter"/>
    </g>
    <g id="line2d_14">
     <path d="M 159.7645 29.66175 
L 174.1645 29.66175 
L 188.5645 29.66175 
" style="fill: none; stroke: #99004d; stroke-width: 0.8; stroke-linecap: square"/>
    </g>
    <g id="text_14">
     <text style="font: 14.4px 'DejaVu Sans', 'Bitstream Vera Sans', 'Computer Modern Sans Serif', 'Lucida Grande', 'Verdana', 'Geneva', 'Lucid', 'Arial', 'Helvetica', 'Avant Garde', sans-serif; text-anchor: start" x="200.0845" y="34.70175" transform="rotate(-0 200.0845 34.70175)">hw(random)</text>
    </g>
    <g id="line2d_15">
     <path d="M 316.873 29.66175 
L 331.273 29.66175 
L 345.673 29.66175 
" style="fill: none; stroke: #235996; stroke-width: 0.8; stroke-linecap: square"/>
    </g>
    <g id="text_15">
     <text style="font: 14.4px 'DejaVu Sans', 'Bitstream Vera Sans', 'Computer Modern Sans Serif', 'Lucida Grande', 'Verdana', 'Geneva', 'Lucid', 'Arial', 'Helvetica', 'Avant Garde', sans-serif; text-anchor: start" x="357.193" y="34.70175" transform="rotate(-0 357.193 34.70175)"> hw(HWGEN)</text>
    </g>
   </g>
  </g>
 </g>
 <defs>
  <clipPath id="p856e89eac3">
   <rect x="44.57" y="10.8" width="520.63" height="199.24"/>
  </clipPath>
 </defs>
</svg>
