<?xml version="1.0" encoding="utf-8" standalone="no"?>
<!DOCTYPE svg PUBLIC "-//W3C//DTD SVG 1.1//EN"
  "http://www.w3.org/Graphics/SVG/1.1/DTD/svg11.dtd">
<svg xmlns:xlink="http://www.w3.org/1999/xlink" width="576pt" height="252pt" viewBox="0 0 576 252" xmlns="http://www.w3.org/2000/svg" version="1.1">
 <metadata>
  <rdf:RDF xmlns:dc="http://purl.org/dc/elements/1.1/" xmlns:cc="http://creativecommons.org/ns#" xmlns:rdf="http://www.w3.org/1999/02/22-rdf-syntax-ns#">
   <cc:Work>
    <dc:type rdf:resource="http://purl.org/dc/dcmitype/StillImage"/>
    <dc:date>2023-12-06T20:28:59.486993</dc:date>
    <dc:format>image/svg+xml</dc:format>
    <dc:creator>
     <cc:Agent>
      <dc:title>Matplotlib v3.7.4, https://matplotlib.org/</dc:title>
     </cc:Agent>
    </dc:creator>
   </cc:Work>
  </rdf:RDF>
 </metadata>
 <defs>
  <style type="text/css">*{stroke-linejoin: round; stroke-linecap: butt}</style>
 </defs>
 <g id="figure_1">
  <g id="patch_1">
   <path d="M 0 252 
L 576 252 
L 576 0 
L 0 0 
z
" style="fill: #ffffff"/>
  </g>
  <g id="axes_1">
   <g id="patch_2">
    <path d="M 44.57 210.04 
L 565.2 210.04 
L 565.2 10.8 
L 44.57 10.8 
z
" style="fill: #ffffff"/>
   </g>
   <g id="matplotlib.axis_1">
    <g id="xtick_1">
     <g id="line2d_1">
      <defs>
       <path id="m234a1d78b6" d="M 0 0 
L 0 3.5 
" style="stroke: #000000; stroke-width: 0.8"/>
      </defs>
      <g>
       <use xlink:href="#m234a1d78b6" x="68.235" y="210.04" style="stroke: #000000; stroke-width: 0.8"/>
      </g>
     </g>
     <g id="text_1">
      <text style="font: 10px 'DejaVu Sans', 'Bitstream Vera Sans', 'Computer Modern Sans Serif', 'Lucida Grande', 'Verdana', 'Geneva', 'Lucid', 'Arial', 'Helvetica', 'Avant Garde', sans-serif; text-anchor: middle" x="68.235" y="224.638438" transform="rotate(-0 68.235 224.638438)">0</text>
     </g>
    </g>
    <g id="xtick_2">
     <g id="line2d_2">
      <g>
       <use xlink:href="#m234a1d78b6" x="165.024366" y="210.04" style="stroke: #000000; stroke-width: 0.8"/>
      </g>
     </g>
     <g id="text_2">
      <text style="font: 10px 'DejaVu Sans', 'Bitstream Vera Sans', 'Computer Modern Sans Serif', 'Lucida Grande', 'Verdana', 'Geneva', 'Lucid', 'Arial', 'Helvetica', 'Avant Garde', sans-serif; text-anchor: middle" x="165.024366" y="224.638438" transform="rotate(-0 165.024366 224.638438)">100</text>
     </g>
    </g>
    <g id="xtick_3">
     <g id="line2d_3">
      <g>
       <use xlink:href="#m234a1d78b6" x="261.813732" y="210.04" style="stroke: #000000; stroke-width: 0.8"/>
      </g>
     </g>
     <g id="text_3">
      <text style="font: 10px 'DejaVu Sans', 'Bitstream Vera Sans', 'Computer Modern Sans Serif', 'Lucida Grande', 'Verdana', 'Geneva', 'Lucid', 'Arial', 'Helvetica', 'Avant Garde', sans-serif; text-anchor: middle" x="261.813732" y="224.638438" transform="rotate(-0 261.813732 224.638438)">200</text>
     </g>
    </g>
    <g id="xtick_4">
     <g id="line2d_4">
      <g>
       <use xlink:href="#m234a1d78b6" x="358.603098" y="210.04" style="stroke: #000000; stroke-width: 0.8"/>
      </g>
     </g>
     <g id="text_4">
      <text style="font: 10px 'DejaVu Sans', 'Bitstream Vera Sans', 'Computer Modern Sans Serif', 'Lucida Grande', 'Verdana', 'Geneva', 'Lucid', 'Arial', 'Helvetica', 'Avant Garde', sans-serif; text-anchor: middle" x="358.603098" y="224.638438" transform="rotate(-0 358.603098 224.638438)">300</text>
     </g>
    </g>
    <g id="xtick_5">
     <g id="line2d_5">
      <g>
       <use xlink:href="#m234a1d78b6" x="455.392464" y="210.04" style="stroke: #000000; stroke-width: 0.8"/>
      </g>
     </g>
     <g id="text_5">
      <text style="font: 10px 'DejaVu Sans', 'Bitstream Vera Sans', 'Computer Modern Sans Serif', 'Lucida Grande', 'Verdana', 'Geneva', 'Lucid', 'Arial', 'Helvetica', 'Avant Garde', sans-serif; text-anchor: middle" x="455.392464" y="224.638438" transform="rotate(-0 455.392464 224.638438)">400</text>
     </g>
    </g>
    <g id="xtick_6">
     <g id="line2d_6">
      <g>
       <use xlink:href="#m234a1d78b6" x="552.18183" y="210.04" style="stroke: #000000; stroke-width: 0.8"/>
      </g>
     </g>
     <g id="text_6">
      <text style="font: 10px 'DejaVu Sans', 'Bitstream Vera Sans', 'Computer Modern Sans Serif', 'Lucida Grande', 'Verdana', 'Geneva', 'Lucid', 'Arial', 'Helvetica', 'Avant Garde', sans-serif; text-anchor: middle" x="552.18183" y="224.638438" transform="rotate(-0 552.18183 224.638438)">500</text>
     </g>
    </g>
    <g id="text_7">
     <text style="font: 10px 'DejaVu Sans', 'Bitstream Vera Sans', 'Computer Modern Sans Serif', 'Lucida Grande', 'Verdana', 'Geneva', 'Lucid', 'Arial', 'Helvetica', 'Avant Garde', sans-serif; text-anchor: middle" x="304.885" y="238.316563" transform="rotate(-0 304.885 238.316563)">Iterations</text>
    </g>
   </g>
   <g id="matplotlib.axis_2">
    <g id="ytick_1">
     <g id="line2d_7">
      <defs>
       <path id="m8f138c18f7" d="M 0 0 
L -3.5 0 
" style="stroke: #000000; stroke-width: 0.8"/>
      </defs>
      <g>
       <use xlink:href="#m8f138c18f7" x="44.57" y="200.983636" style="stroke: #000000; stroke-width: 0.8"/>
      </g>
     </g>
     <g id="text_8">
      <text style="font: 10px 'DejaVu Sans', 'Bitstream Vera Sans', 'Computer Modern Sans Serif', 'Lucida Grande', 'Verdana', 'Geneva', 'Lucid', 'Arial', 'Helvetica', 'Avant Garde', sans-serif; text-anchor: end" x="37.57" y="204.782855" transform="rotate(-0 37.57 204.782855)">0</text>
     </g>
    </g>
    <g id="ytick_2">
     <g id="line2d_8">
      <g>
       <use xlink:href="#m8f138c18f7" x="44.57" y="160.733131" style="stroke: #000000; stroke-width: 0.8"/>
      </g>
     </g>
     <g id="text_9">
      <text style="font: 10px 'DejaVu Sans', 'Bitstream Vera Sans', 'Computer Modern Sans Serif', 'Lucida Grande', 'Verdana', 'Geneva', 'Lucid', 'Arial', 'Helvetica', 'Avant Garde', sans-serif; text-anchor: end" x="37.57" y="164.53235" transform="rotate(-0 37.57 164.53235)">10</text>
     </g>
    </g>
    <g id="ytick_3">
     <g id="line2d_9">
      <g>
       <use xlink:href="#m8f138c18f7" x="44.57" y="120.482626" style="stroke: #000000; stroke-width: 0.8"/>
      </g>
     </g>
     <g id="text_10">
      <text style="font: 10px 'DejaVu Sans', 'Bitstream Vera Sans', 'Computer Modern Sans Serif', 'Lucida Grande', 'Verdana', 'Geneva', 'Lucid', 'Arial', 'Helvetica', 'Avant Garde', sans-serif; text-anchor: end" x="37.57" y="124.281845" transform="rotate(-0 37.57 124.281845)">20</text>
     </g>
    </g>
    <g id="ytick_4">
     <g id="line2d_10">
      <g>
       <use xlink:href="#m8f138c18f7" x="44.57" y="80.232121" style="stroke: #000000; stroke-width: 0.8"/>
      </g>
     </g>
     <g id="text_11">
      <text style="font: 10px 'DejaVu Sans', 'Bitstream Vera Sans', 'Computer Modern Sans Serif', 'Lucida Grande', 'Verdana', 'Geneva', 'Lucid', 'Arial', 'Helvetica', 'Avant Garde', sans-serif; text-anchor: end" x="37.57" y="84.03134" transform="rotate(-0 37.57 84.03134)">30</text>
     </g>
    </g>
    <g id="ytick_5">
     <g id="line2d_11">
      <g>
       <use xlink:href="#m8f138c18f7" x="44.57" y="39.981616" style="stroke: #000000; stroke-width: 0.8"/>
      </g>
     </g>
     <g id="text_12">
      <text style="font: 10px 'DejaVu Sans', 'Bitstream Vera Sans', 'Computer Modern Sans Serif', 'Lucida Grande', 'Verdana', 'Geneva', 'Lucid', 'Arial', 'Helvetica', 'Avant Garde', sans-serif; text-anchor: end" x="37.57" y="43.780835" transform="rotate(-0 37.57 43.780835)">40</text>
     </g>
    </g>
    <g id="text_13">
     <text style="font: 10px 'DejaVu Sans', 'Bitstream Vera Sans', 'Computer Modern Sans Serif', 'Lucida Grande', 'Verdana', 'Geneva', 'Lucid', 'Arial', 'Helvetica', 'Avant Garde', sans-serif; text-anchor: middle" x="18.765313" y="110.42" transform="rotate(-90 18.765313 110.42)">Randomness</text>
    </g>
   </g>
   <g id="line2d_12">
    <path d="M 68.235 39.981616 
L 69.202894 60.106869 
L 70.170787 96.332323 
L 72.106575 64.131919 
L 73.074468 44.006667 
L 74.042362 80.232121 
L 75.010256 68.15697 
L 75.978149 104.382424 
L 76.946043 88.282222 
L 77.913937 44.006667 
L 79.849724 60.106869 
L 82.753405 72.18202 
L 83.721299 68.15697 
L 84.689192 96.332323 
L 85.657086 88.282222 
L 86.62498 64.131919 
L 87.592873 64.131919 
L 88.560767 72.18202 
L 89.528661 60.106869 
L 90.496554 56.081818 
L 91.464448 72.18202 
L 92.432342 56.081818 
L 93.400235 64.131919 
L 94.368129 112.432525 
L 95.336022 68.15697 
L 96.303916 84.257172 
L 97.27181 44.006667 
L 98.239703 80.232121 
L 99.207597 64.131919 
L 100.175491 68.15697 
L 101.143384 68.15697 
L 102.111278 84.257172 
L 104.047065 76.207071 
L 105.014959 88.282222 
L 105.982853 76.207071 
L 106.950746 60.106869 
L 107.91864 48.031717 
L 108.886534 48.031717 
L 109.854427 68.15697 
L 110.822321 52.056768 
L 114.693896 68.15697 
L 115.661789 112.432525 
L 116.629683 96.332323 
L 117.597577 35.956566 
L 118.56547 72.18202 
L 119.533364 76.207071 
L 120.501258 56.081818 
L 121.469151 64.131919 
L 122.437045 76.207071 
L 123.404939 64.131919 
L 124.372832 60.106869 
L 125.340726 84.257172 
L 126.30862 56.081818 
L 127.276513 56.081818 
L 128.244407 112.432525 
L 129.212301 76.207071 
L 130.180194 80.232121 
L 131.148088 68.15697 
L 132.115982 60.106869 
L 133.083875 84.257172 
L 134.051769 68.15697 
L 135.019663 96.332323 
L 135.987556 76.207071 
L 136.95545 68.15697 
L 137.923344 84.257172 
L 138.891237 72.18202 
L 140.827025 72.18202 
L 141.794918 108.407475 
L 142.762812 76.207071 
L 143.730706 96.332323 
L 144.698599 48.031717 
L 145.666493 48.031717 
L 146.634387 76.207071 
L 147.60228 92.307273 
L 148.570174 100.357374 
L 150.505961 76.207071 
L 151.473855 108.407475 
L 152.441748 72.18202 
L 153.409642 80.232121 
L 154.377536 84.257172 
L 155.345429 76.207071 
L 156.313323 56.081818 
L 157.281217 68.15697 
L 158.24911 68.15697 
L 159.217004 64.131919 
L 160.184898 92.307273 
L 161.152791 72.18202 
L 162.120685 80.232121 
L 163.088579 100.357374 
L 164.056472 72.18202 
L 165.99226 80.232121 
L 166.960153 96.332323 
L 167.928047 76.207071 
L 168.895941 88.282222 
L 169.863834 64.131919 
L 170.831728 80.232121 
L 172.767515 56.081818 
L 173.735409 72.18202 
L 174.703303 48.031717 
L 175.671196 64.131919 
L 176.63909 76.207071 
L 177.606984 68.15697 
L 178.574877 88.282222 
L 179.542771 84.257172 
L 180.510665 84.257172 
L 181.478558 68.15697 
L 182.446452 39.981616 
L 183.414346 76.207071 
L 184.382239 84.257172 
L 185.350133 56.081818 
L 187.28592 88.282222 
L 188.253814 64.131919 
L 189.221708 64.131919 
L 190.189601 60.106869 
L 191.157495 112.432525 
L 192.125389 76.207071 
L 193.093282 96.332323 
L 194.061176 52.056768 
L 195.02907 44.006667 
L 195.996963 60.106869 
L 196.964857 88.282222 
L 197.932751 60.106869 
L 198.900644 72.18202 
L 199.868538 72.18202 
L 200.836431 56.081818 
L 201.804325 52.056768 
L 202.772219 72.18202 
L 203.740112 68.15697 
L 204.708006 60.106869 
L 205.6759 68.15697 
L 206.643793 64.131919 
L 207.611687 80.232121 
L 208.579581 80.232121 
L 209.547474 84.257172 
L 210.515368 60.106869 
L 211.483262 64.131919 
L 213.419049 88.282222 
L 214.386943 80.232121 
L 215.354836 88.282222 
L 216.32273 60.106869 
L 218.258517 92.307273 
L 219.226411 84.257172 
L 220.194305 72.18202 
L 221.162198 88.282222 
L 222.130092 84.257172 
L 223.097986 64.131919 
L 224.065879 84.257172 
L 225.033773 64.131919 
L 226.001667 56.081818 
L 226.96956 88.282222 
L 227.937454 96.332323 
L 228.905348 48.031717 
L 229.873241 27.906465 
L 230.841135 68.15697 
L 231.809029 64.131919 
L 232.776922 48.031717 
L 233.744816 64.131919 
L 234.71271 88.282222 
L 235.680603 80.232121 
L 236.648497 64.131919 
L 237.616391 80.232121 
L 238.584284 48.031717 
L 239.552178 80.232121 
L 240.520072 52.056768 
L 241.487965 60.106869 
L 242.455859 72.18202 
L 243.423753 64.131919 
L 244.391646 64.131919 
L 245.35954 100.357374 
L 246.327434 72.18202 
L 247.295327 84.257172 
L 248.263221 72.18202 
L 249.231115 76.207071 
L 250.199008 48.031717 
L 251.166902 52.056768 
L 252.134796 64.131919 
L 253.102689 96.332323 
L 254.070583 72.18202 
L 255.038476 56.081818 
L 256.00637 60.106869 
L 256.974264 72.18202 
L 257.942157 56.081818 
L 258.910051 68.15697 
L 259.877945 88.282222 
L 260.845838 39.981616 
L 261.813732 72.18202 
L 262.781626 84.257172 
L 263.749519 64.131919 
L 264.717413 56.081818 
L 265.685307 56.081818 
L 266.6532 76.207071 
L 267.621094 76.207071 
L 268.588988 84.257172 
L 269.556881 76.207071 
L 270.524775 52.056768 
L 271.492669 76.207071 
L 272.460562 56.081818 
L 273.428456 52.056768 
L 274.39635 84.257172 
L 275.364243 52.056768 
L 276.332137 64.131919 
L 277.300031 56.081818 
L 278.267924 88.282222 
L 279.235818 56.081818 
L 280.203712 60.106869 
L 281.171605 68.15697 
L 282.139499 88.282222 
L 283.107393 64.131919 
L 284.075286 60.106869 
L 285.04318 64.131919 
L 286.011074 92.307273 
L 286.978967 96.332323 
L 287.946861 60.106869 
L 288.914755 68.15697 
L 289.882648 84.257172 
L 290.850542 64.131919 
L 291.818436 88.282222 
L 292.786329 60.106869 
L 293.754223 84.257172 
L 294.722117 52.056768 
L 295.69001 88.282222 
L 296.657904 60.106869 
L 298.593691 76.207071 
L 299.561585 92.307273 
L 300.529479 84.257172 
L 301.497372 56.081818 
L 302.465266 88.282222 
L 303.43316 60.106869 
L 304.401053 68.15697 
L 305.368947 64.131919 
L 306.33684 64.131919 
L 307.304734 84.257172 
L 308.272628 68.15697 
L 309.240521 80.232121 
L 310.208415 60.106869 
L 311.176309 88.282222 
L 312.144202 68.15697 
L 313.112096 80.232121 
L 314.07999 60.106869 
L 315.047883 100.357374 
L 316.015777 19.856364 
L 316.983671 56.081818 
L 317.951564 72.18202 
L 318.919458 96.332323 
L 319.887352 52.056768 
L 320.855245 68.15697 
L 321.823139 72.18202 
L 322.791033 56.081818 
L 323.758926 68.15697 
L 325.694714 76.207071 
L 326.662607 64.131919 
L 327.630501 60.106869 
L 328.598395 68.15697 
L 329.566288 72.18202 
L 330.534182 84.257172 
L 331.502076 31.931515 
L 332.469969 76.207071 
L 333.437863 84.257172 
L 334.405757 96.332323 
L 335.37365 72.18202 
L 336.341544 60.106869 
L 337.309438 76.207071 
L 338.277331 76.207071 
L 339.245225 84.257172 
L 340.213119 80.232121 
L 341.181012 80.232121 
L 342.148906 92.307273 
L 343.1168 76.207071 
L 344.084693 76.207071 
L 345.052587 60.106869 
L 346.020481 88.282222 
L 346.988374 52.056768 
L 347.956268 92.307273 
L 348.924162 96.332323 
L 349.892055 64.131919 
L 350.859949 68.15697 
L 351.827843 76.207071 
L 352.795736 68.15697 
L 353.76363 72.18202 
L 354.731524 60.106869 
L 355.699417 72.18202 
L 356.667311 92.307273 
L 357.635204 52.056768 
L 358.603098 48.031717 
L 359.570992 68.15697 
L 360.538885 56.081818 
L 362.474673 64.131919 
L 363.442566 88.282222 
L 364.41046 76.207071 
L 365.378354 72.18202 
L 366.346247 64.131919 
L 367.314141 60.106869 
L 368.282035 52.056768 
L 369.249928 60.106869 
L 370.217822 80.232121 
L 371.185716 88.282222 
L 372.153609 44.006667 
L 373.121503 60.106869 
L 374.089397 84.257172 
L 375.05729 56.081818 
L 376.025184 76.207071 
L 376.993078 80.232121 
L 377.960971 52.056768 
L 378.928865 64.131919 
L 379.896759 48.031717 
L 380.864652 76.207071 
L 381.832546 84.257172 
L 382.80044 80.232121 
L 383.768333 72.18202 
L 384.736227 92.307273 
L 385.704121 64.131919 
L 386.672014 108.407475 
L 387.639908 88.282222 
L 388.607802 35.956566 
L 389.575695 80.232121 
L 390.543589 84.257172 
L 391.511483 100.357374 
L 392.479376 92.307273 
L 393.44727 68.15697 
L 394.415164 68.15697 
L 395.383057 56.081818 
L 396.350951 76.207071 
L 397.318845 64.131919 
L 398.286738 80.232121 
L 399.254632 56.081818 
L 400.222526 52.056768 
L 401.190419 120.482626 
L 402.158313 72.18202 
L 403.126207 60.106869 
L 404.0941 76.207071 
L 405.061994 48.031717 
L 406.029888 76.207071 
L 407.965675 76.207071 
L 408.933569 56.081818 
L 409.901462 68.15697 
L 410.869356 92.307273 
L 411.837249 68.15697 
L 412.805143 56.081818 
L 413.773037 39.981616 
L 414.74093 80.232121 
L 416.676718 56.081818 
L 417.644611 112.432525 
L 418.612505 48.031717 
L 419.580399 80.232121 
L 420.548292 76.207071 
L 421.516186 84.257172 
L 422.48408 52.056768 
L 423.451973 64.131919 
L 424.419867 60.106869 
L 425.387761 60.106869 
L 426.355654 84.257172 
L 427.323548 72.18202 
L 428.291442 68.15697 
L 429.259335 108.407475 
L 430.227229 80.232121 
L 431.195123 76.207071 
L 432.163016 64.131919 
L 433.13091 64.131919 
L 434.098804 104.382424 
L 435.066697 80.232121 
L 436.034591 60.106869 
L 437.002485 100.357374 
L 437.970378 116.457576 
L 438.938272 56.081818 
L 439.906166 39.981616 
L 440.874059 80.232121 
L 441.841953 60.106869 
L 442.809847 64.131919 
L 443.77774 80.232121 
L 444.745634 72.18202 
L 445.713528 80.232121 
L 446.681421 76.207071 
L 447.649315 80.232121 
L 448.617209 80.232121 
L 450.552996 56.081818 
L 451.52089 88.282222 
L 452.488783 76.207071 
L 453.456677 68.15697 
L 454.424571 56.081818 
L 455.392464 72.18202 
L 456.360358 68.15697 
L 457.328252 60.106869 
L 458.296145 44.006667 
L 459.264039 64.131919 
L 460.231933 80.232121 
L 461.199826 56.081818 
L 462.16772 68.15697 
L 463.135613 64.131919 
L 464.103507 64.131919 
L 465.071401 48.031717 
L 466.039294 52.056768 
L 467.007188 72.18202 
L 467.975082 72.18202 
L 468.942975 35.956566 
L 469.910869 76.207071 
L 470.878763 64.131919 
L 471.846656 64.131919 
L 472.81455 96.332323 
L 473.782444 64.131919 
L 474.750337 56.081818 
L 475.718231 52.056768 
L 476.686125 92.307273 
L 478.621912 60.106869 
L 479.589806 48.031717 
L 480.557699 76.207071 
L 481.525593 88.282222 
L 482.493487 60.106869 
L 483.46138 104.382424 
L 484.429274 52.056768 
L 485.397168 88.282222 
L 486.365061 60.106869 
L 487.332955 72.18202 
L 488.300849 56.081818 
L 489.268742 56.081818 
L 491.20453 80.232121 
L 492.172423 84.257172 
L 493.140317 108.407475 
L 494.108211 92.307273 
L 495.076104 84.257172 
L 496.043998 44.006667 
L 497.011892 68.15697 
L 497.979785 64.131919 
L 498.947679 76.207071 
L 499.915573 80.232121 
L 500.883466 64.131919 
L 501.85136 88.282222 
L 502.819254 48.031717 
L 503.787147 84.257172 
L 504.755041 72.18202 
L 505.722935 72.18202 
L 506.690828 60.106869 
L 507.658722 64.131919 
L 508.626616 72.18202 
L 509.594509 56.081818 
L 510.562403 76.207071 
L 511.530297 56.081818 
L 512.49819 60.106869 
L 514.433978 92.307273 
L 515.401871 39.981616 
L 516.369765 84.257172 
L 517.337658 80.232121 
L 518.305552 84.257172 
L 519.273446 64.131919 
L 520.241339 64.131919 
L 521.209233 48.031717 
L 522.177127 68.15697 
L 523.14502 100.357374 
L 524.112914 31.931515 
L 525.080808 100.357374 
L 526.048701 76.207071 
L 527.016595 31.931515 
L 527.984489 104.382424 
L 528.952382 27.906465 
L 529.920276 56.081818 
L 530.88817 108.407475 
L 531.856063 68.15697 
L 532.823957 56.081818 
L 533.791851 88.282222 
L 534.759744 84.257172 
L 535.727638 68.15697 
L 536.695532 64.131919 
L 537.663425 52.056768 
L 538.631319 100.357374 
L 539.599213 76.207071 
L 541.535 76.207071 
L 541.535 76.207071 
" clip-path="url(#p7f6ec88bd6)" style="fill: none; stroke: #99004d; stroke-width: 0.8; stroke-linecap: square"/>
   </g>
   <g id="line2d_13">
    <path d="M 68.235 84.257172 
L 69.202894 84.257172 
L 70.170787 96.332323 
L 71.138681 104.382424 
L 72.106575 80.232121 
L 73.074468 60.106869 
L 74.042362 80.232121 
L 75.010256 68.15697 
L 75.978149 192.933535 
L 76.946043 84.257172 
L 77.913937 68.15697 
L 78.88183 156.708081 
L 80.817618 140.607879 
L 81.785511 144.632929 
L 82.753405 112.432525 
L 83.721299 120.482626 
L 84.689192 156.708081 
L 85.657086 164.758182 
L 86.62498 136.582828 
L 87.592873 88.282222 
L 88.560767 84.257172 
L 89.528661 76.207071 
L 90.496554 64.131919 
L 91.464448 68.15697 
L 92.432342 140.607879 
L 93.400235 80.232121 
L 94.368129 72.18202 
L 95.336022 164.758182 
L 96.303916 64.131919 
L 98.239703 140.607879 
L 99.207597 80.232121 
L 100.175491 96.332323 
L 101.143384 104.382424 
L 102.111278 144.632929 
L 103.079172 116.457576 
L 104.047065 84.257172 
L 105.014959 92.307273 
L 105.982853 72.18202 
L 106.950746 164.758182 
L 107.91864 84.257172 
L 108.886534 136.582828 
L 109.854427 80.232121 
L 110.822321 156.708081 
L 111.790215 80.232121 
L 112.758108 132.557778 
L 113.726002 76.207071 
L 114.693896 116.457576 
L 115.661789 72.18202 
L 116.629683 64.131919 
L 117.597577 80.232121 
L 118.56547 108.407475 
L 119.533364 196.958586 
L 120.501258 100.357374 
L 121.469151 104.382424 
L 122.437045 112.432525 
L 123.404939 88.282222 
L 124.372832 180.858384 
L 125.340726 108.407475 
L 126.30862 112.432525 
L 127.276513 200.983636 
L 128.244407 180.858384 
L 129.212301 96.332323 
L 130.180194 196.958586 
L 131.148088 80.232121 
L 132.115982 192.933535 
L 133.083875 180.858384 
L 134.051769 104.382424 
L 135.019663 148.65798 
L 135.987556 164.758182 
L 136.95545 80.232121 
L 137.923344 108.407475 
L 138.891237 84.257172 
L 139.859131 184.883434 
L 140.827025 92.307273 
L 141.794918 116.457576 
L 142.762812 100.357374 
L 143.730706 196.958586 
L 144.698599 148.65798 
L 145.666493 92.307273 
L 146.634387 88.282222 
L 147.60228 92.307273 
L 148.570174 128.532727 
L 149.538067 84.257172 
L 150.505961 124.507677 
L 151.473855 76.207071 
L 152.441748 124.507677 
L 153.409642 56.081818 
L 154.377536 88.282222 
L 155.345429 80.232121 
L 156.313323 192.933535 
L 157.281217 160.733131 
L 158.24911 132.557778 
L 159.217004 64.131919 
L 160.184898 104.382424 
L 161.152791 84.257172 
L 162.120685 68.15697 
L 163.088579 92.307273 
L 164.056472 132.557778 
L 165.024366 80.232121 
L 165.99226 64.131919 
L 166.960153 160.733131 
L 167.928047 104.382424 
L 168.895941 152.68303 
L 169.863834 188.908485 
L 170.831728 80.232121 
L 171.799622 152.68303 
L 172.767515 88.282222 
L 173.735409 92.307273 
L 174.703303 152.68303 
L 175.671196 68.15697 
L 176.63909 88.282222 
L 177.606984 200.983636 
L 178.574877 60.106869 
L 179.542771 120.482626 
L 180.510665 88.282222 
L 181.478558 60.106869 
L 182.446452 180.858384 
L 183.414346 104.382424 
L 184.382239 64.131919 
L 185.350133 124.507677 
L 186.318027 80.232121 
L 187.28592 72.18202 
L 188.253814 96.332323 
L 189.221708 156.708081 
L 190.189601 84.257172 
L 191.157495 72.18202 
L 192.125389 128.532727 
L 193.093282 116.457576 
L 194.061176 152.68303 
L 195.02907 60.106869 
L 195.996963 120.482626 
L 196.964857 200.983636 
L 197.932751 84.257172 
L 198.900644 72.18202 
L 199.868538 68.15697 
L 200.836431 140.607879 
L 201.804325 104.382424 
L 202.772219 100.357374 
L 203.740112 88.282222 
L 204.708006 72.18202 
L 205.6759 72.18202 
L 206.643793 92.307273 
L 207.611687 52.056768 
L 208.579581 108.407475 
L 209.547474 132.557778 
L 210.515368 84.257172 
L 211.483262 100.357374 
L 212.451155 140.607879 
L 213.419049 84.257172 
L 214.386943 124.507677 
L 215.354836 112.432525 
L 216.32273 88.282222 
L 217.290624 152.68303 
L 218.258517 64.131919 
L 219.226411 132.557778 
L 220.194305 96.332323 
L 221.162198 92.307273 
L 222.130092 200.983636 
L 223.097986 88.282222 
L 224.065879 84.257172 
L 225.033773 68.15697 
L 226.001667 84.257172 
L 226.96956 76.207071 
L 227.937454 96.332323 
L 228.905348 92.307273 
L 229.873241 68.15697 
L 230.841135 76.207071 
L 231.809029 116.457576 
L 232.776922 104.382424 
L 233.744816 64.131919 
L 234.71271 152.68303 
L 235.680603 80.232121 
L 236.648497 192.933535 
L 237.616391 120.482626 
L 238.584284 188.908485 
L 239.552178 76.207071 
L 240.520072 128.532727 
L 241.487965 124.507677 
L 242.455859 140.607879 
L 243.423753 124.507677 
L 244.391646 176.833333 
L 245.35954 76.207071 
L 246.327434 84.257172 
L 247.295327 100.357374 
L 248.263221 124.507677 
L 249.231115 156.708081 
L 250.199008 88.282222 
L 252.134796 128.532727 
L 253.102689 136.582828 
L 254.070583 132.557778 
L 255.038476 84.257172 
L 256.974264 76.207071 
L 257.942157 96.332323 
L 258.910051 128.532727 
L 259.877945 44.006667 
L 260.845838 76.207071 
L 261.813732 104.382424 
L 262.781626 120.482626 
L 263.749519 164.758182 
L 264.717413 76.207071 
L 265.685307 192.933535 
L 266.6532 128.532727 
L 267.621094 72.18202 
L 268.588988 56.081818 
L 269.556881 64.131919 
L 270.524775 140.607879 
L 271.492669 156.708081 
L 272.460562 152.68303 
L 273.428456 72.18202 
L 274.39635 92.307273 
L 275.364243 104.382424 
L 276.332137 136.582828 
L 277.300031 72.18202 
L 278.267924 72.18202 
L 279.235818 116.457576 
L 280.203712 112.432525 
L 281.171605 136.582828 
L 282.139499 88.282222 
L 283.107393 80.232121 
L 284.075286 56.081818 
L 285.04318 176.833333 
L 286.011074 68.15697 
L 286.978967 124.507677 
L 287.946861 96.332323 
L 288.914755 148.65798 
L 289.882648 64.131919 
L 290.850542 76.207071 
L 291.818436 96.332323 
L 292.786329 84.257172 
L 293.754223 92.307273 
L 294.722117 148.65798 
L 295.69001 196.958586 
L 296.657904 152.68303 
L 297.625798 72.18202 
L 299.561585 96.332323 
L 300.529479 76.207071 
L 301.497372 64.131919 
L 302.465266 124.507677 
L 303.43316 168.783232 
L 304.401053 100.357374 
L 305.368947 196.958586 
L 306.33684 128.532727 
L 307.304734 108.407475 
L 309.240521 192.933535 
L 310.208415 72.18202 
L 311.176309 184.883434 
L 312.144202 88.282222 
L 313.112096 80.232121 
L 314.07999 140.607879 
L 315.047883 76.207071 
L 316.015777 68.15697 
L 316.983671 96.332323 
L 317.951564 68.15697 
L 318.919458 92.307273 
L 319.887352 84.257172 
L 320.855245 88.282222 
L 321.823139 64.131919 
L 322.791033 116.457576 
L 323.758926 184.883434 
L 324.72682 180.858384 
L 325.694714 188.908485 
L 326.662607 96.332323 
L 327.630501 116.457576 
L 328.598395 80.232121 
L 329.566288 184.883434 
L 330.534182 192.933535 
L 331.502076 92.307273 
L 332.469969 200.983636 
L 333.437863 108.407475 
L 334.405757 128.532727 
L 335.37365 120.482626 
L 336.341544 168.783232 
L 337.309438 88.282222 
L 338.277331 76.207071 
L 339.245225 104.382424 
L 340.213119 168.783232 
L 341.181012 92.307273 
L 342.148906 96.332323 
L 343.1168 68.15697 
L 344.084693 136.582828 
L 345.052587 144.632929 
L 346.020481 184.883434 
L 346.988374 192.933535 
L 347.956268 116.457576 
L 348.924162 192.933535 
L 349.892055 80.232121 
L 350.859949 140.607879 
L 351.827843 136.582828 
L 352.795736 160.733131 
L 353.76363 84.257172 
L 354.731524 84.257172 
L 355.699417 68.15697 
L 356.667311 112.432525 
L 357.635204 104.382424 
L 358.603098 72.18202 
L 359.570992 124.507677 
L 360.538885 68.15697 
L 361.506779 88.282222 
L 362.474673 148.65798 
L 363.442566 88.282222 
L 364.41046 72.18202 
L 365.378354 76.207071 
L 366.346247 140.607879 
L 367.314141 188.908485 
L 368.282035 192.933535 
L 369.249928 152.68303 
L 370.217822 96.332323 
L 371.185716 132.557778 
L 372.153609 116.457576 
L 373.121503 96.332323 
L 374.089397 196.958586 
L 375.05729 188.908485 
L 376.025184 68.15697 
L 376.993078 112.432525 
L 377.960971 68.15697 
L 378.928865 136.582828 
L 379.896759 80.232121 
L 380.864652 176.833333 
L 381.832546 84.257172 
L 382.80044 88.282222 
L 383.768333 108.407475 
L 384.736227 60.106869 
L 385.704121 96.332323 
L 386.672014 60.106869 
L 387.639908 84.257172 
L 388.607802 88.282222 
L 389.575695 200.983636 
L 390.543589 108.407475 
L 391.511483 120.482626 
L 392.479376 80.232121 
L 393.44727 200.983636 
L 394.415164 72.18202 
L 395.383057 120.482626 
L 396.350951 64.131919 
L 397.318845 100.357374 
L 398.286738 200.983636 
L 399.254632 96.332323 
L 400.222526 128.532727 
L 401.190419 120.482626 
L 402.158313 100.357374 
L 403.126207 104.382424 
L 404.0941 56.081818 
L 405.061994 72.18202 
L 406.029888 112.432525 
L 406.997781 104.382424 
L 407.965675 72.18202 
L 408.933569 120.482626 
L 409.901462 80.232121 
L 410.869356 84.257172 
L 411.837249 132.557778 
L 412.805143 168.783232 
L 413.773037 76.207071 
L 414.74093 148.65798 
L 415.708824 108.407475 
L 416.676718 92.307273 
L 417.644611 160.733131 
L 418.612505 72.18202 
L 419.580399 172.808283 
L 420.548292 64.131919 
L 421.516186 116.457576 
L 422.48408 128.532727 
L 423.451973 92.307273 
L 424.419867 80.232121 
L 425.387761 164.758182 
L 426.355654 140.607879 
L 427.323548 188.908485 
L 428.291442 72.18202 
L 429.259335 116.457576 
L 430.227229 144.632929 
L 431.195123 76.207071 
L 432.163016 92.307273 
L 433.13091 156.708081 
L 434.098804 124.507677 
L 435.066697 104.382424 
L 436.034591 68.15697 
L 437.002485 200.983636 
L 437.970378 184.883434 
L 438.938272 100.357374 
L 439.906166 68.15697 
L 440.874059 88.282222 
L 442.809847 172.808283 
L 443.77774 188.908485 
L 444.745634 96.332323 
L 445.713528 84.257172 
L 446.681421 120.482626 
L 447.649315 88.282222 
L 448.617209 60.106869 
L 449.585102 60.106869 
L 450.552996 104.382424 
L 451.52089 88.282222 
L 452.488783 144.632929 
L 453.456677 180.858384 
L 454.424571 88.282222 
L 455.392464 188.908485 
L 456.360358 84.257172 
L 457.328252 100.357374 
L 458.296145 200.983636 
L 459.264039 196.958586 
L 460.231933 188.908485 
L 461.199826 72.18202 
L 462.16772 148.65798 
L 463.135613 72.18202 
L 464.103507 80.232121 
L 465.071401 104.382424 
L 466.039294 184.883434 
L 467.007188 64.131919 
L 467.975082 76.207071 
L 468.942975 80.232121 
L 469.910869 108.407475 
L 470.878763 80.232121 
L 471.846656 152.68303 
L 472.81455 84.257172 
L 473.782444 76.207071 
L 474.750337 128.532727 
L 475.718231 188.908485 
L 476.686125 116.457576 
L 477.654018 84.257172 
L 478.621912 132.557778 
L 479.589806 76.207071 
L 480.557699 196.958586 
L 481.525593 92.307273 
L 482.493487 128.532727 
L 483.46138 136.582828 
L 484.429274 132.557778 
L 485.397168 180.858384 
L 486.365061 136.582828 
L 487.332955 104.382424 
L 488.300849 140.607879 
L 489.268742 56.081818 
L 491.20453 80.232121 
L 492.172423 128.532727 
L 493.140317 92.307273 
L 494.108211 184.883434 
L 495.076104 116.457576 
L 496.043998 116.457576 
L 497.011892 88.282222 
L 497.979785 100.357374 
L 498.947679 96.332323 
L 499.915573 108.407475 
L 500.883466 116.457576 
L 501.85136 128.532727 
L 502.819254 68.15697 
L 503.787147 64.131919 
L 504.755041 136.582828 
L 505.722935 112.432525 
L 506.690828 84.257172 
L 507.658722 120.482626 
L 508.626616 80.232121 
L 509.594509 188.908485 
L 510.562403 144.632929 
L 511.530297 68.15697 
L 512.49819 104.382424 
L 513.466084 68.15697 
L 514.433978 84.257172 
L 515.401871 164.758182 
L 517.337658 72.18202 
L 519.273446 176.833333 
L 520.241339 88.282222 
L 521.209233 92.307273 
L 522.177127 80.232121 
L 523.14502 116.457576 
L 524.112914 180.858384 
L 526.048701 76.207071 
L 527.016595 72.18202 
L 527.984489 72.18202 
L 528.952382 128.532727 
L 529.920276 96.332323 
L 530.88817 76.207071 
L 531.856063 104.382424 
L 532.823957 188.908485 
L 533.791851 100.357374 
L 534.759744 80.232121 
L 535.727638 96.332323 
L 536.695532 80.232121 
L 537.663425 76.207071 
L 538.631319 52.056768 
L 539.599213 108.407475 
L 540.567106 80.232121 
L 541.535 72.18202 
L 541.535 72.18202 
" clip-path="url(#p7f6ec88bd6)" style="fill: none; stroke: #235996; stroke-width: 0.8; stroke-linecap: square"/>
   </g>
   <g id="patch_3">
    <path d="M 44.57 210.04 
L 44.57 10.8 
" style="fill: none; stroke: #000000; stroke-width: 0.8; stroke-linejoin: miter; stroke-linecap: square"/>
   </g>
   <g id="patch_4">
    <path d="M 565.2 210.04 
L 565.2 10.8 
" style="fill: none; stroke: #000000; stroke-width: 0.8; stroke-linejoin: miter; stroke-linecap: square"/>
   </g>
   <g id="patch_5">
    <path d="M 44.57 210.04 
L 565.2 210.04 
" style="fill: none; stroke: #000000; stroke-width: 0.8; stroke-linejoin: miter; stroke-linecap: square"/>
   </g>
   <g id="patch_6">
    <path d="M 44.57 10.8 
L 565.2 10.8 
" style="fill: none; stroke: #000000; stroke-width: 0.8; stroke-linejoin: miter; stroke-linecap: square"/>
   </g>
   <g id="legend_1">
    <g id="patch_7">
     <path d="M 156.8845 43.4565 
L 452.8855 43.4565 
Q 455.7655 43.4565 455.7655 40.5765 
L 455.7655 20.88 
Q 455.7655 18 452.8855 18 
L 156.8845 18 
Q 154.0045 18 154.0045 20.88 
L 154.0045 40.5765 
Q 154.0045 43.4565 156.8845 43.4565 
z
" style="fill: #ffffff; opacity: 0.8; stroke: #000000; stroke-linejoin: miter"/>
    </g>
    <g id="line2d_14">
     <path d="M 159.7645 29.66175 
L 174.1645 29.66175 
L 188.5645 29.66175 
" style="fill: none; stroke: #99004d; stroke-width: 0.8; stroke-linecap: square"/>
    </g>
    <g id="text_14">
     <text style="font: 14.4px 'DejaVu Sans', 'Bitstream Vera Sans', 'Computer Modern Sans Serif', 'Lucida Grande', 'Verdana', 'Geneva', 'Lucid', 'Arial', 'Helvetica', 'Avant Garde', sans-serif; text-anchor: start" x="200.0845" y="34.70175" transform="rotate(-0 200.0845 34.70175)">hw(random)</text>
    </g>
    <g id="line2d_15">
     <path d="M 316.873 29.66175 
L 331.273 29.66175 
L 345.673 29.66175 
" style="fill: none; stroke: #235996; stroke-width: 0.8; stroke-linecap: square"/>
    </g>
    <g id="text_15">
     <text style="font: 14.4px 'DejaVu Sans', 'Bitstream Vera Sans', 'Computer Modern Sans Serif', 'Lucida Grande', 'Verdana', 'Geneva', 'Lucid', 'Arial', 'Helvetica', 'Avant Garde', sans-serif; text-anchor: start" x="357.193" y="34.70175" transform="rotate(-0 357.193 34.70175)"> hw(HWGEN)</text>
    </g>
   </g>
  </g>
 </g>
 <defs>
  <clipPath id="p7f6ec88bd6">
   <rect x="44.57" y="10.8" width="520.63" height="199.24"/>
  </clipPath>
 </defs>
</svg>
