<?xml version="1.0" encoding="utf-8" standalone="no"?>
<!DOCTYPE svg PUBLIC "-//W3C//DTD SVG 1.1//EN"
  "http://www.w3.org/Graphics/SVG/1.1/DTD/svg11.dtd">
<svg xmlns:xlink="http://www.w3.org/1999/xlink" width="576pt" height="252pt" viewBox="0 0 576 252" xmlns="http://www.w3.org/2000/svg" version="1.1">
 <metadata>
  <rdf:RDF xmlns:dc="http://purl.org/dc/elements/1.1/" xmlns:cc="http://creativecommons.org/ns#" xmlns:rdf="http://www.w3.org/1999/02/22-rdf-syntax-ns#">
   <cc:Work>
    <dc:type rdf:resource="http://purl.org/dc/dcmitype/StillImage"/>
    <dc:date>2023-11-26T17:35:16.331547</dc:date>
    <dc:format>image/svg+xml</dc:format>
    <dc:creator>
     <cc:Agent>
      <dc:title>Matplotlib v3.8.2, https://matplotlib.org/</dc:title>
     </cc:Agent>
    </dc:creator>
   </cc:Work>
  </rdf:RDF>
 </metadata>
 <defs>
  <style type="text/css">*{stroke-linejoin: round; stroke-linecap: butt}</style>
 </defs>
 <g id="figure_1">
  <g id="patch_1">
   <path d="M 0 252 
L 576 252 
L 576 0 
L 0 0 
z
" style="fill: #ffffff"/>
  </g>
  <g id="axes_1">
   <g id="patch_2">
    <path d="M 44.57 210.04 
L 565.2 210.04 
L 565.2 10.8 
L 44.57 10.8 
z
" style="fill: #ffffff"/>
   </g>
   <g id="matplotlib.axis_1">
    <g id="xtick_1">
     <g id="line2d_1">
      <defs>
       <path id="mb89a6a78fc" d="M 0 0 
L 0 3.5 
" style="stroke: #000000; stroke-width: 0.8"/>
      </defs>
      <g>
       <use xlink:href="#mb89a6a78fc" x="68.235" y="210.04" style="stroke: #000000; stroke-width: 0.8"/>
      </g>
     </g>
     <g id="text_1">
      <text style="font: 10px 'DejaVu Sans', 'Bitstream Vera Sans', 'Computer Modern Sans Serif', 'Lucida Grande', 'Verdana', 'Geneva', 'Lucid', 'Arial', 'Helvetica', 'Avant Garde', sans-serif; text-anchor: middle" x="68.235" y="224.638438" transform="rotate(-0 68.235 224.638438)">0</text>
     </g>
    </g>
    <g id="xtick_2">
     <g id="line2d_2">
      <g>
       <use xlink:href="#mb89a6a78fc" x="165.024366" y="210.04" style="stroke: #000000; stroke-width: 0.8"/>
      </g>
     </g>
     <g id="text_2">
      <text style="font: 10px 'DejaVu Sans', 'Bitstream Vera Sans', 'Computer Modern Sans Serif', 'Lucida Grande', 'Verdana', 'Geneva', 'Lucid', 'Arial', 'Helvetica', 'Avant Garde', sans-serif; text-anchor: middle" x="165.024366" y="224.638438" transform="rotate(-0 165.024366 224.638438)">100</text>
     </g>
    </g>
    <g id="xtick_3">
     <g id="line2d_3">
      <g>
       <use xlink:href="#mb89a6a78fc" x="261.813732" y="210.04" style="stroke: #000000; stroke-width: 0.8"/>
      </g>
     </g>
     <g id="text_3">
      <text style="font: 10px 'DejaVu Sans', 'Bitstream Vera Sans', 'Computer Modern Sans Serif', 'Lucida Grande', 'Verdana', 'Geneva', 'Lucid', 'Arial', 'Helvetica', 'Avant Garde', sans-serif; text-anchor: middle" x="261.813732" y="224.638438" transform="rotate(-0 261.813732 224.638438)">200</text>
     </g>
    </g>
    <g id="xtick_4">
     <g id="line2d_4">
      <g>
       <use xlink:href="#mb89a6a78fc" x="358.603098" y="210.04" style="stroke: #000000; stroke-width: 0.8"/>
      </g>
     </g>
     <g id="text_4">
      <text style="font: 10px 'DejaVu Sans', 'Bitstream Vera Sans', 'Computer Modern Sans Serif', 'Lucida Grande', 'Verdana', 'Geneva', 'Lucid', 'Arial', 'Helvetica', 'Avant Garde', sans-serif; text-anchor: middle" x="358.603098" y="224.638438" transform="rotate(-0 358.603098 224.638438)">300</text>
     </g>
    </g>
    <g id="xtick_5">
     <g id="line2d_5">
      <g>
       <use xlink:href="#mb89a6a78fc" x="455.392464" y="210.04" style="stroke: #000000; stroke-width: 0.8"/>
      </g>
     </g>
     <g id="text_5">
      <text style="font: 10px 'DejaVu Sans', 'Bitstream Vera Sans', 'Computer Modern Sans Serif', 'Lucida Grande', 'Verdana', 'Geneva', 'Lucid', 'Arial', 'Helvetica', 'Avant Garde', sans-serif; text-anchor: middle" x="455.392464" y="224.638438" transform="rotate(-0 455.392464 224.638438)">400</text>
     </g>
    </g>
    <g id="xtick_6">
     <g id="line2d_6">
      <g>
       <use xlink:href="#mb89a6a78fc" x="552.18183" y="210.04" style="stroke: #000000; stroke-width: 0.8"/>
      </g>
     </g>
     <g id="text_6">
      <text style="font: 10px 'DejaVu Sans', 'Bitstream Vera Sans', 'Computer Modern Sans Serif', 'Lucida Grande', 'Verdana', 'Geneva', 'Lucid', 'Arial', 'Helvetica', 'Avant Garde', sans-serif; text-anchor: middle" x="552.18183" y="224.638438" transform="rotate(-0 552.18183 224.638438)">500</text>
     </g>
    </g>
    <g id="text_7">
     <text style="font: 10px 'DejaVu Sans', 'Bitstream Vera Sans', 'Computer Modern Sans Serif', 'Lucida Grande', 'Verdana', 'Geneva', 'Lucid', 'Arial', 'Helvetica', 'Avant Garde', sans-serif; text-anchor: middle" x="304.885" y="238.316563" transform="rotate(-0 304.885 238.316563)">Iterations</text>
    </g>
   </g>
   <g id="matplotlib.axis_2">
    <g id="ytick_1">
     <g id="line2d_7">
      <defs>
       <path id="mde6443bc39" d="M 0 0 
L -3.5 0 
" style="stroke: #000000; stroke-width: 0.8"/>
      </defs>
      <g>
       <use xlink:href="#mde6443bc39" x="44.57" y="200.983636" style="stroke: #000000; stroke-width: 0.8"/>
      </g>
     </g>
     <g id="text_8">
      <text style="font: 10px 'DejaVu Sans', 'Bitstream Vera Sans', 'Computer Modern Sans Serif', 'Lucida Grande', 'Verdana', 'Geneva', 'Lucid', 'Arial', 'Helvetica', 'Avant Garde', sans-serif; text-anchor: end" x="37.57" y="204.782855" transform="rotate(-0 37.57 204.782855)">0</text>
     </g>
    </g>
    <g id="ytick_2">
     <g id="line2d_8">
      <g>
       <use xlink:href="#mde6443bc39" x="44.57" y="160.733131" style="stroke: #000000; stroke-width: 0.8"/>
      </g>
     </g>
     <g id="text_9">
      <text style="font: 10px 'DejaVu Sans', 'Bitstream Vera Sans', 'Computer Modern Sans Serif', 'Lucida Grande', 'Verdana', 'Geneva', 'Lucid', 'Arial', 'Helvetica', 'Avant Garde', sans-serif; text-anchor: end" x="37.57" y="164.53235" transform="rotate(-0 37.57 164.53235)">10</text>
     </g>
    </g>
    <g id="ytick_3">
     <g id="line2d_9">
      <g>
       <use xlink:href="#mde6443bc39" x="44.57" y="120.482626" style="stroke: #000000; stroke-width: 0.8"/>
      </g>
     </g>
     <g id="text_10">
      <text style="font: 10px 'DejaVu Sans', 'Bitstream Vera Sans', 'Computer Modern Sans Serif', 'Lucida Grande', 'Verdana', 'Geneva', 'Lucid', 'Arial', 'Helvetica', 'Avant Garde', sans-serif; text-anchor: end" x="37.57" y="124.281845" transform="rotate(-0 37.57 124.281845)">20</text>
     </g>
    </g>
    <g id="ytick_4">
     <g id="line2d_10">
      <g>
       <use xlink:href="#mde6443bc39" x="44.57" y="80.232121" style="stroke: #000000; stroke-width: 0.8"/>
      </g>
     </g>
     <g id="text_11">
      <text style="font: 10px 'DejaVu Sans', 'Bitstream Vera Sans', 'Computer Modern Sans Serif', 'Lucida Grande', 'Verdana', 'Geneva', 'Lucid', 'Arial', 'Helvetica', 'Avant Garde', sans-serif; text-anchor: end" x="37.57" y="84.03134" transform="rotate(-0 37.57 84.03134)">30</text>
     </g>
    </g>
    <g id="ytick_5">
     <g id="line2d_11">
      <g>
       <use xlink:href="#mde6443bc39" x="44.57" y="39.981616" style="stroke: #000000; stroke-width: 0.8"/>
      </g>
     </g>
     <g id="text_12">
      <text style="font: 10px 'DejaVu Sans', 'Bitstream Vera Sans', 'Computer Modern Sans Serif', 'Lucida Grande', 'Verdana', 'Geneva', 'Lucid', 'Arial', 'Helvetica', 'Avant Garde', sans-serif; text-anchor: end" x="37.57" y="43.780835" transform="rotate(-0 37.57 43.780835)">40</text>
     </g>
    </g>
    <g id="text_13">
     <text style="font: 10px 'DejaVu Sans', 'Bitstream Vera Sans', 'Computer Modern Sans Serif', 'Lucida Grande', 'Verdana', 'Geneva', 'Lucid', 'Arial', 'Helvetica', 'Avant Garde', sans-serif; text-anchor: middle" x="18.765313" y="110.42" transform="rotate(-90 18.765313 110.42)">Randomness</text>
    </g>
   </g>
   <g id="line2d_12">
    <path d="M 68.235 76.207071 
L 69.202894 76.207071 
L 70.170787 88.282222 
L 71.138681 72.18202 
L 72.106575 76.207071 
L 73.074468 92.307273 
L 74.042362 112.432525 
L 75.010256 80.232121 
L 75.978149 39.981616 
L 76.946043 72.18202 
L 77.913937 84.257172 
L 78.88183 80.232121 
L 79.849724 92.307273 
L 80.817618 68.15697 
L 81.785511 52.056768 
L 82.753405 88.282222 
L 83.721299 96.332323 
L 84.689192 88.282222 
L 85.657086 72.18202 
L 86.62498 100.357374 
L 87.592873 48.031717 
L 88.560767 48.031717 
L 89.528661 68.15697 
L 91.464448 60.106869 
L 92.432342 52.056768 
L 93.400235 60.106869 
L 94.368129 88.282222 
L 95.336022 60.106869 
L 96.303916 88.282222 
L 97.27181 104.382424 
L 98.239703 72.18202 
L 99.207597 84.257172 
L 100.175491 68.15697 
L 101.143384 92.307273 
L 102.111278 64.131919 
L 103.079172 80.232121 
L 104.047065 100.357374 
L 105.014959 92.307273 
L 105.982853 96.332323 
L 106.950746 64.131919 
L 107.91864 80.232121 
L 109.854427 64.131919 
L 110.822321 64.131919 
L 111.790215 52.056768 
L 112.758108 84.257172 
L 113.726002 35.956566 
L 114.693896 64.131919 
L 115.661789 76.207071 
L 116.629683 68.15697 
L 117.597577 80.232121 
L 118.56547 60.106869 
L 119.533364 72.18202 
L 120.501258 80.232121 
L 121.469151 64.131919 
L 122.437045 84.257172 
L 123.404939 80.232121 
L 124.372832 64.131919 
L 125.340726 60.106869 
L 126.30862 48.031717 
L 128.244407 88.282222 
L 129.212301 72.18202 
L 130.180194 88.282222 
L 131.148088 80.232121 
L 132.115982 35.956566 
L 133.083875 48.031717 
L 134.051769 44.006667 
L 135.019663 64.131919 
L 135.987556 64.131919 
L 136.95545 76.207071 
L 138.891237 84.257172 
L 139.859131 104.382424 
L 140.827025 104.382424 
L 141.794918 68.15697 
L 142.762812 88.282222 
L 143.730706 68.15697 
L 144.698599 64.131919 
L 145.666493 56.081818 
L 146.634387 68.15697 
L 147.60228 68.15697 
L 148.570174 48.031717 
L 149.538067 68.15697 
L 150.505961 92.307273 
L 151.473855 80.232121 
L 152.441748 52.056768 
L 153.409642 68.15697 
L 154.377536 72.18202 
L 155.345429 60.106869 
L 157.281217 84.257172 
L 160.184898 60.106869 
L 161.152791 64.131919 
L 162.120685 72.18202 
L 163.088579 72.18202 
L 164.056472 56.081818 
L 165.024366 92.307273 
L 165.99226 64.131919 
L 166.960153 80.232121 
L 167.928047 76.207071 
L 168.895941 52.056768 
L 169.863834 100.357374 
L 170.831728 60.106869 
L 171.799622 104.382424 
L 172.767515 96.332323 
L 173.735409 76.207071 
L 174.703303 48.031717 
L 175.671196 96.332323 
L 176.63909 92.307273 
L 177.606984 68.15697 
L 178.574877 88.282222 
L 179.542771 64.131919 
L 180.510665 68.15697 
L 181.478558 96.332323 
L 182.446452 68.15697 
L 183.414346 80.232121 
L 184.382239 108.407475 
L 185.350133 64.131919 
L 186.318027 44.006667 
L 187.28592 84.257172 
L 188.253814 64.131919 
L 189.221708 96.332323 
L 190.189601 60.106869 
L 191.157495 76.207071 
L 192.125389 80.232121 
L 193.093282 76.207071 
L 194.061176 88.282222 
L 195.02907 64.131919 
L 195.996963 56.081818 
L 196.964857 72.18202 
L 197.932751 104.382424 
L 198.900644 68.15697 
L 199.868538 88.282222 
L 200.836431 48.031717 
L 201.804325 108.407475 
L 202.772219 80.232121 
L 203.740112 64.131919 
L 204.708006 68.15697 
L 205.6759 80.232121 
L 206.643793 60.106869 
L 207.611687 60.106869 
L 209.547474 92.307273 
L 210.515368 84.257172 
L 211.483262 68.15697 
L 212.451155 92.307273 
L 213.419049 52.056768 
L 214.386943 92.307273 
L 215.354836 92.307273 
L 216.32273 56.081818 
L 217.290624 72.18202 
L 218.258517 48.031717 
L 219.226411 56.081818 
L 220.194305 68.15697 
L 221.162198 68.15697 
L 222.130092 64.131919 
L 223.097986 88.282222 
L 224.065879 108.407475 
L 225.033773 80.232121 
L 226.001667 68.15697 
L 226.96956 104.382424 
L 227.937454 68.15697 
L 228.905348 92.307273 
L 229.873241 56.081818 
L 230.841135 64.131919 
L 231.809029 64.131919 
L 232.776922 112.432525 
L 233.744816 76.207071 
L 234.71271 48.031717 
L 235.680603 96.332323 
L 236.648497 96.332323 
L 237.616391 68.15697 
L 238.584284 52.056768 
L 239.552178 76.207071 
L 240.520072 84.257172 
L 241.487965 64.131919 
L 242.455859 76.207071 
L 243.423753 56.081818 
L 244.391646 76.207071 
L 245.35954 60.106869 
L 246.327434 84.257172 
L 247.295327 64.131919 
L 248.263221 80.232121 
L 249.231115 76.207071 
L 250.199008 68.15697 
L 251.166902 96.332323 
L 252.134796 72.18202 
L 253.102689 72.18202 
L 254.070583 84.257172 
L 255.038476 72.18202 
L 256.00637 72.18202 
L 256.974264 56.081818 
L 257.942157 84.257172 
L 258.910051 76.207071 
L 259.877945 72.18202 
L 260.845838 52.056768 
L 261.813732 72.18202 
L 262.781626 68.15697 
L 263.749519 68.15697 
L 264.717413 100.357374 
L 265.685307 84.257172 
L 266.6532 100.357374 
L 267.621094 60.106869 
L 268.588988 92.307273 
L 269.556881 64.131919 
L 270.524775 72.18202 
L 271.492669 76.207071 
L 272.460562 76.207071 
L 273.428456 72.18202 
L 274.39635 100.357374 
L 275.364243 76.207071 
L 276.332137 64.131919 
L 277.300031 39.981616 
L 278.267924 72.18202 
L 279.235818 84.257172 
L 280.203712 64.131919 
L 281.171605 96.332323 
L 282.139499 64.131919 
L 283.107393 44.006667 
L 284.075286 92.307273 
L 285.04318 76.207071 
L 286.011074 116.457576 
L 286.978967 80.232121 
L 287.946861 68.15697 
L 288.914755 80.232121 
L 289.882648 96.332323 
L 290.850542 80.232121 
L 291.818436 84.257172 
L 292.786329 76.207071 
L 293.754223 56.081818 
L 294.722117 64.131919 
L 295.69001 60.106869 
L 296.657904 96.332323 
L 297.625798 72.18202 
L 298.593691 60.106869 
L 299.561585 60.106869 
L 300.529479 76.207071 
L 301.497372 64.131919 
L 302.465266 39.981616 
L 303.43316 88.282222 
L 304.401053 52.056768 
L 305.368947 68.15697 
L 306.33684 60.106869 
L 307.304734 76.207071 
L 308.272628 76.207071 
L 309.240521 68.15697 
L 310.208415 92.307273 
L 311.176309 68.15697 
L 312.144202 92.307273 
L 313.112096 88.282222 
L 314.07999 19.856364 
L 315.047883 68.15697 
L 316.015777 72.18202 
L 316.983671 68.15697 
L 317.951564 88.282222 
L 318.919458 52.056768 
L 319.887352 64.131919 
L 320.855245 84.257172 
L 321.823139 72.18202 
L 323.758926 72.18202 
L 324.72682 92.307273 
L 325.694714 92.307273 
L 326.662607 76.207071 
L 327.630501 72.18202 
L 328.598395 60.106869 
L 329.566288 64.131919 
L 330.534182 56.081818 
L 331.502076 76.207071 
L 332.469969 72.18202 
L 333.437863 76.207071 
L 334.405757 88.282222 
L 335.37365 72.18202 
L 336.341544 92.307273 
L 337.309438 84.257172 
L 338.277331 72.18202 
L 339.245225 64.131919 
L 340.213119 76.207071 
L 341.181012 68.15697 
L 342.148906 100.357374 
L 344.084693 76.207071 
L 346.020481 76.207071 
L 347.956268 52.056768 
L 348.924162 72.18202 
L 349.892055 84.257172 
L 350.859949 19.856364 
L 351.827843 60.106869 
L 352.795736 80.232121 
L 353.76363 76.207071 
L 354.731524 68.15697 
L 355.699417 96.332323 
L 356.667311 68.15697 
L 357.635204 52.056768 
L 358.603098 72.18202 
L 359.570992 64.131919 
L 360.538885 60.106869 
L 361.506779 68.15697 
L 362.474673 72.18202 
L 363.442566 64.131919 
L 364.41046 52.056768 
L 365.378354 80.232121 
L 366.346247 48.031717 
L 367.314141 84.257172 
L 368.282035 84.257172 
L 370.217822 68.15697 
L 371.185716 88.282222 
L 372.153609 96.332323 
L 373.121503 92.307273 
L 374.089397 44.006667 
L 375.05729 56.081818 
L 376.025184 60.106869 
L 376.993078 48.031717 
L 377.960971 52.056768 
L 378.928865 104.382424 
L 379.896759 80.232121 
L 380.864652 80.232121 
L 381.832546 52.056768 
L 382.80044 92.307273 
L 383.768333 60.106869 
L 384.736227 80.232121 
L 385.704121 72.18202 
L 386.672014 80.232121 
L 387.639908 68.15697 
L 388.607802 84.257172 
L 390.543589 84.257172 
L 391.511483 88.282222 
L 392.479376 88.282222 
L 393.44727 56.081818 
L 394.415164 72.18202 
L 395.383057 92.307273 
L 396.350951 92.307273 
L 397.318845 80.232121 
L 398.286738 44.006667 
L 399.254632 88.282222 
L 400.222526 88.282222 
L 401.190419 64.131919 
L 402.158313 112.432525 
L 403.126207 92.307273 
L 404.0941 96.332323 
L 405.061994 76.207071 
L 406.029888 52.056768 
L 406.997781 64.131919 
L 407.965675 68.15697 
L 408.933569 68.15697 
L 409.901462 96.332323 
L 410.869356 72.18202 
L 411.837249 68.15697 
L 412.805143 68.15697 
L 413.773037 80.232121 
L 414.74093 80.232121 
L 415.708824 68.15697 
L 416.676718 80.232121 
L 417.644611 76.207071 
L 418.612505 60.106869 
L 419.580399 96.332323 
L 420.548292 56.081818 
L 421.516186 76.207071 
L 423.451973 92.307273 
L 424.419867 84.257172 
L 425.387761 64.131919 
L 426.355654 84.257172 
L 427.323548 76.207071 
L 428.291442 76.207071 
L 429.259335 48.031717 
L 430.227229 60.106869 
L 431.195123 68.15697 
L 432.163016 72.18202 
L 433.13091 64.131919 
L 434.098804 64.131919 
L 435.066697 48.031717 
L 436.034591 64.131919 
L 437.970378 88.282222 
L 438.938272 68.15697 
L 439.906166 52.056768 
L 440.874059 92.307273 
L 441.841953 68.15697 
L 442.809847 52.056768 
L 443.77774 80.232121 
L 444.745634 44.006667 
L 445.713528 80.232121 
L 446.681421 60.106869 
L 447.649315 68.15697 
L 448.617209 52.056768 
L 449.585102 60.106869 
L 450.552996 104.382424 
L 451.52089 52.056768 
L 452.488783 68.15697 
L 453.456677 52.056768 
L 454.424571 76.207071 
L 455.392464 44.006667 
L 456.360358 100.357374 
L 457.328252 80.232121 
L 458.296145 84.257172 
L 459.264039 64.131919 
L 460.231933 52.056768 
L 461.199826 92.307273 
L 462.16772 52.056768 
L 463.135613 84.257172 
L 464.103507 60.106869 
L 465.071401 52.056768 
L 466.039294 60.106869 
L 467.007188 64.131919 
L 467.975082 84.257172 
L 468.942975 56.081818 
L 469.910869 88.282222 
L 470.878763 64.131919 
L 471.846656 72.18202 
L 472.81455 64.131919 
L 473.782444 76.207071 
L 474.750337 39.981616 
L 476.686125 96.332323 
L 477.654018 23.881414 
L 478.621912 68.15697 
L 479.589806 72.18202 
L 480.557699 88.282222 
L 481.525593 76.207071 
L 482.493487 84.257172 
L 483.46138 60.106869 
L 484.429274 100.357374 
L 485.397168 72.18202 
L 487.332955 64.131919 
L 488.300849 80.232121 
L 490.236636 64.131919 
L 491.20453 96.332323 
L 492.172423 80.232121 
L 493.140317 23.881414 
L 494.108211 88.282222 
L 495.076104 72.18202 
L 496.043998 92.307273 
L 497.011892 104.382424 
L 497.979785 64.131919 
L 498.947679 100.357374 
L 499.915573 88.282222 
L 500.883466 48.031717 
L 501.85136 56.081818 
L 503.787147 80.232121 
L 505.722935 64.131919 
L 506.690828 84.257172 
L 507.658722 88.282222 
L 508.626616 80.232121 
L 509.594509 39.981616 
L 510.562403 64.131919 
L 511.530297 68.15697 
L 512.49819 68.15697 
L 513.466084 92.307273 
L 515.401871 52.056768 
L 516.369765 76.207071 
L 517.337658 72.18202 
L 518.305552 92.307273 
L 519.273446 80.232121 
L 520.241339 88.282222 
L 521.209233 80.232121 
L 522.177127 88.282222 
L 523.14502 72.18202 
L 524.112914 60.106869 
L 525.080808 72.18202 
L 526.048701 92.307273 
L 527.016595 35.956566 
L 527.984489 60.106869 
L 528.952382 52.056768 
L 529.920276 76.207071 
L 530.88817 92.307273 
L 531.856063 84.257172 
L 532.823957 88.282222 
L 533.791851 64.131919 
L 534.759744 76.207071 
L 536.695532 44.006667 
L 537.663425 72.18202 
L 538.631319 52.056768 
L 539.599213 76.207071 
L 541.535 76.207071 
L 541.535 76.207071 
" clip-path="url(#p856a34a196)" style="fill: none; stroke: #99004d; stroke-width: 0.8; stroke-linecap: square"/>
   </g>
   <g id="line2d_13">
    <path d="M 68.235 176.833333 
L 69.202894 144.632929 
L 70.170787 176.833333 
L 71.138681 72.18202 
L 72.106575 80.232121 
L 73.074468 120.482626 
L 74.042362 128.532727 
L 75.010256 84.257172 
L 75.978149 172.808283 
L 76.946043 96.332323 
L 77.913937 160.733131 
L 79.849724 168.783232 
L 80.817618 180.858384 
L 81.785511 124.507677 
L 82.753405 168.783232 
L 83.721299 60.106869 
L 84.689192 68.15697 
L 85.657086 88.282222 
L 86.62498 68.15697 
L 87.592873 108.407475 
L 88.560767 156.708081 
L 89.528661 152.68303 
L 90.496554 160.733131 
L 91.464448 100.357374 
L 92.432342 148.65798 
L 93.400235 76.207071 
L 94.368129 76.207071 
L 95.336022 152.68303 
L 96.303916 132.557778 
L 97.27181 96.332323 
L 98.239703 92.307273 
L 99.207597 76.207071 
L 100.175491 96.332323 
L 101.143384 108.407475 
L 102.111278 180.858384 
L 103.079172 116.457576 
L 104.047065 180.858384 
L 105.014959 76.207071 
L 105.982853 68.15697 
L 106.950746 72.18202 
L 107.91864 64.131919 
L 108.886534 108.407475 
L 109.854427 132.557778 
L 110.822321 144.632929 
L 111.790215 84.257172 
L 112.758108 168.783232 
L 113.726002 76.207071 
L 114.693896 64.131919 
L 115.661789 100.357374 
L 116.629683 88.282222 
L 117.597577 172.808283 
L 118.56547 120.482626 
L 119.533364 88.282222 
L 120.501258 144.632929 
L 121.469151 136.582828 
L 122.437045 180.858384 
L 123.404939 132.557778 
L 124.372832 124.507677 
L 125.340726 180.858384 
L 126.30862 84.257172 
L 127.276513 80.232121 
L 128.244407 104.382424 
L 129.212301 68.15697 
L 130.180194 84.257172 
L 131.148088 136.582828 
L 132.115982 76.207071 
L 133.083875 180.858384 
L 134.051769 72.18202 
L 135.019663 92.307273 
L 135.987556 176.833333 
L 136.95545 68.15697 
L 137.923344 76.207071 
L 138.891237 88.282222 
L 139.859131 96.332323 
L 140.827025 100.357374 
L 141.794918 80.232121 
L 142.762812 56.081818 
L 143.730706 200.983636 
L 144.698599 200.983636 
L 145.666493 112.432525 
L 146.634387 56.081818 
L 147.60228 72.18202 
L 148.570174 80.232121 
L 149.538067 200.983636 
L 150.505961 88.282222 
L 151.473855 168.783232 
L 152.441748 68.15697 
L 153.409642 80.232121 
L 154.377536 80.232121 
L 155.345429 108.407475 
L 156.313323 120.482626 
L 157.281217 60.106869 
L 158.24911 180.858384 
L 159.217004 88.282222 
L 160.184898 124.507677 
L 161.152791 124.507677 
L 162.120685 84.257172 
L 163.088579 96.332323 
L 164.056472 68.15697 
L 165.024366 88.282222 
L 165.99226 192.933535 
L 166.960153 132.557778 
L 167.928047 64.131919 
L 168.895941 192.933535 
L 170.831728 68.15697 
L 171.799622 132.557778 
L 172.767515 80.232121 
L 173.735409 80.232121 
L 174.703303 92.307273 
L 175.671196 64.131919 
L 176.63909 140.607879 
L 177.606984 92.307273 
L 178.574877 112.432525 
L 179.542771 112.432525 
L 180.510665 72.18202 
L 181.478558 84.257172 
L 182.446452 104.382424 
L 183.414346 120.482626 
L 184.382239 164.758182 
L 185.350133 104.382424 
L 186.318027 100.357374 
L 187.28592 124.507677 
L 188.253814 72.18202 
L 189.221708 148.65798 
L 190.189601 72.18202 
L 191.157495 144.632929 
L 192.125389 80.232121 
L 193.093282 96.332323 
L 194.061176 88.282222 
L 195.02907 192.933535 
L 196.964857 80.232121 
L 197.932751 108.407475 
L 198.900644 132.557778 
L 199.868538 188.908485 
L 200.836431 64.131919 
L 201.804325 104.382424 
L 202.772219 180.858384 
L 203.740112 108.407475 
L 204.708006 80.232121 
L 205.6759 128.532727 
L 206.643793 136.582828 
L 207.611687 104.382424 
L 208.579581 148.65798 
L 209.547474 140.607879 
L 210.515368 120.482626 
L 211.483262 92.307273 
L 212.451155 124.507677 
L 213.419049 96.332323 
L 214.386943 184.883434 
L 215.354836 192.933535 
L 216.32273 96.332323 
L 217.290624 84.257172 
L 218.258517 68.15697 
L 219.226411 148.65798 
L 220.194305 152.68303 
L 221.162198 92.307273 
L 222.130092 184.883434 
L 223.097986 164.758182 
L 224.065879 108.407475 
L 225.033773 196.958586 
L 226.001667 80.232121 
L 226.96956 144.632929 
L 227.937454 136.582828 
L 228.905348 108.407475 
L 230.841135 192.933535 
L 231.809029 104.382424 
L 232.776922 84.257172 
L 233.744816 148.65798 
L 234.71271 96.332323 
L 235.680603 164.758182 
L 236.648497 68.15697 
L 237.616391 124.507677 
L 238.584284 88.282222 
L 239.552178 80.232121 
L 240.520072 56.081818 
L 241.487965 80.232121 
L 242.455859 80.232121 
L 243.423753 144.632929 
L 245.35954 64.131919 
L 247.295327 80.232121 
L 248.263221 184.883434 
L 249.231115 84.257172 
L 250.199008 72.18202 
L 251.166902 192.933535 
L 252.134796 72.18202 
L 253.102689 132.557778 
L 254.070583 60.106869 
L 255.038476 64.131919 
L 256.00637 112.432525 
L 256.974264 180.858384 
L 257.942157 116.457576 
L 258.910051 64.131919 
L 259.877945 152.68303 
L 260.845838 132.557778 
L 261.813732 68.15697 
L 262.781626 68.15697 
L 263.749519 128.532727 
L 264.717413 120.482626 
L 265.685307 76.207071 
L 266.6532 64.131919 
L 267.621094 64.131919 
L 269.556881 172.808283 
L 271.492669 64.131919 
L 273.428456 188.908485 
L 274.39635 84.257172 
L 275.364243 112.432525 
L 276.332137 128.532727 
L 277.300031 104.382424 
L 278.267924 152.68303 
L 279.235818 112.432525 
L 280.203712 96.332323 
L 281.171605 148.65798 
L 282.139499 188.908485 
L 283.107393 116.457576 
L 284.075286 108.407475 
L 285.04318 56.081818 
L 286.011074 172.808283 
L 288.914755 76.207071 
L 289.882648 164.758182 
L 290.850542 84.257172 
L 291.818436 96.332323 
L 292.786329 156.708081 
L 293.754223 76.207071 
L 294.722117 132.557778 
L 295.69001 156.708081 
L 296.657904 80.232121 
L 297.625798 84.257172 
L 298.593691 68.15697 
L 299.561585 200.983636 
L 300.529479 112.432525 
L 301.497372 72.18202 
L 303.43316 112.432525 
L 304.401053 88.282222 
L 305.368947 72.18202 
L 306.33684 76.207071 
L 307.304734 92.307273 
L 308.272628 104.382424 
L 309.240521 72.18202 
L 310.208415 68.15697 
L 311.176309 88.282222 
L 312.144202 84.257172 
L 313.112096 56.081818 
L 314.07999 112.432525 
L 315.047883 84.257172 
L 316.015777 72.18202 
L 316.983671 168.783232 
L 317.951564 76.207071 
L 318.919458 80.232121 
L 319.887352 172.808283 
L 320.855245 168.783232 
L 321.823139 192.933535 
L 322.791033 104.382424 
L 323.758926 76.207071 
L 324.72682 120.482626 
L 325.694714 88.282222 
L 326.662607 92.307273 
L 327.630501 152.68303 
L 328.598395 176.833333 
L 329.566288 108.407475 
L 330.534182 72.18202 
L 331.502076 100.357374 
L 332.469969 168.783232 
L 333.437863 84.257172 
L 334.405757 92.307273 
L 335.37365 144.632929 
L 336.341544 88.282222 
L 337.309438 180.858384 
L 338.277331 72.18202 
L 339.245225 64.131919 
L 340.213119 88.282222 
L 341.181012 72.18202 
L 342.148906 152.68303 
L 343.1168 76.207071 
L 344.084693 192.933535 
L 345.052587 104.382424 
L 346.020481 96.332323 
L 346.988374 92.307273 
L 347.956268 84.257172 
L 348.924162 92.307273 
L 349.892055 72.18202 
L 350.859949 112.432525 
L 351.827843 84.257172 
L 352.795736 92.307273 
L 353.76363 80.232121 
L 354.731524 84.257172 
L 356.667311 116.457576 
L 357.635204 68.15697 
L 358.603098 152.68303 
L 359.570992 92.307273 
L 360.538885 108.407475 
L 361.506779 112.432525 
L 362.474673 68.15697 
L 363.442566 96.332323 
L 364.41046 200.983636 
L 365.378354 80.232121 
L 366.346247 88.282222 
L 367.314141 64.131919 
L 368.282035 160.733131 
L 369.249928 64.131919 
L 370.217822 96.332323 
L 371.185716 60.106869 
L 372.153609 160.733131 
L 373.121503 104.382424 
L 374.089397 96.332323 
L 375.05729 68.15697 
L 376.025184 96.332323 
L 376.993078 88.282222 
L 377.960971 84.257172 
L 378.928865 188.908485 
L 379.896759 124.507677 
L 380.864652 80.232121 
L 381.832546 80.232121 
L 382.80044 200.983636 
L 383.768333 76.207071 
L 384.736227 200.983636 
L 386.672014 124.507677 
L 387.639908 140.607879 
L 388.607802 104.382424 
L 389.575695 88.282222 
L 390.543589 128.532727 
L 391.511483 84.257172 
L 392.479376 96.332323 
L 393.44727 92.307273 
L 394.415164 72.18202 
L 395.383057 80.232121 
L 396.350951 80.232121 
L 397.318845 144.632929 
L 398.286738 80.232121 
L 399.254632 156.708081 
L 400.222526 144.632929 
L 401.190419 188.908485 
L 402.158313 176.833333 
L 403.126207 176.833333 
L 404.0941 124.507677 
L 405.061994 84.257172 
L 406.029888 108.407475 
L 406.997781 156.708081 
L 407.965675 160.733131 
L 408.933569 144.632929 
L 409.901462 76.207071 
L 410.869356 144.632929 
L 411.837249 72.18202 
L 412.805143 148.65798 
L 413.773037 136.582828 
L 414.74093 52.056768 
L 415.708824 72.18202 
L 416.676718 160.733131 
L 417.644611 132.557778 
L 418.612505 180.858384 
L 419.580399 100.357374 
L 420.548292 68.15697 
L 421.516186 168.783232 
L 422.48408 72.18202 
L 423.451973 176.833333 
L 424.419867 80.232121 
L 425.387761 160.733131 
L 426.355654 196.958586 
L 427.323548 168.783232 
L 428.291442 96.332323 
L 429.259335 84.257172 
L 430.227229 92.307273 
L 431.195123 200.983636 
L 432.163016 96.332323 
L 433.13091 96.332323 
L 434.098804 84.257172 
L 435.066697 172.808283 
L 436.034591 112.432525 
L 437.002485 76.207071 
L 437.970378 72.18202 
L 438.938272 120.482626 
L 439.906166 84.257172 
L 440.874059 188.908485 
L 441.841953 68.15697 
L 442.809847 80.232121 
L 443.77774 84.257172 
L 444.745634 144.632929 
L 445.713528 180.858384 
L 446.681421 88.282222 
L 447.649315 64.131919 
L 448.617209 72.18202 
L 449.585102 164.758182 
L 451.52089 52.056768 
L 452.488783 76.207071 
L 453.456677 84.257172 
L 454.424571 124.507677 
L 455.392464 112.432525 
L 456.360358 88.282222 
L 457.328252 72.18202 
L 458.296145 200.983636 
L 459.264039 108.407475 
L 460.231933 96.332323 
L 461.199826 120.482626 
L 462.16772 60.106869 
L 463.135613 68.15697 
L 464.103507 144.632929 
L 465.071401 172.808283 
L 466.039294 68.15697 
L 467.007188 184.883434 
L 467.975082 72.18202 
L 468.942975 100.357374 
L 469.910869 156.708081 
L 470.878763 104.382424 
L 471.846656 112.432525 
L 472.81455 140.607879 
L 474.750337 64.131919 
L 475.718231 156.708081 
L 476.686125 72.18202 
L 477.654018 156.708081 
L 478.621912 148.65798 
L 479.589806 76.207071 
L 480.557699 112.432525 
L 481.525593 104.382424 
L 482.493487 68.15697 
L 483.46138 184.883434 
L 484.429274 104.382424 
L 485.397168 164.758182 
L 486.365061 112.432525 
L 487.332955 128.532727 
L 488.300849 112.432525 
L 489.268742 188.908485 
L 490.236636 160.733131 
L 491.20453 108.407475 
L 492.172423 80.232121 
L 493.140317 76.207071 
L 494.108211 152.68303 
L 495.076104 88.282222 
L 496.043998 108.407475 
L 497.011892 168.783232 
L 497.979785 160.733131 
L 498.947679 72.18202 
L 499.915573 108.407475 
L 500.883466 88.282222 
L 501.85136 80.232121 
L 502.819254 88.282222 
L 503.787147 124.507677 
L 504.755041 104.382424 
L 505.722935 192.933535 
L 506.690828 192.933535 
L 507.658722 120.482626 
L 508.626616 156.708081 
L 509.594509 100.357374 
L 510.562403 116.457576 
L 511.530297 64.131919 
L 512.49819 76.207071 
L 513.466084 180.858384 
L 514.433978 72.18202 
L 515.401871 100.357374 
L 516.369765 76.207071 
L 517.337658 92.307273 
L 518.305552 196.958586 
L 519.273446 120.482626 
L 521.209233 72.18202 
L 522.177127 92.307273 
L 523.14502 60.106869 
L 524.112914 100.357374 
L 525.080808 76.207071 
L 526.048701 164.758182 
L 527.016595 80.232121 
L 527.984489 196.958586 
L 528.952382 72.18202 
L 529.920276 136.582828 
L 530.88817 68.15697 
L 531.856063 88.282222 
L 532.823957 84.257172 
L 533.791851 172.808283 
L 534.759744 140.607879 
L 535.727638 104.382424 
L 536.695532 80.232121 
L 537.663425 80.232121 
L 538.631319 72.18202 
L 539.599213 88.282222 
L 540.567106 136.582828 
L 541.535 68.15697 
L 541.535 68.15697 
" clip-path="url(#p856a34a196)" style="fill: none; stroke: #235996; stroke-width: 0.8; stroke-linecap: square"/>
   </g>
   <g id="patch_3">
    <path d="M 44.57 210.04 
L 44.57 10.8 
" style="fill: none; stroke: #000000; stroke-width: 0.8; stroke-linejoin: miter; stroke-linecap: square"/>
   </g>
   <g id="patch_4">
    <path d="M 565.2 210.04 
L 565.2 10.8 
" style="fill: none; stroke: #000000; stroke-width: 0.8; stroke-linejoin: miter; stroke-linecap: square"/>
   </g>
   <g id="patch_5">
    <path d="M 44.57 210.04 
L 565.2 210.04 
" style="fill: none; stroke: #000000; stroke-width: 0.8; stroke-linejoin: miter; stroke-linecap: square"/>
   </g>
   <g id="patch_6">
    <path d="M 44.57 10.8 
L 565.2 10.8 
" style="fill: none; stroke: #000000; stroke-width: 0.8; stroke-linejoin: miter; stroke-linecap: square"/>
   </g>
   <g id="legend_1">
    <g id="patch_7">
     <path d="M 156.8845 43.4565 
L 452.8855 43.4565 
Q 455.7655 43.4565 455.7655 40.5765 
L 455.7655 20.88 
Q 455.7655 18 452.8855 18 
L 156.8845 18 
Q 154.0045 18 154.0045 20.88 
L 154.0045 40.5765 
Q 154.0045 43.4565 156.8845 43.4565 
z
" style="fill: #ffffff; opacity: 0.8; stroke: #000000; stroke-linejoin: miter"/>
    </g>
    <g id="line2d_14">
     <path d="M 159.7645 29.66175 
L 174.1645 29.66175 
L 188.5645 29.66175 
" style="fill: none; stroke: #99004d; stroke-width: 0.8; stroke-linecap: square"/>
    </g>
    <g id="text_14">
     <text style="font: 14.4px 'DejaVu Sans', 'Bitstream Vera Sans', 'Computer Modern Sans Serif', 'Lucida Grande', 'Verdana', 'Geneva', 'Lucid', 'Arial', 'Helvetica', 'Avant Garde', sans-serif; text-anchor: start" x="200.0845" y="34.70175" transform="rotate(-0 200.0845 34.70175)">hw(random)</text>
    </g>
    <g id="line2d_15">
     <path d="M 316.873 29.66175 
L 331.273 29.66175 
L 345.673 29.66175 
" style="fill: none; stroke: #235996; stroke-width: 0.8; stroke-linecap: square"/>
    </g>
    <g id="text_15">
     <text style="font: 14.4px 'DejaVu Sans', 'Bitstream Vera Sans', 'Computer Modern Sans Serif', 'Lucida Grande', 'Verdana', 'Geneva', 'Lucid', 'Arial', 'Helvetica', 'Avant Garde', sans-serif; text-anchor: start" x="357.193" y="34.70175" transform="rotate(-0 357.193 34.70175)"> hw(HWGEN)</text>
    </g>
   </g>
  </g>
 </g>
 <defs>
  <clipPath id="p856a34a196">
   <rect x="44.57" y="10.8" width="520.63" height="199.24"/>
  </clipPath>
 </defs>
</svg>
