<?xml version="1.0" encoding="utf-8" standalone="no"?>
<!DOCTYPE svg PUBLIC "-//W3C//DTD SVG 1.1//EN"
  "http://www.w3.org/Graphics/SVG/1.1/DTD/svg11.dtd">
<svg xmlns:xlink="http://www.w3.org/1999/xlink" width="576pt" height="252pt" viewBox="0 0 576 252" xmlns="http://www.w3.org/2000/svg" version="1.1">
 <metadata>
  <rdf:RDF xmlns:dc="http://purl.org/dc/elements/1.1/" xmlns:cc="http://creativecommons.org/ns#" xmlns:rdf="http://www.w3.org/1999/02/22-rdf-syntax-ns#">
   <cc:Work>
    <dc:type rdf:resource="http://purl.org/dc/dcmitype/StillImage"/>
    <dc:date>2023-12-06T19:16:34.583556</dc:date>
    <dc:format>image/svg+xml</dc:format>
    <dc:creator>
     <cc:Agent>
      <dc:title>Matplotlib v3.7.4, https://matplotlib.org/</dc:title>
     </cc:Agent>
    </dc:creator>
   </cc:Work>
  </rdf:RDF>
 </metadata>
 <defs>
  <style type="text/css">*{stroke-linejoin: round; stroke-linecap: butt}</style>
 </defs>
 <g id="figure_1">
  <g id="patch_1">
   <path d="M 0 252 
L 576 252 
L 576 0 
L 0 0 
z
" style="fill: #ffffff"/>
  </g>
  <g id="axes_1">
   <g id="patch_2">
    <path d="M 44.57 210.04 
L 565.2 210.04 
L 565.2 10.8 
L 44.57 10.8 
z
" style="fill: #ffffff"/>
   </g>
   <g id="matplotlib.axis_1">
    <g id="xtick_1">
     <g id="line2d_1">
      <defs>
       <path id="m2db0e3f322" d="M 0 0 
L 0 3.5 
" style="stroke: #000000; stroke-width: 0.8"/>
      </defs>
      <g>
       <use xlink:href="#m2db0e3f322" x="68.235" y="210.04" style="stroke: #000000; stroke-width: 0.8"/>
      </g>
     </g>
     <g id="text_1">
      <text style="font: 10px 'DejaVu Sans', 'Bitstream Vera Sans', 'Computer Modern Sans Serif', 'Lucida Grande', 'Verdana', 'Geneva', 'Lucid', 'Arial', 'Helvetica', 'Avant Garde', sans-serif; text-anchor: middle" x="68.235" y="224.638438" transform="rotate(-0 68.235 224.638438)">0</text>
     </g>
    </g>
    <g id="xtick_2">
     <g id="line2d_2">
      <g>
       <use xlink:href="#m2db0e3f322" x="165.024366" y="210.04" style="stroke: #000000; stroke-width: 0.8"/>
      </g>
     </g>
     <g id="text_2">
      <text style="font: 10px 'DejaVu Sans', 'Bitstream Vera Sans', 'Computer Modern Sans Serif', 'Lucida Grande', 'Verdana', 'Geneva', 'Lucid', 'Arial', 'Helvetica', 'Avant Garde', sans-serif; text-anchor: middle" x="165.024366" y="224.638438" transform="rotate(-0 165.024366 224.638438)">100</text>
     </g>
    </g>
    <g id="xtick_3">
     <g id="line2d_3">
      <g>
       <use xlink:href="#m2db0e3f322" x="261.813732" y="210.04" style="stroke: #000000; stroke-width: 0.8"/>
      </g>
     </g>
     <g id="text_3">
      <text style="font: 10px 'DejaVu Sans', 'Bitstream Vera Sans', 'Computer Modern Sans Serif', 'Lucida Grande', 'Verdana', 'Geneva', 'Lucid', 'Arial', 'Helvetica', 'Avant Garde', sans-serif; text-anchor: middle" x="261.813732" y="224.638438" transform="rotate(-0 261.813732 224.638438)">200</text>
     </g>
    </g>
    <g id="xtick_4">
     <g id="line2d_4">
      <g>
       <use xlink:href="#m2db0e3f322" x="358.603098" y="210.04" style="stroke: #000000; stroke-width: 0.8"/>
      </g>
     </g>
     <g id="text_4">
      <text style="font: 10px 'DejaVu Sans', 'Bitstream Vera Sans', 'Computer Modern Sans Serif', 'Lucida Grande', 'Verdana', 'Geneva', 'Lucid', 'Arial', 'Helvetica', 'Avant Garde', sans-serif; text-anchor: middle" x="358.603098" y="224.638438" transform="rotate(-0 358.603098 224.638438)">300</text>
     </g>
    </g>
    <g id="xtick_5">
     <g id="line2d_5">
      <g>
       <use xlink:href="#m2db0e3f322" x="455.392464" y="210.04" style="stroke: #000000; stroke-width: 0.8"/>
      </g>
     </g>
     <g id="text_5">
      <text style="font: 10px 'DejaVu Sans', 'Bitstream Vera Sans', 'Computer Modern Sans Serif', 'Lucida Grande', 'Verdana', 'Geneva', 'Lucid', 'Arial', 'Helvetica', 'Avant Garde', sans-serif; text-anchor: middle" x="455.392464" y="224.638438" transform="rotate(-0 455.392464 224.638438)">400</text>
     </g>
    </g>
    <g id="xtick_6">
     <g id="line2d_6">
      <g>
       <use xlink:href="#m2db0e3f322" x="552.18183" y="210.04" style="stroke: #000000; stroke-width: 0.8"/>
      </g>
     </g>
     <g id="text_6">
      <text style="font: 10px 'DejaVu Sans', 'Bitstream Vera Sans', 'Computer Modern Sans Serif', 'Lucida Grande', 'Verdana', 'Geneva', 'Lucid', 'Arial', 'Helvetica', 'Avant Garde', sans-serif; text-anchor: middle" x="552.18183" y="224.638438" transform="rotate(-0 552.18183 224.638438)">500</text>
     </g>
    </g>
    <g id="text_7">
     <text style="font: 10px 'DejaVu Sans', 'Bitstream Vera Sans', 'Computer Modern Sans Serif', 'Lucida Grande', 'Verdana', 'Geneva', 'Lucid', 'Arial', 'Helvetica', 'Avant Garde', sans-serif; text-anchor: middle" x="304.885" y="238.316563" transform="rotate(-0 304.885 238.316563)">Iterations</text>
    </g>
   </g>
   <g id="matplotlib.axis_2">
    <g id="ytick_1">
     <g id="line2d_7">
      <defs>
       <path id="m85d224ba42" d="M 0 0 
L -3.5 0 
" style="stroke: #000000; stroke-width: 0.8"/>
      </defs>
      <g>
       <use xlink:href="#m85d224ba42" x="44.57" y="200.983636" style="stroke: #000000; stroke-width: 0.8"/>
      </g>
     </g>
     <g id="text_8">
      <text style="font: 10px 'DejaVu Sans', 'Bitstream Vera Sans', 'Computer Modern Sans Serif', 'Lucida Grande', 'Verdana', 'Geneva', 'Lucid', 'Arial', 'Helvetica', 'Avant Garde', sans-serif; text-anchor: end" x="37.57" y="204.782855" transform="rotate(-0 37.57 204.782855)">0</text>
     </g>
    </g>
    <g id="ytick_2">
     <g id="line2d_8">
      <g>
       <use xlink:href="#m85d224ba42" x="44.57" y="158.861015" style="stroke: #000000; stroke-width: 0.8"/>
      </g>
     </g>
     <g id="text_9">
      <text style="font: 10px 'DejaVu Sans', 'Bitstream Vera Sans', 'Computer Modern Sans Serif', 'Lucida Grande', 'Verdana', 'Geneva', 'Lucid', 'Arial', 'Helvetica', 'Avant Garde', sans-serif; text-anchor: end" x="37.57" y="162.660234" transform="rotate(-0 37.57 162.660234)">10</text>
     </g>
    </g>
    <g id="ytick_3">
     <g id="line2d_9">
      <g>
       <use xlink:href="#m85d224ba42" x="44.57" y="116.738393" style="stroke: #000000; stroke-width: 0.8"/>
      </g>
     </g>
     <g id="text_10">
      <text style="font: 10px 'DejaVu Sans', 'Bitstream Vera Sans', 'Computer Modern Sans Serif', 'Lucida Grande', 'Verdana', 'Geneva', 'Lucid', 'Arial', 'Helvetica', 'Avant Garde', sans-serif; text-anchor: end" x="37.57" y="120.537612" transform="rotate(-0 37.57 120.537612)">20</text>
     </g>
    </g>
    <g id="ytick_4">
     <g id="line2d_10">
      <g>
       <use xlink:href="#m85d224ba42" x="44.57" y="74.615772" style="stroke: #000000; stroke-width: 0.8"/>
      </g>
     </g>
     <g id="text_11">
      <text style="font: 10px 'DejaVu Sans', 'Bitstream Vera Sans', 'Computer Modern Sans Serif', 'Lucida Grande', 'Verdana', 'Geneva', 'Lucid', 'Arial', 'Helvetica', 'Avant Garde', sans-serif; text-anchor: end" x="37.57" y="78.41499" transform="rotate(-0 37.57 78.41499)">30</text>
     </g>
    </g>
    <g id="ytick_5">
     <g id="line2d_11">
      <g>
       <use xlink:href="#m85d224ba42" x="44.57" y="32.49315" style="stroke: #000000; stroke-width: 0.8"/>
      </g>
     </g>
     <g id="text_12">
      <text style="font: 10px 'DejaVu Sans', 'Bitstream Vera Sans', 'Computer Modern Sans Serif', 'Lucida Grande', 'Verdana', 'Geneva', 'Lucid', 'Arial', 'Helvetica', 'Avant Garde', sans-serif; text-anchor: end" x="37.57" y="36.292369" transform="rotate(-0 37.57 36.292369)">40</text>
     </g>
    </g>
    <g id="text_13">
     <text style="font: 10px 'DejaVu Sans', 'Bitstream Vera Sans', 'Computer Modern Sans Serif', 'Lucida Grande', 'Verdana', 'Geneva', 'Lucid', 'Arial', 'Helvetica', 'Avant Garde', sans-serif; text-anchor: middle" x="18.765313" y="110.42" transform="rotate(-90 18.765313 110.42)">Randomness</text>
    </g>
   </g>
   <g id="line2d_12">
    <path d="M 68.235 57.766723 
L 69.202894 57.766723 
L 70.170787 83.040296 
L 71.138681 74.615772 
L 72.106575 83.040296 
L 73.074468 70.40351 
L 74.042362 36.705412 
L 75.010256 78.828034 
L 75.978149 40.917674 
L 76.946043 53.554461 
L 77.913937 78.828034 
L 78.88183 91.46482 
L 79.849724 49.342199 
L 80.817618 61.978985 
L 81.785511 87.252558 
L 82.753405 53.554461 
L 83.721299 78.828034 
L 84.689192 53.554461 
L 85.657086 95.677082 
L 86.62498 78.828034 
L 87.592873 49.342199 
L 88.560767 74.615772 
L 89.528661 78.828034 
L 90.496554 36.705412 
L 91.464448 78.828034 
L 92.432342 70.40351 
L 93.400235 45.129937 
L 94.368129 61.978985 
L 95.336022 45.129937 
L 96.303916 95.677082 
L 97.27181 74.615772 
L 98.239703 57.766723 
L 99.207597 53.554461 
L 100.175491 57.766723 
L 101.143384 40.917674 
L 102.111278 74.615772 
L 103.079172 66.191247 
L 104.047065 78.828034 
L 105.014959 66.191247 
L 105.982853 45.129937 
L 106.950746 66.191247 
L 107.91864 57.766723 
L 109.854427 66.191247 
L 110.822321 28.280888 
L 111.790215 36.705412 
L 112.758108 61.978985 
L 113.726002 61.978985 
L 114.693896 74.615772 
L 115.661789 28.280888 
L 116.629683 36.705412 
L 117.597577 57.766723 
L 118.56547 36.705412 
L 119.533364 104.101607 
L 120.501258 53.554461 
L 121.469151 40.917674 
L 122.437045 66.191247 
L 123.404939 66.191247 
L 124.372832 40.917674 
L 125.340726 70.40351 
L 126.30862 83.040296 
L 127.276513 40.917674 
L 128.244407 74.615772 
L 129.212301 49.342199 
L 130.180194 49.342199 
L 131.148088 66.191247 
L 132.115982 53.554461 
L 133.083875 87.252558 
L 134.051769 70.40351 
L 135.019663 78.828034 
L 135.987556 57.766723 
L 136.95545 99.889345 
L 137.923344 45.129937 
L 138.891237 53.554461 
L 139.859131 70.40351 
L 140.827025 95.677082 
L 141.794918 61.978985 
L 142.762812 83.040296 
L 143.730706 70.40351 
L 144.698599 104.101607 
L 145.666493 78.828034 
L 146.634387 57.766723 
L 147.60228 66.191247 
L 148.570174 91.46482 
L 149.538067 28.280888 
L 150.505961 40.917674 
L 151.473855 83.040296 
L 152.441748 57.766723 
L 153.409642 70.40351 
L 154.377536 49.342199 
L 155.345429 70.40351 
L 156.313323 45.129937 
L 158.24911 70.40351 
L 159.217004 70.40351 
L 160.184898 61.978985 
L 161.152791 78.828034 
L 162.120685 57.766723 
L 163.088579 57.766723 
L 164.056472 49.342199 
L 165.024366 74.615772 
L 165.99226 95.677082 
L 166.960153 70.40351 
L 167.928047 49.342199 
L 169.863834 74.615772 
L 170.831728 61.978985 
L 171.799622 66.191247 
L 172.767515 66.191247 
L 173.735409 78.828034 
L 174.703303 57.766723 
L 175.671196 70.40351 
L 176.63909 57.766723 
L 177.606984 53.554461 
L 178.574877 66.191247 
L 179.542771 57.766723 
L 180.510665 45.129937 
L 181.478558 78.828034 
L 182.446452 78.828034 
L 183.414346 40.917674 
L 184.382239 66.191247 
L 185.350133 57.766723 
L 186.318027 95.677082 
L 187.28592 53.554461 
L 188.253814 78.828034 
L 190.189601 87.252558 
L 191.157495 66.191247 
L 192.125389 61.978985 
L 193.093282 95.677082 
L 194.061176 61.978985 
L 195.02907 53.554461 
L 195.996963 70.40351 
L 196.964857 57.766723 
L 197.932751 78.828034 
L 198.900644 53.554461 
L 199.868538 83.040296 
L 200.836431 61.978985 
L 201.804325 61.978985 
L 202.772219 70.40351 
L 203.740112 57.766723 
L 204.708006 70.40351 
L 205.6759 49.342199 
L 206.643793 70.40351 
L 207.611687 40.917674 
L 208.579581 91.46482 
L 209.547474 53.554461 
L 210.515368 83.040296 
L 211.483262 61.978985 
L 212.451155 95.677082 
L 213.419049 70.40351 
L 214.386943 95.677082 
L 215.354836 49.342199 
L 216.32273 91.46482 
L 217.290624 78.828034 
L 218.258517 78.828034 
L 219.226411 70.40351 
L 220.194305 53.554461 
L 221.162198 70.40351 
L 222.130092 53.554461 
L 223.097986 83.040296 
L 224.065879 78.828034 
L 225.033773 66.191247 
L 226.001667 74.615772 
L 226.96956 45.129937 
L 227.937454 104.101607 
L 228.905348 49.342199 
L 229.873241 78.828034 
L 230.841135 57.766723 
L 231.809029 66.191247 
L 232.776922 45.129937 
L 233.744816 70.40351 
L 234.71271 74.615772 
L 236.648497 66.191247 
L 237.616391 49.342199 
L 238.584284 70.40351 
L 239.552178 83.040296 
L 240.520072 45.129937 
L 241.487965 70.40351 
L 242.455859 83.040296 
L 243.423753 61.978985 
L 244.391646 49.342199 
L 245.35954 45.129937 
L 246.327434 66.191247 
L 247.295327 95.677082 
L 248.263221 83.040296 
L 249.231115 61.978985 
L 250.199008 49.342199 
L 251.166902 53.554461 
L 252.134796 83.040296 
L 253.102689 36.705412 
L 254.070583 83.040296 
L 255.038476 53.554461 
L 256.00637 61.978985 
L 256.974264 40.917674 
L 257.942157 61.978985 
L 258.910051 108.313869 
L 259.877945 53.554461 
L 260.845838 66.191247 
L 261.813732 70.40351 
L 262.781626 70.40351 
L 263.749519 66.191247 
L 264.717413 53.554461 
L 266.6532 53.554461 
L 267.621094 45.129937 
L 268.588988 53.554461 
L 269.556881 74.615772 
L 270.524775 74.615772 
L 271.492669 53.554461 
L 272.460562 40.917674 
L 273.428456 78.828034 
L 275.364243 61.978985 
L 277.300031 70.40351 
L 278.267924 83.040296 
L 279.235818 61.978985 
L 280.203712 57.766723 
L 281.171605 32.49315 
L 282.139499 45.129937 
L 283.107393 83.040296 
L 284.075286 45.129937 
L 285.04318 45.129937 
L 286.011074 78.828034 
L 286.978967 53.554461 
L 287.946861 74.615772 
L 288.914755 87.252558 
L 289.882648 57.766723 
L 290.850542 57.766723 
L 291.818436 91.46482 
L 292.786329 57.766723 
L 293.754223 53.554461 
L 294.722117 91.46482 
L 295.69001 40.917674 
L 296.657904 57.766723 
L 297.625798 70.40351 
L 298.593691 53.554461 
L 300.529479 53.554461 
L 301.497372 66.191247 
L 302.465266 57.766723 
L 303.43316 87.252558 
L 304.401053 74.615772 
L 305.368947 49.342199 
L 306.33684 70.40351 
L 308.272628 78.828034 
L 309.240521 78.828034 
L 310.208415 70.40351 
L 311.176309 53.554461 
L 312.144202 104.101607 
L 313.112096 57.766723 
L 314.07999 61.978985 
L 315.047883 36.705412 
L 316.015777 78.828034 
L 316.983671 83.040296 
L 317.951564 61.978985 
L 318.919458 70.40351 
L 319.887352 91.46482 
L 320.855245 74.615772 
L 321.823139 49.342199 
L 322.791033 53.554461 
L 323.758926 36.705412 
L 324.72682 74.615772 
L 325.694714 66.191247 
L 326.662607 53.554461 
L 327.630501 53.554461 
L 328.598395 36.705412 
L 329.566288 57.766723 
L 330.534182 74.615772 
L 331.502076 49.342199 
L 332.469969 87.252558 
L 333.437863 66.191247 
L 334.405757 61.978985 
L 335.37365 28.280888 
L 336.341544 70.40351 
L 337.309438 78.828034 
L 338.277331 83.040296 
L 339.245225 61.978985 
L 340.213119 78.828034 
L 341.181012 61.978985 
L 342.148906 49.342199 
L 343.1168 70.40351 
L 344.084693 70.40351 
L 345.052587 87.252558 
L 346.020481 49.342199 
L 346.988374 28.280888 
L 347.956268 66.191247 
L 348.924162 57.766723 
L 349.892055 61.978985 
L 350.859949 74.615772 
L 351.827843 66.191247 
L 352.795736 70.40351 
L 353.76363 66.191247 
L 354.731524 74.615772 
L 355.699417 57.766723 
L 356.667311 61.978985 
L 357.635204 74.615772 
L 358.603098 49.342199 
L 359.570992 61.978985 
L 360.538885 66.191247 
L 361.506779 45.129937 
L 362.474673 66.191247 
L 363.442566 53.554461 
L 365.378354 70.40351 
L 366.346247 99.889345 
L 367.314141 49.342199 
L 368.282035 99.889345 
L 369.249928 66.191247 
L 370.217822 36.705412 
L 371.185716 61.978985 
L 372.153609 40.917674 
L 373.121503 66.191247 
L 374.089397 83.040296 
L 375.05729 70.40351 
L 376.025184 74.615772 
L 376.993078 40.917674 
L 377.960971 57.766723 
L 378.928865 61.978985 
L 379.896759 87.252558 
L 380.864652 49.342199 
L 381.832546 70.40351 
L 382.80044 74.615772 
L 383.768333 91.46482 
L 384.736227 45.129937 
L 385.704121 49.342199 
L 387.639908 66.191247 
L 388.607802 61.978985 
L 389.575695 40.917674 
L 390.543589 66.191247 
L 391.511483 83.040296 
L 392.479376 74.615772 
L 393.44727 78.828034 
L 394.415164 66.191247 
L 395.383057 70.40351 
L 396.350951 53.554461 
L 397.318845 61.978985 
L 398.286738 49.342199 
L 399.254632 53.554461 
L 400.222526 40.917674 
L 401.190419 74.615772 
L 402.158313 66.191247 
L 403.126207 53.554461 
L 404.0941 70.40351 
L 405.061994 57.766723 
L 406.029888 70.40351 
L 406.997781 99.889345 
L 407.965675 49.342199 
L 408.933569 99.889345 
L 409.901462 40.917674 
L 410.869356 87.252558 
L 411.837249 40.917674 
L 412.805143 36.705412 
L 413.773037 74.615772 
L 414.74093 104.101607 
L 415.708824 70.40351 
L 416.676718 70.40351 
L 417.644611 53.554461 
L 418.612505 78.828034 
L 419.580399 36.705412 
L 420.548292 70.40351 
L 421.516186 61.978985 
L 422.48408 61.978985 
L 423.451973 49.342199 
L 424.419867 49.342199 
L 425.387761 53.554461 
L 426.355654 19.856364 
L 427.323548 32.49315 
L 428.291442 87.252558 
L 429.259335 40.917674 
L 430.227229 87.252558 
L 431.195123 36.705412 
L 433.13091 87.252558 
L 434.098804 53.554461 
L 435.066697 66.191247 
L 436.034591 95.677082 
L 437.002485 36.705412 
L 437.970378 66.191247 
L 438.938272 91.46482 
L 440.874059 32.49315 
L 441.841953 74.615772 
L 442.809847 87.252558 
L 443.77774 28.280888 
L 444.745634 66.191247 
L 445.713528 49.342199 
L 446.681421 95.677082 
L 447.649315 83.040296 
L 448.617209 45.129937 
L 449.585102 83.040296 
L 450.552996 70.40351 
L 451.52089 70.40351 
L 452.488783 49.342199 
L 453.456677 36.705412 
L 454.424571 74.615772 
L 455.392464 66.191247 
L 456.360358 78.828034 
L 457.328252 24.068626 
L 458.296145 61.978985 
L 459.264039 78.828034 
L 460.231933 61.978985 
L 461.199826 83.040296 
L 462.16772 74.615772 
L 463.135613 61.978985 
L 464.103507 53.554461 
L 465.071401 61.978985 
L 466.039294 83.040296 
L 467.007188 99.889345 
L 467.975082 78.828034 
L 468.942975 61.978985 
L 469.910869 66.191247 
L 470.878763 61.978985 
L 471.846656 108.313869 
L 472.81455 45.129937 
L 473.782444 91.46482 
L 474.750337 57.766723 
L 475.718231 53.554461 
L 476.686125 36.705412 
L 477.654018 61.978985 
L 478.621912 70.40351 
L 479.589806 61.978985 
L 480.557699 95.677082 
L 481.525593 36.705412 
L 482.493487 83.040296 
L 483.46138 49.342199 
L 484.429274 91.46482 
L 485.397168 83.040296 
L 486.365061 70.40351 
L 487.332955 74.615772 
L 488.300849 91.46482 
L 489.268742 36.705412 
L 490.236636 83.040296 
L 491.20453 36.705412 
L 492.172423 53.554461 
L 493.140317 66.191247 
L 494.108211 83.040296 
L 495.076104 61.978985 
L 496.043998 70.40351 
L 497.011892 70.40351 
L 497.979785 78.828034 
L 498.947679 53.554461 
L 499.915573 57.766723 
L 500.883466 74.615772 
L 501.85136 78.828034 
L 502.819254 53.554461 
L 503.787147 57.766723 
L 504.755041 78.828034 
L 506.690828 70.40351 
L 507.658722 78.828034 
L 508.626616 78.828034 
L 509.594509 74.615772 
L 510.562403 53.554461 
L 511.530297 49.342199 
L 512.49819 87.252558 
L 513.466084 66.191247 
L 514.433978 66.191247 
L 515.401871 70.40351 
L 516.369765 57.766723 
L 517.337658 66.191247 
L 518.305552 70.40351 
L 519.273446 61.978985 
L 520.241339 104.101607 
L 521.209233 70.40351 
L 522.177127 28.280888 
L 523.14502 74.615772 
L 524.112914 87.252558 
L 525.080808 45.129937 
L 526.048701 45.129937 
L 527.016595 78.828034 
L 527.984489 66.191247 
L 528.952382 57.766723 
L 529.920276 74.615772 
L 530.88817 74.615772 
L 531.856063 61.978985 
L 532.823957 66.191247 
L 533.791851 78.828034 
L 534.759744 61.978985 
L 535.727638 87.252558 
L 536.695532 74.615772 
L 537.663425 66.191247 
L 538.631319 53.554461 
L 539.599213 74.615772 
L 540.567106 78.828034 
L 541.535 95.677082 
L 541.535 95.677082 
" clip-path="url(#p97f7d85773)" style="fill: none; stroke: #99004d; stroke-width: 0.8; stroke-linecap: square"/>
   </g>
   <g id="line2d_13">
    <path d="M 68.235 104.101607 
L 69.202894 158.861015 
L 70.170787 45.129937 
L 71.138681 175.710063 
L 72.106575 99.889345 
L 73.074468 179.922326 
L 74.042362 125.162918 
L 75.010256 61.978985 
L 75.978149 154.648753 
L 76.946043 104.101607 
L 77.913937 83.040296 
L 78.88183 116.738393 
L 79.849724 112.526131 
L 80.817618 91.46482 
L 81.785511 87.252558 
L 82.753405 120.950655 
L 83.721299 61.978985 
L 84.689192 78.828034 
L 85.657086 91.46482 
L 86.62498 70.40351 
L 87.592873 112.526131 
L 88.560767 95.677082 
L 89.528661 87.252558 
L 90.496554 163.073277 
L 91.464448 57.766723 
L 92.432342 108.313869 
L 93.400235 120.950655 
L 95.336022 61.978985 
L 96.303916 133.587442 
L 97.27181 83.040296 
L 98.239703 112.526131 
L 99.207597 108.313869 
L 100.175491 108.313869 
L 101.143384 74.615772 
L 103.079172 74.615772 
L 104.047065 70.40351 
L 105.014959 116.738393 
L 105.982853 74.615772 
L 106.950746 125.162918 
L 107.91864 83.040296 
L 108.886534 125.162918 
L 109.854427 61.978985 
L 110.822321 95.677082 
L 111.790215 87.252558 
L 112.758108 87.252558 
L 113.726002 150.43649 
L 114.693896 192.559112 
L 115.661789 57.766723 
L 116.629683 91.46482 
L 117.597577 83.040296 
L 118.56547 61.978985 
L 119.533364 146.224228 
L 120.501258 83.040296 
L 121.469151 91.46482 
L 122.437045 120.950655 
L 123.404939 146.224228 
L 124.372832 66.191247 
L 125.340726 78.828034 
L 126.30862 112.526131 
L 127.276513 108.313869 
L 128.244407 57.766723 
L 129.212301 150.43649 
L 130.180194 78.828034 
L 131.148088 78.828034 
L 132.115982 66.191247 
L 133.083875 129.37518 
L 134.051769 78.828034 
L 135.019663 61.978985 
L 135.987556 146.224228 
L 136.95545 125.162918 
L 137.923344 112.526131 
L 138.891237 129.37518 
L 139.859131 91.46482 
L 140.827025 70.40351 
L 141.794918 95.677082 
L 142.762812 104.101607 
L 143.730706 133.587442 
L 144.698599 120.950655 
L 145.666493 74.615772 
L 146.634387 74.615772 
L 147.60228 142.011966 
L 148.570174 45.129937 
L 149.538067 61.978985 
L 150.505961 70.40351 
L 151.473855 70.40351 
L 152.441748 95.677082 
L 153.409642 70.40351 
L 154.377536 196.771374 
L 155.345429 66.191247 
L 156.313323 158.861015 
L 157.281217 125.162918 
L 158.24911 158.861015 
L 159.217004 146.224228 
L 160.184898 95.677082 
L 161.152791 83.040296 
L 162.120685 179.922326 
L 164.056472 66.191247 
L 165.024366 188.34685 
L 165.99226 167.285539 
L 166.960153 104.101607 
L 167.928047 116.738393 
L 168.895941 87.252558 
L 169.863834 158.861015 
L 170.831728 74.615772 
L 171.799622 196.771374 
L 172.767515 74.615772 
L 173.735409 78.828034 
L 174.703303 129.37518 
L 175.671196 99.889345 
L 176.63909 146.224228 
L 177.606984 99.889345 
L 178.574877 99.889345 
L 179.542771 74.615772 
L 180.510665 57.766723 
L 181.478558 125.162918 
L 182.446452 91.46482 
L 183.414346 83.040296 
L 184.382239 150.43649 
L 185.350133 61.978985 
L 186.318027 125.162918 
L 187.28592 70.40351 
L 188.253814 91.46482 
L 189.221708 99.889345 
L 190.189601 83.040296 
L 191.157495 91.46482 
L 192.125389 74.615772 
L 193.093282 108.313869 
L 194.061176 112.526131 
L 195.02907 66.191247 
L 195.996963 116.738393 
L 196.964857 120.950655 
L 197.932751 171.497801 
L 198.900644 70.40351 
L 199.868538 137.799704 
L 200.836431 104.101607 
L 201.804325 192.559112 
L 202.772219 87.252558 
L 203.740112 91.46482 
L 204.708006 66.191247 
L 205.6759 192.559112 
L 207.611687 49.342199 
L 208.579581 91.46482 
L 209.547474 95.677082 
L 210.515368 78.828034 
L 211.483262 74.615772 
L 212.451155 99.889345 
L 213.419049 95.677082 
L 214.386943 120.950655 
L 215.354836 99.889345 
L 216.32273 120.950655 
L 217.290624 154.648753 
L 218.258517 83.040296 
L 219.226411 53.554461 
L 220.194305 142.011966 
L 221.162198 129.37518 
L 222.130092 184.134588 
L 223.097986 137.799704 
L 224.065879 61.978985 
L 225.033773 125.162918 
L 226.96956 200.983636 
L 227.937454 125.162918 
L 228.905348 91.46482 
L 229.873241 179.922326 
L 230.841135 78.828034 
L 231.809029 171.497801 
L 232.776922 154.648753 
L 233.744816 129.37518 
L 234.71271 112.526131 
L 235.680603 196.771374 
L 236.648497 83.040296 
L 237.616391 104.101607 
L 238.584284 91.46482 
L 239.552178 108.313869 
L 240.520072 108.313869 
L 241.487965 175.710063 
L 242.455859 167.285539 
L 243.423753 66.191247 
L 244.391646 87.252558 
L 246.327434 104.101607 
L 247.295327 158.861015 
L 248.263221 95.677082 
L 249.231115 167.285539 
L 250.199008 171.497801 
L 251.166902 95.677082 
L 252.134796 83.040296 
L 253.102689 154.648753 
L 254.070583 74.615772 
L 255.038476 66.191247 
L 256.00637 133.587442 
L 256.974264 61.978985 
L 257.942157 196.771374 
L 258.910051 87.252558 
L 259.877945 61.978985 
L 260.845838 74.615772 
L 261.813732 108.313869 
L 262.781626 137.799704 
L 263.749519 116.738393 
L 264.717413 133.587442 
L 265.685307 66.191247 
L 266.6532 57.766723 
L 267.621094 91.46482 
L 268.588988 74.615772 
L 269.556881 66.191247 
L 270.524775 104.101607 
L 271.492669 154.648753 
L 272.460562 133.587442 
L 273.428456 87.252558 
L 275.364243 120.950655 
L 276.332137 53.554461 
L 277.300031 137.799704 
L 278.267924 175.710063 
L 279.235818 150.43649 
L 280.203712 99.889345 
L 281.171605 66.191247 
L 282.139499 171.497801 
L 283.107393 74.615772 
L 284.075286 70.40351 
L 285.04318 91.46482 
L 286.011074 146.224228 
L 286.978967 99.889345 
L 287.946861 154.648753 
L 288.914755 66.191247 
L 289.882648 104.101607 
L 290.850542 74.615772 
L 291.818436 95.677082 
L 292.786329 112.526131 
L 293.754223 83.040296 
L 294.722117 57.766723 
L 295.69001 108.313869 
L 296.657904 57.766723 
L 297.625798 87.252558 
L 298.593691 70.40351 
L 299.561585 83.040296 
L 300.529479 175.710063 
L 301.497372 74.615772 
L 302.465266 70.40351 
L 303.43316 74.615772 
L 304.401053 99.889345 
L 305.368947 78.828034 
L 306.33684 95.677082 
L 307.304734 167.285539 
L 308.272628 116.738393 
L 309.240521 150.43649 
L 310.208415 74.615772 
L 311.176309 108.313869 
L 313.112096 83.040296 
L 314.07999 66.191247 
L 315.047883 137.799704 
L 316.015777 167.285539 
L 316.983671 83.040296 
L 317.951564 91.46482 
L 318.919458 167.285539 
L 319.887352 150.43649 
L 320.855245 112.526131 
L 321.823139 129.37518 
L 322.791033 66.191247 
L 323.758926 91.46482 
L 324.72682 133.587442 
L 325.694714 129.37518 
L 326.662607 83.040296 
L 327.630501 83.040296 
L 328.598395 133.587442 
L 329.566288 154.648753 
L 330.534182 57.766723 
L 331.502076 150.43649 
L 332.469969 116.738393 
L 333.437863 179.922326 
L 334.405757 78.828034 
L 335.37365 83.040296 
L 336.341544 125.162918 
L 337.309438 74.615772 
L 338.277331 74.615772 
L 339.245225 57.766723 
L 340.213119 78.828034 
L 341.181012 112.526131 
L 342.148906 70.40351 
L 343.1168 66.191247 
L 344.084693 154.648753 
L 345.052587 120.950655 
L 346.020481 175.710063 
L 346.988374 74.615772 
L 347.956268 83.040296 
L 348.924162 70.40351 
L 349.892055 95.677082 
L 350.859949 163.073277 
L 351.827843 66.191247 
L 352.795736 74.615772 
L 353.76363 200.983636 
L 354.731524 196.771374 
L 355.699417 83.040296 
L 356.667311 78.828034 
L 357.635204 70.40351 
L 358.603098 184.134588 
L 359.570992 196.771374 
L 360.538885 53.554461 
L 361.506779 66.191247 
L 362.474673 99.889345 
L 363.442566 57.766723 
L 364.41046 70.40351 
L 365.378354 91.46482 
L 366.346247 95.677082 
L 367.314141 196.771374 
L 368.282035 125.162918 
L 369.249928 120.950655 
L 370.217822 171.497801 
L 371.185716 146.224228 
L 372.153609 133.587442 
L 373.121503 78.828034 
L 374.089397 167.285539 
L 375.05729 70.40351 
L 376.025184 78.828034 
L 376.993078 74.615772 
L 377.960971 91.46482 
L 378.928865 137.799704 
L 379.896759 95.677082 
L 380.864652 99.889345 
L 381.832546 66.191247 
L 382.80044 91.46482 
L 383.768333 108.313869 
L 384.736227 99.889345 
L 385.704121 154.648753 
L 386.672014 116.738393 
L 387.639908 66.191247 
L 388.607802 146.224228 
L 389.575695 70.40351 
L 390.543589 70.40351 
L 391.511483 137.799704 
L 392.479376 142.011966 
L 393.44727 78.828034 
L 394.415164 104.101607 
L 395.383057 57.766723 
L 396.350951 91.46482 
L 397.318845 78.828034 
L 398.286738 95.677082 
L 399.254632 78.828034 
L 400.222526 120.950655 
L 401.190419 57.766723 
L 402.158313 196.771374 
L 403.126207 87.252558 
L 404.0941 188.34685 
L 405.061994 66.191247 
L 406.029888 91.46482 
L 406.997781 175.710063 
L 407.965675 61.978985 
L 408.933569 66.191247 
L 409.901462 61.978985 
L 410.869356 95.677082 
L 411.837249 99.889345 
L 412.805143 57.766723 
L 413.773037 104.101607 
L 414.74093 61.978985 
L 415.708824 200.983636 
L 416.676718 78.828034 
L 417.644611 192.559112 
L 418.612505 142.011966 
L 419.580399 66.191247 
L 420.548292 83.040296 
L 421.516186 158.861015 
L 422.48408 95.677082 
L 423.451973 49.342199 
L 424.419867 196.771374 
L 425.387761 61.978985 
L 426.355654 66.191247 
L 427.323548 83.040296 
L 428.291442 91.46482 
L 429.259335 74.615772 
L 430.227229 133.587442 
L 431.195123 78.828034 
L 432.163016 40.917674 
L 433.13091 120.950655 
L 434.098804 83.040296 
L 435.066697 112.526131 
L 436.034591 167.285539 
L 437.002485 53.554461 
L 437.970378 95.677082 
L 438.938272 87.252558 
L 439.906166 146.224228 
L 441.841953 78.828034 
L 442.809847 70.40351 
L 443.77774 116.738393 
L 444.745634 184.134588 
L 445.713528 57.766723 
L 446.681421 129.37518 
L 447.649315 91.46482 
L 448.617209 87.252558 
L 449.585102 116.738393 
L 450.552996 61.978985 
L 451.52089 163.073277 
L 452.488783 53.554461 
L 453.456677 49.342199 
L 455.392464 129.37518 
L 456.360358 99.889345 
L 457.328252 158.861015 
L 458.296145 167.285539 
L 459.264039 192.559112 
L 460.231933 104.101607 
L 461.199826 78.828034 
L 462.16772 108.313869 
L 463.135613 70.40351 
L 464.103507 83.040296 
L 465.071401 91.46482 
L 466.039294 87.252558 
L 467.007188 116.738393 
L 467.975082 87.252558 
L 468.942975 104.101607 
L 469.910869 158.861015 
L 470.878763 104.101607 
L 471.846656 61.978985 
L 472.81455 53.554461 
L 473.782444 133.587442 
L 474.750337 175.710063 
L 475.718231 137.799704 
L 476.686125 137.799704 
L 477.654018 78.828034 
L 478.621912 95.677082 
L 479.589806 125.162918 
L 480.557699 129.37518 
L 481.525593 175.710063 
L 482.493487 154.648753 
L 483.46138 91.46482 
L 484.429274 137.799704 
L 485.397168 49.342199 
L 486.365061 70.40351 
L 487.332955 95.677082 
L 488.300849 91.46482 
L 489.268742 95.677082 
L 490.236636 142.011966 
L 491.20453 175.710063 
L 492.172423 142.011966 
L 493.140317 133.587442 
L 494.108211 95.677082 
L 495.076104 108.313869 
L 496.043998 66.191247 
L 497.011892 133.587442 
L 497.979785 78.828034 
L 498.947679 154.648753 
L 499.915573 99.889345 
L 500.883466 87.252558 
L 501.85136 83.040296 
L 502.819254 120.950655 
L 503.787147 116.738393 
L 504.755041 95.677082 
L 505.722935 137.799704 
L 506.690828 74.615772 
L 507.658722 104.101607 
L 508.626616 179.922326 
L 509.594509 133.587442 
L 510.562403 196.771374 
L 511.530297 78.828034 
L 512.49819 120.950655 
L 513.466084 200.983636 
L 514.433978 112.526131 
L 515.401871 154.648753 
L 516.369765 125.162918 
L 517.337658 133.587442 
L 518.305552 171.497801 
L 519.273446 74.615772 
L 520.241339 116.738393 
L 521.209233 74.615772 
L 522.177127 154.648753 
L 523.14502 163.073277 
L 524.112914 104.101607 
L 525.080808 83.040296 
L 526.048701 78.828034 
L 527.016595 91.46482 
L 527.984489 95.677082 
L 528.952382 167.285539 
L 529.920276 70.40351 
L 530.88817 104.101607 
L 531.856063 171.497801 
L 532.823957 150.43649 
L 533.791851 133.587442 
L 534.759744 78.828034 
L 535.727638 61.978985 
L 536.695532 57.766723 
L 537.663425 146.224228 
L 538.631319 167.285539 
L 539.599213 49.342199 
L 540.567106 116.738393 
L 541.535 91.46482 
L 541.535 91.46482 
" clip-path="url(#p97f7d85773)" style="fill: none; stroke: #235996; stroke-width: 0.8; stroke-linecap: square"/>
   </g>
   <g id="patch_3">
    <path d="M 44.57 210.04 
L 44.57 10.8 
" style="fill: none; stroke: #000000; stroke-width: 0.8; stroke-linejoin: miter; stroke-linecap: square"/>
   </g>
   <g id="patch_4">
    <path d="M 565.2 210.04 
L 565.2 10.8 
" style="fill: none; stroke: #000000; stroke-width: 0.8; stroke-linejoin: miter; stroke-linecap: square"/>
   </g>
   <g id="patch_5">
    <path d="M 44.57 210.04 
L 565.2 210.04 
" style="fill: none; stroke: #000000; stroke-width: 0.8; stroke-linejoin: miter; stroke-linecap: square"/>
   </g>
   <g id="patch_6">
    <path d="M 44.57 10.8 
L 565.2 10.8 
" style="fill: none; stroke: #000000; stroke-width: 0.8; stroke-linejoin: miter; stroke-linecap: square"/>
   </g>
   <g id="legend_1">
    <g id="patch_7">
     <path d="M 156.8845 43.4565 
L 452.8855 43.4565 
Q 455.7655 43.4565 455.7655 40.5765 
L 455.7655 20.88 
Q 455.7655 18 452.8855 18 
L 156.8845 18 
Q 154.0045 18 154.0045 20.88 
L 154.0045 40.5765 
Q 154.0045 43.4565 156.8845 43.4565 
z
" style="fill: #ffffff; opacity: 0.8; stroke: #000000; stroke-linejoin: miter"/>
    </g>
    <g id="line2d_14">
     <path d="M 159.7645 29.66175 
L 174.1645 29.66175 
L 188.5645 29.66175 
" style="fill: none; stroke: #99004d; stroke-width: 0.8; stroke-linecap: square"/>
    </g>
    <g id="text_14">
     <text style="font: 14.4px 'DejaVu Sans', 'Bitstream Vera Sans', 'Computer Modern Sans Serif', 'Lucida Grande', 'Verdana', 'Geneva', 'Lucid', 'Arial', 'Helvetica', 'Avant Garde', sans-serif; text-anchor: start" x="200.0845" y="34.70175" transform="rotate(-0 200.0845 34.70175)">hw(random)</text>
    </g>
    <g id="line2d_15">
     <path d="M 316.873 29.66175 
L 331.273 29.66175 
L 345.673 29.66175 
" style="fill: none; stroke: #235996; stroke-width: 0.8; stroke-linecap: square"/>
    </g>
    <g id="text_15">
     <text style="font: 14.4px 'DejaVu Sans', 'Bitstream Vera Sans', 'Computer Modern Sans Serif', 'Lucida Grande', 'Verdana', 'Geneva', 'Lucid', 'Arial', 'Helvetica', 'Avant Garde', sans-serif; text-anchor: start" x="357.193" y="34.70175" transform="rotate(-0 357.193 34.70175)"> hw(HWGEN)</text>
    </g>
   </g>
  </g>
 </g>
 <defs>
  <clipPath id="p97f7d85773">
   <rect x="44.57" y="10.8" width="520.63" height="199.24"/>
  </clipPath>
 </defs>
</svg>
