<?xml version="1.0" encoding="utf-8" standalone="no"?>
<!DOCTYPE svg PUBLIC "-//W3C//DTD SVG 1.1//EN"
  "http://www.w3.org/Graphics/SVG/1.1/DTD/svg11.dtd">
<svg xmlns:xlink="http://www.w3.org/1999/xlink" width="576pt" height="252pt" viewBox="0 0 576 252" xmlns="http://www.w3.org/2000/svg" version="1.1">
 <metadata>
  <rdf:RDF xmlns:dc="http://purl.org/dc/elements/1.1/" xmlns:cc="http://creativecommons.org/ns#" xmlns:rdf="http://www.w3.org/1999/02/22-rdf-syntax-ns#">
   <cc:Work>
    <dc:type rdf:resource="http://purl.org/dc/dcmitype/StillImage"/>
    <dc:date>2023-12-04T21:08:42.777942</dc:date>
    <dc:format>image/svg+xml</dc:format>
    <dc:creator>
     <cc:Agent>
      <dc:title>Matplotlib v3.7.4, https://matplotlib.org/</dc:title>
     </cc:Agent>
    </dc:creator>
   </cc:Work>
  </rdf:RDF>
 </metadata>
 <defs>
  <style type="text/css">*{stroke-linejoin: round; stroke-linecap: butt}</style>
 </defs>
 <g id="figure_1">
  <g id="patch_1">
   <path d="M 0 252 
L 576 252 
L 576 0 
L 0 0 
z
" style="fill: #ffffff"/>
  </g>
  <g id="axes_1">
   <g id="patch_2">
    <path d="M 56.78 210.04 
L 525.43 210.04 
L 525.43 13.930244 
L 56.78 13.930244 
z
" style="fill: #ffffff"/>
   </g>
   <g id="matplotlib.axis_1">
    <g id="xtick_1">
     <g id="line2d_1">
      <defs>
       <path id="m621fbb5779" d="M 0 0 
L 0 3.5 
" style="stroke: #000000; stroke-width: 0.8"/>
      </defs>
      <g>
       <use xlink:href="#m621fbb5779" x="78.082273" y="210.04" style="stroke: #000000; stroke-width: 0.8"/>
      </g>
     </g>
     <g id="text_1">
      <text style="font: 10px 'DejaVu Sans', 'Bitstream Vera Sans', 'Computer Modern Sans Serif', 'Lucida Grande', 'Verdana', 'Geneva', 'Lucid', 'Arial', 'Helvetica', 'Avant Garde', sans-serif; text-anchor: middle" x="78.082273" y="224.638438" transform="rotate(-0 78.082273 224.638438)">0</text>
     </g>
    </g>
    <g id="xtick_2">
     <g id="line2d_2">
      <g>
       <use xlink:href="#m621fbb5779" x="163.633569" y="210.04" style="stroke: #000000; stroke-width: 0.8"/>
      </g>
     </g>
     <g id="text_2">
      <text style="font: 10px 'DejaVu Sans', 'Bitstream Vera Sans', 'Computer Modern Sans Serif', 'Lucida Grande', 'Verdana', 'Geneva', 'Lucid', 'Arial', 'Helvetica', 'Avant Garde', sans-serif; text-anchor: middle" x="163.633569" y="224.638438" transform="rotate(-0 163.633569 224.638438)">50</text>
     </g>
    </g>
    <g id="xtick_3">
     <g id="line2d_3">
      <g>
       <use xlink:href="#m621fbb5779" x="249.184865" y="210.04" style="stroke: #000000; stroke-width: 0.8"/>
      </g>
     </g>
     <g id="text_3">
      <text style="font: 10px 'DejaVu Sans', 'Bitstream Vera Sans', 'Computer Modern Sans Serif', 'Lucida Grande', 'Verdana', 'Geneva', 'Lucid', 'Arial', 'Helvetica', 'Avant Garde', sans-serif; text-anchor: middle" x="249.184865" y="224.638438" transform="rotate(-0 249.184865 224.638438)">100</text>
     </g>
    </g>
    <g id="xtick_4">
     <g id="line2d_4">
      <g>
       <use xlink:href="#m621fbb5779" x="334.736161" y="210.04" style="stroke: #000000; stroke-width: 0.8"/>
      </g>
     </g>
     <g id="text_4">
      <text style="font: 10px 'DejaVu Sans', 'Bitstream Vera Sans', 'Computer Modern Sans Serif', 'Lucida Grande', 'Verdana', 'Geneva', 'Lucid', 'Arial', 'Helvetica', 'Avant Garde', sans-serif; text-anchor: middle" x="334.736161" y="224.638438" transform="rotate(-0 334.736161 224.638438)">150</text>
     </g>
    </g>
    <g id="xtick_5">
     <g id="line2d_5">
      <g>
       <use xlink:href="#m621fbb5779" x="420.287457" y="210.04" style="stroke: #000000; stroke-width: 0.8"/>
      </g>
     </g>
     <g id="text_5">
      <text style="font: 10px 'DejaVu Sans', 'Bitstream Vera Sans', 'Computer Modern Sans Serif', 'Lucida Grande', 'Verdana', 'Geneva', 'Lucid', 'Arial', 'Helvetica', 'Avant Garde', sans-serif; text-anchor: middle" x="420.287457" y="224.638438" transform="rotate(-0 420.287457 224.638438)">200</text>
     </g>
    </g>
    <g id="xtick_6">
     <g id="line2d_6">
      <g>
       <use xlink:href="#m621fbb5779" x="505.838753" y="210.04" style="stroke: #000000; stroke-width: 0.8"/>
      </g>
     </g>
     <g id="text_6">
      <text style="font: 10px 'DejaVu Sans', 'Bitstream Vera Sans', 'Computer Modern Sans Serif', 'Lucida Grande', 'Verdana', 'Geneva', 'Lucid', 'Arial', 'Helvetica', 'Avant Garde', sans-serif; text-anchor: middle" x="505.838753" y="224.638438" transform="rotate(-0 505.838753 224.638438)">250</text>
     </g>
    </g>
    <g id="text_7">
     <text style="font: 10px 'DejaVu Sans', 'Bitstream Vera Sans', 'Computer Modern Sans Serif', 'Lucida Grande', 'Verdana', 'Geneva', 'Lucid', 'Arial', 'Helvetica', 'Avant Garde', sans-serif; text-anchor: middle" x="291.105" y="238.316563" transform="rotate(-0 291.105 238.316563)">Cycles</text>
    </g>
   </g>
   <g id="matplotlib.axis_2">
    <g id="ytick_1">
     <g id="line2d_7">
      <defs>
       <path id="m43c3b356e2" d="M 0 0 
L -3.5 0 
" style="stroke: #000000; stroke-width: 0.8"/>
      </defs>
      <g>
       <use xlink:href="#m43c3b356e2" x="56.78" y="201.12592" style="stroke: #000000; stroke-width: 0.8"/>
      </g>
     </g>
     <g id="text_8">
      <text style="font: 10px 'DejaVu Sans', 'Bitstream Vera Sans', 'Computer Modern Sans Serif', 'Lucida Grande', 'Verdana', 'Geneva', 'Lucid', 'Arial', 'Helvetica', 'Avant Garde', sans-serif; text-anchor: end" x="49.78" y="204.925139" transform="rotate(-0 49.78 204.925139)">200</text>
     </g>
    </g>
    <g id="ytick_2">
     <g id="line2d_8">
      <g>
       <use xlink:href="#m43c3b356e2" x="56.78" y="170.066409" style="stroke: #000000; stroke-width: 0.8"/>
      </g>
     </g>
     <g id="text_9">
      <text style="font: 10px 'DejaVu Sans', 'Bitstream Vera Sans', 'Computer Modern Sans Serif', 'Lucida Grande', 'Verdana', 'Geneva', 'Lucid', 'Arial', 'Helvetica', 'Avant Garde', sans-serif; text-anchor: end" x="49.78" y="173.865627" transform="rotate(-0 49.78 173.865627)">250</text>
     </g>
    </g>
    <g id="ytick_3">
     <g id="line2d_9">
      <g>
       <use xlink:href="#m43c3b356e2" x="56.78" y="139.006897" style="stroke: #000000; stroke-width: 0.8"/>
      </g>
     </g>
     <g id="text_10">
      <text style="font: 10px 'DejaVu Sans', 'Bitstream Vera Sans', 'Computer Modern Sans Serif', 'Lucida Grande', 'Verdana', 'Geneva', 'Lucid', 'Arial', 'Helvetica', 'Avant Garde', sans-serif; text-anchor: end" x="49.78" y="142.806116" transform="rotate(-0 49.78 142.806116)">300</text>
     </g>
    </g>
    <g id="ytick_4">
     <g id="line2d_10">
      <g>
       <use xlink:href="#m43c3b356e2" x="56.78" y="107.947385" style="stroke: #000000; stroke-width: 0.8"/>
      </g>
     </g>
     <g id="text_11">
      <text style="font: 10px 'DejaVu Sans', 'Bitstream Vera Sans', 'Computer Modern Sans Serif', 'Lucida Grande', 'Verdana', 'Geneva', 'Lucid', 'Arial', 'Helvetica', 'Avant Garde', sans-serif; text-anchor: end" x="49.78" y="111.746604" transform="rotate(-0 49.78 111.746604)">350</text>
     </g>
    </g>
    <g id="ytick_5">
     <g id="line2d_11">
      <g>
       <use xlink:href="#m43c3b356e2" x="56.78" y="76.887874" style="stroke: #000000; stroke-width: 0.8"/>
      </g>
     </g>
     <g id="text_12">
      <text style="font: 10px 'DejaVu Sans', 'Bitstream Vera Sans', 'Computer Modern Sans Serif', 'Lucida Grande', 'Verdana', 'Geneva', 'Lucid', 'Arial', 'Helvetica', 'Avant Garde', sans-serif; text-anchor: end" x="49.78" y="80.687093" transform="rotate(-0 49.78 80.687093)">400</text>
     </g>
    </g>
    <g id="ytick_6">
     <g id="line2d_12">
      <g>
       <use xlink:href="#m43c3b356e2" x="56.78" y="45.828362" style="stroke: #000000; stroke-width: 0.8"/>
      </g>
     </g>
     <g id="text_13">
      <text style="font: 10px 'DejaVu Sans', 'Bitstream Vera Sans', 'Computer Modern Sans Serif', 'Lucida Grande', 'Verdana', 'Geneva', 'Lucid', 'Arial', 'Helvetica', 'Avant Garde', sans-serif; text-anchor: end" x="49.78" y="49.627581" transform="rotate(-0 49.78 49.627581)">450</text>
     </g>
    </g>
    <g id="ytick_7">
     <g id="line2d_13">
      <g>
       <use xlink:href="#m43c3b356e2" x="56.78" y="14.768851" style="stroke: #000000; stroke-width: 0.8"/>
      </g>
     </g>
     <g id="text_14">
      <text style="font: 10px 'DejaVu Sans', 'Bitstream Vera Sans', 'Computer Modern Sans Serif', 'Lucida Grande', 'Verdana', 'Geneva', 'Lucid', 'Arial', 'Helvetica', 'Avant Garde', sans-serif; text-anchor: end" x="49.78" y="18.568069" transform="rotate(-0 49.78 18.568069)">500</text>
     </g>
    </g>
    <g id="text_15">
     <text style="font: 10px 'DejaVu Sans', 'Bitstream Vera Sans', 'Computer Modern Sans Serif', 'Lucida Grande', 'Verdana', 'Geneva', 'Lucid', 'Arial', 'Helvetica', 'Avant Garde', sans-serif; text-anchor: middle" x="18.612812" y="111.985122" transform="rotate(-90 18.612812 111.985122)">power (uW)</text>
    </g>
   </g>
   <g id="line2d_14">
    <path d="M 78.082273 155.779033 
L 79.793299 30.298607 
L 81.504325 115.401668 
L 83.21535 170.066409 
L 84.926376 78.751445 
L 86.637402 152.051892 
L 88.348428 80.615015 
L 90.059454 80.615015 
L 91.77048 91.796439 
L 93.481506 94.902391 
L 95.192532 87.448108 
L 96.903558 91.175249 
L 98.614584 63.842879 
L 100.32561 172.55117 
L 102.036636 77.509064 
L 103.747662 98.629532 
L 105.458687 115.401668 
L 107.169713 74.403113 
L 108.880739 67.57002 
L 110.591765 71.297162 
L 112.302791 83.099776 
L 114.013817 83.099776 
L 115.724843 91.175249 
L 117.435869 50.797884 
L 119.146895 74.403113 
L 120.857921 73.781923 
L 122.568947 72.539542 
L 124.279973 152.673082 
L 125.990999 122.234761 
L 127.702024 101.114293 
L 129.41305 125.961902 
L 131.124076 94.902391 
L 132.835102 53.282645 
L 134.546128 116.644049 
L 136.257154 86.205727 
L 137.96818 69.433591 
L 139.679206 194.292828 
L 141.390232 44.585982 
L 143.101258 88.069298 
L 144.812284 115.401668 
L 146.52331 108.568576 
L 148.234336 89.932869 
L 149.945361 89.311678 
L 151.656387 63.842879 
L 153.367413 24.707894 
L 155.078439 66.32764 
L 156.789465 37.752889 
L 158.500491 55.767406 
L 160.211517 167.581648 
L 161.922543 152.051892 
L 163.633569 68.191211 
L 165.344595 88.069298 
L 167.055621 91.175249 
L 168.766647 148.32475 
L 170.477673 135.279756 
L 172.188698 81.236205 
L 173.899724 77.509064 
L 175.61075 73.160732 
L 177.321776 68.191211 
L 179.032802 78.751445 
L 180.743828 96.144771 
L 182.454854 168.202838 
L 184.16588 170.066409 
L 185.876906 86.826918 
L 187.587932 64.464069 
L 189.298958 89.311678 
L 191.009984 40.23765 
L 192.721009 116.022858 
L 194.432035 68.191211 
L 196.143061 89.311678 
L 197.854087 57.630977 
L 199.565113 58.252167 
L 201.276139 166.339267 
L 202.987165 84.342157 
L 204.698191 60.115738 
L 206.409217 124.719522 
L 208.120243 104.220244 
L 209.831269 72.539542 
L 211.542295 110.432146 
L 213.253321 75.024303 
L 214.964346 168.202838 
L 216.675372 91.175249 
L 218.386398 69.433591 
L 220.097424 35.268128 
L 221.80845 101.735483 
L 223.519476 77.509064 
L 225.230502 99.250722 
L 226.941528 60.115738 
L 228.652554 99.250722 
L 230.36358 158.263794 
L 232.074606 63.221689 
L 233.785632 177.520691 
L 235.496658 133.416185 
L 237.207683 50.176694 
L 238.918709 163.854506 
L 240.629735 94.2812 
L 242.340761 81.857396 
L 244.051787 67.57002 
L 245.762813 158.263794 
L 247.473839 71.918352 
L 249.184865 91.796439 
L 250.895891 130.931424 
L 252.606917 165.096887 
L 254.317943 68.191211 
L 256.028969 66.94883 
L 257.739995 91.796439 
L 259.45102 48.934313 
L 261.162046 79.993825 
L 262.873072 119.75 
L 264.584098 78.130254 
L 266.295124 158.263794 
L 268.00615 160.127365 
L 269.717176 105.462625 
L 271.428202 156.400224 
L 273.139228 102.977864 
L 276.56128 73.781923 
L 278.272306 104.220244 
L 279.983332 80.615015 
L 281.694357 51.419074 
L 283.405383 86.826918 
L 285.116409 43.964792 
L 286.827435 90.554059 
L 288.538461 78.751445 
L 290.249487 101.114293 
L 291.960513 60.115738 
L 293.671539 78.751445 
L 295.382565 150.188321 
L 297.093591 156.400224 
L 298.804617 102.977864 
L 300.515643 102.977864 
L 302.226668 96.765961 
L 303.937694 22.844324 
L 305.64872 85.584537 
L 307.359746 116.644049 
L 309.070772 70.675972 
L 310.781798 71.918352 
L 312.492824 57.009786 
L 314.20385 148.32475 
L 315.914876 96.765961 
L 319.336928 101.735483 
L 321.047954 136.522136 
L 322.75898 68.191211 
L 324.470005 125.340712 
L 326.181031 86.826918 
L 327.892057 86.205727 
L 329.603083 116.644049 
L 331.314109 70.675972 
L 333.025135 123.477141 
L 334.736161 114.159288 
L 336.447187 144.597609 
L 338.158213 54.525026 
L 339.869239 75.024303 
L 341.580265 66.94883 
L 343.291291 76.887874 
L 345.002317 65.085259 
L 346.713342 201.12592 
L 348.424368 76.266684 
L 350.135394 64.464069 
L 351.84642 102.977864 
L 353.557446 91.175249 
L 355.268472 73.160732 
L 356.979498 79.993825 
L 358.690524 70.675972 
L 360.40155 92.41763 
L 362.112576 111.674527 
L 363.823602 73.160732 
L 365.534628 138.385707 
L 367.245654 111.053337 
L 368.956679 26.571465 
L 370.667705 118.507619 
L 372.378731 101.114293 
L 374.089757 136.522136 
L 375.800783 70.675972 
L 377.511809 50.176694 
L 379.222835 83.099776 
L 380.933861 78.751445 
L 382.644887 85.584537 
L 384.355913 88.690488 
L 386.066939 86.826918 
L 387.777965 123.477141 
L 389.488991 101.114293 
L 392.911042 66.32764 
L 396.333094 109.810956 
L 398.04412 101.735483 
L 399.755146 71.918352 
L 401.466172 83.099776 
L 403.177198 113.538098 
L 404.888224 155.779033 
L 406.59925 86.205727 
L 408.310276 65.70645 
L 410.021302 163.233316 
L 411.732327 58.252167 
L 413.443353 127.825473 
L 415.154379 58.873357 
L 416.865405 56.388596 
L 418.576431 94.902391 
L 420.287457 116.644049 
L 421.998483 53.903835 
L 423.709509 119.12881 
L 425.420535 172.55117 
L 427.131561 94.2812 
L 428.842587 88.690488 
L 430.553613 89.311678 
L 432.264639 73.160732 
L 433.975664 64.464069 
L 435.68669 106.705005 
L 437.397716 59.494547 
L 439.108742 99.871912 
L 440.819768 165.718077 
L 442.530794 117.886429 
L 444.24182 102.356673 
L 445.952846 92.41763 
L 447.663872 72.539542 
L 449.374898 47.691933 
L 451.085924 119.75 
L 452.79695 86.826918 
L 454.507976 65.70645 
L 456.219001 61.358118 
L 457.930027 150.188321 
L 459.641053 87.448108 
L 461.352079 111.053337 
L 463.063105 75.024303 
L 464.774131 83.099776 
L 466.485157 119.75 
L 468.196183 83.099776 
L 469.907209 104.220244 
L 471.618235 96.765961 
L 473.329261 74.403113 
L 475.040287 122.234761 
L 476.751313 82.478586 
L 478.462338 91.796439 
L 480.173364 90.554059 
L 481.88439 66.32764 
L 483.595416 100.493103 
L 485.306442 162.612126 
L 487.017468 53.903835 
L 488.728494 98.629532 
L 490.43952 63.842879 
L 492.150546 53.282645 
L 493.861572 34.025748 
L 495.572598 83.099776 
L 497.283624 168.202838 
L 498.99465 66.94883 
L 500.705675 83.099776 
L 502.416701 156.400224 
L 504.127727 144.597609 
L 504.127727 144.597609 
" clip-path="url(#p6a28b870a7)" style="fill: none; stroke: #99004d; stroke-width: 0.8; stroke-linecap: square"/>
   </g>
   <g id="patch_3">
    <path d="M 56.78 210.04 
L 56.78 13.930244 
" style="fill: none; stroke: #000000; stroke-width: 0.8; stroke-linejoin: miter; stroke-linecap: square"/>
   </g>
   <g id="patch_4">
    <path d="M 525.43 210.04 
L 525.43 13.930244 
" style="fill: none; stroke: #000000; stroke-width: 0.8; stroke-linejoin: miter; stroke-linecap: square"/>
   </g>
   <g id="patch_5">
    <path d="M 56.78 210.04 
L 525.43 210.04 
" style="fill: none; stroke: #000000; stroke-width: 0.8; stroke-linejoin: miter; stroke-linecap: square"/>
   </g>
   <g id="patch_6">
    <path d="M 56.78 13.930244 
L 525.43 13.930244 
" style="fill: none; stroke: #000000; stroke-width: 0.8; stroke-linejoin: miter; stroke-linecap: square"/>
   </g>
  </g>
  <g id="axes_2">
   <g id="matplotlib.axis_3">
    <g id="ytick_8">
     <g id="line2d_15">
      <defs>
       <path id="m53440e9eaf" d="M 0 0 
L 3.5 0 
" style="stroke: #000000; stroke-width: 0.8"/>
      </defs>
      <g>
       <use xlink:href="#m53440e9eaf" x="525.43" y="190.638767" style="stroke: #000000; stroke-width: 0.8"/>
      </g>
     </g>
     <g id="text_16">
      <text style="font: 10px 'DejaVu Sans', 'Bitstream Vera Sans', 'Computer Modern Sans Serif', 'Lucida Grande', 'Verdana', 'Geneva', 'Lucid', 'Arial', 'Helvetica', 'Avant Garde', sans-serif; text-anchor: start" x="532.43" y="194.437986" transform="rotate(-0 532.43 194.437986)">5</text>
     </g>
    </g>
    <g id="ytick_9">
     <g id="line2d_16">
      <g>
       <use xlink:href="#m53440e9eaf" x="525.43" y="164.420886" style="stroke: #000000; stroke-width: 0.8"/>
      </g>
     </g>
     <g id="text_17">
      <text style="font: 10px 'DejaVu Sans', 'Bitstream Vera Sans', 'Computer Modern Sans Serif', 'Lucida Grande', 'Verdana', 'Geneva', 'Lucid', 'Arial', 'Helvetica', 'Avant Garde', sans-serif; text-anchor: start" x="532.43" y="168.220104" transform="rotate(-0 532.43 168.220104)">10</text>
     </g>
    </g>
    <g id="ytick_10">
     <g id="line2d_17">
      <g>
       <use xlink:href="#m53440e9eaf" x="525.43" y="138.203004" style="stroke: #000000; stroke-width: 0.8"/>
      </g>
     </g>
     <g id="text_18">
      <text style="font: 10px 'DejaVu Sans', 'Bitstream Vera Sans', 'Computer Modern Sans Serif', 'Lucida Grande', 'Verdana', 'Geneva', 'Lucid', 'Arial', 'Helvetica', 'Avant Garde', sans-serif; text-anchor: start" x="532.43" y="142.002223" transform="rotate(-0 532.43 142.002223)">15</text>
     </g>
    </g>
    <g id="ytick_11">
     <g id="line2d_18">
      <g>
       <use xlink:href="#m53440e9eaf" x="525.43" y="111.985122" style="stroke: #000000; stroke-width: 0.8"/>
      </g>
     </g>
     <g id="text_19">
      <text style="font: 10px 'DejaVu Sans', 'Bitstream Vera Sans', 'Computer Modern Sans Serif', 'Lucida Grande', 'Verdana', 'Geneva', 'Lucid', 'Arial', 'Helvetica', 'Avant Garde', sans-serif; text-anchor: start" x="532.43" y="115.784341" transform="rotate(-0 532.43 115.784341)">20</text>
     </g>
    </g>
    <g id="ytick_12">
     <g id="line2d_19">
      <g>
       <use xlink:href="#m53440e9eaf" x="525.43" y="85.76724" style="stroke: #000000; stroke-width: 0.8"/>
      </g>
     </g>
     <g id="text_20">
      <text style="font: 10px 'DejaVu Sans', 'Bitstream Vera Sans', 'Computer Modern Sans Serif', 'Lucida Grande', 'Verdana', 'Geneva', 'Lucid', 'Arial', 'Helvetica', 'Avant Garde', sans-serif; text-anchor: start" x="532.43" y="89.566459" transform="rotate(-0 532.43 89.566459)">25</text>
     </g>
    </g>
    <g id="ytick_13">
     <g id="line2d_20">
      <g>
       <use xlink:href="#m53440e9eaf" x="525.43" y="59.549358" style="stroke: #000000; stroke-width: 0.8"/>
      </g>
     </g>
     <g id="text_21">
      <text style="font: 10px 'DejaVu Sans', 'Bitstream Vera Sans', 'Computer Modern Sans Serif', 'Lucida Grande', 'Verdana', 'Geneva', 'Lucid', 'Arial', 'Helvetica', 'Avant Garde', sans-serif; text-anchor: start" x="532.43" y="63.348577" transform="rotate(-0 532.43 63.348577)">30</text>
     </g>
    </g>
    <g id="ytick_14">
     <g id="line2d_21">
      <g>
       <use xlink:href="#m53440e9eaf" x="525.43" y="33.331476" style="stroke: #000000; stroke-width: 0.8"/>
      </g>
     </g>
     <g id="text_22">
      <text style="font: 10px 'DejaVu Sans', 'Bitstream Vera Sans', 'Computer Modern Sans Serif', 'Lucida Grande', 'Verdana', 'Geneva', 'Lucid', 'Arial', 'Helvetica', 'Avant Garde', sans-serif; text-anchor: start" x="532.43" y="37.130695" transform="rotate(-0 532.43 37.130695)">35</text>
     </g>
    </g>
    <g id="text_23">
     <text style="font: 10px 'DejaVu Sans', 'Bitstream Vera Sans', 'Computer Modern Sans Serif', 'Lucida Grande', 'Verdana', 'Geneva', 'Lucid', 'Arial', 'Helvetica', 'Avant Garde', sans-serif; text-anchor: middle" x="562.753438" y="111.985122" transform="rotate(-90 562.753438 111.985122)">hw(data)</text>
    </g>
   </g>
   <g id="line2d_22">
    <path d="M 78.082273 132.959427 
L 79.793299 54.305782 
L 81.504325 43.818629 
L 83.21535 201.12592 
L 84.926376 49.062206 
L 86.637402 111.985122 
L 88.348428 33.331476 
L 90.059454 111.985122 
L 91.77048 96.254393 
L 93.481506 64.792935 
L 95.192532 54.305782 
L 96.903558 138.203004 
L 98.614584 70.036511 
L 100.32561 132.959427 
L 102.036636 85.76724 
L 103.747662 148.690157 
L 105.458687 185.395191 
L 107.169713 49.062206 
L 108.880739 111.985122 
L 110.591765 80.523664 
L 112.302791 117.228698 
L 114.013817 85.76724 
L 115.724843 180.151615 
L 117.435869 70.036511 
L 119.146895 132.959427 
L 122.568947 91.010816 
L 125.990999 164.420886 
L 127.702024 143.44658 
L 129.41305 143.44658 
L 131.124076 117.228698 
L 132.835102 64.792935 
L 134.546128 132.959427 
L 136.257154 70.036511 
L 137.96818 122.472275 
L 139.679206 190.638767 
L 141.390232 49.062206 
L 143.101258 59.549358 
L 144.812284 122.472275 
L 146.52331 132.959427 
L 148.234336 70.036511 
L 149.945361 127.715851 
L 151.656387 64.792935 
L 153.367413 59.549358 
L 155.078439 101.497969 
L 156.789465 80.523664 
L 158.500491 143.44658 
L 160.211517 201.12592 
L 161.922543 153.933733 
L 163.633569 80.523664 
L 165.344595 38.575053 
L 167.055621 96.254393 
L 168.766647 132.959427 
L 170.477673 180.151615 
L 172.188698 49.062206 
L 173.899724 38.575053 
L 175.61075 91.010816 
L 177.321776 54.305782 
L 179.032802 54.305782 
L 180.743828 59.549358 
L 182.454854 164.420886 
L 184.16588 174.908038 
L 185.876906 96.254393 
L 187.587932 80.523664 
L 189.298958 101.497969 
L 191.009984 91.010816 
L 192.721009 164.420886 
L 194.432035 59.549358 
L 196.143061 122.472275 
L 197.854087 143.44658 
L 199.565113 96.254393 
L 201.276139 174.908038 
L 202.987165 117.228698 
L 204.698191 64.792935 
L 206.409217 111.985122 
L 208.120243 132.959427 
L 209.831269 49.062206 
L 211.542295 138.203004 
L 213.253321 111.985122 
L 214.964346 190.638767 
L 216.675372 96.254393 
L 218.386398 43.818629 
L 220.097424 49.062206 
L 221.80845 91.010816 
L 223.519476 49.062206 
L 225.230502 106.741546 
L 226.941528 111.985122 
L 228.652554 96.254393 
L 230.36358 164.420886 
L 232.074606 38.575053 
L 233.785632 180.151615 
L 235.496658 153.933733 
L 237.207683 43.818629 
L 238.918709 127.715851 
L 240.629735 101.497969 
L 242.340761 59.549358 
L 244.051787 96.254393 
L 245.762813 159.177309 
L 247.473839 59.549358 
L 249.184865 80.523664 
L 250.895891 164.420886 
L 252.606917 106.741546 
L 254.317943 43.818629 
L 256.028969 111.985122 
L 257.739995 75.280087 
L 259.45102 143.44658 
L 261.162046 148.690157 
L 262.873072 106.741546 
L 264.584098 127.715851 
L 266.295124 159.177309 
L 268.00615 153.933733 
L 269.717176 75.280087 
L 271.428202 132.959427 
L 273.139228 111.985122 
L 274.850254 117.228698 
L 276.56128 91.010816 
L 278.272306 138.203004 
L 279.983332 38.575053 
L 281.694357 64.792935 
L 283.405383 143.44658 
L 285.116409 70.036511 
L 286.827435 111.985122 
L 288.538461 85.76724 
L 290.249487 117.228698 
L 291.960513 49.062206 
L 293.671539 96.254393 
L 295.382565 117.228698 
L 297.093591 106.741546 
L 298.804617 85.76724 
L 300.515643 138.203004 
L 302.226668 127.715851 
L 303.937694 33.331476 
L 305.64872 127.715851 
L 307.359746 127.715851 
L 309.070772 70.036511 
L 310.781798 75.280087 
L 312.492824 49.062206 
L 314.20385 122.472275 
L 315.914876 106.741546 
L 317.625902 22.844324 
L 319.336928 80.523664 
L 321.047954 143.44658 
L 322.75898 54.305782 
L 324.470005 117.228698 
L 326.181031 75.280087 
L 327.892057 64.792935 
L 329.603083 106.741546 
L 331.314109 117.228698 
L 333.025135 132.959427 
L 334.736161 132.959427 
L 336.447187 190.638767 
L 338.158213 91.010816 
L 339.869239 91.010816 
L 341.580265 85.76724 
L 343.291291 117.228698 
L 345.002317 143.44658 
L 346.713342 201.12592 
L 348.424368 28.0879 
L 350.135394 59.549358 
L 351.84642 159.177309 
L 353.557446 132.959427 
L 355.268472 49.062206 
L 356.979498 64.792935 
L 358.690524 70.036511 
L 360.40155 127.715851 
L 363.823602 96.254393 
L 365.534628 143.44658 
L 367.245654 159.177309 
L 368.956679 54.305782 
L 370.667705 138.203004 
L 372.378731 111.985122 
L 374.089757 148.690157 
L 375.800783 96.254393 
L 377.511809 54.305782 
L 380.933861 106.741546 
L 382.644887 111.985122 
L 384.355913 64.792935 
L 386.066939 54.305782 
L 387.777965 64.792935 
L 389.488991 132.959427 
L 391.200016 54.305782 
L 392.911042 54.305782 
L 394.622068 132.959427 
L 396.333094 91.010816 
L 398.04412 54.305782 
L 399.755146 80.523664 
L 401.466172 159.177309 
L 403.177198 106.741546 
L 404.888224 96.254393 
L 406.59925 111.985122 
L 408.310276 106.741546 
L 410.021302 180.151615 
L 411.732327 64.792935 
L 413.443353 153.933733 
L 415.154379 80.523664 
L 416.865405 54.305782 
L 418.576431 64.792935 
L 420.287457 111.985122 
L 421.998483 70.036511 
L 423.709509 185.395191 
L 425.420535 127.715851 
L 428.842587 75.280087 
L 430.553613 91.010816 
L 432.264639 70.036511 
L 433.975664 106.741546 
L 435.68669 127.715851 
L 437.397716 85.76724 
L 439.108742 111.985122 
L 440.819768 169.664462 
L 442.530794 180.151615 
L 444.24182 64.792935 
L 445.952846 96.254393 
L 447.663872 75.280087 
L 449.374898 80.523664 
L 451.085924 96.254393 
L 452.79695 101.497969 
L 454.507976 54.305782 
L 456.219001 64.792935 
L 457.930027 127.715851 
L 459.641053 91.010816 
L 461.352079 111.985122 
L 463.063105 159.177309 
L 466.485157 117.228698 
L 468.196183 75.280087 
L 469.907209 91.010816 
L 471.618235 49.062206 
L 473.329261 143.44658 
L 475.040287 106.741546 
L 476.751313 132.959427 
L 478.462338 70.036511 
L 480.173364 174.908038 
L 481.88439 54.305782 
L 483.595416 91.010816 
L 485.306442 190.638767 
L 487.017468 64.792935 
L 488.728494 143.44658 
L 490.43952 91.010816 
L 492.150546 80.523664 
L 493.861572 43.818629 
L 495.572598 54.305782 
L 497.283624 153.933733 
L 498.99465 111.985122 
L 500.705675 91.010816 
L 502.416701 153.933733 
L 504.127727 106.741546 
L 504.127727 106.741546 
" clip-path="url(#p6a28b870a7)" style="fill: none; stroke: #235996; stroke-width: 0.8; stroke-linecap: square"/>
   </g>
   <g id="patch_7">
    <path d="M 56.78 210.04 
L 56.78 13.930244 
" style="fill: none; stroke: #000000; stroke-width: 0.8; stroke-linejoin: miter; stroke-linecap: square"/>
   </g>
   <g id="patch_8">
    <path d="M 525.43 210.04 
L 525.43 13.930244 
" style="fill: none; stroke: #000000; stroke-width: 0.8; stroke-linejoin: miter; stroke-linecap: square"/>
   </g>
   <g id="patch_9">
    <path d="M 56.78 210.04 
L 525.43 210.04 
" style="fill: none; stroke: #000000; stroke-width: 0.8; stroke-linejoin: miter; stroke-linecap: square"/>
   </g>
   <g id="patch_10">
    <path d="M 56.78 13.930244 
L 525.43 13.930244 
" style="fill: none; stroke: #000000; stroke-width: 0.8; stroke-linejoin: miter; stroke-linecap: square"/>
   </g>
   <g id="legend_1">
    <g id="patch_11">
     <path d="M 150.494625 46.586744 
L 431.715375 46.586744 
Q 434.595375 46.586744 434.595375 43.706744 
L 434.595375 24.010244 
Q 434.595375 21.130244 431.715375 21.130244 
L 150.494625 21.130244 
Q 147.614625 21.130244 147.614625 24.010244 
L 147.614625 43.706744 
Q 147.614625 46.586744 150.494625 46.586744 
z
" style="fill: #ffffff; opacity: 0.8; stroke: #000000; stroke-linejoin: miter"/>
    </g>
    <g id="line2d_23">
     <path d="M 153.374625 32.791994 
L 167.774625 32.791994 
L 182.174625 32.791994 
" style="fill: none; stroke: #99004d; stroke-width: 0.8; stroke-linecap: square"/>
    </g>
    <g id="text_24">
     <text style="font: 14.4px 'DejaVu Sans', 'Bitstream Vera Sans', 'Computer Modern Sans Serif', 'Lucida Grande', 'Verdana', 'Geneva', 'Lucid', 'Arial', 'Helvetica', 'Avant Garde', sans-serif; text-anchor: start" x="193.694625" y="37.831994" transform="rotate(-0 193.694625 37.831994)">power</text>
    </g>
    <g id="line2d_24">
     <path d="M 267.004125 32.791994 
L 281.404125 32.791994 
L 295.804125 32.791994 
" style="fill: none; stroke: #235996; stroke-width: 0.8; stroke-linecap: square"/>
    </g>
    <g id="text_25">
     <text style="font: 14.4px 'DejaVu Sans', 'Bitstream Vera Sans', 'Computer Modern Sans Serif', 'Lucida Grande', 'Verdana', 'Geneva', 'Lucid', 'Arial', 'Helvetica', 'Avant Garde', sans-serif; text-anchor: start" x="307.324125" y="37.831994" transform="rotate(-0 307.324125 37.831994)">hw(rs1)+hw(rs2)</text>
    </g>
   </g>
  </g>
 </g>
 <defs>
  <clipPath id="p6a28b870a7">
   <rect x="56.78" y="13.930244" width="468.65" height="196.109756"/>
  </clipPath>
 </defs>
</svg>
