<?xml version="1.0" encoding="utf-8" standalone="no"?>
<!DOCTYPE svg PUBLIC "-//W3C//DTD SVG 1.1//EN"
  "http://www.w3.org/Graphics/SVG/1.1/DTD/svg11.dtd">
<svg xmlns:xlink="http://www.w3.org/1999/xlink" width="576pt" height="252pt" viewBox="0 0 576 252" xmlns="http://www.w3.org/2000/svg" version="1.1">
 <metadata>
  <rdf:RDF xmlns:dc="http://purl.org/dc/elements/1.1/" xmlns:cc="http://creativecommons.org/ns#" xmlns:rdf="http://www.w3.org/1999/02/22-rdf-syntax-ns#">
   <cc:Work>
    <dc:type rdf:resource="http://purl.org/dc/dcmitype/StillImage"/>
    <dc:date>2023-11-26T17:35:27.362672</dc:date>
    <dc:format>image/svg+xml</dc:format>
    <dc:creator>
     <cc:Agent>
      <dc:title>Matplotlib v3.8.2, https://matplotlib.org/</dc:title>
     </cc:Agent>
    </dc:creator>
   </cc:Work>
  </rdf:RDF>
 </metadata>
 <defs>
  <style type="text/css">*{stroke-linejoin: round; stroke-linecap: butt}</style>
 </defs>
 <g id="figure_1">
  <g id="patch_1">
   <path d="M 0 252 
L 576 252 
L 576 0 
L 0 0 
z
" style="fill: #ffffff"/>
  </g>
  <g id="axes_1">
   <g id="patch_2">
    <path d="M 56.78 210.04 
L 525.43 210.04 
L 525.43 10.8 
L 56.78 10.8 
z
" style="fill: #ffffff"/>
   </g>
   <g id="matplotlib.axis_1">
    <g id="xtick_1">
     <g id="line2d_1">
      <defs>
       <path id="m396dd34f51" d="M 0 0 
L 0 3.5 
" style="stroke: #000000; stroke-width: 0.8"/>
      </defs>
      <g>
       <use xlink:href="#m396dd34f51" x="78.082273" y="210.04" style="stroke: #000000; stroke-width: 0.8"/>
      </g>
     </g>
     <g id="text_1">
      <text style="font: 10px 'DejaVu Sans', 'Bitstream Vera Sans', 'Computer Modern Sans Serif', 'Lucida Grande', 'Verdana', 'Geneva', 'Lucid', 'Arial', 'Helvetica', 'Avant Garde', sans-serif; text-anchor: middle" x="78.082273" y="224.638438" transform="rotate(-0 78.082273 224.638438)">0</text>
     </g>
    </g>
    <g id="xtick_2">
     <g id="line2d_2">
      <g>
       <use xlink:href="#m396dd34f51" x="163.633569" y="210.04" style="stroke: #000000; stroke-width: 0.8"/>
      </g>
     </g>
     <g id="text_2">
      <text style="font: 10px 'DejaVu Sans', 'Bitstream Vera Sans', 'Computer Modern Sans Serif', 'Lucida Grande', 'Verdana', 'Geneva', 'Lucid', 'Arial', 'Helvetica', 'Avant Garde', sans-serif; text-anchor: middle" x="163.633569" y="224.638438" transform="rotate(-0 163.633569 224.638438)">50</text>
     </g>
    </g>
    <g id="xtick_3">
     <g id="line2d_3">
      <g>
       <use xlink:href="#m396dd34f51" x="249.184865" y="210.04" style="stroke: #000000; stroke-width: 0.8"/>
      </g>
     </g>
     <g id="text_3">
      <text style="font: 10px 'DejaVu Sans', 'Bitstream Vera Sans', 'Computer Modern Sans Serif', 'Lucida Grande', 'Verdana', 'Geneva', 'Lucid', 'Arial', 'Helvetica', 'Avant Garde', sans-serif; text-anchor: middle" x="249.184865" y="224.638438" transform="rotate(-0 249.184865 224.638438)">100</text>
     </g>
    </g>
    <g id="xtick_4">
     <g id="line2d_4">
      <g>
       <use xlink:href="#m396dd34f51" x="334.736161" y="210.04" style="stroke: #000000; stroke-width: 0.8"/>
      </g>
     </g>
     <g id="text_4">
      <text style="font: 10px 'DejaVu Sans', 'Bitstream Vera Sans', 'Computer Modern Sans Serif', 'Lucida Grande', 'Verdana', 'Geneva', 'Lucid', 'Arial', 'Helvetica', 'Avant Garde', sans-serif; text-anchor: middle" x="334.736161" y="224.638438" transform="rotate(-0 334.736161 224.638438)">150</text>
     </g>
    </g>
    <g id="xtick_5">
     <g id="line2d_5">
      <g>
       <use xlink:href="#m396dd34f51" x="420.287457" y="210.04" style="stroke: #000000; stroke-width: 0.8"/>
      </g>
     </g>
     <g id="text_5">
      <text style="font: 10px 'DejaVu Sans', 'Bitstream Vera Sans', 'Computer Modern Sans Serif', 'Lucida Grande', 'Verdana', 'Geneva', 'Lucid', 'Arial', 'Helvetica', 'Avant Garde', sans-serif; text-anchor: middle" x="420.287457" y="224.638438" transform="rotate(-0 420.287457 224.638438)">200</text>
     </g>
    </g>
    <g id="xtick_6">
     <g id="line2d_6">
      <g>
       <use xlink:href="#m396dd34f51" x="505.838753" y="210.04" style="stroke: #000000; stroke-width: 0.8"/>
      </g>
     </g>
     <g id="text_6">
      <text style="font: 10px 'DejaVu Sans', 'Bitstream Vera Sans', 'Computer Modern Sans Serif', 'Lucida Grande', 'Verdana', 'Geneva', 'Lucid', 'Arial', 'Helvetica', 'Avant Garde', sans-serif; text-anchor: middle" x="505.838753" y="224.638438" transform="rotate(-0 505.838753 224.638438)">250</text>
     </g>
    </g>
    <g id="text_7">
     <text style="font: 10px 'DejaVu Sans', 'Bitstream Vera Sans', 'Computer Modern Sans Serif', 'Lucida Grande', 'Verdana', 'Geneva', 'Lucid', 'Arial', 'Helvetica', 'Avant Garde', sans-serif; text-anchor: middle" x="291.105" y="238.316563" transform="rotate(-0 291.105 238.316563)">Cycles</text>
    </g>
   </g>
   <g id="matplotlib.axis_2">
    <g id="ytick_1">
     <g id="line2d_7">
      <defs>
       <path id="mee4770938c" d="M 0 0 
L -3.5 0 
" style="stroke: #000000; stroke-width: 0.8"/>
      </defs>
      <g>
       <use xlink:href="#mee4770938c" x="56.78" y="178.51296" style="stroke: #000000; stroke-width: 0.8"/>
      </g>
     </g>
     <g id="text_8">
      <text style="font: 10px 'DejaVu Sans', 'Bitstream Vera Sans', 'Computer Modern Sans Serif', 'Lucida Grande', 'Verdana', 'Geneva', 'Lucid', 'Arial', 'Helvetica', 'Avant Garde', sans-serif; text-anchor: end" x="49.78" y="182.312178" transform="rotate(-0 49.78 182.312178)">250</text>
     </g>
    </g>
    <g id="ytick_2">
     <g id="line2d_8">
      <g>
       <use xlink:href="#mee4770938c" x="56.78" y="144.46648" style="stroke: #000000; stroke-width: 0.8"/>
      </g>
     </g>
     <g id="text_9">
      <text style="font: 10px 'DejaVu Sans', 'Bitstream Vera Sans', 'Computer Modern Sans Serif', 'Lucida Grande', 'Verdana', 'Geneva', 'Lucid', 'Arial', 'Helvetica', 'Avant Garde', sans-serif; text-anchor: end" x="49.78" y="148.265699" transform="rotate(-0 49.78 148.265699)">300</text>
     </g>
    </g>
    <g id="ytick_3">
     <g id="line2d_9">
      <g>
       <use xlink:href="#mee4770938c" x="56.78" y="110.42" style="stroke: #000000; stroke-width: 0.8"/>
      </g>
     </g>
     <g id="text_10">
      <text style="font: 10px 'DejaVu Sans', 'Bitstream Vera Sans', 'Computer Modern Sans Serif', 'Lucida Grande', 'Verdana', 'Geneva', 'Lucid', 'Arial', 'Helvetica', 'Avant Garde', sans-serif; text-anchor: end" x="49.78" y="114.219219" transform="rotate(-0 49.78 114.219219)">350</text>
     </g>
    </g>
    <g id="ytick_4">
     <g id="line2d_10">
      <g>
       <use xlink:href="#mee4770938c" x="56.78" y="76.37352" style="stroke: #000000; stroke-width: 0.8"/>
      </g>
     </g>
     <g id="text_11">
      <text style="font: 10px 'DejaVu Sans', 'Bitstream Vera Sans', 'Computer Modern Sans Serif', 'Lucida Grande', 'Verdana', 'Geneva', 'Lucid', 'Arial', 'Helvetica', 'Avant Garde', sans-serif; text-anchor: end" x="49.78" y="80.172739" transform="rotate(-0 49.78 80.172739)">400</text>
     </g>
    </g>
    <g id="ytick_5">
     <g id="line2d_11">
      <g>
       <use xlink:href="#mee4770938c" x="56.78" y="42.32704" style="stroke: #000000; stroke-width: 0.8"/>
      </g>
     </g>
     <g id="text_12">
      <text style="font: 10px 'DejaVu Sans', 'Bitstream Vera Sans', 'Computer Modern Sans Serif', 'Lucida Grande', 'Verdana', 'Geneva', 'Lucid', 'Arial', 'Helvetica', 'Avant Garde', sans-serif; text-anchor: end" x="49.78" y="46.126259" transform="rotate(-0 49.78 46.126259)">450</text>
     </g>
    </g>
    <g id="text_13">
     <text style="font: 10px 'DejaVu Sans', 'Bitstream Vera Sans', 'Computer Modern Sans Serif', 'Lucida Grande', 'Verdana', 'Geneva', 'Lucid', 'Arial', 'Helvetica', 'Avant Garde', sans-serif; text-anchor: middle" x="18.612812" y="110.42" transform="rotate(-90 18.612812 110.42)">power (uW)</text>
    </g>
   </g>
   <g id="line2d_12">
    <path d="M 78.082273 89.992112 
L 79.793299 155.361353 
L 81.504325 120.633944 
L 83.21535 92.71583 
L 84.926376 134.252536 
L 86.637402 75.011661 
L 88.348428 172.384593 
L 90.059454 123.357662 
L 91.77048 87.949323 
L 93.481506 145.147409 
L 95.192532 53.902843 
L 96.903558 80.459098 
L 98.614584 77.735379 
L 100.32561 120.633944 
L 102.036636 145.828339 
L 103.747662 167.618086 
L 105.458687 33.474956 
L 107.169713 73.649802 
L 108.880739 163.532509 
L 110.591765 107.015352 
L 112.302791 60.712139 
L 114.013817 75.692591 
L 115.724843 106.334422 
L 117.435869 115.186507 
L 119.146895 80.459098 
L 120.857921 90.673042 
L 122.568947 62.754928 
L 124.279973 57.988421 
L 125.990999 87.268394 
L 127.702024 96.801408 
L 129.41305 35.517744 
L 131.124076 177.1511 
L 132.835102 98.163267 
L 134.546128 59.35028 
L 136.257154 164.213438 
L 137.96818 113.824648 
L 139.679206 91.353971 
L 141.390232 173.065523 
L 143.101258 104.291634 
L 144.812284 110.42 
L 146.52331 72.968872 
L 148.234336 110.42 
L 149.945361 77.05445 
L 151.656387 60.712139 
L 153.367413 48.455407 
L 155.078439 121.995803 
L 156.789465 117.229296 
L 158.500491 117.229296 
L 160.211517 66.159576 
L 161.922543 76.37352 
L 163.633569 92.034901 
L 165.344595 93.39676 
L 167.055621 86.587464 
L 168.766647 115.867437 
L 170.477673 161.48972 
L 172.188698 60.712139 
L 173.899724 97.482338 
L 175.61075 43.6889 
L 177.321776 156.723213 
L 179.032802 115.867437 
L 180.743828 81.140027 
L 182.454854 91.353971 
L 184.16588 151.275776 
L 185.876906 105.653493 
L 187.587932 51.179125 
L 189.298958 42.32704 
L 192.721009 92.71583 
L 194.432035 156.723213 
L 196.143061 125.400451 
L 197.854087 130.166958 
L 199.565113 93.39676 
L 201.276139 160.127861 
L 202.987165 49.136336 
L 204.698191 61.393069 
L 206.409217 60.712139 
L 208.120243 71.607013 
L 209.831269 92.034901 
L 211.542295 104.972563 
L 213.253321 103.610704 
L 214.964346 70.926083 
L 216.675372 41.646111 
L 218.386398 28.708448 
L 220.097424 80.459098 
L 221.80845 55.264703 
L 223.519476 87.268394 
L 225.230502 175.108312 
L 226.941528 79.778168 
L 228.652554 80.459098 
L 230.36358 78.416309 
L 232.074606 89.992112 
L 233.785632 82.501887 
L 235.496658 88.630253 
L 237.207683 63.435858 
L 238.918709 178.51296 
L 240.629735 95.439549 
L 242.340761 91.353971 
L 244.051787 68.883295 
L 245.762813 172.384593 
L 247.473839 48.455407 
L 249.184865 83.863746 
L 250.895891 79.097239 
L 252.606917 54.583773 
L 254.317943 65.478647 
L 256.028969 96.120478 
L 257.739995 63.435858 
L 259.45102 75.692591 
L 261.162046 98.163267 
L 262.873072 89.311183 
L 264.584098 73.649802 
L 266.295124 200.983636 
L 268.00615 81.820957 
L 269.717176 66.159576 
L 271.428202 107.696282 
L 273.139228 175.108312 
L 274.850254 115.186507 
L 276.56128 97.482338 
L 278.272306 87.949323 
L 279.983332 164.894368 
L 281.694357 79.778168 
L 283.405383 85.225605 
L 285.116409 116.548366 
L 286.827435 162.170649 
L 288.538461 100.206056 
L 290.249487 100.886986 
L 291.960513 162.170649 
L 293.671539 72.287943 
L 295.382565 69.564224 
L 297.093591 109.058141 
L 298.804617 96.120478 
L 300.515643 73.649802 
L 302.226668 99.525126 
L 303.937694 66.159576 
L 305.64872 94.758619 
L 307.359746 68.883295 
L 309.070772 169.660875 
L 310.781798 87.268394 
L 312.492824 80.459098 
L 314.20385 96.801408 
L 315.914876 77.05445 
L 317.625902 83.182816 
L 319.336928 121.995803 
L 321.047954 69.564224 
L 322.75898 90.673042 
L 324.470005 43.00797 
L 326.181031 98.844197 
L 327.892057 66.159576 
L 329.603083 84.544675 
L 331.314109 79.097239 
L 333.025135 79.778168 
L 334.736161 156.042283 
L 336.447187 92.034901 
L 338.158213 95.439549 
L 339.869239 105.653493 
L 341.580265 102.929774 
L 343.291291 87.268394 
L 345.002317 44.369829 
L 346.713342 38.241463 
L 348.424368 101.567915 
L 350.135394 60.712139 
L 351.84642 124.038592 
L 353.557446 94.07769 
L 355.268472 69.564224 
L 356.979498 117.229296 
L 358.690524 150.594846 
L 360.40155 175.789241 
L 362.112576 103.610704 
L 363.823602 152.637635 
L 365.534628 92.034901 
L 367.245654 87.268394 
L 368.956679 19.856364 
L 370.667705 83.863746 
L 372.378731 154.680424 
L 374.089757 151.275776 
L 375.800783 175.789241 
L 377.511809 91.353971 
L 379.222835 149.232987 
L 380.933861 96.801408 
L 382.644887 51.179125 
L 384.355913 101.567915 
L 386.066939 66.840506 
L 387.777965 117.910226 
L 389.488991 47.093548 
L 391.200016 43.6889 
L 392.911042 59.35028 
L 394.622068 94.758619 
L 396.333094 95.439549 
L 398.04412 57.307491 
L 399.755146 74.330731 
L 401.466172 77.735379 
L 403.177198 96.120478 
L 404.888224 64.116787 
L 406.59925 116.548366 
L 408.310276 96.801408 
L 410.021302 54.583773 
L 411.732327 89.311183 
L 413.443353 82.501887 
L 415.154379 89.992112 
L 416.865405 118.591155 
L 418.576431 105.653493 
L 420.287457 104.291634 
L 421.998483 68.202365 
L 423.709509 62.073999 
L 425.420535 61.393069 
L 427.131561 114.505578 
L 428.842587 91.353971 
L 430.553613 57.307491 
L 432.264639 71.607013 
L 433.975664 94.758619 
L 435.68669 91.353971 
L 437.397716 70.926083 
L 439.108742 163.532509 
L 440.819768 102.248845 
L 442.530794 136.976254 
L 444.24182 72.287943 
L 445.952846 134.933465 
L 447.663872 57.307491 
L 449.374898 83.182816 
L 451.085924 185.322256 
L 452.79695 37.560533 
L 454.507976 102.248845 
L 456.219001 68.883295 
L 457.930027 88.630253 
L 459.641053 102.929774 
L 461.352079 89.311183 
L 463.063105 68.202365 
L 464.774131 55.945632 
L 466.485157 113.143718 
L 468.196183 72.968872 
L 469.907209 84.544675 
L 471.618235 107.696282 
L 473.329261 92.71583 
L 475.040287 151.275776 
L 476.751313 141.061832 
L 478.462338 77.05445 
L 480.173364 81.820957 
L 481.88439 105.653493 
L 483.595416 156.723213 
L 485.306442 38.922392 
L 487.017468 81.140027 
L 488.728494 66.840506 
L 490.43952 119.272085 
L 492.150546 72.968872 
L 493.861572 70.245154 
L 495.572598 57.307491 
L 497.283624 96.801408 
L 498.99465 167.618086 
L 500.705675 139.019043 
L 502.416701 28.027519 
L 504.127727 30.070308 
L 504.127727 30.070308 
" clip-path="url(#paa0e8d968f)" style="fill: none; stroke: #99004d; stroke-width: 0.8; stroke-linecap: square"/>
   </g>
   <g id="patch_3">
    <path d="M 56.78 210.04 
L 56.78 10.8 
" style="fill: none; stroke: #000000; stroke-width: 0.8; stroke-linejoin: miter; stroke-linecap: square"/>
   </g>
   <g id="patch_4">
    <path d="M 525.43 210.04 
L 525.43 10.8 
" style="fill: none; stroke: #000000; stroke-width: 0.8; stroke-linejoin: miter; stroke-linecap: square"/>
   </g>
   <g id="patch_5">
    <path d="M 56.78 210.04 
L 525.43 210.04 
" style="fill: none; stroke: #000000; stroke-width: 0.8; stroke-linejoin: miter; stroke-linecap: square"/>
   </g>
   <g id="patch_6">
    <path d="M 56.78 10.8 
L 525.43 10.8 
" style="fill: none; stroke: #000000; stroke-width: 0.8; stroke-linejoin: miter; stroke-linecap: square"/>
   </g>
  </g>
  <g id="axes_2">
   <g id="matplotlib.axis_3">
    <g id="ytick_6">
     <g id="line2d_13">
      <defs>
       <path id="m687df168af" d="M 0 0 
L 3.5 0 
" style="stroke: #000000; stroke-width: 0.8"/>
      </defs>
      <g>
       <use xlink:href="#m687df168af" x="525.43" y="206.014949" style="stroke: #000000; stroke-width: 0.8"/>
      </g>
     </g>
     <g id="text_14">
      <text style="font: 10px 'DejaVu Sans', 'Bitstream Vera Sans', 'Computer Modern Sans Serif', 'Lucida Grande', 'Verdana', 'Geneva', 'Lucid', 'Arial', 'Helvetica', 'Avant Garde', sans-serif; text-anchor: start" x="532.43" y="209.814168" transform="rotate(-0 532.43 209.814168)">0</text>
     </g>
    </g>
    <g id="ytick_7">
     <g id="line2d_14">
      <g>
       <use xlink:href="#m687df168af" x="525.43" y="180.858384" style="stroke: #000000; stroke-width: 0.8"/>
      </g>
     </g>
     <g id="text_15">
      <text style="font: 10px 'DejaVu Sans', 'Bitstream Vera Sans', 'Computer Modern Sans Serif', 'Lucida Grande', 'Verdana', 'Geneva', 'Lucid', 'Arial', 'Helvetica', 'Avant Garde', sans-serif; text-anchor: start" x="532.43" y="184.657603" transform="rotate(-0 532.43 184.657603)">5</text>
     </g>
    </g>
    <g id="ytick_8">
     <g id="line2d_15">
      <g>
       <use xlink:href="#m687df168af" x="525.43" y="155.701818" style="stroke: #000000; stroke-width: 0.8"/>
      </g>
     </g>
     <g id="text_16">
      <text style="font: 10px 'DejaVu Sans', 'Bitstream Vera Sans', 'Computer Modern Sans Serif', 'Lucida Grande', 'Verdana', 'Geneva', 'Lucid', 'Arial', 'Helvetica', 'Avant Garde', sans-serif; text-anchor: start" x="532.43" y="159.501037" transform="rotate(-0 532.43 159.501037)">10</text>
     </g>
    </g>
    <g id="ytick_9">
     <g id="line2d_16">
      <g>
       <use xlink:href="#m687df168af" x="525.43" y="130.545253" style="stroke: #000000; stroke-width: 0.8"/>
      </g>
     </g>
     <g id="text_17">
      <text style="font: 10px 'DejaVu Sans', 'Bitstream Vera Sans', 'Computer Modern Sans Serif', 'Lucida Grande', 'Verdana', 'Geneva', 'Lucid', 'Arial', 'Helvetica', 'Avant Garde', sans-serif; text-anchor: start" x="532.43" y="134.344471" transform="rotate(-0 532.43 134.344471)">15</text>
     </g>
    </g>
    <g id="ytick_10">
     <g id="line2d_17">
      <g>
       <use xlink:href="#m687df168af" x="525.43" y="105.388687" style="stroke: #000000; stroke-width: 0.8"/>
      </g>
     </g>
     <g id="text_18">
      <text style="font: 10px 'DejaVu Sans', 'Bitstream Vera Sans', 'Computer Modern Sans Serif', 'Lucida Grande', 'Verdana', 'Geneva', 'Lucid', 'Arial', 'Helvetica', 'Avant Garde', sans-serif; text-anchor: start" x="532.43" y="109.187906" transform="rotate(-0 532.43 109.187906)">20</text>
     </g>
    </g>
    <g id="ytick_11">
     <g id="line2d_18">
      <g>
       <use xlink:href="#m687df168af" x="525.43" y="80.232121" style="stroke: #000000; stroke-width: 0.8"/>
      </g>
     </g>
     <g id="text_19">
      <text style="font: 10px 'DejaVu Sans', 'Bitstream Vera Sans', 'Computer Modern Sans Serif', 'Lucida Grande', 'Verdana', 'Geneva', 'Lucid', 'Arial', 'Helvetica', 'Avant Garde', sans-serif; text-anchor: start" x="532.43" y="84.03134" transform="rotate(-0 532.43 84.03134)">25</text>
     </g>
    </g>
    <g id="ytick_12">
     <g id="line2d_19">
      <g>
       <use xlink:href="#m687df168af" x="525.43" y="55.075556" style="stroke: #000000; stroke-width: 0.8"/>
      </g>
     </g>
     <g id="text_20">
      <text style="font: 10px 'DejaVu Sans', 'Bitstream Vera Sans', 'Computer Modern Sans Serif', 'Lucida Grande', 'Verdana', 'Geneva', 'Lucid', 'Arial', 'Helvetica', 'Avant Garde', sans-serif; text-anchor: start" x="532.43" y="58.874774" transform="rotate(-0 532.43 58.874774)">30</text>
     </g>
    </g>
    <g id="ytick_13">
     <g id="line2d_20">
      <g>
       <use xlink:href="#m687df168af" x="525.43" y="29.91899" style="stroke: #000000; stroke-width: 0.8"/>
      </g>
     </g>
     <g id="text_21">
      <text style="font: 10px 'DejaVu Sans', 'Bitstream Vera Sans', 'Computer Modern Sans Serif', 'Lucida Grande', 'Verdana', 'Geneva', 'Lucid', 'Arial', 'Helvetica', 'Avant Garde', sans-serif; text-anchor: start" x="532.43" y="33.718209" transform="rotate(-0 532.43 33.718209)">35</text>
     </g>
    </g>
    <g id="text_22">
     <text style="font: 10px 'DejaVu Sans', 'Bitstream Vera Sans', 'Computer Modern Sans Serif', 'Lucida Grande', 'Verdana', 'Geneva', 'Lucid', 'Arial', 'Helvetica', 'Avant Garde', sans-serif; text-anchor: middle" x="562.753438" y="110.42" transform="rotate(-90 562.753438 110.42)">hw(data)</text>
    </g>
   </g>
   <g id="line2d_21">
    <path d="M 78.082273 160.733131 
L 79.793299 110.42 
L 81.504325 100.357374 
L 83.21535 60.106869 
L 84.926376 65.138182 
L 86.637402 55.075556 
L 88.348428 180.858384 
L 90.059454 140.607879 
L 91.77048 135.576566 
L 93.481506 185.889697 
L 95.192532 140.607879 
L 96.903558 55.075556 
L 98.614584 130.545253 
L 100.32561 85.263434 
L 102.036636 90.294747 
L 103.747662 155.701818 
L 105.458687 75.200808 
L 107.169713 135.576566 
L 108.880739 140.607879 
L 110.591765 110.42 
L 112.302791 34.950303 
L 114.013817 135.576566 
L 115.724843 120.482626 
L 117.435869 120.482626 
L 119.146895 130.545253 
L 120.857921 95.326061 
L 122.568947 90.294747 
L 124.279973 100.357374 
L 125.990999 70.169495 
L 127.702024 125.513939 
L 129.41305 50.044242 
L 131.124076 175.827071 
L 132.835102 130.545253 
L 134.546128 130.545253 
L 136.257154 145.639192 
L 137.96818 100.357374 
L 139.679206 80.232121 
L 141.390232 100.357374 
L 143.101258 90.294747 
L 144.812284 105.388687 
L 146.52331 90.294747 
L 148.234336 175.827071 
L 149.945361 95.326061 
L 151.656387 75.200808 
L 153.367413 65.138182 
L 155.078439 80.232121 
L 156.789465 140.607879 
L 158.500491 125.513939 
L 160.211517 130.545253 
L 161.922543 115.451313 
L 163.633569 150.670505 
L 165.344595 95.326061 
L 167.055621 50.044242 
L 168.766647 125.513939 
L 172.188698 105.388687 
L 173.899724 45.012929 
L 175.61075 45.012929 
L 177.321776 115.451313 
L 179.032802 70.169495 
L 180.743828 85.263434 
L 182.454854 95.326061 
L 184.16588 165.764444 
L 185.876906 130.545253 
L 187.587932 105.388687 
L 189.298958 90.294747 
L 191.009984 24.887677 
L 192.721009 85.263434 
L 194.432035 110.42 
L 196.143061 55.075556 
L 197.854087 100.357374 
L 199.565113 85.263434 
L 201.276139 125.513939 
L 202.987165 70.169495 
L 204.698191 50.044242 
L 206.409217 75.200808 
L 208.120243 55.075556 
L 209.831269 140.607879 
L 211.542295 150.670505 
L 213.253321 95.326061 
L 216.675372 65.138182 
L 218.386398 95.326061 
L 220.097424 130.545253 
L 221.80845 39.981616 
L 223.519476 70.169495 
L 225.230502 180.858384 
L 226.941528 125.513939 
L 228.652554 60.106869 
L 230.36358 75.200808 
L 232.074606 55.075556 
L 233.785632 100.357374 
L 235.496658 70.169495 
L 237.207683 105.388687 
L 238.918709 190.92101 
L 240.629735 115.451313 
L 242.340761 55.075556 
L 244.051787 85.263434 
L 245.762813 165.764444 
L 247.473839 75.200808 
L 249.184865 135.576566 
L 250.895891 90.294747 
L 252.606917 29.91899 
L 254.317943 50.044242 
L 256.028969 50.044242 
L 257.739995 55.075556 
L 259.45102 39.981616 
L 261.162046 185.889697 
L 262.873072 155.701818 
L 266.295124 105.388687 
L 268.00615 100.357374 
L 269.717176 80.232121 
L 271.428202 70.169495 
L 273.139228 170.795758 
L 274.850254 105.388687 
L 276.56128 115.451313 
L 278.272306 100.357374 
L 279.983332 145.639192 
L 281.694357 125.513939 
L 283.405383 95.326061 
L 285.116409 170.795758 
L 286.827435 125.513939 
L 288.538461 135.576566 
L 290.249487 105.388687 
L 291.960513 120.482626 
L 295.382565 60.106869 
L 297.093591 105.388687 
L 298.804617 95.326061 
L 300.515643 80.232121 
L 302.226668 75.200808 
L 303.937694 80.232121 
L 305.64872 115.451313 
L 307.359746 115.451313 
L 309.070772 140.607879 
L 310.781798 70.169495 
L 312.492824 125.513939 
L 314.20385 70.169495 
L 315.914876 110.42 
L 317.625902 110.42 
L 319.336928 100.357374 
L 321.047954 60.106869 
L 322.75898 55.075556 
L 324.470005 75.200808 
L 326.181031 65.138182 
L 327.892057 39.981616 
L 329.603083 110.42 
L 331.314109 115.451313 
L 333.025135 160.733131 
L 334.736161 125.513939 
L 336.447187 105.388687 
L 339.869239 85.263434 
L 341.580265 145.639192 
L 343.291291 140.607879 
L 345.002317 100.357374 
L 346.713342 39.981616 
L 348.424368 130.545253 
L 350.135394 95.326061 
L 351.84642 125.513939 
L 353.557446 70.169495 
L 355.268472 60.106869 
L 356.979498 165.764444 
L 358.690524 115.451313 
L 360.40155 175.827071 
L 362.112576 120.482626 
L 363.823602 115.451313 
L 365.534628 95.326061 
L 367.245654 110.42 
L 368.956679 19.856364 
L 370.667705 55.075556 
L 372.378731 110.42 
L 374.089757 135.576566 
L 375.800783 110.42 
L 377.511809 140.607879 
L 379.222835 110.42 
L 380.933861 125.513939 
L 382.644887 65.138182 
L 384.355913 115.451313 
L 386.066939 55.075556 
L 387.777965 75.200808 
L 389.488991 65.138182 
L 391.200016 45.012929 
L 394.622068 95.326061 
L 396.333094 80.232121 
L 398.04412 125.513939 
L 399.755146 60.106869 
L 401.466172 65.138182 
L 403.177198 140.607879 
L 404.888224 105.388687 
L 406.59925 100.357374 
L 408.310276 90.294747 
L 410.021302 55.075556 
L 411.732327 135.576566 
L 413.443353 60.106869 
L 415.154379 24.887677 
L 416.865405 80.232121 
L 418.576431 155.701818 
L 420.287457 155.701818 
L 421.998483 50.044242 
L 423.709509 60.106869 
L 425.420535 75.200808 
L 427.131561 115.451313 
L 428.842587 65.138182 
L 430.553613 60.106869 
L 432.264639 85.263434 
L 433.975664 50.044242 
L 435.68669 80.232121 
L 437.397716 100.357374 
L 439.108742 130.545253 
L 440.819768 70.169495 
L 442.530794 105.388687 
L 444.24182 85.263434 
L 445.952846 85.263434 
L 447.663872 34.950303 
L 449.374898 110.42 
L 451.085924 200.983636 
L 452.79695 80.232121 
L 454.507976 60.106869 
L 456.219001 95.326061 
L 457.930027 95.326061 
L 459.641053 105.388687 
L 461.352079 135.576566 
L 463.063105 90.294747 
L 464.774131 50.044242 
L 466.485157 60.106869 
L 468.196183 50.044242 
L 469.907209 140.607879 
L 471.618235 160.733131 
L 475.040287 60.106869 
L 476.751313 125.513939 
L 478.462338 100.357374 
L 480.173364 50.044242 
L 481.88439 60.106869 
L 483.595416 130.545253 
L 485.306442 95.326061 
L 487.017468 105.388687 
L 488.728494 80.232121 
L 490.43952 80.232121 
L 492.150546 50.044242 
L 493.861572 80.232121 
L 495.572598 55.075556 
L 497.283624 110.42 
L 498.99465 115.451313 
L 500.705675 110.42 
L 502.416701 39.981616 
L 504.127727 85.263434 
L 504.127727 85.263434 
" clip-path="url(#paa0e8d968f)" style="fill: none; stroke: #235996; stroke-width: 0.8; stroke-linecap: square"/>
   </g>
   <g id="patch_7">
    <path d="M 56.78 210.04 
L 56.78 10.8 
" style="fill: none; stroke: #000000; stroke-width: 0.8; stroke-linejoin: miter; stroke-linecap: square"/>
   </g>
   <g id="patch_8">
    <path d="M 525.43 210.04 
L 525.43 10.8 
" style="fill: none; stroke: #000000; stroke-width: 0.8; stroke-linejoin: miter; stroke-linecap: square"/>
   </g>
   <g id="patch_9">
    <path d="M 56.78 210.04 
L 525.43 210.04 
" style="fill: none; stroke: #000000; stroke-width: 0.8; stroke-linejoin: miter; stroke-linecap: square"/>
   </g>
   <g id="patch_10">
    <path d="M 56.78 10.8 
L 525.43 10.8 
" style="fill: none; stroke: #000000; stroke-width: 0.8; stroke-linejoin: miter; stroke-linecap: square"/>
   </g>
   <g id="legend_1">
    <g id="patch_11">
     <path d="M 150.494625 43.4565 
L 431.715375 43.4565 
Q 434.595375 43.4565 434.595375 40.5765 
L 434.595375 20.88 
Q 434.595375 18 431.715375 18 
L 150.494625 18 
Q 147.614625 18 147.614625 20.88 
L 147.614625 40.5765 
Q 147.614625 43.4565 150.494625 43.4565 
z
" style="fill: #ffffff; opacity: 0.8; stroke: #000000; stroke-linejoin: miter"/>
    </g>
    <g id="line2d_22">
     <path d="M 153.374625 29.66175 
L 167.774625 29.66175 
L 182.174625 29.66175 
" style="fill: none; stroke: #99004d; stroke-width: 0.8; stroke-linecap: square"/>
    </g>
    <g id="text_23">
     <text style="font: 14.4px 'DejaVu Sans', 'Bitstream Vera Sans', 'Computer Modern Sans Serif', 'Lucida Grande', 'Verdana', 'Geneva', 'Lucid', 'Arial', 'Helvetica', 'Avant Garde', sans-serif; text-anchor: start" x="193.694625" y="34.70175" transform="rotate(-0 193.694625 34.70175)">power</text>
    </g>
    <g id="line2d_23">
     <path d="M 267.004125 29.66175 
L 281.404125 29.66175 
L 295.804125 29.66175 
" style="fill: none; stroke: #235996; stroke-width: 0.8; stroke-linecap: square"/>
    </g>
    <g id="text_24">
     <text style="font: 14.4px 'DejaVu Sans', 'Bitstream Vera Sans', 'Computer Modern Sans Serif', 'Lucida Grande', 'Verdana', 'Geneva', 'Lucid', 'Arial', 'Helvetica', 'Avant Garde', sans-serif; text-anchor: start" x="307.324125" y="34.70175" transform="rotate(-0 307.324125 34.70175)">hw(rs1)+hw(rs2)</text>
    </g>
   </g>
  </g>
 </g>
 <defs>
  <clipPath id="paa0e8d968f">
   <rect x="56.78" y="10.8" width="468.65" height="199.24"/>
  </clipPath>
 </defs>
</svg>
