<?xml version="1.0" encoding="utf-8" standalone="no"?>
<!DOCTYPE svg PUBLIC "-//W3C//DTD SVG 1.1//EN"
  "http://www.w3.org/Graphics/SVG/1.1/DTD/svg11.dtd">
<svg xmlns:xlink="http://www.w3.org/1999/xlink" width="576pt" height="252pt" viewBox="0 0 576 252" xmlns="http://www.w3.org/2000/svg" version="1.1">
 <metadata>
  <rdf:RDF xmlns:dc="http://purl.org/dc/elements/1.1/" xmlns:cc="http://creativecommons.org/ns#" xmlns:rdf="http://www.w3.org/1999/02/22-rdf-syntax-ns#">
   <cc:Work>
    <dc:type rdf:resource="http://purl.org/dc/dcmitype/StillImage"/>
    <dc:date>2023-12-06T20:28:58.279609</dc:date>
    <dc:format>image/svg+xml</dc:format>
    <dc:creator>
     <cc:Agent>
      <dc:title>Matplotlib v3.7.4, https://matplotlib.org/</dc:title>
     </cc:Agent>
    </dc:creator>
   </cc:Work>
  </rdf:RDF>
 </metadata>
 <defs>
  <style type="text/css">*{stroke-linejoin: round; stroke-linecap: butt}</style>
 </defs>
 <g id="figure_1">
  <g id="patch_1">
   <path d="M 0 252 
L 576 252 
L 576 0 
L 0 0 
z
" style="fill: #ffffff"/>
  </g>
  <g id="axes_1">
   <g id="patch_2">
    <path d="M 56.78 210.04 
L 525.43 210.04 
L 525.43 10.8 
L 56.78 10.8 
z
" style="fill: #ffffff"/>
   </g>
   <g id="matplotlib.axis_1">
    <g id="xtick_1">
     <g id="line2d_1">
      <defs>
       <path id="m2e92138c04" d="M 0 0 
L 0 3.5 
" style="stroke: #000000; stroke-width: 0.8"/>
      </defs>
      <g>
       <use xlink:href="#m2e92138c04" x="78.082273" y="210.04" style="stroke: #000000; stroke-width: 0.8"/>
      </g>
     </g>
     <g id="text_1">
      <text style="font: 10px 'DejaVu Sans', 'Bitstream Vera Sans', 'Computer Modern Sans Serif', 'Lucida Grande', 'Verdana', 'Geneva', 'Lucid', 'Arial', 'Helvetica', 'Avant Garde', sans-serif; text-anchor: middle" x="78.082273" y="224.638438" transform="rotate(-0 78.082273 224.638438)">0</text>
     </g>
    </g>
    <g id="xtick_2">
     <g id="line2d_2">
      <g>
       <use xlink:href="#m2e92138c04" x="163.633569" y="210.04" style="stroke: #000000; stroke-width: 0.8"/>
      </g>
     </g>
     <g id="text_2">
      <text style="font: 10px 'DejaVu Sans', 'Bitstream Vera Sans', 'Computer Modern Sans Serif', 'Lucida Grande', 'Verdana', 'Geneva', 'Lucid', 'Arial', 'Helvetica', 'Avant Garde', sans-serif; text-anchor: middle" x="163.633569" y="224.638438" transform="rotate(-0 163.633569 224.638438)">50</text>
     </g>
    </g>
    <g id="xtick_3">
     <g id="line2d_3">
      <g>
       <use xlink:href="#m2e92138c04" x="249.184865" y="210.04" style="stroke: #000000; stroke-width: 0.8"/>
      </g>
     </g>
     <g id="text_3">
      <text style="font: 10px 'DejaVu Sans', 'Bitstream Vera Sans', 'Computer Modern Sans Serif', 'Lucida Grande', 'Verdana', 'Geneva', 'Lucid', 'Arial', 'Helvetica', 'Avant Garde', sans-serif; text-anchor: middle" x="249.184865" y="224.638438" transform="rotate(-0 249.184865 224.638438)">100</text>
     </g>
    </g>
    <g id="xtick_4">
     <g id="line2d_4">
      <g>
       <use xlink:href="#m2e92138c04" x="334.736161" y="210.04" style="stroke: #000000; stroke-width: 0.8"/>
      </g>
     </g>
     <g id="text_4">
      <text style="font: 10px 'DejaVu Sans', 'Bitstream Vera Sans', 'Computer Modern Sans Serif', 'Lucida Grande', 'Verdana', 'Geneva', 'Lucid', 'Arial', 'Helvetica', 'Avant Garde', sans-serif; text-anchor: middle" x="334.736161" y="224.638438" transform="rotate(-0 334.736161 224.638438)">150</text>
     </g>
    </g>
    <g id="xtick_5">
     <g id="line2d_5">
      <g>
       <use xlink:href="#m2e92138c04" x="420.287457" y="210.04" style="stroke: #000000; stroke-width: 0.8"/>
      </g>
     </g>
     <g id="text_5">
      <text style="font: 10px 'DejaVu Sans', 'Bitstream Vera Sans', 'Computer Modern Sans Serif', 'Lucida Grande', 'Verdana', 'Geneva', 'Lucid', 'Arial', 'Helvetica', 'Avant Garde', sans-serif; text-anchor: middle" x="420.287457" y="224.638438" transform="rotate(-0 420.287457 224.638438)">200</text>
     </g>
    </g>
    <g id="xtick_6">
     <g id="line2d_6">
      <g>
       <use xlink:href="#m2e92138c04" x="505.838753" y="210.04" style="stroke: #000000; stroke-width: 0.8"/>
      </g>
     </g>
     <g id="text_6">
      <text style="font: 10px 'DejaVu Sans', 'Bitstream Vera Sans', 'Computer Modern Sans Serif', 'Lucida Grande', 'Verdana', 'Geneva', 'Lucid', 'Arial', 'Helvetica', 'Avant Garde', sans-serif; text-anchor: middle" x="505.838753" y="224.638438" transform="rotate(-0 505.838753 224.638438)">250</text>
     </g>
    </g>
    <g id="text_7">
     <text style="font: 10px 'DejaVu Sans', 'Bitstream Vera Sans', 'Computer Modern Sans Serif', 'Lucida Grande', 'Verdana', 'Geneva', 'Lucid', 'Arial', 'Helvetica', 'Avant Garde', sans-serif; text-anchor: middle" x="291.105" y="238.316563" transform="rotate(-0 291.105 238.316563)">Experiment</text>
    </g>
   </g>
   <g id="matplotlib.axis_2">
    <g id="ytick_1">
     <g id="line2d_7">
      <defs>
       <path id="m2dbbb2e434" d="M 0 0 
L -3.5 0 
" style="stroke: #000000; stroke-width: 0.8"/>
      </defs>
      <g>
       <use xlink:href="#m2dbbb2e434" x="56.78" y="201.652003" style="stroke: #000000; stroke-width: 0.8"/>
      </g>
     </g>
     <g id="text_8">
      <text style="font: 10px 'DejaVu Sans', 'Bitstream Vera Sans', 'Computer Modern Sans Serif', 'Lucida Grande', 'Verdana', 'Geneva', 'Lucid', 'Arial', 'Helvetica', 'Avant Garde', sans-serif; text-anchor: end" x="49.78" y="205.451221" transform="rotate(-0 49.78 205.451221)">200</text>
     </g>
    </g>
    <g id="ytick_2">
     <g id="line2d_8">
      <g>
       <use xlink:href="#m2dbbb2e434" x="56.78" y="168.233687" style="stroke: #000000; stroke-width: 0.8"/>
      </g>
     </g>
     <g id="text_9">
      <text style="font: 10px 'DejaVu Sans', 'Bitstream Vera Sans', 'Computer Modern Sans Serif', 'Lucida Grande', 'Verdana', 'Geneva', 'Lucid', 'Arial', 'Helvetica', 'Avant Garde', sans-serif; text-anchor: end" x="49.78" y="172.032905" transform="rotate(-0 49.78 172.032905)">250</text>
     </g>
    </g>
    <g id="ytick_3">
     <g id="line2d_9">
      <g>
       <use xlink:href="#m2dbbb2e434" x="56.78" y="134.815371" style="stroke: #000000; stroke-width: 0.8"/>
      </g>
     </g>
     <g id="text_10">
      <text style="font: 10px 'DejaVu Sans', 'Bitstream Vera Sans', 'Computer Modern Sans Serif', 'Lucida Grande', 'Verdana', 'Geneva', 'Lucid', 'Arial', 'Helvetica', 'Avant Garde', sans-serif; text-anchor: end" x="49.78" y="138.614589" transform="rotate(-0 49.78 138.614589)">300</text>
     </g>
    </g>
    <g id="ytick_4">
     <g id="line2d_10">
      <g>
       <use xlink:href="#m2dbbb2e434" x="56.78" y="101.397055" style="stroke: #000000; stroke-width: 0.8"/>
      </g>
     </g>
     <g id="text_11">
      <text style="font: 10px 'DejaVu Sans', 'Bitstream Vera Sans', 'Computer Modern Sans Serif', 'Lucida Grande', 'Verdana', 'Geneva', 'Lucid', 'Arial', 'Helvetica', 'Avant Garde', sans-serif; text-anchor: end" x="49.78" y="105.196273" transform="rotate(-0 49.78 105.196273)">350</text>
     </g>
    </g>
    <g id="ytick_5">
     <g id="line2d_11">
      <g>
       <use xlink:href="#m2dbbb2e434" x="56.78" y="67.978739" style="stroke: #000000; stroke-width: 0.8"/>
      </g>
     </g>
     <g id="text_12">
      <text style="font: 10px 'DejaVu Sans', 'Bitstream Vera Sans', 'Computer Modern Sans Serif', 'Lucida Grande', 'Verdana', 'Geneva', 'Lucid', 'Arial', 'Helvetica', 'Avant Garde', sans-serif; text-anchor: end" x="49.78" y="71.777957" transform="rotate(-0 49.78 71.777957)">400</text>
     </g>
    </g>
    <g id="ytick_6">
     <g id="line2d_12">
      <g>
       <use xlink:href="#m2dbbb2e434" x="56.78" y="34.560423" style="stroke: #000000; stroke-width: 0.8"/>
      </g>
     </g>
     <g id="text_13">
      <text style="font: 10px 'DejaVu Sans', 'Bitstream Vera Sans', 'Computer Modern Sans Serif', 'Lucida Grande', 'Verdana', 'Geneva', 'Lucid', 'Arial', 'Helvetica', 'Avant Garde', sans-serif; text-anchor: end" x="49.78" y="38.359641" transform="rotate(-0 49.78 38.359641)">450</text>
     </g>
    </g>
    <g id="text_14">
     <text style="font: 10px 'DejaVu Sans', 'Bitstream Vera Sans', 'Computer Modern Sans Serif', 'Lucida Grande', 'Verdana', 'Geneva', 'Lucid', 'Arial', 'Helvetica', 'Avant Garde', sans-serif; text-anchor: middle" x="18.612812" y="110.42" transform="rotate(-90 18.612812 110.42)">power (uW)</text>
    </g>
   </g>
   <g id="line2d_13">
    <path d="M 78.082273 36.565522 
L 79.793299 47.259383 
L 81.504325 62.631808 
L 83.21535 47.259383 
L 84.926376 61.295075 
L 86.637402 125.458242 
L 88.348428 76.667501 
L 90.059454 62.631808 
L 91.77048 94.713391 
L 93.481506 53.943046 
L 95.192532 43.917551 
L 96.903558 69.983838 
L 98.614584 65.97364 
L 100.32561 140.162301 
L 102.036636 57.953244 
L 103.747662 58.62161 
L 105.458687 148.182697 
L 107.169713 78.004233 
L 108.880739 61.963442 
L 110.591765 84.687897 
L 112.302791 88.029728 
L 114.013817 67.310372 
L 115.724843 124.789876 
L 117.435869 69.315471 
L 119.146895 40.57572 
L 120.857921 63.968541 
L 122.568947 128.131707 
L 124.279973 33.22369 
L 125.990999 123.453143 
L 127.702024 57.284878 
L 129.41305 69.983838 
L 131.124076 96.050124 
L 132.835102 90.703194 
L 134.546128 40.57572 
L 136.257154 41.912452 
L 137.96818 77.335867 
L 139.679206 53.943046 
L 141.390232 49.932848 
L 143.101258 144.840865 
L 144.812284 89.366461 
L 146.52331 41.912452 
L 148.234336 200.983636 
L 149.945361 37.902254 
L 151.656387 56.616511 
L 153.367413 65.305273 
L 155.078439 60.626709 
L 156.789465 84.687897 
L 158.500491 106.075619 
L 160.211517 164.223489 
L 161.922543 65.97364 
L 163.633569 106.743985 
L 165.344595 58.62161 
L 167.055621 63.300174 
L 168.766647 63.300174 
L 170.477673 89.366461 
L 172.188698 53.27468 
L 173.899724 72.657303 
L 175.61075 98.723589 
L 177.321776 80.009332 
L 179.032802 72.657303 
L 180.743828 92.039926 
L 182.454854 72.657303 
L 184.16588 98.055223 
L 185.876906 86.692996 
L 187.587932 57.953244 
L 189.298958 59.958343 
L 191.009984 94.713391 
L 192.721009 88.029728 
L 194.432035 109.417451 
L 196.143061 35.897155 
L 197.854087 106.075619 
L 199.565113 65.305273 
L 201.276139 59.289977 
L 202.987165 71.32057 
L 204.698191 27.876759 
L 206.409217 130.805173 
L 208.120243 132.141905 
L 209.831269 98.723589 
L 211.542295 88.029728 
L 213.253321 108.080718 
L 214.964346 86.692996 
L 216.675372 96.71849 
L 218.386398 80.677699 
L 220.097424 19.856364 
L 221.80845 78.6726 
L 223.519476 50.601214 
L 225.230502 140.162301 
L 226.941528 67.310372 
L 228.652554 36.565522 
L 230.36358 74.662402 
L 232.074606 78.6726 
L 233.785632 134.147004 
L 235.496658 98.055223 
L 237.207683 92.039926 
L 238.918709 75.999135 
L 240.629735 153.529628 
L 242.340761 75.330768 
L 244.051787 55.279779 
L 245.762813 88.029728 
L 247.473839 86.024629 
L 249.184865 69.315471 
L 250.895891 98.723589 
L 252.606917 75.999135 
L 254.317943 85.356263 
L 256.028969 51.269581 
L 257.739995 35.228789 
L 259.45102 39.238987 
L 261.162046 143.504133 
L 262.873072 102.733787 
L 264.584098 69.315471 
L 266.295124 166.896954 
L 268.00615 74.662402 
L 269.717176 62.631808 
L 271.428202 93.376659 
L 273.139228 58.62161 
L 274.850254 62.631808 
L 276.56128 155.534727 
L 278.272306 164.891855 
L 279.983332 118.106213 
L 281.694357 65.305273 
L 283.405383 76.667501 
L 285.116409 114.096015 
L 286.827435 122.116411 
L 288.538461 45.254284 
L 290.249487 101.397055 
L 291.960513 85.356263 
L 293.671539 116.76948 
L 295.382565 100.060322 
L 297.093591 93.376659 
L 298.804617 184.942845 
L 300.515643 132.141905 
L 302.226668 62.631808 
L 303.937694 85.356263 
L 305.64872 90.703194 
L 307.359746 108.749084 
L 309.070772 58.62161 
L 310.781798 57.953244 
L 312.492824 90.034827 
L 314.20385 87.361362 
L 315.914876 63.300174 
L 317.625902 108.080718 
L 319.336928 94.713391 
L 322.75898 84.01953 
L 324.470005 55.948145 
L 326.181031 71.988937 
L 327.892057 53.943046 
L 329.603083 194.968339 
L 331.314109 122.784777 
L 333.025135 76.667501 
L 334.736161 37.233888 
L 336.447187 96.050124 
L 338.158213 110.085817 
L 339.869239 32.555324 
L 341.580265 55.948145 
L 343.291291 73.325669 
L 345.002317 69.315471 
L 346.713342 84.687897 
L 348.424368 61.963442 
L 350.135394 98.055223 
L 351.84642 97.386857 
L 353.557446 164.223489 
L 355.268472 75.999135 
L 356.979498 55.279779 
L 358.690524 112.759282 
L 360.40155 67.978739 
L 362.112576 74.662402 
L 363.823602 47.927749 
L 365.534628 113.427648 
L 367.245654 141.499034 
L 368.956679 111.422549 
L 370.667705 41.244086 
L 372.378731 49.264482 
L 374.089757 60.626709 
L 375.800783 94.045025 
L 377.511809 80.677699 
L 379.222835 46.591016 
L 380.933861 78.6726 
L 382.644887 59.958343 
L 384.355913 47.927749 
L 386.066939 57.284878 
L 387.777965 100.728688 
L 389.488991 162.21839 
L 391.200016 92.039926 
L 392.911042 90.034827 
L 394.622068 101.397055 
L 396.333094 70.652204 
L 398.04412 61.295075 
L 399.755146 124.789876 
L 401.466172 78.004233 
L 403.177198 97.386857 
L 404.888224 75.999135 
L 406.59925 96.050124 
L 408.310276 56.616511 
L 410.021302 48.596115 
L 411.732327 96.050124 
L 413.443353 38.570621 
L 415.154379 59.958343 
L 416.865405 33.22369 
L 418.576431 34.560423 
L 420.287457 78.6726 
L 421.998483 89.366461 
L 423.709509 82.682798 
L 425.420535 80.677699 
L 427.131561 120.779678 
L 428.842587 83.351164 
L 430.553613 70.652204 
L 432.264639 45.254284 
L 433.975664 109.417451 
L 435.68669 139.493935 
L 437.397716 117.437846 
L 439.108742 73.325669 
L 440.819768 77.335867 
L 442.530794 101.397055 
L 444.24182 42.580819 
L 445.952846 80.009332 
L 447.663872 59.289977 
L 449.374898 92.039926 
L 451.085924 115.432747 
L 452.79695 63.968541 
L 454.507976 122.116411 
L 456.219001 44.585917 
L 457.930027 53.27468 
L 459.641053 150.187796 
L 461.352079 65.97364 
L 463.063105 68.647105 
L 464.774131 120.111312 
L 466.485157 122.116411 
L 468.196183 112.759282 
L 469.907209 132.141905 
L 471.618235 39.238987 
L 473.329261 97.386857 
L 475.040287 159.544925 
L 476.751313 65.305273 
L 478.462338 104.07052 
L 480.173364 29.881858 
L 481.88439 65.97364 
L 483.595416 37.902254 
L 485.306442 80.009332 
L 487.017468 65.305273 
L 488.728494 61.295075 
L 490.43952 90.034827 
L 492.150546 93.376659 
L 493.861572 80.677699 
L 495.572598 87.361362 
L 497.283624 67.310372 
L 498.99465 82.682798 
L 500.705675 64.636907 
L 502.416701 96.71849 
L 504.127727 69.983838 
L 504.127727 69.983838 
" clip-path="url(#p3c8362100c)" style="fill: none; stroke: #99004d; stroke-width: 0.8; stroke-linecap: square"/>
   </g>
   <g id="patch_3">
    <path d="M 56.78 210.04 
L 56.78 10.8 
" style="fill: none; stroke: #000000; stroke-width: 0.8; stroke-linejoin: miter; stroke-linecap: square"/>
   </g>
   <g id="patch_4">
    <path d="M 525.43 210.04 
L 525.43 10.8 
" style="fill: none; stroke: #000000; stroke-width: 0.8; stroke-linejoin: miter; stroke-linecap: square"/>
   </g>
   <g id="patch_5">
    <path d="M 56.78 210.04 
L 525.43 210.04 
" style="fill: none; stroke: #000000; stroke-width: 0.8; stroke-linejoin: miter; stroke-linecap: square"/>
   </g>
   <g id="patch_6">
    <path d="M 56.78 10.8 
L 525.43 10.8 
" style="fill: none; stroke: #000000; stroke-width: 0.8; stroke-linejoin: miter; stroke-linecap: square"/>
   </g>
  </g>
  <g id="axes_2">
   <g id="matplotlib.axis_3">
    <g id="ytick_7">
     <g id="line2d_14">
      <defs>
       <path id="mc343d7b96a" d="M 0 0 
L 3.5 0 
" style="stroke: #000000; stroke-width: 0.8"/>
      </defs>
      <g>
       <use xlink:href="#mc343d7b96a" x="525.43" y="185.458442" style="stroke: #000000; stroke-width: 0.8"/>
      </g>
     </g>
     <g id="text_15">
      <text style="font: 10px 'DejaVu Sans', 'Bitstream Vera Sans', 'Computer Modern Sans Serif', 'Lucida Grande', 'Verdana', 'Geneva', 'Lucid', 'Arial', 'Helvetica', 'Avant Garde', sans-serif; text-anchor: start" x="532.43" y="189.25766" transform="rotate(-0 532.43 189.25766)">5</text>
     </g>
    </g>
    <g id="ytick_8">
     <g id="line2d_15">
      <g>
       <use xlink:href="#mc343d7b96a" x="525.43" y="159.583117" style="stroke: #000000; stroke-width: 0.8"/>
      </g>
     </g>
     <g id="text_16">
      <text style="font: 10px 'DejaVu Sans', 'Bitstream Vera Sans', 'Computer Modern Sans Serif', 'Lucida Grande', 'Verdana', 'Geneva', 'Lucid', 'Arial', 'Helvetica', 'Avant Garde', sans-serif; text-anchor: start" x="532.43" y="163.382336" transform="rotate(-0 532.43 163.382336)">10</text>
     </g>
    </g>
    <g id="ytick_9">
     <g id="line2d_16">
      <g>
       <use xlink:href="#mc343d7b96a" x="525.43" y="133.707792" style="stroke: #000000; stroke-width: 0.8"/>
      </g>
     </g>
     <g id="text_17">
      <text style="font: 10px 'DejaVu Sans', 'Bitstream Vera Sans', 'Computer Modern Sans Serif', 'Lucida Grande', 'Verdana', 'Geneva', 'Lucid', 'Arial', 'Helvetica', 'Avant Garde', sans-serif; text-anchor: start" x="532.43" y="137.507011" transform="rotate(-0 532.43 137.507011)">15</text>
     </g>
    </g>
    <g id="ytick_10">
     <g id="line2d_17">
      <g>
       <use xlink:href="#mc343d7b96a" x="525.43" y="107.832468" style="stroke: #000000; stroke-width: 0.8"/>
      </g>
     </g>
     <g id="text_18">
      <text style="font: 10px 'DejaVu Sans', 'Bitstream Vera Sans', 'Computer Modern Sans Serif', 'Lucida Grande', 'Verdana', 'Geneva', 'Lucid', 'Arial', 'Helvetica', 'Avant Garde', sans-serif; text-anchor: start" x="532.43" y="111.631686" transform="rotate(-0 532.43 111.631686)">20</text>
     </g>
    </g>
    <g id="ytick_11">
     <g id="line2d_18">
      <g>
       <use xlink:href="#mc343d7b96a" x="525.43" y="81.957143" style="stroke: #000000; stroke-width: 0.8"/>
      </g>
     </g>
     <g id="text_19">
      <text style="font: 10px 'DejaVu Sans', 'Bitstream Vera Sans', 'Computer Modern Sans Serif', 'Lucida Grande', 'Verdana', 'Geneva', 'Lucid', 'Arial', 'Helvetica', 'Avant Garde', sans-serif; text-anchor: start" x="532.43" y="85.756362" transform="rotate(-0 532.43 85.756362)">25</text>
     </g>
    </g>
    <g id="ytick_12">
     <g id="line2d_19">
      <g>
       <use xlink:href="#mc343d7b96a" x="525.43" y="56.081818" style="stroke: #000000; stroke-width: 0.8"/>
      </g>
     </g>
     <g id="text_20">
      <text style="font: 10px 'DejaVu Sans', 'Bitstream Vera Sans', 'Computer Modern Sans Serif', 'Lucida Grande', 'Verdana', 'Geneva', 'Lucid', 'Arial', 'Helvetica', 'Avant Garde', sans-serif; text-anchor: start" x="532.43" y="59.881037" transform="rotate(-0 532.43 59.881037)">30</text>
     </g>
    </g>
    <g id="ytick_13">
     <g id="line2d_20">
      <g>
       <use xlink:href="#mc343d7b96a" x="525.43" y="30.206494" style="stroke: #000000; stroke-width: 0.8"/>
      </g>
     </g>
     <g id="text_21">
      <text style="font: 10px 'DejaVu Sans', 'Bitstream Vera Sans', 'Computer Modern Sans Serif', 'Lucida Grande', 'Verdana', 'Geneva', 'Lucid', 'Arial', 'Helvetica', 'Avant Garde', sans-serif; text-anchor: start" x="532.43" y="34.005712" transform="rotate(-0 532.43 34.005712)">35</text>
     </g>
    </g>
    <g id="text_22">
     <text style="font: 10px 'DejaVu Sans', 'Bitstream Vera Sans', 'Computer Modern Sans Serif', 'Lucida Grande', 'Verdana', 'Geneva', 'Lucid', 'Arial', 'Helvetica', 'Avant Garde', sans-serif; text-anchor: middle" x="562.753438" y="110.42" transform="rotate(-90 562.753438 110.42)">hw(data)</text>
    </g>
   </g>
   <g id="line2d_21">
    <path d="M 78.082273 66.431948 
L 79.793299 30.206494 
L 81.504325 76.782078 
L 83.21535 61.256883 
L 84.926376 50.906753 
L 86.637402 118.182597 
L 88.348428 107.832468 
L 90.059454 102.657403 
L 91.77048 87.132208 
L 93.481506 97.482338 
L 95.192532 61.256883 
L 96.903558 138.882857 
L 98.614584 107.832468 
L 100.32561 102.657403 
L 102.036636 66.431948 
L 103.747662 107.832468 
L 105.458687 128.532727 
L 107.169713 92.307273 
L 108.880739 133.707792 
L 110.591765 113.007532 
L 112.302791 102.657403 
L 114.013817 81.957143 
L 115.724843 113.007532 
L 117.435869 61.256883 
L 119.146895 76.782078 
L 120.857921 30.206494 
L 122.568947 159.583117 
L 124.279973 45.731688 
L 125.990999 66.431948 
L 127.702024 71.607013 
L 129.41305 50.906753 
L 131.124076 92.307273 
L 132.835102 71.607013 
L 134.546128 102.657403 
L 136.257154 128.532727 
L 137.96818 56.081818 
L 139.679206 71.607013 
L 141.390232 35.381558 
L 143.101258 118.182597 
L 144.812284 102.657403 
L 146.52331 25.031429 
L 148.234336 195.808571 
L 149.945361 87.132208 
L 151.656387 56.081818 
L 153.367413 40.556623 
L 155.078439 118.182597 
L 156.789465 159.583117 
L 158.500491 81.957143 
L 160.211517 175.108312 
L 161.922543 113.007532 
L 163.633569 97.482338 
L 165.344595 97.482338 
L 167.055621 107.832468 
L 168.766647 123.357662 
L 170.477673 128.532727 
L 172.188698 71.607013 
L 173.899724 66.431948 
L 175.61075 159.583117 
L 177.321776 56.081818 
L 179.032802 92.307273 
L 180.743828 138.882857 
L 182.454854 133.707792 
L 184.16588 133.707792 
L 185.876906 102.657403 
L 187.587932 61.256883 
L 189.298958 154.408052 
L 191.009984 118.182597 
L 192.721009 118.182597 
L 194.432035 81.957143 
L 196.143061 92.307273 
L 197.854087 97.482338 
L 201.276139 76.782078 
L 202.987165 76.782078 
L 204.698191 61.256883 
L 206.409217 71.607013 
L 209.831269 123.357662 
L 211.542295 81.957143 
L 213.253321 102.657403 
L 214.964346 128.532727 
L 216.675372 76.782078 
L 218.386398 87.132208 
L 220.097424 50.906753 
L 221.80845 102.657403 
L 223.519476 123.357662 
L 225.230502 128.532727 
L 226.941528 50.906753 
L 228.652554 102.657403 
L 230.36358 61.256883 
L 232.074606 102.657403 
L 233.785632 81.957143 
L 235.496658 71.607013 
L 237.207683 133.707792 
L 238.918709 92.307273 
L 240.629735 123.357662 
L 242.340761 133.707792 
L 244.051787 128.532727 
L 245.762813 102.657403 
L 247.473839 175.108312 
L 249.184865 87.132208 
L 250.895891 61.256883 
L 252.606917 81.957143 
L 254.317943 118.182597 
L 256.028969 61.256883 
L 257.739995 30.206494 
L 259.45102 61.256883 
L 261.162046 138.882857 
L 262.873072 87.132208 
L 266.295124 190.633506 
L 268.00615 56.081818 
L 269.717176 66.431948 
L 271.428202 118.182597 
L 273.139228 97.482338 
L 274.850254 92.307273 
L 276.56128 107.832468 
L 278.272306 180.283377 
L 279.983332 113.007532 
L 281.694357 144.057922 
L 283.405383 113.007532 
L 285.116409 144.057922 
L 286.827435 200.983636 
L 288.538461 56.081818 
L 290.249487 154.408052 
L 291.960513 123.357662 
L 293.671539 45.731688 
L 295.382565 35.381558 
L 297.093591 144.057922 
L 298.804617 159.583117 
L 300.515643 128.532727 
L 302.226668 87.132208 
L 303.937694 76.782078 
L 305.64872 154.408052 
L 307.359746 66.431948 
L 309.070772 97.482338 
L 310.781798 71.607013 
L 312.492824 76.782078 
L 314.20385 118.182597 
L 315.914876 123.357662 
L 317.625902 138.882857 
L 319.336928 133.707792 
L 321.047954 66.431948 
L 322.75898 97.482338 
L 324.470005 76.782078 
L 326.181031 113.007532 
L 327.892057 123.357662 
L 329.603083 180.283377 
L 331.314109 118.182597 
L 333.025135 87.132208 
L 334.736161 87.132208 
L 336.447187 92.307273 
L 338.158213 50.906753 
L 339.869239 45.731688 
L 341.580265 45.731688 
L 343.291291 56.081818 
L 345.002317 133.707792 
L 346.713342 61.256883 
L 348.424368 81.957143 
L 350.135394 123.357662 
L 351.84642 123.357662 
L 353.557446 180.283377 
L 355.268472 113.007532 
L 356.979498 66.431948 
L 358.690524 138.882857 
L 360.40155 71.607013 
L 362.112576 113.007532 
L 363.823602 56.081818 
L 365.534628 107.832468 
L 367.245654 118.182597 
L 368.956679 123.357662 
L 370.667705 71.607013 
L 374.089757 81.957143 
L 375.800783 61.256883 
L 377.511809 66.431948 
L 379.222835 66.431948 
L 380.933861 97.482338 
L 382.644887 87.132208 
L 384.355913 50.906753 
L 386.066939 118.182597 
L 387.777965 113.007532 
L 389.488991 118.182597 
L 391.200016 81.957143 
L 394.622068 71.607013 
L 396.333094 71.607013 
L 398.04412 19.856364 
L 399.755146 76.782078 
L 401.466172 180.283377 
L 403.177198 113.007532 
L 404.888224 71.607013 
L 406.59925 81.957143 
L 408.310276 118.182597 
L 410.021302 40.556623 
L 411.732327 113.007532 
L 413.443353 66.431948 
L 415.154379 87.132208 
L 416.865405 66.431948 
L 418.576431 56.081818 
L 420.287457 40.556623 
L 421.998483 71.607013 
L 423.709509 149.232987 
L 425.420535 66.431948 
L 427.131561 107.832468 
L 428.842587 76.782078 
L 430.553613 92.307273 
L 432.264639 76.782078 
L 433.975664 128.532727 
L 437.397716 149.232987 
L 439.108742 76.782078 
L 440.819768 102.657403 
L 442.530794 180.283377 
L 444.24182 45.731688 
L 445.952846 35.381558 
L 447.663872 61.256883 
L 449.374898 81.957143 
L 451.085924 56.081818 
L 452.79695 87.132208 
L 454.507976 71.607013 
L 456.219001 71.607013 
L 457.930027 123.357662 
L 459.641053 102.657403 
L 461.352079 45.731688 
L 463.063105 107.832468 
L 464.774131 138.882857 
L 466.485157 113.007532 
L 468.196183 92.307273 
L 469.907209 180.283377 
L 471.618235 35.381558 
L 473.329261 164.758182 
L 475.040287 159.583117 
L 476.751313 123.357662 
L 478.462338 180.283377 
L 480.173364 71.607013 
L 481.88439 66.431948 
L 483.595416 66.431948 
L 485.306442 71.607013 
L 487.017468 81.957143 
L 488.728494 50.906753 
L 490.43952 87.132208 
L 492.150546 66.431948 
L 493.861572 118.182597 
L 495.572598 113.007532 
L 497.283624 123.357662 
L 498.99465 81.957143 
L 500.705675 35.381558 
L 504.127727 97.482338 
L 504.127727 97.482338 
" clip-path="url(#p3c8362100c)" style="fill: none; stroke: #235996; stroke-width: 0.8; stroke-linecap: square"/>
   </g>
   <g id="patch_7">
    <path d="M 56.78 210.04 
L 56.78 10.8 
" style="fill: none; stroke: #000000; stroke-width: 0.8; stroke-linejoin: miter; stroke-linecap: square"/>
   </g>
   <g id="patch_8">
    <path d="M 525.43 210.04 
L 525.43 10.8 
" style="fill: none; stroke: #000000; stroke-width: 0.8; stroke-linejoin: miter; stroke-linecap: square"/>
   </g>
   <g id="patch_9">
    <path d="M 56.78 210.04 
L 525.43 210.04 
" style="fill: none; stroke: #000000; stroke-width: 0.8; stroke-linejoin: miter; stroke-linecap: square"/>
   </g>
   <g id="patch_10">
    <path d="M 56.78 10.8 
L 525.43 10.8 
" style="fill: none; stroke: #000000; stroke-width: 0.8; stroke-linejoin: miter; stroke-linecap: square"/>
   </g>
   <g id="legend_1">
    <g id="patch_11">
     <path d="M 150.494625 43.4565 
L 431.715375 43.4565 
Q 434.595375 43.4565 434.595375 40.5765 
L 434.595375 20.88 
Q 434.595375 18 431.715375 18 
L 150.494625 18 
Q 147.614625 18 147.614625 20.88 
L 147.614625 40.5765 
Q 147.614625 43.4565 150.494625 43.4565 
z
" style="fill: #ffffff; opacity: 0.8; stroke: #000000; stroke-linejoin: miter"/>
    </g>
    <g id="line2d_22">
     <path d="M 153.374625 29.66175 
L 167.774625 29.66175 
L 182.174625 29.66175 
" style="fill: none; stroke: #99004d; stroke-width: 0.8; stroke-linecap: square"/>
    </g>
    <g id="text_23">
     <text style="font: 14.4px 'DejaVu Sans', 'Bitstream Vera Sans', 'Computer Modern Sans Serif', 'Lucida Grande', 'Verdana', 'Geneva', 'Lucid', 'Arial', 'Helvetica', 'Avant Garde', sans-serif; text-anchor: start" x="193.694625" y="34.70175" transform="rotate(-0 193.694625 34.70175)">power</text>
    </g>
    <g id="line2d_23">
     <path d="M 267.004125 29.66175 
L 281.404125 29.66175 
L 295.804125 29.66175 
" style="fill: none; stroke: #235996; stroke-width: 0.8; stroke-linecap: square"/>
    </g>
    <g id="text_24">
     <text style="font: 14.4px 'DejaVu Sans', 'Bitstream Vera Sans', 'Computer Modern Sans Serif', 'Lucida Grande', 'Verdana', 'Geneva', 'Lucid', 'Arial', 'Helvetica', 'Avant Garde', sans-serif; text-anchor: start" x="307.324125" y="34.70175" transform="rotate(-0 307.324125 34.70175)">hw(rs1)+hw(rs2)</text>
    </g>
   </g>
  </g>
 </g>
 <defs>
  <clipPath id="p3c8362100c">
   <rect x="56.78" y="10.8" width="468.65" height="199.24"/>
  </clipPath>
 </defs>
</svg>
