<?xml version="1.0" encoding="utf-8" standalone="no"?>
<!DOCTYPE svg PUBLIC "-//W3C//DTD SVG 1.1//EN"
  "http://www.w3.org/Graphics/SVG/1.1/DTD/svg11.dtd">
<svg xmlns:xlink="http://www.w3.org/1999/xlink" width="576pt" height="252pt" viewBox="0 0 576 252" xmlns="http://www.w3.org/2000/svg" version="1.1">
 <metadata>
  <rdf:RDF xmlns:dc="http://purl.org/dc/elements/1.1/" xmlns:cc="http://creativecommons.org/ns#" xmlns:rdf="http://www.w3.org/1999/02/22-rdf-syntax-ns#">
   <cc:Work>
    <dc:type rdf:resource="http://purl.org/dc/dcmitype/StillImage"/>
    <dc:date>2023-12-06T19:16:33.265472</dc:date>
    <dc:format>image/svg+xml</dc:format>
    <dc:creator>
     <cc:Agent>
      <dc:title>Matplotlib v3.7.4, https://matplotlib.org/</dc:title>
     </cc:Agent>
    </dc:creator>
   </cc:Work>
  </rdf:RDF>
 </metadata>
 <defs>
  <style type="text/css">*{stroke-linejoin: round; stroke-linecap: butt}</style>
 </defs>
 <g id="figure_1">
  <g id="patch_1">
   <path d="M 0 252 
L 576 252 
L 576 0 
L 0 0 
z
" style="fill: #ffffff"/>
  </g>
  <g id="axes_1">
   <g id="patch_2">
    <path d="M 56.78 210.04 
L 525.43 210.04 
L 525.43 10.8 
L 56.78 10.8 
z
" style="fill: #ffffff"/>
   </g>
   <g id="matplotlib.axis_1">
    <g id="xtick_1">
     <g id="line2d_1">
      <defs>
       <path id="m932e174995" d="M 0 0 
L 0 3.5 
" style="stroke: #000000; stroke-width: 0.8"/>
      </defs>
      <g>
       <use xlink:href="#m932e174995" x="78.082273" y="210.04" style="stroke: #000000; stroke-width: 0.8"/>
      </g>
     </g>
     <g id="text_1">
      <text style="font: 10px 'DejaVu Sans', 'Bitstream Vera Sans', 'Computer Modern Sans Serif', 'Lucida Grande', 'Verdana', 'Geneva', 'Lucid', 'Arial', 'Helvetica', 'Avant Garde', sans-serif; text-anchor: middle" x="78.082273" y="224.638438" transform="rotate(-0 78.082273 224.638438)">0</text>
     </g>
    </g>
    <g id="xtick_2">
     <g id="line2d_2">
      <g>
       <use xlink:href="#m932e174995" x="163.633569" y="210.04" style="stroke: #000000; stroke-width: 0.8"/>
      </g>
     </g>
     <g id="text_2">
      <text style="font: 10px 'DejaVu Sans', 'Bitstream Vera Sans', 'Computer Modern Sans Serif', 'Lucida Grande', 'Verdana', 'Geneva', 'Lucid', 'Arial', 'Helvetica', 'Avant Garde', sans-serif; text-anchor: middle" x="163.633569" y="224.638438" transform="rotate(-0 163.633569 224.638438)">50</text>
     </g>
    </g>
    <g id="xtick_3">
     <g id="line2d_3">
      <g>
       <use xlink:href="#m932e174995" x="249.184865" y="210.04" style="stroke: #000000; stroke-width: 0.8"/>
      </g>
     </g>
     <g id="text_3">
      <text style="font: 10px 'DejaVu Sans', 'Bitstream Vera Sans', 'Computer Modern Sans Serif', 'Lucida Grande', 'Verdana', 'Geneva', 'Lucid', 'Arial', 'Helvetica', 'Avant Garde', sans-serif; text-anchor: middle" x="249.184865" y="224.638438" transform="rotate(-0 249.184865 224.638438)">100</text>
     </g>
    </g>
    <g id="xtick_4">
     <g id="line2d_4">
      <g>
       <use xlink:href="#m932e174995" x="334.736161" y="210.04" style="stroke: #000000; stroke-width: 0.8"/>
      </g>
     </g>
     <g id="text_4">
      <text style="font: 10px 'DejaVu Sans', 'Bitstream Vera Sans', 'Computer Modern Sans Serif', 'Lucida Grande', 'Verdana', 'Geneva', 'Lucid', 'Arial', 'Helvetica', 'Avant Garde', sans-serif; text-anchor: middle" x="334.736161" y="224.638438" transform="rotate(-0 334.736161 224.638438)">150</text>
     </g>
    </g>
    <g id="xtick_5">
     <g id="line2d_5">
      <g>
       <use xlink:href="#m932e174995" x="420.287457" y="210.04" style="stroke: #000000; stroke-width: 0.8"/>
      </g>
     </g>
     <g id="text_5">
      <text style="font: 10px 'DejaVu Sans', 'Bitstream Vera Sans', 'Computer Modern Sans Serif', 'Lucida Grande', 'Verdana', 'Geneva', 'Lucid', 'Arial', 'Helvetica', 'Avant Garde', sans-serif; text-anchor: middle" x="420.287457" y="224.638438" transform="rotate(-0 420.287457 224.638438)">200</text>
     </g>
    </g>
    <g id="xtick_6">
     <g id="line2d_6">
      <g>
       <use xlink:href="#m932e174995" x="505.838753" y="210.04" style="stroke: #000000; stroke-width: 0.8"/>
      </g>
     </g>
     <g id="text_6">
      <text style="font: 10px 'DejaVu Sans', 'Bitstream Vera Sans', 'Computer Modern Sans Serif', 'Lucida Grande', 'Verdana', 'Geneva', 'Lucid', 'Arial', 'Helvetica', 'Avant Garde', sans-serif; text-anchor: middle" x="505.838753" y="224.638438" transform="rotate(-0 505.838753 224.638438)">250</text>
     </g>
    </g>
    <g id="text_7">
     <text style="font: 10px 'DejaVu Sans', 'Bitstream Vera Sans', 'Computer Modern Sans Serif', 'Lucida Grande', 'Verdana', 'Geneva', 'Lucid', 'Arial', 'Helvetica', 'Avant Garde', sans-serif; text-anchor: middle" x="291.105" y="238.316563" transform="rotate(-0 291.105 238.316563)">Cycles</text>
    </g>
   </g>
   <g id="matplotlib.axis_2">
    <g id="ytick_1">
     <g id="line2d_7">
      <defs>
       <path id="m774ce93001" d="M 0 0 
L -3.5 0 
" style="stroke: #000000; stroke-width: 0.8"/>
      </defs>
      <g>
       <use xlink:href="#m774ce93001" x="56.78" y="200.329747" style="stroke: #000000; stroke-width: 0.8"/>
      </g>
     </g>
     <g id="text_8">
      <text style="font: 10px 'DejaVu Sans', 'Bitstream Vera Sans', 'Computer Modern Sans Serif', 'Lucida Grande', 'Verdana', 'Geneva', 'Lucid', 'Arial', 'Helvetica', 'Avant Garde', sans-serif; text-anchor: end" x="49.78" y="204.128966" transform="rotate(-0 49.78 204.128966)">200</text>
     </g>
    </g>
    <g id="ytick_2">
     <g id="line2d_8">
      <g>
       <use xlink:href="#m774ce93001" x="56.78" y="167.635294" style="stroke: #000000; stroke-width: 0.8"/>
      </g>
     </g>
     <g id="text_9">
      <text style="font: 10px 'DejaVu Sans', 'Bitstream Vera Sans', 'Computer Modern Sans Serif', 'Lucida Grande', 'Verdana', 'Geneva', 'Lucid', 'Arial', 'Helvetica', 'Avant Garde', sans-serif; text-anchor: end" x="49.78" y="171.434512" transform="rotate(-0 49.78 171.434512)">250</text>
     </g>
    </g>
    <g id="ytick_3">
     <g id="line2d_9">
      <g>
       <use xlink:href="#m774ce93001" x="56.78" y="134.94084" style="stroke: #000000; stroke-width: 0.8"/>
      </g>
     </g>
     <g id="text_10">
      <text style="font: 10px 'DejaVu Sans', 'Bitstream Vera Sans', 'Computer Modern Sans Serif', 'Lucida Grande', 'Verdana', 'Geneva', 'Lucid', 'Arial', 'Helvetica', 'Avant Garde', sans-serif; text-anchor: end" x="49.78" y="138.740059" transform="rotate(-0 49.78 138.740059)">300</text>
     </g>
    </g>
    <g id="ytick_4">
     <g id="line2d_10">
      <g>
       <use xlink:href="#m774ce93001" x="56.78" y="102.246387" style="stroke: #000000; stroke-width: 0.8"/>
      </g>
     </g>
     <g id="text_11">
      <text style="font: 10px 'DejaVu Sans', 'Bitstream Vera Sans', 'Computer Modern Sans Serif', 'Lucida Grande', 'Verdana', 'Geneva', 'Lucid', 'Arial', 'Helvetica', 'Avant Garde', sans-serif; text-anchor: end" x="49.78" y="106.045605" transform="rotate(-0 49.78 106.045605)">350</text>
     </g>
    </g>
    <g id="ytick_5">
     <g id="line2d_11">
      <g>
       <use xlink:href="#m774ce93001" x="56.78" y="69.551933" style="stroke: #000000; stroke-width: 0.8"/>
      </g>
     </g>
     <g id="text_12">
      <text style="font: 10px 'DejaVu Sans', 'Bitstream Vera Sans', 'Computer Modern Sans Serif', 'Lucida Grande', 'Verdana', 'Geneva', 'Lucid', 'Arial', 'Helvetica', 'Avant Garde', sans-serif; text-anchor: end" x="49.78" y="73.351152" transform="rotate(-0 49.78 73.351152)">400</text>
     </g>
    </g>
    <g id="ytick_6">
     <g id="line2d_12">
      <g>
       <use xlink:href="#m774ce93001" x="56.78" y="36.857479" style="stroke: #000000; stroke-width: 0.8"/>
      </g>
     </g>
     <g id="text_13">
      <text style="font: 10px 'DejaVu Sans', 'Bitstream Vera Sans', 'Computer Modern Sans Serif', 'Lucida Grande', 'Verdana', 'Geneva', 'Lucid', 'Arial', 'Helvetica', 'Avant Garde', sans-serif; text-anchor: end" x="49.78" y="40.656698" transform="rotate(-0 49.78 40.656698)">450</text>
     </g>
    </g>
    <g id="text_14">
     <text style="font: 10px 'DejaVu Sans', 'Bitstream Vera Sans', 'Computer Modern Sans Serif', 'Lucida Grande', 'Verdana', 'Geneva', 'Lucid', 'Arial', 'Helvetica', 'Avant Garde', sans-serif; text-anchor: middle" x="18.612812" y="110.42" transform="rotate(-90 18.612812 110.42)">power (uW)</text>
    </g>
   </g>
   <g id="line2d_13">
    <path d="M 78.082273 82.629714 
L 79.793299 89.168605 
L 81.504325 91.130272 
L 83.21535 64.32082 
L 84.926376 165.019737 
L 86.637402 58.435819 
L 88.348428 85.89916 
L 90.059454 40.780814 
L 91.77048 87.206938 
L 93.481506 77.398602 
L 95.192532 121.863059 
L 96.903558 123.170837 
L 98.614584 104.861943 
L 100.32561 95.707496 
L 102.036636 30.972478 
L 103.747662 106.82361 
L 105.458687 53.858595 
L 107.169713 85.245271 
L 108.880739 55.820263 
L 110.591765 102.900276 
L 112.302791 74.783046 
L 114.013817 85.89916 
L 115.724843 41.434703 
L 117.435869 94.399718 
L 119.146895 76.744713 
L 120.857921 110.093055 
L 122.568947 100.284719 
L 124.279973 140.825842 
L 125.990999 72.167489 
L 127.702024 25.741365 
L 129.41305 104.861943 
L 131.124076 93.09194 
L 132.835102 36.857479 
L 134.546128 92.438051 
L 136.257154 51.243039 
L 137.96818 47.973594 
L 139.679206 80.014158 
L 141.390232 102.246387 
L 143.101258 85.89916 
L 144.812284 82.629714 
L 146.52331 105.515832 
L 148.234336 67.590266 
L 149.945361 77.398602 
L 151.656387 45.358037 
L 153.367413 126.440282 
L 155.078439 115.978057 
L 156.789465 164.365848 
L 158.500491 149.3264 
L 160.211517 76.744713 
L 161.922543 104.208054 
L 163.633569 102.900276 
L 165.344595 63.013042 
L 167.055621 172.212517 
L 168.766647 23.125809 
L 170.477673 76.090824 
L 172.188698 90.476383 
L 173.899724 99.63083 
L 175.61075 52.550817 
L 177.321776 144.095287 
L 179.032802 90.476383 
L 180.743828 81.975825 
L 182.454854 27.049143 
L 184.16588 75.436935 
L 185.876906 78.052491 
L 187.587932 135.594729 
L 189.298958 68.244155 
L 191.009984 169.596961 
L 192.721009 81.321936 
L 194.432035 99.63083 
L 196.143061 131.017506 
L 197.854087 59.743597 
L 199.565113 152.595845 
L 201.276139 146.056954 
L 204.698191 28.356922 
L 206.409217 76.090824 
L 208.120243 132.325284 
L 209.831269 72.821378 
L 211.542295 122.516948 
L 213.253321 40.780814 
L 214.964346 83.937493 
L 216.675372 76.744713 
L 218.386398 43.39637 
L 220.097424 82.629714 
L 221.80845 85.245271 
L 223.519476 57.78193 
L 225.230502 89.822494 
L 226.941528 93.745829 
L 228.652554 99.63083 
L 230.36358 125.132504 
L 232.074606 106.169721 
L 233.785632 200.983636 
L 235.496658 113.362501 
L 237.207683 99.63083 
L 238.918709 47.319705 
L 240.629735 44.050259 
L 242.340761 61.705264 
L 244.051787 47.319705 
L 245.762813 80.668047 
L 247.473839 153.249734 
L 249.184865 144.749176 
L 250.895891 42.742481 
L 252.606917 167.635294 
L 254.317943 57.78193 
L 256.028969 166.981405 
L 257.739995 79.360269 
L 259.45102 102.246387 
L 261.162046 50.58915 
L 262.873072 81.975825 
L 264.584098 75.436935 
L 266.295124 78.70638 
L 268.00615 159.134736 
L 269.717176 64.97471 
L 271.428202 127.74806 
L 273.139228 86.553049 
L 274.850254 57.78193 
L 276.56128 164.365848 
L 278.272306 165.019737 
L 281.694357 33.588034 
L 283.405383 70.205822 
L 285.116409 167.635294 
L 286.827435 110.746945 
L 288.538461 91.784161 
L 290.249487 98.323052 
L 291.960513 47.973594 
L 293.671539 80.668047 
L 295.382565 146.710843 
L 297.093591 74.783046 
L 298.804617 90.476383 
L 300.515643 65.628599 
L 302.226668 109.439166 
L 303.937694 61.705264 
L 305.64872 87.860827 
L 307.359746 35.549701 
L 309.070772 53.858595 
L 310.781798 91.130272 
L 312.492824 58.435819 
L 315.914876 94.399718 
L 317.625902 78.052491 
L 319.336928 79.360269 
L 321.047954 156.51918 
L 322.75898 99.63083 
L 324.470005 88.514716 
L 326.181031 136.902507 
L 327.892057 121.863059 
L 329.603083 61.705264 
L 331.314109 89.168605 
L 333.025135 114.01639 
L 334.736161 74.129157 
L 336.447187 55.166373 
L 338.158213 24.433587 
L 339.869239 87.206938 
L 341.580265 47.973594 
L 343.291291 123.824726 
L 345.002317 83.283604 
L 346.713342 77.398602 
L 348.424368 76.744713 
L 350.135394 94.399718 
L 351.84642 87.860827 
L 353.557446 56.474152 
L 355.268472 85.89916 
L 356.979498 59.743597 
L 358.690524 74.129157 
L 360.40155 42.088592 
L 362.112576 48.627483 
L 363.823602 125.132504 
L 365.534628 46.011926 
L 367.245654 81.975825 
L 368.956679 147.364733 
L 370.667705 65.628599 
L 372.378731 144.095287 
L 374.089757 71.5136 
L 375.800783 161.096403 
L 377.511809 97.669163 
L 379.222835 84.591382 
L 380.933861 79.360269 
L 382.644887 90.476383 
L 384.355913 41.434703 
L 386.066939 96.361385 
L 387.777965 107.477499 
L 389.488991 84.591382 
L 391.200016 104.861943 
L 392.911042 31.626367 
L 394.622068 81.975825 
L 396.333094 108.785277 
L 398.04412 83.283604 
L 399.755146 53.858595 
L 401.466172 130.363617 
L 403.177198 40.780814 
L 404.888224 117.285835 
L 406.59925 61.705264 
L 408.310276 158.480847 
L 410.021302 53.858595 
L 411.732327 118.593613 
L 413.443353 104.208054 
L 415.154379 60.397486 
L 416.865405 83.283604 
L 418.576431 44.704148 
L 420.287457 168.289183 
L 421.998483 109.439166 
L 423.709509 145.403065 
L 425.420535 135.594729 
L 427.131561 83.937493 
L 428.842587 36.20359 
L 430.553613 63.666931 
L 432.264639 159.134736 
L 433.975664 97.669163 
L 435.68669 89.822494 
L 437.397716 115.324168 
L 439.108742 19.856364 
L 440.819768 52.550817 
L 442.530794 71.5136 
L 444.24182 99.63083 
L 445.952846 55.820263 
L 447.663872 104.208054 
L 449.374898 80.014158 
L 451.085924 58.435819 
L 452.79695 70.205822 
L 454.507976 171.558628 
L 456.219001 106.82361 
L 457.930027 144.749176 
L 459.641053 86.553049 
L 461.352079 148.672511 
L 463.063105 129.055839 
L 464.774131 38.165258 
L 466.485157 78.052491 
L 468.196183 78.052491 
L 469.907209 69.551933 
L 471.618235 41.434703 
L 473.329261 98.323052 
L 475.040287 27.703032 
L 476.751313 109.439166 
L 478.462338 63.013042 
L 480.173364 152.595845 
L 481.88439 72.167489 
L 483.595416 30.318589 
L 485.306442 104.208054 
L 487.017468 55.820263 
L 488.728494 196.406413 
L 490.43952 76.090824 
L 492.150546 27.703032 
L 493.861572 93.745829 
L 495.572598 55.820263 
L 497.283624 130.363617 
L 498.99465 154.557512 
L 500.705675 151.288067 
L 502.416701 136.902507 
L 504.127727 62.359153 
L 504.127727 62.359153 
" clip-path="url(#pe5b841ac60)" style="fill: none; stroke: #99004d; stroke-width: 0.8; stroke-linecap: square"/>
   </g>
   <g id="patch_3">
    <path d="M 56.78 210.04 
L 56.78 10.8 
" style="fill: none; stroke: #000000; stroke-width: 0.8; stroke-linejoin: miter; stroke-linecap: square"/>
   </g>
   <g id="patch_4">
    <path d="M 525.43 210.04 
L 525.43 10.8 
" style="fill: none; stroke: #000000; stroke-width: 0.8; stroke-linejoin: miter; stroke-linecap: square"/>
   </g>
   <g id="patch_5">
    <path d="M 56.78 210.04 
L 525.43 210.04 
" style="fill: none; stroke: #000000; stroke-width: 0.8; stroke-linejoin: miter; stroke-linecap: square"/>
   </g>
   <g id="patch_6">
    <path d="M 56.78 10.8 
L 525.43 10.8 
" style="fill: none; stroke: #000000; stroke-width: 0.8; stroke-linejoin: miter; stroke-linecap: square"/>
   </g>
  </g>
  <g id="axes_2">
   <g id="matplotlib.axis_3">
    <g id="ytick_7">
     <g id="line2d_14">
      <defs>
       <path id="m5b1fde094b" d="M 0 0 
L 3.5 0 
" style="stroke: #000000; stroke-width: 0.8"/>
      </defs>
      <g>
       <use xlink:href="#m5b1fde094b" x="525.43" y="185.001818" style="stroke: #000000; stroke-width: 0.8"/>
      </g>
     </g>
     <g id="text_15">
      <text style="font: 10px 'DejaVu Sans', 'Bitstream Vera Sans', 'Computer Modern Sans Serif', 'Lucida Grande', 'Verdana', 'Geneva', 'Lucid', 'Arial', 'Helvetica', 'Avant Garde', sans-serif; text-anchor: start" x="532.43" y="188.801037" transform="rotate(-0 532.43 188.801037)">5</text>
     </g>
    </g>
    <g id="ytick_8">
     <g id="line2d_15">
      <g>
       <use xlink:href="#m5b1fde094b" x="525.43" y="158.365455" style="stroke: #000000; stroke-width: 0.8"/>
      </g>
     </g>
     <g id="text_16">
      <text style="font: 10px 'DejaVu Sans', 'Bitstream Vera Sans', 'Computer Modern Sans Serif', 'Lucida Grande', 'Verdana', 'Geneva', 'Lucid', 'Arial', 'Helvetica', 'Avant Garde', sans-serif; text-anchor: start" x="532.43" y="162.164673" transform="rotate(-0 532.43 162.164673)">10</text>
     </g>
    </g>
    <g id="ytick_9">
     <g id="line2d_16">
      <g>
       <use xlink:href="#m5b1fde094b" x="525.43" y="131.729091" style="stroke: #000000; stroke-width: 0.8"/>
      </g>
     </g>
     <g id="text_17">
      <text style="font: 10px 'DejaVu Sans', 'Bitstream Vera Sans', 'Computer Modern Sans Serif', 'Lucida Grande', 'Verdana', 'Geneva', 'Lucid', 'Arial', 'Helvetica', 'Avant Garde', sans-serif; text-anchor: start" x="532.43" y="135.52831" transform="rotate(-0 532.43 135.52831)">15</text>
     </g>
    </g>
    <g id="ytick_10">
     <g id="line2d_17">
      <g>
       <use xlink:href="#m5b1fde094b" x="525.43" y="105.092727" style="stroke: #000000; stroke-width: 0.8"/>
      </g>
     </g>
     <g id="text_18">
      <text style="font: 10px 'DejaVu Sans', 'Bitstream Vera Sans', 'Computer Modern Sans Serif', 'Lucida Grande', 'Verdana', 'Geneva', 'Lucid', 'Arial', 'Helvetica', 'Avant Garde', sans-serif; text-anchor: start" x="532.43" y="108.891946" transform="rotate(-0 532.43 108.891946)">20</text>
     </g>
    </g>
    <g id="ytick_11">
     <g id="line2d_18">
      <g>
       <use xlink:href="#m5b1fde094b" x="525.43" y="78.456364" style="stroke: #000000; stroke-width: 0.8"/>
      </g>
     </g>
     <g id="text_19">
      <text style="font: 10px 'DejaVu Sans', 'Bitstream Vera Sans', 'Computer Modern Sans Serif', 'Lucida Grande', 'Verdana', 'Geneva', 'Lucid', 'Arial', 'Helvetica', 'Avant Garde', sans-serif; text-anchor: start" x="532.43" y="82.255582" transform="rotate(-0 532.43 82.255582)">25</text>
     </g>
    </g>
    <g id="ytick_12">
     <g id="line2d_19">
      <g>
       <use xlink:href="#m5b1fde094b" x="525.43" y="51.82" style="stroke: #000000; stroke-width: 0.8"/>
      </g>
     </g>
     <g id="text_20">
      <text style="font: 10px 'DejaVu Sans', 'Bitstream Vera Sans', 'Computer Modern Sans Serif', 'Lucida Grande', 'Verdana', 'Geneva', 'Lucid', 'Arial', 'Helvetica', 'Avant Garde', sans-serif; text-anchor: start" x="532.43" y="55.619219" transform="rotate(-0 532.43 55.619219)">30</text>
     </g>
    </g>
    <g id="ytick_13">
     <g id="line2d_20">
      <g>
       <use xlink:href="#m5b1fde094b" x="525.43" y="25.183636" style="stroke: #000000; stroke-width: 0.8"/>
      </g>
     </g>
     <g id="text_21">
      <text style="font: 10px 'DejaVu Sans', 'Bitstream Vera Sans', 'Computer Modern Sans Serif', 'Lucida Grande', 'Verdana', 'Geneva', 'Lucid', 'Arial', 'Helvetica', 'Avant Garde', sans-serif; text-anchor: start" x="532.43" y="28.982855" transform="rotate(-0 532.43 28.982855)">35</text>
     </g>
    </g>
    <g id="text_22">
     <text style="font: 10px 'DejaVu Sans', 'Bitstream Vera Sans', 'Computer Modern Sans Serif', 'Lucida Grande', 'Verdana', 'Geneva', 'Lucid', 'Arial', 'Helvetica', 'Avant Garde', sans-serif; text-anchor: middle" x="562.753438" y="110.42" transform="rotate(-90 562.753438 110.42)">hw(data)</text>
    </g>
   </g>
   <g id="line2d_21">
    <path d="M 78.082273 46.492727 
L 79.793299 110.42 
L 81.504325 137.056364 
L 83.21535 78.456364 
L 84.926376 190.329091 
L 86.637402 41.165455 
L 88.348428 115.747273 
L 90.059454 131.729091 
L 91.77048 131.729091 
L 93.481506 67.801818 
L 95.192532 126.401818 
L 96.903558 105.092727 
L 98.614584 147.710909 
L 100.32561 158.365455 
L 102.036636 62.474545 
L 103.747662 158.365455 
L 105.458687 142.383636 
L 107.169713 83.783636 
L 108.880739 67.801818 
L 110.591765 179.674545 
L 112.302791 99.765455 
L 114.013817 67.801818 
L 115.724843 57.147273 
L 117.435869 142.383636 
L 119.146895 73.129091 
L 120.857921 110.42 
L 122.568947 110.42 
L 124.279973 105.092727 
L 125.990999 83.783636 
L 127.702024 94.438182 
L 129.41305 115.747273 
L 131.124076 105.092727 
L 132.835102 105.092727 
L 134.546128 110.42 
L 136.257154 57.147273 
L 137.96818 73.129091 
L 139.679206 94.438182 
L 141.390232 110.42 
L 143.101258 51.82 
L 146.52331 105.092727 
L 148.234336 78.456364 
L 149.945361 41.165455 
L 151.656387 41.165455 
L 155.078439 126.401818 
L 156.789465 121.074545 
L 158.500491 110.42 
L 160.211517 163.692727 
L 161.922543 142.383636 
L 163.633569 126.401818 
L 165.344595 115.747273 
L 167.055621 131.729091 
L 168.766647 30.510909 
L 172.188698 51.82 
L 173.899724 153.038182 
L 175.61075 35.838182 
L 177.321776 142.383636 
L 179.032802 126.401818 
L 180.743828 94.438182 
L 182.454854 89.110909 
L 184.16588 94.438182 
L 185.876906 73.129091 
L 187.587932 105.092727 
L 189.298958 110.42 
L 191.009984 137.056364 
L 192.721009 137.056364 
L 194.432035 142.383636 
L 196.143061 131.729091 
L 197.854087 78.456364 
L 199.565113 121.074545 
L 201.276139 105.092727 
L 202.987165 41.165455 
L 204.698191 25.183636 
L 206.409217 115.747273 
L 208.120243 131.729091 
L 209.831269 51.82 
L 211.542295 169.02 
L 213.253321 35.838182 
L 214.964346 89.110909 
L 216.675372 110.42 
L 218.386398 110.42 
L 220.097424 105.092727 
L 221.80845 94.438182 
L 223.519476 62.474545 
L 225.230502 94.438182 
L 226.941528 142.383636 
L 228.652554 158.365455 
L 230.36358 89.110909 
L 232.074606 158.365455 
L 233.785632 200.983636 
L 235.496658 115.747273 
L 237.207683 147.710909 
L 238.918709 46.492727 
L 240.629735 83.783636 
L 242.340761 115.747273 
L 244.051787 41.165455 
L 245.762813 110.42 
L 247.473839 105.092727 
L 249.184865 110.42 
L 250.895891 46.492727 
L 252.606917 115.747273 
L 254.317943 99.765455 
L 256.028969 185.001818 
L 257.739995 110.42 
L 259.45102 174.347273 
L 261.162046 126.401818 
L 262.873072 94.438182 
L 264.584098 25.183636 
L 266.295124 153.038182 
L 268.00615 169.02 
L 269.717176 62.474545 
L 271.428202 73.129091 
L 273.139228 115.747273 
L 274.850254 30.510909 
L 276.56128 142.383636 
L 278.272306 195.656364 
L 279.983332 110.42 
L 281.694357 105.092727 
L 283.405383 46.492727 
L 285.116409 174.347273 
L 286.827435 115.747273 
L 288.538461 131.729091 
L 290.249487 67.801818 
L 291.960513 41.165455 
L 293.671539 115.747273 
L 295.382565 126.401818 
L 297.093591 51.82 
L 298.804617 137.056364 
L 300.515643 121.074545 
L 302.226668 131.729091 
L 303.937694 89.110909 
L 305.64872 67.801818 
L 307.359746 78.456364 
L 309.070772 67.801818 
L 310.781798 147.710909 
L 314.20385 94.438182 
L 315.914876 41.165455 
L 317.625902 30.510909 
L 319.336928 137.056364 
L 321.047954 153.038182 
L 322.75898 89.110909 
L 324.470005 105.092727 
L 326.181031 83.783636 
L 327.892057 153.038182 
L 329.603083 121.074545 
L 331.314109 78.456364 
L 333.025135 142.383636 
L 334.736161 105.092727 
L 336.447187 94.438182 
L 338.158213 57.147273 
L 339.869239 73.129091 
L 343.291291 73.129091 
L 345.002317 99.765455 
L 346.713342 67.801818 
L 348.424368 57.147273 
L 350.135394 163.692727 
L 351.84642 99.765455 
L 353.557446 99.765455 
L 355.268472 41.165455 
L 356.979498 78.456364 
L 358.690524 57.147273 
L 360.40155 94.438182 
L 362.112576 83.783636 
L 363.823602 131.729091 
L 365.534628 57.147273 
L 368.956679 121.074545 
L 370.667705 51.82 
L 372.378731 105.092727 
L 374.089757 110.42 
L 375.800783 169.02 
L 377.511809 163.692727 
L 379.222835 67.801818 
L 380.933861 83.783636 
L 384.355913 83.783636 
L 386.066939 46.492727 
L 387.777965 110.42 
L 389.488991 73.129091 
L 391.200016 78.456364 
L 392.911042 19.856364 
L 394.622068 137.056364 
L 396.333094 142.383636 
L 398.04412 110.42 
L 399.755146 41.165455 
L 401.466172 153.038182 
L 403.177198 110.42 
L 404.888224 142.383636 
L 406.59925 67.801818 
L 408.310276 147.710909 
L 410.021302 41.165455 
L 411.732327 126.401818 
L 413.443353 94.438182 
L 415.154379 89.110909 
L 416.865405 78.456364 
L 418.576431 30.510909 
L 420.287457 179.674545 
L 421.998483 158.365455 
L 423.709509 99.765455 
L 425.420535 51.82 
L 427.131561 73.129091 
L 428.842587 62.474545 
L 430.553613 89.110909 
L 432.264639 137.056364 
L 433.975664 94.438182 
L 435.68669 137.056364 
L 439.108742 51.82 
L 440.819768 73.129091 
L 442.530794 46.492727 
L 444.24182 73.129091 
L 445.952846 51.82 
L 447.663872 153.038182 
L 449.374898 67.801818 
L 451.085924 41.165455 
L 452.79695 30.510909 
L 454.507976 121.074545 
L 456.219001 67.801818 
L 457.930027 115.747273 
L 459.641053 169.02 
L 461.352079 115.747273 
L 463.063105 121.074545 
L 464.774131 25.183636 
L 466.485157 78.456364 
L 468.196183 57.147273 
L 469.907209 46.492727 
L 471.618235 89.110909 
L 473.329261 105.092727 
L 475.040287 83.783636 
L 476.751313 73.129091 
L 478.462338 89.110909 
L 480.173364 163.692727 
L 481.88439 67.801818 
L 483.595416 51.82 
L 485.306442 73.129091 
L 487.017468 35.838182 
L 488.728494 195.656364 
L 490.43952 105.092727 
L 492.150546 41.165455 
L 493.861572 78.456364 
L 495.572598 99.765455 
L 497.283624 89.110909 
L 498.99465 147.710909 
L 500.705675 115.747273 
L 502.416701 169.02 
L 504.127727 83.783636 
L 504.127727 83.783636 
" clip-path="url(#pe5b841ac60)" style="fill: none; stroke: #235996; stroke-width: 0.8; stroke-linecap: square"/>
   </g>
   <g id="patch_7">
    <path d="M 56.78 210.04 
L 56.78 10.8 
" style="fill: none; stroke: #000000; stroke-width: 0.8; stroke-linejoin: miter; stroke-linecap: square"/>
   </g>
   <g id="patch_8">
    <path d="M 525.43 210.04 
L 525.43 10.8 
" style="fill: none; stroke: #000000; stroke-width: 0.8; stroke-linejoin: miter; stroke-linecap: square"/>
   </g>
   <g id="patch_9">
    <path d="M 56.78 210.04 
L 525.43 210.04 
" style="fill: none; stroke: #000000; stroke-width: 0.8; stroke-linejoin: miter; stroke-linecap: square"/>
   </g>
   <g id="patch_10">
    <path d="M 56.78 10.8 
L 525.43 10.8 
" style="fill: none; stroke: #000000; stroke-width: 0.8; stroke-linejoin: miter; stroke-linecap: square"/>
   </g>
   <g id="legend_1">
    <g id="patch_11">
     <path d="M 150.494625 43.4565 
L 431.715375 43.4565 
Q 434.595375 43.4565 434.595375 40.5765 
L 434.595375 20.88 
Q 434.595375 18 431.715375 18 
L 150.494625 18 
Q 147.614625 18 147.614625 20.88 
L 147.614625 40.5765 
Q 147.614625 43.4565 150.494625 43.4565 
z
" style="fill: #ffffff; opacity: 0.8; stroke: #000000; stroke-linejoin: miter"/>
    </g>
    <g id="line2d_22">
     <path d="M 153.374625 29.66175 
L 167.774625 29.66175 
L 182.174625 29.66175 
" style="fill: none; stroke: #99004d; stroke-width: 0.8; stroke-linecap: square"/>
    </g>
    <g id="text_23">
     <text style="font: 14.4px 'DejaVu Sans', 'Bitstream Vera Sans', 'Computer Modern Sans Serif', 'Lucida Grande', 'Verdana', 'Geneva', 'Lucid', 'Arial', 'Helvetica', 'Avant Garde', sans-serif; text-anchor: start" x="193.694625" y="34.70175" transform="rotate(-0 193.694625 34.70175)">power</text>
    </g>
    <g id="line2d_23">
     <path d="M 267.004125 29.66175 
L 281.404125 29.66175 
L 295.804125 29.66175 
" style="fill: none; stroke: #235996; stroke-width: 0.8; stroke-linecap: square"/>
    </g>
    <g id="text_24">
     <text style="font: 14.4px 'DejaVu Sans', 'Bitstream Vera Sans', 'Computer Modern Sans Serif', 'Lucida Grande', 'Verdana', 'Geneva', 'Lucid', 'Arial', 'Helvetica', 'Avant Garde', sans-serif; text-anchor: start" x="307.324125" y="34.70175" transform="rotate(-0 307.324125 34.70175)">hw(rs1)+hw(rs2)</text>
    </g>
   </g>
  </g>
 </g>
 <defs>
  <clipPath id="pe5b841ac60">
   <rect x="56.78" y="10.8" width="468.65" height="199.24"/>
  </clipPath>
 </defs>
</svg>
