<?xml version="1.0" encoding="utf-8" standalone="no"?>
<!DOCTYPE svg PUBLIC "-//W3C//DTD SVG 1.1//EN"
  "http://www.w3.org/Graphics/SVG/1.1/DTD/svg11.dtd">
<svg xmlns:xlink="http://www.w3.org/1999/xlink" width="576pt" height="252pt" viewBox="0 0 576 252" xmlns="http://www.w3.org/2000/svg" version="1.1">
 <metadata>
  <rdf:RDF xmlns:dc="http://purl.org/dc/elements/1.1/" xmlns:cc="http://creativecommons.org/ns#" xmlns:rdf="http://www.w3.org/1999/02/22-rdf-syntax-ns#">
   <cc:Work>
    <dc:type rdf:resource="http://purl.org/dc/dcmitype/StillImage"/>
    <dc:date>2023-11-26T17:37:50.323654</dc:date>
    <dc:format>image/svg+xml</dc:format>
    <dc:creator>
     <cc:Agent>
      <dc:title>Matplotlib v3.8.2, https://matplotlib.org/</dc:title>
     </cc:Agent>
    </dc:creator>
   </cc:Work>
  </rdf:RDF>
 </metadata>
 <defs>
  <style type="text/css">*{stroke-linejoin: round; stroke-linecap: butt}</style>
 </defs>
 <g id="figure_1">
  <g id="patch_1">
   <path d="M 0 252 
L 576 252 
L 576 0 
L 0 0 
z
" style="fill: #ffffff"/>
  </g>
  <g id="axes_1">
   <g id="patch_2">
    <path d="M 56.87 210.04 
L 525.43 210.04 
L 525.43 10.8 
L 56.87 10.8 
z
" style="fill: #ffffff"/>
   </g>
   <g id="matplotlib.axis_1">
    <g id="xtick_1">
     <g id="line2d_1">
      <defs>
       <path id="m52672853b7" d="M 0 0 
L 0 3.5 
" style="stroke: #000000; stroke-width: 0.8"/>
      </defs>
      <g>
       <use xlink:href="#m52672853b7" x="78.168182" y="210.04" style="stroke: #000000; stroke-width: 0.8"/>
      </g>
     </g>
     <g id="text_1">
      <text style="font: 10px 'DejaVu Sans', 'Bitstream Vera Sans', 'Computer Modern Sans Serif', 'Lucida Grande', 'Verdana', 'Geneva', 'Lucid', 'Arial', 'Helvetica', 'Avant Garde', sans-serif; text-anchor: middle" x="78.168182" y="224.638438" transform="rotate(-0 78.168182 224.638438)">0</text>
     </g>
    </g>
    <g id="xtick_2">
     <g id="line2d_2">
      <g>
       <use xlink:href="#m52672853b7" x="163.703049" y="210.04" style="stroke: #000000; stroke-width: 0.8"/>
      </g>
     </g>
     <g id="text_2">
      <text style="font: 10px 'DejaVu Sans', 'Bitstream Vera Sans', 'Computer Modern Sans Serif', 'Lucida Grande', 'Verdana', 'Geneva', 'Lucid', 'Arial', 'Helvetica', 'Avant Garde', sans-serif; text-anchor: middle" x="163.703049" y="224.638438" transform="rotate(-0 163.703049 224.638438)">50</text>
     </g>
    </g>
    <g id="xtick_3">
     <g id="line2d_3">
      <g>
       <use xlink:href="#m52672853b7" x="249.237915" y="210.04" style="stroke: #000000; stroke-width: 0.8"/>
      </g>
     </g>
     <g id="text_3">
      <text style="font: 10px 'DejaVu Sans', 'Bitstream Vera Sans', 'Computer Modern Sans Serif', 'Lucida Grande', 'Verdana', 'Geneva', 'Lucid', 'Arial', 'Helvetica', 'Avant Garde', sans-serif; text-anchor: middle" x="249.237915" y="224.638438" transform="rotate(-0 249.237915 224.638438)">100</text>
     </g>
    </g>
    <g id="xtick_4">
     <g id="line2d_4">
      <g>
       <use xlink:href="#m52672853b7" x="334.772782" y="210.04" style="stroke: #000000; stroke-width: 0.8"/>
      </g>
     </g>
     <g id="text_4">
      <text style="font: 10px 'DejaVu Sans', 'Bitstream Vera Sans', 'Computer Modern Sans Serif', 'Lucida Grande', 'Verdana', 'Geneva', 'Lucid', 'Arial', 'Helvetica', 'Avant Garde', sans-serif; text-anchor: middle" x="334.772782" y="224.638438" transform="rotate(-0 334.772782 224.638438)">150</text>
     </g>
    </g>
    <g id="xtick_5">
     <g id="line2d_5">
      <g>
       <use xlink:href="#m52672853b7" x="420.307649" y="210.04" style="stroke: #000000; stroke-width: 0.8"/>
      </g>
     </g>
     <g id="text_5">
      <text style="font: 10px 'DejaVu Sans', 'Bitstream Vera Sans', 'Computer Modern Sans Serif', 'Lucida Grande', 'Verdana', 'Geneva', 'Lucid', 'Arial', 'Helvetica', 'Avant Garde', sans-serif; text-anchor: middle" x="420.307649" y="224.638438" transform="rotate(-0 420.307649 224.638438)">200</text>
     </g>
    </g>
    <g id="xtick_6">
     <g id="line2d_6">
      <g>
       <use xlink:href="#m52672853b7" x="505.842516" y="210.04" style="stroke: #000000; stroke-width: 0.8"/>
      </g>
     </g>
     <g id="text_6">
      <text style="font: 10px 'DejaVu Sans', 'Bitstream Vera Sans', 'Computer Modern Sans Serif', 'Lucida Grande', 'Verdana', 'Geneva', 'Lucid', 'Arial', 'Helvetica', 'Avant Garde', sans-serif; text-anchor: middle" x="505.842516" y="224.638438" transform="rotate(-0 505.842516 224.638438)">250</text>
     </g>
    </g>
    <g id="text_7">
     <text style="font: 10px 'DejaVu Sans', 'Bitstream Vera Sans', 'Computer Modern Sans Serif', 'Lucida Grande', 'Verdana', 'Geneva', 'Lucid', 'Arial', 'Helvetica', 'Avant Garde', sans-serif; text-anchor: middle" x="291.15" y="238.316563" transform="rotate(-0 291.15 238.316563)">Cycles</text>
    </g>
   </g>
   <g id="matplotlib.axis_2">
    <g id="ytick_1">
     <g id="line2d_7">
      <defs>
       <path id="m59e0ffbf9d" d="M 0 0 
L -3.5 0 
" style="stroke: #000000; stroke-width: 0.8"/>
      </defs>
      <g>
       <use xlink:href="#m59e0ffbf9d" x="56.87" y="201.597627" style="stroke: #000000; stroke-width: 0.8"/>
      </g>
     </g>
     <g id="text_8">
      <text style="font: 10px 'DejaVu Sans', 'Bitstream Vera Sans', 'Computer Modern Sans Serif', 'Lucida Grande', 'Verdana', 'Geneva', 'Lucid', 'Arial', 'Helvetica', 'Avant Garde', sans-serif; text-anchor: end" x="49.87" y="205.396846" transform="rotate(-0 49.87 205.396846)">0</text>
     </g>
    </g>
    <g id="ytick_2">
     <g id="line2d_8">
      <g>
       <use xlink:href="#m59e0ffbf9d" x="56.87" y="170.898089" style="stroke: #000000; stroke-width: 0.8"/>
      </g>
     </g>
     <g id="text_9">
      <text style="font: 10px 'DejaVu Sans', 'Bitstream Vera Sans', 'Computer Modern Sans Serif', 'Lucida Grande', 'Verdana', 'Geneva', 'Lucid', 'Arial', 'Helvetica', 'Avant Garde', sans-serif; text-anchor: end" x="49.87" y="174.697308" transform="rotate(-0 49.87 174.697308)">50</text>
     </g>
    </g>
    <g id="ytick_3">
     <g id="line2d_9">
      <g>
       <use xlink:href="#m59e0ffbf9d" x="56.87" y="140.198552" style="stroke: #000000; stroke-width: 0.8"/>
      </g>
     </g>
     <g id="text_10">
      <text style="font: 10px 'DejaVu Sans', 'Bitstream Vera Sans', 'Computer Modern Sans Serif', 'Lucida Grande', 'Verdana', 'Geneva', 'Lucid', 'Arial', 'Helvetica', 'Avant Garde', sans-serif; text-anchor: end" x="49.87" y="143.99777" transform="rotate(-0 49.87 143.99777)">100</text>
     </g>
    </g>
    <g id="ytick_4">
     <g id="line2d_10">
      <g>
       <use xlink:href="#m59e0ffbf9d" x="56.87" y="109.499014" style="stroke: #000000; stroke-width: 0.8"/>
      </g>
     </g>
     <g id="text_11">
      <text style="font: 10px 'DejaVu Sans', 'Bitstream Vera Sans', 'Computer Modern Sans Serif', 'Lucida Grande', 'Verdana', 'Geneva', 'Lucid', 'Arial', 'Helvetica', 'Avant Garde', sans-serif; text-anchor: end" x="49.87" y="113.298233" transform="rotate(-0 49.87 113.298233)">150</text>
     </g>
    </g>
    <g id="ytick_5">
     <g id="line2d_11">
      <g>
       <use xlink:href="#m59e0ffbf9d" x="56.87" y="78.799476" style="stroke: #000000; stroke-width: 0.8"/>
      </g>
     </g>
     <g id="text_12">
      <text style="font: 10px 'DejaVu Sans', 'Bitstream Vera Sans', 'Computer Modern Sans Serif', 'Lucida Grande', 'Verdana', 'Geneva', 'Lucid', 'Arial', 'Helvetica', 'Avant Garde', sans-serif; text-anchor: end" x="49.87" y="82.598695" transform="rotate(-0 49.87 82.598695)">200</text>
     </g>
    </g>
    <g id="ytick_6">
     <g id="line2d_12">
      <g>
       <use xlink:href="#m59e0ffbf9d" x="56.87" y="48.099938" style="stroke: #000000; stroke-width: 0.8"/>
      </g>
     </g>
     <g id="text_13">
      <text style="font: 10px 'DejaVu Sans', 'Bitstream Vera Sans', 'Computer Modern Sans Serif', 'Lucida Grande', 'Verdana', 'Geneva', 'Lucid', 'Arial', 'Helvetica', 'Avant Garde', sans-serif; text-anchor: end" x="49.87" y="51.899157" transform="rotate(-0 49.87 51.899157)">250</text>
     </g>
    </g>
    <g id="ytick_7">
     <g id="line2d_13">
      <g>
       <use xlink:href="#m59e0ffbf9d" x="56.87" y="17.400401" style="stroke: #000000; stroke-width: 0.8"/>
      </g>
     </g>
     <g id="text_14">
      <text style="font: 10px 'DejaVu Sans', 'Bitstream Vera Sans', 'Computer Modern Sans Serif', 'Lucida Grande', 'Verdana', 'Geneva', 'Lucid', 'Arial', 'Helvetica', 'Avant Garde', sans-serif; text-anchor: end" x="49.87" y="21.199619" transform="rotate(-0 49.87 21.199619)">300</text>
     </g>
    </g>
    <g id="text_15">
     <text style="font: 10px 'DejaVu Sans', 'Bitstream Vera Sans', 'Computer Modern Sans Serif', 'Lucida Grande', 'Verdana', 'Geneva', 'Lucid', 'Arial', 'Helvetica', 'Avant Garde', sans-serif; text-anchor: middle" x="18.702813" y="110.42" transform="rotate(-90 18.702813 110.42)">power (uW)</text>
    </g>
   </g>
   <g id="line2d_14">
    <path d="M 78.168182 38.276086 
L 79.878879 200.983636 
L 81.589576 40.732049 
L 83.300274 60.993744 
L 85.010971 43.188012 
L 86.721668 37.048105 
L 88.432366 54.853837 
L 90.143063 35.820123 
L 91.85376 72.045578 
L 93.564458 35.820123 
L 95.275155 53.625855 
L 96.985853 113.796949 
L 98.69655 44.415994 
L 100.407247 85.553374 
L 102.117945 49.32792 
L 103.828642 115.024931 
L 105.539339 101.517134 
L 107.250037 34.592142 
L 108.960734 143.268505 
L 110.671431 30.908197 
L 112.382129 188.703821 
L 114.092826 42.574022 
L 115.803523 38.276086 
L 117.514221 32.136179 
L 119.224918 46.257966 
L 120.935615 34.592142 
L 122.646313 62.221726 
L 124.35701 103.359106 
L 126.067707 175.196025 
L 127.778405 54.239846 
L 129.489102 148.180431 
L 131.199799 61.607735 
L 132.910497 79.413467 
L 134.621194 64.063698 
L 136.331891 30.908197 
L 138.042589 40.732049 
L 139.753286 121.164838 
L 141.463983 49.32792 
L 143.174681 81.255439 
L 144.885378 143.882496 
L 146.596075 61.607735 
L 148.306773 70.817596 
L 150.01747 38.276086 
L 151.728167 92.921263 
L 153.438865 92.921263 
L 155.149562 27.224253 
L 156.860259 51.783883 
L 158.570957 37.662096 
L 160.281654 69.589615 
L 161.992351 41.960031 
L 163.703049 43.188012 
L 165.413746 53.625855 
L 167.124443 46.871957 
L 168.835141 37.048105 
L 170.545838 77.571495 
L 172.256535 158.004284 
L 173.967233 56.081818 
L 175.67793 127.918737 
L 177.388627 175.196025 
L 179.099325 70.203606 
L 180.810022 53.011864 
L 182.520719 124.848783 
L 184.231417 48.099938 
L 185.942114 52.397874 
L 187.652811 59.151772 
L 189.363509 81.255439 
L 191.074206 48.713929 
L 192.784903 35.820123 
L 194.495601 161.688228 
L 196.206298 129.146718 
L 197.916995 32.136179 
L 199.627693 38.276086 
L 201.33839 48.099938 
L 203.049087 52.397874 
L 204.759785 54.239846 
L 206.470482 42.574022 
L 208.181179 38.276086 
L 209.891877 32.136179 
L 211.602574 70.817596 
L 213.313271 27.224253 
L 215.023969 53.625855 
L 216.734666 175.196025 
L 218.445363 133.444653 
L 220.156061 116.252912 
L 221.866758 134.058644 
L 223.577455 67.747643 
L 225.288153 188.703821 
L 226.99885 59.151772 
L 228.709547 64.063698 
L 230.420245 59.151772 
L 232.130942 52.397874 
L 233.841639 100.289153 
L 235.552337 43.188012 
L 237.263034 85.553374 
L 238.973731 68.975624 
L 240.684429 21.084345 
L 242.395126 88.623328 
L 244.105823 32.136179 
L 245.816521 44.415994 
L 247.527218 83.097411 
L 249.237915 96.605208 
L 250.948613 57.3098 
L 252.65931 68.975624 
L 254.370007 50.555901 
L 256.080705 65.90567 
L 257.791402 119.936857 
L 259.502099 91.693282 
L 261.212797 133.444653 
L 262.923494 55.467827 
L 264.634191 53.011864 
L 266.344889 111.340986 
L 268.055586 86.781356 
L 269.766283 71.431587 
L 271.476981 33.36416 
L 273.187678 59.765763 
L 274.898375 35.820123 
L 276.609073 108.271032 
L 278.31977 60.993744 
L 280.030467 32.136179 
L 281.741165 59.151772 
L 283.451862 51.169892 
L 285.162559 153.092357 
L 286.873257 48.713929 
L 288.583954 32.136179 
L 290.294651 38.276086 
L 292.005349 63.449707 
L 293.716046 156.776302 
L 295.426743 38.276086 
L 297.137441 43.188012 
L 298.848138 37.048105 
L 300.558835 61.607735 
L 302.269533 66.519661 
L 303.98023 49.32792 
L 305.690927 79.413467 
L 307.401625 64.063698 
L 309.112322 86.167365 
L 310.823019 52.397874 
L 312.533717 45.029985 
L 314.244414 46.871957 
L 315.955111 175.196025 
L 317.665809 65.29168 
L 319.376506 137.128598 
L 321.087203 35.820123 
L 322.797901 49.32792 
L 324.508598 38.276086 
L 326.219295 51.169892 
L 327.929993 46.871957 
L 329.64069 45.643975 
L 331.351387 63.449707 
L 333.062085 91.693282 
L 334.772782 72.659569 
L 336.483479 130.98869 
L 338.194177 127.304746 
L 339.904874 138.356579 
L 341.615571 56.695809 
L 343.326269 103.973097 
L 345.036966 39.504068 
L 346.747663 160.460247 
L 348.458361 50.555901 
L 350.169058 107.657042 
L 351.879755 63.449707 
L 353.590453 105.201079 
L 355.30115 119.936857 
L 357.011847 56.081818 
L 358.722545 38.276086 
L 360.433242 115.024931 
L 362.143939 78.185485 
L 363.854637 50.555901 
L 365.565334 33.36416 
L 367.276031 29.680216 
L 368.986729 24.76829 
L 370.697426 123.620801 
L 372.408123 110.726995 
L 374.118821 51.783883 
L 375.829518 118.708875 
L 377.540215 29.680216 
L 379.250913 67.747643 
L 380.96161 56.081818 
L 382.672307 51.169892 
L 384.383005 68.975624 
L 386.093702 38.276086 
L 387.804399 32.750169 
L 389.515097 41.960031 
L 391.225794 38.276086 
L 392.936491 94.149245 
L 394.647189 112.568968 
L 396.357886 49.32792 
L 398.068583 71.431587 
L 399.779281 37.048105 
L 401.489978 74.501541 
L 403.200675 39.504068 
L 404.911373 115.024931 
L 406.62207 37.662096 
L 408.332767 112.568968 
L 410.043465 19.856364 
L 411.754162 51.169892 
L 413.464859 40.732049 
L 415.175557 57.3098 
L 416.886254 101.517134 
L 418.596951 88.623328 
L 420.307649 100.903143 
L 422.018346 32.136179 
L 423.729043 164.144191 
L 425.439741 46.257966 
L 427.150438 44.415994 
L 428.861135 97.219199 
L 430.571833 62.221726 
L 432.28253 53.625855 
L 433.993227 53.625855 
L 435.703925 66.519661 
L 437.414622 51.783883 
L 439.125319 108.885023 
L 440.836017 133.444653 
L 442.546714 57.3098 
L 444.257411 56.695809 
L 445.968109 83.097411 
L 447.678806 67.133652 
L 449.389503 57.92379 
L 451.100201 46.257966 
L 452.810898 46.871957 
L 454.521595 39.504068 
L 456.232293 43.188012 
L 457.94299 81.255439 
L 459.653687 72.045578 
L 461.364385 69.589615 
L 463.075082 60.379753 
L 464.785779 43.188012 
L 466.496477 70.203606 
L 468.207174 51.169892 
L 469.917871 102.745116 
L 471.628569 75.729522 
L 473.339266 80.641448 
L 475.049963 164.144191 
L 476.760661 109.499014 
L 478.471358 43.188012 
L 480.182055 83.097411 
L 481.892753 68.975624 
L 483.60345 38.276086 
L 485.314147 32.750169 
L 487.024845 29.066225 
L 488.735542 65.90567 
L 490.44624 33.978151 
L 492.156937 52.397874 
L 493.867634 30.908197 
L 495.578332 133.444653 
L 497.289029 126.076764 
L 498.999726 88.623328 
L 500.710424 37.048105 
L 502.421121 73.273559 
L 504.131818 50.555901 
L 504.131818 50.555901 
" clip-path="url(#pac5c4ade03)" style="fill: none; stroke: #99004d; stroke-width: 0.8; stroke-linecap: square"/>
   </g>
   <g id="patch_3">
    <path d="M 56.87 210.04 
L 56.87 10.8 
" style="fill: none; stroke: #000000; stroke-width: 0.8; stroke-linejoin: miter; stroke-linecap: square"/>
   </g>
   <g id="patch_4">
    <path d="M 525.43 210.04 
L 525.43 10.8 
" style="fill: none; stroke: #000000; stroke-width: 0.8; stroke-linejoin: miter; stroke-linecap: square"/>
   </g>
   <g id="patch_5">
    <path d="M 56.87 210.04 
L 525.43 210.04 
" style="fill: none; stroke: #000000; stroke-width: 0.8; stroke-linejoin: miter; stroke-linecap: square"/>
   </g>
   <g id="patch_6">
    <path d="M 56.87 10.8 
L 525.43 10.8 
" style="fill: none; stroke: #000000; stroke-width: 0.8; stroke-linejoin: miter; stroke-linecap: square"/>
   </g>
  </g>
  <g id="axes_2">
   <g id="matplotlib.axis_3">
    <g id="ytick_8">
     <g id="line2d_15">
      <defs>
       <path id="m3626d4a84b" d="M 0 0 
L 3.5 0 
" style="stroke: #000000; stroke-width: 0.8"/>
      </defs>
      <g>
       <use xlink:href="#m3626d4a84b" x="525.43" y="200.983636" style="stroke: #000000; stroke-width: 0.8"/>
      </g>
     </g>
     <g id="text_16">
      <text style="font: 10px 'DejaVu Sans', 'Bitstream Vera Sans', 'Computer Modern Sans Serif', 'Lucida Grande', 'Verdana', 'Geneva', 'Lucid', 'Arial', 'Helvetica', 'Avant Garde', sans-serif; text-anchor: start" x="532.43" y="204.782855" transform="rotate(-0 532.43 204.782855)">0</text>
     </g>
    </g>
    <g id="ytick_9">
     <g id="line2d_16">
      <g>
       <use xlink:href="#m3626d4a84b" x="525.43" y="176.506978" style="stroke: #000000; stroke-width: 0.8"/>
      </g>
     </g>
     <g id="text_17">
      <text style="font: 10px 'DejaVu Sans', 'Bitstream Vera Sans', 'Computer Modern Sans Serif', 'Lucida Grande', 'Verdana', 'Geneva', 'Lucid', 'Arial', 'Helvetica', 'Avant Garde', sans-serif; text-anchor: start" x="532.43" y="180.306197" transform="rotate(-0 532.43 180.306197)">5</text>
     </g>
    </g>
    <g id="ytick_10">
     <g id="line2d_17">
      <g>
       <use xlink:href="#m3626d4a84b" x="525.43" y="152.030319" style="stroke: #000000; stroke-width: 0.8"/>
      </g>
     </g>
     <g id="text_18">
      <text style="font: 10px 'DejaVu Sans', 'Bitstream Vera Sans', 'Computer Modern Sans Serif', 'Lucida Grande', 'Verdana', 'Geneva', 'Lucid', 'Arial', 'Helvetica', 'Avant Garde', sans-serif; text-anchor: start" x="532.43" y="155.829538" transform="rotate(-0 532.43 155.829538)">10</text>
     </g>
    </g>
    <g id="ytick_11">
     <g id="line2d_18">
      <g>
       <use xlink:href="#m3626d4a84b" x="525.43" y="127.553661" style="stroke: #000000; stroke-width: 0.8"/>
      </g>
     </g>
     <g id="text_19">
      <text style="font: 10px 'DejaVu Sans', 'Bitstream Vera Sans', 'Computer Modern Sans Serif', 'Lucida Grande', 'Verdana', 'Geneva', 'Lucid', 'Arial', 'Helvetica', 'Avant Garde', sans-serif; text-anchor: start" x="532.43" y="131.35288" transform="rotate(-0 532.43 131.35288)">15</text>
     </g>
    </g>
    <g id="ytick_12">
     <g id="line2d_19">
      <g>
       <use xlink:href="#m3626d4a84b" x="525.43" y="103.077002" style="stroke: #000000; stroke-width: 0.8"/>
      </g>
     </g>
     <g id="text_20">
      <text style="font: 10px 'DejaVu Sans', 'Bitstream Vera Sans', 'Computer Modern Sans Serif', 'Lucida Grande', 'Verdana', 'Geneva', 'Lucid', 'Arial', 'Helvetica', 'Avant Garde', sans-serif; text-anchor: start" x="532.43" y="106.876221" transform="rotate(-0 532.43 106.876221)">20</text>
     </g>
    </g>
    <g id="ytick_13">
     <g id="line2d_20">
      <g>
       <use xlink:href="#m3626d4a84b" x="525.43" y="78.600344" style="stroke: #000000; stroke-width: 0.8"/>
      </g>
     </g>
     <g id="text_21">
      <text style="font: 10px 'DejaVu Sans', 'Bitstream Vera Sans', 'Computer Modern Sans Serif', 'Lucida Grande', 'Verdana', 'Geneva', 'Lucid', 'Arial', 'Helvetica', 'Avant Garde', sans-serif; text-anchor: start" x="532.43" y="82.399563" transform="rotate(-0 532.43 82.399563)">25</text>
     </g>
    </g>
    <g id="ytick_14">
     <g id="line2d_21">
      <g>
       <use xlink:href="#m3626d4a84b" x="525.43" y="54.123686" style="stroke: #000000; stroke-width: 0.8"/>
      </g>
     </g>
     <g id="text_22">
      <text style="font: 10px 'DejaVu Sans', 'Bitstream Vera Sans', 'Computer Modern Sans Serif', 'Lucida Grande', 'Verdana', 'Geneva', 'Lucid', 'Arial', 'Helvetica', 'Avant Garde', sans-serif; text-anchor: start" x="532.43" y="57.922904" transform="rotate(-0 532.43 57.922904)">30</text>
     </g>
    </g>
    <g id="ytick_15">
     <g id="line2d_22">
      <g>
       <use xlink:href="#m3626d4a84b" x="525.43" y="29.647027" style="stroke: #000000; stroke-width: 0.8"/>
      </g>
     </g>
     <g id="text_23">
      <text style="font: 10px 'DejaVu Sans', 'Bitstream Vera Sans', 'Computer Modern Sans Serif', 'Lucida Grande', 'Verdana', 'Geneva', 'Lucid', 'Arial', 'Helvetica', 'Avant Garde', sans-serif; text-anchor: start" x="532.43" y="33.446246" transform="rotate(-0 532.43 33.446246)">35</text>
     </g>
    </g>
    <g id="text_24">
     <text style="font: 10px 'DejaVu Sans', 'Bitstream Vera Sans', 'Computer Modern Sans Serif', 'Lucida Grande', 'Verdana', 'Geneva', 'Lucid', 'Arial', 'Helvetica', 'Avant Garde', sans-serif; text-anchor: middle" x="562.753438" y="110.42" transform="rotate(-90 562.753438 110.42)">hw(data)</text>
    </g>
   </g>
   <g id="line2d_23">
    <path d="M 78.168182 54.123686 
L 79.878879 200.983636 
L 81.589576 39.43769 
L 83.300274 88.391007 
L 85.010971 73.705012 
L 88.432366 73.705012 
L 90.143063 44.333022 
L 91.85376 112.867666 
L 93.564458 34.542359 
L 95.275155 78.600344 
L 96.985853 156.925651 
L 98.69655 39.43769 
L 100.407247 112.867666 
L 102.117945 49.228354 
L 103.828642 152.030319 
L 105.539339 152.030319 
L 107.250037 34.542359 
L 108.960734 176.506978 
L 110.671431 39.43769 
L 112.382129 196.088305 
L 114.092826 44.333022 
L 115.803523 44.333022 
L 117.514221 54.123686 
L 119.224918 83.495676 
L 120.935615 29.647027 
L 122.646313 73.705012 
L 124.35701 142.239656 
L 126.067707 191.192973 
L 127.778405 103.077002 
L 129.489102 176.506978 
L 131.199799 93.286339 
L 132.910497 117.762998 
L 134.621194 103.077002 
L 136.331891 44.333022 
L 138.042589 49.228354 
L 139.753286 166.716314 
L 141.463983 44.333022 
L 143.174681 122.658329 
L 144.885378 176.506978 
L 146.596075 63.914349 
L 148.306773 107.972334 
L 150.01747 54.123686 
L 151.728167 127.553661 
L 153.438865 122.658329 
L 155.149562 44.333022 
L 156.860259 54.123686 
L 158.570957 39.43769 
L 160.281654 103.077002 
L 161.992351 54.123686 
L 163.703049 63.914349 
L 165.413746 63.914349 
L 167.124443 29.647027 
L 168.835141 49.228354 
L 170.545838 132.448993 
L 172.256535 181.40231 
L 173.967233 59.019017 
L 175.67793 166.716314 
L 177.388627 191.192973 
L 179.099325 88.391007 
L 180.810022 78.600344 
L 182.520719 166.716314 
L 184.231417 29.647027 
L 185.942114 78.600344 
L 187.652811 83.495676 
L 189.363509 127.553661 
L 191.074206 98.181671 
L 192.784903 44.333022 
L 194.495601 181.40231 
L 196.206298 166.716314 
L 197.916995 29.647027 
L 199.627693 49.228354 
L 201.33839 63.914349 
L 203.049087 112.867666 
L 204.759785 93.286339 
L 206.470482 44.333022 
L 208.181179 39.43769 
L 209.891877 54.123686 
L 211.602574 112.867666 
L 213.313271 29.647027 
L 215.023969 63.914349 
L 216.734666 191.192973 
L 218.445363 166.716314 
L 220.156061 156.925651 
L 221.866758 171.611646 
L 223.577455 103.077002 
L 225.288153 196.088305 
L 226.99885 63.914349 
L 228.709547 68.809681 
L 230.420245 78.600344 
L 232.130942 107.972334 
L 233.841639 147.134988 
L 235.552337 78.600344 
L 237.263034 127.553661 
L 238.973731 98.181671 
L 240.684429 34.542359 
L 242.395126 142.239656 
L 244.105823 19.856364 
L 245.816521 68.809681 
L 247.527218 122.658329 
L 249.237915 142.239656 
L 250.948613 78.600344 
L 252.65931 93.286339 
L 254.370007 59.019017 
L 256.080705 98.181671 
L 257.791402 156.925651 
L 259.502099 132.448993 
L 261.212797 166.716314 
L 262.923494 49.228354 
L 264.634191 78.600344 
L 266.344889 156.925651 
L 268.055586 122.658329 
L 269.766283 107.972334 
L 271.476981 29.647027 
L 273.187678 73.705012 
L 274.898375 54.123686 
L 276.609073 147.134988 
L 280.030467 49.228354 
L 281.741165 73.705012 
L 283.451862 39.43769 
L 285.162559 181.40231 
L 286.873257 73.705012 
L 288.583954 39.43769 
L 290.294651 34.542359 
L 292.005349 83.495676 
L 293.716046 181.40231 
L 295.426743 59.019017 
L 298.848138 49.228354 
L 300.558835 59.019017 
L 302.269533 93.286339 
L 303.98023 59.019017 
L 305.690927 107.972334 
L 307.401625 88.391007 
L 309.112322 137.344324 
L 310.823019 59.019017 
L 312.533717 59.019017 
L 314.244414 44.333022 
L 315.955111 191.192973 
L 317.665809 103.077002 
L 319.376506 161.820983 
L 321.087203 54.123686 
L 322.797901 59.019017 
L 324.508598 49.228354 
L 326.219295 49.228354 
L 327.929993 54.123686 
L 329.64069 54.123686 
L 331.351387 107.972334 
L 333.062085 142.239656 
L 334.772782 88.391007 
L 336.483479 166.716314 
L 339.904874 166.716314 
L 341.615571 49.228354 
L 343.326269 147.134988 
L 345.036966 63.914349 
L 346.747663 181.40231 
L 348.458361 68.809681 
L 350.169058 152.030319 
L 351.879755 103.077002 
L 355.30115 161.820983 
L 357.011847 98.181671 
L 358.722545 44.333022 
L 360.433242 147.134988 
L 362.143939 122.658329 
L 363.854637 54.123686 
L 365.565334 49.228354 
L 367.276031 39.43769 
L 368.986729 59.019017 
L 370.697426 166.716314 
L 372.408123 152.030319 
L 374.118821 93.286339 
L 375.829518 156.925651 
L 377.540215 24.751695 
L 379.250913 98.181671 
L 380.96161 98.181671 
L 382.672307 73.705012 
L 384.383005 68.809681 
L 386.093702 49.228354 
L 387.804399 34.542359 
L 389.515097 54.123686 
L 391.225794 83.495676 
L 392.936491 132.448993 
L 394.647189 156.925651 
L 396.357886 59.019017 
L 398.068583 127.553661 
L 399.779281 34.542359 
L 401.489978 122.658329 
L 403.200675 39.43769 
L 404.911373 161.820983 
L 406.62207 54.123686 
L 408.332767 156.925651 
L 410.043465 34.542359 
L 411.754162 93.286339 
L 413.464859 44.333022 
L 415.175557 88.391007 
L 416.886254 147.134988 
L 418.596951 122.658329 
L 420.307649 147.134988 
L 422.018346 54.123686 
L 423.729043 186.297641 
L 425.439741 63.914349 
L 427.150438 54.123686 
L 428.861135 132.448993 
L 430.571833 117.762998 
L 432.28253 68.809681 
L 433.993227 93.286339 
L 435.703925 107.972334 
L 437.414622 63.914349 
L 439.125319 147.134988 
L 440.836017 171.611646 
L 442.546714 54.123686 
L 444.257411 63.914349 
L 445.968109 137.344324 
L 447.678806 112.867666 
L 449.389503 68.809681 
L 451.100201 68.809681 
L 452.810898 73.705012 
L 454.521595 34.542359 
L 456.232293 54.123686 
L 457.94299 127.553661 
L 459.653687 107.972334 
L 461.364385 93.286339 
L 463.075082 88.391007 
L 464.785779 44.333022 
L 466.496477 107.972334 
L 468.207174 98.181671 
L 469.917871 152.030319 
L 471.628569 122.658329 
L 473.339266 127.553661 
L 475.049963 186.297641 
L 476.760661 147.134988 
L 478.471358 49.228354 
L 480.182055 117.762998 
L 481.892753 88.391007 
L 483.60345 19.856364 
L 485.314147 39.43769 
L 487.024845 34.542359 
L 488.735542 103.077002 
L 490.44624 49.228354 
L 492.156937 73.705012 
L 493.867634 29.647027 
L 495.578332 171.611646 
L 497.289029 161.820983 
L 498.999726 132.448993 
L 500.710424 59.019017 
L 502.421121 127.553661 
L 504.131818 73.705012 
L 504.131818 73.705012 
" clip-path="url(#pac5c4ade03)" style="fill: none; stroke: #235996; stroke-width: 0.8; stroke-linecap: square"/>
   </g>
   <g id="patch_7">
    <path d="M 56.87 210.04 
L 56.87 10.8 
" style="fill: none; stroke: #000000; stroke-width: 0.8; stroke-linejoin: miter; stroke-linecap: square"/>
   </g>
   <g id="patch_8">
    <path d="M 525.43 210.04 
L 525.43 10.8 
" style="fill: none; stroke: #000000; stroke-width: 0.8; stroke-linejoin: miter; stroke-linecap: square"/>
   </g>
   <g id="patch_9">
    <path d="M 56.87 210.04 
L 525.43 210.04 
" style="fill: none; stroke: #000000; stroke-width: 0.8; stroke-linejoin: miter; stroke-linecap: square"/>
   </g>
   <g id="patch_10">
    <path d="M 56.87 10.8 
L 525.43 10.8 
" style="fill: none; stroke: #000000; stroke-width: 0.8; stroke-linejoin: miter; stroke-linecap: square"/>
   </g>
   <g id="legend_1">
    <g id="patch_11">
     <path d="M 183.934125 43.4565 
L 398.365875 43.4565 
Q 401.245875 43.4565 401.245875 40.5765 
L 401.245875 20.88 
Q 401.245875 18 398.365875 18 
L 183.934125 18 
Q 181.054125 18 181.054125 20.88 
L 181.054125 40.5765 
Q 181.054125 43.4565 183.934125 43.4565 
z
" style="fill: #ffffff; opacity: 0.8; stroke: #000000; stroke-linejoin: miter"/>
    </g>
    <g id="line2d_24">
     <path d="M 186.814125 29.66175 
L 201.214125 29.66175 
L 215.614125 29.66175 
" style="fill: none; stroke: #99004d; stroke-width: 0.8; stroke-linecap: square"/>
    </g>
    <g id="text_25">
     <text style="font: 14.4px 'DejaVu Sans', 'Bitstream Vera Sans', 'Computer Modern Sans Serif', 'Lucida Grande', 'Verdana', 'Geneva', 'Lucid', 'Arial', 'Helvetica', 'Avant Garde', sans-serif; text-anchor: start" x="227.134125" y="34.70175" transform="rotate(-0 227.134125 34.70175)">power</text>
    </g>
    <g id="line2d_25">
     <path d="M 300.443625 29.66175 
L 314.843625 29.66175 
L 329.243625 29.66175 
" style="fill: none; stroke: #235996; stroke-width: 0.8; stroke-linecap: square"/>
    </g>
    <g id="text_26">
     <text style="font: 14.4px 'DejaVu Sans', 'Bitstream Vera Sans', 'Computer Modern Sans Serif', 'Lucida Grande', 'Verdana', 'Geneva', 'Lucid', 'Arial', 'Helvetica', 'Avant Garde', sans-serif; text-anchor: start" x="340.763625" y="34.70175" transform="rotate(-0 340.763625 34.70175)">hw(rs1)</text>
    </g>
   </g>
  </g>
 </g>
 <defs>
  <clipPath id="pac5c4ade03">
   <rect x="56.87" y="10.8" width="468.56" height="199.24"/>
  </clipPath>
 </defs>
</svg>
