<?xml version="1.0" encoding="utf-8" standalone="no"?>
<!DOCTYPE svg PUBLIC "-//W3C//DTD SVG 1.1//EN"
  "http://www.w3.org/Graphics/SVG/1.1/DTD/svg11.dtd">
<svg xmlns:xlink="http://www.w3.org/1999/xlink" width="576pt" height="252pt" viewBox="0 0 576 252" xmlns="http://www.w3.org/2000/svg" version="1.1">
 <metadata>
  <rdf:RDF xmlns:dc="http://purl.org/dc/elements/1.1/" xmlns:cc="http://creativecommons.org/ns#" xmlns:rdf="http://www.w3.org/1999/02/22-rdf-syntax-ns#">
   <cc:Work>
    <dc:type rdf:resource="http://purl.org/dc/dcmitype/StillImage"/>
    <dc:date>2023-12-04T21:10:28.960353</dc:date>
    <dc:format>image/svg+xml</dc:format>
    <dc:creator>
     <cc:Agent>
      <dc:title>Matplotlib v3.7.4, https://matplotlib.org/</dc:title>
     </cc:Agent>
    </dc:creator>
   </cc:Work>
  </rdf:RDF>
 </metadata>
 <defs>
  <style type="text/css">*{stroke-linejoin: round; stroke-linecap: butt}</style>
 </defs>
 <g id="figure_1">
  <g id="patch_1">
   <path d="M 0 252 
L 576 252 
L 576 0 
L 0 0 
z
" style="fill: #ffffff"/>
  </g>
  <g id="axes_1">
   <g id="patch_2">
    <path d="M 56.87 210.04 
L 525.43 210.04 
L 525.43 10.8 
L 56.87 10.8 
z
" style="fill: #ffffff"/>
   </g>
   <g id="matplotlib.axis_1">
    <g id="xtick_1">
     <g id="line2d_1">
      <defs>
       <path id="mb922c0a564" d="M 0 0 
L 0 3.5 
" style="stroke: #000000; stroke-width: 0.8"/>
      </defs>
      <g>
       <use xlink:href="#mb922c0a564" x="78.168182" y="210.04" style="stroke: #000000; stroke-width: 0.8"/>
      </g>
     </g>
     <g id="text_1">
      <text style="font: 10px 'DejaVu Sans', 'Bitstream Vera Sans', 'Computer Modern Sans Serif', 'Lucida Grande', 'Verdana', 'Geneva', 'Lucid', 'Arial', 'Helvetica', 'Avant Garde', sans-serif; text-anchor: middle" x="78.168182" y="224.638438" transform="rotate(-0 78.168182 224.638438)">0</text>
     </g>
    </g>
    <g id="xtick_2">
     <g id="line2d_2">
      <g>
       <use xlink:href="#mb922c0a564" x="163.703049" y="210.04" style="stroke: #000000; stroke-width: 0.8"/>
      </g>
     </g>
     <g id="text_2">
      <text style="font: 10px 'DejaVu Sans', 'Bitstream Vera Sans', 'Computer Modern Sans Serif', 'Lucida Grande', 'Verdana', 'Geneva', 'Lucid', 'Arial', 'Helvetica', 'Avant Garde', sans-serif; text-anchor: middle" x="163.703049" y="224.638438" transform="rotate(-0 163.703049 224.638438)">50</text>
     </g>
    </g>
    <g id="xtick_3">
     <g id="line2d_3">
      <g>
       <use xlink:href="#mb922c0a564" x="249.237915" y="210.04" style="stroke: #000000; stroke-width: 0.8"/>
      </g>
     </g>
     <g id="text_3">
      <text style="font: 10px 'DejaVu Sans', 'Bitstream Vera Sans', 'Computer Modern Sans Serif', 'Lucida Grande', 'Verdana', 'Geneva', 'Lucid', 'Arial', 'Helvetica', 'Avant Garde', sans-serif; text-anchor: middle" x="249.237915" y="224.638438" transform="rotate(-0 249.237915 224.638438)">100</text>
     </g>
    </g>
    <g id="xtick_4">
     <g id="line2d_4">
      <g>
       <use xlink:href="#mb922c0a564" x="334.772782" y="210.04" style="stroke: #000000; stroke-width: 0.8"/>
      </g>
     </g>
     <g id="text_4">
      <text style="font: 10px 'DejaVu Sans', 'Bitstream Vera Sans', 'Computer Modern Sans Serif', 'Lucida Grande', 'Verdana', 'Geneva', 'Lucid', 'Arial', 'Helvetica', 'Avant Garde', sans-serif; text-anchor: middle" x="334.772782" y="224.638438" transform="rotate(-0 334.772782 224.638438)">150</text>
     </g>
    </g>
    <g id="xtick_5">
     <g id="line2d_5">
      <g>
       <use xlink:href="#mb922c0a564" x="420.307649" y="210.04" style="stroke: #000000; stroke-width: 0.8"/>
      </g>
     </g>
     <g id="text_5">
      <text style="font: 10px 'DejaVu Sans', 'Bitstream Vera Sans', 'Computer Modern Sans Serif', 'Lucida Grande', 'Verdana', 'Geneva', 'Lucid', 'Arial', 'Helvetica', 'Avant Garde', sans-serif; text-anchor: middle" x="420.307649" y="224.638438" transform="rotate(-0 420.307649 224.638438)">200</text>
     </g>
    </g>
    <g id="xtick_6">
     <g id="line2d_6">
      <g>
       <use xlink:href="#mb922c0a564" x="505.842516" y="210.04" style="stroke: #000000; stroke-width: 0.8"/>
      </g>
     </g>
     <g id="text_6">
      <text style="font: 10px 'DejaVu Sans', 'Bitstream Vera Sans', 'Computer Modern Sans Serif', 'Lucida Grande', 'Verdana', 'Geneva', 'Lucid', 'Arial', 'Helvetica', 'Avant Garde', sans-serif; text-anchor: middle" x="505.842516" y="224.638438" transform="rotate(-0 505.842516 224.638438)">250</text>
     </g>
    </g>
    <g id="text_7">
     <text style="font: 10px 'DejaVu Sans', 'Bitstream Vera Sans', 'Computer Modern Sans Serif', 'Lucida Grande', 'Verdana', 'Geneva', 'Lucid', 'Arial', 'Helvetica', 'Avant Garde', sans-serif; text-anchor: middle" x="291.15" y="238.316563" transform="rotate(-0 291.15 238.316563)">Cycles</text>
    </g>
   </g>
   <g id="matplotlib.axis_2">
    <g id="ytick_1">
     <g id="line2d_7">
      <defs>
       <path id="m3c2135fccd" d="M 0 0 
L -3.5 0 
" style="stroke: #000000; stroke-width: 0.8"/>
      </defs>
      <g>
       <use xlink:href="#m3c2135fccd" x="56.87" y="202.800967" style="stroke: #000000; stroke-width: 0.8"/>
      </g>
     </g>
     <g id="text_8">
      <text style="font: 10px 'DejaVu Sans', 'Bitstream Vera Sans', 'Computer Modern Sans Serif', 'Lucida Grande', 'Verdana', 'Geneva', 'Lucid', 'Arial', 'Helvetica', 'Avant Garde', sans-serif; text-anchor: end" x="49.87" y="206.600186" transform="rotate(-0 49.87 206.600186)">0</text>
     </g>
    </g>
    <g id="ytick_2">
     <g id="line2d_8">
      <g>
       <use xlink:href="#m3c2135fccd" x="56.87" y="172.512125" style="stroke: #000000; stroke-width: 0.8"/>
      </g>
     </g>
     <g id="text_9">
      <text style="font: 10px 'DejaVu Sans', 'Bitstream Vera Sans', 'Computer Modern Sans Serif', 'Lucida Grande', 'Verdana', 'Geneva', 'Lucid', 'Arial', 'Helvetica', 'Avant Garde', sans-serif; text-anchor: end" x="49.87" y="176.311344" transform="rotate(-0 49.87 176.311344)">50</text>
     </g>
    </g>
    <g id="ytick_3">
     <g id="line2d_9">
      <g>
       <use xlink:href="#m3c2135fccd" x="56.87" y="142.223284" style="stroke: #000000; stroke-width: 0.8"/>
      </g>
     </g>
     <g id="text_10">
      <text style="font: 10px 'DejaVu Sans', 'Bitstream Vera Sans', 'Computer Modern Sans Serif', 'Lucida Grande', 'Verdana', 'Geneva', 'Lucid', 'Arial', 'Helvetica', 'Avant Garde', sans-serif; text-anchor: end" x="49.87" y="146.022502" transform="rotate(-0 49.87 146.022502)">100</text>
     </g>
    </g>
    <g id="ytick_4">
     <g id="line2d_10">
      <g>
       <use xlink:href="#m3c2135fccd" x="56.87" y="111.934442" style="stroke: #000000; stroke-width: 0.8"/>
      </g>
     </g>
     <g id="text_11">
      <text style="font: 10px 'DejaVu Sans', 'Bitstream Vera Sans', 'Computer Modern Sans Serif', 'Lucida Grande', 'Verdana', 'Geneva', 'Lucid', 'Arial', 'Helvetica', 'Avant Garde', sans-serif; text-anchor: end" x="49.87" y="115.733661" transform="rotate(-0 49.87 115.733661)">150</text>
     </g>
    </g>
    <g id="ytick_5">
     <g id="line2d_11">
      <g>
       <use xlink:href="#m3c2135fccd" x="56.87" y="81.6456" style="stroke: #000000; stroke-width: 0.8"/>
      </g>
     </g>
     <g id="text_12">
      <text style="font: 10px 'DejaVu Sans', 'Bitstream Vera Sans', 'Computer Modern Sans Serif', 'Lucida Grande', 'Verdana', 'Geneva', 'Lucid', 'Arial', 'Helvetica', 'Avant Garde', sans-serif; text-anchor: end" x="49.87" y="85.444819" transform="rotate(-0 49.87 85.444819)">200</text>
     </g>
    </g>
    <g id="ytick_6">
     <g id="line2d_12">
      <g>
       <use xlink:href="#m3c2135fccd" x="56.87" y="51.356759" style="stroke: #000000; stroke-width: 0.8"/>
      </g>
     </g>
     <g id="text_13">
      <text style="font: 10px 'DejaVu Sans', 'Bitstream Vera Sans', 'Computer Modern Sans Serif', 'Lucida Grande', 'Verdana', 'Geneva', 'Lucid', 'Arial', 'Helvetica', 'Avant Garde', sans-serif; text-anchor: end" x="49.87" y="55.155978" transform="rotate(-0 49.87 55.155978)">250</text>
     </g>
    </g>
    <g id="ytick_7">
     <g id="line2d_13">
      <g>
       <use xlink:href="#m3c2135fccd" x="56.87" y="21.067917" style="stroke: #000000; stroke-width: 0.8"/>
      </g>
     </g>
     <g id="text_14">
      <text style="font: 10px 'DejaVu Sans', 'Bitstream Vera Sans', 'Computer Modern Sans Serif', 'Lucida Grande', 'Verdana', 'Geneva', 'Lucid', 'Arial', 'Helvetica', 'Avant Garde', sans-serif; text-anchor: end" x="49.87" y="24.867136" transform="rotate(-0 49.87 24.867136)">300</text>
     </g>
    </g>
    <g id="text_15">
     <text style="font: 10px 'DejaVu Sans', 'Bitstream Vera Sans', 'Computer Modern Sans Serif', 'Lucida Grande', 'Verdana', 'Geneva', 'Lucid', 'Arial', 'Helvetica', 'Avant Garde', sans-serif; text-anchor: middle" x="18.702813" y="110.42" transform="rotate(-90 18.702813 110.42)">power (uW)</text>
    </g>
   </g>
   <g id="line2d_14">
    <path d="M 78.168182 97.395798 
L 79.878879 59.837635 
L 81.589576 38.029669 
L 85.010971 81.039824 
L 86.721668 33.183454 
L 88.432366 69.530064 
L 90.143063 133.136631 
L 91.85376 144.040614 
L 93.564458 79.82827 
L 95.275155 114.963326 
L 96.985853 19.856364 
L 98.69655 29.548793 
L 100.407247 46.510544 
L 102.117945 59.837635 
L 103.828642 47.722098 
L 105.539339 45.298991 
L 107.250037 64.683849 
L 108.960734 51.962536 
L 110.671431 94.366914 
L 112.382129 62.260742 
L 114.092826 53.779866 
L 115.803523 44.087437 
L 117.514221 94.366914 
L 119.224918 46.510544 
L 120.935615 110.722888 
L 122.646313 68.924287 
L 124.35701 52.568313 
L 126.067707 38.029669 
L 127.778405 54.99142 
L 129.489102 78.616716 
L 131.199799 65.895403 
L 132.910497 82.251377 
L 134.621194 102.84779 
L 136.331891 26.519909 
L 138.042589 137.982846 
L 139.753286 200.983636 
L 141.463983 60.443411 
L 143.174681 188.8681 
L 144.885378 68.31851 
L 146.596075 53.779866 
L 148.306773 59.231858 
L 150.01747 36.818115 
L 151.728167 47.116321 
L 153.438865 113.751773 
L 155.149562 61.654965 
L 156.860259 56.80875 
L 158.570957 72.558948 
L 160.281654 63.472296 
L 161.992351 104.059343 
L 163.703049 46.510544 
L 165.413746 38.635445 
L 167.124443 39.846999 
L 168.835141 114.963326 
L 170.545838 65.289626 
L 172.256535 102.84779 
L 173.967233 58.020304 
L 175.67793 101.636236 
L 177.388627 93.15536 
L 179.099325 87.097592 
L 180.810022 55.597197 
L 182.520719 82.857154 
L 184.231417 48.933652 
L 185.942114 45.298991 
L 187.652811 71.347394 
L 189.363509 119.809541 
L 191.074206 58.626081 
L 192.784903 32.577677 
L 194.495601 46.510544 
L 196.206298 38.635445 
L 197.916995 77.405163 
L 199.627693 63.472296 
L 201.33839 78.616716 
L 203.049087 62.866519 
L 204.759785 59.837635 
L 206.470482 75.587832 
L 208.181179 111.328665 
L 209.891877 150.098382 
L 211.602574 52.568313 
L 213.313271 42.270106 
L 215.023969 54.99142 
L 216.734666 139.1944 
L 218.445363 58.626081 
L 220.156061 45.904767 
L 221.866758 105.876674 
L 223.577455 62.866519 
L 225.288153 76.193609 
L 226.99885 45.298991 
L 228.709547 104.059343 
L 230.420245 51.356759 
L 232.130942 94.366914 
L 233.841639 35.606561 
L 235.552337 70.135841 
L 237.263034 51.962536 
L 238.973731 95.578468 
L 240.684429 45.298991 
L 242.395126 51.356759 
L 244.105823 67.106957 
L 245.816521 67.106957 
L 247.527218 52.568313 
L 249.237915 53.779866 
L 250.948613 89.520699 
L 252.65931 42.875883 
L 254.370007 48.933652 
L 256.080705 56.202974 
L 257.791402 161.002365 
L 259.502099 72.558948 
L 261.212797 60.443411 
L 262.923494 124.655756 
L 264.634191 66.50118 
L 266.344889 85.886038 
L 268.055586 123.444202 
L 269.766283 66.50118 
L 271.476981 39.846999 
L 273.187678 50.750982 
L 274.898375 39.846999 
L 276.609073 200.983636 
L 278.31977 158.579258 
L 280.030467 58.626081 
L 281.741165 99.818905 
L 283.451862 147.675275 
L 285.162559 51.962536 
L 286.873257 64.683849 
L 288.583954 58.626081 
L 290.294651 114.963326 
L 292.005349 159.790812 
L 293.716046 135.559739 
L 295.426743 46.510544 
L 297.137441 83.462931 
L 298.848138 53.779866 
L 300.558835 31.9719 
L 302.269533 49.539428 
L 303.98023 54.99142 
L 305.690927 78.616716 
L 307.401625 33.183454 
L 309.112322 148.886829 
L 310.823019 69.530064 
L 312.533717 36.818115 
L 314.244414 88.309146 
L 315.955111 93.15536 
L 317.665809 44.087437 
L 319.376506 79.82827 
L 321.087203 89.520699 
L 322.797901 36.818115 
L 324.508598 101.636236 
L 326.219295 104.059343 
L 327.929993 47.722098 
L 329.64069 51.962536 
L 331.351387 38.029669 
L 333.062085 49.539428 
L 334.772782 105.270897 
L 336.483479 77.405163 
L 338.194177 70.741618 
L 339.904874 60.443411 
L 341.615571 95.578468 
L 343.326269 65.895403 
L 345.036966 176.752563 
L 346.747663 157.367704 
L 348.458361 50.145205 
L 350.169058 56.80875 
L 351.879755 65.895403 
L 353.590453 82.251377 
L 355.30115 46.510544 
L 357.011847 76.799386 
L 358.722545 127.078863 
L 360.433242 77.405163 
L 362.143939 53.779866 
L 363.854637 177.964117 
L 365.565334 74.982055 
L 367.276031 31.9719 
L 368.986729 61.049188 
L 370.697426 76.193609 
L 372.408123 46.510544 
L 374.118821 72.558948 
L 375.829518 101.636236 
L 377.540215 38.029669 
L 379.250913 62.260742 
L 380.96161 71.953171 
L 382.672307 77.405163 
L 384.383005 65.289626 
L 386.093702 188.8681 
L 387.804399 59.231858 
L 389.515097 35.606561 
L 391.225794 176.752563 
L 392.936491 74.376279 
L 394.647189 200.983636 
L 396.357886 100.424682 
L 398.068583 30.760347 
L 399.779281 188.8681 
L 401.489978 54.99142 
L 403.200675 52.568313 
L 404.911373 82.251377 
L 406.62207 65.895403 
L 408.332767 124.049979 
L 410.043465 118.597987 
L 411.754162 66.50118 
L 413.464859 36.818115 
L 415.175557 44.693214 
L 416.886254 79.82827 
L 418.596951 46.510544 
L 420.307649 61.654965 
L 422.018346 47.116321 
L 423.729043 74.982055 
L 425.439741 61.049188 
L 427.150438 60.443411 
L 428.861135 60.443411 
L 430.571833 104.059343 
L 432.28253 130.713524 
L 433.993227 127.078863 
L 435.703925 49.539428 
L 439.125319 98.001575 
L 440.836017 66.50118 
L 442.546714 176.752563 
L 444.257411 46.510544 
L 445.968109 84.674485 
L 447.678806 35.606561 
L 449.389503 124.049979 
L 451.100201 137.982846 
L 452.810898 47.116321 
L 454.521595 66.50118 
L 456.232293 70.741618 
L 457.94299 82.251377 
L 459.653687 68.924287 
L 461.364385 73.164725 
L 463.075082 155.550374 
L 464.785779 48.933652 
L 466.496477 112.540219 
L 468.207174 200.983636 
L 469.917871 157.367704 
L 471.628569 63.472296 
L 473.339266 109.511335 
L 475.049963 50.145205 
L 476.760661 77.405163 
L 478.471358 64.683849 
L 480.182055 134.348185 
L 481.892753 45.298991 
L 483.60345 41.66433 
L 485.314147 66.50118 
L 487.024845 66.50118 
L 488.735542 46.510544 
L 490.44624 44.087437 
L 492.156937 84.674485 
L 493.867634 168.271687 
L 495.578332 136.771292 
L 497.289029 169.483241 
L 498.999726 123.444202 
L 500.710424 45.298991 
L 502.421121 64.078072 
L 504.131818 134.953962 
L 504.131818 134.953962 
" clip-path="url(#pfeb2331589)" style="fill: none; stroke: #99004d; stroke-width: 0.8; stroke-linecap: square"/>
   </g>
   <g id="patch_3">
    <path d="M 56.87 210.04 
L 56.87 10.8 
" style="fill: none; stroke: #000000; stroke-width: 0.8; stroke-linejoin: miter; stroke-linecap: square"/>
   </g>
   <g id="patch_4">
    <path d="M 525.43 210.04 
L 525.43 10.8 
" style="fill: none; stroke: #000000; stroke-width: 0.8; stroke-linejoin: miter; stroke-linecap: square"/>
   </g>
   <g id="patch_5">
    <path d="M 56.87 210.04 
L 525.43 210.04 
" style="fill: none; stroke: #000000; stroke-width: 0.8; stroke-linejoin: miter; stroke-linecap: square"/>
   </g>
   <g id="patch_6">
    <path d="M 56.87 10.8 
L 525.43 10.8 
" style="fill: none; stroke: #000000; stroke-width: 0.8; stroke-linejoin: miter; stroke-linecap: square"/>
   </g>
  </g>
  <g id="axes_2">
   <g id="matplotlib.axis_3">
    <g id="ytick_8">
     <g id="line2d_15">
      <defs>
       <path id="mc26cef3a52" d="M 0 0 
L 3.5 0 
" style="stroke: #000000; stroke-width: 0.8"/>
      </defs>
      <g>
       <use xlink:href="#mc26cef3a52" x="525.43" y="200.983636" style="stroke: #000000; stroke-width: 0.8"/>
      </g>
     </g>
     <g id="text_16">
      <text style="font: 10px 'DejaVu Sans', 'Bitstream Vera Sans', 'Computer Modern Sans Serif', 'Lucida Grande', 'Verdana', 'Geneva', 'Lucid', 'Arial', 'Helvetica', 'Avant Garde', sans-serif; text-anchor: start" x="532.43" y="204.782855" transform="rotate(-0 532.43 204.782855)">0</text>
     </g>
    </g>
    <g id="ytick_9">
     <g id="line2d_16">
      <g>
       <use xlink:href="#mc26cef3a52" x="525.43" y="177.1511" style="stroke: #000000; stroke-width: 0.8"/>
      </g>
     </g>
     <g id="text_17">
      <text style="font: 10px 'DejaVu Sans', 'Bitstream Vera Sans', 'Computer Modern Sans Serif', 'Lucida Grande', 'Verdana', 'Geneva', 'Lucid', 'Arial', 'Helvetica', 'Avant Garde', sans-serif; text-anchor: start" x="532.43" y="180.950319" transform="rotate(-0 532.43 180.950319)">5</text>
     </g>
    </g>
    <g id="ytick_10">
     <g id="line2d_17">
      <g>
       <use xlink:href="#mc26cef3a52" x="525.43" y="153.318565" style="stroke: #000000; stroke-width: 0.8"/>
      </g>
     </g>
     <g id="text_18">
      <text style="font: 10px 'DejaVu Sans', 'Bitstream Vera Sans', 'Computer Modern Sans Serif', 'Lucida Grande', 'Verdana', 'Geneva', 'Lucid', 'Arial', 'Helvetica', 'Avant Garde', sans-serif; text-anchor: start" x="532.43" y="157.117783" transform="rotate(-0 532.43 157.117783)">10</text>
     </g>
    </g>
    <g id="ytick_11">
     <g id="line2d_18">
      <g>
       <use xlink:href="#mc26cef3a52" x="525.43" y="129.486029" style="stroke: #000000; stroke-width: 0.8"/>
      </g>
     </g>
     <g id="text_19">
      <text style="font: 10px 'DejaVu Sans', 'Bitstream Vera Sans', 'Computer Modern Sans Serif', 'Lucida Grande', 'Verdana', 'Geneva', 'Lucid', 'Arial', 'Helvetica', 'Avant Garde', sans-serif; text-anchor: start" x="532.43" y="133.285247" transform="rotate(-0 532.43 133.285247)">15</text>
     </g>
    </g>
    <g id="ytick_12">
     <g id="line2d_19">
      <g>
       <use xlink:href="#mc26cef3a52" x="525.43" y="105.653493" style="stroke: #000000; stroke-width: 0.8"/>
      </g>
     </g>
     <g id="text_20">
      <text style="font: 10px 'DejaVu Sans', 'Bitstream Vera Sans', 'Computer Modern Sans Serif', 'Lucida Grande', 'Verdana', 'Geneva', 'Lucid', 'Arial', 'Helvetica', 'Avant Garde', sans-serif; text-anchor: start" x="532.43" y="109.452712" transform="rotate(-0 532.43 109.452712)">20</text>
     </g>
    </g>
    <g id="ytick_13">
     <g id="line2d_20">
      <g>
       <use xlink:href="#mc26cef3a52" x="525.43" y="81.820957" style="stroke: #000000; stroke-width: 0.8"/>
      </g>
     </g>
     <g id="text_21">
      <text style="font: 10px 'DejaVu Sans', 'Bitstream Vera Sans', 'Computer Modern Sans Serif', 'Lucida Grande', 'Verdana', 'Geneva', 'Lucid', 'Arial', 'Helvetica', 'Avant Garde', sans-serif; text-anchor: start" x="532.43" y="85.620176" transform="rotate(-0 532.43 85.620176)">25</text>
     </g>
    </g>
    <g id="ytick_14">
     <g id="line2d_21">
      <g>
       <use xlink:href="#mc26cef3a52" x="525.43" y="57.988421" style="stroke: #000000; stroke-width: 0.8"/>
      </g>
     </g>
     <g id="text_22">
      <text style="font: 10px 'DejaVu Sans', 'Bitstream Vera Sans', 'Computer Modern Sans Serif', 'Lucida Grande', 'Verdana', 'Geneva', 'Lucid', 'Arial', 'Helvetica', 'Avant Garde', sans-serif; text-anchor: start" x="532.43" y="61.78764" transform="rotate(-0 532.43 61.78764)">30</text>
     </g>
    </g>
    <g id="ytick_15">
     <g id="line2d_22">
      <g>
       <use xlink:href="#mc26cef3a52" x="525.43" y="34.155885" style="stroke: #000000; stroke-width: 0.8"/>
      </g>
     </g>
     <g id="text_23">
      <text style="font: 10px 'DejaVu Sans', 'Bitstream Vera Sans', 'Computer Modern Sans Serif', 'Lucida Grande', 'Verdana', 'Geneva', 'Lucid', 'Arial', 'Helvetica', 'Avant Garde', sans-serif; text-anchor: start" x="532.43" y="37.955104" transform="rotate(-0 532.43 37.955104)">35</text>
     </g>
    </g>
    <g id="text_24">
     <text style="font: 10px 'DejaVu Sans', 'Bitstream Vera Sans', 'Computer Modern Sans Serif', 'Lucida Grande', 'Verdana', 'Geneva', 'Lucid', 'Arial', 'Helvetica', 'Avant Garde', sans-serif; text-anchor: middle" x="562.753438" y="110.42" transform="rotate(-90 562.753438 110.42)">hw(data)</text>
    </g>
   </g>
   <g id="line2d_23">
    <path d="M 78.168182 134.252536 
L 79.878879 81.820957 
L 81.589576 53.221914 
L 83.300274 86.587464 
L 85.010971 129.486029 
L 86.721668 29.389378 
L 88.432366 124.719522 
L 90.143063 172.384593 
L 91.85376 172.384593 
L 93.564458 110.42 
L 95.275155 158.085072 
L 96.985853 38.922392 
L 98.69655 43.6889 
L 100.407247 72.287943 
L 102.117945 67.521435 
L 103.828642 38.922392 
L 105.539339 57.988421 
L 107.250037 91.353971 
L 108.960734 62.754928 
L 110.671431 148.552057 
L 112.382129 119.953014 
L 114.092826 96.120478 
L 115.803523 43.6889 
L 117.514221 134.252536 
L 119.224918 62.754928 
L 120.935615 158.085072 
L 122.646313 100.886986 
L 124.35701 62.754928 
L 126.067707 67.521435 
L 127.778405 67.521435 
L 129.489102 119.953014 
L 131.199799 77.05445 
L 132.910497 105.653493 
L 134.621194 139.019043 
L 136.331891 34.155885 
L 138.042589 172.384593 
L 139.753286 200.983636 
L 141.463983 86.587464 
L 143.174681 196.217129 
L 144.885378 53.221914 
L 146.596075 57.988421 
L 148.306773 67.521435 
L 150.01747 29.389378 
L 151.728167 62.754928 
L 153.438865 148.552057 
L 155.149562 115.186507 
L 156.860259 72.287943 
L 158.570957 96.120478 
L 160.281654 81.820957 
L 161.992351 143.78555 
L 163.703049 67.521435 
L 165.413746 57.988421 
L 167.124443 43.6889 
L 168.835141 162.851579 
L 170.545838 105.653493 
L 172.256535 139.019043 
L 173.967233 105.653493 
L 175.67793 143.78555 
L 177.388627 143.78555 
L 179.099325 134.252536 
L 180.810022 57.988421 
L 182.520719 110.42 
L 185.942114 43.6889 
L 187.652811 105.653493 
L 189.363509 158.085072 
L 191.074206 67.521435 
L 192.784903 48.455407 
L 194.495601 57.988421 
L 196.206298 53.221914 
L 197.916995 129.486029 
L 199.627693 86.587464 
L 201.33839 119.953014 
L 203.049087 72.287943 
L 204.759785 72.287943 
L 206.470482 124.719522 
L 208.181179 153.318565 
L 209.891877 177.1511 
L 211.602574 53.221914 
L 213.313271 38.922392 
L 215.023969 57.988421 
L 216.734666 172.384593 
L 218.445363 105.653493 
L 220.156061 62.754928 
L 221.866758 153.318565 
L 223.577455 67.521435 
L 225.288153 72.287943 
L 226.99885 53.221914 
L 228.709547 139.019043 
L 230.420245 86.587464 
L 232.130942 124.719522 
L 233.841639 57.988421 
L 235.552337 105.653493 
L 237.263034 67.521435 
L 238.973731 124.719522 
L 240.684429 57.988421 
L 242.395126 53.221914 
L 244.105823 96.120478 
L 245.816521 57.988421 
L 247.527218 43.6889 
L 249.237915 72.287943 
L 250.948613 139.019043 
L 252.65931 53.221914 
L 254.370007 43.6889 
L 256.080705 77.05445 
L 257.791402 181.917608 
L 259.502099 115.186507 
L 261.212797 62.754928 
L 262.923494 162.851579 
L 264.634191 110.42 
L 266.344889 139.019043 
L 268.055586 162.851579 
L 269.766283 115.186507 
L 271.476981 62.754928 
L 273.187678 62.754928 
L 274.898375 53.221914 
L 276.609073 200.983636 
L 278.31977 181.917608 
L 280.030467 77.05445 
L 281.741165 139.019043 
L 283.451862 177.1511 
L 285.162559 67.521435 
L 286.873257 110.42 
L 288.583954 96.120478 
L 290.294651 148.552057 
L 292.005349 181.917608 
L 293.716046 167.618086 
L 295.426743 43.6889 
L 297.137441 119.953014 
L 298.848138 72.287943 
L 300.558835 43.6889 
L 302.269533 91.353971 
L 303.98023 77.05445 
L 305.690927 129.486029 
L 307.401625 38.922392 
L 309.112322 177.1511 
L 310.823019 110.42 
L 312.533717 62.754928 
L 314.244414 139.019043 
L 315.955111 119.953014 
L 317.665809 77.05445 
L 319.376506 129.486029 
L 321.087203 129.486029 
L 322.797901 53.221914 
L 324.508598 148.552057 
L 326.219295 148.552057 
L 327.929993 53.221914 
L 329.64069 62.754928 
L 331.351387 38.922392 
L 333.062085 19.856364 
L 334.772782 143.78555 
L 336.483479 124.719522 
L 338.194177 91.353971 
L 339.904874 86.587464 
L 341.615571 139.019043 
L 343.326269 77.05445 
L 345.036966 191.450622 
L 346.747663 181.917608 
L 348.458361 62.754928 
L 350.169058 105.653493 
L 351.879755 86.587464 
L 353.590453 124.719522 
L 355.30115 53.221914 
L 357.011847 100.886986 
L 358.722545 167.618086 
L 360.433242 124.719522 
L 362.143939 67.521435 
L 363.854637 191.450622 
L 365.565334 124.719522 
L 367.276031 38.922392 
L 368.986729 105.653493 
L 370.697426 105.653493 
L 372.408123 43.6889 
L 374.118821 91.353971 
L 375.829518 153.318565 
L 377.540215 38.922392 
L 379.250913 96.120478 
L 380.96161 86.587464 
L 382.672307 124.719522 
L 384.383005 81.820957 
L 386.093702 196.217129 
L 387.804399 110.42 
L 389.515097 57.988421 
L 391.225794 191.450622 
L 392.936491 119.953014 
L 394.647189 200.983636 
L 396.357886 143.78555 
L 398.068583 43.6889 
L 399.779281 196.217129 
L 401.489978 43.6889 
L 403.200675 57.988421 
L 404.911373 119.953014 
L 406.62207 86.587464 
L 408.332767 162.851579 
L 410.043465 162.851579 
L 411.754162 105.653493 
L 413.464859 43.6889 
L 415.175557 72.287943 
L 416.886254 115.186507 
L 418.596951 48.455407 
L 420.307649 105.653493 
L 422.018346 72.287943 
L 423.729043 91.353971 
L 425.439741 72.287943 
L 427.150438 81.820957 
L 428.861135 81.820957 
L 430.571833 148.552057 
L 432.28253 167.618086 
L 433.993227 167.618086 
L 435.703925 86.587464 
L 437.414622 119.953014 
L 439.125319 139.019043 
L 440.836017 100.886986 
L 442.546714 191.450622 
L 444.257411 43.6889 
L 445.968109 124.719522 
L 447.678806 57.988421 
L 449.389503 162.851579 
L 451.100201 172.384593 
L 452.810898 43.6889 
L 454.521595 115.186507 
L 456.232293 110.42 
L 457.94299 124.719522 
L 459.653687 110.42 
L 461.364385 100.886986 
L 463.075082 181.917608 
L 464.785779 62.754928 
L 466.496477 153.318565 
L 468.207174 200.983636 
L 469.917871 181.917608 
L 471.628569 100.886986 
L 473.339266 148.552057 
L 475.049963 43.6889 
L 476.760661 124.719522 
L 478.471358 72.287943 
L 480.182055 167.618086 
L 481.892753 53.221914 
L 483.60345 86.587464 
L 485.314147 96.120478 
L 487.024845 67.521435 
L 488.735542 62.754928 
L 490.44624 62.754928 
L 492.156937 119.953014 
L 493.867634 186.684115 
L 495.578332 172.384593 
L 497.289029 186.684115 
L 498.999726 162.851579 
L 500.710424 53.221914 
L 502.421121 91.353971 
L 504.131818 167.618086 
L 504.131818 167.618086 
" clip-path="url(#pfeb2331589)" style="fill: none; stroke: #235996; stroke-width: 0.8; stroke-linecap: square"/>
   </g>
   <g id="patch_7">
    <path d="M 56.87 210.04 
L 56.87 10.8 
" style="fill: none; stroke: #000000; stroke-width: 0.8; stroke-linejoin: miter; stroke-linecap: square"/>
   </g>
   <g id="patch_8">
    <path d="M 525.43 210.04 
L 525.43 10.8 
" style="fill: none; stroke: #000000; stroke-width: 0.8; stroke-linejoin: miter; stroke-linecap: square"/>
   </g>
   <g id="patch_9">
    <path d="M 56.87 210.04 
L 525.43 210.04 
" style="fill: none; stroke: #000000; stroke-width: 0.8; stroke-linejoin: miter; stroke-linecap: square"/>
   </g>
   <g id="patch_10">
    <path d="M 56.87 10.8 
L 525.43 10.8 
" style="fill: none; stroke: #000000; stroke-width: 0.8; stroke-linejoin: miter; stroke-linecap: square"/>
   </g>
   <g id="legend_1">
    <g id="patch_11">
     <path d="M 183.934125 43.4565 
L 398.365875 43.4565 
Q 401.245875 43.4565 401.245875 40.5765 
L 401.245875 20.88 
Q 401.245875 18 398.365875 18 
L 183.934125 18 
Q 181.054125 18 181.054125 20.88 
L 181.054125 40.5765 
Q 181.054125 43.4565 183.934125 43.4565 
z
" style="fill: #ffffff; opacity: 0.8; stroke: #000000; stroke-linejoin: miter"/>
    </g>
    <g id="line2d_24">
     <path d="M 186.814125 29.66175 
L 201.214125 29.66175 
L 215.614125 29.66175 
" style="fill: none; stroke: #99004d; stroke-width: 0.8; stroke-linecap: square"/>
    </g>
    <g id="text_25">
     <text style="font: 14.4px 'DejaVu Sans', 'Bitstream Vera Sans', 'Computer Modern Sans Serif', 'Lucida Grande', 'Verdana', 'Geneva', 'Lucid', 'Arial', 'Helvetica', 'Avant Garde', sans-serif; text-anchor: start" x="227.134125" y="34.70175" transform="rotate(-0 227.134125 34.70175)">power</text>
    </g>
    <g id="line2d_25">
     <path d="M 300.443625 29.66175 
L 314.843625 29.66175 
L 329.243625 29.66175 
" style="fill: none; stroke: #235996; stroke-width: 0.8; stroke-linecap: square"/>
    </g>
    <g id="text_26">
     <text style="font: 14.4px 'DejaVu Sans', 'Bitstream Vera Sans', 'Computer Modern Sans Serif', 'Lucida Grande', 'Verdana', 'Geneva', 'Lucid', 'Arial', 'Helvetica', 'Avant Garde', sans-serif; text-anchor: start" x="340.763625" y="34.70175" transform="rotate(-0 340.763625 34.70175)">hw(rs1)</text>
    </g>
   </g>
  </g>
 </g>
 <defs>
  <clipPath id="pfeb2331589">
   <rect x="56.87" y="10.8" width="468.56" height="199.24"/>
  </clipPath>
 </defs>
</svg>
