<?xml version="1.0" encoding="utf-8" standalone="no"?>
<!DOCTYPE svg PUBLIC "-//W3C//DTD SVG 1.1//EN"
  "http://www.w3.org/Graphics/SVG/1.1/DTD/svg11.dtd">
<svg xmlns:xlink="http://www.w3.org/1999/xlink" width="576pt" height="252pt" viewBox="0 0 576 252" xmlns="http://www.w3.org/2000/svg" version="1.1">
 <metadata>
  <rdf:RDF xmlns:dc="http://purl.org/dc/elements/1.1/" xmlns:cc="http://creativecommons.org/ns#" xmlns:rdf="http://www.w3.org/1999/02/22-rdf-syntax-ns#">
   <cc:Work>
    <dc:type rdf:resource="http://purl.org/dc/dcmitype/StillImage"/>
    <dc:date>2023-12-06T21:47:59.250306</dc:date>
    <dc:format>image/svg+xml</dc:format>
    <dc:creator>
     <cc:Agent>
      <dc:title>Matplotlib v3.7.4, https://matplotlib.org/</dc:title>
     </cc:Agent>
    </dc:creator>
   </cc:Work>
  </rdf:RDF>
 </metadata>
 <defs>
  <style type="text/css">*{stroke-linejoin: round; stroke-linecap: butt}</style>
 </defs>
 <g id="figure_1">
  <g id="patch_1">
   <path d="M 0 252 
L 576 252 
L 576 0 
L 0 0 
z
" style="fill: #ffffff"/>
  </g>
  <g id="axes_1">
   <g id="patch_2">
    <path d="M 56.87 210.04 
L 525.43 210.04 
L 525.43 10.8 
L 56.87 10.8 
z
" style="fill: #ffffff"/>
   </g>
   <g id="matplotlib.axis_1">
    <g id="xtick_1">
     <g id="line2d_1">
      <defs>
       <path id="meb7e176775" d="M 0 0 
L 0 3.5 
" style="stroke: #000000; stroke-width: 0.8"/>
      </defs>
      <g>
       <use xlink:href="#meb7e176775" x="78.168182" y="210.04" style="stroke: #000000; stroke-width: 0.8"/>
      </g>
     </g>
     <g id="text_1">
      <text style="font: 10px 'DejaVu Sans', 'Bitstream Vera Sans', 'Computer Modern Sans Serif', 'Lucida Grande', 'Verdana', 'Geneva', 'Lucid', 'Arial', 'Helvetica', 'Avant Garde', sans-serif; text-anchor: middle" x="78.168182" y="224.638438" transform="rotate(-0 78.168182 224.638438)">0</text>
     </g>
    </g>
    <g id="xtick_2">
     <g id="line2d_2">
      <g>
       <use xlink:href="#meb7e176775" x="163.703049" y="210.04" style="stroke: #000000; stroke-width: 0.8"/>
      </g>
     </g>
     <g id="text_2">
      <text style="font: 10px 'DejaVu Sans', 'Bitstream Vera Sans', 'Computer Modern Sans Serif', 'Lucida Grande', 'Verdana', 'Geneva', 'Lucid', 'Arial', 'Helvetica', 'Avant Garde', sans-serif; text-anchor: middle" x="163.703049" y="224.638438" transform="rotate(-0 163.703049 224.638438)">50</text>
     </g>
    </g>
    <g id="xtick_3">
     <g id="line2d_3">
      <g>
       <use xlink:href="#meb7e176775" x="249.237915" y="210.04" style="stroke: #000000; stroke-width: 0.8"/>
      </g>
     </g>
     <g id="text_3">
      <text style="font: 10px 'DejaVu Sans', 'Bitstream Vera Sans', 'Computer Modern Sans Serif', 'Lucida Grande', 'Verdana', 'Geneva', 'Lucid', 'Arial', 'Helvetica', 'Avant Garde', sans-serif; text-anchor: middle" x="249.237915" y="224.638438" transform="rotate(-0 249.237915 224.638438)">100</text>
     </g>
    </g>
    <g id="xtick_4">
     <g id="line2d_4">
      <g>
       <use xlink:href="#meb7e176775" x="334.772782" y="210.04" style="stroke: #000000; stroke-width: 0.8"/>
      </g>
     </g>
     <g id="text_4">
      <text style="font: 10px 'DejaVu Sans', 'Bitstream Vera Sans', 'Computer Modern Sans Serif', 'Lucida Grande', 'Verdana', 'Geneva', 'Lucid', 'Arial', 'Helvetica', 'Avant Garde', sans-serif; text-anchor: middle" x="334.772782" y="224.638438" transform="rotate(-0 334.772782 224.638438)">150</text>
     </g>
    </g>
    <g id="xtick_5">
     <g id="line2d_5">
      <g>
       <use xlink:href="#meb7e176775" x="420.307649" y="210.04" style="stroke: #000000; stroke-width: 0.8"/>
      </g>
     </g>
     <g id="text_5">
      <text style="font: 10px 'DejaVu Sans', 'Bitstream Vera Sans', 'Computer Modern Sans Serif', 'Lucida Grande', 'Verdana', 'Geneva', 'Lucid', 'Arial', 'Helvetica', 'Avant Garde', sans-serif; text-anchor: middle" x="420.307649" y="224.638438" transform="rotate(-0 420.307649 224.638438)">200</text>
     </g>
    </g>
    <g id="xtick_6">
     <g id="line2d_6">
      <g>
       <use xlink:href="#meb7e176775" x="505.842516" y="210.04" style="stroke: #000000; stroke-width: 0.8"/>
      </g>
     </g>
     <g id="text_6">
      <text style="font: 10px 'DejaVu Sans', 'Bitstream Vera Sans', 'Computer Modern Sans Serif', 'Lucida Grande', 'Verdana', 'Geneva', 'Lucid', 'Arial', 'Helvetica', 'Avant Garde', sans-serif; text-anchor: middle" x="505.842516" y="224.638438" transform="rotate(-0 505.842516 224.638438)">250</text>
     </g>
    </g>
    <g id="text_7">
     <text style="font: 10px 'DejaVu Sans', 'Bitstream Vera Sans', 'Computer Modern Sans Serif', 'Lucida Grande', 'Verdana', 'Geneva', 'Lucid', 'Arial', 'Helvetica', 'Avant Garde', sans-serif; text-anchor: middle" x="291.15" y="238.316563" transform="rotate(-0 291.15 238.316563)">Cycles</text>
    </g>
   </g>
   <g id="matplotlib.axis_2">
    <g id="ytick_1">
     <g id="line2d_7">
      <defs>
       <path id="mdd5232c417" d="M 0 0 
L -3.5 0 
" style="stroke: #000000; stroke-width: 0.8"/>
      </defs>
      <g>
       <use xlink:href="#mdd5232c417" x="56.87" y="201.573627" style="stroke: #000000; stroke-width: 0.8"/>
      </g>
     </g>
     <g id="text_8">
      <text style="font: 10px 'DejaVu Sans', 'Bitstream Vera Sans', 'Computer Modern Sans Serif', 'Lucida Grande', 'Verdana', 'Geneva', 'Lucid', 'Arial', 'Helvetica', 'Avant Garde', sans-serif; text-anchor: end" x="49.87" y="205.372846" transform="rotate(-0 49.87 205.372846)">0</text>
     </g>
    </g>
    <g id="ytick_2">
     <g id="line2d_8">
      <g>
       <use xlink:href="#mdd5232c417" x="56.87" y="172.074072" style="stroke: #000000; stroke-width: 0.8"/>
      </g>
     </g>
     <g id="text_9">
      <text style="font: 10px 'DejaVu Sans', 'Bitstream Vera Sans', 'Computer Modern Sans Serif', 'Lucida Grande', 'Verdana', 'Geneva', 'Lucid', 'Arial', 'Helvetica', 'Avant Garde', sans-serif; text-anchor: end" x="49.87" y="175.87329" transform="rotate(-0 49.87 175.87329)">50</text>
     </g>
    </g>
    <g id="ytick_3">
     <g id="line2d_9">
      <g>
       <use xlink:href="#mdd5232c417" x="56.87" y="142.574516" style="stroke: #000000; stroke-width: 0.8"/>
      </g>
     </g>
     <g id="text_10">
      <text style="font: 10px 'DejaVu Sans', 'Bitstream Vera Sans', 'Computer Modern Sans Serif', 'Lucida Grande', 'Verdana', 'Geneva', 'Lucid', 'Arial', 'Helvetica', 'Avant Garde', sans-serif; text-anchor: end" x="49.87" y="146.373735" transform="rotate(-0 49.87 146.373735)">100</text>
     </g>
    </g>
    <g id="ytick_4">
     <g id="line2d_10">
      <g>
       <use xlink:href="#mdd5232c417" x="56.87" y="113.07496" style="stroke: #000000; stroke-width: 0.8"/>
      </g>
     </g>
     <g id="text_11">
      <text style="font: 10px 'DejaVu Sans', 'Bitstream Vera Sans', 'Computer Modern Sans Serif', 'Lucida Grande', 'Verdana', 'Geneva', 'Lucid', 'Arial', 'Helvetica', 'Avant Garde', sans-serif; text-anchor: end" x="49.87" y="116.874179" transform="rotate(-0 49.87 116.874179)">150</text>
     </g>
    </g>
    <g id="ytick_5">
     <g id="line2d_11">
      <g>
       <use xlink:href="#mdd5232c417" x="56.87" y="83.575404" style="stroke: #000000; stroke-width: 0.8"/>
      </g>
     </g>
     <g id="text_12">
      <text style="font: 10px 'DejaVu Sans', 'Bitstream Vera Sans', 'Computer Modern Sans Serif', 'Lucida Grande', 'Verdana', 'Geneva', 'Lucid', 'Arial', 'Helvetica', 'Avant Garde', sans-serif; text-anchor: end" x="49.87" y="87.374623" transform="rotate(-0 49.87 87.374623)">200</text>
     </g>
    </g>
    <g id="ytick_6">
     <g id="line2d_12">
      <g>
       <use xlink:href="#mdd5232c417" x="56.87" y="54.075848" style="stroke: #000000; stroke-width: 0.8"/>
      </g>
     </g>
     <g id="text_13">
      <text style="font: 10px 'DejaVu Sans', 'Bitstream Vera Sans', 'Computer Modern Sans Serif', 'Lucida Grande', 'Verdana', 'Geneva', 'Lucid', 'Arial', 'Helvetica', 'Avant Garde', sans-serif; text-anchor: end" x="49.87" y="57.875067" transform="rotate(-0 49.87 57.875067)">250</text>
     </g>
    </g>
    <g id="ytick_7">
     <g id="line2d_13">
      <g>
       <use xlink:href="#mdd5232c417" x="56.87" y="24.576293" style="stroke: #000000; stroke-width: 0.8"/>
      </g>
     </g>
     <g id="text_14">
      <text style="font: 10px 'DejaVu Sans', 'Bitstream Vera Sans', 'Computer Modern Sans Serif', 'Lucida Grande', 'Verdana', 'Geneva', 'Lucid', 'Arial', 'Helvetica', 'Avant Garde', sans-serif; text-anchor: end" x="49.87" y="28.375511" transform="rotate(-0 49.87 28.375511)">300</text>
     </g>
    </g>
    <g id="text_15">
     <text style="font: 10px 'DejaVu Sans', 'Bitstream Vera Sans', 'Computer Modern Sans Serif', 'Lucida Grande', 'Verdana', 'Geneva', 'Lucid', 'Arial', 'Helvetica', 'Avant Garde', sans-serif; text-anchor: middle" x="18.702813" y="110.42" transform="rotate(-90 18.702813 110.42)">power (uW)</text>
    </g>
   </g>
   <g id="line2d_14">
    <path d="M 78.168182 71.775582 
L 79.878879 72.365573 
L 81.589576 126.644756 
L 83.300274 87.705342 
L 85.010971 70.5956 
L 86.721668 77.085502 
L 88.432366 62.925715 
L 90.143063 46.995955 
L 91.85376 105.405076 
L 93.564458 47.585946 
L 95.275155 74.725537 
L 96.985853 90.065306 
L 98.69655 165.584169 
L 100.407247 73.545555 
L 102.117945 35.196133 
L 103.828642 34.01615 
L 105.539339 58.795777 
L 107.250037 48.765928 
L 108.960734 39.916062 
L 110.671431 61.155742 
L 112.382129 46.995955 
L 114.092826 110.125004 
L 115.803523 43.456008 
L 117.514221 79.445466 
L 119.224918 53.485857 
L 120.935615 48.765928 
L 122.646313 55.255831 
L 124.35701 102.45512 
L 126.067707 63.515706 
L 127.778405 60.565751 
L 129.489102 52.895866 
L 131.199799 169.124116 
L 132.910497 53.485857 
L 134.621194 62.925715 
L 136.331891 82.395422 
L 138.042589 76.495511 
L 139.753286 67.645644 
L 141.463983 68.235635 
L 143.174681 45.815973 
L 144.885378 41.096044 
L 146.596075 59.97576 
L 148.306773 48.175937 
L 150.01747 62.335724 
L 151.728167 108.945022 
L 153.438865 61.155742 
L 155.149562 44.635991 
L 156.860259 19.856364 
L 158.570957 31.656186 
L 160.281654 93.605253 
L 161.992351 48.175937 
L 163.703049 71.185591 
L 165.413746 48.765928 
L 167.124443 75.90552 
L 168.835141 70.005609 
L 170.545838 37.556097 
L 172.256535 48.175937 
L 173.967233 189.183814 
L 175.67793 189.183814 
L 177.388627 117.204898 
L 179.099325 85.345378 
L 180.810022 42.866017 
L 182.520719 149.064418 
L 184.231417 54.075848 
L 185.942114 189.183814 
L 187.652811 132.544667 
L 189.363509 41.096044 
L 191.074206 97.1452 
L 192.784903 123.104809 
L 194.495601 52.895866 
L 196.206298 31.656186 
L 197.916995 46.995955 
L 199.627693 55.255831 
L 201.33839 73.545555 
L 203.049087 93.605253 
L 204.759785 136.084614 
L 206.470482 138.444578 
L 208.181179 44.635991 
L 209.891877 50.535902 
L 211.602574 84.165395 
L 213.313271 75.315529 
L 215.023969 57.615795 
L 216.734666 55.255831 
L 218.445363 59.97576 
L 220.156061 44.635991 
L 221.866758 57.615795 
L 223.577455 79.445466 
L 225.288153 29.296221 
L 226.99885 27.526248 
L 228.709547 87.705342 
L 230.420245 41.096044 
L 232.130942 50.535902 
L 233.841639 37.556097 
L 235.552337 76.495511 
L 237.263034 58.795777 
L 238.973731 199.803654 
L 240.684429 54.075848 
L 242.395126 79.445466 
L 244.105823 37.556097 
L 245.816521 32.836168 
L 247.527218 58.795777 
L 249.237915 125.464773 
L 250.948613 144.344489 
L 252.65931 42.276026 
L 254.370007 71.185591 
L 256.080705 52.895866 
L 257.791402 43.456008 
L 259.502099 87.705342 
L 261.212797 41.686035 
L 262.923494 49.945911 
L 264.634191 44.635991 
L 266.344889 43.456008 
L 268.055586 67.055653 
L 269.766283 34.01615 
L 271.476981 70.005609 
L 273.187678 73.545555 
L 274.898375 86.52536 
L 276.609073 67.055653 
L 278.31977 38.736079 
L 280.030467 189.183814 
L 281.741165 199.803654 
L 283.451862 56.435813 
L 285.162559 188.003832 
L 286.873257 64.695688 
L 288.583954 133.724649 
L 290.294651 64.695688 
L 292.005349 37.556097 
L 293.716046 51.715884 
L 295.426743 50.535902 
L 297.137441 51.125893 
L 298.848138 50.535902 
L 300.558835 90.065306 
L 302.269533 48.175937 
L 303.98023 100.095155 
L 305.690927 70.005609 
L 307.401625 57.615795 
L 309.112322 59.97576 
L 310.823019 137.264596 
L 312.533717 52.895866 
L 314.244414 126.644756 
L 317.665809 81.21544 
L 321.087203 54.66584 
L 322.797901 65.875671 
L 324.508598 43.456008 
L 326.219295 58.205786 
L 327.929993 165.584169 
L 329.64069 151.424383 
L 331.351387 92.425271 
L 333.062085 199.803654 
L 334.772782 59.385768 
L 336.483479 188.003832 
L 338.194177 46.405964 
L 339.904874 45.225982 
L 341.615571 157.324294 
L 343.326269 81.805431 
L 345.036966 108.945022 
L 346.747663 41.096044 
L 348.458361 52.895866 
L 350.169058 49.945911 
L 351.879755 48.175937 
L 353.590453 46.995955 
L 355.30115 36.376115 
L 357.011847 49.355919 
L 358.722545 45.815973 
L 360.433242 49.355919 
L 362.143939 134.904631 
L 363.854637 79.445466 
L 365.565334 41.096044 
L 367.276031 55.255831 
L 368.986729 67.055653 
L 370.697426 38.736079 
L 372.408123 84.165395 
L 374.118821 86.52536 
L 375.829518 156.144312 
L 377.540215 51.715884 
L 379.250913 94.785235 
L 380.96161 103.635102 
L 382.672307 81.805431 
L 384.383005 57.615795 
L 386.093702 69.415617 
L 387.804399 78.265484 
L 389.515097 42.276026 
L 391.225794 62.335724 
L 392.936491 43.456008 
L 394.647189 45.815973 
L 396.357886 49.355919 
L 398.068583 28.116239 
L 399.779281 77.085502 
L 401.489978 46.995955 
L 403.200675 72.955564 
L 404.911373 38.736079 
L 406.62207 57.025804 
L 408.332767 54.66584 
L 410.043465 62.335724 
L 411.754162 88.885324 
L 413.464859 47.585946 
L 415.175557 81.21544 
L 416.886254 38.736079 
L 418.596951 77.085502 
L 420.307649 43.456008 
L 422.018346 133.724649 
L 423.729043 53.485857 
L 425.439741 46.995955 
L 427.150438 48.765928 
L 428.861135 176.204009 
L 430.571833 177.383992 
L 432.28253 144.344489 
L 433.993227 41.096044 
L 435.703925 178.563974 
L 437.414622 90.065306 
L 439.125319 84.165395 
L 440.836017 189.183814 
L 442.546714 68.235635 
L 444.257411 59.97576 
L 445.968109 78.265484 
L 447.678806 70.5956 
L 449.389503 72.955564 
L 451.100201 84.165395 
L 452.810898 21.626337 
L 454.521595 33.426159 
L 456.232293 199.803654 
L 457.94299 105.995067 
L 459.653687 121.924827 
L 461.364385 39.32607 
L 463.075082 153.784347 
L 464.785779 39.32607 
L 466.496477 137.264596 
L 468.207174 74.725537 
L 469.917871 177.383992 
L 471.628569 101.275138 
L 473.339266 157.324294 
L 475.049963 133.724649 
L 476.760661 59.385768 
L 478.471358 200.983636 
L 480.182055 105.405076 
L 481.892753 36.376115 
L 483.60345 135.494622 
L 485.314147 80.035458 
L 487.024845 74.725537 
L 488.735542 46.995955 
L 490.44624 111.304987 
L 492.156937 42.866017 
L 493.867634 41.096044 
L 495.578332 133.724649 
L 497.289029 35.196133 
L 498.999726 85.935369 
L 500.710424 199.803654 
L 502.421121 52.305875 
L 504.131818 45.815973 
L 504.131818 45.815973 
" clip-path="url(#p909ecd1e6a)" style="fill: none; stroke: #99004d; stroke-width: 0.8; stroke-linecap: square"/>
   </g>
   <g id="patch_3">
    <path d="M 56.87 210.04 
L 56.87 10.8 
" style="fill: none; stroke: #000000; stroke-width: 0.8; stroke-linejoin: miter; stroke-linecap: square"/>
   </g>
   <g id="patch_4">
    <path d="M 525.43 210.04 
L 525.43 10.8 
" style="fill: none; stroke: #000000; stroke-width: 0.8; stroke-linejoin: miter; stroke-linecap: square"/>
   </g>
   <g id="patch_5">
    <path d="M 56.87 210.04 
L 525.43 210.04 
" style="fill: none; stroke: #000000; stroke-width: 0.8; stroke-linejoin: miter; stroke-linecap: square"/>
   </g>
   <g id="patch_6">
    <path d="M 56.87 10.8 
L 525.43 10.8 
" style="fill: none; stroke: #000000; stroke-width: 0.8; stroke-linejoin: miter; stroke-linecap: square"/>
   </g>
  </g>
  <g id="axes_2">
   <g id="matplotlib.axis_3">
    <g id="ytick_8">
     <g id="line2d_15">
      <defs>
       <path id="md7c801e728" d="M 0 0 
L 3.5 0 
" style="stroke: #000000; stroke-width: 0.8"/>
      </defs>
      <g>
       <use xlink:href="#md7c801e728" x="525.43" y="200.983636" style="stroke: #000000; stroke-width: 0.8"/>
      </g>
     </g>
     <g id="text_16">
      <text style="font: 10px 'DejaVu Sans', 'Bitstream Vera Sans', 'Computer Modern Sans Serif', 'Lucida Grande', 'Verdana', 'Geneva', 'Lucid', 'Arial', 'Helvetica', 'Avant Garde', sans-serif; text-anchor: start" x="532.43" y="204.782855" transform="rotate(-0 532.43 204.782855)">0</text>
     </g>
    </g>
    <g id="ytick_9">
     <g id="line2d_16">
      <g>
       <use xlink:href="#md7c801e728" x="525.43" y="176.506978" style="stroke: #000000; stroke-width: 0.8"/>
      </g>
     </g>
     <g id="text_17">
      <text style="font: 10px 'DejaVu Sans', 'Bitstream Vera Sans', 'Computer Modern Sans Serif', 'Lucida Grande', 'Verdana', 'Geneva', 'Lucid', 'Arial', 'Helvetica', 'Avant Garde', sans-serif; text-anchor: start" x="532.43" y="180.306197" transform="rotate(-0 532.43 180.306197)">5</text>
     </g>
    </g>
    <g id="ytick_10">
     <g id="line2d_17">
      <g>
       <use xlink:href="#md7c801e728" x="525.43" y="152.030319" style="stroke: #000000; stroke-width: 0.8"/>
      </g>
     </g>
     <g id="text_18">
      <text style="font: 10px 'DejaVu Sans', 'Bitstream Vera Sans', 'Computer Modern Sans Serif', 'Lucida Grande', 'Verdana', 'Geneva', 'Lucid', 'Arial', 'Helvetica', 'Avant Garde', sans-serif; text-anchor: start" x="532.43" y="155.829538" transform="rotate(-0 532.43 155.829538)">10</text>
     </g>
    </g>
    <g id="ytick_11">
     <g id="line2d_18">
      <g>
       <use xlink:href="#md7c801e728" x="525.43" y="127.553661" style="stroke: #000000; stroke-width: 0.8"/>
      </g>
     </g>
     <g id="text_19">
      <text style="font: 10px 'DejaVu Sans', 'Bitstream Vera Sans', 'Computer Modern Sans Serif', 'Lucida Grande', 'Verdana', 'Geneva', 'Lucid', 'Arial', 'Helvetica', 'Avant Garde', sans-serif; text-anchor: start" x="532.43" y="131.35288" transform="rotate(-0 532.43 131.35288)">15</text>
     </g>
    </g>
    <g id="ytick_12">
     <g id="line2d_19">
      <g>
       <use xlink:href="#md7c801e728" x="525.43" y="103.077002" style="stroke: #000000; stroke-width: 0.8"/>
      </g>
     </g>
     <g id="text_20">
      <text style="font: 10px 'DejaVu Sans', 'Bitstream Vera Sans', 'Computer Modern Sans Serif', 'Lucida Grande', 'Verdana', 'Geneva', 'Lucid', 'Arial', 'Helvetica', 'Avant Garde', sans-serif; text-anchor: start" x="532.43" y="106.876221" transform="rotate(-0 532.43 106.876221)">20</text>
     </g>
    </g>
    <g id="ytick_13">
     <g id="line2d_20">
      <g>
       <use xlink:href="#md7c801e728" x="525.43" y="78.600344" style="stroke: #000000; stroke-width: 0.8"/>
      </g>
     </g>
     <g id="text_21">
      <text style="font: 10px 'DejaVu Sans', 'Bitstream Vera Sans', 'Computer Modern Sans Serif', 'Lucida Grande', 'Verdana', 'Geneva', 'Lucid', 'Arial', 'Helvetica', 'Avant Garde', sans-serif; text-anchor: start" x="532.43" y="82.399563" transform="rotate(-0 532.43 82.399563)">25</text>
     </g>
    </g>
    <g id="ytick_14">
     <g id="line2d_21">
      <g>
       <use xlink:href="#md7c801e728" x="525.43" y="54.123686" style="stroke: #000000; stroke-width: 0.8"/>
      </g>
     </g>
     <g id="text_22">
      <text style="font: 10px 'DejaVu Sans', 'Bitstream Vera Sans', 'Computer Modern Sans Serif', 'Lucida Grande', 'Verdana', 'Geneva', 'Lucid', 'Arial', 'Helvetica', 'Avant Garde', sans-serif; text-anchor: start" x="532.43" y="57.922904" transform="rotate(-0 532.43 57.922904)">30</text>
     </g>
    </g>
    <g id="ytick_15">
     <g id="line2d_22">
      <g>
       <use xlink:href="#md7c801e728" x="525.43" y="29.647027" style="stroke: #000000; stroke-width: 0.8"/>
      </g>
     </g>
     <g id="text_23">
      <text style="font: 10px 'DejaVu Sans', 'Bitstream Vera Sans', 'Computer Modern Sans Serif', 'Lucida Grande', 'Verdana', 'Geneva', 'Lucid', 'Arial', 'Helvetica', 'Avant Garde', sans-serif; text-anchor: start" x="532.43" y="33.446246" transform="rotate(-0 532.43 33.446246)">35</text>
     </g>
    </g>
    <g id="text_24">
     <text style="font: 10px 'DejaVu Sans', 'Bitstream Vera Sans', 'Computer Modern Sans Serif', 'Lucida Grande', 'Verdana', 'Geneva', 'Lucid', 'Arial', 'Helvetica', 'Avant Garde', sans-serif; text-anchor: middle" x="562.753438" y="110.42" transform="rotate(-90 562.753438 110.42)">hw(data)</text>
    </g>
   </g>
   <g id="line2d_23">
    <path d="M 78.168182 93.286339 
L 79.878879 103.077002 
L 81.589576 161.820983 
L 83.300274 107.972334 
L 85.010971 83.495676 
L 86.721668 137.344324 
L 88.432366 73.705012 
L 90.143063 54.123686 
L 91.85376 142.239656 
L 93.564458 59.019017 
L 95.275155 122.658329 
L 96.985853 122.658329 
L 98.69655 186.297641 
L 100.407247 73.705012 
L 102.117945 29.647027 
L 103.828642 29.647027 
L 105.539339 83.495676 
L 107.250037 83.495676 
L 108.960734 49.228354 
L 110.671431 93.286339 
L 112.382129 59.019017 
L 114.092826 152.030319 
L 115.803523 49.228354 
L 117.514221 98.181671 
L 119.224918 59.019017 
L 120.935615 54.123686 
L 122.646313 54.123686 
L 124.35701 147.134988 
L 126.067707 98.181671 
L 127.778405 44.333022 
L 129.489102 44.333022 
L 131.199799 186.297641 
L 132.910497 83.495676 
L 134.621194 98.181671 
L 136.331891 117.762998 
L 138.042589 117.762998 
L 139.753286 103.077002 
L 141.463983 73.705012 
L 143.174681 68.809681 
L 144.885378 39.43769 
L 146.596075 68.809681 
L 148.306773 39.43769 
L 150.01747 73.705012 
L 151.728167 152.030319 
L 153.438865 88.391007 
L 155.149562 44.333022 
L 156.860259 34.542359 
L 158.570957 39.43769 
L 160.281654 132.448993 
L 161.992351 49.228354 
L 163.703049 78.600344 
L 165.413746 73.705012 
L 167.124443 112.867666 
L 168.835141 83.495676 
L 170.545838 34.542359 
L 172.256535 39.43769 
L 173.967233 196.088305 
L 175.67793 196.088305 
L 177.388627 152.030319 
L 179.099325 117.762998 
L 180.810022 49.228354 
L 182.520719 176.506978 
L 184.231417 59.019017 
L 185.942114 196.088305 
L 187.652811 161.820983 
L 189.363509 39.43769 
L 191.074206 147.134988 
L 192.784903 161.820983 
L 194.495601 59.019017 
L 196.206298 39.43769 
L 197.916995 49.228354 
L 199.627693 63.914349 
L 201.33839 112.867666 
L 203.049087 132.448993 
L 204.759785 171.611646 
L 206.470482 171.611646 
L 208.181179 63.914349 
L 209.891877 29.647027 
L 211.602574 122.658329 
L 213.313271 112.867666 
L 215.023969 44.333022 
L 218.445363 54.123686 
L 220.156061 29.647027 
L 221.866758 63.914349 
L 223.577455 127.553661 
L 225.288153 19.856364 
L 226.99885 63.914349 
L 228.709547 132.448993 
L 230.420245 49.228354 
L 232.130942 49.228354 
L 233.841639 44.333022 
L 235.552337 107.972334 
L 237.263034 83.495676 
L 238.973731 200.983636 
L 240.684429 34.542359 
L 242.395126 98.181671 
L 244.105823 39.43769 
L 245.816521 44.333022 
L 247.527218 54.123686 
L 249.237915 161.820983 
L 250.948613 171.611646 
L 252.65931 44.333022 
L 254.370007 98.181671 
L 256.080705 49.228354 
L 257.791402 44.333022 
L 259.502099 132.448993 
L 261.212797 59.019017 
L 262.923494 59.019017 
L 264.634191 44.333022 
L 266.344889 63.914349 
L 268.055586 93.286339 
L 269.766283 24.751695 
L 271.476981 98.181671 
L 273.187678 93.286339 
L 274.898375 127.553661 
L 276.609073 93.286339 
L 278.31977 44.333022 
L 280.030467 196.088305 
L 281.741165 200.983636 
L 283.451862 78.600344 
L 285.162559 196.088305 
L 286.873257 107.972334 
L 288.583954 166.716314 
L 290.294651 63.914349 
L 292.005349 34.542359 
L 293.716046 49.228354 
L 295.426743 73.705012 
L 297.137441 59.019017 
L 298.848138 68.809681 
L 300.558835 127.553661 
L 302.269533 73.705012 
L 303.98023 127.553661 
L 305.690927 88.391007 
L 307.401625 59.019017 
L 309.112322 83.495676 
L 310.823019 166.716314 
L 312.533717 44.333022 
L 314.244414 166.716314 
L 317.665809 127.553661 
L 319.376506 63.914349 
L 321.087203 54.123686 
L 322.797901 54.123686 
L 324.508598 34.542359 
L 326.219295 88.391007 
L 327.929993 186.297641 
L 329.64069 176.506978 
L 331.351387 132.448993 
L 333.062085 200.983636 
L 334.772782 88.391007 
L 336.483479 196.088305 
L 338.194177 63.914349 
L 339.904874 68.809681 
L 341.615571 181.40231 
L 343.326269 127.553661 
L 345.036966 137.344324 
L 346.747663 49.228354 
L 348.458361 59.019017 
L 350.169058 78.600344 
L 351.879755 83.495676 
L 353.590453 73.705012 
L 355.30115 59.019017 
L 357.011847 54.123686 
L 358.722545 63.914349 
L 360.433242 39.43769 
L 362.143939 171.611646 
L 363.854637 112.867666 
L 365.565334 34.542359 
L 367.276031 59.019017 
L 368.986729 112.867666 
L 370.697426 39.43769 
L 372.408123 122.658329 
L 374.118821 132.448993 
L 375.829518 181.40231 
L 377.540215 39.43769 
L 379.250913 132.448993 
L 380.96161 152.030319 
L 382.672307 93.286339 
L 384.383005 59.019017 
L 386.093702 83.495676 
L 387.804399 117.762998 
L 389.515097 44.333022 
L 391.225794 44.333022 
L 392.936491 63.914349 
L 394.647189 88.391007 
L 396.357886 49.228354 
L 398.068583 44.333022 
L 399.779281 112.867666 
L 401.489978 44.333022 
L 403.200675 88.391007 
L 404.911373 34.542359 
L 406.62207 68.809681 
L 410.043465 59.019017 
L 411.754162 122.658329 
L 413.464859 63.914349 
L 415.175557 107.972334 
L 416.886254 39.43769 
L 418.596951 122.658329 
L 420.307649 39.43769 
L 422.018346 171.611646 
L 423.729043 54.123686 
L 425.439741 39.43769 
L 427.150438 44.333022 
L 428.861135 191.192973 
L 430.571833 191.192973 
L 432.28253 176.506978 
L 433.993227 49.228354 
L 435.703925 191.192973 
L 437.414622 137.344324 
L 439.125319 117.762998 
L 440.836017 196.088305 
L 442.546714 83.495676 
L 444.257411 54.123686 
L 445.968109 98.181671 
L 447.678806 98.181671 
L 449.389503 103.077002 
L 451.100201 137.344324 
L 452.810898 39.43769 
L 454.521595 44.333022 
L 456.232293 200.983636 
L 457.94299 147.134988 
L 459.653687 156.925651 
L 461.364385 34.542359 
L 463.075082 176.506978 
L 464.785779 34.542359 
L 466.496477 171.611646 
L 468.207174 107.972334 
L 469.917871 191.192973 
L 471.628569 132.448993 
L 473.339266 181.40231 
L 475.049963 166.716314 
L 476.760661 103.077002 
L 478.471358 200.983636 
L 480.182055 147.134988 
L 481.892753 44.333022 
L 483.60345 161.820983 
L 485.314147 122.658329 
L 487.024845 98.181671 
L 488.735542 68.809681 
L 490.44624 152.030319 
L 492.156937 63.914349 
L 493.867634 34.542359 
L 495.578332 171.611646 
L 497.289029 39.43769 
L 498.999726 132.448993 
L 500.710424 200.983636 
L 502.421121 39.43769 
L 504.131818 39.43769 
L 504.131818 39.43769 
" clip-path="url(#p909ecd1e6a)" style="fill: none; stroke: #235996; stroke-width: 0.8; stroke-linecap: square"/>
   </g>
   <g id="patch_7">
    <path d="M 56.87 210.04 
L 56.87 10.8 
" style="fill: none; stroke: #000000; stroke-width: 0.8; stroke-linejoin: miter; stroke-linecap: square"/>
   </g>
   <g id="patch_8">
    <path d="M 525.43 210.04 
L 525.43 10.8 
" style="fill: none; stroke: #000000; stroke-width: 0.8; stroke-linejoin: miter; stroke-linecap: square"/>
   </g>
   <g id="patch_9">
    <path d="M 56.87 210.04 
L 525.43 210.04 
" style="fill: none; stroke: #000000; stroke-width: 0.8; stroke-linejoin: miter; stroke-linecap: square"/>
   </g>
   <g id="patch_10">
    <path d="M 56.87 10.8 
L 525.43 10.8 
" style="fill: none; stroke: #000000; stroke-width: 0.8; stroke-linejoin: miter; stroke-linecap: square"/>
   </g>
   <g id="legend_1">
    <g id="patch_11">
     <path d="M 183.934125 43.4565 
L 398.365875 43.4565 
Q 401.245875 43.4565 401.245875 40.5765 
L 401.245875 20.88 
Q 401.245875 18 398.365875 18 
L 183.934125 18 
Q 181.054125 18 181.054125 20.88 
L 181.054125 40.5765 
Q 181.054125 43.4565 183.934125 43.4565 
z
" style="fill: #ffffff; opacity: 0.8; stroke: #000000; stroke-linejoin: miter"/>
    </g>
    <g id="line2d_24">
     <path d="M 186.814125 29.66175 
L 201.214125 29.66175 
L 215.614125 29.66175 
" style="fill: none; stroke: #99004d; stroke-width: 0.8; stroke-linecap: square"/>
    </g>
    <g id="text_25">
     <text style="font: 14.4px 'DejaVu Sans', 'Bitstream Vera Sans', 'Computer Modern Sans Serif', 'Lucida Grande', 'Verdana', 'Geneva', 'Lucid', 'Arial', 'Helvetica', 'Avant Garde', sans-serif; text-anchor: start" x="227.134125" y="34.70175" transform="rotate(-0 227.134125 34.70175)">power</text>
    </g>
    <g id="line2d_25">
     <path d="M 300.443625 29.66175 
L 314.843625 29.66175 
L 329.243625 29.66175 
" style="fill: none; stroke: #235996; stroke-width: 0.8; stroke-linecap: square"/>
    </g>
    <g id="text_26">
     <text style="font: 14.4px 'DejaVu Sans', 'Bitstream Vera Sans', 'Computer Modern Sans Serif', 'Lucida Grande', 'Verdana', 'Geneva', 'Lucid', 'Arial', 'Helvetica', 'Avant Garde', sans-serif; text-anchor: start" x="340.763625" y="34.70175" transform="rotate(-0 340.763625 34.70175)">hw(rs1)</text>
    </g>
   </g>
  </g>
 </g>
 <defs>
  <clipPath id="p909ecd1e6a">
   <rect x="56.87" y="10.8" width="468.56" height="199.24"/>
  </clipPath>
 </defs>
</svg>
