<?xml version="1.0" encoding="utf-8" standalone="no"?>
<!DOCTYPE svg PUBLIC "-//W3C//DTD SVG 1.1//EN"
  "http://www.w3.org/Graphics/SVG/1.1/DTD/svg11.dtd">
<svg xmlns:xlink="http://www.w3.org/1999/xlink" width="576pt" height="252pt" viewBox="0 0 576 252" xmlns="http://www.w3.org/2000/svg" version="1.1">
 <metadata>
  <rdf:RDF xmlns:dc="http://purl.org/dc/elements/1.1/" xmlns:cc="http://creativecommons.org/ns#" xmlns:rdf="http://www.w3.org/1999/02/22-rdf-syntax-ns#">
   <cc:Work>
    <dc:type rdf:resource="http://purl.org/dc/dcmitype/StillImage"/>
    <dc:date>2023-11-26T17:36:42.737731</dc:date>
    <dc:format>image/svg+xml</dc:format>
    <dc:creator>
     <cc:Agent>
      <dc:title>Matplotlib v3.8.2, https://matplotlib.org/</dc:title>
     </cc:Agent>
    </dc:creator>
   </cc:Work>
  </rdf:RDF>
 </metadata>
 <defs>
  <style type="text/css">*{stroke-linejoin: round; stroke-linecap: butt}</style>
 </defs>
 <g id="figure_1">
  <g id="patch_1">
   <path d="M 0 252 
L 576 252 
L 576 0 
L 0 0 
z
" style="fill: #ffffff"/>
  </g>
  <g id="axes_1">
   <g id="patch_2">
    <path d="M 63.08 210.04 
L 525.43 210.04 
L 525.43 10.8 
L 63.08 10.8 
z
" style="fill: #ffffff"/>
   </g>
   <g id="matplotlib.axis_1">
    <g id="xtick_1">
     <g id="line2d_1">
      <defs>
       <path id="m9d13dc3974" d="M 0 0 
L 0 3.5 
" style="stroke: #000000; stroke-width: 0.8"/>
      </defs>
      <g>
       <use xlink:href="#m9d13dc3974" x="84.095909" y="210.04" style="stroke: #000000; stroke-width: 0.8"/>
      </g>
     </g>
     <g id="text_1">
      <text style="font: 10px 'DejaVu Sans', 'Bitstream Vera Sans', 'Computer Modern Sans Serif', 'Lucida Grande', 'Verdana', 'Geneva', 'Lucid', 'Arial', 'Helvetica', 'Avant Garde', sans-serif; text-anchor: middle" x="84.095909" y="224.638438" transform="rotate(-0 84.095909 224.638438)">0</text>
     </g>
    </g>
    <g id="xtick_2">
     <g id="line2d_2">
      <g>
       <use xlink:href="#m9d13dc3974" x="168.49715" y="210.04" style="stroke: #000000; stroke-width: 0.8"/>
      </g>
     </g>
     <g id="text_2">
      <text style="font: 10px 'DejaVu Sans', 'Bitstream Vera Sans', 'Computer Modern Sans Serif', 'Lucida Grande', 'Verdana', 'Geneva', 'Lucid', 'Arial', 'Helvetica', 'Avant Garde', sans-serif; text-anchor: middle" x="168.49715" y="224.638438" transform="rotate(-0 168.49715 224.638438)">50</text>
     </g>
    </g>
    <g id="xtick_3">
     <g id="line2d_3">
      <g>
       <use xlink:href="#m9d13dc3974" x="252.898392" y="210.04" style="stroke: #000000; stroke-width: 0.8"/>
      </g>
     </g>
     <g id="text_3">
      <text style="font: 10px 'DejaVu Sans', 'Bitstream Vera Sans', 'Computer Modern Sans Serif', 'Lucida Grande', 'Verdana', 'Geneva', 'Lucid', 'Arial', 'Helvetica', 'Avant Garde', sans-serif; text-anchor: middle" x="252.898392" y="224.638438" transform="rotate(-0 252.898392 224.638438)">100</text>
     </g>
    </g>
    <g id="xtick_4">
     <g id="line2d_4">
      <g>
       <use xlink:href="#m9d13dc3974" x="337.299633" y="210.04" style="stroke: #000000; stroke-width: 0.8"/>
      </g>
     </g>
     <g id="text_4">
      <text style="font: 10px 'DejaVu Sans', 'Bitstream Vera Sans', 'Computer Modern Sans Serif', 'Lucida Grande', 'Verdana', 'Geneva', 'Lucid', 'Arial', 'Helvetica', 'Avant Garde', sans-serif; text-anchor: middle" x="337.299633" y="224.638438" transform="rotate(-0 337.299633 224.638438)">150</text>
     </g>
    </g>
    <g id="xtick_5">
     <g id="line2d_5">
      <g>
       <use xlink:href="#m9d13dc3974" x="421.700874" y="210.04" style="stroke: #000000; stroke-width: 0.8"/>
      </g>
     </g>
     <g id="text_5">
      <text style="font: 10px 'DejaVu Sans', 'Bitstream Vera Sans', 'Computer Modern Sans Serif', 'Lucida Grande', 'Verdana', 'Geneva', 'Lucid', 'Arial', 'Helvetica', 'Avant Garde', sans-serif; text-anchor: middle" x="421.700874" y="224.638438" transform="rotate(-0 421.700874 224.638438)">200</text>
     </g>
    </g>
    <g id="xtick_6">
     <g id="line2d_6">
      <g>
       <use xlink:href="#m9d13dc3974" x="506.102116" y="210.04" style="stroke: #000000; stroke-width: 0.8"/>
      </g>
     </g>
     <g id="text_6">
      <text style="font: 10px 'DejaVu Sans', 'Bitstream Vera Sans', 'Computer Modern Sans Serif', 'Lucida Grande', 'Verdana', 'Geneva', 'Lucid', 'Arial', 'Helvetica', 'Avant Garde', sans-serif; text-anchor: middle" x="506.102116" y="224.638438" transform="rotate(-0 506.102116 224.638438)">250</text>
     </g>
    </g>
    <g id="text_7">
     <text style="font: 10px 'DejaVu Sans', 'Bitstream Vera Sans', 'Computer Modern Sans Serif', 'Lucida Grande', 'Verdana', 'Geneva', 'Lucid', 'Arial', 'Helvetica', 'Avant Garde', sans-serif; text-anchor: middle" x="294.255" y="238.316563" transform="rotate(-0 294.255 238.316563)">Cycles</text>
    </g>
   </g>
   <g id="matplotlib.axis_2">
    <g id="ytick_1">
     <g id="line2d_7">
      <defs>
       <path id="m5159d10db2" d="M 0 0 
L -3.5 0 
" style="stroke: #000000; stroke-width: 0.8"/>
      </defs>
      <g>
       <use xlink:href="#m5159d10db2" x="63.08" y="205.090236" style="stroke: #000000; stroke-width: 0.8"/>
      </g>
     </g>
     <g id="text_8">
      <text style="font: 10px 'DejaVu Sans', 'Bitstream Vera Sans', 'Computer Modern Sans Serif', 'Lucida Grande', 'Verdana', 'Geneva', 'Lucid', 'Arial', 'Helvetica', 'Avant Garde', sans-serif; text-anchor: end" x="56.08" y="208.889455" transform="rotate(-0 56.08 208.889455)">2000</text>
     </g>
    </g>
    <g id="ytick_2">
     <g id="line2d_8">
      <g>
       <use xlink:href="#m5159d10db2" x="63.08" y="161.403002" style="stroke: #000000; stroke-width: 0.8"/>
      </g>
     </g>
     <g id="text_9">
      <text style="font: 10px 'DejaVu Sans', 'Bitstream Vera Sans', 'Computer Modern Sans Serif', 'Lucida Grande', 'Verdana', 'Geneva', 'Lucid', 'Arial', 'Helvetica', 'Avant Garde', sans-serif; text-anchor: end" x="56.08" y="165.202221" transform="rotate(-0 56.08 165.202221)">2500</text>
     </g>
    </g>
    <g id="ytick_3">
     <g id="line2d_9">
      <g>
       <use xlink:href="#m5159d10db2" x="63.08" y="117.715768" style="stroke: #000000; stroke-width: 0.8"/>
      </g>
     </g>
     <g id="text_10">
      <text style="font: 10px 'DejaVu Sans', 'Bitstream Vera Sans', 'Computer Modern Sans Serif', 'Lucida Grande', 'Verdana', 'Geneva', 'Lucid', 'Arial', 'Helvetica', 'Avant Garde', sans-serif; text-anchor: end" x="56.08" y="121.514987" transform="rotate(-0 56.08 121.514987)">3000</text>
     </g>
    </g>
    <g id="ytick_4">
     <g id="line2d_10">
      <g>
       <use xlink:href="#m5159d10db2" x="63.08" y="74.028534" style="stroke: #000000; stroke-width: 0.8"/>
      </g>
     </g>
     <g id="text_11">
      <text style="font: 10px 'DejaVu Sans', 'Bitstream Vera Sans', 'Computer Modern Sans Serif', 'Lucida Grande', 'Verdana', 'Geneva', 'Lucid', 'Arial', 'Helvetica', 'Avant Garde', sans-serif; text-anchor: end" x="56.08" y="77.827753" transform="rotate(-0 56.08 77.827753)">3500</text>
     </g>
    </g>
    <g id="ytick_5">
     <g id="line2d_11">
      <g>
       <use xlink:href="#m5159d10db2" x="63.08" y="30.3413" style="stroke: #000000; stroke-width: 0.8"/>
      </g>
     </g>
     <g id="text_12">
      <text style="font: 10px 'DejaVu Sans', 'Bitstream Vera Sans', 'Computer Modern Sans Serif', 'Lucida Grande', 'Verdana', 'Geneva', 'Lucid', 'Arial', 'Helvetica', 'Avant Garde', sans-serif; text-anchor: end" x="56.08" y="34.140519" transform="rotate(-0 56.08 34.140519)">4000</text>
     </g>
    </g>
    <g id="text_13">
     <text style="font: 10px 'DejaVu Sans', 'Bitstream Vera Sans', 'Computer Modern Sans Serif', 'Lucida Grande', 'Verdana', 'Geneva', 'Lucid', 'Arial', 'Helvetica', 'Avant Garde', sans-serif; text-anchor: middle" x="18.550313" y="110.42" transform="rotate(-90 18.550313 110.42)">power (uW)</text>
    </g>
   </g>
   <g id="line2d_12">
    <path d="M 84.095909 104.871721 
L 85.783934 88.532696 
L 87.471959 51.398547 
L 89.159984 71.057802 
L 90.848008 68.87344 
L 92.536033 79.183628 
L 94.224058 55.854645 
L 95.912083 62.058232 
L 97.600108 66.51433 
L 99.288133 140.171006 
L 100.976157 77.08664 
L 102.664182 61.359236 
L 104.352207 70.62093 
L 106.040232 71.4073 
L 107.728257 81.717487 
L 109.416281 102.337862 
L 111.104306 56.029394 
L 112.792331 66.951202 
L 114.480356 47.903568 
L 116.168381 85.474589 
L 117.856406 66.863828 
L 119.54443 188.314338 
L 121.232455 37.855504 
L 122.92048 178.615772 
L 124.608505 52.971287 
L 126.29653 64.242594 
L 127.984555 56.815764 
L 129.672579 67.3007 
L 131.360604 66.077457 
L 133.048629 70.883053 
L 134.736654 90.804432 
L 136.424679 77.610887 
L 138.112704 46.7677 
L 139.800728 72.018921 
L 141.488753 42.748474 
L 143.176778 128.987075 
L 144.864803 63.368849 
L 146.552828 59.611747 
L 148.240853 75.601274 
L 149.928877 20.205862 
L 151.616902 73.416913 
L 153.304927 74.989653 
L 154.992952 37.418632 
L 156.680977 74.640155 
L 158.369001 81.892236 
L 160.057026 81.455364 
L 161.745051 99.629253 
L 163.433076 26.846321 
L 165.121101 56.378891 
L 166.809126 157.296402 
L 168.49715 142.530117 
L 170.185175 93.250917 
L 171.8732 36.195389 
L 173.561225 114.570287 
L 175.24925 57.776883 
L 176.937275 76.649768 
L 178.625299 100.1535 
L 180.313324 74.378032 
L 182.001349 45.457083 
L 183.689374 63.893096 
L 185.377399 32.525662 
L 187.065424 51.66067 
L 188.753448 106.79396 
L 190.441473 125.404721 
L 192.129498 47.379321 
L 193.817523 111.250057 
L 195.505548 36.544887 
L 197.193572 47.55407 
L 198.881597 111.075309 
L 200.569622 62.669853 
L 202.257647 128.200704 
L 203.945672 49.126811 
L 205.633697 73.679036 
L 207.321721 60.834989 
L 209.009746 60.135994 
L 210.697771 53.233411 
L 212.385796 99.192381 
L 214.073821 62.931976 
L 215.761846 40.389364 
L 217.44987 51.66067 
L 219.137895 24.399836 
L 220.82592 160.441883 
L 222.513945 61.621359 
L 224.20197 104.959096 
L 225.889995 33.923653 
L 227.578019 128.200704 
L 229.266044 61.883483 
L 230.954069 63.98047 
L 232.642094 71.582049 
L 234.330119 105.133845 
L 236.018143 60.485491 
L 237.706168 74.378032 
L 239.394193 93.076168 
L 241.082218 109.852066 
L 242.770243 47.728819 
L 244.458268 73.504287 
L 246.146292 125.841594 
L 247.834317 72.543168 
L 249.522342 87.134704 
L 251.210367 65.028964 
L 252.898392 66.951202 
L 254.586417 89.930687 
L 256.274441 67.388074 
L 257.962466 77.348764 
L 259.650491 52.359666 
L 261.338516 118.065266 
L 263.026541 35.583768 
L 264.714566 77.348764 
L 266.40259 87.746325 
L 268.090615 93.338291 
L 269.77864 95.959526 
L 271.466665 55.592521 
L 273.15469 150.655943 
L 274.842714 76.387645 
L 276.530739 98.668134 
L 278.218764 61.359236 
L 279.906789 38.729249 
L 281.594814 93.687789 
L 283.282839 44.146466 
L 284.970863 69.834559 
L 286.658888 60.310742 
L 288.346913 46.942449 
L 290.034938 161.665126 
L 293.410988 40.826236 
L 295.099012 62.320355 
L 296.787037 66.51433 
L 298.475062 61.359236 
L 300.163087 42.923223 
L 301.851112 68.523942 
L 303.539137 116.754649 
L 305.227161 47.291947 
L 306.915186 51.136423 
L 308.603211 51.223798 
L 310.291236 71.057802 
L 311.979261 71.582049 
L 313.667286 19.856364 
L 315.35531 90.454934 
L 317.043335 104.434849 
L 318.73136 98.493385 
L 320.419385 98.493385 
L 322.10741 86.610457 
L 323.795434 68.08707 
L 325.483459 55.942019 
L 327.171484 133.443172 
L 328.859509 88.008449 
L 330.547534 32.787785 
L 332.235559 124.618351 
L 333.923583 71.494674 
L 335.611608 42.398976 
L 337.299633 38.117628 
L 338.987658 84.251347 
L 340.675683 41.525232 
L 342.363708 55.417772 
L 344.051732 87.396828 
L 345.739757 65.028964 
L 347.427782 76.475019 
L 349.115807 139.122513 
L 350.803832 40.738862 
L 352.491857 41.787355 
L 354.179881 56.291517 
L 355.867906 77.174015 
L 357.555931 69.222938 
L 359.243956 88.882194 
L 360.931981 42.398976 
L 362.620005 61.184487 
L 364.30803 56.990513 
L 365.996055 103.124232 
L 367.68408 139.559385 
L 369.372105 101.027245 
L 371.06013 55.505147 
L 372.748154 35.321645 
L 374.436179 125.317347 
L 376.124204 200.983636 
L 377.812229 57.165262 
L 379.500254 115.706155 
L 381.188279 54.631402 
L 382.876303 79.707874 
L 384.564328 55.505147 
L 386.252353 50.437428 
L 387.940378 107.405581 
L 389.628403 72.805291 
L 391.316428 83.814474 
L 393.004452 83.377602 
L 394.692477 113.521794 
L 396.380502 138.161394 
L 399.756552 34.273151 
L 401.444576 60.398117 
L 403.132601 79.008879 
L 404.820626 72.543168 
L 406.508651 136.064406 
L 408.196676 168.305585 
L 409.884701 38.205002 
L 411.572725 77.523513 
L 413.26075 72.98004 
L 414.948775 69.659811 
L 416.6368 65.990083 
L 418.324825 52.184917 
L 420.01285 93.949913 
L 421.700874 124.7931 
L 423.388899 58.912751 
L 425.076924 47.291947 
L 426.764949 111.250057 
L 428.452974 83.202853 
L 430.140999 62.495104 
L 431.829023 130.210317 
L 433.517048 70.358806 
L 435.205073 110.90056 
L 436.893098 80.668994 
L 438.581123 80.494245 
L 440.269147 67.999696 
L 443.645197 178.528398 
L 445.333222 94.124662 
L 447.021247 76.475019 
L 448.709272 77.174015 
L 450.397296 117.803143 
L 452.085321 77.261389 
L 453.773346 60.922364 
L 455.461371 54.893525 
L 457.149396 63.368849 
L 458.837421 58.388504 
L 460.525445 120.337002 
L 462.21347 28.244313 
L 463.901495 66.51433 
L 465.58952 73.504287 
L 467.277545 79.096253 
L 468.96557 43.709593 
L 470.653594 43.796968 
L 472.341619 54.718776 
L 474.029644 59.436998 
L 475.717669 71.494674 
L 477.405694 65.378462 
L 479.093719 39.078747 
L 480.781743 48.777313 
L 482.469768 79.096253 
L 484.157793 48.165691 
L 485.845818 58.738002 
L 487.533843 79.533125 
L 489.221867 20.031113 
L 490.909892 70.62093 
L 492.597917 62.669853 
L 494.285942 58.912751 
L 495.973967 101.72624 
L 497.661992 77.08664 
L 499.350016 85.212466 
L 501.038041 60.572866 
L 502.726066 76.387645 
L 504.414091 81.280615 
L 504.414091 81.280615 
" clip-path="url(#p32d5eaccaf)" style="fill: none; stroke: #99004d; stroke-width: 0.8; stroke-linecap: square"/>
   </g>
   <g id="patch_3">
    <path d="M 63.08 210.04 
L 63.08 10.8 
" style="fill: none; stroke: #000000; stroke-width: 0.8; stroke-linejoin: miter; stroke-linecap: square"/>
   </g>
   <g id="patch_4">
    <path d="M 525.43 210.04 
L 525.43 10.8 
" style="fill: none; stroke: #000000; stroke-width: 0.8; stroke-linejoin: miter; stroke-linecap: square"/>
   </g>
   <g id="patch_5">
    <path d="M 63.08 210.04 
L 525.43 210.04 
" style="fill: none; stroke: #000000; stroke-width: 0.8; stroke-linejoin: miter; stroke-linecap: square"/>
   </g>
   <g id="patch_6">
    <path d="M 63.08 10.8 
L 525.43 10.8 
" style="fill: none; stroke: #000000; stroke-width: 0.8; stroke-linejoin: miter; stroke-linecap: square"/>
   </g>
  </g>
  <g id="axes_2">
   <g id="matplotlib.axis_3">
    <g id="ytick_6">
     <g id="line2d_13">
      <defs>
       <path id="m224227e4ce" d="M 0 0 
L 3.5 0 
" style="stroke: #000000; stroke-width: 0.8"/>
      </defs>
      <g>
       <use xlink:href="#m224227e4ce" x="525.43" y="186.137139" style="stroke: #000000; stroke-width: 0.8"/>
      </g>
     </g>
     <g id="text_14">
      <text style="font: 10px 'DejaVu Sans', 'Bitstream Vera Sans', 'Computer Modern Sans Serif', 'Lucida Grande', 'Verdana', 'Geneva', 'Lucid', 'Arial', 'Helvetica', 'Avant Garde', sans-serif; text-anchor: start" x="532.43" y="189.936357" transform="rotate(-0 532.43 189.936357)">10</text>
     </g>
    </g>
    <g id="ytick_7">
     <g id="line2d_14">
      <g>
       <use xlink:href="#m224227e4ce" x="525.43" y="156.444143" style="stroke: #000000; stroke-width: 0.8"/>
      </g>
     </g>
     <g id="text_15">
      <text style="font: 10px 'DejaVu Sans', 'Bitstream Vera Sans', 'Computer Modern Sans Serif', 'Lucida Grande', 'Verdana', 'Geneva', 'Lucid', 'Arial', 'Helvetica', 'Avant Garde', sans-serif; text-anchor: start" x="532.43" y="160.243362" transform="rotate(-0 532.43 160.243362)">20</text>
     </g>
    </g>
    <g id="ytick_8">
     <g id="line2d_15">
      <g>
       <use xlink:href="#m224227e4ce" x="525.43" y="126.751148" style="stroke: #000000; stroke-width: 0.8"/>
      </g>
     </g>
     <g id="text_16">
      <text style="font: 10px 'DejaVu Sans', 'Bitstream Vera Sans', 'Computer Modern Sans Serif', 'Lucida Grande', 'Verdana', 'Geneva', 'Lucid', 'Arial', 'Helvetica', 'Avant Garde', sans-serif; text-anchor: start" x="532.43" y="130.550366" transform="rotate(-0 532.43 130.550366)">30</text>
     </g>
    </g>
    <g id="ytick_9">
     <g id="line2d_16">
      <g>
       <use xlink:href="#m224227e4ce" x="525.43" y="97.058152" style="stroke: #000000; stroke-width: 0.8"/>
      </g>
     </g>
     <g id="text_17">
      <text style="font: 10px 'DejaVu Sans', 'Bitstream Vera Sans', 'Computer Modern Sans Serif', 'Lucida Grande', 'Verdana', 'Geneva', 'Lucid', 'Arial', 'Helvetica', 'Avant Garde', sans-serif; text-anchor: start" x="532.43" y="100.857371" transform="rotate(-0 532.43 100.857371)">40</text>
     </g>
    </g>
    <g id="ytick_10">
     <g id="line2d_17">
      <g>
       <use xlink:href="#m224227e4ce" x="525.43" y="67.365156" style="stroke: #000000; stroke-width: 0.8"/>
      </g>
     </g>
     <g id="text_18">
      <text style="font: 10px 'DejaVu Sans', 'Bitstream Vera Sans', 'Computer Modern Sans Serif', 'Lucida Grande', 'Verdana', 'Geneva', 'Lucid', 'Arial', 'Helvetica', 'Avant Garde', sans-serif; text-anchor: start" x="532.43" y="71.164375" transform="rotate(-0 532.43 71.164375)">50</text>
     </g>
    </g>
    <g id="ytick_11">
     <g id="line2d_18">
      <g>
       <use xlink:href="#m224227e4ce" x="525.43" y="37.672161" style="stroke: #000000; stroke-width: 0.8"/>
      </g>
     </g>
     <g id="text_19">
      <text style="font: 10px 'DejaVu Sans', 'Bitstream Vera Sans', 'Computer Modern Sans Serif', 'Lucida Grande', 'Verdana', 'Geneva', 'Lucid', 'Arial', 'Helvetica', 'Avant Garde', sans-serif; text-anchor: start" x="532.43" y="41.47138" transform="rotate(-0 532.43 41.47138)">60</text>
     </g>
    </g>
    <g id="text_20">
     <text style="font: 10px 'DejaVu Sans', 'Bitstream Vera Sans', 'Computer Modern Sans Serif', 'Lucida Grande', 'Verdana', 'Geneva', 'Lucid', 'Arial', 'Helvetica', 'Avant Garde', sans-serif; text-anchor: middle" x="562.753438" y="110.42" transform="rotate(-90 562.753438 110.42)">hw(data)</text>
    </g>
   </g>
   <g id="line2d_19">
    <path d="M 84.095909 114.873949 
L 85.783934 100.027452 
L 87.471959 49.549359 
L 89.159984 100.027452 
L 90.848008 46.58006 
L 92.536033 102.996751 
L 94.224058 46.58006 
L 95.912083 82.211654 
L 97.600108 97.058152 
L 99.288133 120.812548 
L 100.976157 52.518659 
L 102.664182 88.150253 
L 104.352207 111.90465 
L 106.040232 79.242355 
L 107.728257 85.180954 
L 109.416281 150.505544 
L 111.104306 70.334456 
L 112.792331 102.996751 
L 114.480356 40.641461 
L 116.168381 102.996751 
L 117.856406 88.150253 
L 119.54443 192.075738 
L 121.232455 19.856364 
L 122.92048 138.628346 
L 124.608505 40.641461 
L 126.29653 94.088852 
L 127.984555 55.487958 
L 129.672579 88.150253 
L 131.360604 97.058152 
L 133.048629 70.334456 
L 134.736654 70.334456 
L 136.424679 76.273055 
L 138.112704 19.856364 
L 139.800728 97.058152 
L 141.488753 19.856364 
L 143.176778 132.689747 
L 144.864803 94.088852 
L 146.552828 70.334456 
L 148.240853 94.088852 
L 149.928877 25.794963 
L 151.616902 28.764262 
L 153.304927 43.61076 
L 154.992952 49.549359 
L 156.680977 108.93535 
L 158.369001 61.426557 
L 160.057026 85.180954 
L 161.745051 82.211654 
L 163.433076 64.395857 
L 165.121101 94.088852 
L 166.809126 153.474844 
L 168.49715 135.659046 
L 170.185175 100.027452 
L 171.8732 22.825663 
L 173.561225 102.996751 
L 175.24925 88.150253 
L 176.937275 91.119553 
L 178.625299 108.93535 
L 180.313324 114.873949 
L 182.001349 58.457258 
L 183.689374 58.457258 
L 185.377399 37.672161 
L 187.065424 94.088852 
L 188.753448 88.150253 
L 190.441473 150.505544 
L 192.129498 31.733562 
L 193.817523 91.119553 
L 195.505548 67.365156 
L 197.193572 76.273055 
L 198.881597 153.474844 
L 200.569622 70.334456 
L 202.257647 129.720447 
L 203.945672 52.518659 
L 205.633697 82.211654 
L 207.321721 67.365156 
L 209.009746 88.150253 
L 210.697771 58.457258 
L 212.385796 111.90465 
L 214.073821 117.843249 
L 215.761846 52.518659 
L 219.137895 28.764262 
L 220.82592 192.075738 
L 222.513945 79.242355 
L 224.20197 120.812548 
L 225.889995 55.487958 
L 227.578019 177.22924 
L 229.266044 88.150253 
L 230.954069 70.334456 
L 232.642094 94.088852 
L 234.330119 120.812548 
L 236.018143 46.58006 
L 237.706168 58.457258 
L 241.082218 174.25994 
L 242.770243 22.825663 
L 244.458268 117.843249 
L 246.146292 102.996751 
L 247.834317 73.303756 
L 249.522342 79.242355 
L 251.210367 64.395857 
L 252.898392 111.90465 
L 254.586417 126.751148 
L 256.274441 61.426557 
L 257.962466 111.90465 
L 259.650491 67.365156 
L 261.338516 162.382742 
L 263.026541 28.764262 
L 264.714566 34.702861 
L 266.40259 97.058152 
L 268.090615 82.211654 
L 269.77864 102.996751 
L 271.466665 61.426557 
L 273.15469 200.983636 
L 274.842714 85.180954 
L 276.530739 150.505544 
L 278.218764 25.794963 
L 279.906789 55.487958 
L 281.594814 73.303756 
L 283.282839 82.211654 
L 284.970863 34.702861 
L 286.658888 97.058152 
L 288.346913 88.150253 
L 290.034938 153.474844 
L 293.410988 25.794963 
L 295.099012 141.597645 
L 296.787037 67.365156 
L 298.475062 76.273055 
L 300.163087 43.61076 
L 301.851112 82.211654 
L 303.539137 153.474844 
L 305.227161 31.733562 
L 306.915186 28.764262 
L 308.603211 79.242355 
L 310.291236 70.334456 
L 311.979261 73.303756 
L 313.667286 61.426557 
L 315.35531 85.180954 
L 317.043335 114.873949 
L 318.73136 147.536244 
L 320.419385 132.689747 
L 322.10741 79.242355 
L 323.795434 85.180954 
L 325.483459 34.702861 
L 327.171484 192.075738 
L 328.859509 94.088852 
L 330.547534 40.641461 
L 332.235559 132.689747 
L 333.923583 64.395857 
L 335.611608 58.457258 
L 337.299633 46.58006 
L 338.987658 79.242355 
L 340.675683 76.273055 
L 342.363708 91.119553 
L 344.051732 111.90465 
L 345.739757 100.027452 
L 347.427782 49.549359 
L 349.115807 192.075738 
L 350.803832 58.457258 
L 352.491857 37.672161 
L 354.179881 46.58006 
L 355.867906 79.242355 
L 357.555931 58.457258 
L 359.243956 61.426557 
L 360.931981 49.549359 
L 362.620005 58.457258 
L 364.30803 43.61076 
L 365.996055 126.751148 
L 367.68408 144.566945 
L 369.372105 126.751148 
L 371.06013 43.61076 
L 372.748154 37.672161 
L 374.436179 150.505544 
L 376.124204 189.106438 
L 377.812229 70.334456 
L 379.500254 132.689747 
L 381.188279 46.58006 
L 382.876303 126.751148 
L 384.564328 58.457258 
L 386.252353 31.733562 
L 387.940378 117.843249 
L 389.628403 105.966051 
L 391.316428 117.843249 
L 393.004452 102.996751 
L 394.692477 97.058152 
L 396.380502 183.167839 
L 398.068527 108.93535 
L 399.756552 46.58006 
L 401.444576 58.457258 
L 403.132601 79.242355 
L 404.820626 58.457258 
L 408.196676 168.321341 
L 409.884701 34.702861 
L 411.572725 102.996751 
L 413.26075 40.641461 
L 414.948775 141.597645 
L 418.324825 31.733562 
L 420.01285 150.505544 
L 421.700874 195.045037 
L 423.388899 61.426557 
L 425.076924 94.088852 
L 426.764949 177.22924 
L 428.452974 105.966051 
L 430.140999 76.273055 
L 431.829023 114.873949 
L 433.517048 46.58006 
L 435.205073 123.781848 
L 436.893098 64.395857 
L 438.581123 88.150253 
L 440.269147 94.088852 
L 441.957172 132.689747 
L 443.645197 132.689747 
L 445.333222 117.843249 
L 447.021247 70.334456 
L 448.709272 91.119553 
L 450.397296 174.25994 
L 452.085321 102.996751 
L 453.773346 67.365156 
L 455.461371 64.395857 
L 457.149396 105.966051 
L 458.837421 34.702861 
L 460.525445 120.812548 
L 462.21347 28.764262 
L 463.901495 49.549359 
L 465.58952 82.211654 
L 467.277545 102.996751 
L 468.96557 31.733562 
L 470.653594 25.794963 
L 472.341619 49.549359 
L 474.029644 34.702861 
L 475.717669 70.334456 
L 477.405694 85.180954 
L 479.093719 64.395857 
L 480.781743 70.334456 
L 482.469768 108.93535 
L 484.157793 105.966051 
L 485.845818 22.825663 
L 487.533843 82.211654 
L 489.221867 22.825663 
L 490.909892 105.966051 
L 492.597917 120.812548 
L 494.285942 114.873949 
L 495.973967 79.242355 
L 497.661992 79.242355 
L 499.350016 120.812548 
L 501.038041 67.365156 
L 502.726066 132.689747 
L 504.414091 108.93535 
L 504.414091 108.93535 
" clip-path="url(#p32d5eaccaf)" style="fill: none; stroke: #235996; stroke-width: 0.8; stroke-linecap: square"/>
   </g>
   <g id="patch_7">
    <path d="M 63.08 210.04 
L 63.08 10.8 
" style="fill: none; stroke: #000000; stroke-width: 0.8; stroke-linejoin: miter; stroke-linecap: square"/>
   </g>
   <g id="patch_8">
    <path d="M 525.43 210.04 
L 525.43 10.8 
" style="fill: none; stroke: #000000; stroke-width: 0.8; stroke-linejoin: miter; stroke-linecap: square"/>
   </g>
   <g id="patch_9">
    <path d="M 63.08 210.04 
L 525.43 210.04 
" style="fill: none; stroke: #000000; stroke-width: 0.8; stroke-linejoin: miter; stroke-linecap: square"/>
   </g>
   <g id="patch_10">
    <path d="M 63.08 10.8 
L 525.43 10.8 
" style="fill: none; stroke: #000000; stroke-width: 0.8; stroke-linejoin: miter; stroke-linecap: square"/>
   </g>
   <g id="legend_1">
    <g id="patch_11">
     <path d="M 153.644625 43.4565 
L 434.865375 43.4565 
Q 437.745375 43.4565 437.745375 40.5765 
L 437.745375 20.88 
Q 437.745375 18 434.865375 18 
L 153.644625 18 
Q 150.764625 18 150.764625 20.88 
L 150.764625 40.5765 
Q 150.764625 43.4565 153.644625 43.4565 
z
" style="fill: #ffffff; opacity: 0.8; stroke: #000000; stroke-linejoin: miter"/>
    </g>
    <g id="line2d_20">
     <path d="M 156.524625 29.66175 
L 170.924625 29.66175 
L 185.324625 29.66175 
" style="fill: none; stroke: #99004d; stroke-width: 0.8; stroke-linecap: square"/>
    </g>
    <g id="text_21">
     <text style="font: 14.4px 'DejaVu Sans', 'Bitstream Vera Sans', 'Computer Modern Sans Serif', 'Lucida Grande', 'Verdana', 'Geneva', 'Lucid', 'Arial', 'Helvetica', 'Avant Garde', sans-serif; text-anchor: start" x="196.844625" y="34.70175" transform="rotate(-0 196.844625 34.70175)">power</text>
    </g>
    <g id="line2d_21">
     <path d="M 270.154125 29.66175 
L 284.554125 29.66175 
L 298.954125 29.66175 
" style="fill: none; stroke: #235996; stroke-width: 0.8; stroke-linecap: square"/>
    </g>
    <g id="text_22">
     <text style="font: 14.4px 'DejaVu Sans', 'Bitstream Vera Sans', 'Computer Modern Sans Serif', 'Lucida Grande', 'Verdana', 'Geneva', 'Lucid', 'Arial', 'Helvetica', 'Avant Garde', sans-serif; text-anchor: start" x="310.474125" y="34.70175" transform="rotate(-0 310.474125 34.70175)">hw(rs1)+hw(rs2)</text>
    </g>
   </g>
  </g>
 </g>
 <defs>
  <clipPath id="p32d5eaccaf">
   <rect x="63.08" y="10.8" width="462.35" height="199.24"/>
  </clipPath>
 </defs>
</svg>
