<?xml version="1.0" encoding="utf-8" standalone="no"?>
<!DOCTYPE svg PUBLIC "-//W3C//DTD SVG 1.1//EN"
  "http://www.w3.org/Graphics/SVG/1.1/DTD/svg11.dtd">
<svg xmlns:xlink="http://www.w3.org/1999/xlink" width="576pt" height="252pt" viewBox="0 0 576 252" xmlns="http://www.w3.org/2000/svg" version="1.1">
 <metadata>
  <rdf:RDF xmlns:dc="http://purl.org/dc/elements/1.1/" xmlns:cc="http://creativecommons.org/ns#" xmlns:rdf="http://www.w3.org/1999/02/22-rdf-syntax-ns#">
   <cc:Work>
    <dc:type rdf:resource="http://purl.org/dc/dcmitype/StillImage"/>
    <dc:date>2023-12-06T21:47:53.465957</dc:date>
    <dc:format>image/svg+xml</dc:format>
    <dc:creator>
     <cc:Agent>
      <dc:title>Matplotlib v3.7.4, https://matplotlib.org/</dc:title>
     </cc:Agent>
    </dc:creator>
   </cc:Work>
  </rdf:RDF>
 </metadata>
 <defs>
  <style type="text/css">*{stroke-linejoin: round; stroke-linecap: butt}</style>
 </defs>
 <g id="figure_1">
  <g id="patch_1">
   <path d="M 0 252 
L 576 252 
L 576 0 
L 0 0 
z
" style="fill: #ffffff"/>
  </g>
  <g id="axes_1">
   <g id="patch_2">
    <path d="M 63.08 210.04 
L 525.43 210.04 
L 525.43 10.8 
L 63.08 10.8 
z
" style="fill: #ffffff"/>
   </g>
   <g id="matplotlib.axis_1">
    <g id="xtick_1">
     <g id="line2d_1">
      <defs>
       <path id="m088e98998a" d="M 0 0 
L 0 3.5 
" style="stroke: #000000; stroke-width: 0.8"/>
      </defs>
      <g>
       <use xlink:href="#m088e98998a" x="84.095909" y="210.04" style="stroke: #000000; stroke-width: 0.8"/>
      </g>
     </g>
     <g id="text_1">
      <text style="font: 10px 'DejaVu Sans', 'Bitstream Vera Sans', 'Computer Modern Sans Serif', 'Lucida Grande', 'Verdana', 'Geneva', 'Lucid', 'Arial', 'Helvetica', 'Avant Garde', sans-serif; text-anchor: middle" x="84.095909" y="224.638438" transform="rotate(-0 84.095909 224.638438)">0</text>
     </g>
    </g>
    <g id="xtick_2">
     <g id="line2d_2">
      <g>
       <use xlink:href="#m088e98998a" x="168.49715" y="210.04" style="stroke: #000000; stroke-width: 0.8"/>
      </g>
     </g>
     <g id="text_2">
      <text style="font: 10px 'DejaVu Sans', 'Bitstream Vera Sans', 'Computer Modern Sans Serif', 'Lucida Grande', 'Verdana', 'Geneva', 'Lucid', 'Arial', 'Helvetica', 'Avant Garde', sans-serif; text-anchor: middle" x="168.49715" y="224.638438" transform="rotate(-0 168.49715 224.638438)">50</text>
     </g>
    </g>
    <g id="xtick_3">
     <g id="line2d_3">
      <g>
       <use xlink:href="#m088e98998a" x="252.898392" y="210.04" style="stroke: #000000; stroke-width: 0.8"/>
      </g>
     </g>
     <g id="text_3">
      <text style="font: 10px 'DejaVu Sans', 'Bitstream Vera Sans', 'Computer Modern Sans Serif', 'Lucida Grande', 'Verdana', 'Geneva', 'Lucid', 'Arial', 'Helvetica', 'Avant Garde', sans-serif; text-anchor: middle" x="252.898392" y="224.638438" transform="rotate(-0 252.898392 224.638438)">100</text>
     </g>
    </g>
    <g id="xtick_4">
     <g id="line2d_4">
      <g>
       <use xlink:href="#m088e98998a" x="337.299633" y="210.04" style="stroke: #000000; stroke-width: 0.8"/>
      </g>
     </g>
     <g id="text_4">
      <text style="font: 10px 'DejaVu Sans', 'Bitstream Vera Sans', 'Computer Modern Sans Serif', 'Lucida Grande', 'Verdana', 'Geneva', 'Lucid', 'Arial', 'Helvetica', 'Avant Garde', sans-serif; text-anchor: middle" x="337.299633" y="224.638438" transform="rotate(-0 337.299633 224.638438)">150</text>
     </g>
    </g>
    <g id="xtick_5">
     <g id="line2d_5">
      <g>
       <use xlink:href="#m088e98998a" x="421.700874" y="210.04" style="stroke: #000000; stroke-width: 0.8"/>
      </g>
     </g>
     <g id="text_5">
      <text style="font: 10px 'DejaVu Sans', 'Bitstream Vera Sans', 'Computer Modern Sans Serif', 'Lucida Grande', 'Verdana', 'Geneva', 'Lucid', 'Arial', 'Helvetica', 'Avant Garde', sans-serif; text-anchor: middle" x="421.700874" y="224.638438" transform="rotate(-0 421.700874 224.638438)">200</text>
     </g>
    </g>
    <g id="xtick_6">
     <g id="line2d_6">
      <g>
       <use xlink:href="#m088e98998a" x="506.102116" y="210.04" style="stroke: #000000; stroke-width: 0.8"/>
      </g>
     </g>
     <g id="text_6">
      <text style="font: 10px 'DejaVu Sans', 'Bitstream Vera Sans', 'Computer Modern Sans Serif', 'Lucida Grande', 'Verdana', 'Geneva', 'Lucid', 'Arial', 'Helvetica', 'Avant Garde', sans-serif; text-anchor: middle" x="506.102116" y="224.638438" transform="rotate(-0 506.102116 224.638438)">250</text>
     </g>
    </g>
    <g id="text_7">
     <text style="font: 10px 'DejaVu Sans', 'Bitstream Vera Sans', 'Computer Modern Sans Serif', 'Lucida Grande', 'Verdana', 'Geneva', 'Lucid', 'Arial', 'Helvetica', 'Avant Garde', sans-serif; text-anchor: middle" x="294.255" y="238.316563" transform="rotate(-0 294.255 238.316563)">Experiment</text>
    </g>
   </g>
   <g id="matplotlib.axis_2">
    <g id="ytick_1">
     <g id="line2d_7">
      <defs>
       <path id="m420d488c27" d="M 0 0 
L -3.5 0 
" style="stroke: #000000; stroke-width: 0.8"/>
      </defs>
      <g>
       <use xlink:href="#m420d488c27" x="63.08" y="192.421256" style="stroke: #000000; stroke-width: 0.8"/>
      </g>
     </g>
     <g id="text_8">
      <text style="font: 10px 'DejaVu Sans', 'Bitstream Vera Sans', 'Computer Modern Sans Serif', 'Lucida Grande', 'Verdana', 'Geneva', 'Lucid', 'Arial', 'Helvetica', 'Avant Garde', sans-serif; text-anchor: end" x="56.08" y="196.220475" transform="rotate(-0 56.08 196.220475)">2250</text>
     </g>
    </g>
    <g id="ytick_2">
     <g id="line2d_8">
      <g>
       <use xlink:href="#m420d488c27" x="63.08" y="168.898234" style="stroke: #000000; stroke-width: 0.8"/>
      </g>
     </g>
     <g id="text_9">
      <text style="font: 10px 'DejaVu Sans', 'Bitstream Vera Sans', 'Computer Modern Sans Serif', 'Lucida Grande', 'Verdana', 'Geneva', 'Lucid', 'Arial', 'Helvetica', 'Avant Garde', sans-serif; text-anchor: end" x="56.08" y="172.697453" transform="rotate(-0 56.08 172.697453)">2500</text>
     </g>
    </g>
    <g id="ytick_3">
     <g id="line2d_9">
      <g>
       <use xlink:href="#m420d488c27" x="63.08" y="145.375211" style="stroke: #000000; stroke-width: 0.8"/>
      </g>
     </g>
     <g id="text_10">
      <text style="font: 10px 'DejaVu Sans', 'Bitstream Vera Sans', 'Computer Modern Sans Serif', 'Lucida Grande', 'Verdana', 'Geneva', 'Lucid', 'Arial', 'Helvetica', 'Avant Garde', sans-serif; text-anchor: end" x="56.08" y="149.17443" transform="rotate(-0 56.08 149.17443)">2750</text>
     </g>
    </g>
    <g id="ytick_4">
     <g id="line2d_10">
      <g>
       <use xlink:href="#m420d488c27" x="63.08" y="121.852189" style="stroke: #000000; stroke-width: 0.8"/>
      </g>
     </g>
     <g id="text_11">
      <text style="font: 10px 'DejaVu Sans', 'Bitstream Vera Sans', 'Computer Modern Sans Serif', 'Lucida Grande', 'Verdana', 'Geneva', 'Lucid', 'Arial', 'Helvetica', 'Avant Garde', sans-serif; text-anchor: end" x="56.08" y="125.651408" transform="rotate(-0 56.08 125.651408)">3000</text>
     </g>
    </g>
    <g id="ytick_5">
     <g id="line2d_11">
      <g>
       <use xlink:href="#m420d488c27" x="63.08" y="98.329166" style="stroke: #000000; stroke-width: 0.8"/>
      </g>
     </g>
     <g id="text_12">
      <text style="font: 10px 'DejaVu Sans', 'Bitstream Vera Sans', 'Computer Modern Sans Serif', 'Lucida Grande', 'Verdana', 'Geneva', 'Lucid', 'Arial', 'Helvetica', 'Avant Garde', sans-serif; text-anchor: end" x="56.08" y="102.128385" transform="rotate(-0 56.08 102.128385)">3250</text>
     </g>
    </g>
    <g id="ytick_6">
     <g id="line2d_12">
      <g>
       <use xlink:href="#m420d488c27" x="63.08" y="74.806144" style="stroke: #000000; stroke-width: 0.8"/>
      </g>
     </g>
     <g id="text_13">
      <text style="font: 10px 'DejaVu Sans', 'Bitstream Vera Sans', 'Computer Modern Sans Serif', 'Lucida Grande', 'Verdana', 'Geneva', 'Lucid', 'Arial', 'Helvetica', 'Avant Garde', sans-serif; text-anchor: end" x="56.08" y="78.605363" transform="rotate(-0 56.08 78.605363)">3500</text>
     </g>
    </g>
    <g id="ytick_7">
     <g id="line2d_13">
      <g>
       <use xlink:href="#m420d488c27" x="63.08" y="51.283122" style="stroke: #000000; stroke-width: 0.8"/>
      </g>
     </g>
     <g id="text_14">
      <text style="font: 10px 'DejaVu Sans', 'Bitstream Vera Sans', 'Computer Modern Sans Serif', 'Lucida Grande', 'Verdana', 'Geneva', 'Lucid', 'Arial', 'Helvetica', 'Avant Garde', sans-serif; text-anchor: end" x="56.08" y="55.08234" transform="rotate(-0 56.08 55.08234)">3750</text>
     </g>
    </g>
    <g id="ytick_8">
     <g id="line2d_14">
      <g>
       <use xlink:href="#m420d488c27" x="63.08" y="27.760099" style="stroke: #000000; stroke-width: 0.8"/>
      </g>
     </g>
     <g id="text_15">
      <text style="font: 10px 'DejaVu Sans', 'Bitstream Vera Sans', 'Computer Modern Sans Serif', 'Lucida Grande', 'Verdana', 'Geneva', 'Lucid', 'Arial', 'Helvetica', 'Avant Garde', sans-serif; text-anchor: end" x="56.08" y="31.559318" transform="rotate(-0 56.08 31.559318)">4000</text>
     </g>
    </g>
    <g id="text_16">
     <text style="font: 10px 'DejaVu Sans', 'Bitstream Vera Sans', 'Computer Modern Sans Serif', 'Lucida Grande', 'Verdana', 'Geneva', 'Lucid', 'Arial', 'Helvetica', 'Avant Garde', sans-serif; text-anchor: middle" x="18.550313" y="110.42" transform="rotate(-90 18.550313 110.42)">power (uW)</text>
    </g>
   </g>
   <g id="line2d_15">
    <path d="M 84.095909 106.891547 
L 85.783934 69.442895 
L 87.471959 64.550106 
L 89.159984 107.079731 
L 90.848008 96.070956 
L 92.536033 42.250281 
L 94.224058 161.841327 
L 95.912083 87.414484 
L 97.600108 37.827953 
L 99.288133 69.066527 
L 100.976157 128.720911 
L 102.664182 103.786508 
L 104.352207 50.059924 
L 106.040232 78.099367 
L 107.728257 46.484425 
L 109.416281 61.915528 
L 111.104306 54.576345 
L 112.792331 89.672694 
L 114.480356 72.35975 
L 116.168381 85.720826 
L 117.856406 104.256968 
L 119.54443 59.845502 
L 121.232455 116.677124 
L 122.92048 114.889374 
L 124.608505 143.775646 
L 126.29653 28.795112 
L 127.984555 153.278947 
L 129.672579 24.937336 
L 131.360604 47.989898 
L 133.048629 92.307273 
L 134.736654 83.18034 
L 136.424679 96.541417 
L 138.112704 75.464789 
L 139.800728 127.027254 
L 141.488753 50.906753 
L 143.176778 183.294323 
L 144.864803 92.495457 
L 146.552828 54.952713 
L 148.240853 90.237247 
L 149.928877 139.071041 
L 151.616902 112.348888 
L 153.304927 87.790852 
L 154.992952 120.723084 
L 156.680977 94.941851 
L 158.369001 82.521695 
L 160.057026 43.379386 
L 161.745051 65.208751 
L 163.433076 48.460359 
L 165.121101 70.007447 
L 166.809126 76.40571 
L 168.49715 20.891377 
L 170.185175 111.502059 
L 171.8732 49.777648 
L 173.561225 88.919957 
L 175.24925 79.416656 
L 176.937275 72.453842 
L 178.625299 64.644198 
L 180.313324 33.405625 
L 182.001349 46.578517 
L 183.689374 46.108057 
L 185.377399 92.119089 
L 187.065424 33.405625 
L 188.753448 47.331254 
L 190.441473 53.070871 
L 192.129498 73.959315 
L 193.817523 93.248194 
L 195.505548 94.189115 
L 197.193572 35.00519 
L 198.881597 95.224128 
L 200.569622 51.094937 
L 202.257647 46.108057 
L 203.945672 74.994328 
L 205.633697 52.224043 
L 207.321721 79.604841 
L 209.009746 93.906838 
L 210.697771 60.315962 
L 212.385796 128.532727 
L 214.073821 53.541332 
L 215.761846 111.031599 
L 217.44987 58.716397 
L 219.137895 76.593894 
L 220.82592 57.305015 
L 222.513945 98.517351 
L 224.20197 36.981124 
L 227.578019 96.823693 
L 229.266044 58.057752 
L 230.954069 68.972434 
L 232.642094 173.414654 
L 234.330119 84.96809 
L 236.018143 110.467046 
L 237.706168 148.856619 
L 239.394193 79.604841 
L 241.082218 106.60927 
L 242.770243 69.254711 
L 244.458268 102.281034 
L 246.146292 162.688156 
L 247.834317 72.35975 
L 249.522342 69.348803 
L 251.210367 32.182427 
L 252.898392 83.18034 
L 254.586417 107.738375 
L 256.274441 25.313705 
L 257.962466 42.062097 
L 259.650491 123.26357 
L 261.338516 50.154017 
L 263.026541 77.064354 
L 264.714566 62.856449 
L 266.40259 62.385988 
L 268.090615 113.383901 
L 269.77864 82.051235 
L 271.466665 66.05558 
L 273.15469 65.020567 
L 274.842714 121.099452 
L 276.530739 83.556708 
L 278.218764 69.913355 
L 279.906789 44.88486 
L 283.282839 133.14324 
L 284.970863 49.213096 
L 286.658888 65.491027 
L 288.346913 48.366267 
L 290.034938 82.992156 
L 291.722963 91.648628 
L 293.410988 74.806144 
L 295.099012 89.01405 
L 296.787037 54.199976 
L 298.475062 72.83021 
L 300.163087 145.657488 
L 301.851112 73.677039 
L 303.539137 120.064439 
L 305.227161 128.438635 
L 306.915186 135.495542 
L 308.603211 127.403622 
L 310.291236 200.983636 
L 311.979261 64.73829 
L 313.667286 97.57643 
L 315.35531 44.602583 
L 317.043335 69.819263 
L 318.73136 104.162876 
L 320.419385 107.92656 
L 322.10741 116.112571 
L 323.795434 56.928647 
L 325.483459 85.532642 
L 328.859509 47.707622 
L 330.547534 47.895806 
L 332.235559 86.003103 
L 333.923583 46.296241 
L 335.611608 143.681554 
L 337.299633 93.718654 
L 338.987658 99.646456 
L 340.675683 29.077388 
L 342.363708 154.408052 
L 344.051732 89.390418 
L 345.739757 111.878427 
L 347.427782 75.276604 
L 349.115807 98.987811 
L 350.803832 54.576345 
L 352.491857 46.013965 
L 354.179881 69.160619 
L 355.867906 69.066527 
L 357.555931 34.53473 
L 359.243956 116.865308 
L 360.931981 89.390418 
L 362.620005 78.66392 
L 364.30803 56.740463 
L 365.996055 71.230645 
L 367.68408 58.622305 
L 369.372105 78.852104 
L 371.06013 69.348803 
L 372.748154 41.403452 
L 374.436179 77.064354 
L 376.124204 29.171481 
L 377.812229 53.823608 
L 379.500254 113.477993 
L 381.188279 86.661747 
L 382.876303 81.486682 
L 384.564328 44.602583 
L 386.252353 96.729601 
L 387.940378 22.585034 
L 389.628403 65.867396 
L 391.316428 101.810574 
L 393.004452 90.143155 
L 394.692477 71.324737 
L 396.380502 41.779821 
L 398.068527 75.652973 
L 399.756552 60.974607 
L 401.444576 28.136468 
L 403.132601 128.156359 
L 404.820626 128.909096 
L 406.508651 82.521695 
L 409.884701 97.858706 
L 411.572725 19.856364 
L 413.26075 52.035858 
L 414.948775 45.919872 
L 416.6368 140.294238 
L 418.324825 41.403452 
L 420.01285 141.70562 
L 421.700874 64.079646 
L 423.388899 79.322564 
L 425.076924 43.09711 
L 426.764949 107.362007 
L 428.452974 51.094937 
L 431.829023 104.256968 
L 433.517048 130.414569 
L 436.893098 86.661747 
L 438.581123 43.849847 
L 440.269147 84.309445 
L 441.957172 68.031514 
L 443.645197 55.987726 
L 445.333222 84.027169 
L 447.021247 39.05115 
L 448.709272 68.690158 
L 450.397296 68.878342 
L 452.085321 73.018394 
L 453.773346 73.959315 
L 455.461371 97.482338 
L 457.149396 57.210923 
L 458.837421 45.637596 
L 460.525445 32.464704 
L 462.21347 108.39702 
L 463.901495 32.74698 
L 465.58952 79.322564 
L 467.277545 44.038031 
L 468.96557 73.300671 
L 470.653594 152.432118 
L 472.341619 59.75141 
L 474.029644 56.928647 
L 475.717669 188.563481 
L 477.405694 57.869568 
L 479.093719 40.932992 
L 480.781743 111.878427 
L 482.469768 141.517436 
L 484.157793 29.641941 
L 485.845818 115.642111 
L 487.533843 55.799542 
L 489.221867 56.081818 
L 492.597917 34.346545 
L 494.285942 67.090593 
L 495.973967 110.749322 
L 497.661992 53.9177 
L 499.350016 133.425516 
L 502.726066 48.366267 
L 504.414091 89.202234 
L 504.414091 89.202234 
" clip-path="url(#p2de01cbec9)" style="fill: none; stroke: #99004d; stroke-width: 0.8; stroke-linecap: square"/>
   </g>
   <g id="patch_3">
    <path d="M 63.08 210.04 
L 63.08 10.8 
" style="fill: none; stroke: #000000; stroke-width: 0.8; stroke-linejoin: miter; stroke-linecap: square"/>
   </g>
   <g id="patch_4">
    <path d="M 525.43 210.04 
L 525.43 10.8 
" style="fill: none; stroke: #000000; stroke-width: 0.8; stroke-linejoin: miter; stroke-linecap: square"/>
   </g>
   <g id="patch_5">
    <path d="M 63.08 210.04 
L 525.43 210.04 
" style="fill: none; stroke: #000000; stroke-width: 0.8; stroke-linejoin: miter; stroke-linecap: square"/>
   </g>
   <g id="patch_6">
    <path d="M 63.08 10.8 
L 525.43 10.8 
" style="fill: none; stroke: #000000; stroke-width: 0.8; stroke-linejoin: miter; stroke-linecap: square"/>
   </g>
  </g>
  <g id="axes_2">
   <g id="matplotlib.axis_3">
    <g id="ytick_9">
     <g id="line2d_16">
      <defs>
       <path id="m74032e023f" d="M 0 0 
L 3.5 0 
" style="stroke: #000000; stroke-width: 0.8"/>
      </defs>
      <g>
       <use xlink:href="#m74032e023f" x="525.43" y="184.763284" style="stroke: #000000; stroke-width: 0.8"/>
      </g>
     </g>
     <g id="text_17">
      <text style="font: 10px 'DejaVu Sans', 'Bitstream Vera Sans', 'Computer Modern Sans Serif', 'Lucida Grande', 'Verdana', 'Geneva', 'Lucid', 'Arial', 'Helvetica', 'Avant Garde', sans-serif; text-anchor: start" x="532.43" y="188.562502" transform="rotate(-0 532.43 188.562502)">10</text>
     </g>
    </g>
    <g id="ytick_10">
     <g id="line2d_17">
      <g>
       <use xlink:href="#m74032e023f" x="525.43" y="157.729362" style="stroke: #000000; stroke-width: 0.8"/>
      </g>
     </g>
     <g id="text_18">
      <text style="font: 10px 'DejaVu Sans', 'Bitstream Vera Sans', 'Computer Modern Sans Serif', 'Lucida Grande', 'Verdana', 'Geneva', 'Lucid', 'Arial', 'Helvetica', 'Avant Garde', sans-serif; text-anchor: start" x="532.43" y="161.528581" transform="rotate(-0 532.43 161.528581)">20</text>
     </g>
    </g>
    <g id="ytick_11">
     <g id="line2d_18">
      <g>
       <use xlink:href="#m74032e023f" x="525.43" y="130.695441" style="stroke: #000000; stroke-width: 0.8"/>
      </g>
     </g>
     <g id="text_19">
      <text style="font: 10px 'DejaVu Sans', 'Bitstream Vera Sans', 'Computer Modern Sans Serif', 'Lucida Grande', 'Verdana', 'Geneva', 'Lucid', 'Arial', 'Helvetica', 'Avant Garde', sans-serif; text-anchor: start" x="532.43" y="134.49466" transform="rotate(-0 532.43 134.49466)">30</text>
     </g>
    </g>
    <g id="ytick_12">
     <g id="line2d_19">
      <g>
       <use xlink:href="#m74032e023f" x="525.43" y="103.66152" style="stroke: #000000; stroke-width: 0.8"/>
      </g>
     </g>
     <g id="text_20">
      <text style="font: 10px 'DejaVu Sans', 'Bitstream Vera Sans', 'Computer Modern Sans Serif', 'Lucida Grande', 'Verdana', 'Geneva', 'Lucid', 'Arial', 'Helvetica', 'Avant Garde', sans-serif; text-anchor: start" x="532.43" y="107.460738" transform="rotate(-0 532.43 107.460738)">40</text>
     </g>
    </g>
    <g id="ytick_13">
     <g id="line2d_20">
      <g>
       <use xlink:href="#m74032e023f" x="525.43" y="76.627598" style="stroke: #000000; stroke-width: 0.8"/>
      </g>
     </g>
     <g id="text_21">
      <text style="font: 10px 'DejaVu Sans', 'Bitstream Vera Sans', 'Computer Modern Sans Serif', 'Lucida Grande', 'Verdana', 'Geneva', 'Lucid', 'Arial', 'Helvetica', 'Avant Garde', sans-serif; text-anchor: start" x="532.43" y="80.426817" transform="rotate(-0 532.43 80.426817)">50</text>
     </g>
    </g>
    <g id="ytick_14">
     <g id="line2d_21">
      <g>
       <use xlink:href="#m74032e023f" x="525.43" y="49.593677" style="stroke: #000000; stroke-width: 0.8"/>
      </g>
     </g>
     <g id="text_22">
      <text style="font: 10px 'DejaVu Sans', 'Bitstream Vera Sans', 'Computer Modern Sans Serif', 'Lucida Grande', 'Verdana', 'Geneva', 'Lucid', 'Arial', 'Helvetica', 'Avant Garde', sans-serif; text-anchor: start" x="532.43" y="53.392896" transform="rotate(-0 532.43 53.392896)">60</text>
     </g>
    </g>
    <g id="ytick_15">
     <g id="line2d_22">
      <g>
       <use xlink:href="#m74032e023f" x="525.43" y="22.559756" style="stroke: #000000; stroke-width: 0.8"/>
      </g>
     </g>
     <g id="text_23">
      <text style="font: 10px 'DejaVu Sans', 'Bitstream Vera Sans', 'Computer Modern Sans Serif', 'Lucida Grande', 'Verdana', 'Geneva', 'Lucid', 'Arial', 'Helvetica', 'Avant Garde', sans-serif; text-anchor: start" x="532.43" y="26.358975" transform="rotate(-0 532.43 26.358975)">70</text>
     </g>
    </g>
    <g id="text_24">
     <text style="font: 10px 'DejaVu Sans', 'Bitstream Vera Sans', 'Computer Modern Sans Serif', 'Lucida Grande', 'Verdana', 'Geneva', 'Lucid', 'Arial', 'Helvetica', 'Avant Garde', sans-serif; text-anchor: middle" x="562.753438" y="110.42" transform="rotate(-90 562.753438 110.42)">hw(data)</text>
    </g>
   </g>
   <g id="line2d_23">
    <path d="M 84.095909 103.66152 
L 85.783934 76.627598 
L 87.471959 79.330991 
L 89.159984 133.398833 
L 90.848008 90.144559 
L 92.536033 52.297069 
L 94.224058 182.059891 
L 95.912083 73.924206 
L 97.600108 41.483501 
L 99.288133 84.737775 
L 100.976157 168.542931 
L 102.664182 119.881872 
L 104.352207 52.297069 
L 106.040232 60.407246 
L 107.728257 57.703853 
L 109.416281 90.144559 
L 111.104306 63.110638 
L 112.792331 71.220814 
L 114.480356 73.924206 
L 116.168381 79.330991 
L 117.856406 144.212402 
L 119.54443 49.593677 
L 121.232455 114.475088 
L 122.92048 114.475088 
L 124.608505 160.432754 
L 126.29653 41.483501 
L 127.984555 171.246323 
L 129.672579 90.144559 
L 131.360604 57.703853 
L 133.048629 127.992049 
L 134.736654 163.136147 
L 136.424679 179.356499 
L 138.112704 133.398833 
L 139.800728 155.02597 
L 141.488753 36.076716 
L 143.176778 160.432754 
L 144.864803 130.695441 
L 146.552828 106.364912 
L 148.240853 117.17848 
L 149.928877 125.288657 
L 151.616902 122.585265 
L 153.304927 144.212402 
L 154.992952 171.246323 
L 156.680977 100.958128 
L 158.369001 90.144559 
L 160.057026 49.593677 
L 161.745051 76.627598 
L 163.433076 46.890285 
L 165.121101 84.737775 
L 166.809126 103.66152 
L 168.49715 76.627598 
L 170.185175 149.619186 
L 171.8732 65.81403 
L 173.561225 100.958128 
L 175.24925 103.66152 
L 176.937275 60.407246 
L 178.625299 33.373324 
L 180.313324 49.593677 
L 182.001349 71.220814 
L 183.689374 36.076716 
L 185.377399 119.881872 
L 187.065424 52.297069 
L 188.753448 87.441167 
L 190.441473 44.186893 
L 192.129498 44.186893 
L 193.817523 119.881872 
L 195.505548 127.992049 
L 197.193572 100.958128 
L 198.881597 127.992049 
L 200.569622 98.254735 
L 202.257647 52.297069 
L 203.945672 103.66152 
L 205.633697 114.475088 
L 207.321721 138.805617 
L 209.009746 146.915794 
L 210.697771 98.254735 
L 212.385796 187.466676 
L 214.073821 38.780109 
L 215.761846 125.288657 
L 217.44987 141.509009 
L 219.137895 79.330991 
L 220.82592 103.66152 
L 222.513945 109.068304 
L 224.20197 87.441167 
L 225.889995 106.364912 
L 227.578019 144.212402 
L 229.266044 44.186893 
L 230.954069 122.585265 
L 232.642094 195.576852 
L 234.330119 100.958128 
L 236.018143 98.254735 
L 237.706168 146.915794 
L 239.394193 100.958128 
L 241.082218 136.102225 
L 242.770243 95.551343 
L 244.458268 136.102225 
L 246.146292 117.17848 
L 247.834317 87.441167 
L 249.522342 82.034383 
L 251.210367 19.856364 
L 252.898392 71.220814 
L 254.586417 130.695441 
L 256.274441 27.96654 
L 257.962466 79.330991 
L 259.650491 141.509009 
L 261.338516 90.144559 
L 263.026541 84.737775 
L 264.714566 49.593677 
L 266.40259 76.627598 
L 268.090615 149.619186 
L 269.77864 114.475088 
L 271.466665 84.737775 
L 273.15469 44.186893 
L 274.842714 127.992049 
L 276.530739 111.771696 
L 278.218764 87.441167 
L 279.906789 68.517422 
L 281.594814 125.288657 
L 283.282839 114.475088 
L 284.970863 65.81403 
L 286.658888 84.737775 
L 288.346913 57.703853 
L 290.034938 111.771696 
L 291.722963 106.364912 
L 293.410988 90.144559 
L 295.099012 122.585265 
L 296.787037 79.330991 
L 298.475062 95.551343 
L 300.163087 176.653107 
L 301.851112 111.771696 
L 303.539137 98.254735 
L 305.227161 98.254735 
L 306.915186 106.364912 
L 308.603211 171.246323 
L 310.291236 200.983636 
L 311.979261 82.034383 
L 313.667286 114.475088 
L 315.35531 49.593677 
L 317.043335 98.254735 
L 318.73136 130.695441 
L 320.419385 171.246323 
L 322.10741 152.322578 
L 323.795434 63.110638 
L 325.483459 79.330991 
L 328.859509 90.144559 
L 330.547534 33.373324 
L 332.235559 141.509009 
L 333.923583 44.186893 
L 335.611608 149.619186 
L 337.299633 114.475088 
L 338.987658 136.102225 
L 340.675683 33.373324 
L 342.363708 157.729362 
L 344.051732 87.441167 
L 345.739757 125.288657 
L 347.427782 76.627598 
L 349.115807 114.475088 
L 350.803832 95.551343 
L 352.491857 30.669932 
L 354.179881 90.144559 
L 355.867906 76.627598 
L 357.555931 36.076716 
L 359.243956 163.136147 
L 360.931981 68.517422 
L 362.620005 106.364912 
L 364.30803 55.000461 
L 365.996055 68.517422 
L 367.68408 133.398833 
L 369.372105 111.771696 
L 371.06013 92.847951 
L 372.748154 38.780109 
L 374.436179 117.17848 
L 376.124204 55.000461 
L 377.812229 76.627598 
L 379.500254 144.212402 
L 381.188279 95.551343 
L 382.876303 82.034383 
L 384.564328 84.737775 
L 386.252353 117.17848 
L 387.940378 25.263148 
L 389.628403 60.407246 
L 391.316428 114.475088 
L 393.004452 84.737775 
L 394.692477 76.627598 
L 396.380502 27.96654 
L 398.068527 71.220814 
L 399.756552 44.186893 
L 401.444576 41.483501 
L 403.132601 149.619186 
L 404.820626 165.839539 
L 406.508651 106.364912 
L 408.196676 138.805617 
L 409.884701 111.771696 
L 411.572725 87.441167 
L 413.26075 55.000461 
L 414.948775 52.297069 
L 416.6368 106.364912 
L 418.324825 36.076716 
L 420.01285 171.246323 
L 421.700874 76.627598 
L 423.388899 106.364912 
L 425.076924 52.297069 
L 426.764949 138.805617 
L 428.452974 87.441167 
L 430.140999 100.958128 
L 431.829023 136.102225 
L 433.517048 122.585265 
L 435.205073 87.441167 
L 436.893098 49.593677 
L 438.581123 65.81403 
L 440.269147 68.517422 
L 441.957172 41.483501 
L 443.645197 41.483501 
L 445.333222 111.771696 
L 447.021247 79.330991 
L 448.709272 73.924206 
L 450.397296 117.17848 
L 452.085321 79.330991 
L 453.773346 106.364912 
L 455.461371 111.771696 
L 457.149396 71.220814 
L 458.837421 57.703853 
L 460.525445 68.517422 
L 462.21347 127.992049 
L 463.901495 41.483501 
L 465.58952 111.771696 
L 467.277545 33.373324 
L 468.96557 95.551343 
L 470.653594 119.881872 
L 472.341619 63.110638 
L 474.029644 98.254735 
L 475.717669 152.322578 
L 477.405694 44.186893 
L 479.093719 57.703853 
L 480.781743 130.695441 
L 482.469768 195.576852 
L 484.157793 57.703853 
L 485.845818 114.475088 
L 487.533843 90.144559 
L 489.221867 36.076716 
L 490.909892 44.186893 
L 492.597917 38.780109 
L 495.973967 152.322578 
L 497.661992 71.220814 
L 499.350016 103.66152 
L 501.038041 127.992049 
L 502.726066 55.000461 
L 504.414091 106.364912 
L 504.414091 106.364912 
" clip-path="url(#p2de01cbec9)" style="fill: none; stroke: #235996; stroke-width: 0.8; stroke-linecap: square"/>
   </g>
   <g id="patch_7">
    <path d="M 63.08 210.04 
L 63.08 10.8 
" style="fill: none; stroke: #000000; stroke-width: 0.8; stroke-linejoin: miter; stroke-linecap: square"/>
   </g>
   <g id="patch_8">
    <path d="M 525.43 210.04 
L 525.43 10.8 
" style="fill: none; stroke: #000000; stroke-width: 0.8; stroke-linejoin: miter; stroke-linecap: square"/>
   </g>
   <g id="patch_9">
    <path d="M 63.08 210.04 
L 525.43 210.04 
" style="fill: none; stroke: #000000; stroke-width: 0.8; stroke-linejoin: miter; stroke-linecap: square"/>
   </g>
   <g id="patch_10">
    <path d="M 63.08 10.8 
L 525.43 10.8 
" style="fill: none; stroke: #000000; stroke-width: 0.8; stroke-linejoin: miter; stroke-linecap: square"/>
   </g>
   <g id="legend_1">
    <g id="patch_11">
     <path d="M 153.644625 43.4565 
L 434.865375 43.4565 
Q 437.745375 43.4565 437.745375 40.5765 
L 437.745375 20.88 
Q 437.745375 18 434.865375 18 
L 153.644625 18 
Q 150.764625 18 150.764625 20.88 
L 150.764625 40.5765 
Q 150.764625 43.4565 153.644625 43.4565 
z
" style="fill: #ffffff; opacity: 0.8; stroke: #000000; stroke-linejoin: miter"/>
    </g>
    <g id="line2d_24">
     <path d="M 156.524625 29.66175 
L 170.924625 29.66175 
L 185.324625 29.66175 
" style="fill: none; stroke: #99004d; stroke-width: 0.8; stroke-linecap: square"/>
    </g>
    <g id="text_25">
     <text style="font: 14.4px 'DejaVu Sans', 'Bitstream Vera Sans', 'Computer Modern Sans Serif', 'Lucida Grande', 'Verdana', 'Geneva', 'Lucid', 'Arial', 'Helvetica', 'Avant Garde', sans-serif; text-anchor: start" x="196.844625" y="34.70175" transform="rotate(-0 196.844625 34.70175)">power</text>
    </g>
    <g id="line2d_25">
     <path d="M 270.154125 29.66175 
L 284.554125 29.66175 
L 298.954125 29.66175 
" style="fill: none; stroke: #235996; stroke-width: 0.8; stroke-linecap: square"/>
    </g>
    <g id="text_26">
     <text style="font: 14.4px 'DejaVu Sans', 'Bitstream Vera Sans', 'Computer Modern Sans Serif', 'Lucida Grande', 'Verdana', 'Geneva', 'Lucid', 'Arial', 'Helvetica', 'Avant Garde', sans-serif; text-anchor: start" x="310.474125" y="34.70175" transform="rotate(-0 310.474125 34.70175)">hw(rs1)+hw(rs2)</text>
    </g>
   </g>
  </g>
 </g>
 <defs>
  <clipPath id="p2de01cbec9">
   <rect x="63.08" y="10.8" width="462.35" height="199.24"/>
  </clipPath>
 </defs>
</svg>
