<?xml version="1.0" encoding="utf-8" standalone="no"?>
<!DOCTYPE svg PUBLIC "-//W3C//DTD SVG 1.1//EN"
  "http://www.w3.org/Graphics/SVG/1.1/DTD/svg11.dtd">
<svg xmlns:xlink="http://www.w3.org/1999/xlink" width="576pt" height="252pt" viewBox="0 0 576 252" xmlns="http://www.w3.org/2000/svg" version="1.1">
 <metadata>
  <rdf:RDF xmlns:dc="http://purl.org/dc/elements/1.1/" xmlns:cc="http://creativecommons.org/ns#" xmlns:rdf="http://www.w3.org/1999/02/22-rdf-syntax-ns#">
   <cc:Work>
    <dc:type rdf:resource="http://purl.org/dc/dcmitype/StillImage"/>
    <dc:date>2023-12-04T21:09:05.920309</dc:date>
    <dc:format>image/svg+xml</dc:format>
    <dc:creator>
     <cc:Agent>
      <dc:title>Matplotlib v3.7.4, https://matplotlib.org/</dc:title>
     </cc:Agent>
    </dc:creator>
   </cc:Work>
  </rdf:RDF>
 </metadata>
 <defs>
  <style type="text/css">*{stroke-linejoin: round; stroke-linecap: butt}</style>
 </defs>
 <g id="figure_1">
  <g id="patch_1">
   <path d="M 0 252 
L 576 252 
L 576 0 
L 0 0 
z
" style="fill: #ffffff"/>
  </g>
  <g id="axes_1">
   <g id="patch_2">
    <path d="M 56.87 210.04 
L 525.43 210.04 
L 525.43 10.8 
L 56.87 10.8 
z
" style="fill: #ffffff"/>
   </g>
   <g id="matplotlib.axis_1">
    <g id="xtick_1">
     <g id="line2d_1">
      <defs>
       <path id="m1a39c23efa" d="M 0 0 
L 0 3.5 
" style="stroke: #000000; stroke-width: 0.8"/>
      </defs>
      <g>
       <use xlink:href="#m1a39c23efa" x="78.168182" y="210.04" style="stroke: #000000; stroke-width: 0.8"/>
      </g>
     </g>
     <g id="text_1">
      <text style="font: 10px 'DejaVu Sans', 'Bitstream Vera Sans', 'Computer Modern Sans Serif', 'Lucida Grande', 'Verdana', 'Geneva', 'Lucid', 'Arial', 'Helvetica', 'Avant Garde', sans-serif; text-anchor: middle" x="78.168182" y="224.638438" transform="rotate(-0 78.168182 224.638438)">0</text>
     </g>
    </g>
    <g id="xtick_2">
     <g id="line2d_2">
      <g>
       <use xlink:href="#m1a39c23efa" x="163.703049" y="210.04" style="stroke: #000000; stroke-width: 0.8"/>
      </g>
     </g>
     <g id="text_2">
      <text style="font: 10px 'DejaVu Sans', 'Bitstream Vera Sans', 'Computer Modern Sans Serif', 'Lucida Grande', 'Verdana', 'Geneva', 'Lucid', 'Arial', 'Helvetica', 'Avant Garde', sans-serif; text-anchor: middle" x="163.703049" y="224.638438" transform="rotate(-0 163.703049 224.638438)">50</text>
     </g>
    </g>
    <g id="xtick_3">
     <g id="line2d_3">
      <g>
       <use xlink:href="#m1a39c23efa" x="249.237915" y="210.04" style="stroke: #000000; stroke-width: 0.8"/>
      </g>
     </g>
     <g id="text_3">
      <text style="font: 10px 'DejaVu Sans', 'Bitstream Vera Sans', 'Computer Modern Sans Serif', 'Lucida Grande', 'Verdana', 'Geneva', 'Lucid', 'Arial', 'Helvetica', 'Avant Garde', sans-serif; text-anchor: middle" x="249.237915" y="224.638438" transform="rotate(-0 249.237915 224.638438)">100</text>
     </g>
    </g>
    <g id="xtick_4">
     <g id="line2d_4">
      <g>
       <use xlink:href="#m1a39c23efa" x="334.772782" y="210.04" style="stroke: #000000; stroke-width: 0.8"/>
      </g>
     </g>
     <g id="text_4">
      <text style="font: 10px 'DejaVu Sans', 'Bitstream Vera Sans', 'Computer Modern Sans Serif', 'Lucida Grande', 'Verdana', 'Geneva', 'Lucid', 'Arial', 'Helvetica', 'Avant Garde', sans-serif; text-anchor: middle" x="334.772782" y="224.638438" transform="rotate(-0 334.772782 224.638438)">150</text>
     </g>
    </g>
    <g id="xtick_5">
     <g id="line2d_5">
      <g>
       <use xlink:href="#m1a39c23efa" x="420.307649" y="210.04" style="stroke: #000000; stroke-width: 0.8"/>
      </g>
     </g>
     <g id="text_5">
      <text style="font: 10px 'DejaVu Sans', 'Bitstream Vera Sans', 'Computer Modern Sans Serif', 'Lucida Grande', 'Verdana', 'Geneva', 'Lucid', 'Arial', 'Helvetica', 'Avant Garde', sans-serif; text-anchor: middle" x="420.307649" y="224.638438" transform="rotate(-0 420.307649 224.638438)">200</text>
     </g>
    </g>
    <g id="xtick_6">
     <g id="line2d_6">
      <g>
       <use xlink:href="#m1a39c23efa" x="505.842516" y="210.04" style="stroke: #000000; stroke-width: 0.8"/>
      </g>
     </g>
     <g id="text_6">
      <text style="font: 10px 'DejaVu Sans', 'Bitstream Vera Sans', 'Computer Modern Sans Serif', 'Lucida Grande', 'Verdana', 'Geneva', 'Lucid', 'Arial', 'Helvetica', 'Avant Garde', sans-serif; text-anchor: middle" x="505.842516" y="224.638438" transform="rotate(-0 505.842516 224.638438)">250</text>
     </g>
    </g>
    <g id="text_7">
     <text style="font: 10px 'DejaVu Sans', 'Bitstream Vera Sans', 'Computer Modern Sans Serif', 'Lucida Grande', 'Verdana', 'Geneva', 'Lucid', 'Arial', 'Helvetica', 'Avant Garde', sans-serif; text-anchor: middle" x="291.15" y="238.316563" transform="rotate(-0 291.15 238.316563)">Cycles</text>
    </g>
   </g>
   <g id="matplotlib.axis_2">
    <g id="ytick_1">
     <g id="line2d_7">
      <defs>
       <path id="mb66159c9f6" d="M 0 0 
L -3.5 0 
" style="stroke: #000000; stroke-width: 0.8"/>
      </defs>
      <g>
       <use xlink:href="#mb66159c9f6" x="56.87" y="171.344628" style="stroke: #000000; stroke-width: 0.8"/>
      </g>
     </g>
     <g id="text_8">
      <text style="font: 10px 'DejaVu Sans', 'Bitstream Vera Sans', 'Computer Modern Sans Serif', 'Lucida Grande', 'Verdana', 'Geneva', 'Lucid', 'Arial', 'Helvetica', 'Avant Garde', sans-serif; text-anchor: end" x="49.87" y="175.143847" transform="rotate(-0 49.87 175.143847)">50</text>
     </g>
    </g>
    <g id="ytick_2">
     <g id="line2d_8">
      <g>
       <use xlink:href="#mb66159c9f6" x="56.87" y="130.179339" style="stroke: #000000; stroke-width: 0.8"/>
      </g>
     </g>
     <g id="text_9">
      <text style="font: 10px 'DejaVu Sans', 'Bitstream Vera Sans', 'Computer Modern Sans Serif', 'Lucida Grande', 'Verdana', 'Geneva', 'Lucid', 'Arial', 'Helvetica', 'Avant Garde', sans-serif; text-anchor: end" x="49.87" y="133.978558" transform="rotate(-0 49.87 133.978558)">100</text>
     </g>
    </g>
    <g id="ytick_3">
     <g id="line2d_9">
      <g>
       <use xlink:href="#mb66159c9f6" x="56.87" y="89.01405" style="stroke: #000000; stroke-width: 0.8"/>
      </g>
     </g>
     <g id="text_10">
      <text style="font: 10px 'DejaVu Sans', 'Bitstream Vera Sans', 'Computer Modern Sans Serif', 'Lucida Grande', 'Verdana', 'Geneva', 'Lucid', 'Arial', 'Helvetica', 'Avant Garde', sans-serif; text-anchor: end" x="49.87" y="92.813268" transform="rotate(-0 49.87 92.813268)">150</text>
     </g>
    </g>
    <g id="ytick_4">
     <g id="line2d_10">
      <g>
       <use xlink:href="#mb66159c9f6" x="56.87" y="47.84876" style="stroke: #000000; stroke-width: 0.8"/>
      </g>
     </g>
     <g id="text_11">
      <text style="font: 10px 'DejaVu Sans', 'Bitstream Vera Sans', 'Computer Modern Sans Serif', 'Lucida Grande', 'Verdana', 'Geneva', 'Lucid', 'Arial', 'Helvetica', 'Avant Garde', sans-serif; text-anchor: end" x="49.87" y="51.647979" transform="rotate(-0 49.87 51.647979)">200</text>
     </g>
    </g>
    <g id="text_12">
     <text style="font: 10px 'DejaVu Sans', 'Bitstream Vera Sans', 'Computer Modern Sans Serif', 'Lucida Grande', 'Verdana', 'Geneva', 'Lucid', 'Arial', 'Helvetica', 'Avant Garde', sans-serif; text-anchor: middle" x="18.702813" y="110.42" transform="rotate(-90 18.702813 110.42)">power (uW)</text>
    </g>
   </g>
   <g id="line2d_11">
    <path d="M 78.168182 149.938678 
L 79.878879 47.84876 
L 81.589576 77.487769 
L 83.300274 59.375041 
L 85.010971 55.258512 
L 86.721668 172.99124 
L 88.432366 172.99124 
L 90.143063 63.49157 
L 91.85376 65.961488 
L 93.564458 56.905124 
L 95.275155 42.908926 
L 96.985853 155.701818 
L 98.69655 82.427603 
L 102.117945 38.792397 
L 103.828642 81.604298 
L 105.539339 56.905124 
L 107.250037 121.946281 
L 108.960734 50.318678 
L 110.671431 131.82595 
L 112.382129 59.375041 
L 114.092826 68.431405 
L 115.803523 37.969091 
L 117.514221 49.495372 
L 119.224918 131.002645 
L 120.935615 45.378843 
L 122.646313 77.487769 
L 124.35701 70.078017 
L 126.067707 117.829752 
L 127.778405 31.382645 
L 129.489102 69.254711 
L 131.199799 43.732231 
L 132.910497 200.983636 
L 134.621194 146.645455 
L 136.331891 142.528926 
L 138.042589 115.359835 
L 139.753286 65.138182 
L 141.463983 43.732231 
L 143.174681 26.44281 
L 144.885378 84.074215 
L 146.596075 118.653058 
L 148.306773 172.99124 
L 150.01747 43.732231 
L 151.728167 56.905124 
L 153.438865 26.44281 
L 155.149562 85.720826 
L 156.860259 158.995041 
L 158.570957 75.017851 
L 160.281654 117.006446 
L 161.992351 56.905124 
L 163.703049 163.934876 
L 165.413746 64.314876 
L 167.124443 84.897521 
L 168.835141 54.435207 
L 170.545838 97.247107 
L 172.256535 57.72843 
L 173.967233 52.788595 
L 175.67793 54.435207 
L 177.388627 54.435207 
L 179.099325 93.953884 
L 180.810022 75.841157 
L 182.520719 47.84876 
L 184.231417 124.416198 
L 185.942114 100.540331 
L 187.652811 97.247107 
L 189.363509 68.431405 
L 191.074206 22.326281 
L 192.784903 116.18314 
L 194.495601 74.194545 
L 196.206298 77.487769 
L 197.916995 61.021653 
L 199.627693 69.254711 
L 201.33839 39.615702 
L 203.049087 43.732231 
L 204.759785 32.20595 
L 206.470482 43.732231 
L 208.181179 53.611901 
L 209.891877 199.337025 
L 211.602574 50.318678 
L 213.313271 71.724628 
L 215.023969 56.081818 
L 216.734666 123.592893 
L 218.445363 72.547934 
L 220.156061 55.258512 
L 221.866758 137.589091 
L 223.577455 56.081818 
L 225.288153 79.13438 
L 226.99885 134.295868 
L 228.709547 100.540331 
L 230.420245 52.788595 
L 232.130942 88.190744 
L 233.841639 44.555537 
L 235.552337 48.672066 
L 237.263034 64.314876 
L 238.973731 121.122975 
L 240.684429 70.901322 
L 242.395126 85.720826 
L 244.105823 81.604298 
L 245.816521 33.852562 
L 247.527218 96.423802 
L 249.237915 66.784793 
L 250.948613 197.690413 
L 252.65931 89.837355 
L 254.370007 35.499174 
L 256.080705 81.604298 
L 257.791402 40.439008 
L 259.502099 81.604298 
L 261.212797 48.672066 
L 262.923494 120.299669 
L 264.634191 63.49157 
L 266.344889 58.551736 
L 268.055586 68.431405 
L 269.766283 196.043802 
L 271.476981 199.337025 
L 273.187678 37.969091 
L 274.898375 53.611901 
L 276.609073 182.047603 
L 278.31977 83.250909 
L 280.030467 33.029256 
L 281.741165 56.081818 
L 283.451862 72.547934 
L 285.162559 55.258512 
L 286.873257 31.382645 
L 288.583954 60.198347 
L 290.294651 42.08562 
L 292.005349 68.431405 
L 293.716046 60.198347 
L 295.426743 127.709421 
L 297.137441 132.649256 
L 298.848138 39.615702 
L 300.558835 88.190744 
L 302.269533 140.882314 
L 303.98023 57.72843 
L 305.690927 99.717025 
L 307.401625 63.49157 
L 309.112322 68.431405 
L 310.823019 44.555537 
L 312.533717 42.908926 
L 314.244414 68.431405 
L 315.955111 28.089421 
L 317.665809 46.202149 
L 319.376506 55.258512 
L 321.087203 107.950083 
L 322.797901 52.788595 
L 324.508598 111.243306 
L 326.219295 40.439008 
L 327.929993 128.532727 
L 329.64069 97.247107 
L 331.351387 36.322479 
L 333.062085 59.375041 
L 334.772782 47.84876 
L 336.483479 47.84876 
L 338.194177 135.119174 
L 339.904874 34.675868 
L 341.615571 79.957686 
L 343.326269 43.732231 
L 345.036966 164.758182 
L 346.747663 66.784793 
L 348.458361 71.724628 
L 350.169058 82.427603 
L 351.879755 54.435207 
L 353.590453 51.141983 
L 355.30115 25.619504 
L 357.011847 30.559339 
L 358.722545 145.822149 
L 360.433242 145.822149 
L 362.143939 144.998843 
L 363.854637 90.660661 
L 365.565334 191.103967 
L 367.276031 79.957686 
L 368.986729 121.122975 
L 370.697426 42.08562 
L 372.408123 75.017851 
L 374.118821 50.318678 
L 375.829518 23.149587 
L 377.540215 139.235702 
L 379.250913 48.672066 
L 380.96161 167.228099 
L 382.672307 65.961488 
L 386.093702 167.228099 
L 387.804399 98.070413 
L 389.515097 79.13438 
L 391.225794 144.998843 
L 392.936491 172.99124 
L 394.647189 130.179339 
L 396.357886 59.375041 
L 398.068583 82.427603 
L 399.779281 65.961488 
L 401.489978 51.965289 
L 403.200675 48.672066 
L 404.911373 31.382645 
L 406.62207 96.423802 
L 408.332767 86.544132 
L 410.043465 78.311074 
L 411.754162 83.250909 
L 413.464859 84.897521 
L 415.175557 49.495372 
L 416.886254 94.77719 
L 418.596951 47.025455 
L 420.307649 48.672066 
L 422.018346 90.660661 
L 423.729043 113.713223 
L 425.439741 56.081818 
L 427.150438 62.668264 
L 428.861135 46.202149 
L 430.571833 51.141983 
L 432.28253 163.934876 
L 433.993227 59.375041 
L 435.703925 152.408595 
L 437.414622 64.314876 
L 440.836017 35.499174 
L 442.546714 177.107769 
L 444.257411 82.427603 
L 445.968109 107.950083 
L 447.678806 88.190744 
L 449.389503 126.06281 
L 451.100201 66.784793 
L 452.810898 71.724628 
L 454.521595 19.856364 
L 456.232293 114.536529 
L 457.94299 123.592893 
L 459.653687 34.675868 
L 461.364385 172.99124 
L 463.075082 95.600496 
L 464.785779 58.551736 
L 466.496477 35.499174 
L 468.207174 60.198347 
L 469.917871 38.792397 
L 471.628569 67.608099 
L 473.339266 56.905124 
L 475.049963 65.138182 
L 476.760661 61.021653 
L 478.471358 84.074215 
L 480.182055 42.908926 
L 481.892753 117.006446 
L 483.60345 79.13438 
L 485.314147 36.322479 
L 487.024845 76.664463 
L 488.735542 28.912727 
L 490.44624 90.660661 
L 492.156937 70.078017 
L 493.867634 79.13438 
L 495.578332 74.194545 
L 497.289029 59.375041 
L 498.999726 46.202149 
L 500.710424 51.141983 
L 502.421121 37.145785 
L 504.131818 96.423802 
L 504.131818 96.423802 
" clip-path="url(#p05f507c250)" style="fill: none; stroke: #99004d; stroke-width: 0.8; stroke-linecap: square"/>
   </g>
   <g id="patch_3">
    <path d="M 56.87 210.04 
L 56.87 10.8 
" style="fill: none; stroke: #000000; stroke-width: 0.8; stroke-linejoin: miter; stroke-linecap: square"/>
   </g>
   <g id="patch_4">
    <path d="M 525.43 210.04 
L 525.43 10.8 
" style="fill: none; stroke: #000000; stroke-width: 0.8; stroke-linejoin: miter; stroke-linecap: square"/>
   </g>
   <g id="patch_5">
    <path d="M 56.87 210.04 
L 525.43 210.04 
" style="fill: none; stroke: #000000; stroke-width: 0.8; stroke-linejoin: miter; stroke-linecap: square"/>
   </g>
   <g id="patch_6">
    <path d="M 56.87 10.8 
L 525.43 10.8 
" style="fill: none; stroke: #000000; stroke-width: 0.8; stroke-linejoin: miter; stroke-linecap: square"/>
   </g>
  </g>
  <g id="axes_2">
   <g id="matplotlib.axis_3">
    <g id="ytick_5">
     <g id="line2d_12">
      <defs>
       <path id="m00d09382e3" d="M 0 0 
L 3.5 0 
" style="stroke: #000000; stroke-width: 0.8"/>
      </defs>
      <g>
       <use xlink:href="#m00d09382e3" x="525.43" y="200.983636" style="stroke: #000000; stroke-width: 0.8"/>
      </g>
     </g>
     <g id="text_13">
      <text style="font: 10px 'DejaVu Sans', 'Bitstream Vera Sans', 'Computer Modern Sans Serif', 'Lucida Grande', 'Verdana', 'Geneva', 'Lucid', 'Arial', 'Helvetica', 'Avant Garde', sans-serif; text-anchor: start" x="532.43" y="204.782855" transform="rotate(-0 532.43 204.782855)">0</text>
     </g>
    </g>
    <g id="ytick_6">
     <g id="line2d_13">
      <g>
       <use xlink:href="#m00d09382e3" x="525.43" y="166.151469" style="stroke: #000000; stroke-width: 0.8"/>
      </g>
     </g>
     <g id="text_14">
      <text style="font: 10px 'DejaVu Sans', 'Bitstream Vera Sans', 'Computer Modern Sans Serif', 'Lucida Grande', 'Verdana', 'Geneva', 'Lucid', 'Arial', 'Helvetica', 'Avant Garde', sans-serif; text-anchor: start" x="532.43" y="169.950687" transform="rotate(-0 532.43 169.950687)">5</text>
     </g>
    </g>
    <g id="ytick_7">
     <g id="line2d_14">
      <g>
       <use xlink:href="#m00d09382e3" x="525.43" y="131.319301" style="stroke: #000000; stroke-width: 0.8"/>
      </g>
     </g>
     <g id="text_15">
      <text style="font: 10px 'DejaVu Sans', 'Bitstream Vera Sans', 'Computer Modern Sans Serif', 'Lucida Grande', 'Verdana', 'Geneva', 'Lucid', 'Arial', 'Helvetica', 'Avant Garde', sans-serif; text-anchor: start" x="532.43" y="135.118519" transform="rotate(-0 532.43 135.118519)">10</text>
     </g>
    </g>
    <g id="ytick_8">
     <g id="line2d_15">
      <g>
       <use xlink:href="#m00d09382e3" x="525.43" y="96.487133" style="stroke: #000000; stroke-width: 0.8"/>
      </g>
     </g>
     <g id="text_16">
      <text style="font: 10px 'DejaVu Sans', 'Bitstream Vera Sans', 'Computer Modern Sans Serif', 'Lucida Grande', 'Verdana', 'Geneva', 'Lucid', 'Arial', 'Helvetica', 'Avant Garde', sans-serif; text-anchor: start" x="532.43" y="100.286352" transform="rotate(-0 532.43 100.286352)">15</text>
     </g>
    </g>
    <g id="ytick_9">
     <g id="line2d_16">
      <g>
       <use xlink:href="#m00d09382e3" x="525.43" y="61.654965" style="stroke: #000000; stroke-width: 0.8"/>
      </g>
     </g>
     <g id="text_17">
      <text style="font: 10px 'DejaVu Sans', 'Bitstream Vera Sans', 'Computer Modern Sans Serif', 'Lucida Grande', 'Verdana', 'Geneva', 'Lucid', 'Arial', 'Helvetica', 'Avant Garde', sans-serif; text-anchor: start" x="532.43" y="65.454184" transform="rotate(-0 532.43 65.454184)">20</text>
     </g>
    </g>
    <g id="ytick_10">
     <g id="line2d_17">
      <g>
       <use xlink:href="#m00d09382e3" x="525.43" y="26.822797" style="stroke: #000000; stroke-width: 0.8"/>
      </g>
     </g>
     <g id="text_18">
      <text style="font: 10px 'DejaVu Sans', 'Bitstream Vera Sans', 'Computer Modern Sans Serif', 'Lucida Grande', 'Verdana', 'Geneva', 'Lucid', 'Arial', 'Helvetica', 'Avant Garde', sans-serif; text-anchor: start" x="532.43" y="30.622016" transform="rotate(-0 532.43 30.622016)">25</text>
     </g>
    </g>
    <g id="text_19">
     <text style="font: 10px 'DejaVu Sans', 'Bitstream Vera Sans', 'Computer Modern Sans Serif', 'Lucida Grande', 'Verdana', 'Geneva', 'Lucid', 'Arial', 'Helvetica', 'Avant Garde', sans-serif; text-anchor: middle" x="562.753438" y="110.42" transform="rotate(-90 562.753438 110.42)">hw(data)</text>
    </g>
   </g>
   <g id="line2d_18">
    <path d="M 78.168182 187.050769 
L 79.878879 40.755664 
L 81.589576 47.722098 
L 83.300274 131.319301 
L 85.010971 33.789231 
L 86.721668 194.017203 
L 88.432366 194.017203 
L 90.143063 33.789231 
L 91.85376 152.218601 
L 93.564458 54.688531 
L 95.275155 40.755664 
L 96.985853 187.050769 
L 98.69655 75.587832 
L 100.407247 40.755664 
L 102.117945 33.789231 
L 103.828642 33.789231 
L 105.539339 68.621399 
L 107.250037 180.084336 
L 108.960734 89.520699 
L 110.671431 124.352867 
L 112.382129 124.352867 
L 114.092826 96.487133 
L 115.803523 54.688531 
L 117.514221 47.722098 
L 119.224918 180.084336 
L 120.935615 47.722098 
L 122.646313 40.755664 
L 124.35701 110.42 
L 126.067707 173.117902 
L 127.778405 33.789231 
L 129.489102 110.42 
L 131.199799 47.722098 
L 132.910497 200.983636 
L 134.621194 173.117902 
L 136.331891 187.050769 
L 138.042589 145.252168 
L 139.753286 19.856364 
L 141.463983 75.587832 
L 143.174681 26.822797 
L 144.885378 145.252168 
L 146.596075 152.218601 
L 148.306773 194.017203 
L 150.01747 33.789231 
L 151.728167 82.554266 
L 153.438865 40.755664 
L 155.149562 54.688531 
L 156.860259 166.151469 
L 158.570957 54.688531 
L 160.281654 75.587832 
L 163.703049 173.117902 
L 165.413746 75.587832 
L 167.124443 19.856364 
L 170.545838 131.319301 
L 172.256535 138.285734 
L 173.967233 124.352867 
L 175.67793 26.822797 
L 177.388627 40.755664 
L 179.099325 103.453566 
L 182.520719 47.722098 
L 184.231417 180.084336 
L 185.942114 110.42 
L 187.652811 145.252168 
L 189.363509 110.42 
L 191.074206 33.789231 
L 192.784903 75.587832 
L 194.495601 54.688531 
L 196.206298 117.386434 
L 197.916995 131.319301 
L 199.627693 117.386434 
L 201.33839 54.688531 
L 203.049087 103.453566 
L 204.759785 19.856364 
L 206.470482 26.822797 
L 208.181179 82.554266 
L 209.891877 200.983636 
L 211.602574 26.822797 
L 213.313271 152.218601 
L 215.023969 96.487133 
L 216.734666 173.117902 
L 218.445363 19.856364 
L 221.866758 117.386434 
L 223.577455 96.487133 
L 225.288153 47.722098 
L 226.99885 152.218601 
L 228.709547 68.621399 
L 230.420245 89.520699 
L 232.130942 124.352867 
L 233.841639 54.688531 
L 235.552337 75.587832 
L 237.263034 89.520699 
L 238.973731 75.587832 
L 240.684429 26.822797 
L 242.395126 138.285734 
L 244.105823 124.352867 
L 245.816521 40.755664 
L 247.527218 166.151469 
L 249.237915 47.722098 
L 250.948613 200.983636 
L 252.65931 103.453566 
L 254.370007 47.722098 
L 256.080705 89.520699 
L 257.791402 40.755664 
L 259.502099 117.386434 
L 261.212797 47.722098 
L 262.923494 173.117902 
L 264.634191 89.520699 
L 266.344889 124.352867 
L 268.055586 54.688531 
L 269.766283 200.983636 
L 271.476981 200.983636 
L 273.187678 26.822797 
L 274.898375 54.688531 
L 276.609073 187.050769 
L 278.31977 68.621399 
L 280.030467 26.822797 
L 281.741165 54.688531 
L 283.451862 33.789231 
L 285.162559 110.42 
L 286.873257 26.822797 
L 288.583954 47.722098 
L 290.294651 19.856364 
L 292.005349 138.285734 
L 293.716046 124.352867 
L 295.426743 138.285734 
L 297.137441 110.42 
L 298.848138 68.621399 
L 300.558835 159.185035 
L 302.269533 180.084336 
L 303.98023 40.755664 
L 305.690927 96.487133 
L 307.401625 96.487133 
L 309.112322 117.386434 
L 310.823019 75.587832 
L 312.533717 96.487133 
L 314.244414 47.722098 
L 315.955111 26.822797 
L 317.665809 124.352867 
L 319.376506 145.252168 
L 321.087203 152.218601 
L 322.797901 54.688531 
L 324.508598 180.084336 
L 326.219295 40.755664 
L 327.929993 159.185035 
L 329.64069 166.151469 
L 331.351387 47.722098 
L 333.062085 54.688531 
L 334.772782 110.42 
L 336.483479 110.42 
L 338.194177 124.352867 
L 339.904874 47.722098 
L 341.615571 96.487133 
L 343.326269 19.856364 
L 345.036966 187.050769 
L 346.747663 96.487133 
L 348.458361 152.218601 
L 350.169058 159.185035 
L 351.879755 33.789231 
L 353.590453 61.654965 
L 355.30115 19.856364 
L 357.011847 19.856364 
L 358.722545 152.218601 
L 360.433242 152.218601 
L 362.143939 173.117902 
L 363.854637 75.587832 
L 365.565334 194.017203 
L 367.276031 33.789231 
L 368.986729 61.654965 
L 370.697426 33.789231 
L 372.408123 124.352867 
L 374.118821 96.487133 
L 375.829518 33.789231 
L 377.540215 173.117902 
L 379.250913 82.554266 
L 380.96161 194.017203 
L 382.672307 89.520699 
L 384.383005 138.285734 
L 386.093702 194.017203 
L 387.804399 131.319301 
L 389.515097 152.218601 
L 391.225794 159.185035 
L 392.936491 194.017203 
L 394.647189 173.117902 
L 396.357886 68.621399 
L 398.068583 159.185035 
L 399.779281 117.386434 
L 401.489978 89.520699 
L 403.200675 26.822797 
L 404.911373 47.722098 
L 406.62207 103.453566 
L 408.332767 166.151469 
L 410.043465 75.587832 
L 411.754162 145.252168 
L 413.464859 47.722098 
L 415.175557 54.688531 
L 416.886254 54.688531 
L 418.596951 61.654965 
L 420.307649 75.587832 
L 422.018346 173.117902 
L 423.729043 145.252168 
L 425.439741 19.856364 
L 427.150438 40.755664 
L 430.571833 54.688531 
L 432.28253 194.017203 
L 433.993227 103.453566 
L 435.703925 152.218601 
L 437.414622 96.487133 
L 439.125319 33.789231 
L 440.836017 61.654965 
L 442.546714 194.017203 
L 444.257411 138.285734 
L 445.968109 173.117902 
L 447.678806 152.218601 
L 449.389503 96.487133 
L 451.100201 110.42 
L 452.810898 117.386434 
L 454.521595 19.856364 
L 456.232293 145.252168 
L 457.94299 138.285734 
L 459.653687 26.822797 
L 461.364385 194.017203 
L 463.075082 166.151469 
L 464.785779 47.722098 
L 466.496477 19.856364 
L 469.917871 75.587832 
L 471.628569 61.654965 
L 473.339266 89.520699 
L 475.049963 82.554266 
L 476.760661 40.755664 
L 478.471358 110.42 
L 480.182055 47.722098 
L 481.892753 180.084336 
L 483.60345 40.755664 
L 485.314147 33.789231 
L 487.024845 89.520699 
L 488.735542 19.856364 
L 490.44624 68.621399 
L 492.156937 68.621399 
L 493.867634 145.252168 
L 495.578332 61.654965 
L 497.289029 145.252168 
L 498.999726 103.453566 
L 500.710424 117.386434 
L 502.421121 89.520699 
L 504.131818 138.285734 
L 504.131818 138.285734 
" clip-path="url(#p05f507c250)" style="fill: none; stroke: #235996; stroke-width: 0.8; stroke-linecap: square"/>
   </g>
   <g id="patch_7">
    <path d="M 56.87 210.04 
L 56.87 10.8 
" style="fill: none; stroke: #000000; stroke-width: 0.8; stroke-linejoin: miter; stroke-linecap: square"/>
   </g>
   <g id="patch_8">
    <path d="M 525.43 210.04 
L 525.43 10.8 
" style="fill: none; stroke: #000000; stroke-width: 0.8; stroke-linejoin: miter; stroke-linecap: square"/>
   </g>
   <g id="patch_9">
    <path d="M 56.87 210.04 
L 525.43 210.04 
" style="fill: none; stroke: #000000; stroke-width: 0.8; stroke-linejoin: miter; stroke-linecap: square"/>
   </g>
   <g id="patch_10">
    <path d="M 56.87 10.8 
L 525.43 10.8 
" style="fill: none; stroke: #000000; stroke-width: 0.8; stroke-linejoin: miter; stroke-linecap: square"/>
   </g>
   <g id="legend_1">
    <g id="patch_11">
     <path d="M 183.934125 43.4565 
L 398.365875 43.4565 
Q 401.245875 43.4565 401.245875 40.5765 
L 401.245875 20.88 
Q 401.245875 18 398.365875 18 
L 183.934125 18 
Q 181.054125 18 181.054125 20.88 
L 181.054125 40.5765 
Q 181.054125 43.4565 183.934125 43.4565 
z
" style="fill: #ffffff; opacity: 0.8; stroke: #000000; stroke-linejoin: miter"/>
    </g>
    <g id="line2d_19">
     <path d="M 186.814125 29.66175 
L 201.214125 29.66175 
L 215.614125 29.66175 
" style="fill: none; stroke: #99004d; stroke-width: 0.8; stroke-linecap: square"/>
    </g>
    <g id="text_20">
     <text style="font: 14.4px 'DejaVu Sans', 'Bitstream Vera Sans', 'Computer Modern Sans Serif', 'Lucida Grande', 'Verdana', 'Geneva', 'Lucid', 'Arial', 'Helvetica', 'Avant Garde', sans-serif; text-anchor: start" x="227.134125" y="34.70175" transform="rotate(-0 227.134125 34.70175)">power</text>
    </g>
    <g id="line2d_20">
     <path d="M 300.443625 29.66175 
L 314.843625 29.66175 
L 329.243625 29.66175 
" style="fill: none; stroke: #235996; stroke-width: 0.8; stroke-linecap: square"/>
    </g>
    <g id="text_21">
     <text style="font: 14.4px 'DejaVu Sans', 'Bitstream Vera Sans', 'Computer Modern Sans Serif', 'Lucida Grande', 'Verdana', 'Geneva', 'Lucid', 'Arial', 'Helvetica', 'Avant Garde', sans-serif; text-anchor: start" x="340.763625" y="34.70175" transform="rotate(-0 340.763625 34.70175)">hw(rs1)</text>
    </g>
   </g>
  </g>
 </g>
 <defs>
  <clipPath id="p05f507c250">
   <rect x="56.87" y="10.8" width="468.56" height="199.24"/>
  </clipPath>
 </defs>
</svg>
