<?xml version="1.0" encoding="utf-8" standalone="no"?>
<!DOCTYPE svg PUBLIC "-//W3C//DTD SVG 1.1//EN"
  "http://www.w3.org/Graphics/SVG/1.1/DTD/svg11.dtd">
<svg xmlns:xlink="http://www.w3.org/1999/xlink" width="576pt" height="252pt" viewBox="0 0 576 252" xmlns="http://www.w3.org/2000/svg" version="1.1">
 <metadata>
  <rdf:RDF xmlns:dc="http://purl.org/dc/elements/1.1/" xmlns:cc="http://creativecommons.org/ns#" xmlns:rdf="http://www.w3.org/1999/02/22-rdf-syntax-ns#">
   <cc:Work>
    <dc:type rdf:resource="http://purl.org/dc/dcmitype/StillImage"/>
    <dc:date>2023-11-26T17:36:47.946941</dc:date>
    <dc:format>image/svg+xml</dc:format>
    <dc:creator>
     <cc:Agent>
      <dc:title>Matplotlib v3.8.2, https://matplotlib.org/</dc:title>
     </cc:Agent>
    </dc:creator>
   </cc:Work>
  </rdf:RDF>
 </metadata>
 <defs>
  <style type="text/css">*{stroke-linejoin: round; stroke-linecap: butt}</style>
 </defs>
 <g id="figure_1">
  <g id="patch_1">
   <path d="M 0 252 
L 576 252 
L 576 0 
L 0 0 
z
" style="fill: #ffffff"/>
  </g>
  <g id="axes_1">
   <g id="patch_2">
    <path d="M 56.87 210.04 
L 525.43 210.04 
L 525.43 12.022759 
L 56.87 12.022759 
z
" style="fill: #ffffff"/>
   </g>
   <g id="matplotlib.axis_1">
    <g id="xtick_1">
     <g id="line2d_1">
      <defs>
       <path id="mcb412951ec" d="M 0 0 
L 0 3.5 
" style="stroke: #000000; stroke-width: 0.8"/>
      </defs>
      <g>
       <use xlink:href="#mcb412951ec" x="78.168182" y="210.04" style="stroke: #000000; stroke-width: 0.8"/>
      </g>
     </g>
     <g id="text_1">
      <text style="font: 10px 'DejaVu Sans', 'Bitstream Vera Sans', 'Computer Modern Sans Serif', 'Lucida Grande', 'Verdana', 'Geneva', 'Lucid', 'Arial', 'Helvetica', 'Avant Garde', sans-serif; text-anchor: middle" x="78.168182" y="224.638438" transform="rotate(-0 78.168182 224.638438)">0</text>
     </g>
    </g>
    <g id="xtick_2">
     <g id="line2d_2">
      <g>
       <use xlink:href="#mcb412951ec" x="163.703049" y="210.04" style="stroke: #000000; stroke-width: 0.8"/>
      </g>
     </g>
     <g id="text_2">
      <text style="font: 10px 'DejaVu Sans', 'Bitstream Vera Sans', 'Computer Modern Sans Serif', 'Lucida Grande', 'Verdana', 'Geneva', 'Lucid', 'Arial', 'Helvetica', 'Avant Garde', sans-serif; text-anchor: middle" x="163.703049" y="224.638438" transform="rotate(-0 163.703049 224.638438)">50</text>
     </g>
    </g>
    <g id="xtick_3">
     <g id="line2d_3">
      <g>
       <use xlink:href="#mcb412951ec" x="249.237915" y="210.04" style="stroke: #000000; stroke-width: 0.8"/>
      </g>
     </g>
     <g id="text_3">
      <text style="font: 10px 'DejaVu Sans', 'Bitstream Vera Sans', 'Computer Modern Sans Serif', 'Lucida Grande', 'Verdana', 'Geneva', 'Lucid', 'Arial', 'Helvetica', 'Avant Garde', sans-serif; text-anchor: middle" x="249.237915" y="224.638438" transform="rotate(-0 249.237915 224.638438)">100</text>
     </g>
    </g>
    <g id="xtick_4">
     <g id="line2d_4">
      <g>
       <use xlink:href="#mcb412951ec" x="334.772782" y="210.04" style="stroke: #000000; stroke-width: 0.8"/>
      </g>
     </g>
     <g id="text_4">
      <text style="font: 10px 'DejaVu Sans', 'Bitstream Vera Sans', 'Computer Modern Sans Serif', 'Lucida Grande', 'Verdana', 'Geneva', 'Lucid', 'Arial', 'Helvetica', 'Avant Garde', sans-serif; text-anchor: middle" x="334.772782" y="224.638438" transform="rotate(-0 334.772782 224.638438)">150</text>
     </g>
    </g>
    <g id="xtick_5">
     <g id="line2d_5">
      <g>
       <use xlink:href="#mcb412951ec" x="420.307649" y="210.04" style="stroke: #000000; stroke-width: 0.8"/>
      </g>
     </g>
     <g id="text_5">
      <text style="font: 10px 'DejaVu Sans', 'Bitstream Vera Sans', 'Computer Modern Sans Serif', 'Lucida Grande', 'Verdana', 'Geneva', 'Lucid', 'Arial', 'Helvetica', 'Avant Garde', sans-serif; text-anchor: middle" x="420.307649" y="224.638438" transform="rotate(-0 420.307649 224.638438)">200</text>
     </g>
    </g>
    <g id="xtick_6">
     <g id="line2d_6">
      <g>
       <use xlink:href="#mcb412951ec" x="505.842516" y="210.04" style="stroke: #000000; stroke-width: 0.8"/>
      </g>
     </g>
     <g id="text_6">
      <text style="font: 10px 'DejaVu Sans', 'Bitstream Vera Sans', 'Computer Modern Sans Serif', 'Lucida Grande', 'Verdana', 'Geneva', 'Lucid', 'Arial', 'Helvetica', 'Avant Garde', sans-serif; text-anchor: middle" x="505.842516" y="224.638438" transform="rotate(-0 505.842516 224.638438)">250</text>
     </g>
    </g>
    <g id="text_7">
     <text style="font: 10px 'DejaVu Sans', 'Bitstream Vera Sans', 'Computer Modern Sans Serif', 'Lucida Grande', 'Verdana', 'Geneva', 'Lucid', 'Arial', 'Helvetica', 'Avant Garde', sans-serif; text-anchor: middle" x="291.15" y="238.316563" transform="rotate(-0 291.15 238.316563)">Cycles</text>
    </g>
   </g>
   <g id="matplotlib.axis_2">
    <g id="ytick_1">
     <g id="line2d_7">
      <defs>
       <path id="mf90a796888" d="M 0 0 
L -3.5 0 
" style="stroke: #000000; stroke-width: 0.8"/>
      </defs>
      <g>
       <use xlink:href="#mf90a796888" x="56.87" y="174.802114" style="stroke: #000000; stroke-width: 0.8"/>
      </g>
     </g>
     <g id="text_8">
      <text style="font: 10px 'DejaVu Sans', 'Bitstream Vera Sans', 'Computer Modern Sans Serif', 'Lucida Grande', 'Verdana', 'Geneva', 'Lucid', 'Arial', 'Helvetica', 'Avant Garde', sans-serif; text-anchor: end" x="49.87" y="178.601333" transform="rotate(-0 49.87 178.601333)">50</text>
     </g>
    </g>
    <g id="ytick_2">
     <g id="line2d_8">
      <g>
       <use xlink:href="#mf90a796888" x="56.87" y="138.361694" style="stroke: #000000; stroke-width: 0.8"/>
      </g>
     </g>
     <g id="text_9">
      <text style="font: 10px 'DejaVu Sans', 'Bitstream Vera Sans', 'Computer Modern Sans Serif', 'Lucida Grande', 'Verdana', 'Geneva', 'Lucid', 'Arial', 'Helvetica', 'Avant Garde', sans-serif; text-anchor: end" x="49.87" y="142.160913" transform="rotate(-0 49.87 142.160913)">100</text>
     </g>
    </g>
    <g id="ytick_3">
     <g id="line2d_9">
      <g>
       <use xlink:href="#mf90a796888" x="56.87" y="101.921274" style="stroke: #000000; stroke-width: 0.8"/>
      </g>
     </g>
     <g id="text_10">
      <text style="font: 10px 'DejaVu Sans', 'Bitstream Vera Sans', 'Computer Modern Sans Serif', 'Lucida Grande', 'Verdana', 'Geneva', 'Lucid', 'Arial', 'Helvetica', 'Avant Garde', sans-serif; text-anchor: end" x="49.87" y="105.720493" transform="rotate(-0 49.87 105.720493)">150</text>
     </g>
    </g>
    <g id="ytick_4">
     <g id="line2d_10">
      <g>
       <use xlink:href="#mf90a796888" x="56.87" y="65.480855" style="stroke: #000000; stroke-width: 0.8"/>
      </g>
     </g>
     <g id="text_11">
      <text style="font: 10px 'DejaVu Sans', 'Bitstream Vera Sans', 'Computer Modern Sans Serif', 'Lucida Grande', 'Verdana', 'Geneva', 'Lucid', 'Arial', 'Helvetica', 'Avant Garde', sans-serif; text-anchor: end" x="49.87" y="69.280073" transform="rotate(-0 49.87 69.280073)">200</text>
     </g>
    </g>
    <g id="ytick_5">
     <g id="line2d_11">
      <g>
       <use xlink:href="#mf90a796888" x="56.87" y="29.040435" style="stroke: #000000; stroke-width: 0.8"/>
      </g>
     </g>
     <g id="text_12">
      <text style="font: 10px 'DejaVu Sans', 'Bitstream Vera Sans', 'Computer Modern Sans Serif', 'Lucida Grande', 'Verdana', 'Geneva', 'Lucid', 'Arial', 'Helvetica', 'Avant Garde', sans-serif; text-anchor: end" x="49.87" y="32.839653" transform="rotate(-0 49.87 32.839653)">250</text>
     </g>
    </g>
    <g id="text_13">
     <text style="font: 10px 'DejaVu Sans', 'Bitstream Vera Sans', 'Computer Modern Sans Serif', 'Lucida Grande', 'Verdana', 'Geneva', 'Lucid', 'Arial', 'Helvetica', 'Avant Garde', sans-serif; text-anchor: middle" x="18.702813" y="111.031379" transform="rotate(-90 18.702813 111.031379)">power (uW)</text>
    </g>
   </g>
   <g id="line2d_12">
    <path d="M 78.168182 143.463353 
L 79.878879 112.8534 
L 81.589576 84.429873 
L 83.300274 84.429873 
L 85.010971 184.276623 
L 86.721668 53.091112 
L 88.432366 55.277537 
L 90.143063 70.582513 
L 91.85376 166.056413 
L 93.564458 75.684172 
L 95.275155 120.141484 
L 96.985853 66.938471 
L 98.69655 90.989148 
L 100.407247 50.904687 
L 102.117945 168.242838 
L 103.828642 70.582513 
L 105.539339 65.480855 
L 107.250037 74.955364 
L 108.960734 99.006041 
L 110.671431 51.633495 
L 112.382129 80.057022 
L 114.092826 66.938471 
L 115.803523 111.395784 
L 117.514221 135.446461 
L 119.224918 47.260645 
L 120.935615 69.853705 
L 122.646313 58.921579 
L 124.35701 73.497747 
L 126.067707 50.175878 
L 127.778405 83.701064 
L 129.489102 113.582209 
L 131.199799 165.327605 
L 132.910497 168.242838 
L 134.621194 176.259731 
L 136.331891 75.684172 
L 138.042589 127.429568 
L 139.753286 140.548119 
L 141.463983 83.701064 
L 143.174681 68.396088 
L 144.885378 171.158072 
L 146.596075 77.141789 
L 148.306773 75.684172 
L 150.01747 159.497138 
L 151.728167 75.684172 
L 153.438865 72.768938 
L 155.149562 96.819616 
L 156.860259 64.023238 
L 158.570957 66.938471 
L 161.992351 75.684172 
L 163.703049 63.294429 
L 165.413746 88.073915 
L 167.124443 90.989148 
L 168.835141 80.785831 
L 170.545838 90.989148 
L 172.256535 51.633495 
L 173.967233 74.226555 
L 175.67793 58.921579 
L 179.099325 168.971647 
L 180.810022 89.531532 
L 182.520719 89.531532 
L 184.231417 87.345106 
L 185.942114 84.429873 
L 187.652811 163.14118 
L 189.363509 92.446765 
L 191.074206 57.463962 
L 192.784903 123.056718 
L 194.495601 56.735154 
L 196.206298 77.141789 
L 197.916995 53.091112 
L 199.627693 144.192161 
L 201.33839 66.209663 
L 203.049087 142.734545 
L 204.759785 110.666975 
L 206.470482 55.277537 
L 208.181179 73.497747 
L 209.891877 113.582209 
L 211.602574 59.650387 
L 213.313271 115.768634 
L 215.023969 68.396088 
L 216.734666 87.345106 
L 218.445363 93.904382 
L 220.156061 50.175878 
L 221.866758 80.057022 
L 223.577455 96.090807 
L 225.288153 69.124897 
L 226.99885 72.768938 
L 228.709547 95.361999 
L 230.420245 65.480855 
L 232.130942 42.158986 
L 233.841639 133.988844 
L 235.552337 50.904687 
L 237.263034 74.955364 
L 238.973731 71.311322 
L 240.684429 56.006345 
L 242.395126 138.361694 
L 244.105823 70.582513 
L 245.816521 50.904687 
L 247.527218 108.48055 
L 249.237915 199.5816 
L 250.948613 95.361999 
L 252.65931 131.802419 
L 254.370007 117.955059 
L 256.080705 72.768938 
L 257.791402 112.124592 
L 259.502099 95.361999 
L 261.212797 201.039216 
L 262.923494 65.480855 
L 264.634191 199.5816 
L 266.344889 102.650083 
L 268.055586 91.717957 
L 269.766283 147.107395 
L 271.476981 96.090807 
L 273.187678 176.259731 
L 274.898375 104.836508 
L 276.609073 79.328214 
L 278.31977 85.88749 
L 280.030467 67.66728 
L 281.741165 142.005736 
L 283.451862 95.361999 
L 285.162559 56.735154 
L 286.873257 52.362303 
L 288.583954 85.158681 
L 290.294651 49.44707 
L 292.005349 64.023238 
L 293.716046 60.379196 
L 295.426743 74.955364 
L 297.137441 68.396088 
L 298.848138 88.073915 
L 300.558835 76.41298 
L 302.269533 91.717957 
L 303.98023 125.243143 
L 305.690927 77.141789 
L 307.401625 141.276928 
L 309.112322 142.005736 
L 310.823019 127.429568 
L 312.533717 71.311322 
L 314.244414 55.277537 
L 315.955111 66.209663 
L 317.665809 98.277232 
L 319.376506 88.073915 
L 321.087203 120.870293 
L 322.797901 54.548729 
L 324.508598 68.396088 
L 326.219295 70.582513 
L 327.929993 71.311322 
L 329.64069 55.277537 
L 331.351387 66.938471 
L 333.062085 123.785526 
L 334.772782 102.650083 
L 336.483479 140.548119 
L 338.194177 62.565621 
L 339.904874 50.904687 
L 341.615571 88.802723 
L 343.326269 35.59971 
L 345.036966 184.276623 
L 346.747663 129.615993 
L 348.458361 176.259731 
L 350.169058 123.785526 
L 351.879755 63.294429 
L 353.590453 44.345411 
L 355.30115 103.378891 
L 357.011847 88.073915 
L 358.722545 98.277232 
L 360.433242 104.836508 
L 362.143939 63.294429 
L 363.854637 166.785222 
L 365.565334 52.362303 
L 367.276031 42.158986 
L 368.986729 141.276928 
L 370.697426 117.226251 
L 372.408123 80.057022 
L 374.118821 81.514639 
L 375.829518 65.480855 
L 377.540215 71.311322 
L 379.250913 74.226555 
L 380.96161 67.66728 
L 382.672307 129.615993 
L 384.383005 69.124897 
L 386.093702 80.785831 
L 387.804399 107.022933 
L 389.515097 56.006345 
L 391.225794 66.938471 
L 392.936491 82.243448 
L 394.647189 152.209054 
L 396.357886 123.056718 
L 398.068583 96.819616 
L 399.779281 66.938471 
L 401.489978 66.209663 
L 403.200675 92.446765 
L 404.911373 69.124897 
L 406.62207 71.311322 
L 408.332767 97.548424 
L 410.043465 64.752046 
L 411.754162 48.718261 
L 413.464859 93.175574 
L 415.175557 49.44707 
L 416.886254 46.531836 
L 418.596951 49.44707 
L 420.307649 82.243448 
L 422.018346 98.277232 
L 423.729043 75.684172 
L 425.439741 70.582513 
L 427.150438 141.276928 
L 428.861135 74.226555 
L 430.571833 93.175574 
L 432.28253 123.056718 
L 433.993227 128.887185 
L 435.703925 159.497138 
L 437.414622 61.108004 
L 439.125319 161.683563 
L 440.836017 93.904382 
L 442.546714 88.073915 
L 444.257411 107.751742 
L 445.968109 88.802723 
L 447.678806 130.344802 
L 449.389503 93.904382 
L 451.100201 64.023238 
L 452.810898 158.768329 
L 454.521595 102.650083 
L 456.232293 67.66728 
L 457.94299 88.073915 
L 459.653687 86.616298 
L 461.364385 56.735154 
L 463.075082 58.192771 
L 464.785779 81.514639 
L 466.496477 99.006041 
L 468.207174 87.345106 
L 469.917871 93.175574 
L 471.628569 52.362303 
L 473.339266 73.497747 
L 475.049963 21.023542 
L 476.760661 79.328214 
L 478.471358 105.565316 
L 480.182055 90.26034 
L 481.892753 56.006345 
L 483.60345 47.989453 
L 485.314147 76.41298 
L 487.024845 69.853705 
L 488.735542 144.92097 
L 490.44624 185.005432 
L 492.156937 74.226555 
L 493.867634 85.88749 
L 495.578332 85.158681 
L 497.289029 64.752046 
L 498.999726 93.904382 
L 500.710424 104.1077 
L 502.421121 72.768938 
L 504.131818 150.751437 
L 504.131818 150.751437 
" clip-path="url(#pd4207bd3e5)" style="fill: none; stroke: #99004d; stroke-width: 0.8; stroke-linecap: square"/>
   </g>
   <g id="patch_3">
    <path d="M 56.87 210.04 
L 56.87 12.022759 
" style="fill: none; stroke: #000000; stroke-width: 0.8; stroke-linejoin: miter; stroke-linecap: square"/>
   </g>
   <g id="patch_4">
    <path d="M 525.43 210.04 
L 525.43 12.022759 
" style="fill: none; stroke: #000000; stroke-width: 0.8; stroke-linejoin: miter; stroke-linecap: square"/>
   </g>
   <g id="patch_5">
    <path d="M 56.87 210.04 
L 525.43 210.04 
" style="fill: none; stroke: #000000; stroke-width: 0.8; stroke-linejoin: miter; stroke-linecap: square"/>
   </g>
   <g id="patch_6">
    <path d="M 56.87 12.022759 
L 525.43 12.022759 
" style="fill: none; stroke: #000000; stroke-width: 0.8; stroke-linejoin: miter; stroke-linecap: square"/>
   </g>
  </g>
  <g id="axes_2">
   <g id="matplotlib.axis_3">
    <g id="ytick_6">
     <g id="line2d_13">
      <defs>
       <path id="m26f6b05575" d="M 0 0 
L 3.5 0 
" style="stroke: #000000; stroke-width: 0.8"/>
      </defs>
      <g>
       <use xlink:href="#m26f6b05575" x="525.43" y="201.039216" style="stroke: #000000; stroke-width: 0.8"/>
      </g>
     </g>
     <g id="text_14">
      <text style="font: 10px 'DejaVu Sans', 'Bitstream Vera Sans', 'Computer Modern Sans Serif', 'Lucida Grande', 'Verdana', 'Geneva', 'Lucid', 'Arial', 'Helvetica', 'Avant Garde', sans-serif; text-anchor: start" x="532.43" y="204.838435" transform="rotate(-0 532.43 204.838435)">0</text>
     </g>
    </g>
    <g id="ytick_7">
     <g id="line2d_14">
      <g>
       <use xlink:href="#m26f6b05575" x="525.43" y="170.002031" style="stroke: #000000; stroke-width: 0.8"/>
      </g>
     </g>
     <g id="text_15">
      <text style="font: 10px 'DejaVu Sans', 'Bitstream Vera Sans', 'Computer Modern Sans Serif', 'Lucida Grande', 'Verdana', 'Geneva', 'Lucid', 'Arial', 'Helvetica', 'Avant Garde', sans-serif; text-anchor: start" x="532.43" y="173.80125" transform="rotate(-0 532.43 173.80125)">5</text>
     </g>
    </g>
    <g id="ytick_8">
     <g id="line2d_15">
      <g>
       <use xlink:href="#m26f6b05575" x="525.43" y="138.964846" style="stroke: #000000; stroke-width: 0.8"/>
      </g>
     </g>
     <g id="text_16">
      <text style="font: 10px 'DejaVu Sans', 'Bitstream Vera Sans', 'Computer Modern Sans Serif', 'Lucida Grande', 'Verdana', 'Geneva', 'Lucid', 'Arial', 'Helvetica', 'Avant Garde', sans-serif; text-anchor: start" x="532.43" y="142.764065" transform="rotate(-0 532.43 142.764065)">10</text>
     </g>
    </g>
    <g id="ytick_9">
     <g id="line2d_16">
      <g>
       <use xlink:href="#m26f6b05575" x="525.43" y="107.927661" style="stroke: #000000; stroke-width: 0.8"/>
      </g>
     </g>
     <g id="text_17">
      <text style="font: 10px 'DejaVu Sans', 'Bitstream Vera Sans', 'Computer Modern Sans Serif', 'Lucida Grande', 'Verdana', 'Geneva', 'Lucid', 'Arial', 'Helvetica', 'Avant Garde', sans-serif; text-anchor: start" x="532.43" y="111.72688" transform="rotate(-0 532.43 111.72688)">15</text>
     </g>
    </g>
    <g id="ytick_10">
     <g id="line2d_17">
      <g>
       <use xlink:href="#m26f6b05575" x="525.43" y="76.890476" style="stroke: #000000; stroke-width: 0.8"/>
      </g>
     </g>
     <g id="text_18">
      <text style="font: 10px 'DejaVu Sans', 'Bitstream Vera Sans', 'Computer Modern Sans Serif', 'Lucida Grande', 'Verdana', 'Geneva', 'Lucid', 'Arial', 'Helvetica', 'Avant Garde', sans-serif; text-anchor: start" x="532.43" y="80.689694" transform="rotate(-0 532.43 80.689694)">20</text>
     </g>
    </g>
    <g id="ytick_11">
     <g id="line2d_18">
      <g>
       <use xlink:href="#m26f6b05575" x="525.43" y="45.85329" style="stroke: #000000; stroke-width: 0.8"/>
      </g>
     </g>
     <g id="text_19">
      <text style="font: 10px 'DejaVu Sans', 'Bitstream Vera Sans', 'Computer Modern Sans Serif', 'Lucida Grande', 'Verdana', 'Geneva', 'Lucid', 'Arial', 'Helvetica', 'Avant Garde', sans-serif; text-anchor: start" x="532.43" y="49.652509" transform="rotate(-0 532.43 49.652509)">25</text>
     </g>
    </g>
    <g id="ytick_12">
     <g id="line2d_19">
      <g>
       <use xlink:href="#m26f6b05575" x="525.43" y="14.816105" style="stroke: #000000; stroke-width: 0.8"/>
      </g>
     </g>
     <g id="text_20">
      <text style="font: 10px 'DejaVu Sans', 'Bitstream Vera Sans', 'Computer Modern Sans Serif', 'Lucida Grande', 'Verdana', 'Geneva', 'Lucid', 'Arial', 'Helvetica', 'Avant Garde', sans-serif; text-anchor: start" x="532.43" y="18.615324" transform="rotate(-0 532.43 18.615324)">30</text>
     </g>
    </g>
    <g id="text_21">
     <text style="font: 10px 'DejaVu Sans', 'Bitstream Vera Sans', 'Computer Modern Sans Serif', 'Lucida Grande', 'Verdana', 'Geneva', 'Lucid', 'Arial', 'Helvetica', 'Avant Garde', sans-serif; text-anchor: middle" x="562.753438" y="111.031379" transform="rotate(-90 562.753438 111.031379)">hw(data)</text>
    </g>
   </g>
   <g id="line2d_20">
    <path d="M 78.168182 163.794594 
L 79.878879 107.927661 
L 81.589576 58.268165 
L 83.300274 83.097913 
L 85.010971 194.831779 
L 86.721668 33.438416 
L 88.432366 52.060727 
L 90.143063 52.060727 
L 91.85376 163.794594 
L 93.564458 120.342535 
L 95.275155 145.172283 
L 96.985853 89.30535 
L 98.69655 64.475602 
L 100.407247 89.30535 
L 102.117945 194.831779 
L 103.828642 58.268165 
L 105.539339 76.890476 
L 107.250037 151.37972 
L 108.960734 163.794594 
L 110.671431 58.268165 
L 112.382129 138.964846 
L 114.092826 52.060727 
L 115.803523 45.85329 
L 117.514221 95.512787 
L 119.224918 33.438416 
L 120.935615 76.890476 
L 122.646313 58.268165 
L 124.35701 64.475602 
L 126.067707 39.645853 
L 127.778405 120.342535 
L 129.489102 157.587157 
L 131.199799 188.624342 
L 132.910497 194.831779 
L 134.621194 194.831779 
L 136.331891 120.342535 
L 138.042589 176.209468 
L 139.753286 188.624342 
L 141.463983 58.268165 
L 143.174681 114.135098 
L 144.885378 194.831779 
L 146.596075 45.85329 
L 148.306773 126.549972 
L 150.01747 182.416905 
L 151.728167 83.097913 
L 153.438865 114.135098 
L 155.149562 163.794594 
L 156.860259 101.720224 
L 158.570957 27.230979 
L 160.281654 107.927661 
L 161.992351 107.927661 
L 163.703049 45.85329 
L 165.413746 126.549972 
L 167.124443 145.172283 
L 168.835141 107.927661 
L 170.545838 114.135098 
L 172.256535 39.645853 
L 173.967233 83.097913 
L 175.67793 58.268165 
L 177.388627 170.002031 
L 179.099325 194.831779 
L 180.810022 120.342535 
L 182.520719 52.060727 
L 184.231417 151.37972 
L 185.942114 114.135098 
L 187.652811 163.794594 
L 189.363509 145.172283 
L 191.074206 107.927661 
L 192.784903 52.060727 
L 194.495601 64.475602 
L 196.206298 107.927661 
L 197.916995 45.85329 
L 199.627693 182.416905 
L 201.33839 83.097913 
L 203.049087 182.416905 
L 204.759785 89.30535 
L 206.470482 70.683039 
L 208.181179 89.30535 
L 209.891877 145.172283 
L 211.602574 58.268165 
L 213.313271 157.587157 
L 215.023969 126.549972 
L 216.734666 70.683039 
L 218.445363 151.37972 
L 220.156061 52.060727 
L 221.866758 138.964846 
L 223.577455 163.794594 
L 225.288153 64.475602 
L 226.99885 76.890476 
L 228.709547 58.268165 
L 230.420245 64.475602 
L 232.130942 64.475602 
L 233.841639 132.757409 
L 235.552337 58.268165 
L 237.263034 83.097913 
L 238.973731 58.268165 
L 240.684429 58.268165 
L 242.395126 182.416905 
L 244.105823 58.268165 
L 245.816521 52.060727 
L 247.527218 145.172283 
L 249.237915 201.039216 
L 250.948613 70.683039 
L 252.65931 70.683039 
L 254.370007 52.060727 
L 256.080705 70.683039 
L 257.791402 176.209468 
L 259.502099 76.890476 
L 261.212797 201.039216 
L 262.923494 76.890476 
L 264.634191 201.039216 
L 266.344889 64.475602 
L 268.055586 83.097913 
L 269.766283 176.209468 
L 271.476981 145.172283 
L 273.187678 182.416905 
L 276.609073 145.172283 
L 278.31977 70.683039 
L 280.030467 58.268165 
L 281.741165 176.209468 
L 283.451862 138.964846 
L 285.162559 58.268165 
L 286.873257 70.683039 
L 288.583954 107.927661 
L 290.294651 33.438416 
L 292.005349 83.097913 
L 293.716046 45.85329 
L 295.426743 157.587157 
L 297.137441 52.060727 
L 298.848138 64.475602 
L 300.558835 151.37972 
L 302.269533 64.475602 
L 303.98023 64.475602 
L 305.690927 70.683039 
L 307.401625 182.416905 
L 309.112322 182.416905 
L 310.823019 163.794594 
L 312.533717 95.512787 
L 314.244414 70.683039 
L 315.955111 64.475602 
L 317.665809 114.135098 
L 319.376506 52.060727 
L 321.087203 64.475602 
L 322.797901 101.720224 
L 324.508598 58.268165 
L 326.219295 126.549972 
L 329.64069 89.30535 
L 331.351387 83.097913 
L 333.062085 58.268165 
L 334.772782 132.757409 
L 336.483479 163.794594 
L 338.194177 45.85329 
L 339.904874 45.85329 
L 341.615571 107.927661 
L 343.326269 39.645853 
L 345.036966 194.831779 
L 346.747663 95.512787 
L 348.458361 194.831779 
L 350.169058 170.002031 
L 351.879755 89.30535 
L 353.590453 39.645853 
L 355.30115 126.549972 
L 357.011847 70.683039 
L 358.722545 145.172283 
L 360.433242 33.438416 
L 362.143939 145.172283 
L 363.854637 170.002031 
L 365.565334 58.268165 
L 367.276031 39.645853 
L 368.986729 176.209468 
L 370.697426 163.794594 
L 372.408123 138.964846 
L 374.118821 64.475602 
L 375.829518 39.645853 
L 377.540215 83.097913 
L 379.250913 95.512787 
L 380.96161 120.342535 
L 382.672307 114.135098 
L 384.383005 89.30535 
L 386.093702 76.890476 
L 387.804399 83.097913 
L 389.515097 64.475602 
L 391.225794 95.512787 
L 392.936491 120.342535 
L 394.647189 182.416905 
L 396.357886 182.416905 
L 398.068583 163.794594 
L 399.779281 52.060727 
L 401.489978 107.927661 
L 403.200675 145.172283 
L 404.911373 70.683039 
L 406.62207 70.683039 
L 408.332767 151.37972 
L 410.043465 64.475602 
L 411.754162 45.85329 
L 413.464859 157.587157 
L 415.175557 64.475602 
L 416.886254 64.475602 
L 418.596951 76.890476 
L 420.307649 64.475602 
L 422.018346 95.512787 
L 425.439741 58.268165 
L 427.150438 176.209468 
L 428.861135 114.135098 
L 430.571833 114.135098 
L 432.28253 176.209468 
L 433.993227 89.30535 
L 435.703925 182.416905 
L 437.414622 89.30535 
L 439.125319 188.624342 
L 440.836017 126.549972 
L 442.546714 83.097913 
L 444.257411 151.37972 
L 445.968109 163.794594 
L 447.678806 64.475602 
L 449.389503 95.512787 
L 451.100201 64.475602 
L 452.810898 188.624342 
L 454.521595 163.794594 
L 456.232293 83.097913 
L 457.94299 120.342535 
L 459.653687 58.268165 
L 461.364385 70.683039 
L 463.075082 52.060727 
L 464.785779 64.475602 
L 468.207174 76.890476 
L 469.917871 126.549972 
L 471.628569 39.645853 
L 473.339266 95.512787 
L 475.049963 21.023542 
L 476.760661 107.927661 
L 478.471358 126.549972 
L 480.182055 64.475602 
L 481.892753 76.890476 
L 483.60345 39.645853 
L 485.314147 76.890476 
L 487.024845 101.720224 
L 488.735542 188.624342 
L 490.44624 194.831779 
L 492.156937 151.37972 
L 493.867634 45.85329 
L 495.578332 126.549972 
L 497.289029 107.927661 
L 498.999726 151.37972 
L 500.710424 157.587157 
L 502.421121 89.30535 
L 504.131818 145.172283 
L 504.131818 145.172283 
" clip-path="url(#pd4207bd3e5)" style="fill: none; stroke: #235996; stroke-width: 0.8; stroke-linecap: square"/>
   </g>
   <g id="patch_7">
    <path d="M 56.87 210.04 
L 56.87 12.022759 
" style="fill: none; stroke: #000000; stroke-width: 0.8; stroke-linejoin: miter; stroke-linecap: square"/>
   </g>
   <g id="patch_8">
    <path d="M 525.43 210.04 
L 525.43 12.022759 
" style="fill: none; stroke: #000000; stroke-width: 0.8; stroke-linejoin: miter; stroke-linecap: square"/>
   </g>
   <g id="patch_9">
    <path d="M 56.87 210.04 
L 525.43 210.04 
" style="fill: none; stroke: #000000; stroke-width: 0.8; stroke-linejoin: miter; stroke-linecap: square"/>
   </g>
   <g id="patch_10">
    <path d="M 56.87 12.022759 
L 525.43 12.022759 
" style="fill: none; stroke: #000000; stroke-width: 0.8; stroke-linejoin: miter; stroke-linecap: square"/>
   </g>
   <g id="legend_1">
    <g id="patch_11">
     <path d="M 183.934125 44.679259 
L 398.365875 44.679259 
Q 401.245875 44.679259 401.245875 41.799259 
L 401.245875 22.102759 
Q 401.245875 19.222759 398.365875 19.222759 
L 183.934125 19.222759 
Q 181.054125 19.222759 181.054125 22.102759 
L 181.054125 41.799259 
Q 181.054125 44.679259 183.934125 44.679259 
z
" style="fill: #ffffff; opacity: 0.8; stroke: #000000; stroke-linejoin: miter"/>
    </g>
    <g id="line2d_21">
     <path d="M 186.814125 30.884509 
L 201.214125 30.884509 
L 215.614125 30.884509 
" style="fill: none; stroke: #99004d; stroke-width: 0.8; stroke-linecap: square"/>
    </g>
    <g id="text_22">
     <text style="font: 14.4px 'DejaVu Sans', 'Bitstream Vera Sans', 'Computer Modern Sans Serif', 'Lucida Grande', 'Verdana', 'Geneva', 'Lucid', 'Arial', 'Helvetica', 'Avant Garde', sans-serif; text-anchor: start" x="227.134125" y="35.924509" transform="rotate(-0 227.134125 35.924509)">power</text>
    </g>
    <g id="line2d_22">
     <path d="M 300.443625 30.884509 
L 314.843625 30.884509 
L 329.243625 30.884509 
" style="fill: none; stroke: #235996; stroke-width: 0.8; stroke-linecap: square"/>
    </g>
    <g id="text_23">
     <text style="font: 14.4px 'DejaVu Sans', 'Bitstream Vera Sans', 'Computer Modern Sans Serif', 'Lucida Grande', 'Verdana', 'Geneva', 'Lucid', 'Arial', 'Helvetica', 'Avant Garde', sans-serif; text-anchor: start" x="340.763625" y="35.924509" transform="rotate(-0 340.763625 35.924509)">hw(rs1)</text>
    </g>
   </g>
  </g>
 </g>
 <defs>
  <clipPath id="pd4207bd3e5">
   <rect x="56.87" y="12.022759" width="468.56" height="198.017241"/>
  </clipPath>
 </defs>
</svg>
