<?xml version="1.0" encoding="utf-8" standalone="no"?>
<!DOCTYPE svg PUBLIC "-//W3C//DTD SVG 1.1//EN"
  "http://www.w3.org/Graphics/SVG/1.1/DTD/svg11.dtd">
<svg xmlns:xlink="http://www.w3.org/1999/xlink" width="576pt" height="252pt" viewBox="0 0 576 252" xmlns="http://www.w3.org/2000/svg" version="1.1">
 <metadata>
  <rdf:RDF xmlns:dc="http://purl.org/dc/elements/1.1/" xmlns:cc="http://creativecommons.org/ns#" xmlns:rdf="http://www.w3.org/1999/02/22-rdf-syntax-ns#">
   <cc:Work>
    <dc:type rdf:resource="http://purl.org/dc/dcmitype/StillImage"/>
    <dc:date>2023-12-06T21:46:39.653012</dc:date>
    <dc:format>image/svg+xml</dc:format>
    <dc:creator>
     <cc:Agent>
      <dc:title>Matplotlib v3.7.4, https://matplotlib.org/</dc:title>
     </cc:Agent>
    </dc:creator>
   </cc:Work>
  </rdf:RDF>
 </metadata>
 <defs>
  <style type="text/css">*{stroke-linejoin: round; stroke-linecap: butt}</style>
 </defs>
 <g id="figure_1">
  <g id="patch_1">
   <path d="M 0 252 
L 576 252 
L 576 0 
L 0 0 
z
" style="fill: #ffffff"/>
  </g>
  <g id="axes_1">
   <g id="patch_2">
    <path d="M 56.87 210.04 
L 525.43 210.04 
L 525.43 12.933833 
L 56.87 12.933833 
z
" style="fill: #ffffff"/>
   </g>
   <g id="matplotlib.axis_1">
    <g id="xtick_1">
     <g id="line2d_1">
      <defs>
       <path id="m6f4a427b3d" d="M 0 0 
L 0 3.5 
" style="stroke: #000000; stroke-width: 0.8"/>
      </defs>
      <g>
       <use xlink:href="#m6f4a427b3d" x="78.168182" y="210.04" style="stroke: #000000; stroke-width: 0.8"/>
      </g>
     </g>
     <g id="text_1">
      <text style="font: 10px 'DejaVu Sans', 'Bitstream Vera Sans', 'Computer Modern Sans Serif', 'Lucida Grande', 'Verdana', 'Geneva', 'Lucid', 'Arial', 'Helvetica', 'Avant Garde', sans-serif; text-anchor: middle" x="78.168182" y="224.638438" transform="rotate(-0 78.168182 224.638438)">0</text>
     </g>
    </g>
    <g id="xtick_2">
     <g id="line2d_2">
      <g>
       <use xlink:href="#m6f4a427b3d" x="163.703049" y="210.04" style="stroke: #000000; stroke-width: 0.8"/>
      </g>
     </g>
     <g id="text_2">
      <text style="font: 10px 'DejaVu Sans', 'Bitstream Vera Sans', 'Computer Modern Sans Serif', 'Lucida Grande', 'Verdana', 'Geneva', 'Lucid', 'Arial', 'Helvetica', 'Avant Garde', sans-serif; text-anchor: middle" x="163.703049" y="224.638438" transform="rotate(-0 163.703049 224.638438)">50</text>
     </g>
    </g>
    <g id="xtick_3">
     <g id="line2d_3">
      <g>
       <use xlink:href="#m6f4a427b3d" x="249.237915" y="210.04" style="stroke: #000000; stroke-width: 0.8"/>
      </g>
     </g>
     <g id="text_3">
      <text style="font: 10px 'DejaVu Sans', 'Bitstream Vera Sans', 'Computer Modern Sans Serif', 'Lucida Grande', 'Verdana', 'Geneva', 'Lucid', 'Arial', 'Helvetica', 'Avant Garde', sans-serif; text-anchor: middle" x="249.237915" y="224.638438" transform="rotate(-0 249.237915 224.638438)">100</text>
     </g>
    </g>
    <g id="xtick_4">
     <g id="line2d_4">
      <g>
       <use xlink:href="#m6f4a427b3d" x="334.772782" y="210.04" style="stroke: #000000; stroke-width: 0.8"/>
      </g>
     </g>
     <g id="text_4">
      <text style="font: 10px 'DejaVu Sans', 'Bitstream Vera Sans', 'Computer Modern Sans Serif', 'Lucida Grande', 'Verdana', 'Geneva', 'Lucid', 'Arial', 'Helvetica', 'Avant Garde', sans-serif; text-anchor: middle" x="334.772782" y="224.638438" transform="rotate(-0 334.772782 224.638438)">150</text>
     </g>
    </g>
    <g id="xtick_5">
     <g id="line2d_5">
      <g>
       <use xlink:href="#m6f4a427b3d" x="420.307649" y="210.04" style="stroke: #000000; stroke-width: 0.8"/>
      </g>
     </g>
     <g id="text_5">
      <text style="font: 10px 'DejaVu Sans', 'Bitstream Vera Sans', 'Computer Modern Sans Serif', 'Lucida Grande', 'Verdana', 'Geneva', 'Lucid', 'Arial', 'Helvetica', 'Avant Garde', sans-serif; text-anchor: middle" x="420.307649" y="224.638438" transform="rotate(-0 420.307649 224.638438)">200</text>
     </g>
    </g>
    <g id="xtick_6">
     <g id="line2d_6">
      <g>
       <use xlink:href="#m6f4a427b3d" x="505.842516" y="210.04" style="stroke: #000000; stroke-width: 0.8"/>
      </g>
     </g>
     <g id="text_6">
      <text style="font: 10px 'DejaVu Sans', 'Bitstream Vera Sans', 'Computer Modern Sans Serif', 'Lucida Grande', 'Verdana', 'Geneva', 'Lucid', 'Arial', 'Helvetica', 'Avant Garde', sans-serif; text-anchor: middle" x="505.842516" y="224.638438" transform="rotate(-0 505.842516 224.638438)">250</text>
     </g>
    </g>
    <g id="text_7">
     <text style="font: 10px 'DejaVu Sans', 'Bitstream Vera Sans', 'Computer Modern Sans Serif', 'Lucida Grande', 'Verdana', 'Geneva', 'Lucid', 'Arial', 'Helvetica', 'Avant Garde', sans-serif; text-anchor: middle" x="291.15" y="238.316563" transform="rotate(-0 291.15 238.316563)">Cycles</text>
    </g>
   </g>
   <g id="matplotlib.axis_2">
    <g id="ytick_1">
     <g id="line2d_7">
      <defs>
       <path id="m30c4a4ab39" d="M 0 0 
L -3.5 0 
" style="stroke: #000000; stroke-width: 0.8"/>
      </defs>
      <g>
       <use xlink:href="#m30c4a4ab39" x="56.87" y="172.66324" style="stroke: #000000; stroke-width: 0.8"/>
      </g>
     </g>
     <g id="text_8">
      <text style="font: 10px 'DejaVu Sans', 'Bitstream Vera Sans', 'Computer Modern Sans Serif', 'Lucida Grande', 'Verdana', 'Geneva', 'Lucid', 'Arial', 'Helvetica', 'Avant Garde', sans-serif; text-anchor: end" x="49.87" y="176.462459" transform="rotate(-0 49.87 176.462459)">50</text>
     </g>
    </g>
    <g id="ytick_2">
     <g id="line2d_8">
      <g>
       <use xlink:href="#m30c4a4ab39" x="56.87" y="133.194644" style="stroke: #000000; stroke-width: 0.8"/>
      </g>
     </g>
     <g id="text_9">
      <text style="font: 10px 'DejaVu Sans', 'Bitstream Vera Sans', 'Computer Modern Sans Serif', 'Lucida Grande', 'Verdana', 'Geneva', 'Lucid', 'Arial', 'Helvetica', 'Avant Garde', sans-serif; text-anchor: end" x="49.87" y="136.993863" transform="rotate(-0 49.87 136.993863)">100</text>
     </g>
    </g>
    <g id="ytick_3">
     <g id="line2d_9">
      <g>
       <use xlink:href="#m30c4a4ab39" x="56.87" y="93.726048" style="stroke: #000000; stroke-width: 0.8"/>
      </g>
     </g>
     <g id="text_10">
      <text style="font: 10px 'DejaVu Sans', 'Bitstream Vera Sans', 'Computer Modern Sans Serif', 'Lucida Grande', 'Verdana', 'Geneva', 'Lucid', 'Arial', 'Helvetica', 'Avant Garde', sans-serif; text-anchor: end" x="49.87" y="97.525267" transform="rotate(-0 49.87 97.525267)">150</text>
     </g>
    </g>
    <g id="ytick_4">
     <g id="line2d_10">
      <g>
       <use xlink:href="#m30c4a4ab39" x="56.87" y="54.257452" style="stroke: #000000; stroke-width: 0.8"/>
      </g>
     </g>
     <g id="text_11">
      <text style="font: 10px 'DejaVu Sans', 'Bitstream Vera Sans', 'Computer Modern Sans Serif', 'Lucida Grande', 'Verdana', 'Geneva', 'Lucid', 'Arial', 'Helvetica', 'Avant Garde', sans-serif; text-anchor: end" x="49.87" y="58.056671" transform="rotate(-0 49.87 58.056671)">200</text>
     </g>
    </g>
    <g id="ytick_5">
     <g id="line2d_11">
      <g>
       <use xlink:href="#m30c4a4ab39" x="56.87" y="14.788857" style="stroke: #000000; stroke-width: 0.8"/>
      </g>
     </g>
     <g id="text_12">
      <text style="font: 10px 'DejaVu Sans', 'Bitstream Vera Sans', 'Computer Modern Sans Serif', 'Lucida Grande', 'Verdana', 'Geneva', 'Lucid', 'Arial', 'Helvetica', 'Avant Garde', sans-serif; text-anchor: end" x="49.87" y="18.588075" transform="rotate(-0 49.87 18.588075)">250</text>
     </g>
    </g>
    <g id="text_13">
     <text style="font: 10px 'DejaVu Sans', 'Bitstream Vera Sans', 'Computer Modern Sans Serif', 'Lucida Grande', 'Verdana', 'Geneva', 'Lucid', 'Arial', 'Helvetica', 'Avant Garde', sans-serif; text-anchor: middle" x="18.702813" y="111.486916" transform="rotate(-90 18.702813 111.486916)">power (uW)</text>
    </g>
   </g>
   <g id="line2d_12">
    <path d="M 78.168182 112.670974 
L 79.878879 82.674841 
L 83.300274 52.678709 
L 85.010971 145.035223 
L 86.721668 154.507686 
L 88.432366 168.71638 
L 90.143063 83.464213 
L 91.85376 90.568561 
L 93.564458 47.153105 
L 95.275155 199.501885 
L 96.985853 61.3618 
L 98.69655 89.779189 
L 100.407247 112.670974 
L 102.117945 125.300925 
L 103.828642 80.306726 
L 105.539339 61.3618 
L 107.250037 73.99175 
L 108.960734 92.147304 
L 110.671431 57.41494 
L 112.382129 43.206246 
L 115.803523 96.094164 
L 117.514221 39.259386 
L 119.224918 50.310593 
L 122.646313 87.411073 
L 124.35701 155.297058 
L 126.067707 44.784989 
L 127.778405 156.875801 
L 129.489102 105.566627 
L 131.199799 139.509619 
L 132.910497 62.940543 
L 134.621194 122.932809 
L 136.331891 140.298991 
L 138.042589 122.143437 
L 139.753286 71.623635 
L 141.463983 56.625568 
L 143.174681 51.099965 
L 144.885378 150.560826 
L 146.596075 52.678709 
L 148.306773 66.887403 
L 150.01747 38.470014 
L 151.728167 139.509619 
L 153.438865 43.995617 
L 155.149562 64.519287 
L 156.860259 71.623635 
L 158.570957 58.204312 
L 160.281654 89.779189 
L 161.992351 65.308659 
L 163.703049 143.456479 
L 165.413746 46.363733 
L 167.124443 55.046824 
L 168.835141 54.257452 
L 170.545838 54.257452 
L 172.256535 43.206246 
L 173.967233 199.501885 
L 175.67793 86.621701 
L 177.388627 40.83813 
L 179.099325 66.098031 
L 180.810022 37.680642 
L 182.520719 49.521221 
L 184.231417 79.517354 
L 185.942114 118.196578 
L 187.652811 53.46808 
L 189.363509 62.940543 
L 191.074206 78.727982 
L 192.784903 132.405272 
L 194.495601 103.987883 
L 196.206298 46.363733 
L 197.916995 199.501885 
L 199.627693 84.253585 
L 201.33839 57.41494 
L 203.049087 55.046824 
L 204.759785 62.940543 
L 206.470482 80.306726 
L 208.181179 182.925075 
L 209.891877 129.247784 
L 211.602574 95.304792 
L 213.313271 79.517354 
L 215.023969 98.46228 
L 216.734666 90.568561 
L 218.445363 65.308659 
L 220.156061 47.153105 
L 221.866758 83.464213 
L 223.577455 87.411073 
L 225.288153 52.678709 
L 226.99885 117.407206 
L 228.709547 80.306726 
L 230.420245 116.617834 
L 232.130942 52.678709 
L 233.841639 62.151172 
L 235.552337 64.519287 
L 237.263034 53.46808 
L 238.973731 115.828462 
L 240.684429 71.623635 
L 242.395126 52.678709 
L 244.105823 90.568561 
L 245.816521 57.41494 
L 247.527218 88.989817 
L 249.237915 87.411073 
L 250.948613 93.726048 
L 252.65931 62.940543 
L 254.370007 39.259386 
L 256.080705 119.775321 
L 257.791402 48.731849 
L 259.502099 174.241984 
L 261.212797 118.196578 
L 262.923494 50.310593 
L 264.634191 146.613967 
L 266.344889 43.995617 
L 268.055586 77.149238 
L 269.766283 65.308659 
L 271.476981 82.674841 
L 273.187678 51.889337 
L 274.898375 164.769521 
L 276.609073 115.828462 
L 278.31977 52.678709 
L 280.030467 44.784989 
L 281.741165 70.834263 
L 283.451862 71.623635 
L 285.162559 43.995617 
L 286.873257 51.889337 
L 288.583954 47.942477 
L 290.294651 48.731849 
L 292.005349 67.676775 
L 293.716046 201.080629 
L 295.426743 133.984016 
L 297.137441 141.877735 
L 298.848138 40.048758 
L 300.558835 93.726048 
L 302.269533 138.720247 
L 303.98023 64.519287 
L 305.690927 64.519287 
L 307.401625 40.83813 
L 309.112322 199.501885 
L 310.823019 61.3618 
L 312.533717 125.300925 
L 314.244414 78.727982 
L 315.955111 66.887403 
L 317.665809 75.570494 
L 319.376506 151.350198 
L 321.087203 147.403338 
L 322.797901 21.893204 
L 324.508598 61.3618 
L 326.219295 85.832329 
L 327.929993 104.777255 
L 329.64069 66.098031 
L 331.351387 112.670974 
L 333.062085 85.832329 
L 334.772782 76.359866 
L 336.483479 35.312526 
L 338.194177 93.726048 
L 339.904874 58.204312 
L 341.615571 43.995617 
L 343.326269 96.094164 
L 345.036966 105.566627 
L 346.747663 34.523154 
L 348.458361 111.09223 
L 350.169058 51.889337 
L 351.879755 136.352132 
L 353.590453 81.885469 
L 355.30115 83.464213 
L 357.011847 70.834263 
L 358.722545 28.997551 
L 360.433242 118.98595 
L 362.143939 67.676775 
L 363.854637 174.241984 
L 365.565334 57.41494 
L 367.276031 53.46808 
L 368.986729 108.724115 
L 370.697426 43.995617 
L 372.408123 57.41494 
L 374.118821 55.836196 
L 375.829518 51.099965 
L 377.540215 68.466147 
L 379.250913 51.889337 
L 380.96161 66.887403 
L 382.672307 67.676775 
L 384.383005 119.775321 
L 386.093702 113.460346 
L 387.804399 42.416874 
L 389.515097 90.568561 
L 391.225794 47.153105 
L 392.936491 122.932809 
L 394.647189 62.940543 
L 396.357886 25.050692 
L 398.068583 174.241984 
L 399.779281 145.035223 
L 401.489978 111.881602 
L 403.200675 96.094164 
L 404.911373 40.048758 
L 406.62207 48.731849 
L 408.332767 65.308659 
L 410.043465 133.194644 
L 411.754162 145.035223 
L 413.464859 81.096098 
L 415.175557 141.877735 
L 416.886254 87.411073 
L 418.596951 133.194644 
L 420.307649 103.198511 
L 422.018346 81.885469 
L 423.729043 174.241984 
L 425.439741 47.153105 
L 427.150438 58.993684 
L 428.861135 98.46228 
L 430.571833 59.783056 
L 432.28253 154.507686 
L 433.993227 68.466147 
L 435.703925 77.149238 
L 437.414622 101.619767 
L 439.125319 171.873868 
L 440.836017 79.517354 
L 442.546714 126.090297 
L 444.257411 137.930875 
L 445.968109 84.253585 
L 447.678806 40.83813 
L 449.389503 132.405272 
L 451.100201 50.310593 
L 452.810898 58.204312 
L 454.521595 45.574361 
L 456.232293 59.783056 
L 457.94299 53.46808 
L 459.653687 47.942477 
L 461.364385 58.204312 
L 463.075082 66.887403 
L 464.785779 97.672908 
L 466.496477 174.241984 
L 468.207174 109.513487 
L 469.917871 178.188843 
L 471.628569 99.251652 
L 473.339266 197.923141 
L 475.049963 68.466147 
L 476.760661 85.832329 
L 478.471358 47.153105 
L 480.182055 182.925075 
L 481.892753 97.672908 
L 483.60345 106.355999 
L 485.314147 73.202378 
L 487.024845 166.348264 
L 488.735542 114.249718 
L 490.44624 155.297058 
L 492.156937 80.306726 
L 493.867634 182.135703 
L 495.578332 51.099965 
L 497.289029 54.257452 
L 498.999726 131.6159 
L 500.710424 65.308659 
L 502.421121 55.836196 
L 504.131818 64.519287 
L 504.131818 64.519287 
" clip-path="url(#p4c6eecb89f)" style="fill: none; stroke: #99004d; stroke-width: 0.8; stroke-linecap: square"/>
   </g>
   <g id="patch_3">
    <path d="M 56.87 210.04 
L 56.87 12.933833 
" style="fill: none; stroke: #000000; stroke-width: 0.8; stroke-linejoin: miter; stroke-linecap: square"/>
   </g>
   <g id="patch_4">
    <path d="M 525.43 210.04 
L 525.43 12.933833 
" style="fill: none; stroke: #000000; stroke-width: 0.8; stroke-linejoin: miter; stroke-linecap: square"/>
   </g>
   <g id="patch_5">
    <path d="M 56.87 210.04 
L 525.43 210.04 
" style="fill: none; stroke: #000000; stroke-width: 0.8; stroke-linejoin: miter; stroke-linecap: square"/>
   </g>
   <g id="patch_6">
    <path d="M 56.87 12.933833 
L 525.43 12.933833 
" style="fill: none; stroke: #000000; stroke-width: 0.8; stroke-linejoin: miter; stroke-linecap: square"/>
   </g>
  </g>
  <g id="axes_2">
   <g id="matplotlib.axis_3">
    <g id="ytick_6">
     <g id="line2d_13">
      <defs>
       <path id="m0d31113ad5" d="M 0 0 
L 3.5 0 
" style="stroke: #000000; stroke-width: 0.8"/>
      </defs>
      <g>
       <use xlink:href="#m0d31113ad5" x="525.43" y="201.080629" style="stroke: #000000; stroke-width: 0.8"/>
      </g>
     </g>
     <g id="text_14">
      <text style="font: 10px 'DejaVu Sans', 'Bitstream Vera Sans', 'Computer Modern Sans Serif', 'Lucida Grande', 'Verdana', 'Geneva', 'Lucid', 'Arial', 'Helvetica', 'Avant Garde', sans-serif; text-anchor: start" x="532.43" y="204.879848" transform="rotate(-0 532.43 204.879848)">0</text>
     </g>
    </g>
    <g id="ytick_7">
     <g id="line2d_14">
      <g>
       <use xlink:href="#m0d31113ad5" x="525.43" y="167.897772" style="stroke: #000000; stroke-width: 0.8"/>
      </g>
     </g>
     <g id="text_15">
      <text style="font: 10px 'DejaVu Sans', 'Bitstream Vera Sans', 'Computer Modern Sans Serif', 'Lucida Grande', 'Verdana', 'Geneva', 'Lucid', 'Arial', 'Helvetica', 'Avant Garde', sans-serif; text-anchor: start" x="532.43" y="171.696991" transform="rotate(-0 532.43 171.696991)">5</text>
     </g>
    </g>
    <g id="ytick_8">
     <g id="line2d_15">
      <g>
       <use xlink:href="#m0d31113ad5" x="525.43" y="134.714916" style="stroke: #000000; stroke-width: 0.8"/>
      </g>
     </g>
     <g id="text_16">
      <text style="font: 10px 'DejaVu Sans', 'Bitstream Vera Sans', 'Computer Modern Sans Serif', 'Lucida Grande', 'Verdana', 'Geneva', 'Lucid', 'Arial', 'Helvetica', 'Avant Garde', sans-serif; text-anchor: start" x="532.43" y="138.514135" transform="rotate(-0 532.43 138.514135)">10</text>
     </g>
    </g>
    <g id="ytick_9">
     <g id="line2d_16">
      <g>
       <use xlink:href="#m0d31113ad5" x="525.43" y="101.532059" style="stroke: #000000; stroke-width: 0.8"/>
      </g>
     </g>
     <g id="text_17">
      <text style="font: 10px 'DejaVu Sans', 'Bitstream Vera Sans', 'Computer Modern Sans Serif', 'Lucida Grande', 'Verdana', 'Geneva', 'Lucid', 'Arial', 'Helvetica', 'Avant Garde', sans-serif; text-anchor: start" x="532.43" y="105.331278" transform="rotate(-0 532.43 105.331278)">15</text>
     </g>
    </g>
    <g id="ytick_10">
     <g id="line2d_17">
      <g>
       <use xlink:href="#m0d31113ad5" x="525.43" y="68.349203" style="stroke: #000000; stroke-width: 0.8"/>
      </g>
     </g>
     <g id="text_18">
      <text style="font: 10px 'DejaVu Sans', 'Bitstream Vera Sans', 'Computer Modern Sans Serif', 'Lucida Grande', 'Verdana', 'Geneva', 'Lucid', 'Arial', 'Helvetica', 'Avant Garde', sans-serif; text-anchor: start" x="532.43" y="72.148422" transform="rotate(-0 532.43 72.148422)">20</text>
     </g>
    </g>
    <g id="ytick_11">
     <g id="line2d_18">
      <g>
       <use xlink:href="#m0d31113ad5" x="525.43" y="35.166346" style="stroke: #000000; stroke-width: 0.8"/>
      </g>
     </g>
     <g id="text_19">
      <text style="font: 10px 'DejaVu Sans', 'Bitstream Vera Sans', 'Computer Modern Sans Serif', 'Lucida Grande', 'Verdana', 'Geneva', 'Lucid', 'Arial', 'Helvetica', 'Avant Garde', sans-serif; text-anchor: start" x="532.43" y="38.965565" transform="rotate(-0 532.43 38.965565)">25</text>
     </g>
    </g>
    <g id="text_20">
     <text style="font: 10px 'DejaVu Sans', 'Bitstream Vera Sans', 'Computer Modern Sans Serif', 'Lucida Grande', 'Verdana', 'Geneva', 'Lucid', 'Arial', 'Helvetica', 'Avant Garde', sans-serif; text-anchor: middle" x="562.753438" y="111.486916" transform="rotate(-90 562.753438 111.486916)">hw(data)</text>
    </g>
   </g>
   <g id="line2d_19">
    <path d="M 78.168182 161.261201 
L 79.878879 74.985774 
L 81.589576 55.07606 
L 83.300274 55.07606 
L 85.010971 187.807486 
L 86.721668 181.170915 
L 88.432366 194.444057 
L 90.143063 108.168631 
L 91.85376 134.714916 
L 93.564458 114.805202 
L 95.275155 201.080629 
L 96.985853 55.07606 
L 98.69655 101.532059 
L 100.407247 35.166346 
L 102.117945 108.168631 
L 103.828642 61.712632 
L 105.539339 74.985774 
L 107.250037 108.168631 
L 108.960734 161.261201 
L 110.671431 35.166346 
L 112.382129 74.985774 
L 114.092826 74.985774 
L 115.803523 55.07606 
L 117.514221 41.802918 
L 119.224918 61.712632 
L 120.935615 114.805202 
L 122.646313 41.802918 
L 124.35701 181.170915 
L 126.067707 55.07606 
L 127.778405 194.444057 
L 129.489102 174.534344 
L 131.199799 174.534344 
L 132.910497 101.532059 
L 134.621194 181.170915 
L 136.331891 187.807486 
L 138.042589 74.985774 
L 139.753286 94.895488 
L 141.463983 141.351487 
L 143.174681 55.07606 
L 144.885378 187.807486 
L 146.596075 88.258917 
L 148.306773 101.532059 
L 150.01747 68.349203 
L 151.728167 187.807486 
L 153.438865 68.349203 
L 155.149562 114.805202 
L 156.860259 55.07606 
L 158.570957 21.893204 
L 160.281654 134.714916 
L 161.992351 94.895488 
L 163.703049 167.897772 
L 165.413746 35.166346 
L 167.124443 48.439489 
L 168.835141 121.441773 
L 170.545838 55.07606 
L 172.256535 48.439489 
L 173.967233 201.080629 
L 175.67793 141.351487 
L 177.388627 68.349203 
L 179.099325 147.988058 
L 180.810022 28.529775 
L 182.520719 81.622345 
L 184.231417 101.532059 
L 185.942114 174.534344 
L 187.652811 61.712632 
L 189.363509 74.985774 
L 191.074206 48.439489 
L 192.784903 114.805202 
L 194.495601 167.897772 
L 196.206298 61.712632 
L 197.916995 201.080629 
L 199.627693 147.988058 
L 201.33839 41.802918 
L 203.049087 41.802918 
L 204.759785 48.439489 
L 206.470482 101.532059 
L 208.181179 194.444057 
L 209.891877 187.807486 
L 211.602574 61.712632 
L 213.313271 121.441773 
L 215.023969 174.534344 
L 216.734666 114.805202 
L 218.445363 147.988058 
L 220.156061 61.712632 
L 221.866758 74.985774 
L 223.577455 147.988058 
L 225.288153 101.532059 
L 226.99885 141.351487 
L 228.709547 81.622345 
L 230.420245 174.534344 
L 232.130942 88.258917 
L 233.841639 88.258917 
L 235.552337 48.439489 
L 237.263034 48.439489 
L 238.973731 174.534344 
L 240.684429 147.988058 
L 242.395126 88.258917 
L 244.105823 121.441773 
L 245.816521 41.802918 
L 247.527218 55.07606 
L 249.237915 161.261201 
L 250.948613 114.805202 
L 252.65931 108.168631 
L 254.370007 55.07606 
L 256.080705 161.261201 
L 257.791402 81.622345 
L 259.502099 194.444057 
L 261.212797 167.897772 
L 262.923494 48.439489 
L 264.634191 187.807486 
L 266.344889 48.439489 
L 268.055586 154.62463 
L 269.766283 68.349203 
L 271.476981 147.988058 
L 273.187678 55.07606 
L 274.898375 187.807486 
L 276.609073 174.534344 
L 278.31977 28.529775 
L 280.030467 41.802918 
L 281.741165 61.712632 
L 283.451862 35.166346 
L 285.162559 55.07606 
L 286.873257 55.07606 
L 288.583954 61.712632 
L 290.294651 35.166346 
L 292.005349 68.349203 
L 293.716046 201.080629 
L 295.426743 174.534344 
L 297.137441 181.170915 
L 298.848138 41.802918 
L 300.558835 141.351487 
L 302.269533 181.170915 
L 303.98023 61.712632 
L 305.690927 61.712632 
L 307.401625 48.439489 
L 309.112322 201.080629 
L 310.823019 68.349203 
L 312.533717 114.805202 
L 314.244414 101.532059 
L 315.955111 55.07606 
L 317.665809 68.349203 
L 319.376506 187.807486 
L 321.087203 174.534344 
L 322.797901 28.529775 
L 324.508598 61.712632 
L 326.219295 154.62463 
L 327.929993 108.168631 
L 329.64069 55.07606 
L 331.351387 74.985774 
L 333.062085 61.712632 
L 334.772782 101.532059 
L 336.483479 61.712632 
L 338.194177 55.07606 
L 339.904874 68.349203 
L 341.615571 41.802918 
L 343.326269 101.532059 
L 345.036966 81.622345 
L 346.747663 68.349203 
L 348.458361 41.802918 
L 350.169058 81.622345 
L 351.879755 174.534344 
L 353.590453 121.441773 
L 355.30115 147.988058 
L 357.011847 134.714916 
L 358.722545 35.166346 
L 360.433242 128.078345 
L 362.143939 88.258917 
L 363.854637 194.444057 
L 365.565334 88.258917 
L 367.276031 101.532059 
L 368.986729 167.897772 
L 370.697426 48.439489 
L 372.408123 48.439489 
L 374.118821 108.168631 
L 375.829518 48.439489 
L 377.540215 61.712632 
L 379.250913 108.168631 
L 382.672307 81.622345 
L 384.383005 154.62463 
L 386.093702 167.897772 
L 387.804399 48.439489 
L 389.515097 167.897772 
L 391.225794 61.712632 
L 392.936491 174.534344 
L 394.647189 68.349203 
L 396.357886 28.529775 
L 398.068583 194.444057 
L 399.779281 174.534344 
L 401.489978 48.439489 
L 403.200675 154.62463 
L 404.911373 114.805202 
L 406.62207 114.805202 
L 408.332767 108.168631 
L 410.043465 121.441773 
L 411.754162 141.351487 
L 413.464859 68.349203 
L 415.175557 174.534344 
L 416.886254 81.622345 
L 418.596951 114.805202 
L 420.307649 134.714916 
L 422.018346 128.078345 
L 423.729043 194.444057 
L 425.439741 114.805202 
L 427.150438 101.532059 
L 428.861135 167.897772 
L 430.571833 48.439489 
L 432.28253 187.807486 
L 433.993227 41.802918 
L 435.703925 48.439489 
L 437.414622 35.166346 
L 439.125319 187.807486 
L 440.836017 121.441773 
L 442.546714 174.534344 
L 444.257411 134.714916 
L 445.968109 68.349203 
L 447.678806 41.802918 
L 449.389503 101.532059 
L 451.100201 101.532059 
L 452.810898 134.714916 
L 454.521595 35.166346 
L 456.232293 101.532059 
L 457.94299 121.441773 
L 459.653687 41.802918 
L 461.364385 68.349203 
L 463.075082 134.714916 
L 464.785779 128.078345 
L 466.496477 194.444057 
L 468.207174 174.534344 
L 469.917871 194.444057 
L 471.628569 141.351487 
L 473.339266 201.080629 
L 475.049963 61.712632 
L 476.760661 147.988058 
L 478.471358 101.532059 
L 480.182055 194.444057 
L 481.892753 114.805202 
L 483.60345 28.529775 
L 485.314147 134.714916 
L 487.024845 174.534344 
L 488.735542 167.897772 
L 490.44624 187.807486 
L 492.156937 161.261201 
L 493.867634 187.807486 
L 495.578332 55.07606 
L 497.289029 61.712632 
L 498.999726 181.170915 
L 500.710424 108.168631 
L 502.421121 61.712632 
L 504.131818 55.07606 
L 504.131818 55.07606 
" clip-path="url(#p4c6eecb89f)" style="fill: none; stroke: #235996; stroke-width: 0.8; stroke-linecap: square"/>
   </g>
   <g id="patch_7">
    <path d="M 56.87 210.04 
L 56.87 12.933833 
" style="fill: none; stroke: #000000; stroke-width: 0.8; stroke-linejoin: miter; stroke-linecap: square"/>
   </g>
   <g id="patch_8">
    <path d="M 525.43 210.04 
L 525.43 12.933833 
" style="fill: none; stroke: #000000; stroke-width: 0.8; stroke-linejoin: miter; stroke-linecap: square"/>
   </g>
   <g id="patch_9">
    <path d="M 56.87 210.04 
L 525.43 210.04 
" style="fill: none; stroke: #000000; stroke-width: 0.8; stroke-linejoin: miter; stroke-linecap: square"/>
   </g>
   <g id="patch_10">
    <path d="M 56.87 12.933833 
L 525.43 12.933833 
" style="fill: none; stroke: #000000; stroke-width: 0.8; stroke-linejoin: miter; stroke-linecap: square"/>
   </g>
   <g id="legend_1">
    <g id="patch_11">
     <path d="M 183.934125 45.590333 
L 398.365875 45.590333 
Q 401.245875 45.590333 401.245875 42.710333 
L 401.245875 23.013833 
Q 401.245875 20.133833 398.365875 20.133833 
L 183.934125 20.133833 
Q 181.054125 20.133833 181.054125 23.013833 
L 181.054125 42.710333 
Q 181.054125 45.590333 183.934125 45.590333 
z
" style="fill: #ffffff; opacity: 0.8; stroke: #000000; stroke-linejoin: miter"/>
    </g>
    <g id="line2d_20">
     <path d="M 186.814125 31.795583 
L 201.214125 31.795583 
L 215.614125 31.795583 
" style="fill: none; stroke: #99004d; stroke-width: 0.8; stroke-linecap: square"/>
    </g>
    <g id="text_21">
     <text style="font: 14.4px 'DejaVu Sans', 'Bitstream Vera Sans', 'Computer Modern Sans Serif', 'Lucida Grande', 'Verdana', 'Geneva', 'Lucid', 'Arial', 'Helvetica', 'Avant Garde', sans-serif; text-anchor: start" x="227.134125" y="36.835583" transform="rotate(-0 227.134125 36.835583)">power</text>
    </g>
    <g id="line2d_21">
     <path d="M 300.443625 31.795583 
L 314.843625 31.795583 
L 329.243625 31.795583 
" style="fill: none; stroke: #235996; stroke-width: 0.8; stroke-linecap: square"/>
    </g>
    <g id="text_22">
     <text style="font: 14.4px 'DejaVu Sans', 'Bitstream Vera Sans', 'Computer Modern Sans Serif', 'Lucida Grande', 'Verdana', 'Geneva', 'Lucid', 'Arial', 'Helvetica', 'Avant Garde', sans-serif; text-anchor: start" x="340.763625" y="36.835583" transform="rotate(-0 340.763625 36.835583)">hw(rs1)</text>
    </g>
   </g>
  </g>
 </g>
 <defs>
  <clipPath id="p4c6eecb89f">
   <rect x="56.87" y="12.933833" width="468.56" height="197.106167"/>
  </clipPath>
 </defs>
</svg>
