<?xml version="1.0" encoding="utf-8" standalone="no"?>
<!DOCTYPE svg PUBLIC "-//W3C//DTD SVG 1.1//EN"
  "http://www.w3.org/Graphics/SVG/1.1/DTD/svg11.dtd">
<svg xmlns:xlink="http://www.w3.org/1999/xlink" width="576pt" height="252pt" viewBox="0 0 576 252" xmlns="http://www.w3.org/2000/svg" version="1.1">
 <metadata>
  <rdf:RDF xmlns:dc="http://purl.org/dc/elements/1.1/" xmlns:cc="http://creativecommons.org/ns#" xmlns:rdf="http://www.w3.org/1999/02/22-rdf-syntax-ns#">
   <cc:Work>
    <dc:type rdf:resource="http://purl.org/dc/dcmitype/StillImage"/>
    <dc:date>2023-12-06T16:20:05.867010</dc:date>
    <dc:format>image/svg+xml</dc:format>
    <dc:creator>
     <cc:Agent>
      <dc:title>Matplotlib v3.7.4, https://matplotlib.org/</dc:title>
     </cc:Agent>
    </dc:creator>
   </cc:Work>
  </rdf:RDF>
 </metadata>
 <defs>
  <style type="text/css">*{stroke-linejoin: round; stroke-linecap: butt}</style>
 </defs>
 <g id="figure_1">
  <g id="patch_1">
   <path d="M 0 252 
L 576 252 
L 576 0 
L 0 0 
z
" style="fill: #ffffff"/>
  </g>
  <g id="axes_1">
   <g id="patch_2">
    <path d="M 56.87 210.04 
L 515.98 210.04 
L 515.98 10.8 
L 56.87 10.8 
z
" style="fill: #ffffff"/>
   </g>
   <g id="matplotlib.axis_1">
    <g id="xtick_1">
     <g id="line2d_1">
      <defs>
       <path id="m16e45959bc" d="M 0 0 
L 0 3.5 
" style="stroke: #000000; stroke-width: 0.8"/>
      </defs>
      <g>
       <use xlink:href="#m16e45959bc" x="77.738636" y="210.04" style="stroke: #000000; stroke-width: 0.8"/>
      </g>
     </g>
     <g id="text_1">
      <text style="font: 10px 'DejaVu Sans', 'Bitstream Vera Sans', 'Computer Modern Sans Serif', 'Lucida Grande', 'Verdana', 'Geneva', 'Lucid', 'Arial', 'Helvetica', 'Avant Garde', sans-serif; text-anchor: middle" x="77.738636" y="224.638438" transform="rotate(-0 77.738636 224.638438)">0</text>
     </g>
    </g>
    <g id="xtick_2">
     <g id="line2d_2">
      <g>
       <use xlink:href="#m16e45959bc" x="161.548421" y="210.04" style="stroke: #000000; stroke-width: 0.8"/>
      </g>
     </g>
     <g id="text_2">
      <text style="font: 10px 'DejaVu Sans', 'Bitstream Vera Sans', 'Computer Modern Sans Serif', 'Lucida Grande', 'Verdana', 'Geneva', 'Lucid', 'Arial', 'Helvetica', 'Avant Garde', sans-serif; text-anchor: middle" x="161.548421" y="224.638438" transform="rotate(-0 161.548421 224.638438)">50</text>
     </g>
    </g>
    <g id="xtick_3">
     <g id="line2d_3">
      <g>
       <use xlink:href="#m16e45959bc" x="245.358206" y="210.04" style="stroke: #000000; stroke-width: 0.8"/>
      </g>
     </g>
     <g id="text_3">
      <text style="font: 10px 'DejaVu Sans', 'Bitstream Vera Sans', 'Computer Modern Sans Serif', 'Lucida Grande', 'Verdana', 'Geneva', 'Lucid', 'Arial', 'Helvetica', 'Avant Garde', sans-serif; text-anchor: middle" x="245.358206" y="224.638438" transform="rotate(-0 245.358206 224.638438)">100</text>
     </g>
    </g>
    <g id="xtick_4">
     <g id="line2d_4">
      <g>
       <use xlink:href="#m16e45959bc" x="329.16799" y="210.04" style="stroke: #000000; stroke-width: 0.8"/>
      </g>
     </g>
     <g id="text_4">
      <text style="font: 10px 'DejaVu Sans', 'Bitstream Vera Sans', 'Computer Modern Sans Serif', 'Lucida Grande', 'Verdana', 'Geneva', 'Lucid', 'Arial', 'Helvetica', 'Avant Garde', sans-serif; text-anchor: middle" x="329.16799" y="224.638438" transform="rotate(-0 329.16799 224.638438)">150</text>
     </g>
    </g>
    <g id="xtick_5">
     <g id="line2d_5">
      <g>
       <use xlink:href="#m16e45959bc" x="412.977775" y="210.04" style="stroke: #000000; stroke-width: 0.8"/>
      </g>
     </g>
     <g id="text_5">
      <text style="font: 10px 'DejaVu Sans', 'Bitstream Vera Sans', 'Computer Modern Sans Serif', 'Lucida Grande', 'Verdana', 'Geneva', 'Lucid', 'Arial', 'Helvetica', 'Avant Garde', sans-serif; text-anchor: middle" x="412.977775" y="224.638438" transform="rotate(-0 412.977775 224.638438)">200</text>
     </g>
    </g>
    <g id="xtick_6">
     <g id="line2d_6">
      <g>
       <use xlink:href="#m16e45959bc" x="496.787559" y="210.04" style="stroke: #000000; stroke-width: 0.8"/>
      </g>
     </g>
     <g id="text_6">
      <text style="font: 10px 'DejaVu Sans', 'Bitstream Vera Sans', 'Computer Modern Sans Serif', 'Lucida Grande', 'Verdana', 'Geneva', 'Lucid', 'Arial', 'Helvetica', 'Avant Garde', sans-serif; text-anchor: middle" x="496.787559" y="224.638438" transform="rotate(-0 496.787559 224.638438)">250</text>
     </g>
    </g>
    <g id="text_7">
     <text style="font: 10px 'DejaVu Sans', 'Bitstream Vera Sans', 'Computer Modern Sans Serif', 'Lucida Grande', 'Verdana', 'Geneva', 'Lucid', 'Arial', 'Helvetica', 'Avant Garde', sans-serif; text-anchor: middle" x="286.425" y="238.316563" transform="rotate(-0 286.425 238.316563)">Cycles</text>
    </g>
   </g>
   <g id="matplotlib.axis_2">
    <g id="ytick_1">
     <g id="line2d_7">
      <defs>
       <path id="m311f376a99" d="M 0 0 
L -3.5 0 
" style="stroke: #000000; stroke-width: 0.8"/>
      </defs>
      <g>
       <use xlink:href="#m311f376a99" x="56.87" y="202.199256" style="stroke: #000000; stroke-width: 0.8"/>
      </g>
     </g>
     <g id="text_8">
      <text style="font: 10px 'DejaVu Sans', 'Bitstream Vera Sans', 'Computer Modern Sans Serif', 'Lucida Grande', 'Verdana', 'Geneva', 'Lucid', 'Arial', 'Helvetica', 'Avant Garde', sans-serif; text-anchor: end" x="49.87" y="205.998474" transform="rotate(-0 49.87 205.998474)">0</text>
     </g>
    </g>
    <g id="ytick_2">
     <g id="line2d_8">
      <g>
       <use xlink:href="#m311f376a99" x="56.87" y="177.88687" style="stroke: #000000; stroke-width: 0.8"/>
      </g>
     </g>
     <g id="text_9">
      <text style="font: 10px 'DejaVu Sans', 'Bitstream Vera Sans', 'Computer Modern Sans Serif', 'Lucida Grande', 'Verdana', 'Geneva', 'Lucid', 'Arial', 'Helvetica', 'Avant Garde', sans-serif; text-anchor: end" x="49.87" y="181.686089" transform="rotate(-0 49.87 181.686089)">20</text>
     </g>
    </g>
    <g id="ytick_3">
     <g id="line2d_9">
      <g>
       <use xlink:href="#m311f376a99" x="56.87" y="153.574484" style="stroke: #000000; stroke-width: 0.8"/>
      </g>
     </g>
     <g id="text_10">
      <text style="font: 10px 'DejaVu Sans', 'Bitstream Vera Sans', 'Computer Modern Sans Serif', 'Lucida Grande', 'Verdana', 'Geneva', 'Lucid', 'Arial', 'Helvetica', 'Avant Garde', sans-serif; text-anchor: end" x="49.87" y="157.373703" transform="rotate(-0 49.87 157.373703)">40</text>
     </g>
    </g>
    <g id="ytick_4">
     <g id="line2d_10">
      <g>
       <use xlink:href="#m311f376a99" x="56.87" y="129.262099" style="stroke: #000000; stroke-width: 0.8"/>
      </g>
     </g>
     <g id="text_11">
      <text style="font: 10px 'DejaVu Sans', 'Bitstream Vera Sans', 'Computer Modern Sans Serif', 'Lucida Grande', 'Verdana', 'Geneva', 'Lucid', 'Arial', 'Helvetica', 'Avant Garde', sans-serif; text-anchor: end" x="49.87" y="133.061318" transform="rotate(-0 49.87 133.061318)">60</text>
     </g>
    </g>
    <g id="ytick_5">
     <g id="line2d_11">
      <g>
       <use xlink:href="#m311f376a99" x="56.87" y="104.949713" style="stroke: #000000; stroke-width: 0.8"/>
      </g>
     </g>
     <g id="text_12">
      <text style="font: 10px 'DejaVu Sans', 'Bitstream Vera Sans', 'Computer Modern Sans Serif', 'Lucida Grande', 'Verdana', 'Geneva', 'Lucid', 'Arial', 'Helvetica', 'Avant Garde', sans-serif; text-anchor: end" x="49.87" y="108.748932" transform="rotate(-0 49.87 108.748932)">80</text>
     </g>
    </g>
    <g id="ytick_6">
     <g id="line2d_12">
      <g>
       <use xlink:href="#m311f376a99" x="56.87" y="80.637328" style="stroke: #000000; stroke-width: 0.8"/>
      </g>
     </g>
     <g id="text_13">
      <text style="font: 10px 'DejaVu Sans', 'Bitstream Vera Sans', 'Computer Modern Sans Serif', 'Lucida Grande', 'Verdana', 'Geneva', 'Lucid', 'Arial', 'Helvetica', 'Avant Garde', sans-serif; text-anchor: end" x="49.87" y="84.436546" transform="rotate(-0 49.87 84.436546)">100</text>
     </g>
    </g>
    <g id="ytick_7">
     <g id="line2d_13">
      <g>
       <use xlink:href="#m311f376a99" x="56.87" y="56.324942" style="stroke: #000000; stroke-width: 0.8"/>
      </g>
     </g>
     <g id="text_14">
      <text style="font: 10px 'DejaVu Sans', 'Bitstream Vera Sans', 'Computer Modern Sans Serif', 'Lucida Grande', 'Verdana', 'Geneva', 'Lucid', 'Arial', 'Helvetica', 'Avant Garde', sans-serif; text-anchor: end" x="49.87" y="60.124161" transform="rotate(-0 49.87 60.124161)">120</text>
     </g>
    </g>
    <g id="ytick_8">
     <g id="line2d_14">
      <g>
       <use xlink:href="#m311f376a99" x="56.87" y="32.012556" style="stroke: #000000; stroke-width: 0.8"/>
      </g>
     </g>
     <g id="text_15">
      <text style="font: 10px 'DejaVu Sans', 'Bitstream Vera Sans', 'Computer Modern Sans Serif', 'Lucida Grande', 'Verdana', 'Geneva', 'Lucid', 'Arial', 'Helvetica', 'Avant Garde', sans-serif; text-anchor: end" x="49.87" y="35.811775" transform="rotate(-0 49.87 35.811775)">140</text>
     </g>
    </g>
    <g id="text_16">
     <text style="font: 10px 'DejaVu Sans', 'Bitstream Vera Sans', 'Computer Modern Sans Serif', 'Lucida Grande', 'Verdana', 'Geneva', 'Lucid', 'Arial', 'Helvetica', 'Avant Garde', sans-serif; text-anchor: middle" x="18.702813" y="110.42" transform="rotate(-90 18.702813 110.42)">power (uW)</text>
    </g>
   </g>
   <g id="line2d_15">
    <path d="M 77.738636 73.343612 
L 79.414832 62.403038 
L 81.091028 44.168749 
L 82.767223 132.908957 
L 84.443419 51.462465 
L 86.119615 62.403038 
L 87.795811 33.228176 
L 89.472006 109.81219 
L 91.148202 56.324942 
L 92.824398 100.087236 
L 94.500593 42.95313 
L 96.176789 29.581318 
L 97.852985 115.890287 
L 99.52918 67.265516 
L 101.205376 34.443795 
L 102.881572 40.521891 
L 104.557767 33.228176 
L 106.233963 46.599988 
L 107.910159 50.246846 
L 109.586355 39.306272 
L 111.26255 69.696754 
L 112.938746 32.012556 
L 114.614942 132.908957 
L 116.291137 137.771434 
L 117.967333 47.815607 
L 119.643529 72.127993 
L 121.319724 47.815607 
L 122.99592 55.109323 
L 124.672116 58.756181 
L 126.348311 30.796937 
L 128.024507 56.324942 
L 129.700703 61.187419 
L 131.376899 42.95313 
L 133.053094 76.99047 
L 134.72929 36.875034 
L 136.405486 41.737511 
L 138.081681 100.087236 
L 139.757877 72.127993 
L 141.434073 100.087236 
L 143.110268 55.109323 
L 144.786464 198.552398 
L 146.46266 49.031226 
L 148.138855 47.815607 
L 149.815051 32.012556 
L 151.491247 62.403038 
L 153.167442 34.443795 
L 154.843638 176.671251 
L 156.519834 63.618658 
L 158.19603 152.358865 
L 159.872225 152.358865 
L 161.548421 51.462465 
L 163.224617 69.696754 
L 164.900812 50.246846 
L 166.577008 176.671251 
L 168.253204 198.552398 
L 169.929399 40.521891 
L 171.605595 59.9718 
L 173.281791 64.834277 
L 174.957986 174.240012 
L 176.634182 55.109323 
L 178.310378 104.949713 
L 179.986574 67.265516 
L 181.662769 87.931043 
L 183.338965 19.856364 
L 185.015161 118.321525 
L 186.691356 68.481135 
L 188.367552 50.246846 
L 190.043748 70.912373 
L 191.719943 64.834277 
L 193.396139 80.637328 
L 195.072335 25.93446 
L 196.74853 56.324942 
L 198.424726 75.774851 
L 200.100922 67.265516 
L 201.777118 106.165333 
L 203.453313 64.834277 
L 205.129509 53.893703 
L 206.805705 45.384369 
L 208.4819 198.552398 
L 210.158096 68.481135 
L 211.834292 130.477718 
L 213.510487 42.95313 
L 215.186683 30.796937 
L 216.862879 176.671251 
L 218.539074 39.306272 
L 220.21527 81.852947 
L 221.891466 49.031226 
L 223.567662 53.893703 
L 225.243857 50.246846 
L 226.920053 149.927627 
L 228.596249 200.983636 
L 230.272444 69.696754 
L 231.94864 102.518475 
L 233.624836 49.031226 
L 235.301031 132.908957 
L 236.977227 75.774851 
L 238.653423 90.362282 
L 240.329618 63.618658 
L 242.005814 87.931043 
L 243.68201 73.343612 
L 245.358206 42.95313 
L 247.034401 55.109323 
L 248.710597 103.734094 
L 250.386793 198.552398 
L 252.062988 57.540561 
L 253.739184 44.168749 
L 255.41538 42.95313 
L 257.091575 44.168749 
L 258.767771 51.462465 
L 260.443967 40.521891 
L 262.120162 39.306272 
L 263.796358 90.362282 
L 265.472554 35.659414 
L 267.14875 45.384369 
L 268.824945 41.737511 
L 270.501141 47.815607 
L 272.177337 67.265516 
L 273.853532 55.109323 
L 275.529728 198.552398 
L 277.205924 45.384369 
L 278.882119 55.109323 
L 280.558315 66.049896 
L 282.234511 103.734094 
L 283.910706 52.678084 
L 285.586902 86.715424 
L 287.263098 51.462465 
L 288.939294 91.577901 
L 290.615489 174.240012 
L 292.291685 200.983636 
L 293.967881 34.443795 
L 295.644076 46.599988 
L 297.320272 35.659414 
L 298.996468 157.221342 
L 300.672663 179.102489 
L 302.348859 45.384369 
L 304.025055 84.284185 
L 305.70125 67.265516 
L 307.377446 70.912373 
L 309.053642 42.95313 
L 310.729838 63.618658 
L 312.406033 176.671251 
L 314.082229 49.031226 
L 315.758425 66.049896 
L 319.110816 29.581318 
L 320.787012 51.462465 
L 322.463207 151.143246 
L 324.139403 51.462465 
L 325.815599 30.796937 
L 327.491794 45.384369 
L 329.16799 115.890287 
L 330.844186 42.95313 
L 332.520382 51.462465 
L 334.196577 95.224759 
L 335.872773 42.95313 
L 337.548969 41.737511 
L 339.225164 61.187419 
L 340.90136 42.95313 
L 342.577556 52.678084 
L 344.253751 198.552398 
L 345.929947 38.090653 
L 347.606143 21.071983 
L 349.282338 174.240012 
L 350.958534 74.559231 
L 352.63473 23.503221 
L 354.310926 198.552398 
L 355.987121 74.559231 
L 357.663317 36.875034 
L 359.339513 45.384369 
L 361.015708 41.737511 
L 362.691904 49.031226 
L 364.3681 63.618658 
L 366.044295 114.674667 
L 367.720491 101.302855 
L 369.396687 58.756181 
L 371.072882 39.306272 
L 372.749078 198.552398 
L 374.425274 39.306272 
L 376.10147 50.246846 
L 377.777665 35.659414 
L 379.453861 149.927627 
L 381.130057 50.246846 
L 382.806252 79.421708 
L 384.482448 44.168749 
L 386.158644 91.577901 
L 387.834839 42.95313 
L 389.511035 137.771434 
L 391.187231 50.246846 
L 392.863426 57.540561 
L 394.539622 135.340195 
L 396.215818 42.95313 
L 397.892014 73.343612 
L 399.568209 73.343612 
L 401.244405 30.796937 
L 402.920601 33.228176 
L 404.596796 149.927627 
L 406.272992 52.678084 
L 407.949188 52.678084 
L 409.625383 121.968383 
L 411.301579 52.678084 
L 412.977775 102.518475 
L 414.65397 63.618658 
L 416.330166 51.462465 
L 418.006362 198.552398 
L 419.682558 56.324942 
L 421.358753 115.890287 
L 423.034949 36.875034 
L 424.711145 89.146663 
L 426.38734 198.552398 
L 428.063536 152.358865 
L 429.739732 66.049896 
L 431.415927 50.246846 
L 433.092123 135.340195 
L 434.768319 62.403038 
L 436.444514 149.927627 
L 438.12071 51.462465 
L 439.796906 114.674667 
L 441.473101 74.559231 
L 443.149297 41.737511 
L 444.825493 35.659414 
L 446.501689 149.927627 
L 448.177884 55.109323 
L 449.85408 44.168749 
L 451.530276 152.358865 
L 453.206471 174.240012 
L 454.882667 45.384369 
L 456.558863 67.265516 
L 458.235058 67.265516 
L 459.911254 53.893703 
L 463.263645 63.618658 
L 464.939841 36.875034 
L 466.616037 32.012556 
L 468.292233 53.893703 
L 469.968428 95.224759 
L 471.644624 41.737511 
L 473.32082 55.109323 
L 474.997015 35.659414 
L 476.673211 51.462465 
L 478.349407 72.127993 
L 480.025602 49.031226 
L 481.701798 33.228176 
L 483.377994 30.796937 
L 485.054189 19.856364 
L 486.730385 44.168749 
L 488.406581 152.358865 
L 490.082777 39.306272 
L 491.758972 46.599988 
L 493.435168 66.049896 
L 495.111364 130.477718 
L 495.111364 130.477718 
" clip-path="url(#p15d8ae741d)" style="fill: none; stroke: #99004d; stroke-width: 0.8; stroke-linecap: square"/>
   </g>
   <g id="patch_3">
    <path d="M 56.87 210.04 
L 56.87 10.8 
" style="fill: none; stroke: #000000; stroke-width: 0.8; stroke-linejoin: miter; stroke-linecap: square"/>
   </g>
   <g id="patch_4">
    <path d="M 515.98 210.04 
L 515.98 10.8 
" style="fill: none; stroke: #000000; stroke-width: 0.8; stroke-linejoin: miter; stroke-linecap: square"/>
   </g>
   <g id="patch_5">
    <path d="M 56.87 210.04 
L 515.98 210.04 
" style="fill: none; stroke: #000000; stroke-width: 0.8; stroke-linejoin: miter; stroke-linecap: square"/>
   </g>
   <g id="patch_6">
    <path d="M 56.87 10.8 
L 515.98 10.8 
" style="fill: none; stroke: #000000; stroke-width: 0.8; stroke-linejoin: miter; stroke-linecap: square"/>
   </g>
  </g>
  <g id="axes_2">
   <g id="matplotlib.axis_3">
    <g id="ytick_9">
     <g id="line2d_16">
      <defs>
       <path id="mc6fc1e1dad" d="M 0 0 
L 3.5 0 
" style="stroke: #000000; stroke-width: 0.8"/>
      </defs>
      <g>
       <use xlink:href="#mc6fc1e1dad" x="515.98" y="200.983636" style="stroke: #000000; stroke-width: 0.8"/>
      </g>
     </g>
     <g id="text_17">
      <text style="font: 10px 'DejaVu Sans', 'Bitstream Vera Sans', 'Computer Modern Sans Serif', 'Lucida Grande', 'Verdana', 'Geneva', 'Lucid', 'Arial', 'Helvetica', 'Avant Garde', sans-serif; text-anchor: start" x="522.98" y="204.782855" transform="rotate(-0 522.98 204.782855)">0.0</text>
     </g>
    </g>
    <g id="ytick_10">
     <g id="line2d_17">
      <g>
       <use xlink:href="#mc6fc1e1dad" x="515.98" y="178.342727" style="stroke: #000000; stroke-width: 0.8"/>
      </g>
     </g>
     <g id="text_18">
      <text style="font: 10px 'DejaVu Sans', 'Bitstream Vera Sans', 'Computer Modern Sans Serif', 'Lucida Grande', 'Verdana', 'Geneva', 'Lucid', 'Arial', 'Helvetica', 'Avant Garde', sans-serif; text-anchor: start" x="522.98" y="182.141946" transform="rotate(-0 522.98 182.141946)">2.5</text>
     </g>
    </g>
    <g id="ytick_11">
     <g id="line2d_18">
      <g>
       <use xlink:href="#mc6fc1e1dad" x="515.98" y="155.701818" style="stroke: #000000; stroke-width: 0.8"/>
      </g>
     </g>
     <g id="text_19">
      <text style="font: 10px 'DejaVu Sans', 'Bitstream Vera Sans', 'Computer Modern Sans Serif', 'Lucida Grande', 'Verdana', 'Geneva', 'Lucid', 'Arial', 'Helvetica', 'Avant Garde', sans-serif; text-anchor: start" x="522.98" y="159.501037" transform="rotate(-0 522.98 159.501037)">5.0</text>
     </g>
    </g>
    <g id="ytick_12">
     <g id="line2d_19">
      <g>
       <use xlink:href="#mc6fc1e1dad" x="515.98" y="133.060909" style="stroke: #000000; stroke-width: 0.8"/>
      </g>
     </g>
     <g id="text_20">
      <text style="font: 10px 'DejaVu Sans', 'Bitstream Vera Sans', 'Computer Modern Sans Serif', 'Lucida Grande', 'Verdana', 'Geneva', 'Lucid', 'Arial', 'Helvetica', 'Avant Garde', sans-serif; text-anchor: start" x="522.98" y="136.860128" transform="rotate(-0 522.98 136.860128)">7.5</text>
     </g>
    </g>
    <g id="ytick_13">
     <g id="line2d_20">
      <g>
       <use xlink:href="#mc6fc1e1dad" x="515.98" y="110.42" style="stroke: #000000; stroke-width: 0.8"/>
      </g>
     </g>
     <g id="text_21">
      <text style="font: 10px 'DejaVu Sans', 'Bitstream Vera Sans', 'Computer Modern Sans Serif', 'Lucida Grande', 'Verdana', 'Geneva', 'Lucid', 'Arial', 'Helvetica', 'Avant Garde', sans-serif; text-anchor: start" x="522.98" y="114.219219" transform="rotate(-0 522.98 114.219219)">10.0</text>
     </g>
    </g>
    <g id="ytick_14">
     <g id="line2d_21">
      <g>
       <use xlink:href="#mc6fc1e1dad" x="515.98" y="87.779091" style="stroke: #000000; stroke-width: 0.8"/>
      </g>
     </g>
     <g id="text_22">
      <text style="font: 10px 'DejaVu Sans', 'Bitstream Vera Sans', 'Computer Modern Sans Serif', 'Lucida Grande', 'Verdana', 'Geneva', 'Lucid', 'Arial', 'Helvetica', 'Avant Garde', sans-serif; text-anchor: start" x="522.98" y="91.57831" transform="rotate(-0 522.98 91.57831)">12.5</text>
     </g>
    </g>
    <g id="ytick_15">
     <g id="line2d_22">
      <g>
       <use xlink:href="#mc6fc1e1dad" x="515.98" y="65.138182" style="stroke: #000000; stroke-width: 0.8"/>
      </g>
     </g>
     <g id="text_23">
      <text style="font: 10px 'DejaVu Sans', 'Bitstream Vera Sans', 'Computer Modern Sans Serif', 'Lucida Grande', 'Verdana', 'Geneva', 'Lucid', 'Arial', 'Helvetica', 'Avant Garde', sans-serif; text-anchor: start" x="522.98" y="68.937401" transform="rotate(-0 522.98 68.937401)">15.0</text>
     </g>
    </g>
    <g id="ytick_16">
     <g id="line2d_23">
      <g>
       <use xlink:href="#mc6fc1e1dad" x="515.98" y="42.497273" style="stroke: #000000; stroke-width: 0.8"/>
      </g>
     </g>
     <g id="text_24">
      <text style="font: 10px 'DejaVu Sans', 'Bitstream Vera Sans', 'Computer Modern Sans Serif', 'Lucida Grande', 'Verdana', 'Geneva', 'Lucid', 'Arial', 'Helvetica', 'Avant Garde', sans-serif; text-anchor: start" x="522.98" y="46.296491" transform="rotate(-0 522.98 46.296491)">17.5</text>
     </g>
    </g>
    <g id="ytick_17">
     <g id="line2d_24">
      <g>
       <use xlink:href="#mc6fc1e1dad" x="515.98" y="19.856364" style="stroke: #000000; stroke-width: 0.8"/>
      </g>
     </g>
     <g id="text_25">
      <text style="font: 10px 'DejaVu Sans', 'Bitstream Vera Sans', 'Computer Modern Sans Serif', 'Lucida Grande', 'Verdana', 'Geneva', 'Lucid', 'Arial', 'Helvetica', 'Avant Garde', sans-serif; text-anchor: start" x="522.98" y="23.655582" transform="rotate(-0 522.98 23.655582)">20.0</text>
     </g>
    </g>
    <g id="text_26">
     <text style="font: 10px 'DejaVu Sans', 'Bitstream Vera Sans', 'Computer Modern Sans Serif', 'Lucida Grande', 'Verdana', 'Geneva', 'Lucid', 'Arial', 'Helvetica', 'Avant Garde', sans-serif; text-anchor: middle" x="562.844063" y="110.42" transform="rotate(-90 562.844063 110.42)">hw(data)</text>
    </g>
   </g>
   <g id="line2d_25">
    <path d="M 77.738636 83.250909 
L 79.414832 83.250909 
L 81.091028 56.081818 
L 82.767223 173.814545 
L 84.443419 92.307273 
L 86.119615 83.250909 
L 87.795811 47.025455 
L 89.472006 155.701818 
L 91.148202 110.42 
L 92.824398 146.645455 
L 94.500593 101.363636 
L 96.176789 47.025455 
L 97.852985 164.758182 
L 99.52918 92.307273 
L 101.205376 56.081818 
L 102.881572 65.138182 
L 104.557767 56.081818 
L 106.233963 74.194545 
L 107.910159 83.250909 
L 109.586355 47.025455 
L 111.26255 74.194545 
L 112.938746 19.856364 
L 114.614942 173.814545 
L 116.291137 173.814545 
L 117.967333 65.138182 
L 119.643529 92.307273 
L 121.319724 83.250909 
L 122.99592 37.969091 
L 124.672116 101.363636 
L 126.348311 37.969091 
L 128.024507 110.42 
L 129.700703 119.476364 
L 131.376899 92.307273 
L 133.053094 146.645455 
L 134.72929 56.081818 
L 136.405486 56.081818 
L 138.081681 146.645455 
L 139.757877 119.476364 
L 141.434073 155.701818 
L 143.110268 83.250909 
L 144.786464 200.983636 
L 146.46266 74.194545 
L 148.138855 83.250909 
L 149.815051 47.025455 
L 151.491247 101.363636 
L 153.167442 56.081818 
L 154.843638 191.927273 
L 156.519834 74.194545 
L 158.19603 182.870909 
L 159.872225 182.870909 
L 161.548421 37.969091 
L 163.224617 74.194545 
L 164.900812 47.025455 
L 166.577008 191.927273 
L 168.253204 200.983636 
L 169.929399 47.025455 
L 171.605595 119.476364 
L 173.281791 101.363636 
L 174.957986 191.927273 
L 176.634182 28.912727 
L 178.310378 146.645455 
L 179.986574 119.476364 
L 181.662769 128.532727 
L 183.338965 65.138182 
L 185.015161 164.758182 
L 186.691356 119.476364 
L 188.367552 47.025455 
L 190.043748 119.476364 
L 191.719943 110.42 
L 193.396139 119.476364 
L 195.072335 74.194545 
L 196.74853 110.42 
L 198.424726 119.476364 
L 200.100922 92.307273 
L 201.777118 146.645455 
L 203.453313 56.081818 
L 205.129509 101.363636 
L 206.805705 83.250909 
L 208.4819 200.983636 
L 210.158096 83.250909 
L 211.834292 173.814545 
L 213.510487 37.969091 
L 215.186683 47.025455 
L 216.862879 191.927273 
L 218.539074 65.138182 
L 220.21527 137.589091 
L 221.891466 37.969091 
L 223.567662 56.081818 
L 225.243857 65.138182 
L 226.920053 173.814545 
L 228.596249 200.983636 
L 230.272444 128.532727 
L 231.94864 146.645455 
L 233.624836 56.081818 
L 235.301031 173.814545 
L 236.977227 128.532727 
L 238.653423 146.645455 
L 240.329618 101.363636 
L 242.005814 146.645455 
L 243.68201 101.363636 
L 245.358206 19.856364 
L 247.034401 110.42 
L 250.386793 200.983636 
L 252.062988 47.025455 
L 253.739184 47.025455 
L 255.41538 56.081818 
L 257.091575 83.250909 
L 258.767771 56.081818 
L 260.443967 47.025455 
L 262.120162 65.138182 
L 263.796358 146.645455 
L 265.472554 74.194545 
L 267.14875 65.138182 
L 268.824945 74.194545 
L 270.501141 65.138182 
L 272.177337 101.363636 
L 273.853532 110.42 
L 275.529728 200.983636 
L 277.205924 83.250909 
L 280.558315 65.138182 
L 282.234511 155.701818 
L 283.910706 47.025455 
L 285.586902 128.532727 
L 287.263098 28.912727 
L 288.939294 146.645455 
L 290.615489 191.927273 
L 292.291685 200.983636 
L 293.967881 47.025455 
L 295.644076 74.194545 
L 297.320272 56.081818 
L 298.996468 182.870909 
L 300.672663 191.927273 
L 302.348859 92.307273 
L 304.025055 146.645455 
L 305.70125 56.081818 
L 307.377446 128.532727 
L 309.053642 92.307273 
L 310.729838 92.307273 
L 312.406033 191.927273 
L 314.082229 110.42 
L 315.758425 128.532727 
L 317.43462 83.250909 
L 319.110816 65.138182 
L 320.787012 56.081818 
L 322.463207 182.870909 
L 324.139403 56.081818 
L 325.815599 56.081818 
L 327.491794 83.250909 
L 329.16799 164.758182 
L 330.844186 74.194545 
L 332.520382 101.363636 
L 334.196577 137.589091 
L 335.872773 83.250909 
L 337.548969 101.363636 
L 339.225164 56.081818 
L 340.90136 65.138182 
L 342.577556 92.307273 
L 344.253751 200.983636 
L 345.929947 101.363636 
L 347.606143 65.138182 
L 349.282338 191.927273 
L 350.958534 101.363636 
L 352.63473 74.194545 
L 354.310926 200.983636 
L 355.987121 110.42 
L 357.663317 74.194545 
L 359.339513 83.250909 
L 361.015708 47.025455 
L 362.691904 110.42 
L 364.3681 47.025455 
L 366.044295 164.758182 
L 367.720491 155.701818 
L 369.396687 83.250909 
L 371.072882 56.081818 
L 372.749078 200.983636 
L 374.425274 83.250909 
L 376.10147 92.307273 
L 377.777665 74.194545 
L 379.453861 182.870909 
L 381.130057 83.250909 
L 382.806252 65.138182 
L 384.482448 56.081818 
L 386.158644 146.645455 
L 387.834839 56.081818 
L 389.511035 164.758182 
L 392.863426 56.081818 
L 394.539622 173.814545 
L 396.215818 47.025455 
L 397.892014 128.532727 
L 399.568209 119.476364 
L 401.244405 47.025455 
L 402.920601 65.138182 
L 404.596796 182.870909 
L 406.272992 56.081818 
L 407.949188 65.138182 
L 409.625383 164.758182 
L 411.301579 37.969091 
L 412.977775 146.645455 
L 414.65397 119.476364 
L 416.330166 47.025455 
L 418.006362 200.983636 
L 419.682558 47.025455 
L 421.358753 164.758182 
L 423.034949 65.138182 
L 424.711145 137.589091 
L 426.38734 200.983636 
L 428.063536 182.870909 
L 429.739732 110.42 
L 431.415927 92.307273 
L 433.092123 173.814545 
L 434.768319 128.532727 
L 436.444514 182.870909 
L 438.12071 83.250909 
L 439.796906 155.701818 
L 441.473101 65.138182 
L 443.149297 74.194545 
L 444.825493 65.138182 
L 446.501689 182.870909 
L 448.177884 74.194545 
L 449.85408 110.42 
L 451.530276 182.870909 
L 453.206471 191.927273 
L 454.882667 47.025455 
L 456.558863 101.363636 
L 458.235058 101.363636 
L 459.911254 47.025455 
L 461.58745 92.307273 
L 463.263645 101.363636 
L 466.616037 83.250909 
L 468.292233 101.363636 
L 469.968428 146.645455 
L 471.644624 74.194545 
L 473.32082 92.307273 
L 474.997015 56.081818 
L 476.673211 83.250909 
L 478.349407 83.250909 
L 480.025602 119.476364 
L 481.701798 74.194545 
L 483.377994 47.025455 
L 485.054189 28.912727 
L 486.730385 83.250909 
L 488.406581 182.870909 
L 490.082777 74.194545 
L 491.758972 92.307273 
L 493.435168 83.250909 
L 495.111364 173.814545 
L 495.111364 173.814545 
" clip-path="url(#p15d8ae741d)" style="fill: none; stroke: #235996; stroke-width: 0.8; stroke-linecap: square"/>
   </g>
   <g id="patch_7">
    <path d="M 56.87 210.04 
L 56.87 10.8 
" style="fill: none; stroke: #000000; stroke-width: 0.8; stroke-linejoin: miter; stroke-linecap: square"/>
   </g>
   <g id="patch_8">
    <path d="M 515.98 210.04 
L 515.98 10.8 
" style="fill: none; stroke: #000000; stroke-width: 0.8; stroke-linejoin: miter; stroke-linecap: square"/>
   </g>
   <g id="patch_9">
    <path d="M 56.87 210.04 
L 515.98 210.04 
" style="fill: none; stroke: #000000; stroke-width: 0.8; stroke-linejoin: miter; stroke-linecap: square"/>
   </g>
   <g id="patch_10">
    <path d="M 56.87 10.8 
L 515.98 10.8 
" style="fill: none; stroke: #000000; stroke-width: 0.8; stroke-linejoin: miter; stroke-linecap: square"/>
   </g>
   <g id="legend_1">
    <g id="patch_11">
     <path d="M 179.209125 43.4565 
L 393.640875 43.4565 
Q 396.520875 43.4565 396.520875 40.5765 
L 396.520875 20.88 
Q 396.520875 18 393.640875 18 
L 179.209125 18 
Q 176.329125 18 176.329125 20.88 
L 176.329125 40.5765 
Q 176.329125 43.4565 179.209125 43.4565 
z
" style="fill: #ffffff; opacity: 0.8; stroke: #000000; stroke-linejoin: miter"/>
    </g>
    <g id="line2d_26">
     <path d="M 182.089125 29.66175 
L 196.489125 29.66175 
L 210.889125 29.66175 
" style="fill: none; stroke: #99004d; stroke-width: 0.8; stroke-linecap: square"/>
    </g>
    <g id="text_27">
     <text style="font: 14.4px 'DejaVu Sans', 'Bitstream Vera Sans', 'Computer Modern Sans Serif', 'Lucida Grande', 'Verdana', 'Geneva', 'Lucid', 'Arial', 'Helvetica', 'Avant Garde', sans-serif; text-anchor: start" x="222.409125" y="34.70175" transform="rotate(-0 222.409125 34.70175)">power</text>
    </g>
    <g id="line2d_27">
     <path d="M 295.718625 29.66175 
L 310.118625 29.66175 
L 324.518625 29.66175 
" style="fill: none; stroke: #235996; stroke-width: 0.8; stroke-linecap: square"/>
    </g>
    <g id="text_28">
     <text style="font: 14.4px 'DejaVu Sans', 'Bitstream Vera Sans', 'Computer Modern Sans Serif', 'Lucida Grande', 'Verdana', 'Geneva', 'Lucid', 'Arial', 'Helvetica', 'Avant Garde', sans-serif; text-anchor: start" x="336.038625" y="34.70175" transform="rotate(-0 336.038625 34.70175)">hw(rs1)</text>
    </g>
   </g>
  </g>
 </g>
 <defs>
  <clipPath id="p15d8ae741d">
   <rect x="56.87" y="10.8" width="459.11" height="199.24"/>
  </clipPath>
 </defs>
</svg>
