<?xml version="1.0" encoding="utf-8" standalone="no"?>
<!DOCTYPE svg PUBLIC "-//W3C//DTD SVG 1.1//EN"
  "http://www.w3.org/Graphics/SVG/1.1/DTD/svg11.dtd">
<svg xmlns:xlink="http://www.w3.org/1999/xlink" width="576pt" height="252pt" viewBox="0 0 576 252" xmlns="http://www.w3.org/2000/svg" version="1.1">
 <metadata>
  <rdf:RDF xmlns:dc="http://purl.org/dc/elements/1.1/" xmlns:cc="http://creativecommons.org/ns#" xmlns:rdf="http://www.w3.org/1999/02/22-rdf-syntax-ns#">
   <cc:Work>
    <dc:type rdf:resource="http://purl.org/dc/dcmitype/StillImage"/>
    <dc:date>2023-12-04T21:08:49.937651</dc:date>
    <dc:format>image/svg+xml</dc:format>
    <dc:creator>
     <cc:Agent>
      <dc:title>Matplotlib v3.7.4, https://matplotlib.org/</dc:title>
     </cc:Agent>
    </dc:creator>
   </cc:Work>
  </rdf:RDF>
 </metadata>
 <defs>
  <style type="text/css">*{stroke-linejoin: round; stroke-linecap: butt}</style>
 </defs>
 <g id="figure_1">
  <g id="patch_1">
   <path d="M 0 252 
L 576 252 
L 576 0 
L 0 0 
z
" style="fill: #ffffff"/>
  </g>
  <g id="axes_1">
   <g id="patch_2">
    <path d="M 56.96 210.04 
L 525.43 210.04 
L 525.43 10.8 
L 56.96 10.8 
z
" style="fill: #ffffff"/>
   </g>
   <g id="matplotlib.axis_1">
    <g id="xtick_1">
     <g id="line2d_1">
      <defs>
       <path id="mb82d5ea1d7" d="M 0 0 
L 0 3.5 
" style="stroke: #000000; stroke-width: 0.8"/>
      </defs>
      <g>
       <use xlink:href="#mb82d5ea1d7" x="78.254091" y="210.04" style="stroke: #000000; stroke-width: 0.8"/>
      </g>
     </g>
     <g id="text_1">
      <text style="font: 10px 'DejaVu Sans', 'Bitstream Vera Sans', 'Computer Modern Sans Serif', 'Lucida Grande', 'Verdana', 'Geneva', 'Lucid', 'Arial', 'Helvetica', 'Avant Garde', sans-serif; text-anchor: middle" x="78.254091" y="224.638438" transform="rotate(-0 78.254091 224.638438)">0</text>
     </g>
    </g>
    <g id="xtick_2">
     <g id="line2d_2">
      <g>
       <use xlink:href="#mb82d5ea1d7" x="163.772528" y="210.04" style="stroke: #000000; stroke-width: 0.8"/>
      </g>
     </g>
     <g id="text_2">
      <text style="font: 10px 'DejaVu Sans', 'Bitstream Vera Sans', 'Computer Modern Sans Serif', 'Lucida Grande', 'Verdana', 'Geneva', 'Lucid', 'Arial', 'Helvetica', 'Avant Garde', sans-serif; text-anchor: middle" x="163.772528" y="224.638438" transform="rotate(-0 163.772528 224.638438)">50</text>
     </g>
    </g>
    <g id="xtick_3">
     <g id="line2d_3">
      <g>
       <use xlink:href="#mb82d5ea1d7" x="249.290966" y="210.04" style="stroke: #000000; stroke-width: 0.8"/>
      </g>
     </g>
     <g id="text_3">
      <text style="font: 10px 'DejaVu Sans', 'Bitstream Vera Sans', 'Computer Modern Sans Serif', 'Lucida Grande', 'Verdana', 'Geneva', 'Lucid', 'Arial', 'Helvetica', 'Avant Garde', sans-serif; text-anchor: middle" x="249.290966" y="224.638438" transform="rotate(-0 249.290966 224.638438)">100</text>
     </g>
    </g>
    <g id="xtick_4">
     <g id="line2d_4">
      <g>
       <use xlink:href="#mb82d5ea1d7" x="334.809403" y="210.04" style="stroke: #000000; stroke-width: 0.8"/>
      </g>
     </g>
     <g id="text_4">
      <text style="font: 10px 'DejaVu Sans', 'Bitstream Vera Sans', 'Computer Modern Sans Serif', 'Lucida Grande', 'Verdana', 'Geneva', 'Lucid', 'Arial', 'Helvetica', 'Avant Garde', sans-serif; text-anchor: middle" x="334.809403" y="224.638438" transform="rotate(-0 334.809403 224.638438)">150</text>
     </g>
    </g>
    <g id="xtick_5">
     <g id="line2d_5">
      <g>
       <use xlink:href="#mb82d5ea1d7" x="420.32784" y="210.04" style="stroke: #000000; stroke-width: 0.8"/>
      </g>
     </g>
     <g id="text_5">
      <text style="font: 10px 'DejaVu Sans', 'Bitstream Vera Sans', 'Computer Modern Sans Serif', 'Lucida Grande', 'Verdana', 'Geneva', 'Lucid', 'Arial', 'Helvetica', 'Avant Garde', sans-serif; text-anchor: middle" x="420.32784" y="224.638438" transform="rotate(-0 420.32784 224.638438)">200</text>
     </g>
    </g>
    <g id="xtick_6">
     <g id="line2d_6">
      <g>
       <use xlink:href="#mb82d5ea1d7" x="505.846278" y="210.04" style="stroke: #000000; stroke-width: 0.8"/>
      </g>
     </g>
     <g id="text_6">
      <text style="font: 10px 'DejaVu Sans', 'Bitstream Vera Sans', 'Computer Modern Sans Serif', 'Lucida Grande', 'Verdana', 'Geneva', 'Lucid', 'Arial', 'Helvetica', 'Avant Garde', sans-serif; text-anchor: middle" x="505.846278" y="224.638438" transform="rotate(-0 505.846278 224.638438)">250</text>
     </g>
    </g>
    <g id="text_7">
     <text style="font: 10px 'DejaVu Sans', 'Bitstream Vera Sans', 'Computer Modern Sans Serif', 'Lucida Grande', 'Verdana', 'Geneva', 'Lucid', 'Arial', 'Helvetica', 'Avant Garde', sans-serif; text-anchor: middle" x="291.195" y="238.316563" transform="rotate(-0 291.195 238.316563)">Cycles</text>
    </g>
   </g>
   <g id="matplotlib.axis_2">
    <g id="ytick_1">
     <g id="line2d_7">
      <defs>
       <path id="m8216e13038" d="M 0 0 
L -3.5 0 
" style="stroke: #000000; stroke-width: 0.8"/>
      </defs>
      <g>
       <use xlink:href="#m8216e13038" x="56.96" y="202.144709" style="stroke: #000000; stroke-width: 0.8"/>
      </g>
     </g>
     <g id="text_8">
      <text style="font: 10px 'DejaVu Sans', 'Bitstream Vera Sans', 'Computer Modern Sans Serif', 'Lucida Grande', 'Verdana', 'Geneva', 'Lucid', 'Arial', 'Helvetica', 'Avant Garde', sans-serif; text-anchor: end" x="49.96" y="205.943927" transform="rotate(-0 49.96 205.943927)">0</text>
     </g>
    </g>
    <g id="ytick_2">
     <g id="line2d_8">
      <g>
       <use xlink:href="#m8216e13038" x="56.96" y="178.923263" style="stroke: #000000; stroke-width: 0.8"/>
      </g>
     </g>
     <g id="text_9">
      <text style="font: 10px 'DejaVu Sans', 'Bitstream Vera Sans', 'Computer Modern Sans Serif', 'Lucida Grande', 'Verdana', 'Geneva', 'Lucid', 'Arial', 'Helvetica', 'Avant Garde', sans-serif; text-anchor: end" x="49.96" y="182.722482" transform="rotate(-0 49.96 182.722482)">20</text>
     </g>
    </g>
    <g id="ytick_3">
     <g id="line2d_9">
      <g>
       <use xlink:href="#m8216e13038" x="56.96" y="155.701818" style="stroke: #000000; stroke-width: 0.8"/>
      </g>
     </g>
     <g id="text_10">
      <text style="font: 10px 'DejaVu Sans', 'Bitstream Vera Sans', 'Computer Modern Sans Serif', 'Lucida Grande', 'Verdana', 'Geneva', 'Lucid', 'Arial', 'Helvetica', 'Avant Garde', sans-serif; text-anchor: end" x="49.96" y="159.501037" transform="rotate(-0 49.96 159.501037)">40</text>
     </g>
    </g>
    <g id="ytick_4">
     <g id="line2d_10">
      <g>
       <use xlink:href="#m8216e13038" x="56.96" y="132.480373" style="stroke: #000000; stroke-width: 0.8"/>
      </g>
     </g>
     <g id="text_11">
      <text style="font: 10px 'DejaVu Sans', 'Bitstream Vera Sans', 'Computer Modern Sans Serif', 'Lucida Grande', 'Verdana', 'Geneva', 'Lucid', 'Arial', 'Helvetica', 'Avant Garde', sans-serif; text-anchor: end" x="49.96" y="136.279592" transform="rotate(-0 49.96 136.279592)">60</text>
     </g>
    </g>
    <g id="ytick_5">
     <g id="line2d_11">
      <g>
       <use xlink:href="#m8216e13038" x="56.96" y="109.258928" style="stroke: #000000; stroke-width: 0.8"/>
      </g>
     </g>
     <g id="text_12">
      <text style="font: 10px 'DejaVu Sans', 'Bitstream Vera Sans', 'Computer Modern Sans Serif', 'Lucida Grande', 'Verdana', 'Geneva', 'Lucid', 'Arial', 'Helvetica', 'Avant Garde', sans-serif; text-anchor: end" x="49.96" y="113.058146" transform="rotate(-0 49.96 113.058146)">80</text>
     </g>
    </g>
    <g id="ytick_6">
     <g id="line2d_12">
      <g>
       <use xlink:href="#m8216e13038" x="56.96" y="86.037483" style="stroke: #000000; stroke-width: 0.8"/>
      </g>
     </g>
     <g id="text_13">
      <text style="font: 10px 'DejaVu Sans', 'Bitstream Vera Sans', 'Computer Modern Sans Serif', 'Lucida Grande', 'Verdana', 'Geneva', 'Lucid', 'Arial', 'Helvetica', 'Avant Garde', sans-serif; text-anchor: end" x="49.96" y="89.836701" transform="rotate(-0 49.96 89.836701)">100</text>
     </g>
    </g>
    <g id="ytick_7">
     <g id="line2d_13">
      <g>
       <use xlink:href="#m8216e13038" x="56.96" y="62.816037" style="stroke: #000000; stroke-width: 0.8"/>
      </g>
     </g>
     <g id="text_14">
      <text style="font: 10px 'DejaVu Sans', 'Bitstream Vera Sans', 'Computer Modern Sans Serif', 'Lucida Grande', 'Verdana', 'Geneva', 'Lucid', 'Arial', 'Helvetica', 'Avant Garde', sans-serif; text-anchor: end" x="49.96" y="66.615256" transform="rotate(-0 49.96 66.615256)">120</text>
     </g>
    </g>
    <g id="ytick_8">
     <g id="line2d_14">
      <g>
       <use xlink:href="#m8216e13038" x="56.96" y="39.594592" style="stroke: #000000; stroke-width: 0.8"/>
      </g>
     </g>
     <g id="text_15">
      <text style="font: 10px 'DejaVu Sans', 'Bitstream Vera Sans', 'Computer Modern Sans Serif', 'Lucida Grande', 'Verdana', 'Geneva', 'Lucid', 'Arial', 'Helvetica', 'Avant Garde', sans-serif; text-anchor: end" x="49.96" y="43.393811" transform="rotate(-0 49.96 43.393811)">140</text>
     </g>
    </g>
    <g id="ytick_9">
     <g id="line2d_15">
      <g>
       <use xlink:href="#m8216e13038" x="56.96" y="16.373147" style="stroke: #000000; stroke-width: 0.8"/>
      </g>
     </g>
     <g id="text_16">
      <text style="font: 10px 'DejaVu Sans', 'Bitstream Vera Sans', 'Computer Modern Sans Serif', 'Lucida Grande', 'Verdana', 'Geneva', 'Lucid', 'Arial', 'Helvetica', 'Avant Garde', sans-serif; text-anchor: end" x="49.96" y="20.172366" transform="rotate(-0 49.96 20.172366)">160</text>
     </g>
    </g>
    <g id="text_17">
     <text style="font: 10px 'DejaVu Sans', 'Bitstream Vera Sans', 'Computer Modern Sans Serif', 'Lucida Grande', 'Verdana', 'Geneva', 'Lucid', 'Arial', 'Helvetica', 'Avant Garde', sans-serif; text-anchor: middle" x="18.792813" y="110.42" transform="rotate(-90 18.792813 110.42)">power (uW)</text>
    </g>
   </g>
   <g id="line2d_16">
    <path d="M 78.254091 61.654965 
L 79.96446 57.010676 
L 81.674828 48.88317 
L 83.385197 83.715338 
L 85.095566 74.42676 
L 86.805935 26.822797 
L 88.516303 26.822797 
L 90.226672 76.748904 
L 91.937041 82.554266 
L 93.64741 52.366387 
L 95.357778 53.527459 
L 97.068147 62.816037 
L 98.778516 33.789231 
L 100.488885 175.440047 
L 102.199253 95.326061 
L 103.909622 154.540746 
L 105.619991 57.010676 
L 107.33036 69.782471 
L 109.040728 53.527459 
L 110.751097 177.762191 
L 112.461466 77.909977 
L 114.171835 60.493893 
L 115.882203 103.453566 
L 117.592572 72.104615 
L 119.302941 30.306014 
L 121.01331 198.661492 
L 122.723678 61.654965 
L 124.434047 74.42676 
L 126.144416 40.755664 
L 127.854785 53.527459 
L 129.565153 44.238881 
L 131.275522 66.299254 
L 132.985891 47.722098 
L 134.69626 58.171748 
L 136.406628 63.97711 
L 138.116997 175.440047 
L 139.827366 53.527459 
L 141.537735 51.205315 
L 143.248103 61.654965 
L 144.958472 68.621399 
L 146.668841 52.366387 
L 148.37921 53.527459 
L 150.089578 74.42676 
L 151.799947 87.198555 
L 153.510316 67.460326 
L 155.220685 87.198555 
L 156.931053 39.594592 
L 158.641422 131.319301 
L 160.351791 57.010676 
L 162.06216 51.205315 
L 163.772528 79.071049 
L 165.482897 52.366387 
L 167.193266 34.950303 
L 168.903635 65.138182 
L 170.614003 87.198555 
L 172.324372 63.97711 
L 174.034741 57.010676 
L 175.74511 79.071049 
L 177.455478 182.40648 
L 179.165847 70.943543 
L 180.876216 44.238881 
L 182.586585 145.252168 
L 184.296953 52.366387 
L 186.007322 82.554266 
L 187.717691 57.010676 
L 189.42806 48.88317 
L 191.138428 46.561026 
L 192.848797 200.983636 
L 194.559166 27.983869 
L 196.269535 106.936783 
L 197.979903 53.527459 
L 199.690272 50.044242 
L 201.400641 177.762191 
L 203.111009 99.97035 
L 204.821378 112.742145 
L 206.531747 177.762191 
L 208.242116 40.755664 
L 209.952484 41.916737 
L 211.662853 137.124662 
L 213.373222 68.621399 
L 215.083591 117.386434 
L 216.793959 27.983869 
L 218.504328 88.359627 
L 220.214697 37.272448 
L 221.925066 54.688531 
L 223.635434 104.614639 
L 225.345803 120.86965 
L 227.056172 47.722098 
L 228.766541 36.111375 
L 230.476909 95.326061 
L 232.187278 77.909977 
L 233.897647 91.842844 
L 235.608016 46.561026 
L 237.318384 70.943543 
L 239.028753 58.171748 
L 240.739122 63.97711 
L 242.449491 72.104615 
L 244.159859 113.903217 
L 245.870228 74.42676 
L 247.580597 77.909977 
L 249.290966 55.849604 
L 251.001334 163.829324 
L 252.711703 77.909977 
L 254.422072 67.460326 
L 256.132441 65.138182 
L 257.842809 158.023963 
L 259.553178 69.782471 
L 261.263547 57.010676 
L 262.973916 58.171748 
L 264.684284 40.755664 
L 266.394653 50.044242 
L 268.105022 50.044242 
L 269.815391 63.97711 
L 271.525759 37.272448 
L 273.236128 55.849604 
L 274.946497 58.171748 
L 276.656866 48.88317 
L 278.367234 52.366387 
L 280.077603 61.654965 
L 281.787972 67.460326 
L 283.498341 120.86965 
L 285.208709 83.715338 
L 286.919078 51.205315 
L 288.629447 81.393193 
L 290.339816 94.164988 
L 292.050184 200.983636 
L 293.760553 70.943543 
L 295.470922 86.037483 
L 297.181291 46.561026 
L 298.891659 101.131422 
L 300.602028 81.393193 
L 302.312397 57.010676 
L 304.022766 65.138182 
L 305.733134 57.010676 
L 307.443503 66.299254 
L 309.153872 72.104615 
L 310.864241 127.836084 
L 312.574609 55.849604 
L 314.284978 69.782471 
L 315.995347 75.587832 
L 317.705716 115.064289 
L 319.416084 116.225361 
L 321.126453 47.722098 
L 322.836822 45.399953 
L 324.547191 62.816037 
L 326.257559 83.715338 
L 327.967928 73.265688 
L 329.678297 76.748904 
L 331.388666 43.077809 
L 333.099034 48.88317 
L 334.809403 104.614639 
L 336.519772 131.319301 
L 338.230141 61.654965 
L 339.940509 200.983636 
L 341.650878 133.641445 
L 343.361247 44.238881 
L 345.071616 83.715338 
L 346.781984 53.527459 
L 348.492353 57.010676 
L 350.202722 59.332821 
L 351.913091 55.849604 
L 353.623459 116.225361 
L 355.333828 52.366387 
L 357.044197 68.621399 
L 358.754566 87.198555 
L 360.464934 79.071049 
L 362.175303 55.849604 
L 363.885672 54.688531 
L 365.596041 61.654965 
L 367.306409 200.983636 
L 369.016778 50.044242 
L 370.727147 31.467086 
L 372.437516 118.547506 
L 374.147884 74.42676 
L 375.858253 70.943543 
L 377.568622 53.527459 
L 379.278991 45.399953 
L 380.989359 51.205315 
L 382.699728 76.748904 
L 384.410097 43.077809 
L 386.120465 66.299254 
L 387.830834 198.661492 
L 389.541203 43.077809 
L 391.251572 52.366387 
L 392.96194 198.661492 
L 394.672309 112.742145 
L 396.382678 88.359627 
L 398.093047 158.023963 
L 399.803415 84.87641 
L 401.513784 161.507179 
L 403.224153 58.171748 
L 404.934522 68.621399 
L 406.64489 91.842844 
L 408.355259 61.654965 
L 410.065628 33.789231 
L 411.775997 161.507179 
L 413.486365 91.842844 
L 415.196734 54.688531 
L 416.907103 66.299254 
L 418.617472 62.816037 
L 420.32784 44.238881 
L 422.038209 36.111375 
L 423.748578 87.198555 
L 425.458947 125.513939 
L 427.169315 62.816037 
L 428.879684 39.594592 
L 430.590053 51.205315 
L 432.300422 55.849604 
L 434.01079 70.943543 
L 435.721159 84.87641 
L 437.431528 77.909977 
L 439.141897 81.393193 
L 440.852265 61.654965 
L 442.562634 61.654965 
L 445.983372 66.299254 
L 447.69374 61.654965 
L 449.404109 154.540746 
L 451.114478 69.782471 
L 452.824847 59.332821 
L 454.535215 58.171748 
L 456.245584 103.453566 
L 457.955953 46.561026 
L 459.666322 154.540746 
L 461.37669 76.748904 
L 463.087059 59.332821 
L 464.797428 69.782471 
L 466.507797 58.171748 
L 468.218165 34.950303 
L 469.928534 53.527459 
L 471.638903 116.225361 
L 473.349272 31.467086 
L 475.05964 61.654965 
L 476.770009 144.091096 
L 478.480378 50.044242 
L 480.190747 62.816037 
L 481.901115 84.87641 
L 483.611484 55.849604 
L 485.321853 45.399953 
L 487.032222 69.782471 
L 488.74259 91.842844 
L 490.452959 63.97711 
L 492.163328 58.171748 
L 493.873697 57.010676 
L 495.584065 25.661725 
L 497.294434 67.460326 
L 499.004803 47.722098 
L 500.715172 45.399953 
L 502.42554 44.238881 
L 504.135909 19.856364 
L 504.135909 19.856364 
" clip-path="url(#p1a2ec4311a)" style="fill: none; stroke: #99004d; stroke-width: 0.8; stroke-linecap: square"/>
   </g>
   <g id="patch_3">
    <path d="M 56.96 210.04 
L 56.96 10.8 
" style="fill: none; stroke: #000000; stroke-width: 0.8; stroke-linejoin: miter; stroke-linecap: square"/>
   </g>
   <g id="patch_4">
    <path d="M 525.43 210.04 
L 525.43 10.8 
" style="fill: none; stroke: #000000; stroke-width: 0.8; stroke-linejoin: miter; stroke-linecap: square"/>
   </g>
   <g id="patch_5">
    <path d="M 56.96 210.04 
L 525.43 210.04 
" style="fill: none; stroke: #000000; stroke-width: 0.8; stroke-linejoin: miter; stroke-linecap: square"/>
   </g>
   <g id="patch_6">
    <path d="M 56.96 10.8 
L 525.43 10.8 
" style="fill: none; stroke: #000000; stroke-width: 0.8; stroke-linejoin: miter; stroke-linecap: square"/>
   </g>
  </g>
  <g id="axes_2">
   <g id="matplotlib.axis_3">
    <g id="ytick_10">
     <g id="line2d_17">
      <defs>
       <path id="m055308c42d" d="M 0 0 
L 3.5 0 
" style="stroke: #000000; stroke-width: 0.8"/>
      </defs>
      <g>
       <use xlink:href="#m055308c42d" x="525.43" y="200.983636" style="stroke: #000000; stroke-width: 0.8"/>
      </g>
     </g>
     <g id="text_18">
      <text style="font: 10px 'DejaVu Sans', 'Bitstream Vera Sans', 'Computer Modern Sans Serif', 'Lucida Grande', 'Verdana', 'Geneva', 'Lucid', 'Arial', 'Helvetica', 'Avant Garde', sans-serif; text-anchor: start" x="532.43" y="204.782855" transform="rotate(-0 532.43 204.782855)">0</text>
     </g>
    </g>
    <g id="ytick_11">
     <g id="line2d_18">
      <g>
       <use xlink:href="#m055308c42d" x="525.43" y="159.818347" style="stroke: #000000; stroke-width: 0.8"/>
      </g>
     </g>
     <g id="text_19">
      <text style="font: 10px 'DejaVu Sans', 'Bitstream Vera Sans', 'Computer Modern Sans Serif', 'Lucida Grande', 'Verdana', 'Geneva', 'Lucid', 'Arial', 'Helvetica', 'Avant Garde', sans-serif; text-anchor: start" x="532.43" y="163.617566" transform="rotate(-0 532.43 163.617566)">5</text>
     </g>
    </g>
    <g id="ytick_12">
     <g id="line2d_19">
      <g>
       <use xlink:href="#m055308c42d" x="525.43" y="118.653058" style="stroke: #000000; stroke-width: 0.8"/>
      </g>
     </g>
     <g id="text_20">
      <text style="font: 10px 'DejaVu Sans', 'Bitstream Vera Sans', 'Computer Modern Sans Serif', 'Lucida Grande', 'Verdana', 'Geneva', 'Lucid', 'Arial', 'Helvetica', 'Avant Garde', sans-serif; text-anchor: start" x="532.43" y="122.452277" transform="rotate(-0 532.43 122.452277)">10</text>
     </g>
    </g>
    <g id="ytick_13">
     <g id="line2d_20">
      <g>
       <use xlink:href="#m055308c42d" x="525.43" y="77.487769" style="stroke: #000000; stroke-width: 0.8"/>
      </g>
     </g>
     <g id="text_21">
      <text style="font: 10px 'DejaVu Sans', 'Bitstream Vera Sans', 'Computer Modern Sans Serif', 'Lucida Grande', 'Verdana', 'Geneva', 'Lucid', 'Arial', 'Helvetica', 'Avant Garde', sans-serif; text-anchor: start" x="532.43" y="81.286987" transform="rotate(-0 532.43 81.286987)">15</text>
     </g>
    </g>
    <g id="ytick_14">
     <g id="line2d_21">
      <g>
       <use xlink:href="#m055308c42d" x="525.43" y="36.322479" style="stroke: #000000; stroke-width: 0.8"/>
      </g>
     </g>
     <g id="text_22">
      <text style="font: 10px 'DejaVu Sans', 'Bitstream Vera Sans', 'Computer Modern Sans Serif', 'Lucida Grande', 'Verdana', 'Geneva', 'Lucid', 'Arial', 'Helvetica', 'Avant Garde', sans-serif; text-anchor: start" x="532.43" y="40.121698" transform="rotate(-0 532.43 40.121698)">20</text>
     </g>
    </g>
    <g id="text_23">
     <text style="font: 10px 'DejaVu Sans', 'Bitstream Vera Sans', 'Computer Modern Sans Serif', 'Lucida Grande', 'Verdana', 'Geneva', 'Lucid', 'Arial', 'Helvetica', 'Avant Garde', sans-serif; text-anchor: middle" x="562.753438" y="110.42" transform="rotate(-90 562.753438 110.42)">hw(data)</text>
    </g>
   </g>
   <g id="line2d_22">
    <path d="M 78.254091 61.021653 
L 79.96446 44.555537 
L 81.674828 85.720826 
L 83.385197 110.42 
L 85.095566 102.186942 
L 86.805935 61.021653 
L 88.516303 44.555537 
L 90.226672 61.021653 
L 91.937041 135.119174 
L 93.64741 85.720826 
L 95.357778 85.720826 
L 97.068147 93.953884 
L 98.778516 61.021653 
L 100.488885 192.750579 
L 102.199253 126.886116 
L 103.909622 184.517521 
L 105.619991 118.653058 
L 107.33036 118.653058 
L 109.040728 77.487769 
L 110.751097 192.750579 
L 112.461466 135.119174 
L 114.171835 61.021653 
L 115.882203 159.818347 
L 117.592572 135.119174 
L 119.302941 61.021653 
L 121.01331 200.983636 
L 122.723678 135.119174 
L 124.434047 118.653058 
L 126.144416 69.254711 
L 127.854785 93.953884 
L 131.275522 93.953884 
L 132.985891 69.254711 
L 134.69626 85.720826 
L 136.406628 85.720826 
L 138.116997 192.750579 
L 139.827366 93.953884 
L 141.537735 93.953884 
L 143.248103 85.720826 
L 144.958472 118.653058 
L 146.668841 52.788595 
L 148.37921 77.487769 
L 150.089578 135.119174 
L 151.799947 135.119174 
L 153.510316 93.953884 
L 155.220685 126.886116 
L 156.931053 52.788595 
L 158.641422 176.284463 
L 160.351791 52.788595 
L 162.06216 52.788595 
L 163.772528 110.42 
L 167.193266 93.953884 
L 168.903635 110.42 
L 170.614003 135.119174 
L 172.324372 118.653058 
L 174.034741 77.487769 
L 175.74511 61.021653 
L 177.455478 192.750579 
L 179.165847 118.653058 
L 180.876216 61.021653 
L 182.586585 176.284463 
L 184.296953 93.953884 
L 186.007322 143.352231 
L 189.42806 93.953884 
L 191.138428 52.788595 
L 192.848797 200.983636 
L 194.559166 85.720826 
L 196.269535 159.818347 
L 197.979903 93.953884 
L 199.690272 110.42 
L 201.400641 192.750579 
L 203.111009 159.818347 
L 204.821378 159.818347 
L 206.531747 192.750579 
L 208.242116 69.254711 
L 209.952484 69.254711 
L 211.662853 176.284463 
L 213.373222 110.42 
L 215.083591 168.051405 
L 216.793959 36.322479 
L 218.504328 143.352231 
L 220.214697 85.720826 
L 221.925066 61.021653 
L 223.635434 159.818347 
L 225.345803 168.051405 
L 227.056172 69.254711 
L 228.766541 52.788595 
L 230.476909 151.585289 
L 232.187278 126.886116 
L 233.897647 143.352231 
L 235.608016 69.254711 
L 237.318384 118.653058 
L 239.028753 102.186942 
L 240.739122 93.953884 
L 242.449491 52.788595 
L 244.159859 159.818347 
L 245.870228 118.653058 
L 247.580597 143.352231 
L 249.290966 52.788595 
L 251.001334 184.517521 
L 252.711703 135.119174 
L 254.422072 69.254711 
L 256.132441 77.487769 
L 257.842809 184.517521 
L 261.263547 69.254711 
L 262.973916 93.953884 
L 264.684284 77.487769 
L 266.394653 118.653058 
L 268.105022 77.487769 
L 269.815391 69.254711 
L 271.525759 69.254711 
L 273.236128 93.953884 
L 274.946497 77.487769 
L 276.656866 69.254711 
L 278.367234 102.186942 
L 280.077603 126.886116 
L 281.787972 61.021653 
L 283.498341 168.051405 
L 285.208709 143.352231 
L 286.919078 126.886116 
L 288.629447 143.352231 
L 290.339816 135.119174 
L 292.050184 200.983636 
L 293.760553 93.953884 
L 295.470922 143.352231 
L 297.181291 85.720826 
L 298.891659 143.352231 
L 300.602028 118.653058 
L 302.312397 61.021653 
L 304.022766 126.886116 
L 305.733134 77.487769 
L 307.443503 135.119174 
L 309.153872 69.254711 
L 310.864241 168.051405 
L 312.574609 85.720826 
L 314.284978 135.119174 
L 315.995347 126.886116 
L 317.705716 168.051405 
L 319.416084 159.818347 
L 321.126453 77.487769 
L 322.836822 61.021653 
L 324.547191 110.42 
L 326.257559 135.119174 
L 327.967928 110.42 
L 329.678297 77.487769 
L 331.388666 69.254711 
L 333.099034 69.254711 
L 334.809403 159.818347 
L 336.519772 176.284463 
L 338.230141 52.788595 
L 339.940509 200.983636 
L 341.650878 176.284463 
L 343.361247 61.021653 
L 345.071616 135.119174 
L 346.781984 77.487769 
L 348.492353 110.42 
L 350.202722 77.487769 
L 351.913091 61.021653 
L 353.623459 159.818347 
L 355.333828 110.42 
L 357.044197 135.119174 
L 358.754566 143.352231 
L 360.464934 135.119174 
L 362.175303 52.788595 
L 363.885672 77.487769 
L 365.596041 61.021653 
L 367.306409 200.983636 
L 369.016778 69.254711 
L 370.727147 44.555537 
L 372.437516 168.051405 
L 374.147884 110.42 
L 377.568622 77.487769 
L 379.278991 77.487769 
L 380.989359 110.42 
L 382.699728 126.886116 
L 384.410097 93.953884 
L 386.120465 135.119174 
L 387.830834 200.983636 
L 389.541203 77.487769 
L 391.251572 77.487769 
L 392.96194 200.983636 
L 394.672309 159.818347 
L 396.382678 110.42 
L 398.093047 184.517521 
L 399.803415 110.42 
L 401.513784 184.517521 
L 403.224153 69.254711 
L 404.934522 135.119174 
L 406.64489 151.585289 
L 408.355259 93.953884 
L 410.065628 44.555537 
L 411.775997 184.517521 
L 413.486365 151.585289 
L 415.196734 110.42 
L 416.907103 102.186942 
L 418.617472 118.653058 
L 420.32784 61.021653 
L 422.038209 61.021653 
L 423.748578 135.119174 
L 425.458947 168.051405 
L 427.169315 69.254711 
L 428.879684 93.953884 
L 430.590053 77.487769 
L 432.300422 77.487769 
L 434.01079 110.42 
L 435.721159 151.585289 
L 437.431528 110.42 
L 439.141897 143.352231 
L 440.852265 126.886116 
L 444.273003 126.886116 
L 445.983372 77.487769 
L 447.69374 102.186942 
L 449.404109 184.517521 
L 451.114478 77.487769 
L 452.824847 93.953884 
L 454.535215 93.953884 
L 456.245584 159.818347 
L 457.955953 61.021653 
L 459.666322 184.517521 
L 461.37669 126.886116 
L 463.087059 77.487769 
L 464.797428 126.886116 
L 466.507797 102.186942 
L 468.218165 61.021653 
L 469.928534 77.487769 
L 471.638903 168.051405 
L 473.349272 85.720826 
L 475.05964 85.720826 
L 476.770009 176.284463 
L 478.480378 118.653058 
L 480.190747 110.42 
L 481.901115 69.254711 
L 483.611484 93.953884 
L 487.032222 110.42 
L 488.74259 143.352231 
L 490.452959 126.886116 
L 492.163328 77.487769 
L 493.873697 85.720826 
L 495.584065 19.856364 
L 497.294434 52.788595 
L 499.004803 61.021653 
L 500.715172 102.186942 
L 502.42554 93.953884 
L 504.135909 52.788595 
L 504.135909 52.788595 
" clip-path="url(#p1a2ec4311a)" style="fill: none; stroke: #235996; stroke-width: 0.8; stroke-linecap: square"/>
   </g>
   <g id="patch_7">
    <path d="M 56.96 210.04 
L 56.96 10.8 
" style="fill: none; stroke: #000000; stroke-width: 0.8; stroke-linejoin: miter; stroke-linecap: square"/>
   </g>
   <g id="patch_8">
    <path d="M 525.43 210.04 
L 525.43 10.8 
" style="fill: none; stroke: #000000; stroke-width: 0.8; stroke-linejoin: miter; stroke-linecap: square"/>
   </g>
   <g id="patch_9">
    <path d="M 56.96 210.04 
L 525.43 210.04 
" style="fill: none; stroke: #000000; stroke-width: 0.8; stroke-linejoin: miter; stroke-linecap: square"/>
   </g>
   <g id="patch_10">
    <path d="M 56.96 10.8 
L 525.43 10.8 
" style="fill: none; stroke: #000000; stroke-width: 0.8; stroke-linejoin: miter; stroke-linecap: square"/>
   </g>
   <g id="legend_1">
    <g id="patch_11">
     <path d="M 183.979125 43.4565 
L 398.410875 43.4565 
Q 401.290875 43.4565 401.290875 40.5765 
L 401.290875 20.88 
Q 401.290875 18 398.410875 18 
L 183.979125 18 
Q 181.099125 18 181.099125 20.88 
L 181.099125 40.5765 
Q 181.099125 43.4565 183.979125 43.4565 
z
" style="fill: #ffffff; opacity: 0.8; stroke: #000000; stroke-linejoin: miter"/>
    </g>
    <g id="line2d_23">
     <path d="M 186.859125 29.66175 
L 201.259125 29.66175 
L 215.659125 29.66175 
" style="fill: none; stroke: #99004d; stroke-width: 0.8; stroke-linecap: square"/>
    </g>
    <g id="text_24">
     <text style="font: 14.4px 'DejaVu Sans', 'Bitstream Vera Sans', 'Computer Modern Sans Serif', 'Lucida Grande', 'Verdana', 'Geneva', 'Lucid', 'Arial', 'Helvetica', 'Avant Garde', sans-serif; text-anchor: start" x="227.179125" y="34.70175" transform="rotate(-0 227.179125 34.70175)">power</text>
    </g>
    <g id="line2d_24">
     <path d="M 300.488625 29.66175 
L 314.888625 29.66175 
L 329.288625 29.66175 
" style="fill: none; stroke: #235996; stroke-width: 0.8; stroke-linecap: square"/>
    </g>
    <g id="text_25">
     <text style="font: 14.4px 'DejaVu Sans', 'Bitstream Vera Sans', 'Computer Modern Sans Serif', 'Lucida Grande', 'Verdana', 'Geneva', 'Lucid', 'Arial', 'Helvetica', 'Avant Garde', sans-serif; text-anchor: start" x="340.808625" y="34.70175" transform="rotate(-0 340.808625 34.70175)">hw(rs1)</text>
    </g>
   </g>
  </g>
 </g>
 <defs>
  <clipPath id="p1a2ec4311a">
   <rect x="56.96" y="10.8" width="468.47" height="199.24"/>
  </clipPath>
 </defs>
</svg>
