<?xml version="1.0" encoding="utf-8" standalone="no"?>
<!DOCTYPE svg PUBLIC "-//W3C//DTD SVG 1.1//EN"
  "http://www.w3.org/Graphics/SVG/1.1/DTD/svg11.dtd">
<svg xmlns:xlink="http://www.w3.org/1999/xlink" width="576pt" height="252pt" viewBox="0 0 576 252" xmlns="http://www.w3.org/2000/svg" version="1.1">
 <metadata>
  <rdf:RDF xmlns:dc="http://purl.org/dc/elements/1.1/" xmlns:cc="http://creativecommons.org/ns#" xmlns:rdf="http://www.w3.org/1999/02/22-rdf-syntax-ns#">
   <cc:Work>
    <dc:type rdf:resource="http://purl.org/dc/dcmitype/StillImage"/>
    <dc:date>2023-12-06T19:22:34.213256</dc:date>
    <dc:format>image/svg+xml</dc:format>
    <dc:creator>
     <cc:Agent>
      <dc:title>Matplotlib v3.7.4, https://matplotlib.org/</dc:title>
     </cc:Agent>
    </dc:creator>
   </cc:Work>
  </rdf:RDF>
 </metadata>
 <defs>
  <style type="text/css">*{stroke-linejoin: round; stroke-linecap: butt}</style>
 </defs>
 <g id="figure_1">
  <g id="patch_1">
   <path d="M 0 252 
L 576 252 
L 576 0 
L 0 0 
z
" style="fill: #ffffff"/>
  </g>
  <g id="axes_1">
   <g id="patch_2">
    <path d="M 56.96 210.04 
L 515.98 210.04 
L 515.98 11.742632 
L 56.96 11.742632 
z
" style="fill: #ffffff"/>
   </g>
   <g id="matplotlib.axis_1">
    <g id="xtick_1">
     <g id="line2d_1">
      <defs>
       <path id="m4bd17693de" d="M 0 0 
L 0 3.5 
" style="stroke: #000000; stroke-width: 0.8"/>
      </defs>
      <g>
       <use xlink:href="#m4bd17693de" x="77.824545" y="210.04" style="stroke: #000000; stroke-width: 0.8"/>
      </g>
     </g>
     <g id="text_1">
      <text style="font: 10px 'DejaVu Sans', 'Bitstream Vera Sans', 'Computer Modern Sans Serif', 'Lucida Grande', 'Verdana', 'Geneva', 'Lucid', 'Arial', 'Helvetica', 'Avant Garde', sans-serif; text-anchor: middle" x="77.824545" y="224.638438" transform="rotate(-0 77.824545 224.638438)">0</text>
     </g>
    </g>
    <g id="xtick_2">
     <g id="line2d_2">
      <g>
       <use xlink:href="#m4bd17693de" x="161.617901" y="210.04" style="stroke: #000000; stroke-width: 0.8"/>
      </g>
     </g>
     <g id="text_2">
      <text style="font: 10px 'DejaVu Sans', 'Bitstream Vera Sans', 'Computer Modern Sans Serif', 'Lucida Grande', 'Verdana', 'Geneva', 'Lucid', 'Arial', 'Helvetica', 'Avant Garde', sans-serif; text-anchor: middle" x="161.617901" y="224.638438" transform="rotate(-0 161.617901 224.638438)">50</text>
     </g>
    </g>
    <g id="xtick_3">
     <g id="line2d_3">
      <g>
       <use xlink:href="#m4bd17693de" x="245.411256" y="210.04" style="stroke: #000000; stroke-width: 0.8"/>
      </g>
     </g>
     <g id="text_3">
      <text style="font: 10px 'DejaVu Sans', 'Bitstream Vera Sans', 'Computer Modern Sans Serif', 'Lucida Grande', 'Verdana', 'Geneva', 'Lucid', 'Arial', 'Helvetica', 'Avant Garde', sans-serif; text-anchor: middle" x="245.411256" y="224.638438" transform="rotate(-0 245.411256 224.638438)">100</text>
     </g>
    </g>
    <g id="xtick_4">
     <g id="line2d_4">
      <g>
       <use xlink:href="#m4bd17693de" x="329.204611" y="210.04" style="stroke: #000000; stroke-width: 0.8"/>
      </g>
     </g>
     <g id="text_4">
      <text style="font: 10px 'DejaVu Sans', 'Bitstream Vera Sans', 'Computer Modern Sans Serif', 'Lucida Grande', 'Verdana', 'Geneva', 'Lucid', 'Arial', 'Helvetica', 'Avant Garde', sans-serif; text-anchor: middle" x="329.204611" y="224.638438" transform="rotate(-0 329.204611 224.638438)">150</text>
     </g>
    </g>
    <g id="xtick_5">
     <g id="line2d_5">
      <g>
       <use xlink:href="#m4bd17693de" x="412.997966" y="210.04" style="stroke: #000000; stroke-width: 0.8"/>
      </g>
     </g>
     <g id="text_5">
      <text style="font: 10px 'DejaVu Sans', 'Bitstream Vera Sans', 'Computer Modern Sans Serif', 'Lucida Grande', 'Verdana', 'Geneva', 'Lucid', 'Arial', 'Helvetica', 'Avant Garde', sans-serif; text-anchor: middle" x="412.997966" y="224.638438" transform="rotate(-0 412.997966 224.638438)">200</text>
     </g>
    </g>
    <g id="xtick_6">
     <g id="line2d_6">
      <g>
       <use xlink:href="#m4bd17693de" x="496.791322" y="210.04" style="stroke: #000000; stroke-width: 0.8"/>
      </g>
     </g>
     <g id="text_6">
      <text style="font: 10px 'DejaVu Sans', 'Bitstream Vera Sans', 'Computer Modern Sans Serif', 'Lucida Grande', 'Verdana', 'Geneva', 'Lucid', 'Arial', 'Helvetica', 'Avant Garde', sans-serif; text-anchor: middle" x="496.791322" y="224.638438" transform="rotate(-0 496.791322 224.638438)">250</text>
     </g>
    </g>
    <g id="text_7">
     <text style="font: 10px 'DejaVu Sans', 'Bitstream Vera Sans', 'Computer Modern Sans Serif', 'Lucida Grande', 'Verdana', 'Geneva', 'Lucid', 'Arial', 'Helvetica', 'Avant Garde', sans-serif; text-anchor: middle" x="286.47" y="238.316563" transform="rotate(-0 286.47 238.316563)">Cycles</text>
    </g>
   </g>
   <g id="matplotlib.axis_2">
    <g id="ytick_1">
     <g id="line2d_7">
      <defs>
       <path id="mea6931e9fe" d="M 0 0 
L -3.5 0 
" style="stroke: #000000; stroke-width: 0.8"/>
      </defs>
      <g>
       <use xlink:href="#mea6931e9fe" x="56.96" y="204.58445" style="stroke: #000000; stroke-width: 0.8"/>
      </g>
     </g>
     <g id="text_8">
      <text style="font: 10px 'DejaVu Sans', 'Bitstream Vera Sans', 'Computer Modern Sans Serif', 'Lucida Grande', 'Verdana', 'Geneva', 'Lucid', 'Arial', 'Helvetica', 'Avant Garde', sans-serif; text-anchor: end" x="49.96" y="208.383669" transform="rotate(-0 49.96 208.383669)">0</text>
     </g>
    </g>
    <g id="ytick_2">
     <g id="line2d_8">
      <g>
       <use xlink:href="#mea6931e9fe" x="56.96" y="180.864669" style="stroke: #000000; stroke-width: 0.8"/>
      </g>
     </g>
     <g id="text_9">
      <text style="font: 10px 'DejaVu Sans', 'Bitstream Vera Sans', 'Computer Modern Sans Serif', 'Lucida Grande', 'Verdana', 'Geneva', 'Lucid', 'Arial', 'Helvetica', 'Avant Garde', sans-serif; text-anchor: end" x="49.96" y="184.663888" transform="rotate(-0 49.96 184.663888)">20</text>
     </g>
    </g>
    <g id="ytick_3">
     <g id="line2d_9">
      <g>
       <use xlink:href="#mea6931e9fe" x="56.96" y="157.144889" style="stroke: #000000; stroke-width: 0.8"/>
      </g>
     </g>
     <g id="text_10">
      <text style="font: 10px 'DejaVu Sans', 'Bitstream Vera Sans', 'Computer Modern Sans Serif', 'Lucida Grande', 'Verdana', 'Geneva', 'Lucid', 'Arial', 'Helvetica', 'Avant Garde', sans-serif; text-anchor: end" x="49.96" y="160.944107" transform="rotate(-0 49.96 160.944107)">40</text>
     </g>
    </g>
    <g id="ytick_4">
     <g id="line2d_10">
      <g>
       <use xlink:href="#mea6931e9fe" x="56.96" y="133.425108" style="stroke: #000000; stroke-width: 0.8"/>
      </g>
     </g>
     <g id="text_11">
      <text style="font: 10px 'DejaVu Sans', 'Bitstream Vera Sans', 'Computer Modern Sans Serif', 'Lucida Grande', 'Verdana', 'Geneva', 'Lucid', 'Arial', 'Helvetica', 'Avant Garde', sans-serif; text-anchor: end" x="49.96" y="137.224326" transform="rotate(-0 49.96 137.224326)">60</text>
     </g>
    </g>
    <g id="ytick_5">
     <g id="line2d_11">
      <g>
       <use xlink:href="#mea6931e9fe" x="56.96" y="109.705327" style="stroke: #000000; stroke-width: 0.8"/>
      </g>
     </g>
     <g id="text_12">
      <text style="font: 10px 'DejaVu Sans', 'Bitstream Vera Sans', 'Computer Modern Sans Serif', 'Lucida Grande', 'Verdana', 'Geneva', 'Lucid', 'Arial', 'Helvetica', 'Avant Garde', sans-serif; text-anchor: end" x="49.96" y="113.504545" transform="rotate(-0 49.96 113.504545)">80</text>
     </g>
    </g>
    <g id="ytick_6">
     <g id="line2d_12">
      <g>
       <use xlink:href="#mea6931e9fe" x="56.96" y="85.985546" style="stroke: #000000; stroke-width: 0.8"/>
      </g>
     </g>
     <g id="text_13">
      <text style="font: 10px 'DejaVu Sans', 'Bitstream Vera Sans', 'Computer Modern Sans Serif', 'Lucida Grande', 'Verdana', 'Geneva', 'Lucid', 'Arial', 'Helvetica', 'Avant Garde', sans-serif; text-anchor: end" x="49.96" y="89.784765" transform="rotate(-0 49.96 89.784765)">100</text>
     </g>
    </g>
    <g id="ytick_7">
     <g id="line2d_13">
      <g>
       <use xlink:href="#mea6931e9fe" x="56.96" y="62.265765" style="stroke: #000000; stroke-width: 0.8"/>
      </g>
     </g>
     <g id="text_14">
      <text style="font: 10px 'DejaVu Sans', 'Bitstream Vera Sans', 'Computer Modern Sans Serif', 'Lucida Grande', 'Verdana', 'Geneva', 'Lucid', 'Arial', 'Helvetica', 'Avant Garde', sans-serif; text-anchor: end" x="49.96" y="66.064984" transform="rotate(-0 49.96 66.064984)">120</text>
     </g>
    </g>
    <g id="ytick_8">
     <g id="line2d_14">
      <g>
       <use xlink:href="#mea6931e9fe" x="56.96" y="38.545984" style="stroke: #000000; stroke-width: 0.8"/>
      </g>
     </g>
     <g id="text_15">
      <text style="font: 10px 'DejaVu Sans', 'Bitstream Vera Sans', 'Computer Modern Sans Serif', 'Lucida Grande', 'Verdana', 'Geneva', 'Lucid', 'Arial', 'Helvetica', 'Avant Garde', sans-serif; text-anchor: end" x="49.96" y="42.345203" transform="rotate(-0 49.96 42.345203)">140</text>
     </g>
    </g>
    <g id="ytick_9">
     <g id="line2d_15">
      <g>
       <use xlink:href="#mea6931e9fe" x="56.96" y="14.826203" style="stroke: #000000; stroke-width: 0.8"/>
      </g>
     </g>
     <g id="text_16">
      <text style="font: 10px 'DejaVu Sans', 'Bitstream Vera Sans', 'Computer Modern Sans Serif', 'Lucida Grande', 'Verdana', 'Geneva', 'Lucid', 'Arial', 'Helvetica', 'Avant Garde', sans-serif; text-anchor: end" x="49.96" y="18.625422" transform="rotate(-0 49.96 18.625422)">160</text>
     </g>
    </g>
    <g id="text_17">
     <text style="font: 10px 'DejaVu Sans', 'Bitstream Vera Sans', 'Computer Modern Sans Serif', 'Lucida Grande', 'Verdana', 'Geneva', 'Lucid', 'Arial', 'Helvetica', 'Avant Garde', sans-serif; text-anchor: middle" x="18.792813" y="110.891316" transform="rotate(-90 18.792813 110.891316)">power (uW)</text>
    </g>
   </g>
   <g id="line2d_16">
    <path d="M 77.824545 43.28994 
L 79.500413 44.475929 
L 81.17628 53.963842 
L 82.852147 52.777853 
L 84.528014 85.985546 
L 86.203881 91.915491 
L 87.879748 44.475929 
L 89.555615 50.405874 
L 91.231482 52.777853 
L 92.907349 158.330878 
L 94.583217 201.026483 
L 96.259084 49.219885 
L 97.934951 51.591864 
L 99.610818 78.869612 
L 101.286685 132.239119 
L 102.962552 201.026483 
L 104.638419 128.681151 
L 107.990153 58.707798 
L 109.66602 95.473458 
L 111.341888 76.497633 
L 113.017755 112.077305 
L 114.693622 50.405874 
L 116.369489 43.28994 
L 118.045356 44.475929 
L 119.721223 96.659447 
L 121.39709 61.079776 
L 123.072957 44.475929 
L 124.748824 39.731973 
L 126.424691 49.219885 
L 129.776426 153.586921 
L 131.452293 65.823732 
L 133.12816 114.449283 
L 134.804027 97.845436 
L 136.479894 68.19571 
L 138.155761 51.591864 
L 139.831628 82.427579 
L 141.507495 177.306702 
L 143.183363 62.265765 
L 144.85923 94.287469 
L 146.535097 71.753677 
L 148.210964 69.381699 
L 149.886831 63.451754 
L 151.562698 48.033896 
L 153.238565 75.311644 
L 154.914432 122.751206 
L 156.590299 45.661918 
L 158.266166 65.823732 
L 159.942034 70.567688 
L 161.617901 57.521809 
L 163.293768 52.777853 
L 164.969635 136.983075 
L 166.645502 67.009721 
L 168.321369 72.939666 
L 169.997236 43.28994 
L 171.673103 63.451754 
L 173.34897 40.917962 
L 175.024838 53.963842 
L 176.700705 103.775382 
L 178.376572 49.219885 
L 180.052439 69.381699 
L 181.728306 177.306702 
L 183.404173 50.405874 
L 185.08004 69.381699 
L 186.755907 75.311644 
L 188.431774 42.103951 
L 190.107641 58.707798 
L 191.783509 46.847907 
L 193.459376 201.026483 
L 195.135243 83.613568 
L 196.81111 64.637743 
L 198.486977 67.009721 
L 200.162844 59.893787 
L 201.838711 40.917962 
L 203.514578 71.753677 
L 205.190445 39.731973 
L 206.866313 39.731973 
L 210.218047 110.891316 
L 211.893914 88.357524 
L 213.569781 68.19571 
L 215.245648 40.917962 
L 216.921515 84.799557 
L 218.597382 65.823732 
L 220.273249 147.656976 
L 221.949116 70.567688 
L 223.624984 52.777853 
L 225.300851 59.893787 
L 226.976718 43.28994 
L 228.652585 123.937195 
L 230.328452 184.422637 
L 232.004319 101.403403 
L 233.680186 68.19571 
L 235.356053 53.963842 
L 237.03192 142.91302 
L 238.707788 159.516867 
L 240.383655 76.497633 
L 242.059522 62.265765 
L 243.735389 53.963842 
L 245.411256 27.872083 
L 247.087123 57.521809 
L 248.76299 43.28994 
L 250.438857 56.33582 
L 252.114724 56.33582 
L 253.790591 51.591864 
L 255.466459 70.567688 
L 257.142326 43.28994 
L 258.818193 56.33582 
L 260.49406 64.637743 
L 262.169927 51.591864 
L 263.845794 70.567688 
L 265.521661 91.915491 
L 267.197528 64.637743 
L 268.873395 84.799557 
L 272.22513 39.731973 
L 273.900997 69.381699 
L 275.576864 180.864669 
L 277.252731 49.219885 
L 278.928598 46.847907 
L 280.604465 201.026483 
L 282.280332 63.451754 
L 283.956199 131.05313 
L 285.632066 163.074834 
L 287.307934 83.613568 
L 288.983801 78.869612 
L 290.659668 76.497633 
L 292.335535 52.777853 
L 294.011402 83.613568 
L 295.687269 49.219885 
L 297.363136 49.219885 
L 299.039003 52.777853 
L 300.71487 109.705327 
L 302.390737 55.149831 
L 304.066605 82.427579 
L 305.742472 158.330878 
L 307.418339 26.686094 
L 309.094206 63.451754 
L 310.770073 44.475929 
L 312.44594 46.847907 
L 314.121807 44.475929 
L 315.797674 46.847907 
L 317.473541 29.058072 
L 319.149409 141.727031 
L 320.825276 44.475929 
L 322.501143 38.545984 
L 324.17701 53.963842 
L 325.852877 58.707798 
L 327.528744 177.306702 
L 329.204611 57.521809 
L 330.880478 51.591864 
L 332.556345 64.637743 
L 334.232212 32.616039 
L 335.90808 90.729502 
L 337.583947 44.475929 
L 339.259814 62.265765 
L 340.935681 34.988017 
L 342.611548 48.033896 
L 344.287415 87.171535 
L 345.963282 179.67868 
L 347.639149 52.777853 
L 349.315016 65.823732 
L 350.990884 76.497633 
L 352.666751 69.381699 
L 354.342618 167.81879 
L 356.018485 46.847907 
L 357.694352 68.19571 
L 359.370219 59.893787 
L 361.046086 59.893787 
L 362.721953 109.705327 
L 364.39782 113.263294 
L 366.073687 53.963842 
L 367.749555 121.565217 
L 369.425422 153.586921 
L 371.101289 65.823732 
L 372.777156 56.33582 
L 374.453023 201.026483 
L 376.12889 45.661918 
L 377.804757 49.219885 
L 379.480624 76.497633 
L 381.156491 95.473458 
L 382.832359 58.707798 
L 384.508226 81.24159 
L 386.184093 51.591864 
L 387.85996 30.244061 
L 389.535827 56.33582 
L 391.211694 138.169064 
L 392.887561 44.475929 
L 394.563428 48.033896 
L 396.239295 36.174006 
L 397.915162 113.263294 
L 399.59103 20.756148 
L 401.266897 45.661918 
L 402.942764 37.359995 
L 404.618631 122.751206 
L 406.294498 63.451754 
L 407.970365 90.729502 
L 409.646232 100.217414 
L 411.322099 53.963842 
L 412.997966 63.451754 
L 414.673834 56.33582 
L 416.349701 55.149831 
L 418.025568 90.729502 
L 419.701435 32.616039 
L 421.377302 75.311644 
L 423.053169 179.67868 
L 424.729036 75.311644 
L 426.404903 77.683623 
L 428.08077 75.311644 
L 429.756637 43.28994 
L 431.432505 68.19571 
L 433.108372 64.637743 
L 434.784239 142.91302 
L 436.460106 29.058072 
L 438.135973 116.821261 
L 439.81184 57.521809 
L 441.487707 39.731973 
L 443.163574 70.567688 
L 444.839441 51.591864 
L 446.515309 58.707798 
L 448.191176 40.917962 
L 449.867043 61.079776 
L 451.54291 63.451754 
L 453.218777 61.079776 
L 454.894644 61.079776 
L 456.570511 157.144889 
L 458.246378 42.103951 
L 459.922245 55.149831 
L 461.598112 32.616039 
L 463.27398 121.565217 
L 464.949847 63.451754 
L 466.625714 59.893787 
L 468.301581 81.24159 
L 469.977448 83.613568 
L 471.653315 157.144889 
L 473.329182 48.033896 
L 475.005049 91.915491 
L 476.680916 69.381699 
L 478.356783 72.939666 
L 480.032651 49.219885 
L 481.708518 52.777853 
L 483.384385 69.381699 
L 485.060252 44.475929 
L 486.736119 177.306702 
L 488.411986 178.492691 
L 490.087853 91.915491 
L 491.76372 179.67868 
L 493.439587 48.033896 
L 495.115455 51.591864 
L 495.115455 51.591864 
" clip-path="url(#p8e3edc7304)" style="fill: none; stroke: #99004d; stroke-width: 0.8; stroke-linecap: square"/>
   </g>
   <g id="patch_3">
    <path d="M 56.96 210.04 
L 56.96 11.742632 
" style="fill: none; stroke: #000000; stroke-width: 0.8; stroke-linejoin: miter; stroke-linecap: square"/>
   </g>
   <g id="patch_4">
    <path d="M 515.98 210.04 
L 515.98 11.742632 
" style="fill: none; stroke: #000000; stroke-width: 0.8; stroke-linejoin: miter; stroke-linecap: square"/>
   </g>
   <g id="patch_5">
    <path d="M 56.96 210.04 
L 515.98 210.04 
" style="fill: none; stroke: #000000; stroke-width: 0.8; stroke-linejoin: miter; stroke-linecap: square"/>
   </g>
   <g id="patch_6">
    <path d="M 56.96 11.742632 
L 515.98 11.742632 
" style="fill: none; stroke: #000000; stroke-width: 0.8; stroke-linejoin: miter; stroke-linecap: square"/>
   </g>
  </g>
  <g id="axes_2">
   <g id="matplotlib.axis_3">
    <g id="ytick_10">
     <g id="line2d_17">
      <defs>
       <path id="mc360c739e8" d="M 0 0 
L 3.5 0 
" style="stroke: #000000; stroke-width: 0.8"/>
      </defs>
      <g>
       <use xlink:href="#mc360c739e8" x="515.98" y="201.026483" style="stroke: #000000; stroke-width: 0.8"/>
      </g>
     </g>
     <g id="text_18">
      <text style="font: 10px 'DejaVu Sans', 'Bitstream Vera Sans', 'Computer Modern Sans Serif', 'Lucida Grande', 'Verdana', 'Geneva', 'Lucid', 'Arial', 'Helvetica', 'Avant Garde', sans-serif; text-anchor: start" x="522.98" y="204.825702" transform="rotate(-0 522.98 204.825702)">0.0</text>
     </g>
    </g>
    <g id="ytick_11">
     <g id="line2d_18">
      <g>
       <use xlink:href="#mc360c739e8" x="515.98" y="177.306702" style="stroke: #000000; stroke-width: 0.8"/>
      </g>
     </g>
     <g id="text_19">
      <text style="font: 10px 'DejaVu Sans', 'Bitstream Vera Sans', 'Computer Modern Sans Serif', 'Lucida Grande', 'Verdana', 'Geneva', 'Lucid', 'Arial', 'Helvetica', 'Avant Garde', sans-serif; text-anchor: start" x="522.98" y="181.105921" transform="rotate(-0 522.98 181.105921)">2.5</text>
     </g>
    </g>
    <g id="ytick_12">
     <g id="line2d_19">
      <g>
       <use xlink:href="#mc360c739e8" x="515.98" y="153.586921" style="stroke: #000000; stroke-width: 0.8"/>
      </g>
     </g>
     <g id="text_20">
      <text style="font: 10px 'DejaVu Sans', 'Bitstream Vera Sans', 'Computer Modern Sans Serif', 'Lucida Grande', 'Verdana', 'Geneva', 'Lucid', 'Arial', 'Helvetica', 'Avant Garde', sans-serif; text-anchor: start" x="522.98" y="157.38614" transform="rotate(-0 522.98 157.38614)">5.0</text>
     </g>
    </g>
    <g id="ytick_13">
     <g id="line2d_20">
      <g>
       <use xlink:href="#mc360c739e8" x="515.98" y="129.867141" style="stroke: #000000; stroke-width: 0.8"/>
      </g>
     </g>
     <g id="text_21">
      <text style="font: 10px 'DejaVu Sans', 'Bitstream Vera Sans', 'Computer Modern Sans Serif', 'Lucida Grande', 'Verdana', 'Geneva', 'Lucid', 'Arial', 'Helvetica', 'Avant Garde', sans-serif; text-anchor: start" x="522.98" y="133.666359" transform="rotate(-0 522.98 133.666359)">7.5</text>
     </g>
    </g>
    <g id="ytick_14">
     <g id="line2d_21">
      <g>
       <use xlink:href="#mc360c739e8" x="515.98" y="106.14736" style="stroke: #000000; stroke-width: 0.8"/>
      </g>
     </g>
     <g id="text_22">
      <text style="font: 10px 'DejaVu Sans', 'Bitstream Vera Sans', 'Computer Modern Sans Serif', 'Lucida Grande', 'Verdana', 'Geneva', 'Lucid', 'Arial', 'Helvetica', 'Avant Garde', sans-serif; text-anchor: start" x="522.98" y="109.946578" transform="rotate(-0 522.98 109.946578)">10.0</text>
     </g>
    </g>
    <g id="ytick_15">
     <g id="line2d_22">
      <g>
       <use xlink:href="#mc360c739e8" x="515.98" y="82.427579" style="stroke: #000000; stroke-width: 0.8"/>
      </g>
     </g>
     <g id="text_23">
      <text style="font: 10px 'DejaVu Sans', 'Bitstream Vera Sans', 'Computer Modern Sans Serif', 'Lucida Grande', 'Verdana', 'Geneva', 'Lucid', 'Arial', 'Helvetica', 'Avant Garde', sans-serif; text-anchor: start" x="522.98" y="86.226797" transform="rotate(-0 522.98 86.226797)">12.5</text>
     </g>
    </g>
    <g id="ytick_16">
     <g id="line2d_23">
      <g>
       <use xlink:href="#mc360c739e8" x="515.98" y="58.707798" style="stroke: #000000; stroke-width: 0.8"/>
      </g>
     </g>
     <g id="text_24">
      <text style="font: 10px 'DejaVu Sans', 'Bitstream Vera Sans', 'Computer Modern Sans Serif', 'Lucida Grande', 'Verdana', 'Geneva', 'Lucid', 'Arial', 'Helvetica', 'Avant Garde', sans-serif; text-anchor: start" x="522.98" y="62.507017" transform="rotate(-0 522.98 62.507017)">15.0</text>
     </g>
    </g>
    <g id="ytick_17">
     <g id="line2d_24">
      <g>
       <use xlink:href="#mc360c739e8" x="515.98" y="34.988017" style="stroke: #000000; stroke-width: 0.8"/>
      </g>
     </g>
     <g id="text_25">
      <text style="font: 10px 'DejaVu Sans', 'Bitstream Vera Sans', 'Computer Modern Sans Serif', 'Lucida Grande', 'Verdana', 'Geneva', 'Lucid', 'Arial', 'Helvetica', 'Avant Garde', sans-serif; text-anchor: start" x="522.98" y="38.787236" transform="rotate(-0 522.98 38.787236)">17.5</text>
     </g>
    </g>
    <g id="text_26">
     <text style="font: 10px 'DejaVu Sans', 'Bitstream Vera Sans', 'Computer Modern Sans Serif', 'Lucida Grande', 'Verdana', 'Geneva', 'Lucid', 'Arial', 'Helvetica', 'Avant Garde', sans-serif; text-anchor: middle" x="562.844063" y="110.891316" transform="rotate(-90 562.844063 110.891316)">hw(data)</text>
    </g>
   </g>
   <g id="line2d_25">
    <path d="M 77.824545 30.244061 
L 81.17628 49.219885 
L 84.528014 125.123184 
L 86.203881 134.611097 
L 87.879748 30.244061 
L 89.555615 87.171535 
L 91.231482 68.19571 
L 92.907349 182.050659 
L 94.583217 201.026483 
L 96.259084 49.219885 
L 97.934951 77.683623 
L 99.610818 115.635272 
L 101.286685 163.074834 
L 102.962552 201.026483 
L 104.638419 163.074834 
L 106.314286 134.611097 
L 107.990153 39.731973 
L 109.66602 134.611097 
L 111.341888 58.707798 
L 113.017755 163.074834 
L 114.693622 58.707798 
L 116.369489 68.19571 
L 118.045356 20.756148 
L 119.721223 144.099009 
L 121.39709 87.171535 
L 123.072957 58.707798 
L 124.748824 39.731973 
L 126.424691 58.707798 
L 128.100559 153.586921 
L 129.776426 182.050659 
L 131.452293 96.659447 
L 133.12816 153.586921 
L 134.804027 144.099009 
L 136.479894 106.14736 
L 138.155761 39.731973 
L 139.831628 106.14736 
L 141.507495 191.538571 
L 143.183363 30.244061 
L 144.85923 144.099009 
L 146.535097 68.19571 
L 148.210964 77.683623 
L 149.886831 125.123184 
L 151.562698 39.731973 
L 153.238565 30.244061 
L 154.914432 163.074834 
L 156.590299 49.219885 
L 158.266166 115.635272 
L 159.942034 106.14736 
L 161.617901 77.683623 
L 163.293768 115.635272 
L 164.969635 163.074834 
L 166.645502 106.14736 
L 168.321369 106.14736 
L 169.997236 87.171535 
L 171.673103 96.659447 
L 173.34897 58.707798 
L 175.024838 58.707798 
L 176.700705 144.099009 
L 178.376572 87.171535 
L 180.052439 125.123184 
L 181.728306 191.538571 
L 183.404173 39.731973 
L 185.08004 96.659447 
L 186.755907 125.123184 
L 188.431774 49.219885 
L 191.783509 87.171535 
L 193.459376 201.026483 
L 195.135243 134.611097 
L 196.81111 49.219885 
L 200.162844 68.19571 
L 201.838711 49.219885 
L 203.514578 125.123184 
L 205.190445 49.219885 
L 206.866313 58.707798 
L 208.54218 134.611097 
L 210.218047 153.586921 
L 211.893914 134.611097 
L 213.569781 96.659447 
L 215.245648 39.731973 
L 216.921515 115.635272 
L 218.597382 68.19571 
L 220.273249 172.562746 
L 221.949116 115.635272 
L 223.624984 115.635272 
L 225.300851 49.219885 
L 226.976718 77.683623 
L 228.652585 153.586921 
L 230.328452 191.538571 
L 232.004319 153.586921 
L 233.680186 87.171535 
L 235.356053 87.171535 
L 237.03192 172.562746 
L 238.707788 182.050659 
L 240.383655 96.659447 
L 242.059522 68.19571 
L 243.735389 77.683623 
L 245.411256 68.19571 
L 247.087123 39.731973 
L 250.438857 96.659447 
L 252.114724 77.683623 
L 253.790591 39.731973 
L 255.466459 20.756148 
L 257.142326 49.219885 
L 258.818193 87.171535 
L 260.49406 87.171535 
L 262.169927 49.219885 
L 263.845794 49.219885 
L 265.521661 134.611097 
L 267.197528 39.731973 
L 268.873395 96.659447 
L 270.549263 58.707798 
L 272.22513 68.19571 
L 273.900997 96.659447 
L 275.576864 191.538571 
L 277.252731 68.19571 
L 278.928598 49.219885 
L 280.604465 201.026483 
L 282.280332 68.19571 
L 283.956199 163.074834 
L 285.632066 182.050659 
L 287.307934 134.611097 
L 288.983801 115.635272 
L 290.659668 125.123184 
L 292.335535 49.219885 
L 294.011402 115.635272 
L 295.687269 77.683623 
L 297.363136 87.171535 
L 299.039003 87.171535 
L 300.71487 153.586921 
L 302.390737 96.659447 
L 304.066605 134.611097 
L 305.742472 182.050659 
L 307.418339 77.683623 
L 309.094206 96.659447 
L 312.44594 39.731973 
L 314.121807 39.731973 
L 315.797674 49.219885 
L 317.473541 49.219885 
L 319.149409 172.562746 
L 320.825276 58.707798 
L 322.501143 68.19571 
L 324.17701 49.219885 
L 325.852877 115.635272 
L 327.528744 191.538571 
L 329.204611 77.683623 
L 330.880478 77.683623 
L 332.556345 106.14736 
L 334.232212 58.707798 
L 335.90808 134.611097 
L 337.583947 77.683623 
L 339.259814 49.219885 
L 340.935681 49.219885 
L 342.611548 39.731973 
L 344.287415 125.123184 
L 345.963282 191.538571 
L 347.639149 30.244061 
L 349.315016 96.659447 
L 350.990884 58.707798 
L 352.666751 68.19571 
L 354.342618 182.050659 
L 356.018485 49.219885 
L 357.694352 77.683623 
L 359.370219 58.707798 
L 361.046086 68.19571 
L 362.721953 153.586921 
L 364.39782 163.074834 
L 366.073687 96.659447 
L 367.749555 163.074834 
L 369.425422 182.050659 
L 371.101289 58.707798 
L 372.777156 39.731973 
L 374.453023 201.026483 
L 376.12889 68.19571 
L 377.804757 58.707798 
L 379.480624 115.635272 
L 381.156491 115.635272 
L 382.832359 68.19571 
L 384.508226 115.635272 
L 386.184093 77.683623 
L 387.85996 30.244061 
L 389.535827 58.707798 
L 391.211694 172.562746 
L 392.887561 58.707798 
L 394.563428 58.707798 
L 396.239295 39.731973 
L 397.915162 144.099009 
L 399.59103 39.731973 
L 401.266897 58.707798 
L 402.942764 30.244061 
L 404.618631 163.074834 
L 406.294498 77.683623 
L 407.970365 144.099009 
L 409.646232 153.586921 
L 411.322099 39.731973 
L 412.997966 68.19571 
L 414.673834 77.683623 
L 416.349701 68.19571 
L 418.025568 144.099009 
L 419.701435 68.19571 
L 421.377302 58.707798 
L 423.053169 191.538571 
L 424.729036 77.683623 
L 426.404903 125.123184 
L 428.08077 125.123184 
L 429.756637 49.219885 
L 431.432505 58.707798 
L 433.108372 125.123184 
L 434.784239 172.562746 
L 436.460106 49.219885 
L 438.135973 144.099009 
L 439.81184 49.219885 
L 441.487707 77.683623 
L 443.163574 96.659447 
L 444.839441 39.731973 
L 446.515309 106.14736 
L 448.191176 68.19571 
L 451.54291 106.14736 
L 453.218777 68.19571 
L 454.894644 77.683623 
L 456.570511 182.050659 
L 458.246378 68.19571 
L 459.922245 30.244061 
L 461.598112 68.19571 
L 463.27398 153.586921 
L 464.949847 49.219885 
L 466.625714 68.19571 
L 468.301581 115.635272 
L 469.977448 144.099009 
L 471.653315 182.050659 
L 473.329182 49.219885 
L 475.005049 144.099009 
L 476.680916 115.635272 
L 478.356783 20.756148 
L 480.032651 58.707798 
L 481.708518 30.244061 
L 483.384385 58.707798 
L 485.060252 68.19571 
L 486.736119 191.538571 
L 488.411986 191.538571 
L 490.087853 134.611097 
L 491.76372 191.538571 
L 493.439587 87.171535 
L 495.115455 87.171535 
L 495.115455 87.171535 
" clip-path="url(#p8e3edc7304)" style="fill: none; stroke: #235996; stroke-width: 0.8; stroke-linecap: square"/>
   </g>
   <g id="patch_7">
    <path d="M 56.96 210.04 
L 56.96 11.742632 
" style="fill: none; stroke: #000000; stroke-width: 0.8; stroke-linejoin: miter; stroke-linecap: square"/>
   </g>
   <g id="patch_8">
    <path d="M 515.98 210.04 
L 515.98 11.742632 
" style="fill: none; stroke: #000000; stroke-width: 0.8; stroke-linejoin: miter; stroke-linecap: square"/>
   </g>
   <g id="patch_9">
    <path d="M 56.96 210.04 
L 515.98 210.04 
" style="fill: none; stroke: #000000; stroke-width: 0.8; stroke-linejoin: miter; stroke-linecap: square"/>
   </g>
   <g id="patch_10">
    <path d="M 56.96 11.742632 
L 515.98 11.742632 
" style="fill: none; stroke: #000000; stroke-width: 0.8; stroke-linejoin: miter; stroke-linecap: square"/>
   </g>
   <g id="legend_1">
    <g id="patch_11">
     <path d="M 179.254125 44.399132 
L 393.685875 44.399132 
Q 396.565875 44.399132 396.565875 41.519132 
L 396.565875 21.822632 
Q 396.565875 18.942632 393.685875 18.942632 
L 179.254125 18.942632 
Q 176.374125 18.942632 176.374125 21.822632 
L 176.374125 41.519132 
Q 176.374125 44.399132 179.254125 44.399132 
z
" style="fill: #ffffff; opacity: 0.8; stroke: #000000; stroke-linejoin: miter"/>
    </g>
    <g id="line2d_26">
     <path d="M 182.134125 30.604382 
L 196.534125 30.604382 
L 210.934125 30.604382 
" style="fill: none; stroke: #99004d; stroke-width: 0.8; stroke-linecap: square"/>
    </g>
    <g id="text_27">
     <text style="font: 14.4px 'DejaVu Sans', 'Bitstream Vera Sans', 'Computer Modern Sans Serif', 'Lucida Grande', 'Verdana', 'Geneva', 'Lucid', 'Arial', 'Helvetica', 'Avant Garde', sans-serif; text-anchor: start" x="222.454125" y="35.644382" transform="rotate(-0 222.454125 35.644382)">power</text>
    </g>
    <g id="line2d_27">
     <path d="M 295.763625 30.604382 
L 310.163625 30.604382 
L 324.563625 30.604382 
" style="fill: none; stroke: #235996; stroke-width: 0.8; stroke-linecap: square"/>
    </g>
    <g id="text_28">
     <text style="font: 14.4px 'DejaVu Sans', 'Bitstream Vera Sans', 'Computer Modern Sans Serif', 'Lucida Grande', 'Verdana', 'Geneva', 'Lucid', 'Arial', 'Helvetica', 'Avant Garde', sans-serif; text-anchor: start" x="336.083625" y="35.644382" transform="rotate(-0 336.083625 35.644382)">hw(rs1)</text>
    </g>
   </g>
  </g>
 </g>
 <defs>
  <clipPath id="p8e3edc7304">
   <rect x="56.96" y="11.742632" width="459.02" height="198.297368"/>
  </clipPath>
 </defs>
</svg>
