<?xml version="1.0" encoding="utf-8" standalone="no"?>
<!DOCTYPE svg PUBLIC "-//W3C//DTD SVG 1.1//EN"
  "http://www.w3.org/Graphics/SVG/1.1/DTD/svg11.dtd">
<svg xmlns:xlink="http://www.w3.org/1999/xlink" width="576pt" height="252pt" viewBox="0 0 576 252" xmlns="http://www.w3.org/2000/svg" version="1.1">
 <metadata>
  <rdf:RDF xmlns:dc="http://purl.org/dc/elements/1.1/" xmlns:cc="http://creativecommons.org/ns#" xmlns:rdf="http://www.w3.org/1999/02/22-rdf-syntax-ns#">
   <cc:Work>
    <dc:type rdf:resource="http://purl.org/dc/dcmitype/StillImage"/>
    <dc:date>2023-11-26T17:37:44.376203</dc:date>
    <dc:format>image/svg+xml</dc:format>
    <dc:creator>
     <cc:Agent>
      <dc:title>Matplotlib v3.8.2, https://matplotlib.org/</dc:title>
     </cc:Agent>
    </dc:creator>
   </cc:Work>
  </rdf:RDF>
 </metadata>
 <defs>
  <style type="text/css">*{stroke-linejoin: round; stroke-linecap: butt}</style>
 </defs>
 <g id="figure_1">
  <g id="patch_1">
   <path d="M 0 252 
L 576 252 
L 576 0 
L 0 0 
z
" style="fill: #ffffff"/>
  </g>
  <g id="axes_1">
   <g id="patch_2">
    <path d="M 56.87 210.04 
L 515.98 210.04 
L 515.98 10.8 
L 56.87 10.8 
z
" style="fill: #ffffff"/>
   </g>
   <g id="matplotlib.axis_1">
    <g id="xtick_1">
     <g id="line2d_1">
      <defs>
       <path id="me4f5db1024" d="M 0 0 
L 0 3.5 
" style="stroke: #000000; stroke-width: 0.8"/>
      </defs>
      <g>
       <use xlink:href="#me4f5db1024" x="77.738636" y="210.04" style="stroke: #000000; stroke-width: 0.8"/>
      </g>
     </g>
     <g id="text_1">
      <text style="font: 10px 'DejaVu Sans', 'Bitstream Vera Sans', 'Computer Modern Sans Serif', 'Lucida Grande', 'Verdana', 'Geneva', 'Lucid', 'Arial', 'Helvetica', 'Avant Garde', sans-serif; text-anchor: middle" x="77.738636" y="224.638438" transform="rotate(-0 77.738636 224.638438)">0</text>
     </g>
    </g>
    <g id="xtick_2">
     <g id="line2d_2">
      <g>
       <use xlink:href="#me4f5db1024" x="161.548421" y="210.04" style="stroke: #000000; stroke-width: 0.8"/>
      </g>
     </g>
     <g id="text_2">
      <text style="font: 10px 'DejaVu Sans', 'Bitstream Vera Sans', 'Computer Modern Sans Serif', 'Lucida Grande', 'Verdana', 'Geneva', 'Lucid', 'Arial', 'Helvetica', 'Avant Garde', sans-serif; text-anchor: middle" x="161.548421" y="224.638438" transform="rotate(-0 161.548421 224.638438)">50</text>
     </g>
    </g>
    <g id="xtick_3">
     <g id="line2d_3">
      <g>
       <use xlink:href="#me4f5db1024" x="245.358206" y="210.04" style="stroke: #000000; stroke-width: 0.8"/>
      </g>
     </g>
     <g id="text_3">
      <text style="font: 10px 'DejaVu Sans', 'Bitstream Vera Sans', 'Computer Modern Sans Serif', 'Lucida Grande', 'Verdana', 'Geneva', 'Lucid', 'Arial', 'Helvetica', 'Avant Garde', sans-serif; text-anchor: middle" x="245.358206" y="224.638438" transform="rotate(-0 245.358206 224.638438)">100</text>
     </g>
    </g>
    <g id="xtick_4">
     <g id="line2d_4">
      <g>
       <use xlink:href="#me4f5db1024" x="329.16799" y="210.04" style="stroke: #000000; stroke-width: 0.8"/>
      </g>
     </g>
     <g id="text_4">
      <text style="font: 10px 'DejaVu Sans', 'Bitstream Vera Sans', 'Computer Modern Sans Serif', 'Lucida Grande', 'Verdana', 'Geneva', 'Lucid', 'Arial', 'Helvetica', 'Avant Garde', sans-serif; text-anchor: middle" x="329.16799" y="224.638438" transform="rotate(-0 329.16799 224.638438)">150</text>
     </g>
    </g>
    <g id="xtick_5">
     <g id="line2d_5">
      <g>
       <use xlink:href="#me4f5db1024" x="412.977775" y="210.04" style="stroke: #000000; stroke-width: 0.8"/>
      </g>
     </g>
     <g id="text_5">
      <text style="font: 10px 'DejaVu Sans', 'Bitstream Vera Sans', 'Computer Modern Sans Serif', 'Lucida Grande', 'Verdana', 'Geneva', 'Lucid', 'Arial', 'Helvetica', 'Avant Garde', sans-serif; text-anchor: middle" x="412.977775" y="224.638438" transform="rotate(-0 412.977775 224.638438)">200</text>
     </g>
    </g>
    <g id="xtick_6">
     <g id="line2d_6">
      <g>
       <use xlink:href="#me4f5db1024" x="496.787559" y="210.04" style="stroke: #000000; stroke-width: 0.8"/>
      </g>
     </g>
     <g id="text_6">
      <text style="font: 10px 'DejaVu Sans', 'Bitstream Vera Sans', 'Computer Modern Sans Serif', 'Lucida Grande', 'Verdana', 'Geneva', 'Lucid', 'Arial', 'Helvetica', 'Avant Garde', sans-serif; text-anchor: middle" x="496.787559" y="224.638438" transform="rotate(-0 496.787559 224.638438)">250</text>
     </g>
    </g>
    <g id="text_7">
     <text style="font: 10px 'DejaVu Sans', 'Bitstream Vera Sans', 'Computer Modern Sans Serif', 'Lucida Grande', 'Verdana', 'Geneva', 'Lucid', 'Arial', 'Helvetica', 'Avant Garde', sans-serif; text-anchor: middle" x="286.425" y="238.316563" transform="rotate(-0 286.425 238.316563)">Cycles</text>
    </g>
   </g>
   <g id="matplotlib.axis_2">
    <g id="ytick_1">
     <g id="line2d_7">
      <defs>
       <path id="m04834ba4ca" d="M 0 0 
L -3.5 0 
" style="stroke: #000000; stroke-width: 0.8"/>
      </defs>
      <g>
       <use xlink:href="#m04834ba4ca" x="56.87" y="202.183155" style="stroke: #000000; stroke-width: 0.8"/>
      </g>
     </g>
     <g id="text_8">
      <text style="font: 10px 'DejaVu Sans', 'Bitstream Vera Sans', 'Computer Modern Sans Serif', 'Lucida Grande', 'Verdana', 'Geneva', 'Lucid', 'Arial', 'Helvetica', 'Avant Garde', sans-serif; text-anchor: end" x="49.87" y="205.982373" transform="rotate(-0 49.87 205.982373)">0</text>
     </g>
    </g>
    <g id="ytick_2">
     <g id="line2d_8">
      <g>
       <use xlink:href="#m04834ba4ca" x="56.87" y="178.192787" style="stroke: #000000; stroke-width: 0.8"/>
      </g>
     </g>
     <g id="text_9">
      <text style="font: 10px 'DejaVu Sans', 'Bitstream Vera Sans', 'Computer Modern Sans Serif', 'Lucida Grande', 'Verdana', 'Geneva', 'Lucid', 'Arial', 'Helvetica', 'Avant Garde', sans-serif; text-anchor: end" x="49.87" y="181.992006" transform="rotate(-0 49.87 181.992006)">20</text>
     </g>
    </g>
    <g id="ytick_3">
     <g id="line2d_9">
      <g>
       <use xlink:href="#m04834ba4ca" x="56.87" y="154.20242" style="stroke: #000000; stroke-width: 0.8"/>
      </g>
     </g>
     <g id="text_10">
      <text style="font: 10px 'DejaVu Sans', 'Bitstream Vera Sans', 'Computer Modern Sans Serif', 'Lucida Grande', 'Verdana', 'Geneva', 'Lucid', 'Arial', 'Helvetica', 'Avant Garde', sans-serif; text-anchor: end" x="49.87" y="158.001639" transform="rotate(-0 49.87 158.001639)">40</text>
     </g>
    </g>
    <g id="ytick_4">
     <g id="line2d_10">
      <g>
       <use xlink:href="#m04834ba4ca" x="56.87" y="130.212053" style="stroke: #000000; stroke-width: 0.8"/>
      </g>
     </g>
     <g id="text_11">
      <text style="font: 10px 'DejaVu Sans', 'Bitstream Vera Sans', 'Computer Modern Sans Serif', 'Lucida Grande', 'Verdana', 'Geneva', 'Lucid', 'Arial', 'Helvetica', 'Avant Garde', sans-serif; text-anchor: end" x="49.87" y="134.011272" transform="rotate(-0 49.87 134.011272)">60</text>
     </g>
    </g>
    <g id="ytick_5">
     <g id="line2d_11">
      <g>
       <use xlink:href="#m04834ba4ca" x="56.87" y="106.221686" style="stroke: #000000; stroke-width: 0.8"/>
      </g>
     </g>
     <g id="text_12">
      <text style="font: 10px 'DejaVu Sans', 'Bitstream Vera Sans', 'Computer Modern Sans Serif', 'Lucida Grande', 'Verdana', 'Geneva', 'Lucid', 'Arial', 'Helvetica', 'Avant Garde', sans-serif; text-anchor: end" x="49.87" y="110.020904" transform="rotate(-0 49.87 110.020904)">80</text>
     </g>
    </g>
    <g id="ytick_6">
     <g id="line2d_12">
      <g>
       <use xlink:href="#m04834ba4ca" x="56.87" y="82.231318" style="stroke: #000000; stroke-width: 0.8"/>
      </g>
     </g>
     <g id="text_13">
      <text style="font: 10px 'DejaVu Sans', 'Bitstream Vera Sans', 'Computer Modern Sans Serif', 'Lucida Grande', 'Verdana', 'Geneva', 'Lucid', 'Arial', 'Helvetica', 'Avant Garde', sans-serif; text-anchor: end" x="49.87" y="86.030537" transform="rotate(-0 49.87 86.030537)">100</text>
     </g>
    </g>
    <g id="ytick_7">
     <g id="line2d_13">
      <g>
       <use xlink:href="#m04834ba4ca" x="56.87" y="58.240951" style="stroke: #000000; stroke-width: 0.8"/>
      </g>
     </g>
     <g id="text_14">
      <text style="font: 10px 'DejaVu Sans', 'Bitstream Vera Sans', 'Computer Modern Sans Serif', 'Lucida Grande', 'Verdana', 'Geneva', 'Lucid', 'Arial', 'Helvetica', 'Avant Garde', sans-serif; text-anchor: end" x="49.87" y="62.04017" transform="rotate(-0 49.87 62.04017)">120</text>
     </g>
    </g>
    <g id="ytick_8">
     <g id="line2d_14">
      <g>
       <use xlink:href="#m04834ba4ca" x="56.87" y="34.250584" style="stroke: #000000; stroke-width: 0.8"/>
      </g>
     </g>
     <g id="text_15">
      <text style="font: 10px 'DejaVu Sans', 'Bitstream Vera Sans', 'Computer Modern Sans Serif', 'Lucida Grande', 'Verdana', 'Geneva', 'Lucid', 'Arial', 'Helvetica', 'Avant Garde', sans-serif; text-anchor: end" x="49.87" y="38.049803" transform="rotate(-0 49.87 38.049803)">140</text>
     </g>
    </g>
    <g id="text_16">
     <text style="font: 10px 'DejaVu Sans', 'Bitstream Vera Sans', 'Computer Modern Sans Serif', 'Lucida Grande', 'Verdana', 'Geneva', 'Lucid', 'Arial', 'Helvetica', 'Avant Garde', sans-serif; text-anchor: middle" x="18.702813" y="110.42" transform="rotate(-90 18.702813 110.42)">power (uW)</text>
    </g>
   </g>
   <g id="line2d_15">
    <path d="M 77.738636 139.8082 
L 79.414832 69.036616 
L 81.091028 63.039025 
L 82.767223 46.245768 
L 84.443419 30.652029 
L 86.119615 19.856364 
L 87.795811 72.635172 
L 89.472006 133.810608 
L 91.148202 51.043841 
L 92.824398 119.416388 
L 94.500593 28.252992 
L 96.176789 41.447694 
L 97.852985 63.039025 
L 99.52918 82.231318 
L 101.205376 97.825057 
L 102.881572 57.041433 
L 104.557767 69.036616 
L 106.233963 83.430837 
L 107.910159 42.647213 
L 109.586355 94.226502 
L 111.26255 65.438061 
L 112.938746 113.418796 
L 114.614942 52.243359 
L 116.291137 66.63758 
L 117.967333 46.245768 
L 119.643529 45.046249 
L 121.319724 200.983636 
L 122.99592 48.644804 
L 124.672116 25.853955 
L 126.348311 119.416388 
L 128.024507 75.034208 
L 129.700703 39.048657 
L 131.376899 72.635172 
L 133.053094 27.053474 
L 134.72929 126.613498 
L 136.405486 63.039025 
L 138.081681 41.447694 
L 139.757877 88.22891 
L 141.434073 77.433245 
L 143.110268 57.041433 
L 144.786464 61.839506 
L 146.46266 100.224094 
L 148.138855 94.226502 
L 149.815051 59.44047 
L 151.491247 65.438061 
L 153.167442 69.036616 
L 154.843638 55.841915 
L 156.519834 45.046249 
L 158.19603 48.644804 
L 159.872225 66.63758 
L 161.548421 64.238543 
L 163.224617 198.5846 
L 164.900812 60.639988 
L 166.577008 37.849139 
L 168.253204 43.846731 
L 169.929399 53.442878 
L 171.605595 59.44047 
L 173.281791 52.243359 
L 174.957986 125.41398 
L 176.634182 66.63758 
L 178.310378 54.642396 
L 179.986574 25.853955 
L 181.662769 72.635172 
L 183.338965 55.841915 
L 185.015161 54.642396 
L 186.691356 89.428429 
L 188.367552 198.5846 
L 190.043748 75.034208 
L 191.719943 48.644804 
L 193.396139 53.442878 
L 195.072335 60.639988 
L 196.74853 57.041433 
L 198.424726 52.243359 
L 200.100922 117.017351 
L 201.777118 54.642396 
L 203.453313 58.240951 
L 205.129509 52.243359 
L 206.805705 36.649621 
L 208.4819 53.442878 
L 211.834292 67.837098 
L 213.510487 54.642396 
L 215.186683 70.236135 
L 216.862879 174.594232 
L 218.539074 40.248176 
L 220.21527 63.039025 
L 221.891466 51.043841 
L 223.567662 55.841915 
L 225.243857 30.652029 
L 226.920053 47.445286 
L 228.596249 73.83469 
L 230.272444 63.039025 
L 231.94864 40.248176 
L 233.624836 48.644804 
L 235.301031 39.048657 
L 236.977227 66.63758 
L 238.653423 58.240951 
L 240.329618 91.827465 
L 242.005814 36.649621 
L 243.68201 60.639988 
L 245.358206 29.452511 
L 247.034401 53.442878 
L 248.710597 65.438061 
L 250.386793 55.841915 
L 252.062988 85.829874 
L 253.739184 31.851547 
L 255.41538 52.243359 
L 257.091575 138.608682 
L 258.767771 154.20242 
L 260.443967 39.048657 
L 262.120162 70.236135 
L 263.796358 21.055882 
L 265.472554 65.438061 
L 267.14875 71.435653 
L 268.824945 78.632763 
L 270.501141 121.815424 
L 272.177337 78.632763 
L 273.853532 60.639988 
L 275.529728 53.442878 
L 277.205924 150.603865 
L 278.882119 174.594232 
L 280.558315 58.240951 
L 282.234511 94.226502 
L 283.910706 57.041433 
L 285.586902 53.442878 
L 287.263098 57.041433 
L 288.939294 87.029392 
L 290.615489 70.236135 
L 292.291685 83.430837 
L 293.967881 55.841915 
L 295.644076 52.243359 
L 297.320272 30.652029 
L 300.672663 57.041433 
L 302.348859 115.817833 
L 304.025055 49.844323 
L 305.70125 82.231318 
L 307.377446 88.22891 
L 309.053642 60.639988 
L 310.729838 125.41398 
L 312.406033 40.248176 
L 314.082229 73.83469 
L 315.758425 200.983636 
L 317.43462 69.036616 
L 319.110816 22.2554 
L 320.787012 198.5846 
L 322.463207 46.245768 
L 324.139403 137.409163 
L 325.815599 49.844323 
L 327.491794 49.844323 
L 329.16799 37.849139 
L 330.844186 36.649621 
L 332.520382 115.817833 
L 334.196577 88.22891 
L 335.872773 29.452511 
L 337.548969 42.647213 
L 339.225164 69.036616 
L 340.90136 156.601457 
L 342.577556 113.418796 
L 344.253751 49.844323 
L 345.929947 198.5846 
L 347.606143 34.250584 
L 349.282338 45.046249 
L 350.958534 75.034208 
L 352.63473 59.44047 
L 354.310926 88.22891 
L 355.987121 48.644804 
L 357.663317 82.231318 
L 359.339513 34.250584 
L 361.015708 40.248176 
L 362.691904 39.048657 
L 364.3681 70.236135 
L 366.044295 49.844323 
L 367.720491 135.010126 
L 369.396687 51.043841 
L 371.072882 60.639988 
L 372.749078 64.238543 
L 374.425274 176.993269 
L 377.777665 46.245768 
L 379.453861 130.212053 
L 381.130057 73.83469 
L 382.806252 59.44047 
L 384.482448 76.233727 
L 386.158644 45.046249 
L 387.834839 176.993269 
L 389.511035 46.245768 
L 391.187231 67.837098 
L 392.863426 43.846731 
L 394.539622 60.639988 
L 396.215818 144.606273 
L 397.892014 51.043841 
L 399.568209 42.647213 
L 401.244405 198.5846 
L 402.920601 101.423612 
L 404.596796 40.248176 
L 406.272992 33.051066 
L 407.949188 52.243359 
L 409.625383 117.017351 
L 411.301579 52.243359 
L 412.977775 51.043841 
L 414.65397 33.051066 
L 416.330166 41.447694 
L 418.006362 93.026984 
L 419.682558 49.844323 
L 421.358753 153.002902 
L 423.034949 85.829874 
L 424.711145 85.829874 
L 426.38734 23.454919 
L 428.063536 60.639988 
L 429.739732 45.046249 
L 431.415927 40.248176 
L 433.092123 57.041433 
L 434.768319 155.401939 
L 436.444514 60.639988 
L 438.12071 29.452511 
L 439.796906 79.832282 
L 441.473101 40.248176 
L 443.149297 174.594232 
L 444.825493 21.055882 
L 446.501689 57.041433 
L 448.177884 75.034208 
L 449.85408 88.22891 
L 451.530276 174.594232 
L 453.206471 85.829874 
L 454.882667 63.039025 
L 456.558863 46.245768 
L 458.235058 75.034208 
L 459.911254 27.053474 
L 461.58745 64.238543 
L 463.263645 66.63758 
L 464.939841 59.44047 
L 466.616037 29.452511 
L 468.292233 126.613498 
L 469.968428 113.418796 
L 471.644624 174.594232 
L 473.32082 91.827465 
L 474.997015 45.046249 
L 476.673211 51.043841 
L 478.349407 126.613498 
L 480.025602 69.036616 
L 481.701798 55.841915 
L 483.377994 102.623131 
L 485.054189 66.63758 
L 486.730385 77.433245 
L 488.406581 48.644804 
L 490.082777 120.615906 
L 491.758972 198.5846 
L 495.111364 60.639988 
L 495.111364 60.639988 
" clip-path="url(#p3bb967a89e)" style="fill: none; stroke: #99004d; stroke-width: 0.8; stroke-linecap: square"/>
   </g>
   <g id="patch_3">
    <path d="M 56.87 210.04 
L 56.87 10.8 
" style="fill: none; stroke: #000000; stroke-width: 0.8; stroke-linejoin: miter; stroke-linecap: square"/>
   </g>
   <g id="patch_4">
    <path d="M 515.98 210.04 
L 515.98 10.8 
" style="fill: none; stroke: #000000; stroke-width: 0.8; stroke-linejoin: miter; stroke-linecap: square"/>
   </g>
   <g id="patch_5">
    <path d="M 56.87 210.04 
L 515.98 210.04 
" style="fill: none; stroke: #000000; stroke-width: 0.8; stroke-linejoin: miter; stroke-linecap: square"/>
   </g>
   <g id="patch_6">
    <path d="M 56.87 10.8 
L 515.98 10.8 
" style="fill: none; stroke: #000000; stroke-width: 0.8; stroke-linejoin: miter; stroke-linecap: square"/>
   </g>
  </g>
  <g id="axes_2">
   <g id="matplotlib.axis_3">
    <g id="ytick_9">
     <g id="line2d_16">
      <defs>
       <path id="md15168d431" d="M 0 0 
L 3.5 0 
" style="stroke: #000000; stroke-width: 0.8"/>
      </defs>
      <g>
       <use xlink:href="#md15168d431" x="515.98" y="200.983636" style="stroke: #000000; stroke-width: 0.8"/>
      </g>
     </g>
     <g id="text_17">
      <text style="font: 10px 'DejaVu Sans', 'Bitstream Vera Sans', 'Computer Modern Sans Serif', 'Lucida Grande', 'Verdana', 'Geneva', 'Lucid', 'Arial', 'Helvetica', 'Avant Garde', sans-serif; text-anchor: start" x="522.98" y="204.782855" transform="rotate(-0 522.98 204.782855)">0.0</text>
     </g>
    </g>
    <g id="ytick_10">
     <g id="line2d_17">
      <g>
       <use xlink:href="#md15168d431" x="515.98" y="177.1511" style="stroke: #000000; stroke-width: 0.8"/>
      </g>
     </g>
     <g id="text_18">
      <text style="font: 10px 'DejaVu Sans', 'Bitstream Vera Sans', 'Computer Modern Sans Serif', 'Lucida Grande', 'Verdana', 'Geneva', 'Lucid', 'Arial', 'Helvetica', 'Avant Garde', sans-serif; text-anchor: start" x="522.98" y="180.950319" transform="rotate(-0 522.98 180.950319)">2.5</text>
     </g>
    </g>
    <g id="ytick_11">
     <g id="line2d_18">
      <g>
       <use xlink:href="#md15168d431" x="515.98" y="153.318565" style="stroke: #000000; stroke-width: 0.8"/>
      </g>
     </g>
     <g id="text_19">
      <text style="font: 10px 'DejaVu Sans', 'Bitstream Vera Sans', 'Computer Modern Sans Serif', 'Lucida Grande', 'Verdana', 'Geneva', 'Lucid', 'Arial', 'Helvetica', 'Avant Garde', sans-serif; text-anchor: start" x="522.98" y="157.117783" transform="rotate(-0 522.98 157.117783)">5.0</text>
     </g>
    </g>
    <g id="ytick_12">
     <g id="line2d_19">
      <g>
       <use xlink:href="#md15168d431" x="515.98" y="129.486029" style="stroke: #000000; stroke-width: 0.8"/>
      </g>
     </g>
     <g id="text_20">
      <text style="font: 10px 'DejaVu Sans', 'Bitstream Vera Sans', 'Computer Modern Sans Serif', 'Lucida Grande', 'Verdana', 'Geneva', 'Lucid', 'Arial', 'Helvetica', 'Avant Garde', sans-serif; text-anchor: start" x="522.98" y="133.285247" transform="rotate(-0 522.98 133.285247)">7.5</text>
     </g>
    </g>
    <g id="ytick_13">
     <g id="line2d_20">
      <g>
       <use xlink:href="#md15168d431" x="515.98" y="105.653493" style="stroke: #000000; stroke-width: 0.8"/>
      </g>
     </g>
     <g id="text_21">
      <text style="font: 10px 'DejaVu Sans', 'Bitstream Vera Sans', 'Computer Modern Sans Serif', 'Lucida Grande', 'Verdana', 'Geneva', 'Lucid', 'Arial', 'Helvetica', 'Avant Garde', sans-serif; text-anchor: start" x="522.98" y="109.452712" transform="rotate(-0 522.98 109.452712)">10.0</text>
     </g>
    </g>
    <g id="ytick_14">
     <g id="line2d_21">
      <g>
       <use xlink:href="#md15168d431" x="515.98" y="81.820957" style="stroke: #000000; stroke-width: 0.8"/>
      </g>
     </g>
     <g id="text_22">
      <text style="font: 10px 'DejaVu Sans', 'Bitstream Vera Sans', 'Computer Modern Sans Serif', 'Lucida Grande', 'Verdana', 'Geneva', 'Lucid', 'Arial', 'Helvetica', 'Avant Garde', sans-serif; text-anchor: start" x="522.98" y="85.620176" transform="rotate(-0 522.98 85.620176)">12.5</text>
     </g>
    </g>
    <g id="ytick_15">
     <g id="line2d_22">
      <g>
       <use xlink:href="#md15168d431" x="515.98" y="57.988421" style="stroke: #000000; stroke-width: 0.8"/>
      </g>
     </g>
     <g id="text_23">
      <text style="font: 10px 'DejaVu Sans', 'Bitstream Vera Sans', 'Computer Modern Sans Serif', 'Lucida Grande', 'Verdana', 'Geneva', 'Lucid', 'Arial', 'Helvetica', 'Avant Garde', sans-serif; text-anchor: start" x="522.98" y="61.78764" transform="rotate(-0 522.98 61.78764)">15.0</text>
     </g>
    </g>
    <g id="ytick_16">
     <g id="line2d_23">
      <g>
       <use xlink:href="#md15168d431" x="515.98" y="34.155885" style="stroke: #000000; stroke-width: 0.8"/>
      </g>
     </g>
     <g id="text_24">
      <text style="font: 10px 'DejaVu Sans', 'Bitstream Vera Sans', 'Computer Modern Sans Serif', 'Lucida Grande', 'Verdana', 'Geneva', 'Lucid', 'Arial', 'Helvetica', 'Avant Garde', sans-serif; text-anchor: start" x="522.98" y="37.955104" transform="rotate(-0 522.98 37.955104)">17.5</text>
     </g>
    </g>
    <g id="text_25">
     <text style="font: 10px 'DejaVu Sans', 'Bitstream Vera Sans', 'Computer Modern Sans Serif', 'Lucida Grande', 'Verdana', 'Geneva', 'Lucid', 'Arial', 'Helvetica', 'Avant Garde', sans-serif; text-anchor: middle" x="562.844063" y="110.42" transform="rotate(-90 562.844063 110.42)">hw(data)</text>
    </g>
   </g>
   <g id="line2d_24">
    <path d="M 77.738636 172.384593 
L 79.414832 96.120478 
L 81.091028 86.587464 
L 82.767223 38.922392 
L 84.443419 48.455407 
L 86.119615 96.120478 
L 87.795811 96.120478 
L 89.472006 172.384593 
L 91.148202 67.521435 
L 92.824398 162.851579 
L 94.500593 77.05445 
L 96.176789 19.856364 
L 97.852985 115.186507 
L 99.52918 124.719522 
L 101.205376 143.78555 
L 102.881572 86.587464 
L 104.557767 96.120478 
L 106.233963 134.252536 
L 107.910159 48.455407 
L 109.586355 143.78555 
L 111.26255 86.587464 
L 112.938746 162.851579 
L 114.614942 38.922392 
L 116.291137 48.455407 
L 117.967333 19.856364 
L 119.643529 77.05445 
L 121.319724 200.983636 
L 122.99592 38.922392 
L 124.672116 67.521435 
L 126.348311 162.851579 
L 128.024507 29.389378 
L 129.700703 29.389378 
L 131.376899 96.120478 
L 133.053094 38.922392 
L 134.72929 162.851579 
L 136.405486 86.587464 
L 138.081681 48.455407 
L 139.757877 143.78555 
L 141.434073 115.186507 
L 143.110268 105.653493 
L 144.786464 105.653493 
L 146.46266 143.78555 
L 148.138855 153.318565 
L 149.815051 105.653493 
L 151.491247 115.186507 
L 153.167442 86.587464 
L 154.843638 48.455407 
L 156.519834 86.587464 
L 158.19603 57.988421 
L 159.872225 105.653493 
L 161.548421 57.988421 
L 163.224617 200.983636 
L 164.900812 48.455407 
L 166.577008 38.922392 
L 168.253204 67.521435 
L 169.929399 67.521435 
L 171.605595 86.587464 
L 173.281791 77.05445 
L 174.957986 162.851579 
L 176.634182 57.988421 
L 178.310378 48.455407 
L 179.986574 77.05445 
L 181.662769 124.719522 
L 183.338965 67.521435 
L 185.015161 48.455407 
L 186.691356 143.78555 
L 188.367552 200.983636 
L 190.043748 115.186507 
L 191.719943 57.988421 
L 193.396139 48.455407 
L 195.072335 67.521435 
L 196.74853 57.988421 
L 198.424726 38.922392 
L 200.100922 162.851579 
L 201.777118 38.922392 
L 203.453313 77.05445 
L 205.129509 38.922392 
L 206.805705 48.455407 
L 208.4819 77.05445 
L 210.158096 96.120478 
L 211.834292 105.653493 
L 213.510487 67.521435 
L 215.186683 105.653493 
L 216.862879 191.450622 
L 218.539074 38.922392 
L 220.21527 38.922392 
L 223.567662 96.120478 
L 225.243857 48.455407 
L 226.920053 38.922392 
L 228.596249 115.186507 
L 230.272444 96.120478 
L 231.94864 67.521435 
L 233.624836 96.120478 
L 235.301031 96.120478 
L 236.977227 124.719522 
L 238.653423 105.653493 
L 240.329618 143.78555 
L 242.005814 86.587464 
L 243.68201 77.05445 
L 245.358206 77.05445 
L 247.034401 57.988421 
L 248.710597 124.719522 
L 250.386793 57.988421 
L 252.062988 115.186507 
L 253.739184 77.05445 
L 255.41538 86.587464 
L 257.091575 162.851579 
L 258.767771 181.917608 
L 260.443967 29.389378 
L 262.120162 124.719522 
L 263.796358 48.455407 
L 265.472554 29.389378 
L 267.14875 115.186507 
L 268.824945 115.186507 
L 270.501141 162.851579 
L 273.853532 105.653493 
L 275.529728 48.455407 
L 277.205924 181.917608 
L 278.882119 191.450622 
L 280.558315 38.922392 
L 282.234511 143.78555 
L 283.910706 86.587464 
L 285.586902 48.455407 
L 287.263098 115.186507 
L 288.939294 124.719522 
L 290.615489 115.186507 
L 292.291685 143.78555 
L 293.967881 48.455407 
L 295.644076 19.856364 
L 297.320272 48.455407 
L 298.996468 48.455407 
L 300.672663 86.587464 
L 302.348859 162.851579 
L 304.025055 96.120478 
L 305.70125 124.719522 
L 307.377446 134.252536 
L 309.053642 96.120478 
L 310.729838 162.851579 
L 312.406033 48.455407 
L 314.082229 143.78555 
L 315.758425 200.983636 
L 317.43462 115.186507 
L 319.110816 38.922392 
L 320.787012 200.983636 
L 322.463207 48.455407 
L 324.139403 172.384593 
L 325.815599 77.05445 
L 327.491794 77.05445 
L 329.16799 105.653493 
L 330.844186 38.922392 
L 332.520382 153.318565 
L 334.196577 134.252536 
L 335.872773 67.521435 
L 337.548969 57.988421 
L 339.225164 115.186507 
L 340.90136 181.917608 
L 342.577556 143.78555 
L 344.253751 67.521435 
L 345.929947 200.983636 
L 347.606143 38.922392 
L 349.282338 48.455407 
L 350.958534 105.653493 
L 352.63473 67.521435 
L 354.310926 143.78555 
L 355.987121 96.120478 
L 357.663317 143.78555 
L 359.339513 57.988421 
L 361.015708 57.988421 
L 362.691904 77.05445 
L 364.3681 115.186507 
L 366.044295 29.389378 
L 367.720491 162.851579 
L 369.396687 48.455407 
L 371.072882 115.186507 
L 372.749078 86.587464 
L 374.425274 191.450622 
L 376.10147 153.318565 
L 377.777665 38.922392 
L 379.453861 162.851579 
L 381.130057 134.252536 
L 382.806252 57.988421 
L 384.482448 115.186507 
L 386.158644 48.455407 
L 387.834839 191.450622 
L 389.511035 57.988421 
L 391.187231 86.587464 
L 392.863426 48.455407 
L 394.539622 67.521435 
L 396.215818 172.384593 
L 397.892014 19.856364 
L 399.568209 96.120478 
L 401.244405 200.983636 
L 402.920601 143.78555 
L 404.596796 29.389378 
L 406.272992 77.05445 
L 407.949188 29.389378 
L 409.625383 162.851579 
L 411.301579 67.521435 
L 412.977775 48.455407 
L 414.65397 67.521435 
L 416.330166 38.922392 
L 418.006362 143.78555 
L 419.682558 67.521435 
L 421.358753 181.917608 
L 423.034949 143.78555 
L 424.711145 124.719522 
L 426.38734 67.521435 
L 428.063536 38.922392 
L 429.739732 105.653493 
L 431.415927 48.455407 
L 433.092123 105.653493 
L 434.768319 181.917608 
L 436.444514 105.653493 
L 438.12071 19.856364 
L 439.796906 134.252536 
L 441.473101 57.988421 
L 443.149297 191.450622 
L 444.825493 67.521435 
L 446.501689 86.587464 
L 448.177884 77.05445 
L 449.85408 124.719522 
L 451.530276 191.450622 
L 453.206471 143.78555 
L 454.882667 115.186507 
L 456.558863 38.922392 
L 458.235058 96.120478 
L 459.911254 57.988421 
L 461.58745 96.120478 
L 463.263645 115.186507 
L 464.939841 57.988421 
L 466.616037 38.922392 
L 468.292233 162.851579 
L 469.968428 162.851579 
L 471.644624 191.450622 
L 473.32082 134.252536 
L 474.997015 38.922392 
L 476.673211 29.389378 
L 478.349407 162.851579 
L 480.025602 86.587464 
L 481.701798 96.120478 
L 483.377994 134.252536 
L 485.054189 124.719522 
L 486.730385 134.252536 
L 488.406581 77.05445 
L 490.082777 162.851579 
L 491.758972 200.983636 
L 493.435168 172.384593 
L 495.111364 67.521435 
L 495.111364 67.521435 
" clip-path="url(#p3bb967a89e)" style="fill: none; stroke: #235996; stroke-width: 0.8; stroke-linecap: square"/>
   </g>
   <g id="patch_7">
    <path d="M 56.87 210.04 
L 56.87 10.8 
" style="fill: none; stroke: #000000; stroke-width: 0.8; stroke-linejoin: miter; stroke-linecap: square"/>
   </g>
   <g id="patch_8">
    <path d="M 515.98 210.04 
L 515.98 10.8 
" style="fill: none; stroke: #000000; stroke-width: 0.8; stroke-linejoin: miter; stroke-linecap: square"/>
   </g>
   <g id="patch_9">
    <path d="M 56.87 210.04 
L 515.98 210.04 
" style="fill: none; stroke: #000000; stroke-width: 0.8; stroke-linejoin: miter; stroke-linecap: square"/>
   </g>
   <g id="patch_10">
    <path d="M 56.87 10.8 
L 515.98 10.8 
" style="fill: none; stroke: #000000; stroke-width: 0.8; stroke-linejoin: miter; stroke-linecap: square"/>
   </g>
   <g id="legend_1">
    <g id="patch_11">
     <path d="M 179.209125 43.4565 
L 393.640875 43.4565 
Q 396.520875 43.4565 396.520875 40.5765 
L 396.520875 20.88 
Q 396.520875 18 393.640875 18 
L 179.209125 18 
Q 176.329125 18 176.329125 20.88 
L 176.329125 40.5765 
Q 176.329125 43.4565 179.209125 43.4565 
z
" style="fill: #ffffff; opacity: 0.8; stroke: #000000; stroke-linejoin: miter"/>
    </g>
    <g id="line2d_25">
     <path d="M 182.089125 29.66175 
L 196.489125 29.66175 
L 210.889125 29.66175 
" style="fill: none; stroke: #99004d; stroke-width: 0.8; stroke-linecap: square"/>
    </g>
    <g id="text_26">
     <text style="font: 14.4px 'DejaVu Sans', 'Bitstream Vera Sans', 'Computer Modern Sans Serif', 'Lucida Grande', 'Verdana', 'Geneva', 'Lucid', 'Arial', 'Helvetica', 'Avant Garde', sans-serif; text-anchor: start" x="222.409125" y="34.70175" transform="rotate(-0 222.409125 34.70175)">power</text>
    </g>
    <g id="line2d_26">
     <path d="M 295.718625 29.66175 
L 310.118625 29.66175 
L 324.518625 29.66175 
" style="fill: none; stroke: #235996; stroke-width: 0.8; stroke-linecap: square"/>
    </g>
    <g id="text_27">
     <text style="font: 14.4px 'DejaVu Sans', 'Bitstream Vera Sans', 'Computer Modern Sans Serif', 'Lucida Grande', 'Verdana', 'Geneva', 'Lucid', 'Arial', 'Helvetica', 'Avant Garde', sans-serif; text-anchor: start" x="336.038625" y="34.70175" transform="rotate(-0 336.038625 34.70175)">hw(rs1)</text>
    </g>
   </g>
  </g>
 </g>
 <defs>
  <clipPath id="p3bb967a89e">
   <rect x="56.87" y="10.8" width="459.11" height="199.24"/>
  </clipPath>
 </defs>
</svg>
