<?xml version="1.0" encoding="utf-8" standalone="no"?>
<!DOCTYPE svg PUBLIC "-//W3C//DTD SVG 1.1//EN"
  "http://www.w3.org/Graphics/SVG/1.1/DTD/svg11.dtd">
<svg xmlns:xlink="http://www.w3.org/1999/xlink" width="576pt" height="252pt" viewBox="0 0 576 252" xmlns="http://www.w3.org/2000/svg" version="1.1">
 <metadata>
  <rdf:RDF xmlns:dc="http://purl.org/dc/elements/1.1/" xmlns:cc="http://creativecommons.org/ns#" xmlns:rdf="http://www.w3.org/1999/02/22-rdf-syntax-ns#">
   <cc:Work>
    <dc:type rdf:resource="http://purl.org/dc/dcmitype/StillImage"/>
    <dc:date>2023-12-06T01:44:55.115360</dc:date>
    <dc:format>image/svg+xml</dc:format>
    <dc:creator>
     <cc:Agent>
      <dc:title>Matplotlib v3.7.4, https://matplotlib.org/</dc:title>
     </cc:Agent>
    </dc:creator>
   </cc:Work>
  </rdf:RDF>
 </metadata>
 <defs>
  <style type="text/css">*{stroke-linejoin: round; stroke-linecap: butt}</style>
 </defs>
 <g id="figure_1">
  <g id="patch_1">
   <path d="M 0 252 
L 576 252 
L 576 0 
L 0 0 
z
" style="fill: #ffffff"/>
  </g>
  <g id="axes_1">
   <g id="patch_2">
    <path d="M 56.87 210.04 
L 515.98 210.04 
L 515.98 10.8 
L 56.87 10.8 
z
" style="fill: #ffffff"/>
   </g>
   <g id="matplotlib.axis_1">
    <g id="xtick_1">
     <g id="line2d_1">
      <defs>
       <path id="mfe5dac4bf7" d="M 0 0 
L 0 3.5 
" style="stroke: #000000; stroke-width: 0.8"/>
      </defs>
      <g>
       <use xlink:href="#mfe5dac4bf7" x="77.738636" y="210.04" style="stroke: #000000; stroke-width: 0.8"/>
      </g>
     </g>
     <g id="text_1">
      <text style="font: 10px 'DejaVu Sans', 'Bitstream Vera Sans', 'Computer Modern Sans Serif', 'Lucida Grande', 'Verdana', 'Geneva', 'Lucid', 'Arial', 'Helvetica', 'Avant Garde', sans-serif; text-anchor: middle" x="77.738636" y="224.638438" transform="rotate(-0 77.738636 224.638438)">0</text>
     </g>
    </g>
    <g id="xtick_2">
     <g id="line2d_2">
      <g>
       <use xlink:href="#mfe5dac4bf7" x="161.548421" y="210.04" style="stroke: #000000; stroke-width: 0.8"/>
      </g>
     </g>
     <g id="text_2">
      <text style="font: 10px 'DejaVu Sans', 'Bitstream Vera Sans', 'Computer Modern Sans Serif', 'Lucida Grande', 'Verdana', 'Geneva', 'Lucid', 'Arial', 'Helvetica', 'Avant Garde', sans-serif; text-anchor: middle" x="161.548421" y="224.638438" transform="rotate(-0 161.548421 224.638438)">50</text>
     </g>
    </g>
    <g id="xtick_3">
     <g id="line2d_3">
      <g>
       <use xlink:href="#mfe5dac4bf7" x="245.358206" y="210.04" style="stroke: #000000; stroke-width: 0.8"/>
      </g>
     </g>
     <g id="text_3">
      <text style="font: 10px 'DejaVu Sans', 'Bitstream Vera Sans', 'Computer Modern Sans Serif', 'Lucida Grande', 'Verdana', 'Geneva', 'Lucid', 'Arial', 'Helvetica', 'Avant Garde', sans-serif; text-anchor: middle" x="245.358206" y="224.638438" transform="rotate(-0 245.358206 224.638438)">100</text>
     </g>
    </g>
    <g id="xtick_4">
     <g id="line2d_4">
      <g>
       <use xlink:href="#mfe5dac4bf7" x="329.16799" y="210.04" style="stroke: #000000; stroke-width: 0.8"/>
      </g>
     </g>
     <g id="text_4">
      <text style="font: 10px 'DejaVu Sans', 'Bitstream Vera Sans', 'Computer Modern Sans Serif', 'Lucida Grande', 'Verdana', 'Geneva', 'Lucid', 'Arial', 'Helvetica', 'Avant Garde', sans-serif; text-anchor: middle" x="329.16799" y="224.638438" transform="rotate(-0 329.16799 224.638438)">150</text>
     </g>
    </g>
    <g id="xtick_5">
     <g id="line2d_5">
      <g>
       <use xlink:href="#mfe5dac4bf7" x="412.977775" y="210.04" style="stroke: #000000; stroke-width: 0.8"/>
      </g>
     </g>
     <g id="text_5">
      <text style="font: 10px 'DejaVu Sans', 'Bitstream Vera Sans', 'Computer Modern Sans Serif', 'Lucida Grande', 'Verdana', 'Geneva', 'Lucid', 'Arial', 'Helvetica', 'Avant Garde', sans-serif; text-anchor: middle" x="412.977775" y="224.638438" transform="rotate(-0 412.977775 224.638438)">200</text>
     </g>
    </g>
    <g id="xtick_6">
     <g id="line2d_6">
      <g>
       <use xlink:href="#mfe5dac4bf7" x="496.787559" y="210.04" style="stroke: #000000; stroke-width: 0.8"/>
      </g>
     </g>
     <g id="text_6">
      <text style="font: 10px 'DejaVu Sans', 'Bitstream Vera Sans', 'Computer Modern Sans Serif', 'Lucida Grande', 'Verdana', 'Geneva', 'Lucid', 'Arial', 'Helvetica', 'Avant Garde', sans-serif; text-anchor: middle" x="496.787559" y="224.638438" transform="rotate(-0 496.787559 224.638438)">250</text>
     </g>
    </g>
    <g id="text_7">
     <text style="font: 10px 'DejaVu Sans', 'Bitstream Vera Sans', 'Computer Modern Sans Serif', 'Lucida Grande', 'Verdana', 'Geneva', 'Lucid', 'Arial', 'Helvetica', 'Avant Garde', sans-serif; text-anchor: middle" x="286.425" y="238.316563" transform="rotate(-0 286.425 238.316563)">Cycles</text>
    </g>
   </g>
   <g id="matplotlib.axis_2">
    <g id="ytick_1">
     <g id="line2d_7">
      <defs>
       <path id="m86c3230dcb" d="M 0 0 
L -3.5 0 
" style="stroke: #000000; stroke-width: 0.8"/>
      </defs>
      <g>
       <use xlink:href="#m86c3230dcb" x="56.87" y="202.199256" style="stroke: #000000; stroke-width: 0.8"/>
      </g>
     </g>
     <g id="text_8">
      <text style="font: 10px 'DejaVu Sans', 'Bitstream Vera Sans', 'Computer Modern Sans Serif', 'Lucida Grande', 'Verdana', 'Geneva', 'Lucid', 'Arial', 'Helvetica', 'Avant Garde', sans-serif; text-anchor: end" x="49.87" y="205.998474" transform="rotate(-0 49.87 205.998474)">0</text>
     </g>
    </g>
    <g id="ytick_2">
     <g id="line2d_8">
      <g>
       <use xlink:href="#m86c3230dcb" x="56.87" y="177.88687" style="stroke: #000000; stroke-width: 0.8"/>
      </g>
     </g>
     <g id="text_9">
      <text style="font: 10px 'DejaVu Sans', 'Bitstream Vera Sans', 'Computer Modern Sans Serif', 'Lucida Grande', 'Verdana', 'Geneva', 'Lucid', 'Arial', 'Helvetica', 'Avant Garde', sans-serif; text-anchor: end" x="49.87" y="181.686089" transform="rotate(-0 49.87 181.686089)">20</text>
     </g>
    </g>
    <g id="ytick_3">
     <g id="line2d_9">
      <g>
       <use xlink:href="#m86c3230dcb" x="56.87" y="153.574484" style="stroke: #000000; stroke-width: 0.8"/>
      </g>
     </g>
     <g id="text_10">
      <text style="font: 10px 'DejaVu Sans', 'Bitstream Vera Sans', 'Computer Modern Sans Serif', 'Lucida Grande', 'Verdana', 'Geneva', 'Lucid', 'Arial', 'Helvetica', 'Avant Garde', sans-serif; text-anchor: end" x="49.87" y="157.373703" transform="rotate(-0 49.87 157.373703)">40</text>
     </g>
    </g>
    <g id="ytick_4">
     <g id="line2d_10">
      <g>
       <use xlink:href="#m86c3230dcb" x="56.87" y="129.262099" style="stroke: #000000; stroke-width: 0.8"/>
      </g>
     </g>
     <g id="text_11">
      <text style="font: 10px 'DejaVu Sans', 'Bitstream Vera Sans', 'Computer Modern Sans Serif', 'Lucida Grande', 'Verdana', 'Geneva', 'Lucid', 'Arial', 'Helvetica', 'Avant Garde', sans-serif; text-anchor: end" x="49.87" y="133.061318" transform="rotate(-0 49.87 133.061318)">60</text>
     </g>
    </g>
    <g id="ytick_5">
     <g id="line2d_11">
      <g>
       <use xlink:href="#m86c3230dcb" x="56.87" y="104.949713" style="stroke: #000000; stroke-width: 0.8"/>
      </g>
     </g>
     <g id="text_12">
      <text style="font: 10px 'DejaVu Sans', 'Bitstream Vera Sans', 'Computer Modern Sans Serif', 'Lucida Grande', 'Verdana', 'Geneva', 'Lucid', 'Arial', 'Helvetica', 'Avant Garde', sans-serif; text-anchor: end" x="49.87" y="108.748932" transform="rotate(-0 49.87 108.748932)">80</text>
     </g>
    </g>
    <g id="ytick_6">
     <g id="line2d_12">
      <g>
       <use xlink:href="#m86c3230dcb" x="56.87" y="80.637328" style="stroke: #000000; stroke-width: 0.8"/>
      </g>
     </g>
     <g id="text_13">
      <text style="font: 10px 'DejaVu Sans', 'Bitstream Vera Sans', 'Computer Modern Sans Serif', 'Lucida Grande', 'Verdana', 'Geneva', 'Lucid', 'Arial', 'Helvetica', 'Avant Garde', sans-serif; text-anchor: end" x="49.87" y="84.436546" transform="rotate(-0 49.87 84.436546)">100</text>
     </g>
    </g>
    <g id="ytick_7">
     <g id="line2d_13">
      <g>
       <use xlink:href="#m86c3230dcb" x="56.87" y="56.324942" style="stroke: #000000; stroke-width: 0.8"/>
      </g>
     </g>
     <g id="text_14">
      <text style="font: 10px 'DejaVu Sans', 'Bitstream Vera Sans', 'Computer Modern Sans Serif', 'Lucida Grande', 'Verdana', 'Geneva', 'Lucid', 'Arial', 'Helvetica', 'Avant Garde', sans-serif; text-anchor: end" x="49.87" y="60.124161" transform="rotate(-0 49.87 60.124161)">120</text>
     </g>
    </g>
    <g id="ytick_8">
     <g id="line2d_14">
      <g>
       <use xlink:href="#m86c3230dcb" x="56.87" y="32.012556" style="stroke: #000000; stroke-width: 0.8"/>
      </g>
     </g>
     <g id="text_15">
      <text style="font: 10px 'DejaVu Sans', 'Bitstream Vera Sans', 'Computer Modern Sans Serif', 'Lucida Grande', 'Verdana', 'Geneva', 'Lucid', 'Arial', 'Helvetica', 'Avant Garde', sans-serif; text-anchor: end" x="49.87" y="35.811775" transform="rotate(-0 49.87 35.811775)">140</text>
     </g>
    </g>
    <g id="text_16">
     <text style="font: 10px 'DejaVu Sans', 'Bitstream Vera Sans', 'Computer Modern Sans Serif', 'Lucida Grande', 'Verdana', 'Geneva', 'Lucid', 'Arial', 'Helvetica', 'Avant Garde', sans-serif; text-anchor: middle" x="18.702813" y="110.42" transform="rotate(-90 18.702813 110.42)">power (uW)</text>
    </g>
   </g>
   <g id="line2d_15">
    <path d="M 77.738636 39.306272 
L 79.414832 27.150079 
L 81.091028 36.875034 
L 82.767223 44.168749 
L 84.443419 42.95313 
L 86.119615 44.168749 
L 87.795811 156.005723 
L 89.472006 25.93446 
L 91.148202 52.678084 
L 92.824398 58.756181 
L 94.500593 55.109323 
L 96.176789 66.049896 
L 97.852985 50.246846 
L 99.52918 83.068566 
L 101.205376 46.599988 
L 102.881572 52.678084 
L 104.557767 49.031226 
L 106.233963 34.443795 
L 107.910159 66.049896 
L 109.586355 92.79352 
L 111.26255 62.403038 
L 112.938746 73.343612 
L 114.614942 53.893703 
L 116.291137 92.79352 
L 117.967333 67.265516 
L 119.643529 32.012556 
L 121.319724 157.221342 
L 122.99592 59.9718 
L 124.672116 41.737511 
L 126.348311 106.165333 
L 128.024507 198.552398 
L 129.700703 76.99047 
L 131.376899 85.499805 
L 133.053094 63.618658 
L 134.72929 23.503221 
L 136.405486 27.150079 
L 138.081681 44.168749 
L 139.757877 55.109323 
L 141.434073 44.168749 
L 143.110268 52.678084 
L 144.786464 44.168749 
L 146.46266 134.124576 
L 148.138855 154.790104 
L 149.815051 62.403038 
L 151.491247 176.671251 
L 153.167442 40.521891 
L 154.843638 45.384369 
L 156.519834 66.049896 
L 158.19603 159.652581 
L 159.872225 39.306272 
L 161.548421 50.246846 
L 163.224617 53.893703 
L 164.900812 42.95313 
L 166.577008 39.306272 
L 168.253204 45.384369 
L 169.929399 52.678084 
L 171.605595 198.552398 
L 173.281791 35.659414 
L 174.957986 86.715424 
L 176.634182 153.574484 
L 178.310378 44.168749 
L 179.986574 27.150079 
L 181.662769 56.324942 
L 183.338965 94.00914 
L 185.015161 90.362282 
L 186.691356 50.246846 
L 188.367552 160.8682 
L 190.043748 24.718841 
L 191.719943 46.599988 
L 193.396139 75.774851 
L 195.072335 44.168749 
L 196.74853 55.109323 
L 198.424726 79.421708 
L 200.100922 42.95313 
L 201.777118 42.95313 
L 203.453313 64.834277 
L 205.129509 52.678084 
L 206.805705 86.715424 
L 208.4819 114.674667 
L 210.158096 53.893703 
L 211.834292 198.552398 
L 213.510487 67.265516 
L 215.186683 79.421708 
L 216.862879 74.559231 
L 218.539074 47.815607 
L 220.21527 56.324942 
L 221.891466 84.284185 
L 223.567662 98.871617 
L 225.243857 34.443795 
L 226.920053 58.756181 
L 228.596249 30.796937 
L 230.272444 49.031226 
L 231.94864 176.671251 
L 233.624836 47.815607 
L 235.301031 200.983636 
L 236.977227 64.834277 
L 238.653423 41.737511 
L 240.329618 30.796937 
L 242.005814 42.95313 
L 243.68201 38.090653 
L 245.358206 153.574484 
L 247.034401 53.893703 
L 248.710597 67.265516 
L 250.386793 114.674667 
L 252.062988 112.243429 
L 253.739184 41.737511 
L 255.41538 56.324942 
L 257.091575 51.462465 
L 258.767771 52.678084 
L 260.443967 200.983636 
L 262.120162 40.521891 
L 263.796358 74.559231 
L 265.472554 50.246846 
L 267.14875 157.221342 
L 268.824945 162.083819 
L 270.501141 42.95313 
L 272.177337 66.049896 
L 273.853532 28.365699 
L 275.529728 59.9718 
L 277.205924 29.581318 
L 278.882119 67.265516 
L 280.558315 66.049896 
L 282.234511 49.031226 
L 283.910706 85.499805 
L 285.586902 119.537145 
L 287.263098 45.384369 
L 288.939294 160.8682 
L 290.615489 59.9718 
L 292.291685 66.049896 
L 293.967881 149.927627 
L 295.644076 28.365699 
L 297.320272 55.109323 
L 298.996468 45.384369 
L 300.672663 45.384369 
L 302.348859 72.127993 
L 304.025055 57.540561 
L 305.70125 198.552398 
L 307.377446 198.552398 
L 309.053642 57.540561 
L 310.729838 42.95313 
L 312.406033 33.228176 
L 314.082229 95.224759 
L 315.758425 100.087236 
L 317.43462 96.440378 
L 319.110816 132.908957 
L 320.787012 149.927627 
L 322.463207 138.987053 
L 324.139403 39.306272 
L 325.815599 198.552398 
L 327.491794 70.912373 
L 329.16799 89.146663 
L 330.844186 58.756181 
L 332.520382 175.455631 
L 334.196577 22.287602 
L 335.872773 38.090653 
L 337.548969 67.265516 
L 339.225164 63.618658 
L 340.90136 89.146663 
L 342.577556 49.031226 
L 344.253751 85.499805 
L 345.929947 61.187419 
L 347.606143 149.927627 
L 349.282338 59.9718 
L 350.958534 40.521891 
L 352.63473 109.81219 
L 354.310926 19.856364 
L 355.987121 158.436962 
L 357.663317 131.693337 
L 359.339513 200.983636 
L 361.015708 49.031226 
L 362.691904 198.552398 
L 364.3681 39.306272 
L 366.044295 28.365699 
L 367.720491 29.581318 
L 369.396687 115.890287 
L 371.072882 67.265516 
L 372.749078 35.659414 
L 374.425274 47.815607 
L 376.10147 55.109323 
L 377.777665 118.321525 
L 379.453861 40.521891 
L 381.130057 39.306272 
L 382.806252 35.659414 
L 384.482448 198.552398 
L 386.158644 39.306272 
L 387.834839 68.481135 
L 389.511035 174.240012 
L 391.187231 35.659414 
L 392.863426 44.168749 
L 394.539622 89.146663 
L 396.215818 46.599988 
L 397.892014 45.384369 
L 399.568209 74.559231 
L 401.244405 47.815607 
L 402.920601 42.95313 
L 404.596796 104.949713 
L 406.272992 46.599988 
L 407.949188 45.384369 
L 409.625383 47.815607 
L 411.301579 53.893703 
L 412.977775 140.202672 
L 414.65397 57.540561 
L 416.330166 159.652581 
L 418.006362 53.893703 
L 419.682558 29.581318 
L 421.358753 106.165333 
L 423.034949 61.187419 
L 424.711145 42.95313 
L 426.38734 66.049896 
L 428.063536 128.04648 
L 429.739732 52.678084 
L 431.415927 78.206089 
L 433.092123 75.774851 
L 434.768319 154.790104 
L 436.444514 59.9718 
L 438.12071 44.168749 
L 439.796906 53.893703 
L 441.473101 70.912373 
L 443.149297 55.109323 
L 444.825493 56.324942 
L 446.501689 30.796937 
L 448.177884 57.540561 
L 449.85408 66.049896 
L 451.530276 55.109323 
L 453.206471 69.696754 
L 454.882667 51.462465 
L 456.558863 57.540561 
L 458.235058 125.615241 
L 459.911254 149.927627 
L 461.58745 104.949713 
L 463.263645 76.99047 
L 464.939841 36.875034 
L 466.616037 107.380952 
L 468.292233 51.462465 
L 469.968428 46.599988 
L 471.644624 21.071983 
L 473.32082 47.815607 
L 474.997015 80.637328 
L 476.673211 49.031226 
L 478.349407 134.124576 
L 480.025602 56.324942 
L 481.701798 45.384369 
L 483.377994 30.796937 
L 485.054189 59.9718 
L 486.730385 47.815607 
L 488.406581 55.109323 
L 490.082777 39.306272 
L 491.758972 56.324942 
L 493.435168 50.246846 
L 495.111364 46.599988 
L 495.111364 46.599988 
" clip-path="url(#p5dc04db3e1)" style="fill: none; stroke: #99004d; stroke-width: 0.8; stroke-linecap: square"/>
   </g>
   <g id="patch_3">
    <path d="M 56.87 210.04 
L 56.87 10.8 
" style="fill: none; stroke: #000000; stroke-width: 0.8; stroke-linejoin: miter; stroke-linecap: square"/>
   </g>
   <g id="patch_4">
    <path d="M 515.98 210.04 
L 515.98 10.8 
" style="fill: none; stroke: #000000; stroke-width: 0.8; stroke-linejoin: miter; stroke-linecap: square"/>
   </g>
   <g id="patch_5">
    <path d="M 56.87 210.04 
L 515.98 210.04 
" style="fill: none; stroke: #000000; stroke-width: 0.8; stroke-linejoin: miter; stroke-linecap: square"/>
   </g>
   <g id="patch_6">
    <path d="M 56.87 10.8 
L 515.98 10.8 
" style="fill: none; stroke: #000000; stroke-width: 0.8; stroke-linejoin: miter; stroke-linecap: square"/>
   </g>
  </g>
  <g id="axes_2">
   <g id="matplotlib.axis_3">
    <g id="ytick_9">
     <g id="line2d_16">
      <defs>
       <path id="mb2c284df08" d="M 0 0 
L 3.5 0 
" style="stroke: #000000; stroke-width: 0.8"/>
      </defs>
      <g>
       <use xlink:href="#mb2c284df08" x="515.98" y="200.983636" style="stroke: #000000; stroke-width: 0.8"/>
      </g>
     </g>
     <g id="text_17">
      <text style="font: 10px 'DejaVu Sans', 'Bitstream Vera Sans', 'Computer Modern Sans Serif', 'Lucida Grande', 'Verdana', 'Geneva', 'Lucid', 'Arial', 'Helvetica', 'Avant Garde', sans-serif; text-anchor: start" x="522.98" y="204.782855" transform="rotate(-0 522.98 204.782855)">0.0</text>
     </g>
    </g>
    <g id="ytick_10">
     <g id="line2d_17">
      <g>
       <use xlink:href="#mb2c284df08" x="515.98" y="177.1511" style="stroke: #000000; stroke-width: 0.8"/>
      </g>
     </g>
     <g id="text_18">
      <text style="font: 10px 'DejaVu Sans', 'Bitstream Vera Sans', 'Computer Modern Sans Serif', 'Lucida Grande', 'Verdana', 'Geneva', 'Lucid', 'Arial', 'Helvetica', 'Avant Garde', sans-serif; text-anchor: start" x="522.98" y="180.950319" transform="rotate(-0 522.98 180.950319)">2.5</text>
     </g>
    </g>
    <g id="ytick_11">
     <g id="line2d_18">
      <g>
       <use xlink:href="#mb2c284df08" x="515.98" y="153.318565" style="stroke: #000000; stroke-width: 0.8"/>
      </g>
     </g>
     <g id="text_19">
      <text style="font: 10px 'DejaVu Sans', 'Bitstream Vera Sans', 'Computer Modern Sans Serif', 'Lucida Grande', 'Verdana', 'Geneva', 'Lucid', 'Arial', 'Helvetica', 'Avant Garde', sans-serif; text-anchor: start" x="522.98" y="157.117783" transform="rotate(-0 522.98 157.117783)">5.0</text>
     </g>
    </g>
    <g id="ytick_12">
     <g id="line2d_19">
      <g>
       <use xlink:href="#mb2c284df08" x="515.98" y="129.486029" style="stroke: #000000; stroke-width: 0.8"/>
      </g>
     </g>
     <g id="text_20">
      <text style="font: 10px 'DejaVu Sans', 'Bitstream Vera Sans', 'Computer Modern Sans Serif', 'Lucida Grande', 'Verdana', 'Geneva', 'Lucid', 'Arial', 'Helvetica', 'Avant Garde', sans-serif; text-anchor: start" x="522.98" y="133.285247" transform="rotate(-0 522.98 133.285247)">7.5</text>
     </g>
    </g>
    <g id="ytick_13">
     <g id="line2d_20">
      <g>
       <use xlink:href="#mb2c284df08" x="515.98" y="105.653493" style="stroke: #000000; stroke-width: 0.8"/>
      </g>
     </g>
     <g id="text_21">
      <text style="font: 10px 'DejaVu Sans', 'Bitstream Vera Sans', 'Computer Modern Sans Serif', 'Lucida Grande', 'Verdana', 'Geneva', 'Lucid', 'Arial', 'Helvetica', 'Avant Garde', sans-serif; text-anchor: start" x="522.98" y="109.452712" transform="rotate(-0 522.98 109.452712)">10.0</text>
     </g>
    </g>
    <g id="ytick_14">
     <g id="line2d_21">
      <g>
       <use xlink:href="#mb2c284df08" x="515.98" y="81.820957" style="stroke: #000000; stroke-width: 0.8"/>
      </g>
     </g>
     <g id="text_22">
      <text style="font: 10px 'DejaVu Sans', 'Bitstream Vera Sans', 'Computer Modern Sans Serif', 'Lucida Grande', 'Verdana', 'Geneva', 'Lucid', 'Arial', 'Helvetica', 'Avant Garde', sans-serif; text-anchor: start" x="522.98" y="85.620176" transform="rotate(-0 522.98 85.620176)">12.5</text>
     </g>
    </g>
    <g id="ytick_15">
     <g id="line2d_22">
      <g>
       <use xlink:href="#mb2c284df08" x="515.98" y="57.988421" style="stroke: #000000; stroke-width: 0.8"/>
      </g>
     </g>
     <g id="text_23">
      <text style="font: 10px 'DejaVu Sans', 'Bitstream Vera Sans', 'Computer Modern Sans Serif', 'Lucida Grande', 'Verdana', 'Geneva', 'Lucid', 'Arial', 'Helvetica', 'Avant Garde', sans-serif; text-anchor: start" x="522.98" y="61.78764" transform="rotate(-0 522.98 61.78764)">15.0</text>
     </g>
    </g>
    <g id="ytick_16">
     <g id="line2d_23">
      <g>
       <use xlink:href="#mb2c284df08" x="515.98" y="34.155885" style="stroke: #000000; stroke-width: 0.8"/>
      </g>
     </g>
     <g id="text_24">
      <text style="font: 10px 'DejaVu Sans', 'Bitstream Vera Sans', 'Computer Modern Sans Serif', 'Lucida Grande', 'Verdana', 'Geneva', 'Lucid', 'Arial', 'Helvetica', 'Avant Garde', sans-serif; text-anchor: start" x="522.98" y="37.955104" transform="rotate(-0 522.98 37.955104)">17.5</text>
     </g>
    </g>
    <g id="text_25">
     <text style="font: 10px 'DejaVu Sans', 'Bitstream Vera Sans', 'Computer Modern Sans Serif', 'Lucida Grande', 'Verdana', 'Geneva', 'Lucid', 'Arial', 'Helvetica', 'Avant Garde', sans-serif; text-anchor: middle" x="562.844063" y="110.42" transform="rotate(-90 562.844063 110.42)">hw(data)</text>
    </g>
   </g>
   <g id="line2d_24">
    <path d="M 77.738636 86.587464 
L 79.414832 38.922392 
L 81.091028 19.856364 
L 82.767223 29.389378 
L 84.443419 48.455407 
L 86.119615 57.988421 
L 87.795811 181.917608 
L 89.472006 48.455407 
L 91.148202 48.455407 
L 92.824398 57.988421 
L 94.500593 105.653493 
L 96.176789 48.455407 
L 97.852985 77.05445 
L 99.52918 134.252536 
L 101.205376 67.521435 
L 102.881572 57.988421 
L 104.557767 38.922392 
L 106.233963 67.521435 
L 107.910159 115.186507 
L 109.586355 134.252536 
L 111.26255 96.120478 
L 112.938746 38.922392 
L 114.614942 105.653493 
L 116.291137 143.78555 
L 117.967333 115.186507 
L 119.643529 57.988421 
L 121.319724 181.917608 
L 122.99592 38.922392 
L 124.672116 48.455407 
L 126.348311 162.851579 
L 128.024507 200.983636 
L 129.700703 115.186507 
L 131.376899 124.719522 
L 133.053094 96.120478 
L 134.72929 38.922392 
L 136.405486 38.922392 
L 138.081681 77.05445 
L 139.757877 19.856364 
L 141.434073 86.587464 
L 143.110268 48.455407 
L 144.786464 48.455407 
L 146.46266 172.384593 
L 148.138855 181.917608 
L 149.815051 38.922392 
L 151.491247 191.450622 
L 153.167442 67.521435 
L 154.843638 57.988421 
L 156.519834 77.05445 
L 158.19603 181.917608 
L 159.872225 67.521435 
L 161.548421 57.988421 
L 163.224617 38.922392 
L 164.900812 96.120478 
L 166.577008 38.922392 
L 168.253204 57.988421 
L 169.929399 29.389378 
L 171.605595 200.983636 
L 173.281791 67.521435 
L 174.957986 134.252536 
L 176.634182 172.384593 
L 178.310378 57.988421 
L 179.986574 57.988421 
L 181.662769 67.521435 
L 183.338965 134.252536 
L 185.015161 143.78555 
L 186.691356 77.05445 
L 188.367552 181.917608 
L 190.043748 38.922392 
L 191.719943 48.455407 
L 193.396139 48.455407 
L 195.072335 57.988421 
L 196.74853 124.719522 
L 198.424726 124.719522 
L 200.100922 57.988421 
L 201.777118 57.988421 
L 203.453313 29.389378 
L 205.129509 57.988421 
L 206.805705 134.252536 
L 208.4819 153.318565 
L 210.158096 38.922392 
L 211.834292 200.983636 
L 213.510487 48.455407 
L 215.186683 105.653493 
L 218.539074 86.587464 
L 220.21527 19.856364 
L 221.891466 134.252536 
L 223.567662 134.252536 
L 225.243857 38.922392 
L 226.920053 86.587464 
L 228.596249 38.922392 
L 230.272444 48.455407 
L 231.94864 191.450622 
L 233.624836 57.988421 
L 235.301031 200.983636 
L 236.977227 86.587464 
L 238.653423 29.389378 
L 240.329618 38.922392 
L 242.005814 115.186507 
L 243.68201 67.521435 
L 245.358206 181.917608 
L 247.034401 105.653493 
L 248.710597 115.186507 
L 250.386793 153.318565 
L 252.062988 153.318565 
L 253.739184 29.389378 
L 255.41538 86.587464 
L 257.091575 86.587464 
L 258.767771 48.455407 
L 260.443967 200.983636 
L 262.120162 67.521435 
L 263.796358 86.587464 
L 265.472554 57.988421 
L 267.14875 181.917608 
L 268.824945 181.917608 
L 270.501141 29.389378 
L 272.177337 67.521435 
L 273.853532 77.05445 
L 275.529728 67.521435 
L 277.205924 77.05445 
L 278.882119 115.186507 
L 280.558315 67.521435 
L 282.234511 57.988421 
L 283.910706 143.78555 
L 285.586902 162.851579 
L 287.263098 48.455407 
L 288.939294 181.917608 
L 290.615489 86.587464 
L 292.291685 124.719522 
L 293.967881 181.917608 
L 295.644076 48.455407 
L 297.320272 115.186507 
L 298.996468 48.455407 
L 300.672663 67.521435 
L 302.348859 124.719522 
L 304.025055 86.587464 
L 305.70125 200.983636 
L 307.377446 200.983636 
L 309.053642 86.587464 
L 310.729838 77.05445 
L 312.406033 57.988421 
L 314.082229 134.252536 
L 317.43462 153.318565 
L 319.110816 172.384593 
L 320.787012 181.917608 
L 322.463207 172.384593 
L 324.139403 38.922392 
L 325.815599 200.983636 
L 327.491794 19.856364 
L 329.16799 134.252536 
L 330.844186 29.389378 
L 332.520382 191.450622 
L 334.196577 57.988421 
L 335.872773 38.922392 
L 337.548969 105.653493 
L 339.225164 115.186507 
L 340.90136 96.120478 
L 342.577556 29.389378 
L 344.253751 124.719522 
L 345.929947 86.587464 
L 347.606143 181.917608 
L 349.282338 67.521435 
L 350.958534 48.455407 
L 352.63473 162.851579 
L 354.310926 19.856364 
L 355.987121 181.917608 
L 357.663317 172.384593 
L 359.339513 200.983636 
L 361.015708 67.521435 
L 362.691904 200.983636 
L 364.3681 48.455407 
L 366.044295 57.988421 
L 367.720491 48.455407 
L 369.396687 162.851579 
L 371.072882 67.521435 
L 372.749078 48.455407 
L 374.425274 67.521435 
L 376.10147 19.856364 
L 377.777665 162.851579 
L 379.453861 48.455407 
L 381.130057 77.05445 
L 382.806252 29.389378 
L 384.482448 200.983636 
L 386.158644 96.120478 
L 387.834839 67.521435 
L 389.511035 191.450622 
L 391.187231 67.521435 
L 392.863426 57.988421 
L 394.539622 143.78555 
L 396.215818 67.521435 
L 399.568209 105.653493 
L 401.244405 96.120478 
L 402.920601 48.455407 
L 404.596796 153.318565 
L 406.272992 77.05445 
L 407.949188 48.455407 
L 409.625383 67.521435 
L 411.301579 57.988421 
L 412.977775 172.384593 
L 414.65397 38.922392 
L 416.330166 181.917608 
L 418.006362 48.455407 
L 419.682558 48.455407 
L 421.358753 153.318565 
L 424.711145 57.988421 
L 426.38734 57.988421 
L 428.063536 172.384593 
L 429.739732 57.988421 
L 431.415927 124.719522 
L 433.092123 96.120478 
L 434.768319 181.917608 
L 436.444514 57.988421 
L 438.12071 48.455407 
L 439.796906 57.988421 
L 441.473101 96.120478 
L 443.149297 115.186507 
L 444.825493 38.922392 
L 446.501689 57.988421 
L 448.177884 105.653493 
L 449.85408 105.653493 
L 451.530276 77.05445 
L 454.882667 57.988421 
L 456.558863 77.05445 
L 458.235058 162.851579 
L 459.911254 181.917608 
L 461.58745 153.318565 
L 464.939841 57.988421 
L 466.616037 153.318565 
L 468.292233 48.455407 
L 469.968428 19.856364 
L 471.644624 77.05445 
L 473.32082 48.455407 
L 474.997015 124.719522 
L 476.673211 96.120478 
L 478.349407 162.851579 
L 480.025602 38.922392 
L 481.701798 124.719522 
L 483.377994 38.922392 
L 485.054189 38.922392 
L 486.730385 67.521435 
L 488.406581 77.05445 
L 490.082777 67.521435 
L 491.758972 77.05445 
L 493.435168 67.521435 
L 495.111364 67.521435 
L 495.111364 67.521435 
" clip-path="url(#p5dc04db3e1)" style="fill: none; stroke: #235996; stroke-width: 0.8; stroke-linecap: square"/>
   </g>
   <g id="patch_7">
    <path d="M 56.87 210.04 
L 56.87 10.8 
" style="fill: none; stroke: #000000; stroke-width: 0.8; stroke-linejoin: miter; stroke-linecap: square"/>
   </g>
   <g id="patch_8">
    <path d="M 515.98 210.04 
L 515.98 10.8 
" style="fill: none; stroke: #000000; stroke-width: 0.8; stroke-linejoin: miter; stroke-linecap: square"/>
   </g>
   <g id="patch_9">
    <path d="M 56.87 210.04 
L 515.98 210.04 
" style="fill: none; stroke: #000000; stroke-width: 0.8; stroke-linejoin: miter; stroke-linecap: square"/>
   </g>
   <g id="patch_10">
    <path d="M 56.87 10.8 
L 515.98 10.8 
" style="fill: none; stroke: #000000; stroke-width: 0.8; stroke-linejoin: miter; stroke-linecap: square"/>
   </g>
   <g id="legend_1">
    <g id="patch_11">
     <path d="M 179.209125 43.4565 
L 393.640875 43.4565 
Q 396.520875 43.4565 396.520875 40.5765 
L 396.520875 20.88 
Q 396.520875 18 393.640875 18 
L 179.209125 18 
Q 176.329125 18 176.329125 20.88 
L 176.329125 40.5765 
Q 176.329125 43.4565 179.209125 43.4565 
z
" style="fill: #ffffff; opacity: 0.8; stroke: #000000; stroke-linejoin: miter"/>
    </g>
    <g id="line2d_25">
     <path d="M 182.089125 29.66175 
L 196.489125 29.66175 
L 210.889125 29.66175 
" style="fill: none; stroke: #99004d; stroke-width: 0.8; stroke-linecap: square"/>
    </g>
    <g id="text_26">
     <text style="font: 14.4px 'DejaVu Sans', 'Bitstream Vera Sans', 'Computer Modern Sans Serif', 'Lucida Grande', 'Verdana', 'Geneva', 'Lucid', 'Arial', 'Helvetica', 'Avant Garde', sans-serif; text-anchor: start" x="222.409125" y="34.70175" transform="rotate(-0 222.409125 34.70175)">power</text>
    </g>
    <g id="line2d_26">
     <path d="M 295.718625 29.66175 
L 310.118625 29.66175 
L 324.518625 29.66175 
" style="fill: none; stroke: #235996; stroke-width: 0.8; stroke-linecap: square"/>
    </g>
    <g id="text_27">
     <text style="font: 14.4px 'DejaVu Sans', 'Bitstream Vera Sans', 'Computer Modern Sans Serif', 'Lucida Grande', 'Verdana', 'Geneva', 'Lucid', 'Arial', 'Helvetica', 'Avant Garde', sans-serif; text-anchor: start" x="336.038625" y="34.70175" transform="rotate(-0 336.038625 34.70175)">hw(rs1)</text>
    </g>
   </g>
  </g>
 </g>
 <defs>
  <clipPath id="p5dc04db3e1">
   <rect x="56.87" y="10.8" width="459.11" height="199.24"/>
  </clipPath>
 </defs>
</svg>
