<?xml version="1.0" encoding="utf-8" standalone="no"?>
<!DOCTYPE svg PUBLIC "-//W3C//DTD SVG 1.1//EN"
  "http://www.w3.org/Graphics/SVG/1.1/DTD/svg11.dtd">
<svg xmlns:xlink="http://www.w3.org/1999/xlink" width="576pt" height="252pt" viewBox="0 0 576 252" xmlns="http://www.w3.org/2000/svg" version="1.1">
 <metadata>
  <rdf:RDF xmlns:dc="http://purl.org/dc/elements/1.1/" xmlns:cc="http://creativecommons.org/ns#" xmlns:rdf="http://www.w3.org/1999/02/22-rdf-syntax-ns#">
   <cc:Work>
    <dc:type rdf:resource="http://purl.org/dc/dcmitype/StillImage"/>
    <dc:date>2023-12-05T04:29:39.070611</dc:date>
    <dc:format>image/svg+xml</dc:format>
    <dc:creator>
     <cc:Agent>
      <dc:title>Matplotlib v3.7.4, https://matplotlib.org/</dc:title>
     </cc:Agent>
    </dc:creator>
   </cc:Work>
  </rdf:RDF>
 </metadata>
 <defs>
  <style type="text/css">*{stroke-linejoin: round; stroke-linecap: butt}</style>
 </defs>
 <g id="figure_1">
  <g id="patch_1">
   <path d="M 0 252 
L 576 252 
L 576 0 
L 0 0 
z
" style="fill: #ffffff"/>
  </g>
  <g id="axes_1">
   <g id="patch_2">
    <path d="M 56.87 210.04 
L 515.98 210.04 
L 515.98 10.8 
L 56.87 10.8 
z
" style="fill: #ffffff"/>
   </g>
   <g id="matplotlib.axis_1">
    <g id="xtick_1">
     <g id="line2d_1">
      <defs>
       <path id="mdfbec0a7f3" d="M 0 0 
L 0 3.5 
" style="stroke: #000000; stroke-width: 0.8"/>
      </defs>
      <g>
       <use xlink:href="#mdfbec0a7f3" x="77.738636" y="210.04" style="stroke: #000000; stroke-width: 0.8"/>
      </g>
     </g>
     <g id="text_1">
      <text style="font: 10px 'DejaVu Sans', 'Bitstream Vera Sans', 'Computer Modern Sans Serif', 'Lucida Grande', 'Verdana', 'Geneva', 'Lucid', 'Arial', 'Helvetica', 'Avant Garde', sans-serif; text-anchor: middle" x="77.738636" y="224.638438" transform="rotate(-0 77.738636 224.638438)">0</text>
     </g>
    </g>
    <g id="xtick_2">
     <g id="line2d_2">
      <g>
       <use xlink:href="#mdfbec0a7f3" x="161.548421" y="210.04" style="stroke: #000000; stroke-width: 0.8"/>
      </g>
     </g>
     <g id="text_2">
      <text style="font: 10px 'DejaVu Sans', 'Bitstream Vera Sans', 'Computer Modern Sans Serif', 'Lucida Grande', 'Verdana', 'Geneva', 'Lucid', 'Arial', 'Helvetica', 'Avant Garde', sans-serif; text-anchor: middle" x="161.548421" y="224.638438" transform="rotate(-0 161.548421 224.638438)">50</text>
     </g>
    </g>
    <g id="xtick_3">
     <g id="line2d_3">
      <g>
       <use xlink:href="#mdfbec0a7f3" x="245.358206" y="210.04" style="stroke: #000000; stroke-width: 0.8"/>
      </g>
     </g>
     <g id="text_3">
      <text style="font: 10px 'DejaVu Sans', 'Bitstream Vera Sans', 'Computer Modern Sans Serif', 'Lucida Grande', 'Verdana', 'Geneva', 'Lucid', 'Arial', 'Helvetica', 'Avant Garde', sans-serif; text-anchor: middle" x="245.358206" y="224.638438" transform="rotate(-0 245.358206 224.638438)">100</text>
     </g>
    </g>
    <g id="xtick_4">
     <g id="line2d_4">
      <g>
       <use xlink:href="#mdfbec0a7f3" x="329.16799" y="210.04" style="stroke: #000000; stroke-width: 0.8"/>
      </g>
     </g>
     <g id="text_4">
      <text style="font: 10px 'DejaVu Sans', 'Bitstream Vera Sans', 'Computer Modern Sans Serif', 'Lucida Grande', 'Verdana', 'Geneva', 'Lucid', 'Arial', 'Helvetica', 'Avant Garde', sans-serif; text-anchor: middle" x="329.16799" y="224.638438" transform="rotate(-0 329.16799 224.638438)">150</text>
     </g>
    </g>
    <g id="xtick_5">
     <g id="line2d_5">
      <g>
       <use xlink:href="#mdfbec0a7f3" x="412.977775" y="210.04" style="stroke: #000000; stroke-width: 0.8"/>
      </g>
     </g>
     <g id="text_5">
      <text style="font: 10px 'DejaVu Sans', 'Bitstream Vera Sans', 'Computer Modern Sans Serif', 'Lucida Grande', 'Verdana', 'Geneva', 'Lucid', 'Arial', 'Helvetica', 'Avant Garde', sans-serif; text-anchor: middle" x="412.977775" y="224.638438" transform="rotate(-0 412.977775 224.638438)">200</text>
     </g>
    </g>
    <g id="xtick_6">
     <g id="line2d_6">
      <g>
       <use xlink:href="#mdfbec0a7f3" x="496.787559" y="210.04" style="stroke: #000000; stroke-width: 0.8"/>
      </g>
     </g>
     <g id="text_6">
      <text style="font: 10px 'DejaVu Sans', 'Bitstream Vera Sans', 'Computer Modern Sans Serif', 'Lucida Grande', 'Verdana', 'Geneva', 'Lucid', 'Arial', 'Helvetica', 'Avant Garde', sans-serif; text-anchor: middle" x="496.787559" y="224.638438" transform="rotate(-0 496.787559 224.638438)">250</text>
     </g>
    </g>
    <g id="text_7">
     <text style="font: 10px 'DejaVu Sans', 'Bitstream Vera Sans', 'Computer Modern Sans Serif', 'Lucida Grande', 'Verdana', 'Geneva', 'Lucid', 'Arial', 'Helvetica', 'Avant Garde', sans-serif; text-anchor: middle" x="286.425" y="238.316563" transform="rotate(-0 286.425 238.316563)">Cycles</text>
    </g>
   </g>
   <g id="matplotlib.axis_2">
    <g id="ytick_1">
     <g id="line2d_7">
      <defs>
       <path id="m7972103280" d="M 0 0 
L -3.5 0 
" style="stroke: #000000; stroke-width: 0.8"/>
      </defs>
      <g>
       <use xlink:href="#m7972103280" x="56.87" y="202.207469" style="stroke: #000000; stroke-width: 0.8"/>
      </g>
     </g>
     <g id="text_8">
      <text style="font: 10px 'DejaVu Sans', 'Bitstream Vera Sans', 'Computer Modern Sans Serif', 'Lucida Grande', 'Verdana', 'Geneva', 'Lucid', 'Arial', 'Helvetica', 'Avant Garde', sans-serif; text-anchor: end" x="49.87" y="206.006688" transform="rotate(-0 49.87 206.006688)">0</text>
     </g>
    </g>
    <g id="ytick_2">
     <g id="line2d_8">
      <g>
       <use xlink:href="#m7972103280" x="56.87" y="177.730811" style="stroke: #000000; stroke-width: 0.8"/>
      </g>
     </g>
     <g id="text_9">
      <text style="font: 10px 'DejaVu Sans', 'Bitstream Vera Sans', 'Computer Modern Sans Serif', 'Lucida Grande', 'Verdana', 'Geneva', 'Lucid', 'Arial', 'Helvetica', 'Avant Garde', sans-serif; text-anchor: end" x="49.87" y="181.53003" transform="rotate(-0 49.87 181.53003)">20</text>
     </g>
    </g>
    <g id="ytick_3">
     <g id="line2d_9">
      <g>
       <use xlink:href="#m7972103280" x="56.87" y="153.254152" style="stroke: #000000; stroke-width: 0.8"/>
      </g>
     </g>
     <g id="text_10">
      <text style="font: 10px 'DejaVu Sans', 'Bitstream Vera Sans', 'Computer Modern Sans Serif', 'Lucida Grande', 'Verdana', 'Geneva', 'Lucid', 'Arial', 'Helvetica', 'Avant Garde', sans-serif; text-anchor: end" x="49.87" y="157.053371" transform="rotate(-0 49.87 157.053371)">40</text>
     </g>
    </g>
    <g id="ytick_4">
     <g id="line2d_10">
      <g>
       <use xlink:href="#m7972103280" x="56.87" y="128.777494" style="stroke: #000000; stroke-width: 0.8"/>
      </g>
     </g>
     <g id="text_11">
      <text style="font: 10px 'DejaVu Sans', 'Bitstream Vera Sans', 'Computer Modern Sans Serif', 'Lucida Grande', 'Verdana', 'Geneva', 'Lucid', 'Arial', 'Helvetica', 'Avant Garde', sans-serif; text-anchor: end" x="49.87" y="132.576713" transform="rotate(-0 49.87 132.576713)">60</text>
     </g>
    </g>
    <g id="ytick_5">
     <g id="line2d_11">
      <g>
       <use xlink:href="#m7972103280" x="56.87" y="104.300835" style="stroke: #000000; stroke-width: 0.8"/>
      </g>
     </g>
     <g id="text_12">
      <text style="font: 10px 'DejaVu Sans', 'Bitstream Vera Sans', 'Computer Modern Sans Serif', 'Lucida Grande', 'Verdana', 'Geneva', 'Lucid', 'Arial', 'Helvetica', 'Avant Garde', sans-serif; text-anchor: end" x="49.87" y="108.100054" transform="rotate(-0 49.87 108.100054)">80</text>
     </g>
    </g>
    <g id="ytick_6">
     <g id="line2d_12">
      <g>
       <use xlink:href="#m7972103280" x="56.87" y="79.824177" style="stroke: #000000; stroke-width: 0.8"/>
      </g>
     </g>
     <g id="text_13">
      <text style="font: 10px 'DejaVu Sans', 'Bitstream Vera Sans', 'Computer Modern Sans Serif', 'Lucida Grande', 'Verdana', 'Geneva', 'Lucid', 'Arial', 'Helvetica', 'Avant Garde', sans-serif; text-anchor: end" x="49.87" y="83.623396" transform="rotate(-0 49.87 83.623396)">100</text>
     </g>
    </g>
    <g id="ytick_7">
     <g id="line2d_13">
      <g>
       <use xlink:href="#m7972103280" x="56.87" y="55.347518" style="stroke: #000000; stroke-width: 0.8"/>
      </g>
     </g>
     <g id="text_14">
      <text style="font: 10px 'DejaVu Sans', 'Bitstream Vera Sans', 'Computer Modern Sans Serif', 'Lucida Grande', 'Verdana', 'Geneva', 'Lucid', 'Arial', 'Helvetica', 'Avant Garde', sans-serif; text-anchor: end" x="49.87" y="59.146737" transform="rotate(-0 49.87 59.146737)">120</text>
     </g>
    </g>
    <g id="ytick_8">
     <g id="line2d_14">
      <g>
       <use xlink:href="#m7972103280" x="56.87" y="30.87086" style="stroke: #000000; stroke-width: 0.8"/>
      </g>
     </g>
     <g id="text_15">
      <text style="font: 10px 'DejaVu Sans', 'Bitstream Vera Sans', 'Computer Modern Sans Serif', 'Lucida Grande', 'Verdana', 'Geneva', 'Lucid', 'Arial', 'Helvetica', 'Avant Garde', sans-serif; text-anchor: end" x="49.87" y="34.670079" transform="rotate(-0 49.87 34.670079)">140</text>
     </g>
    </g>
    <g id="text_16">
     <text style="font: 10px 'DejaVu Sans', 'Bitstream Vera Sans', 'Computer Modern Sans Serif', 'Lucida Grande', 'Verdana', 'Geneva', 'Lucid', 'Arial', 'Helvetica', 'Avant Garde', sans-serif; text-anchor: middle" x="18.702813" y="110.42" transform="rotate(-90 18.702813 110.42)">power (uW)</text>
    </g>
   </g>
   <g id="line2d_15">
    <path d="M 77.738636 122.658329 
L 79.414832 39.43769 
L 81.091028 38.213857 
L 82.767223 49.228354 
L 84.443419 54.123686 
L 86.119615 82.271843 
L 87.795811 127.553661 
L 89.472006 45.556855 
L 91.148202 95.734005 
L 92.824398 59.019017 
L 94.500593 43.109189 
L 96.176789 52.899853 
L 97.852985 95.734005 
L 99.52918 79.824177 
L 101.205376 40.661523 
L 102.881572 36.990025 
L 104.557767 46.780688 
L 106.233963 32.094693 
L 107.910159 34.542359 
L 109.586355 51.67602 
L 111.26255 30.87086 
L 112.938746 84.719509 
L 114.614942 29.647027 
L 116.291137 39.43769 
L 117.967333 62.690516 
L 119.643529 93.286339 
L 121.319724 45.556855 
L 122.99592 78.600344 
L 124.672116 152.030319 
L 126.348311 25.975528 
L 128.024507 83.495676 
L 129.700703 33.318526 
L 131.376899 76.152678 
L 133.053094 62.690516 
L 134.72929 56.571351 
L 136.405486 74.928845 
L 138.081681 51.67602 
L 139.757877 156.925651 
L 141.434073 62.690516 
L 143.110268 85.943342 
L 144.786464 34.542359 
L 146.46266 72.481179 
L 148.138855 63.914349 
L 149.815051 46.780688 
L 151.491247 62.690516 
L 153.167442 51.67602 
L 154.843638 35.766192 
L 156.519834 67.585848 
L 158.19603 149.582654 
L 159.872225 61.466683 
L 161.548421 48.004521 
L 163.224617 32.094693 
L 164.900812 52.899853 
L 166.577008 60.24285 
L 168.253204 59.019017 
L 169.929399 35.766192 
L 171.605595 57.795184 
L 173.281791 57.795184 
L 174.957986 35.766192 
L 176.634182 39.43769 
L 178.310378 176.506978 
L 179.986574 28.423194 
L 181.662769 62.690516 
L 183.338965 137.344324 
L 185.015161 34.542359 
L 186.691356 174.059312 
L 188.367552 79.824177 
L 190.043748 27.199361 
L 191.719943 61.466683 
L 193.396139 200.983636 
L 195.072335 49.228354 
L 196.74853 61.466683 
L 198.424726 48.004521 
L 200.100922 40.661523 
L 201.777118 57.795184 
L 203.453313 44.333022 
L 205.129509 70.033514 
L 206.805705 67.585848 
L 208.4819 24.751695 
L 210.158096 92.062506 
L 211.834292 152.030319 
L 213.510487 46.780688 
L 215.186683 67.585848 
L 216.862879 131.22516 
L 218.539074 52.899853 
L 220.21527 198.535971 
L 221.891466 63.914349 
L 223.567662 174.059312 
L 225.243857 56.571351 
L 226.920053 200.983636 
L 228.596249 120.210663 
L 230.272444 59.019017 
L 231.94864 46.780688 
L 233.624836 60.24285 
L 235.301031 59.019017 
L 236.977227 76.152678 
L 238.653423 198.535971 
L 240.329618 71.257346 
L 242.005814 123.882162 
L 243.68201 35.766192 
L 245.358206 36.990025 
L 247.034401 52.899853 
L 248.710597 39.43769 
L 250.386793 65.138182 
L 252.062988 73.705012 
L 253.739184 32.094693 
L 255.41538 55.347518 
L 257.091575 63.914349 
L 258.767771 23.527862 
L 260.443967 74.928845 
L 262.120162 152.030319 
L 263.796358 27.199361 
L 265.472554 63.914349 
L 267.14875 55.347518 
L 268.824945 45.556855 
L 270.501141 49.228354 
L 272.177337 174.059312 
L 273.853532 68.809681 
L 275.529728 38.213857 
L 277.205924 22.304029 
L 278.882119 55.347518 
L 280.558315 63.914349 
L 282.234511 109.196167 
L 283.910706 198.535971 
L 285.586902 200.983636 
L 287.263098 30.87086 
L 288.939294 45.556855 
L 290.615489 101.85317 
L 292.291685 51.67602 
L 293.967881 44.333022 
L 295.644076 39.43769 
L 297.320272 19.856364 
L 298.996468 198.535971 
L 300.672663 56.571351 
L 302.348859 96.957838 
L 304.025055 57.795184 
L 305.70125 59.019017 
L 307.377446 21.080197 
L 309.053642 90.838673 
L 310.729838 134.896658 
L 312.406033 81.04801 
L 314.082229 56.571351 
L 315.758425 43.109189 
L 317.43462 174.059312 
L 319.110816 45.556855 
L 320.787012 54.123686 
L 322.463207 200.983636 
L 324.139403 32.094693 
L 325.815599 95.734005 
L 327.491794 41.885356 
L 329.16799 35.766192 
L 330.844186 88.391007 
L 332.520382 133.672826 
L 334.196577 57.795184 
L 335.872773 38.213857 
L 337.548969 106.748501 
L 339.225164 46.780688 
L 340.90136 152.030319 
L 342.577556 76.152678 
L 344.253751 65.138182 
L 345.929947 48.004521 
L 347.606143 110.42 
L 349.282338 61.466683 
L 350.958534 39.43769 
L 352.63473 46.780688 
L 354.310926 49.228354 
L 355.987121 36.990025 
L 357.663317 74.928845 
L 359.339513 52.899853 
L 361.015708 49.228354 
L 362.691904 68.809681 
L 364.3681 38.213857 
L 366.044295 45.556855 
L 367.720491 116.539165 
L 369.396687 51.67602 
L 371.072882 52.899853 
L 372.749078 52.899853 
L 374.425274 198.535971 
L 376.10147 40.661523 
L 377.777665 46.780688 
L 379.453861 59.019017 
L 381.130057 62.690516 
L 382.806252 52.899853 
L 384.482448 59.019017 
L 386.158644 59.019017 
L 387.834839 41.885356 
L 389.511035 43.109189 
L 391.187231 43.109189 
L 392.863426 101.85317 
L 394.539622 62.690516 
L 397.892014 198.535971 
L 399.568209 114.091499 
L 401.244405 39.43769 
L 402.920601 51.67602 
L 404.596796 52.899853 
L 406.272992 46.780688 
L 407.949188 155.701818 
L 409.625383 40.661523 
L 411.301579 33.318526 
L 412.977775 94.510172 
L 414.65397 39.43769 
L 416.330166 55.347518 
L 418.006362 141.015823 
L 419.682558 57.795184 
L 421.358753 56.571351 
L 423.034949 95.734005 
L 424.711145 50.452187 
L 426.38734 45.556855 
L 428.063536 152.030319 
L 429.739732 25.975528 
L 431.415927 174.059312 
L 433.092123 38.213857 
L 434.768319 60.24285 
L 436.444514 55.347518 
L 438.12071 198.535971 
L 439.796906 132.448993 
L 441.473101 50.452187 
L 443.149297 44.333022 
L 444.825493 33.318526 
L 446.501689 52.899853 
L 448.177884 57.795184 
L 449.85408 44.333022 
L 451.530276 56.571351 
L 453.206471 61.466683 
L 454.882667 85.943342 
L 456.558863 45.556855 
L 458.235058 89.61484 
L 459.911254 127.553661 
L 461.58745 24.751695 
L 463.263645 55.347518 
L 464.939841 46.780688 
L 466.616037 149.582654 
L 468.292233 33.318526 
L 469.968428 55.347518 
L 471.644624 137.344324 
L 473.32082 133.672826 
L 474.997015 45.556855 
L 476.673211 46.780688 
L 478.349407 50.452187 
L 480.025602 39.43769 
L 481.701798 106.748501 
L 483.377994 55.347518 
L 485.054189 60.24285 
L 486.730385 28.423194 
L 488.406581 49.228354 
L 490.082777 43.109189 
L 491.758972 46.780688 
L 493.435168 32.094693 
L 495.111364 176.506978 
L 495.111364 176.506978 
" clip-path="url(#p470014c991)" style="fill: none; stroke: #99004d; stroke-width: 0.8; stroke-linecap: square"/>
   </g>
   <g id="patch_3">
    <path d="M 56.87 210.04 
L 56.87 10.8 
" style="fill: none; stroke: #000000; stroke-width: 0.8; stroke-linejoin: miter; stroke-linecap: square"/>
   </g>
   <g id="patch_4">
    <path d="M 515.98 210.04 
L 515.98 10.8 
" style="fill: none; stroke: #000000; stroke-width: 0.8; stroke-linejoin: miter; stroke-linecap: square"/>
   </g>
   <g id="patch_5">
    <path d="M 56.87 210.04 
L 515.98 210.04 
" style="fill: none; stroke: #000000; stroke-width: 0.8; stroke-linejoin: miter; stroke-linecap: square"/>
   </g>
   <g id="patch_6">
    <path d="M 56.87 10.8 
L 515.98 10.8 
" style="fill: none; stroke: #000000; stroke-width: 0.8; stroke-linejoin: miter; stroke-linecap: square"/>
   </g>
  </g>
  <g id="axes_2">
   <g id="matplotlib.axis_3">
    <g id="ytick_9">
     <g id="line2d_16">
      <defs>
       <path id="m90aab85561" d="M 0 0 
L 3.5 0 
" style="stroke: #000000; stroke-width: 0.8"/>
      </defs>
      <g>
       <use xlink:href="#m90aab85561" x="515.98" y="200.983636" style="stroke: #000000; stroke-width: 0.8"/>
      </g>
     </g>
     <g id="text_17">
      <text style="font: 10px 'DejaVu Sans', 'Bitstream Vera Sans', 'Computer Modern Sans Serif', 'Lucida Grande', 'Verdana', 'Geneva', 'Lucid', 'Arial', 'Helvetica', 'Avant Garde', sans-serif; text-anchor: start" x="522.98" y="204.782855" transform="rotate(-0 522.98 204.782855)">0.0</text>
     </g>
    </g>
    <g id="ytick_10">
     <g id="line2d_17">
      <g>
       <use xlink:href="#m90aab85561" x="515.98" y="178.342727" style="stroke: #000000; stroke-width: 0.8"/>
      </g>
     </g>
     <g id="text_18">
      <text style="font: 10px 'DejaVu Sans', 'Bitstream Vera Sans', 'Computer Modern Sans Serif', 'Lucida Grande', 'Verdana', 'Geneva', 'Lucid', 'Arial', 'Helvetica', 'Avant Garde', sans-serif; text-anchor: start" x="522.98" y="182.141946" transform="rotate(-0 522.98 182.141946)">2.5</text>
     </g>
    </g>
    <g id="ytick_11">
     <g id="line2d_18">
      <g>
       <use xlink:href="#m90aab85561" x="515.98" y="155.701818" style="stroke: #000000; stroke-width: 0.8"/>
      </g>
     </g>
     <g id="text_19">
      <text style="font: 10px 'DejaVu Sans', 'Bitstream Vera Sans', 'Computer Modern Sans Serif', 'Lucida Grande', 'Verdana', 'Geneva', 'Lucid', 'Arial', 'Helvetica', 'Avant Garde', sans-serif; text-anchor: start" x="522.98" y="159.501037" transform="rotate(-0 522.98 159.501037)">5.0</text>
     </g>
    </g>
    <g id="ytick_12">
     <g id="line2d_19">
      <g>
       <use xlink:href="#m90aab85561" x="515.98" y="133.060909" style="stroke: #000000; stroke-width: 0.8"/>
      </g>
     </g>
     <g id="text_20">
      <text style="font: 10px 'DejaVu Sans', 'Bitstream Vera Sans', 'Computer Modern Sans Serif', 'Lucida Grande', 'Verdana', 'Geneva', 'Lucid', 'Arial', 'Helvetica', 'Avant Garde', sans-serif; text-anchor: start" x="522.98" y="136.860128" transform="rotate(-0 522.98 136.860128)">7.5</text>
     </g>
    </g>
    <g id="ytick_13">
     <g id="line2d_20">
      <g>
       <use xlink:href="#m90aab85561" x="515.98" y="110.42" style="stroke: #000000; stroke-width: 0.8"/>
      </g>
     </g>
     <g id="text_21">
      <text style="font: 10px 'DejaVu Sans', 'Bitstream Vera Sans', 'Computer Modern Sans Serif', 'Lucida Grande', 'Verdana', 'Geneva', 'Lucid', 'Arial', 'Helvetica', 'Avant Garde', sans-serif; text-anchor: start" x="522.98" y="114.219219" transform="rotate(-0 522.98 114.219219)">10.0</text>
     </g>
    </g>
    <g id="ytick_14">
     <g id="line2d_21">
      <g>
       <use xlink:href="#m90aab85561" x="515.98" y="87.779091" style="stroke: #000000; stroke-width: 0.8"/>
      </g>
     </g>
     <g id="text_22">
      <text style="font: 10px 'DejaVu Sans', 'Bitstream Vera Sans', 'Computer Modern Sans Serif', 'Lucida Grande', 'Verdana', 'Geneva', 'Lucid', 'Arial', 'Helvetica', 'Avant Garde', sans-serif; text-anchor: start" x="522.98" y="91.57831" transform="rotate(-0 522.98 91.57831)">12.5</text>
     </g>
    </g>
    <g id="ytick_15">
     <g id="line2d_22">
      <g>
       <use xlink:href="#m90aab85561" x="515.98" y="65.138182" style="stroke: #000000; stroke-width: 0.8"/>
      </g>
     </g>
     <g id="text_23">
      <text style="font: 10px 'DejaVu Sans', 'Bitstream Vera Sans', 'Computer Modern Sans Serif', 'Lucida Grande', 'Verdana', 'Geneva', 'Lucid', 'Arial', 'Helvetica', 'Avant Garde', sans-serif; text-anchor: start" x="522.98" y="68.937401" transform="rotate(-0 522.98 68.937401)">15.0</text>
     </g>
    </g>
    <g id="ytick_16">
     <g id="line2d_23">
      <g>
       <use xlink:href="#m90aab85561" x="515.98" y="42.497273" style="stroke: #000000; stroke-width: 0.8"/>
      </g>
     </g>
     <g id="text_24">
      <text style="font: 10px 'DejaVu Sans', 'Bitstream Vera Sans', 'Computer Modern Sans Serif', 'Lucida Grande', 'Verdana', 'Geneva', 'Lucid', 'Arial', 'Helvetica', 'Avant Garde', sans-serif; text-anchor: start" x="522.98" y="46.296491" transform="rotate(-0 522.98 46.296491)">17.5</text>
     </g>
    </g>
    <g id="ytick_17">
     <g id="line2d_24">
      <g>
       <use xlink:href="#m90aab85561" x="515.98" y="19.856364" style="stroke: #000000; stroke-width: 0.8"/>
      </g>
     </g>
     <g id="text_25">
      <text style="font: 10px 'DejaVu Sans', 'Bitstream Vera Sans', 'Computer Modern Sans Serif', 'Lucida Grande', 'Verdana', 'Geneva', 'Lucid', 'Arial', 'Helvetica', 'Avant Garde', sans-serif; text-anchor: start" x="522.98" y="23.655582" transform="rotate(-0 522.98 23.655582)">20.0</text>
     </g>
    </g>
    <g id="text_26">
     <text style="font: 10px 'DejaVu Sans', 'Bitstream Vera Sans', 'Computer Modern Sans Serif', 'Lucida Grande', 'Verdana', 'Geneva', 'Lucid', 'Arial', 'Helvetica', 'Avant Garde', sans-serif; text-anchor: middle" x="562.844063" y="110.42" transform="rotate(-90 562.844063 110.42)">hw(data)</text>
    </g>
   </g>
   <g id="line2d_25">
    <path d="M 77.738636 164.758182 
L 79.414832 83.250909 
L 82.767223 65.138182 
L 84.443419 92.307273 
L 86.119615 128.532727 
L 87.795811 173.814545 
L 89.472006 74.194545 
L 91.148202 155.701818 
L 92.824398 56.081818 
L 94.500593 110.42 
L 96.176789 65.138182 
L 97.852985 146.645455 
L 99.52918 137.589091 
L 101.205376 83.250909 
L 104.557767 83.250909 
L 106.233963 56.081818 
L 107.910159 92.307273 
L 109.586355 101.363636 
L 111.26255 56.081818 
L 112.938746 128.532727 
L 114.614942 56.081818 
L 116.291137 28.912727 
L 117.967333 101.363636 
L 119.643529 146.645455 
L 121.319724 37.969091 
L 122.99592 128.532727 
L 124.672116 182.870909 
L 126.348311 65.138182 
L 128.024507 146.645455 
L 129.700703 65.138182 
L 131.376899 128.532727 
L 133.053094 74.194545 
L 134.72929 74.194545 
L 136.405486 119.476364 
L 138.081681 47.025455 
L 139.757877 182.870909 
L 141.434073 101.363636 
L 143.110268 146.645455 
L 144.786464 65.138182 
L 146.46266 119.476364 
L 148.138855 119.476364 
L 149.815051 65.138182 
L 151.491247 101.363636 
L 153.167442 47.025455 
L 154.843638 83.250909 
L 156.519834 110.42 
L 158.19603 182.870909 
L 159.872225 47.025455 
L 161.548421 47.025455 
L 163.224617 37.969091 
L 164.900812 101.363636 
L 166.577008 119.476364 
L 169.929399 47.025455 
L 171.605595 65.138182 
L 173.281791 101.363636 
L 174.957986 47.025455 
L 176.634182 56.081818 
L 178.310378 191.927273 
L 179.986574 37.969091 
L 181.662769 83.250909 
L 183.338965 173.814545 
L 185.015161 47.025455 
L 186.691356 191.927273 
L 190.043748 65.138182 
L 191.719943 92.307273 
L 193.396139 200.983636 
L 195.072335 101.363636 
L 196.74853 65.138182 
L 198.424726 47.025455 
L 200.100922 37.969091 
L 201.777118 119.476364 
L 203.453313 83.250909 
L 205.129509 56.081818 
L 206.805705 128.532727 
L 208.4819 56.081818 
L 210.158096 146.645455 
L 211.834292 182.870909 
L 213.510487 47.025455 
L 216.862879 173.814545 
L 218.539074 47.025455 
L 220.21527 200.983636 
L 221.891466 65.138182 
L 223.567662 191.927273 
L 225.243857 92.307273 
L 226.920053 200.983636 
L 228.596249 164.758182 
L 230.272444 65.138182 
L 231.94864 65.138182 
L 233.624836 56.081818 
L 235.301031 101.363636 
L 236.977227 92.307273 
L 238.653423 200.983636 
L 240.329618 119.476364 
L 242.005814 164.758182 
L 243.68201 92.307273 
L 245.358206 83.250909 
L 247.034401 37.969091 
L 248.710597 83.250909 
L 250.386793 110.42 
L 252.062988 119.476364 
L 253.739184 110.42 
L 255.41538 65.138182 
L 257.091575 47.025455 
L 258.767771 37.969091 
L 260.443967 137.589091 
L 262.120162 182.870909 
L 263.796358 92.307273 
L 265.472554 110.42 
L 270.501141 56.081818 
L 272.177337 191.927273 
L 273.853532 119.476364 
L 275.529728 28.912727 
L 277.205924 92.307273 
L 278.882119 65.138182 
L 280.558315 74.194545 
L 282.234511 155.701818 
L 283.910706 200.983636 
L 285.586902 200.983636 
L 287.263098 56.081818 
L 288.939294 92.307273 
L 290.615489 146.645455 
L 292.291685 92.307273 
L 293.967881 92.307273 
L 295.644076 65.138182 
L 297.320272 65.138182 
L 298.996468 200.983636 
L 300.672663 19.856364 
L 302.348859 155.701818 
L 304.025055 56.081818 
L 305.70125 37.969091 
L 307.377446 37.969091 
L 309.053642 137.589091 
L 310.729838 173.814545 
L 314.082229 47.025455 
L 315.758425 65.138182 
L 317.43462 191.927273 
L 319.110816 47.025455 
L 320.787012 47.025455 
L 322.463207 200.983636 
L 324.139403 47.025455 
L 325.815599 146.645455 
L 327.491794 74.194545 
L 329.16799 101.363636 
L 332.520382 173.814545 
L 334.196577 56.081818 
L 335.872773 56.081818 
L 337.548969 155.701818 
L 339.225164 56.081818 
L 340.90136 182.870909 
L 342.577556 128.532727 
L 344.253751 56.081818 
L 345.929947 83.250909 
L 347.606143 155.701818 
L 349.282338 119.476364 
L 350.958534 74.194545 
L 352.63473 92.307273 
L 354.310926 83.250909 
L 355.987121 47.025455 
L 357.663317 128.532727 
L 359.339513 83.250909 
L 361.015708 92.307273 
L 362.691904 128.532727 
L 364.3681 65.138182 
L 366.044295 37.969091 
L 367.720491 164.758182 
L 369.396687 47.025455 
L 371.072882 83.250909 
L 372.749078 74.194545 
L 374.425274 200.983636 
L 376.10147 92.307273 
L 377.777665 47.025455 
L 379.453861 137.589091 
L 381.130057 83.250909 
L 382.806252 37.969091 
L 384.482448 110.42 
L 386.158644 65.138182 
L 387.834839 92.307273 
L 389.511035 37.969091 
L 392.863426 146.645455 
L 394.539622 74.194545 
L 396.215818 173.814545 
L 397.892014 200.983636 
L 399.568209 155.701818 
L 401.244405 92.307273 
L 402.920601 65.138182 
L 404.596796 47.025455 
L 406.272992 92.307273 
L 407.949188 182.870909 
L 409.625383 56.081818 
L 411.301579 28.912727 
L 412.977775 146.645455 
L 414.65397 83.250909 
L 416.330166 83.250909 
L 418.006362 173.814545 
L 419.682558 119.476364 
L 421.358753 110.42 
L 423.034949 155.701818 
L 424.711145 92.307273 
L 426.38734 65.138182 
L 428.063536 182.870909 
L 429.739732 65.138182 
L 431.415927 191.927273 
L 433.092123 65.138182 
L 434.768319 74.194545 
L 436.444514 65.138182 
L 438.12071 200.983636 
L 439.796906 173.814545 
L 441.473101 65.138182 
L 443.149297 56.081818 
L 444.825493 83.250909 
L 446.501689 74.194545 
L 448.177884 56.081818 
L 453.206471 83.250909 
L 454.882667 146.645455 
L 456.558863 92.307273 
L 458.235058 137.589091 
L 459.911254 173.814545 
L 461.58745 83.250909 
L 463.263645 83.250909 
L 464.939841 74.194545 
L 466.616037 182.870909 
L 468.292233 47.025455 
L 469.968428 47.025455 
L 471.644624 173.814545 
L 473.32082 173.814545 
L 474.997015 28.912727 
L 476.673211 47.025455 
L 478.349407 28.912727 
L 480.025602 47.025455 
L 481.701798 146.645455 
L 483.377994 74.194545 
L 485.054189 37.969091 
L 486.730385 83.250909 
L 488.406581 74.194545 
L 490.082777 47.025455 
L 491.758972 110.42 
L 493.435168 74.194545 
L 495.111364 191.927273 
L 495.111364 191.927273 
" clip-path="url(#p470014c991)" style="fill: none; stroke: #235996; stroke-width: 0.8; stroke-linecap: square"/>
   </g>
   <g id="patch_7">
    <path d="M 56.87 210.04 
L 56.87 10.8 
" style="fill: none; stroke: #000000; stroke-width: 0.8; stroke-linejoin: miter; stroke-linecap: square"/>
   </g>
   <g id="patch_8">
    <path d="M 515.98 210.04 
L 515.98 10.8 
" style="fill: none; stroke: #000000; stroke-width: 0.8; stroke-linejoin: miter; stroke-linecap: square"/>
   </g>
   <g id="patch_9">
    <path d="M 56.87 210.04 
L 515.98 210.04 
" style="fill: none; stroke: #000000; stroke-width: 0.8; stroke-linejoin: miter; stroke-linecap: square"/>
   </g>
   <g id="patch_10">
    <path d="M 56.87 10.8 
L 515.98 10.8 
" style="fill: none; stroke: #000000; stroke-width: 0.8; stroke-linejoin: miter; stroke-linecap: square"/>
   </g>
   <g id="legend_1">
    <g id="patch_11">
     <path d="M 179.209125 43.4565 
L 393.640875 43.4565 
Q 396.520875 43.4565 396.520875 40.5765 
L 396.520875 20.88 
Q 396.520875 18 393.640875 18 
L 179.209125 18 
Q 176.329125 18 176.329125 20.88 
L 176.329125 40.5765 
Q 176.329125 43.4565 179.209125 43.4565 
z
" style="fill: #ffffff; opacity: 0.8; stroke: #000000; stroke-linejoin: miter"/>
    </g>
    <g id="line2d_26">
     <path d="M 182.089125 29.66175 
L 196.489125 29.66175 
L 210.889125 29.66175 
" style="fill: none; stroke: #99004d; stroke-width: 0.8; stroke-linecap: square"/>
    </g>
    <g id="text_27">
     <text style="font: 14.4px 'DejaVu Sans', 'Bitstream Vera Sans', 'Computer Modern Sans Serif', 'Lucida Grande', 'Verdana', 'Geneva', 'Lucid', 'Arial', 'Helvetica', 'Avant Garde', sans-serif; text-anchor: start" x="222.409125" y="34.70175" transform="rotate(-0 222.409125 34.70175)">power</text>
    </g>
    <g id="line2d_27">
     <path d="M 295.718625 29.66175 
L 310.118625 29.66175 
L 324.518625 29.66175 
" style="fill: none; stroke: #235996; stroke-width: 0.8; stroke-linecap: square"/>
    </g>
    <g id="text_28">
     <text style="font: 14.4px 'DejaVu Sans', 'Bitstream Vera Sans', 'Computer Modern Sans Serif', 'Lucida Grande', 'Verdana', 'Geneva', 'Lucid', 'Arial', 'Helvetica', 'Avant Garde', sans-serif; text-anchor: start" x="336.038625" y="34.70175" transform="rotate(-0 336.038625 34.70175)">hw(rs1)</text>
    </g>
   </g>
  </g>
 </g>
 <defs>
  <clipPath id="p470014c991">
   <rect x="56.87" y="10.8" width="459.11" height="199.24"/>
  </clipPath>
 </defs>
</svg>
