<?xml version="1.0" encoding="utf-8" standalone="no"?>
<!DOCTYPE svg PUBLIC "-//W3C//DTD SVG 1.1//EN"
  "http://www.w3.org/Graphics/SVG/1.1/DTD/svg11.dtd">
<svg xmlns:xlink="http://www.w3.org/1999/xlink" width="576pt" height="252pt" viewBox="0 0 576 252" xmlns="http://www.w3.org/2000/svg" version="1.1">
 <metadata>
  <rdf:RDF xmlns:dc="http://purl.org/dc/elements/1.1/" xmlns:cc="http://creativecommons.org/ns#" xmlns:rdf="http://www.w3.org/1999/02/22-rdf-syntax-ns#">
   <cc:Work>
    <dc:type rdf:resource="http://purl.org/dc/dcmitype/StillImage"/>
    <dc:date>2023-12-05T19:31:30.100930</dc:date>
    <dc:format>image/svg+xml</dc:format>
    <dc:creator>
     <cc:Agent>
      <dc:title>Matplotlib v3.7.4, https://matplotlib.org/</dc:title>
     </cc:Agent>
    </dc:creator>
   </cc:Work>
  </rdf:RDF>
 </metadata>
 <defs>
  <style type="text/css">*{stroke-linejoin: round; stroke-linecap: butt}</style>
 </defs>
 <g id="figure_1">
  <g id="patch_1">
   <path d="M 0 252 
L 576 252 
L 576 0 
L 0 0 
z
" style="fill: #ffffff"/>
  </g>
  <g id="axes_1">
   <g id="patch_2">
    <path d="M 56.87 210.04 
L 515.98 210.04 
L 515.98 10.8 
L 56.87 10.8 
z
" style="fill: #ffffff"/>
   </g>
   <g id="matplotlib.axis_1">
    <g id="xtick_1">
     <g id="line2d_1">
      <defs>
       <path id="mf63cffd551" d="M 0 0 
L 0 3.5 
" style="stroke: #000000; stroke-width: 0.8"/>
      </defs>
      <g>
       <use xlink:href="#mf63cffd551" x="77.738636" y="210.04" style="stroke: #000000; stroke-width: 0.8"/>
      </g>
     </g>
     <g id="text_1">
      <text style="font: 10px 'DejaVu Sans', 'Bitstream Vera Sans', 'Computer Modern Sans Serif', 'Lucida Grande', 'Verdana', 'Geneva', 'Lucid', 'Arial', 'Helvetica', 'Avant Garde', sans-serif; text-anchor: middle" x="77.738636" y="224.638438" transform="rotate(-0 77.738636 224.638438)">0</text>
     </g>
    </g>
    <g id="xtick_2">
     <g id="line2d_2">
      <g>
       <use xlink:href="#mf63cffd551" x="161.548421" y="210.04" style="stroke: #000000; stroke-width: 0.8"/>
      </g>
     </g>
     <g id="text_2">
      <text style="font: 10px 'DejaVu Sans', 'Bitstream Vera Sans', 'Computer Modern Sans Serif', 'Lucida Grande', 'Verdana', 'Geneva', 'Lucid', 'Arial', 'Helvetica', 'Avant Garde', sans-serif; text-anchor: middle" x="161.548421" y="224.638438" transform="rotate(-0 161.548421 224.638438)">50</text>
     </g>
    </g>
    <g id="xtick_3">
     <g id="line2d_3">
      <g>
       <use xlink:href="#mf63cffd551" x="245.358206" y="210.04" style="stroke: #000000; stroke-width: 0.8"/>
      </g>
     </g>
     <g id="text_3">
      <text style="font: 10px 'DejaVu Sans', 'Bitstream Vera Sans', 'Computer Modern Sans Serif', 'Lucida Grande', 'Verdana', 'Geneva', 'Lucid', 'Arial', 'Helvetica', 'Avant Garde', sans-serif; text-anchor: middle" x="245.358206" y="224.638438" transform="rotate(-0 245.358206 224.638438)">100</text>
     </g>
    </g>
    <g id="xtick_4">
     <g id="line2d_4">
      <g>
       <use xlink:href="#mf63cffd551" x="329.16799" y="210.04" style="stroke: #000000; stroke-width: 0.8"/>
      </g>
     </g>
     <g id="text_4">
      <text style="font: 10px 'DejaVu Sans', 'Bitstream Vera Sans', 'Computer Modern Sans Serif', 'Lucida Grande', 'Verdana', 'Geneva', 'Lucid', 'Arial', 'Helvetica', 'Avant Garde', sans-serif; text-anchor: middle" x="329.16799" y="224.638438" transform="rotate(-0 329.16799 224.638438)">150</text>
     </g>
    </g>
    <g id="xtick_5">
     <g id="line2d_5">
      <g>
       <use xlink:href="#mf63cffd551" x="412.977775" y="210.04" style="stroke: #000000; stroke-width: 0.8"/>
      </g>
     </g>
     <g id="text_5">
      <text style="font: 10px 'DejaVu Sans', 'Bitstream Vera Sans', 'Computer Modern Sans Serif', 'Lucida Grande', 'Verdana', 'Geneva', 'Lucid', 'Arial', 'Helvetica', 'Avant Garde', sans-serif; text-anchor: middle" x="412.977775" y="224.638438" transform="rotate(-0 412.977775 224.638438)">200</text>
     </g>
    </g>
    <g id="xtick_6">
     <g id="line2d_6">
      <g>
       <use xlink:href="#mf63cffd551" x="496.787559" y="210.04" style="stroke: #000000; stroke-width: 0.8"/>
      </g>
     </g>
     <g id="text_6">
      <text style="font: 10px 'DejaVu Sans', 'Bitstream Vera Sans', 'Computer Modern Sans Serif', 'Lucida Grande', 'Verdana', 'Geneva', 'Lucid', 'Arial', 'Helvetica', 'Avant Garde', sans-serif; text-anchor: middle" x="496.787559" y="224.638438" transform="rotate(-0 496.787559 224.638438)">250</text>
     </g>
    </g>
    <g id="text_7">
     <text style="font: 10px 'DejaVu Sans', 'Bitstream Vera Sans', 'Computer Modern Sans Serif', 'Lucida Grande', 'Verdana', 'Geneva', 'Lucid', 'Arial', 'Helvetica', 'Avant Garde', sans-serif; text-anchor: middle" x="286.425" y="238.316563" transform="rotate(-0 286.425 238.316563)">Cycles</text>
    </g>
   </g>
   <g id="matplotlib.axis_2">
    <g id="ytick_1">
     <g id="line2d_7">
      <defs>
       <path id="m804d36957f" d="M 0 0 
L -3.5 0 
" style="stroke: #000000; stroke-width: 0.8"/>
      </defs>
      <g>
       <use xlink:href="#m804d36957f" x="56.87" y="202.183155" style="stroke: #000000; stroke-width: 0.8"/>
      </g>
     </g>
     <g id="text_8">
      <text style="font: 10px 'DejaVu Sans', 'Bitstream Vera Sans', 'Computer Modern Sans Serif', 'Lucida Grande', 'Verdana', 'Geneva', 'Lucid', 'Arial', 'Helvetica', 'Avant Garde', sans-serif; text-anchor: end" x="49.87" y="205.982373" transform="rotate(-0 49.87 205.982373)">0</text>
     </g>
    </g>
    <g id="ytick_2">
     <g id="line2d_8">
      <g>
       <use xlink:href="#m804d36957f" x="56.87" y="178.192787" style="stroke: #000000; stroke-width: 0.8"/>
      </g>
     </g>
     <g id="text_9">
      <text style="font: 10px 'DejaVu Sans', 'Bitstream Vera Sans', 'Computer Modern Sans Serif', 'Lucida Grande', 'Verdana', 'Geneva', 'Lucid', 'Arial', 'Helvetica', 'Avant Garde', sans-serif; text-anchor: end" x="49.87" y="181.992006" transform="rotate(-0 49.87 181.992006)">20</text>
     </g>
    </g>
    <g id="ytick_3">
     <g id="line2d_9">
      <g>
       <use xlink:href="#m804d36957f" x="56.87" y="154.20242" style="stroke: #000000; stroke-width: 0.8"/>
      </g>
     </g>
     <g id="text_10">
      <text style="font: 10px 'DejaVu Sans', 'Bitstream Vera Sans', 'Computer Modern Sans Serif', 'Lucida Grande', 'Verdana', 'Geneva', 'Lucid', 'Arial', 'Helvetica', 'Avant Garde', sans-serif; text-anchor: end" x="49.87" y="158.001639" transform="rotate(-0 49.87 158.001639)">40</text>
     </g>
    </g>
    <g id="ytick_4">
     <g id="line2d_10">
      <g>
       <use xlink:href="#m804d36957f" x="56.87" y="130.212053" style="stroke: #000000; stroke-width: 0.8"/>
      </g>
     </g>
     <g id="text_11">
      <text style="font: 10px 'DejaVu Sans', 'Bitstream Vera Sans', 'Computer Modern Sans Serif', 'Lucida Grande', 'Verdana', 'Geneva', 'Lucid', 'Arial', 'Helvetica', 'Avant Garde', sans-serif; text-anchor: end" x="49.87" y="134.011272" transform="rotate(-0 49.87 134.011272)">60</text>
     </g>
    </g>
    <g id="ytick_5">
     <g id="line2d_11">
      <g>
       <use xlink:href="#m804d36957f" x="56.87" y="106.221686" style="stroke: #000000; stroke-width: 0.8"/>
      </g>
     </g>
     <g id="text_12">
      <text style="font: 10px 'DejaVu Sans', 'Bitstream Vera Sans', 'Computer Modern Sans Serif', 'Lucida Grande', 'Verdana', 'Geneva', 'Lucid', 'Arial', 'Helvetica', 'Avant Garde', sans-serif; text-anchor: end" x="49.87" y="110.020904" transform="rotate(-0 49.87 110.020904)">80</text>
     </g>
    </g>
    <g id="ytick_6">
     <g id="line2d_12">
      <g>
       <use xlink:href="#m804d36957f" x="56.87" y="82.231318" style="stroke: #000000; stroke-width: 0.8"/>
      </g>
     </g>
     <g id="text_13">
      <text style="font: 10px 'DejaVu Sans', 'Bitstream Vera Sans', 'Computer Modern Sans Serif', 'Lucida Grande', 'Verdana', 'Geneva', 'Lucid', 'Arial', 'Helvetica', 'Avant Garde', sans-serif; text-anchor: end" x="49.87" y="86.030537" transform="rotate(-0 49.87 86.030537)">100</text>
     </g>
    </g>
    <g id="ytick_7">
     <g id="line2d_13">
      <g>
       <use xlink:href="#m804d36957f" x="56.87" y="58.240951" style="stroke: #000000; stroke-width: 0.8"/>
      </g>
     </g>
     <g id="text_14">
      <text style="font: 10px 'DejaVu Sans', 'Bitstream Vera Sans', 'Computer Modern Sans Serif', 'Lucida Grande', 'Verdana', 'Geneva', 'Lucid', 'Arial', 'Helvetica', 'Avant Garde', sans-serif; text-anchor: end" x="49.87" y="62.04017" transform="rotate(-0 49.87 62.04017)">120</text>
     </g>
    </g>
    <g id="ytick_8">
     <g id="line2d_14">
      <g>
       <use xlink:href="#m804d36957f" x="56.87" y="34.250584" style="stroke: #000000; stroke-width: 0.8"/>
      </g>
     </g>
     <g id="text_15">
      <text style="font: 10px 'DejaVu Sans', 'Bitstream Vera Sans', 'Computer Modern Sans Serif', 'Lucida Grande', 'Verdana', 'Geneva', 'Lucid', 'Arial', 'Helvetica', 'Avant Garde', sans-serif; text-anchor: end" x="49.87" y="38.049803" transform="rotate(-0 49.87 38.049803)">140</text>
     </g>
    </g>
    <g id="text_16">
     <text style="font: 10px 'DejaVu Sans', 'Bitstream Vera Sans', 'Computer Modern Sans Serif', 'Lucida Grande', 'Verdana', 'Geneva', 'Lucid', 'Arial', 'Helvetica', 'Avant Garde', sans-serif; text-anchor: middle" x="18.702813" y="110.42" transform="rotate(-90 18.702813 110.42)">power (uW)</text>
    </g>
   </g>
   <g id="line2d_15">
    <path d="M 77.738636 89.428429 
L 79.414832 141.007718 
L 81.091028 52.243359 
L 82.767223 58.240951 
L 84.443419 60.639988 
L 86.119615 39.048657 
L 87.795811 40.248176 
L 89.472006 52.243359 
L 91.148202 42.647213 
L 92.824398 176.993269 
L 94.500593 123.014943 
L 96.176789 40.248176 
L 97.852985 49.844323 
L 99.52918 30.652029 
L 101.205376 47.445286 
L 102.881572 46.245768 
L 104.557767 57.041433 
L 106.233963 39.048657 
L 107.910159 36.649621 
L 109.586355 131.411571 
L 111.26255 55.841915 
L 112.938746 90.627947 
L 116.291137 36.649621 
L 117.967333 57.041433 
L 121.319724 37.849139 
L 122.99592 43.846731 
L 124.672116 29.452511 
L 126.348311 48.644804 
L 128.024507 46.245768 
L 129.700703 131.411571 
L 131.376899 52.243359 
L 133.053094 70.236135 
L 134.72929 23.454919 
L 136.405486 153.002902 
L 138.081681 31.851547 
L 139.757877 174.594232 
L 141.434073 58.240951 
L 143.110268 102.623131 
L 144.786464 42.647213 
L 146.46266 57.041433 
L 148.138855 117.017351 
L 149.815051 43.846731 
L 151.491247 45.046249 
L 154.843638 176.993269 
L 156.519834 55.841915 
L 158.19603 87.029392 
L 159.872225 63.039025 
L 161.548421 41.447694 
L 163.224617 174.594232 
L 164.900812 174.594232 
L 166.577008 117.017351 
L 168.253204 46.245768 
L 169.929399 200.983636 
L 173.281791 67.837098 
L 174.957986 90.627947 
L 176.634182 75.034208 
L 178.310378 175.793751 
L 179.986574 41.447694 
L 181.662769 39.048657 
L 183.338965 88.22891 
L 185.015161 174.594232 
L 186.691356 59.44047 
L 190.043748 61.839506 
L 191.719943 48.644804 
L 193.396139 70.236135 
L 195.072335 97.825057 
L 196.74853 69.036616 
L 198.424726 35.450102 
L 200.100922 51.043841 
L 201.777118 67.837098 
L 203.453313 35.450102 
L 205.129509 41.447694 
L 206.805705 61.839506 
L 208.4819 63.039025 
L 210.158096 91.827465 
L 211.834292 105.022167 
L 213.510487 81.0318 
L 215.186683 49.844323 
L 216.862879 72.635172 
L 218.539074 45.046249 
L 220.21527 78.632763 
L 221.891466 49.844323 
L 223.567662 82.231318 
L 225.243857 64.238543 
L 226.920053 107.421204 
L 228.596249 51.043841 
L 230.272444 75.034208 
L 231.94864 156.601457 
L 233.624836 71.435653 
L 235.301031 43.846731 
L 236.977227 64.238543 
L 238.653423 59.44047 
L 240.329618 21.055882 
L 242.005814 70.236135 
L 243.68201 48.644804 
L 245.358206 49.844323 
L 247.034401 59.44047 
L 248.710597 19.856364 
L 250.386793 67.837098 
L 252.062988 181.791343 
L 253.739184 48.644804 
L 255.41538 70.236135 
L 257.091575 51.043841 
L 258.767771 63.039025 
L 260.443967 144.606273 
L 262.120162 64.238543 
L 263.796358 129.012535 
L 265.472554 51.043841 
L 267.14875 57.041433 
L 268.824945 174.594232 
L 270.501141 54.642396 
L 272.177337 39.048657 
L 273.853532 138.608682 
L 275.529728 82.231318 
L 277.205924 63.039025 
L 278.882119 41.447694 
L 280.558315 48.644804 
L 282.234511 99.024576 
L 283.910706 94.226502 
L 285.586902 83.430837 
L 287.263098 79.832282 
L 288.939294 107.421204 
L 290.615489 47.445286 
L 292.291685 31.851547 
L 293.967881 25.853955 
L 295.644076 48.644804 
L 297.320272 40.248176 
L 298.996468 42.647213 
L 300.672663 49.844323 
L 302.348859 27.053474 
L 304.025055 174.594232 
L 305.70125 119.416388 
L 307.377446 40.248176 
L 309.053642 31.851547 
L 310.729838 93.026984 
L 312.406033 71.435653 
L 314.082229 84.630355 
L 315.758425 200.983636 
L 317.43462 41.447694 
L 319.110816 67.837098 
L 320.787012 61.839506 
L 322.463207 77.433245 
L 324.139403 43.846731 
L 325.815599 155.401939 
L 327.491794 65.438061 
L 329.16799 36.649621 
L 330.844186 179.392306 
L 332.520382 99.024576 
L 334.196577 129.012535 
L 335.872773 41.447694 
L 337.548969 49.844323 
L 339.225164 55.841915 
L 340.90136 37.849139 
L 342.577556 176.993269 
L 344.253751 37.849139 
L 345.929947 84.630355 
L 347.606143 71.435653 
L 349.282338 106.221686 
L 350.958534 39.048657 
L 352.63473 88.22891 
L 354.310926 43.846731 
L 355.987121 96.625539 
L 357.663317 48.644804 
L 359.339513 119.416388 
L 361.015708 129.012535 
L 362.691904 119.416388 
L 364.3681 129.012535 
L 366.044295 176.993269 
L 367.720491 49.844323 
L 369.396687 34.250584 
L 371.072882 71.435653 
L 372.749078 41.447694 
L 374.425274 153.002902 
L 376.10147 42.647213 
L 377.777665 59.44047 
L 379.453861 57.041433 
L 381.130057 73.83469 
L 382.806252 51.043841 
L 384.482448 42.647213 
L 386.158644 96.625539 
L 387.834839 39.048657 
L 389.511035 43.846731 
L 391.187231 88.22891 
L 392.863426 89.428429 
L 394.539622 70.236135 
L 396.215818 36.649621 
L 397.892014 101.423612 
L 399.568209 31.851547 
L 401.244405 60.639988 
L 402.920601 120.615906 
L 404.596796 67.837098 
L 406.272992 81.0318 
L 407.949188 53.442878 
L 409.625383 45.046249 
L 411.301579 65.438061 
L 412.977775 70.236135 
L 414.65397 48.644804 
L 416.330166 52.243359 
L 418.006362 45.046249 
L 419.682558 55.841915 
L 421.358753 198.5846 
L 423.034949 174.594232 
L 424.711145 83.430837 
L 426.38734 101.423612 
L 428.063536 60.639988 
L 429.739732 105.022167 
L 431.415927 78.632763 
L 433.092123 138.608682 
L 434.768319 41.447694 
L 436.444514 156.601457 
L 438.12071 40.248176 
L 439.796906 29.452511 
L 441.473101 154.20242 
L 443.149297 55.841915 
L 444.825493 138.608682 
L 446.501689 119.416388 
L 448.177884 61.839506 
L 449.85408 97.825057 
L 451.530276 49.844323 
L 453.206471 40.248176 
L 454.882667 46.245768 
L 456.558863 42.647213 
L 458.235058 111.019759 
L 459.911254 42.647213 
L 461.58745 55.841915 
L 463.263645 82.231318 
L 464.939841 48.644804 
L 466.616037 48.644804 
L 468.292233 66.63758 
L 469.968428 97.825057 
L 471.644624 37.849139 
L 473.32082 61.839506 
L 474.997015 65.438061 
L 476.673211 53.442878 
L 478.349407 90.627947 
L 480.025602 48.644804 
L 481.701798 60.639988 
L 483.377994 60.639988 
L 485.054189 47.445286 
L 486.730385 84.630355 
L 488.406581 39.048657 
L 490.082777 65.438061 
L 491.758972 58.240951 
L 493.435168 53.442878 
L 495.111364 82.231318 
L 495.111364 82.231318 
" clip-path="url(#p8345cc4278)" style="fill: none; stroke: #99004d; stroke-width: 0.8; stroke-linecap: square"/>
   </g>
   <g id="patch_3">
    <path d="M 56.87 210.04 
L 56.87 10.8 
" style="fill: none; stroke: #000000; stroke-width: 0.8; stroke-linejoin: miter; stroke-linecap: square"/>
   </g>
   <g id="patch_4">
    <path d="M 515.98 210.04 
L 515.98 10.8 
" style="fill: none; stroke: #000000; stroke-width: 0.8; stroke-linejoin: miter; stroke-linecap: square"/>
   </g>
   <g id="patch_5">
    <path d="M 56.87 210.04 
L 515.98 210.04 
" style="fill: none; stroke: #000000; stroke-width: 0.8; stroke-linejoin: miter; stroke-linecap: square"/>
   </g>
   <g id="patch_6">
    <path d="M 56.87 10.8 
L 515.98 10.8 
" style="fill: none; stroke: #000000; stroke-width: 0.8; stroke-linejoin: miter; stroke-linecap: square"/>
   </g>
  </g>
  <g id="axes_2">
   <g id="matplotlib.axis_3">
    <g id="ytick_9">
     <g id="line2d_16">
      <defs>
       <path id="m6aea830eba" d="M 0 0 
L 3.5 0 
" style="stroke: #000000; stroke-width: 0.8"/>
      </defs>
      <g>
       <use xlink:href="#m6aea830eba" x="515.98" y="200.983636" style="stroke: #000000; stroke-width: 0.8"/>
      </g>
     </g>
     <g id="text_17">
      <text style="font: 10px 'DejaVu Sans', 'Bitstream Vera Sans', 'Computer Modern Sans Serif', 'Lucida Grande', 'Verdana', 'Geneva', 'Lucid', 'Arial', 'Helvetica', 'Avant Garde', sans-serif; text-anchor: start" x="522.98" y="204.782855" transform="rotate(-0 522.98 204.782855)">0.0</text>
     </g>
    </g>
    <g id="ytick_10">
     <g id="line2d_17">
      <g>
       <use xlink:href="#m6aea830eba" x="515.98" y="178.342727" style="stroke: #000000; stroke-width: 0.8"/>
      </g>
     </g>
     <g id="text_18">
      <text style="font: 10px 'DejaVu Sans', 'Bitstream Vera Sans', 'Computer Modern Sans Serif', 'Lucida Grande', 'Verdana', 'Geneva', 'Lucid', 'Arial', 'Helvetica', 'Avant Garde', sans-serif; text-anchor: start" x="522.98" y="182.141946" transform="rotate(-0 522.98 182.141946)">2.5</text>
     </g>
    </g>
    <g id="ytick_11">
     <g id="line2d_18">
      <g>
       <use xlink:href="#m6aea830eba" x="515.98" y="155.701818" style="stroke: #000000; stroke-width: 0.8"/>
      </g>
     </g>
     <g id="text_19">
      <text style="font: 10px 'DejaVu Sans', 'Bitstream Vera Sans', 'Computer Modern Sans Serif', 'Lucida Grande', 'Verdana', 'Geneva', 'Lucid', 'Arial', 'Helvetica', 'Avant Garde', sans-serif; text-anchor: start" x="522.98" y="159.501037" transform="rotate(-0 522.98 159.501037)">5.0</text>
     </g>
    </g>
    <g id="ytick_12">
     <g id="line2d_19">
      <g>
       <use xlink:href="#m6aea830eba" x="515.98" y="133.060909" style="stroke: #000000; stroke-width: 0.8"/>
      </g>
     </g>
     <g id="text_20">
      <text style="font: 10px 'DejaVu Sans', 'Bitstream Vera Sans', 'Computer Modern Sans Serif', 'Lucida Grande', 'Verdana', 'Geneva', 'Lucid', 'Arial', 'Helvetica', 'Avant Garde', sans-serif; text-anchor: start" x="522.98" y="136.860128" transform="rotate(-0 522.98 136.860128)">7.5</text>
     </g>
    </g>
    <g id="ytick_13">
     <g id="line2d_20">
      <g>
       <use xlink:href="#m6aea830eba" x="515.98" y="110.42" style="stroke: #000000; stroke-width: 0.8"/>
      </g>
     </g>
     <g id="text_21">
      <text style="font: 10px 'DejaVu Sans', 'Bitstream Vera Sans', 'Computer Modern Sans Serif', 'Lucida Grande', 'Verdana', 'Geneva', 'Lucid', 'Arial', 'Helvetica', 'Avant Garde', sans-serif; text-anchor: start" x="522.98" y="114.219219" transform="rotate(-0 522.98 114.219219)">10.0</text>
     </g>
    </g>
    <g id="ytick_14">
     <g id="line2d_21">
      <g>
       <use xlink:href="#m6aea830eba" x="515.98" y="87.779091" style="stroke: #000000; stroke-width: 0.8"/>
      </g>
     </g>
     <g id="text_22">
      <text style="font: 10px 'DejaVu Sans', 'Bitstream Vera Sans', 'Computer Modern Sans Serif', 'Lucida Grande', 'Verdana', 'Geneva', 'Lucid', 'Arial', 'Helvetica', 'Avant Garde', sans-serif; text-anchor: start" x="522.98" y="91.57831" transform="rotate(-0 522.98 91.57831)">12.5</text>
     </g>
    </g>
    <g id="ytick_15">
     <g id="line2d_22">
      <g>
       <use xlink:href="#m6aea830eba" x="515.98" y="65.138182" style="stroke: #000000; stroke-width: 0.8"/>
      </g>
     </g>
     <g id="text_23">
      <text style="font: 10px 'DejaVu Sans', 'Bitstream Vera Sans', 'Computer Modern Sans Serif', 'Lucida Grande', 'Verdana', 'Geneva', 'Lucid', 'Arial', 'Helvetica', 'Avant Garde', sans-serif; text-anchor: start" x="522.98" y="68.937401" transform="rotate(-0 522.98 68.937401)">15.0</text>
     </g>
    </g>
    <g id="ytick_16">
     <g id="line2d_23">
      <g>
       <use xlink:href="#m6aea830eba" x="515.98" y="42.497273" style="stroke: #000000; stroke-width: 0.8"/>
      </g>
     </g>
     <g id="text_24">
      <text style="font: 10px 'DejaVu Sans', 'Bitstream Vera Sans', 'Computer Modern Sans Serif', 'Lucida Grande', 'Verdana', 'Geneva', 'Lucid', 'Arial', 'Helvetica', 'Avant Garde', sans-serif; text-anchor: start" x="522.98" y="46.296491" transform="rotate(-0 522.98 46.296491)">17.5</text>
     </g>
    </g>
    <g id="ytick_17">
     <g id="line2d_24">
      <g>
       <use xlink:href="#m6aea830eba" x="515.98" y="19.856364" style="stroke: #000000; stroke-width: 0.8"/>
      </g>
     </g>
     <g id="text_25">
      <text style="font: 10px 'DejaVu Sans', 'Bitstream Vera Sans', 'Computer Modern Sans Serif', 'Lucida Grande', 'Verdana', 'Geneva', 'Lucid', 'Arial', 'Helvetica', 'Avant Garde', sans-serif; text-anchor: start" x="522.98" y="23.655582" transform="rotate(-0 522.98 23.655582)">20.0</text>
     </g>
    </g>
    <g id="text_26">
     <text style="font: 10px 'DejaVu Sans', 'Bitstream Vera Sans', 'Computer Modern Sans Serif', 'Lucida Grande', 'Verdana', 'Geneva', 'Lucid', 'Arial', 'Helvetica', 'Avant Garde', sans-serif; text-anchor: middle" x="562.844063" y="110.42" transform="rotate(-90 562.844063 110.42)">hw(data)</text>
    </g>
   </g>
   <g id="line2d_25">
    <path d="M 77.738636 128.532727 
L 79.414832 164.758182 
L 81.091028 47.025455 
L 82.767223 28.912727 
L 84.443419 128.532727 
L 86.119615 56.081818 
L 87.795811 92.307273 
L 91.148202 74.194545 
L 92.824398 191.927273 
L 94.500593 164.758182 
L 96.176789 74.194545 
L 97.852985 128.532727 
L 99.52918 47.025455 
L 101.205376 56.081818 
L 102.881572 74.194545 
L 104.557767 56.081818 
L 106.233963 83.250909 
L 107.910159 92.307273 
L 109.586355 173.814545 
L 111.26255 119.476364 
L 112.938746 137.589091 
L 114.614942 101.363636 
L 116.291137 74.194545 
L 117.967333 65.138182 
L 119.643529 47.025455 
L 121.319724 74.194545 
L 122.99592 65.138182 
L 124.672116 37.969091 
L 126.348311 47.025455 
L 128.024507 74.194545 
L 129.700703 173.814545 
L 131.376899 74.194545 
L 133.053094 56.081818 
L 134.72929 74.194545 
L 136.405486 182.870909 
L 138.081681 47.025455 
L 139.757877 191.927273 
L 141.434073 83.250909 
L 143.110268 137.589091 
L 144.786464 65.138182 
L 146.46266 28.912727 
L 148.138855 164.758182 
L 149.815051 74.194545 
L 151.491247 37.969091 
L 153.167442 155.701818 
L 154.843638 191.927273 
L 156.519834 19.856364 
L 158.19603 146.645455 
L 159.872225 37.969091 
L 161.548421 37.969091 
L 163.224617 191.927273 
L 164.900812 191.927273 
L 166.577008 164.758182 
L 168.253204 83.250909 
L 169.929399 200.983636 
L 171.605595 173.814545 
L 173.281791 101.363636 
L 174.957986 137.589091 
L 176.634182 128.532727 
L 178.310378 191.927273 
L 179.986574 47.025455 
L 181.662769 56.081818 
L 183.338965 128.532727 
L 185.015161 191.927273 
L 186.691356 74.194545 
L 188.367552 101.363636 
L 190.043748 37.969091 
L 191.719943 47.025455 
L 193.396139 119.476364 
L 195.072335 155.701818 
L 196.74853 37.969091 
L 200.100922 56.081818 
L 201.777118 110.42 
L 203.453313 101.363636 
L 205.129509 56.081818 
L 206.805705 83.250909 
L 208.4819 101.363636 
L 210.158096 146.645455 
L 213.510487 128.532727 
L 215.186683 65.138182 
L 216.862879 92.307273 
L 218.539074 65.138182 
L 220.21527 137.589091 
L 221.891466 83.250909 
L 223.567662 128.532727 
L 225.243857 110.42 
L 226.920053 155.701818 
L 228.596249 65.138182 
L 230.272444 137.589091 
L 231.94864 182.870909 
L 233.624836 101.363636 
L 235.301031 47.025455 
L 236.977227 101.363636 
L 238.653423 65.138182 
L 240.329618 37.969091 
L 242.005814 47.025455 
L 243.68201 92.307273 
L 245.358206 92.307273 
L 247.034401 47.025455 
L 248.710597 37.969091 
L 250.386793 74.194545 
L 252.062988 191.927273 
L 253.739184 37.969091 
L 255.41538 101.363636 
L 257.091575 47.025455 
L 258.767771 74.194545 
L 260.443967 173.814545 
L 262.120162 110.42 
L 263.796358 173.814545 
L 265.472554 74.194545 
L 267.14875 92.307273 
L 268.824945 191.927273 
L 270.501141 37.969091 
L 272.177337 83.250909 
L 273.853532 173.814545 
L 275.529728 74.194545 
L 277.205924 119.476364 
L 280.558315 83.250909 
L 282.234511 155.701818 
L 285.586902 137.589091 
L 287.263098 101.363636 
L 288.939294 155.701818 
L 290.615489 83.250909 
L 293.967881 83.250909 
L 295.644076 56.081818 
L 297.320272 65.138182 
L 298.996468 56.081818 
L 300.672663 56.081818 
L 302.348859 47.025455 
L 304.025055 191.927273 
L 305.70125 164.758182 
L 307.377446 83.250909 
L 309.053642 65.138182 
L 310.729838 146.645455 
L 312.406033 137.589091 
L 314.082229 137.589091 
L 315.758425 200.983636 
L 317.43462 101.363636 
L 319.110816 83.250909 
L 320.787012 110.42 
L 322.463207 110.42 
L 324.139403 65.138182 
L 325.815599 182.870909 
L 327.491794 65.138182 
L 329.16799 28.912727 
L 330.844186 191.927273 
L 332.520382 155.701818 
L 334.196577 173.814545 
L 335.872773 56.081818 
L 339.225164 110.42 
L 340.90136 56.081818 
L 342.577556 191.927273 
L 344.253751 83.250909 
L 345.929947 128.532727 
L 347.606143 110.42 
L 349.282338 146.645455 
L 350.958534 65.138182 
L 352.63473 137.589091 
L 354.310926 83.250909 
L 355.987121 128.532727 
L 357.663317 65.138182 
L 359.339513 164.758182 
L 362.691904 164.758182 
L 364.3681 155.701818 
L 366.044295 191.927273 
L 367.720491 65.138182 
L 369.396687 37.969091 
L 371.072882 128.532727 
L 372.749078 101.363636 
L 374.425274 182.870909 
L 376.10147 56.081818 
L 377.777665 56.081818 
L 379.453861 37.969091 
L 381.130057 101.363636 
L 382.806252 83.250909 
L 384.482448 56.081818 
L 386.158644 146.645455 
L 387.834839 65.138182 
L 389.511035 83.250909 
L 391.187231 137.589091 
L 392.863426 146.645455 
L 394.539622 128.532727 
L 396.215818 65.138182 
L 397.892014 146.645455 
L 399.568209 47.025455 
L 401.244405 47.025455 
L 402.920601 164.758182 
L 404.596796 74.194545 
L 406.272992 128.532727 
L 407.949188 47.025455 
L 409.625383 92.307273 
L 411.301579 74.194545 
L 412.977775 101.363636 
L 414.65397 92.307273 
L 416.330166 101.363636 
L 418.006362 65.138182 
L 419.682558 56.081818 
L 421.358753 200.983636 
L 423.034949 191.927273 
L 424.711145 128.532727 
L 426.38734 137.589091 
L 428.063536 47.025455 
L 429.739732 155.701818 
L 431.415927 128.532727 
L 433.092123 173.814545 
L 434.768319 37.969091 
L 436.444514 182.870909 
L 438.12071 56.081818 
L 439.796906 65.138182 
L 441.473101 182.870909 
L 443.149297 56.081818 
L 444.825493 173.814545 
L 446.501689 164.758182 
L 448.177884 101.363636 
L 449.85408 146.645455 
L 451.530276 37.969091 
L 453.206471 65.138182 
L 454.882667 28.912727 
L 456.558863 37.969091 
L 458.235058 155.701818 
L 459.911254 56.081818 
L 461.58745 101.363636 
L 463.263645 137.589091 
L 466.616037 47.025455 
L 468.292233 37.969091 
L 469.968428 155.701818 
L 471.644624 65.138182 
L 473.32082 101.363636 
L 474.997015 119.476364 
L 476.673211 56.081818 
L 478.349407 155.701818 
L 480.025602 47.025455 
L 481.701798 101.363636 
L 483.377994 65.138182 
L 485.054189 56.081818 
L 486.730385 128.532727 
L 488.406581 56.081818 
L 490.082777 65.138182 
L 491.758972 37.969091 
L 493.435168 56.081818 
L 495.111364 119.476364 
L 495.111364 119.476364 
" clip-path="url(#p8345cc4278)" style="fill: none; stroke: #235996; stroke-width: 0.8; stroke-linecap: square"/>
   </g>
   <g id="patch_7">
    <path d="M 56.87 210.04 
L 56.87 10.8 
" style="fill: none; stroke: #000000; stroke-width: 0.8; stroke-linejoin: miter; stroke-linecap: square"/>
   </g>
   <g id="patch_8">
    <path d="M 515.98 210.04 
L 515.98 10.8 
" style="fill: none; stroke: #000000; stroke-width: 0.8; stroke-linejoin: miter; stroke-linecap: square"/>
   </g>
   <g id="patch_9">
    <path d="M 56.87 210.04 
L 515.98 210.04 
" style="fill: none; stroke: #000000; stroke-width: 0.8; stroke-linejoin: miter; stroke-linecap: square"/>
   </g>
   <g id="patch_10">
    <path d="M 56.87 10.8 
L 515.98 10.8 
" style="fill: none; stroke: #000000; stroke-width: 0.8; stroke-linejoin: miter; stroke-linecap: square"/>
   </g>
   <g id="legend_1">
    <g id="patch_11">
     <path d="M 179.209125 43.4565 
L 393.640875 43.4565 
Q 396.520875 43.4565 396.520875 40.5765 
L 396.520875 20.88 
Q 396.520875 18 393.640875 18 
L 179.209125 18 
Q 176.329125 18 176.329125 20.88 
L 176.329125 40.5765 
Q 176.329125 43.4565 179.209125 43.4565 
z
" style="fill: #ffffff; opacity: 0.8; stroke: #000000; stroke-linejoin: miter"/>
    </g>
    <g id="line2d_26">
     <path d="M 182.089125 29.66175 
L 196.489125 29.66175 
L 210.889125 29.66175 
" style="fill: none; stroke: #99004d; stroke-width: 0.8; stroke-linecap: square"/>
    </g>
    <g id="text_27">
     <text style="font: 14.4px 'DejaVu Sans', 'Bitstream Vera Sans', 'Computer Modern Sans Serif', 'Lucida Grande', 'Verdana', 'Geneva', 'Lucid', 'Arial', 'Helvetica', 'Avant Garde', sans-serif; text-anchor: start" x="222.409125" y="34.70175" transform="rotate(-0 222.409125 34.70175)">power</text>
    </g>
    <g id="line2d_27">
     <path d="M 295.718625 29.66175 
L 310.118625 29.66175 
L 324.518625 29.66175 
" style="fill: none; stroke: #235996; stroke-width: 0.8; stroke-linecap: square"/>
    </g>
    <g id="text_28">
     <text style="font: 14.4px 'DejaVu Sans', 'Bitstream Vera Sans', 'Computer Modern Sans Serif', 'Lucida Grande', 'Verdana', 'Geneva', 'Lucid', 'Arial', 'Helvetica', 'Avant Garde', sans-serif; text-anchor: start" x="336.038625" y="34.70175" transform="rotate(-0 336.038625 34.70175)">hw(rs1)</text>
    </g>
   </g>
  </g>
 </g>
 <defs>
  <clipPath id="p8345cc4278">
   <rect x="56.87" y="10.8" width="459.11" height="199.24"/>
  </clipPath>
 </defs>
</svg>
