<?xml version="1.0" encoding="utf-8" standalone="no"?>
<!DOCTYPE svg PUBLIC "-//W3C//DTD SVG 1.1//EN"
  "http://www.w3.org/Graphics/SVG/1.1/DTD/svg11.dtd">
<svg xmlns:xlink="http://www.w3.org/1999/xlink" width="576pt" height="252pt" viewBox="0 0 576 252" xmlns="http://www.w3.org/2000/svg" version="1.1">
 <metadata>
  <rdf:RDF xmlns:dc="http://purl.org/dc/elements/1.1/" xmlns:cc="http://creativecommons.org/ns#" xmlns:rdf="http://www.w3.org/1999/02/22-rdf-syntax-ns#">
   <cc:Work>
    <dc:type rdf:resource="http://purl.org/dc/dcmitype/StillImage"/>
    <dc:date>2023-12-06T20:29:04.863104</dc:date>
    <dc:format>image/svg+xml</dc:format>
    <dc:creator>
     <cc:Agent>
      <dc:title>Matplotlib v3.7.4, https://matplotlib.org/</dc:title>
     </cc:Agent>
    </dc:creator>
   </cc:Work>
  </rdf:RDF>
 </metadata>
 <defs>
  <style type="text/css">*{stroke-linejoin: round; stroke-linecap: butt}</style>
 </defs>
 <g id="figure_1">
  <g id="patch_1">
   <path d="M 0 252 
L 576 252 
L 576 0 
L 0 0 
z
" style="fill: #ffffff"/>
  </g>
  <g id="axes_1">
   <g id="patch_2">
    <path d="M 56.96 210.04 
L 525.43 210.04 
L 525.43 12.857647 
L 56.96 12.857647 
z
" style="fill: #ffffff"/>
   </g>
   <g id="matplotlib.axis_1">
    <g id="xtick_1">
     <g id="line2d_1">
      <defs>
       <path id="mbb49e20faa" d="M 0 0 
L 0 3.5 
" style="stroke: #000000; stroke-width: 0.8"/>
      </defs>
      <g>
       <use xlink:href="#mbb49e20faa" x="78.254091" y="210.04" style="stroke: #000000; stroke-width: 0.8"/>
      </g>
     </g>
     <g id="text_1">
      <text style="font: 10px 'DejaVu Sans', 'Bitstream Vera Sans', 'Computer Modern Sans Serif', 'Lucida Grande', 'Verdana', 'Geneva', 'Lucid', 'Arial', 'Helvetica', 'Avant Garde', sans-serif; text-anchor: middle" x="78.254091" y="224.638438" transform="rotate(-0 78.254091 224.638438)">0</text>
     </g>
    </g>
    <g id="xtick_2">
     <g id="line2d_2">
      <g>
       <use xlink:href="#mbb49e20faa" x="163.772528" y="210.04" style="stroke: #000000; stroke-width: 0.8"/>
      </g>
     </g>
     <g id="text_2">
      <text style="font: 10px 'DejaVu Sans', 'Bitstream Vera Sans', 'Computer Modern Sans Serif', 'Lucida Grande', 'Verdana', 'Geneva', 'Lucid', 'Arial', 'Helvetica', 'Avant Garde', sans-serif; text-anchor: middle" x="163.772528" y="224.638438" transform="rotate(-0 163.772528 224.638438)">50</text>
     </g>
    </g>
    <g id="xtick_3">
     <g id="line2d_3">
      <g>
       <use xlink:href="#mbb49e20faa" x="249.290966" y="210.04" style="stroke: #000000; stroke-width: 0.8"/>
      </g>
     </g>
     <g id="text_3">
      <text style="font: 10px 'DejaVu Sans', 'Bitstream Vera Sans', 'Computer Modern Sans Serif', 'Lucida Grande', 'Verdana', 'Geneva', 'Lucid', 'Arial', 'Helvetica', 'Avant Garde', sans-serif; text-anchor: middle" x="249.290966" y="224.638438" transform="rotate(-0 249.290966 224.638438)">100</text>
     </g>
    </g>
    <g id="xtick_4">
     <g id="line2d_4">
      <g>
       <use xlink:href="#mbb49e20faa" x="334.809403" y="210.04" style="stroke: #000000; stroke-width: 0.8"/>
      </g>
     </g>
     <g id="text_4">
      <text style="font: 10px 'DejaVu Sans', 'Bitstream Vera Sans', 'Computer Modern Sans Serif', 'Lucida Grande', 'Verdana', 'Geneva', 'Lucid', 'Arial', 'Helvetica', 'Avant Garde', sans-serif; text-anchor: middle" x="334.809403" y="224.638438" transform="rotate(-0 334.809403 224.638438)">150</text>
     </g>
    </g>
    <g id="xtick_5">
     <g id="line2d_5">
      <g>
       <use xlink:href="#mbb49e20faa" x="420.32784" y="210.04" style="stroke: #000000; stroke-width: 0.8"/>
      </g>
     </g>
     <g id="text_5">
      <text style="font: 10px 'DejaVu Sans', 'Bitstream Vera Sans', 'Computer Modern Sans Serif', 'Lucida Grande', 'Verdana', 'Geneva', 'Lucid', 'Arial', 'Helvetica', 'Avant Garde', sans-serif; text-anchor: middle" x="420.32784" y="224.638438" transform="rotate(-0 420.32784 224.638438)">200</text>
     </g>
    </g>
    <g id="xtick_6">
     <g id="line2d_6">
      <g>
       <use xlink:href="#mbb49e20faa" x="505.846278" y="210.04" style="stroke: #000000; stroke-width: 0.8"/>
      </g>
     </g>
     <g id="text_6">
      <text style="font: 10px 'DejaVu Sans', 'Bitstream Vera Sans', 'Computer Modern Sans Serif', 'Lucida Grande', 'Verdana', 'Geneva', 'Lucid', 'Arial', 'Helvetica', 'Avant Garde', sans-serif; text-anchor: middle" x="505.846278" y="224.638438" transform="rotate(-0 505.846278 224.638438)">250</text>
     </g>
    </g>
    <g id="text_7">
     <text style="font: 10px 'DejaVu Sans', 'Bitstream Vera Sans', 'Computer Modern Sans Serif', 'Lucida Grande', 'Verdana', 'Geneva', 'Lucid', 'Arial', 'Helvetica', 'Avant Garde', sans-serif; text-anchor: middle" x="291.195" y="238.316563" transform="rotate(-0 291.195 238.316563)">Cycles</text>
    </g>
   </g>
   <g id="matplotlib.axis_2">
    <g id="ytick_1">
     <g id="line2d_7">
      <defs>
       <path id="mb43edc8542" d="M 0 0 
L -3.5 0 
" style="stroke: #000000; stroke-width: 0.8"/>
      </defs>
      <g>
       <use xlink:href="#mb43edc8542" x="56.96" y="202.248778" style="stroke: #000000; stroke-width: 0.8"/>
      </g>
     </g>
     <g id="text_8">
      <text style="font: 10px 'DejaVu Sans', 'Bitstream Vera Sans', 'Computer Modern Sans Serif', 'Lucida Grande', 'Verdana', 'Geneva', 'Lucid', 'Arial', 'Helvetica', 'Avant Garde', sans-serif; text-anchor: end" x="49.96" y="206.047997" transform="rotate(-0 49.96 206.047997)">0</text>
     </g>
    </g>
    <g id="ytick_2">
     <g id="line2d_8">
      <g>
       <use xlink:href="#mb43edc8542" x="56.96" y="178.816532" style="stroke: #000000; stroke-width: 0.8"/>
      </g>
     </g>
     <g id="text_9">
      <text style="font: 10px 'DejaVu Sans', 'Bitstream Vera Sans', 'Computer Modern Sans Serif', 'Lucida Grande', 'Verdana', 'Geneva', 'Lucid', 'Arial', 'Helvetica', 'Avant Garde', sans-serif; text-anchor: end" x="49.96" y="182.615751" transform="rotate(-0 49.96 182.615751)">20</text>
     </g>
    </g>
    <g id="ytick_3">
     <g id="line2d_9">
      <g>
       <use xlink:href="#mb43edc8542" x="56.96" y="155.384285" style="stroke: #000000; stroke-width: 0.8"/>
      </g>
     </g>
     <g id="text_10">
      <text style="font: 10px 'DejaVu Sans', 'Bitstream Vera Sans', 'Computer Modern Sans Serif', 'Lucida Grande', 'Verdana', 'Geneva', 'Lucid', 'Arial', 'Helvetica', 'Avant Garde', sans-serif; text-anchor: end" x="49.96" y="159.183504" transform="rotate(-0 49.96 159.183504)">40</text>
     </g>
    </g>
    <g id="ytick_4">
     <g id="line2d_10">
      <g>
       <use xlink:href="#mb43edc8542" x="56.96" y="131.952039" style="stroke: #000000; stroke-width: 0.8"/>
      </g>
     </g>
     <g id="text_11">
      <text style="font: 10px 'DejaVu Sans', 'Bitstream Vera Sans', 'Computer Modern Sans Serif', 'Lucida Grande', 'Verdana', 'Geneva', 'Lucid', 'Arial', 'Helvetica', 'Avant Garde', sans-serif; text-anchor: end" x="49.96" y="135.751258" transform="rotate(-0 49.96 135.751258)">60</text>
     </g>
    </g>
    <g id="ytick_5">
     <g id="line2d_11">
      <g>
       <use xlink:href="#mb43edc8542" x="56.96" y="108.519793" style="stroke: #000000; stroke-width: 0.8"/>
      </g>
     </g>
     <g id="text_12">
      <text style="font: 10px 'DejaVu Sans', 'Bitstream Vera Sans', 'Computer Modern Sans Serif', 'Lucida Grande', 'Verdana', 'Geneva', 'Lucid', 'Arial', 'Helvetica', 'Avant Garde', sans-serif; text-anchor: end" x="49.96" y="112.319011" transform="rotate(-0 49.96 112.319011)">80</text>
     </g>
    </g>
    <g id="ytick_6">
     <g id="line2d_12">
      <g>
       <use xlink:href="#mb43edc8542" x="56.96" y="85.087546" style="stroke: #000000; stroke-width: 0.8"/>
      </g>
     </g>
     <g id="text_13">
      <text style="font: 10px 'DejaVu Sans', 'Bitstream Vera Sans', 'Computer Modern Sans Serif', 'Lucida Grande', 'Verdana', 'Geneva', 'Lucid', 'Arial', 'Helvetica', 'Avant Garde', sans-serif; text-anchor: end" x="49.96" y="88.886765" transform="rotate(-0 49.96 88.886765)">100</text>
     </g>
    </g>
    <g id="ytick_7">
     <g id="line2d_13">
      <g>
       <use xlink:href="#mb43edc8542" x="56.96" y="61.6553" style="stroke: #000000; stroke-width: 0.8"/>
      </g>
     </g>
     <g id="text_14">
      <text style="font: 10px 'DejaVu Sans', 'Bitstream Vera Sans', 'Computer Modern Sans Serif', 'Lucida Grande', 'Verdana', 'Geneva', 'Lucid', 'Arial', 'Helvetica', 'Avant Garde', sans-serif; text-anchor: end" x="49.96" y="65.454519" transform="rotate(-0 49.96 65.454519)">120</text>
     </g>
    </g>
    <g id="ytick_8">
     <g id="line2d_14">
      <g>
       <use xlink:href="#mb43edc8542" x="56.96" y="38.223054" style="stroke: #000000; stroke-width: 0.8"/>
      </g>
     </g>
     <g id="text_15">
      <text style="font: 10px 'DejaVu Sans', 'Bitstream Vera Sans', 'Computer Modern Sans Serif', 'Lucida Grande', 'Verdana', 'Geneva', 'Lucid', 'Arial', 'Helvetica', 'Avant Garde', sans-serif; text-anchor: end" x="49.96" y="42.022272" transform="rotate(-0 49.96 42.022272)">140</text>
     </g>
    </g>
    <g id="ytick_9">
     <g id="line2d_15">
      <g>
       <use xlink:href="#mb43edc8542" x="56.96" y="14.790807" style="stroke: #000000; stroke-width: 0.8"/>
      </g>
     </g>
     <g id="text_16">
      <text style="font: 10px 'DejaVu Sans', 'Bitstream Vera Sans', 'Computer Modern Sans Serif', 'Lucida Grande', 'Verdana', 'Geneva', 'Lucid', 'Arial', 'Helvetica', 'Avant Garde', sans-serif; text-anchor: end" x="49.96" y="18.590026" transform="rotate(-0 49.96 18.590026)">160</text>
     </g>
    </g>
    <g id="text_17">
     <text style="font: 10px 'DejaVu Sans', 'Bitstream Vera Sans', 'Computer Modern Sans Serif', 'Lucida Grande', 'Verdana', 'Geneva', 'Lucid', 'Arial', 'Helvetica', 'Avant Garde', sans-serif; text-anchor: middle" x="18.792813" y="111.448824" transform="rotate(-90 18.792813 111.448824)">power (uW)</text>
    </g>
   </g>
   <g id="line2d_16">
    <path d="M 78.254091 75.714648 
L 79.96446 60.483688 
L 81.674828 89.773996 
L 83.385197 85.087546 
L 85.095566 72.199811 
L 86.805935 51.110789 
L 88.516303 144.839775 
L 90.226672 177.644919 
L 91.937041 35.879829 
L 93.64741 100.318507 
L 95.357778 39.394666 
L 97.068147 47.595952 
L 98.778516 155.384285 
L 100.488885 175.301695 
L 102.199253 72.199811 
L 103.909622 60.483688 
L 105.619991 46.42434 
L 107.33036 35.879829 
L 109.040728 83.915934 
L 110.751097 46.42434 
L 112.461466 201.077166 
L 114.171835 114.377854 
L 115.882203 39.394666 
L 117.592572 156.555898 
L 119.302941 52.282402 
L 121.01331 201.077166 
L 122.723678 30.021768 
L 124.434047 103.833343 
L 126.144416 162.413959 
L 127.854785 39.394666 
L 129.565153 198.733941 
L 131.275522 112.03463 
L 132.985891 46.42434 
L 134.69626 53.454014 
L 136.406628 82.744322 
L 138.116997 142.49655 
L 139.827366 56.968851 
L 141.537735 63.998525 
L 143.248103 110.863017 
L 144.958472 21.820481 
L 148.37921 47.595952 
L 150.089578 59.312075 
L 151.799947 107.34818 
L 153.510316 76.88626 
L 155.220685 83.915934 
L 156.931053 198.733941 
L 158.641422 135.466876 
L 160.351791 201.077166 
L 162.06216 123.750753 
L 163.772528 55.797238 
L 165.482897 71.028199 
L 167.193266 51.110789 
L 168.903635 80.401097 
L 170.614003 71.028199 
L 172.324372 141.324938 
L 174.034741 55.797238 
L 175.74511 63.998525 
L 177.455478 100.318507 
L 179.165847 83.915934 
L 180.876216 116.721079 
L 182.586585 56.968851 
L 184.296953 51.110789 
L 186.007322 37.051441 
L 187.717691 160.070735 
L 189.42806 74.543036 
L 191.138428 41.737891 
L 192.848797 97.975282 
L 196.269535 198.733941 
L 197.979903 178.816532 
L 199.690272 82.744322 
L 201.400641 55.797238 
L 203.111009 31.19338 
L 204.821378 54.625626 
L 206.531747 48.767565 
L 208.242116 58.140463 
L 209.952484 115.549467 
L 211.662853 30.021768 
L 213.373222 92.11722 
L 215.083591 147.182999 
L 216.793959 68.684974 
L 218.504328 90.945608 
L 220.214697 49.939177 
L 221.925066 62.826912 
L 223.635434 68.684974 
L 225.345803 81.572709 
L 227.056172 101.490119 
L 228.766541 45.252728 
L 230.476909 127.26559 
L 232.187278 49.939177 
L 233.897647 66.341749 
L 235.608016 89.773996 
L 237.318384 133.123651 
L 239.028753 65.170137 
L 240.739122 85.087546 
L 242.449491 38.223054 
L 244.159859 74.543036 
L 245.870228 101.490119 
L 247.580597 54.625626 
L 249.290966 56.968851 
L 251.001334 134.295264 
L 252.711703 39.394666 
L 254.422072 71.028199 
L 256.132441 151.869448 
L 257.842809 41.737891 
L 259.553178 65.170137 
L 261.263547 52.282402 
L 262.973916 46.42434 
L 266.394653 178.816532 
L 268.105022 162.413959 
L 269.815391 93.288833 
L 271.525759 175.301695 
L 273.236128 74.543036 
L 274.946497 121.407528 
L 276.656866 58.140463 
L 278.367234 198.733941 
L 280.077603 45.252728 
L 281.787972 52.282402 
L 283.498341 46.42434 
L 285.208709 37.051441 
L 286.919078 99.146894 
L 288.629447 131.952039 
L 290.339816 69.856586 
L 293.760553 65.170137 
L 295.470922 85.087546 
L 297.181291 54.625626 
L 298.891659 56.968851 
L 300.602028 71.028199 
L 304.022766 56.968851 
L 305.733134 41.737891 
L 307.443503 74.543036 
L 309.153872 40.566278 
L 310.864241 51.110789 
L 312.574609 83.915934 
L 314.284978 142.49655 
L 315.995347 52.282402 
L 317.705716 38.223054 
L 319.416084 37.051441 
L 321.126453 165.928796 
L 322.836822 154.212673 
L 324.547191 54.625626 
L 326.257559 102.661731 
L 327.967928 178.816532 
L 329.678297 72.199811 
L 331.388666 63.998525 
L 333.099034 78.057872 
L 334.809403 45.252728 
L 336.519772 76.88626 
L 338.230141 72.199811 
L 339.940509 201.077166 
L 341.650878 48.767565 
L 343.361247 52.282402 
L 345.071616 51.110789 
L 346.781984 53.454014 
L 348.492353 51.110789 
L 350.202722 88.602383 
L 351.913091 82.744322 
L 353.623459 71.028199 
L 355.333828 116.721079 
L 357.044197 42.909503 
L 358.754566 26.506931 
L 360.464934 56.968851 
L 362.175303 58.140463 
L 363.885672 56.968851 
L 365.596041 65.170137 
L 367.306409 60.483688 
L 369.016778 58.140463 
L 370.727147 44.081115 
L 372.437516 60.483688 
L 374.147884 55.797238 
L 375.858253 52.282402 
L 377.568622 49.939177 
L 379.278991 74.543036 
L 380.989359 121.407528 
L 382.699728 82.744322 
L 384.410097 25.335318 
L 386.120465 69.856586 
L 387.830834 61.6553 
L 389.541203 45.252728 
L 391.251572 54.625626 
L 392.96194 93.288833 
L 394.672309 107.34818 
L 396.382678 198.733941 
L 398.093047 45.252728 
L 399.803415 136.638488 
L 401.513784 52.282402 
L 403.224153 155.384285 
L 404.934522 65.170137 
L 406.64489 76.88626 
L 408.355259 41.737891 
L 410.065628 55.797238 
L 411.775997 58.140463 
L 413.486365 44.081115 
L 415.196734 78.057872 
L 416.907103 120.235916 
L 418.617472 32.364992 
L 420.32784 198.733941 
L 422.038209 47.595952 
L 423.748578 67.513362 
L 425.458947 44.081115 
L 427.169315 58.140463 
L 428.879684 49.939177 
L 430.590053 44.081115 
L 432.300422 54.625626 
L 434.01079 177.644919 
L 435.721159 41.737891 
L 437.431528 68.684974 
L 439.141897 47.595952 
L 440.852265 59.312075 
L 442.562634 67.513362 
L 444.273003 42.909503 
L 445.983372 71.028199 
L 447.69374 61.6553 
L 449.404109 46.42434 
L 451.114478 35.879829 
L 452.824847 62.826912 
L 454.535215 83.915934 
L 456.245584 54.625626 
L 457.955953 21.820481 
L 459.666322 39.394666 
L 461.37669 79.229485 
L 463.087059 60.483688 
L 464.797428 62.826912 
L 466.507797 74.543036 
L 468.218165 49.939177 
L 469.928534 144.839775 
L 471.638903 71.028199 
L 473.349272 66.341749 
L 475.05964 92.11722 
L 476.770009 46.42434 
L 478.480378 67.513362 
L 480.190747 48.767565 
L 481.901115 103.833343 
L 483.611484 74.543036 
L 485.321853 69.856586 
L 487.032222 62.826912 
L 488.74259 60.483688 
L 490.452959 108.519793 
L 492.163328 41.737891 
L 493.873697 40.566278 
L 495.584065 198.733941 
L 497.294434 157.72751 
L 499.004803 110.863017 
L 500.715172 34.708217 
L 502.42554 52.282402 
L 504.135909 97.975282 
L 504.135909 97.975282 
" clip-path="url(#p28584ec4b5)" style="fill: none; stroke: #99004d; stroke-width: 0.8; stroke-linecap: square"/>
   </g>
   <g id="patch_3">
    <path d="M 56.96 210.04 
L 56.96 12.857647 
" style="fill: none; stroke: #000000; stroke-width: 0.8; stroke-linejoin: miter; stroke-linecap: square"/>
   </g>
   <g id="patch_4">
    <path d="M 525.43 210.04 
L 525.43 12.857647 
" style="fill: none; stroke: #000000; stroke-width: 0.8; stroke-linejoin: miter; stroke-linecap: square"/>
   </g>
   <g id="patch_5">
    <path d="M 56.96 210.04 
L 525.43 210.04 
" style="fill: none; stroke: #000000; stroke-width: 0.8; stroke-linejoin: miter; stroke-linecap: square"/>
   </g>
   <g id="patch_6">
    <path d="M 56.96 12.857647 
L 525.43 12.857647 
" style="fill: none; stroke: #000000; stroke-width: 0.8; stroke-linejoin: miter; stroke-linecap: square"/>
   </g>
  </g>
  <g id="axes_2">
   <g id="matplotlib.axis_3">
    <g id="ytick_10">
     <g id="line2d_17">
      <defs>
       <path id="m82d83cb2a8" d="M 0 0 
L 3.5 0 
" style="stroke: #000000; stroke-width: 0.8"/>
      </defs>
      <g>
       <use xlink:href="#m82d83cb2a8" x="525.43" y="201.077166" style="stroke: #000000; stroke-width: 0.8"/>
      </g>
     </g>
     <g id="text_18">
      <text style="font: 10px 'DejaVu Sans', 'Bitstream Vera Sans', 'Computer Modern Sans Serif', 'Lucida Grande', 'Verdana', 'Geneva', 'Lucid', 'Arial', 'Helvetica', 'Avant Garde', sans-serif; text-anchor: start" x="532.43" y="204.876385" transform="rotate(-0 532.43 204.876385)">0</text>
     </g>
    </g>
    <g id="ytick_11">
     <g id="line2d_18">
      <g>
       <use xlink:href="#m82d83cb2a8" x="525.43" y="158.397003" style="stroke: #000000; stroke-width: 0.8"/>
      </g>
     </g>
     <g id="text_19">
      <text style="font: 10px 'DejaVu Sans', 'Bitstream Vera Sans', 'Computer Modern Sans Serif', 'Lucida Grande', 'Verdana', 'Geneva', 'Lucid', 'Arial', 'Helvetica', 'Avant Garde', sans-serif; text-anchor: start" x="532.43" y="162.196222" transform="rotate(-0 532.43 162.196222)">5</text>
     </g>
    </g>
    <g id="ytick_12">
     <g id="line2d_19">
      <g>
       <use xlink:href="#m82d83cb2a8" x="525.43" y="115.71684" style="stroke: #000000; stroke-width: 0.8"/>
      </g>
     </g>
     <g id="text_20">
      <text style="font: 10px 'DejaVu Sans', 'Bitstream Vera Sans', 'Computer Modern Sans Serif', 'Lucida Grande', 'Verdana', 'Geneva', 'Lucid', 'Arial', 'Helvetica', 'Avant Garde', sans-serif; text-anchor: start" x="532.43" y="119.516059" transform="rotate(-0 532.43 119.516059)">10</text>
     </g>
    </g>
    <g id="ytick_13">
     <g id="line2d_20">
      <g>
       <use xlink:href="#m82d83cb2a8" x="525.43" y="73.036677" style="stroke: #000000; stroke-width: 0.8"/>
      </g>
     </g>
     <g id="text_21">
      <text style="font: 10px 'DejaVu Sans', 'Bitstream Vera Sans', 'Computer Modern Sans Serif', 'Lucida Grande', 'Verdana', 'Geneva', 'Lucid', 'Arial', 'Helvetica', 'Avant Garde', sans-serif; text-anchor: start" x="532.43" y="76.835896" transform="rotate(-0 532.43 76.835896)">15</text>
     </g>
    </g>
    <g id="ytick_14">
     <g id="line2d_21">
      <g>
       <use xlink:href="#m82d83cb2a8" x="525.43" y="30.356514" style="stroke: #000000; stroke-width: 0.8"/>
      </g>
     </g>
     <g id="text_22">
      <text style="font: 10px 'DejaVu Sans', 'Bitstream Vera Sans', 'Computer Modern Sans Serif', 'Lucida Grande', 'Verdana', 'Geneva', 'Lucid', 'Arial', 'Helvetica', 'Avant Garde', sans-serif; text-anchor: start" x="532.43" y="34.155733" transform="rotate(-0 532.43 34.155733)">20</text>
     </g>
    </g>
    <g id="text_23">
     <text style="font: 10px 'DejaVu Sans', 'Bitstream Vera Sans', 'Computer Modern Sans Serif', 'Lucida Grande', 'Verdana', 'Geneva', 'Lucid', 'Arial', 'Helvetica', 'Avant Garde', sans-serif; text-anchor: middle" x="562.753438" y="111.448824" transform="rotate(-90 562.753438 111.448824)">hw(data)</text>
    </g>
   </g>
   <g id="line2d_22">
    <path d="M 78.254091 81.572709 
L 79.96446 81.572709 
L 81.674828 149.86097 
L 83.385197 132.788905 
L 85.095566 98.644775 
L 86.805935 98.644775 
L 88.516303 175.469068 
L 90.226672 192.541133 
L 91.937041 73.036677 
L 93.64741 149.86097 
L 95.357778 90.108742 
L 97.068147 64.500644 
L 98.778516 184.005101 
L 100.488885 192.541133 
L 102.199253 115.71684 
L 103.909622 98.644775 
L 105.619991 98.644775 
L 107.33036 55.964612 
L 109.040728 124.252872 
L 110.751097 90.108742 
L 112.461466 201.077166 
L 114.171835 158.397003 
L 115.882203 90.108742 
L 117.592572 184.005101 
L 119.302941 98.644775 
L 121.01331 201.077166 
L 122.723678 64.500644 
L 124.434047 149.86097 
L 126.144416 184.005101 
L 127.854785 47.428579 
L 129.565153 201.077166 
L 131.275522 158.397003 
L 132.985891 73.036677 
L 134.69626 73.036677 
L 136.406628 141.324938 
L 138.116997 175.469068 
L 139.827366 98.644775 
L 141.537735 115.71684 
L 143.248103 158.397003 
L 144.958472 64.500644 
L 146.668841 55.964612 
L 148.37921 81.572709 
L 150.089578 64.500644 
L 151.799947 158.397003 
L 153.510316 124.252872 
L 155.220685 81.572709 
L 156.931053 201.077166 
L 158.641422 175.469068 
L 160.351791 201.077166 
L 162.06216 166.933035 
L 163.772528 90.108742 
L 165.482897 124.252872 
L 167.193266 115.71684 
L 168.903635 132.788905 
L 170.614003 132.788905 
L 172.324372 175.469068 
L 174.034741 124.252872 
L 175.74511 81.572709 
L 177.455478 158.397003 
L 179.165847 149.86097 
L 180.876216 158.397003 
L 182.586585 64.500644 
L 184.296953 47.428579 
L 186.007322 98.644775 
L 187.717691 184.005101 
L 191.138428 64.500644 
L 192.848797 141.324938 
L 194.559166 175.469068 
L 196.269535 201.077166 
L 197.979903 192.541133 
L 199.690272 124.252872 
L 201.400641 81.572709 
L 203.111009 98.644775 
L 204.821378 64.500644 
L 206.531747 81.572709 
L 208.242116 73.036677 
L 209.952484 166.933035 
L 211.662853 47.428579 
L 213.373222 132.788905 
L 215.083591 175.469068 
L 216.793959 47.428579 
L 218.504328 132.788905 
L 220.214697 38.892546 
L 221.925066 73.036677 
L 223.635434 81.572709 
L 225.345803 124.252872 
L 227.056172 141.324938 
L 228.766541 64.500644 
L 230.476909 166.933035 
L 232.187278 55.964612 
L 233.897647 115.71684 
L 235.608016 149.86097 
L 237.318384 166.933035 
L 239.028753 64.500644 
L 240.739122 149.86097 
L 242.449491 81.572709 
L 244.159859 132.788905 
L 245.870228 149.86097 
L 247.580597 55.964612 
L 249.290966 81.572709 
L 251.001334 175.469068 
L 252.711703 38.892546 
L 254.422072 124.252872 
L 256.132441 184.005101 
L 257.842809 55.964612 
L 259.553178 98.644775 
L 261.263547 90.108742 
L 262.973916 21.820481 
L 264.684284 158.397003 
L 266.394653 192.541133 
L 268.105022 184.005101 
L 269.815391 158.397003 
L 271.525759 192.541133 
L 273.236128 107.180807 
L 274.946497 158.397003 
L 276.656866 115.71684 
L 278.367234 201.077166 
L 280.077603 73.036677 
L 281.787972 55.964612 
L 283.498341 90.108742 
L 285.208709 55.964612 
L 286.919078 149.86097 
L 288.629447 166.933035 
L 290.339816 107.180807 
L 292.050184 73.036677 
L 293.760553 81.572709 
L 295.470922 132.788905 
L 297.181291 90.108742 
L 298.891659 81.572709 
L 300.602028 81.572709 
L 302.312397 107.180807 
L 304.022766 73.036677 
L 305.733134 81.572709 
L 307.443503 124.252872 
L 309.153872 64.500644 
L 310.864241 64.500644 
L 312.574609 132.788905 
L 314.284978 175.469068 
L 315.995347 55.964612 
L 317.705716 30.356514 
L 319.416084 73.036677 
L 321.126453 184.005101 
L 322.836822 184.005101 
L 324.547191 115.71684 
L 326.257559 149.86097 
L 327.967928 192.541133 
L 329.678297 124.252872 
L 331.388666 90.108742 
L 333.099034 98.644775 
L 334.809403 55.964612 
L 336.519772 124.252872 
L 338.230141 141.324938 
L 339.940509 201.077166 
L 341.650878 64.500644 
L 343.361247 81.572709 
L 346.781984 64.500644 
L 348.492353 81.572709 
L 350.202722 141.324938 
L 351.913091 132.788905 
L 353.623459 64.500644 
L 355.333828 158.397003 
L 357.044197 90.108742 
L 360.464934 73.036677 
L 362.175303 73.036677 
L 363.885672 81.572709 
L 365.596041 98.644775 
L 369.016778 81.572709 
L 370.727147 55.964612 
L 372.437516 124.252872 
L 375.858253 73.036677 
L 377.568622 90.108742 
L 380.989359 158.397003 
L 382.699728 141.324938 
L 384.410097 55.964612 
L 386.120465 132.788905 
L 387.830834 81.572709 
L 389.541203 81.572709 
L 391.251572 90.108742 
L 392.96194 149.86097 
L 394.672309 158.397003 
L 396.382678 201.077166 
L 398.093047 81.572709 
L 399.803415 175.469068 
L 401.513784 90.108742 
L 403.224153 184.005101 
L 404.934522 124.252872 
L 406.64489 141.324938 
L 408.355259 107.180807 
L 410.065628 90.108742 
L 411.775997 81.572709 
L 413.486365 64.500644 
L 415.196734 124.252872 
L 416.907103 166.933035 
L 418.617472 81.572709 
L 420.32784 201.077166 
L 422.038209 64.500644 
L 423.748578 81.572709 
L 425.458947 81.572709 
L 427.169315 90.108742 
L 428.879684 73.036677 
L 430.590053 81.572709 
L 432.300422 38.892546 
L 434.01079 192.541133 
L 435.721159 73.036677 
L 437.431528 81.572709 
L 439.141897 55.964612 
L 440.852265 90.108742 
L 442.562634 64.500644 
L 444.273003 55.964612 
L 445.983372 124.252872 
L 447.69374 90.108742 
L 449.404109 73.036677 
L 451.114478 81.572709 
L 452.824847 73.036677 
L 454.535215 141.324938 
L 456.245584 73.036677 
L 457.955953 81.572709 
L 459.666322 47.428579 
L 461.37669 115.71684 
L 463.087059 73.036677 
L 464.797428 124.252872 
L 466.507797 98.644775 
L 468.218165 98.644775 
L 469.928534 175.469068 
L 471.638903 115.71684 
L 473.349272 73.036677 
L 475.05964 149.86097 
L 476.770009 73.036677 
L 478.480378 115.71684 
L 480.190747 47.428579 
L 481.901115 149.86097 
L 483.611484 55.964612 
L 485.321853 90.108742 
L 487.032222 90.108742 
L 488.74259 124.252872 
L 490.452959 149.86097 
L 492.163328 38.892546 
L 493.873697 55.964612 
L 495.584065 201.077166 
L 497.294434 184.005101 
L 499.004803 158.397003 
L 500.715172 98.644775 
L 502.42554 81.572709 
L 504.135909 132.788905 
L 504.135909 132.788905 
" clip-path="url(#p28584ec4b5)" style="fill: none; stroke: #235996; stroke-width: 0.8; stroke-linecap: square"/>
   </g>
   <g id="patch_7">
    <path d="M 56.96 210.04 
L 56.96 12.857647 
" style="fill: none; stroke: #000000; stroke-width: 0.8; stroke-linejoin: miter; stroke-linecap: square"/>
   </g>
   <g id="patch_8">
    <path d="M 525.43 210.04 
L 525.43 12.857647 
" style="fill: none; stroke: #000000; stroke-width: 0.8; stroke-linejoin: miter; stroke-linecap: square"/>
   </g>
   <g id="patch_9">
    <path d="M 56.96 210.04 
L 525.43 210.04 
" style="fill: none; stroke: #000000; stroke-width: 0.8; stroke-linejoin: miter; stroke-linecap: square"/>
   </g>
   <g id="patch_10">
    <path d="M 56.96 12.857647 
L 525.43 12.857647 
" style="fill: none; stroke: #000000; stroke-width: 0.8; stroke-linejoin: miter; stroke-linecap: square"/>
   </g>
   <g id="legend_1">
    <g id="patch_11">
     <path d="M 183.979125 45.514147 
L 398.410875 45.514147 
Q 401.290875 45.514147 401.290875 42.634147 
L 401.290875 22.937647 
Q 401.290875 20.057647 398.410875 20.057647 
L 183.979125 20.057647 
Q 181.099125 20.057647 181.099125 22.937647 
L 181.099125 42.634147 
Q 181.099125 45.514147 183.979125 45.514147 
z
" style="fill: #ffffff; opacity: 0.8; stroke: #000000; stroke-linejoin: miter"/>
    </g>
    <g id="line2d_23">
     <path d="M 186.859125 31.719397 
L 201.259125 31.719397 
L 215.659125 31.719397 
" style="fill: none; stroke: #99004d; stroke-width: 0.8; stroke-linecap: square"/>
    </g>
    <g id="text_24">
     <text style="font: 14.4px 'DejaVu Sans', 'Bitstream Vera Sans', 'Computer Modern Sans Serif', 'Lucida Grande', 'Verdana', 'Geneva', 'Lucid', 'Arial', 'Helvetica', 'Avant Garde', sans-serif; text-anchor: start" x="227.179125" y="36.759397" transform="rotate(-0 227.179125 36.759397)">power</text>
    </g>
    <g id="line2d_24">
     <path d="M 300.488625 31.719397 
L 314.888625 31.719397 
L 329.288625 31.719397 
" style="fill: none; stroke: #235996; stroke-width: 0.8; stroke-linecap: square"/>
    </g>
    <g id="text_25">
     <text style="font: 14.4px 'DejaVu Sans', 'Bitstream Vera Sans', 'Computer Modern Sans Serif', 'Lucida Grande', 'Verdana', 'Geneva', 'Lucid', 'Arial', 'Helvetica', 'Avant Garde', sans-serif; text-anchor: start" x="340.808625" y="36.759397" transform="rotate(-0 340.808625 36.759397)">hw(rs1)</text>
    </g>
   </g>
  </g>
 </g>
 <defs>
  <clipPath id="p28584ec4b5">
   <rect x="56.96" y="12.857647" width="468.47" height="197.182353"/>
  </clipPath>
 </defs>
</svg>
