<?xml version="1.0" encoding="utf-8" standalone="no"?>
<!DOCTYPE svg PUBLIC "-//W3C//DTD SVG 1.1//EN"
  "http://www.w3.org/Graphics/SVG/1.1/DTD/svg11.dtd">
<svg xmlns:xlink="http://www.w3.org/1999/xlink" width="576pt" height="252pt" viewBox="0 0 576 252" xmlns="http://www.w3.org/2000/svg" version="1.1">
 <metadata>
  <rdf:RDF xmlns:dc="http://purl.org/dc/elements/1.1/" xmlns:cc="http://creativecommons.org/ns#" xmlns:rdf="http://www.w3.org/1999/02/22-rdf-syntax-ns#">
   <cc:Work>
    <dc:type rdf:resource="http://purl.org/dc/dcmitype/StillImage"/>
    <dc:date>2023-12-02T05:37:55.193583</dc:date>
    <dc:format>image/svg+xml</dc:format>
    <dc:creator>
     <cc:Agent>
      <dc:title>Matplotlib v3.7.4, https://matplotlib.org/</dc:title>
     </cc:Agent>
    </dc:creator>
   </cc:Work>
  </rdf:RDF>
 </metadata>
 <defs>
  <style type="text/css">*{stroke-linejoin: round; stroke-linecap: butt}</style>
 </defs>
 <g id="figure_1">
  <g id="patch_1">
   <path d="M 0 252 
L 576 252 
L 576 0 
L 0 0 
z
" style="fill: #ffffff"/>
  </g>
  <g id="axes_1">
   <g id="patch_2">
    <path d="M 56.96 210.04 
L 515.98 210.04 
L 515.98 10.8 
L 56.96 10.8 
z
" style="fill: #ffffff"/>
   </g>
   <g id="matplotlib.axis_1">
    <g id="xtick_1">
     <g id="line2d_1">
      <defs>
       <path id="m6f3d518329" d="M 0 0 
L 0 3.5 
" style="stroke: #000000; stroke-width: 0.8"/>
      </defs>
      <g>
       <use xlink:href="#m6f3d518329" x="77.824545" y="210.04" style="stroke: #000000; stroke-width: 0.8"/>
      </g>
     </g>
     <g id="text_1">
      <text style="font: 10px 'DejaVu Sans', 'Bitstream Vera Sans', 'Computer Modern Sans Serif', 'Lucida Grande', 'Verdana', 'Geneva', 'Lucid', 'Arial', 'Helvetica', 'Avant Garde', sans-serif; text-anchor: middle" x="77.824545" y="224.638438" transform="rotate(-0 77.824545 224.638438)">0</text>
     </g>
    </g>
    <g id="xtick_2">
     <g id="line2d_2">
      <g>
       <use xlink:href="#m6f3d518329" x="161.617901" y="210.04" style="stroke: #000000; stroke-width: 0.8"/>
      </g>
     </g>
     <g id="text_2">
      <text style="font: 10px 'DejaVu Sans', 'Bitstream Vera Sans', 'Computer Modern Sans Serif', 'Lucida Grande', 'Verdana', 'Geneva', 'Lucid', 'Arial', 'Helvetica', 'Avant Garde', sans-serif; text-anchor: middle" x="161.617901" y="224.638438" transform="rotate(-0 161.617901 224.638438)">50</text>
     </g>
    </g>
    <g id="xtick_3">
     <g id="line2d_3">
      <g>
       <use xlink:href="#m6f3d518329" x="245.411256" y="210.04" style="stroke: #000000; stroke-width: 0.8"/>
      </g>
     </g>
     <g id="text_3">
      <text style="font: 10px 'DejaVu Sans', 'Bitstream Vera Sans', 'Computer Modern Sans Serif', 'Lucida Grande', 'Verdana', 'Geneva', 'Lucid', 'Arial', 'Helvetica', 'Avant Garde', sans-serif; text-anchor: middle" x="245.411256" y="224.638438" transform="rotate(-0 245.411256 224.638438)">100</text>
     </g>
    </g>
    <g id="xtick_4">
     <g id="line2d_4">
      <g>
       <use xlink:href="#m6f3d518329" x="329.204611" y="210.04" style="stroke: #000000; stroke-width: 0.8"/>
      </g>
     </g>
     <g id="text_4">
      <text style="font: 10px 'DejaVu Sans', 'Bitstream Vera Sans', 'Computer Modern Sans Serif', 'Lucida Grande', 'Verdana', 'Geneva', 'Lucid', 'Arial', 'Helvetica', 'Avant Garde', sans-serif; text-anchor: middle" x="329.204611" y="224.638438" transform="rotate(-0 329.204611 224.638438)">150</text>
     </g>
    </g>
    <g id="xtick_5">
     <g id="line2d_5">
      <g>
       <use xlink:href="#m6f3d518329" x="412.997966" y="210.04" style="stroke: #000000; stroke-width: 0.8"/>
      </g>
     </g>
     <g id="text_5">
      <text style="font: 10px 'DejaVu Sans', 'Bitstream Vera Sans', 'Computer Modern Sans Serif', 'Lucida Grande', 'Verdana', 'Geneva', 'Lucid', 'Arial', 'Helvetica', 'Avant Garde', sans-serif; text-anchor: middle" x="412.997966" y="224.638438" transform="rotate(-0 412.997966 224.638438)">200</text>
     </g>
    </g>
    <g id="xtick_6">
     <g id="line2d_6">
      <g>
       <use xlink:href="#m6f3d518329" x="496.791322" y="210.04" style="stroke: #000000; stroke-width: 0.8"/>
      </g>
     </g>
     <g id="text_6">
      <text style="font: 10px 'DejaVu Sans', 'Bitstream Vera Sans', 'Computer Modern Sans Serif', 'Lucida Grande', 'Verdana', 'Geneva', 'Lucid', 'Arial', 'Helvetica', 'Avant Garde', sans-serif; text-anchor: middle" x="496.791322" y="224.638438" transform="rotate(-0 496.791322 224.638438)">250</text>
     </g>
    </g>
    <g id="text_7">
     <text style="font: 10px 'DejaVu Sans', 'Bitstream Vera Sans', 'Computer Modern Sans Serif', 'Lucida Grande', 'Verdana', 'Geneva', 'Lucid', 'Arial', 'Helvetica', 'Avant Garde', sans-serif; text-anchor: middle" x="286.47" y="238.316563" transform="rotate(-0 286.47 238.316563)">Cycles</text>
    </g>
   </g>
   <g id="matplotlib.axis_2">
    <g id="ytick_1">
     <g id="line2d_7">
      <defs>
       <path id="m20bed564c1" d="M 0 0 
L -3.5 0 
" style="stroke: #000000; stroke-width: 0.8"/>
      </defs>
      <g>
       <use xlink:href="#m20bed564c1" x="56.96" y="202.115682" style="stroke: #000000; stroke-width: 0.8"/>
      </g>
     </g>
     <g id="text_8">
      <text style="font: 10px 'DejaVu Sans', 'Bitstream Vera Sans', 'Computer Modern Sans Serif', 'Lucida Grande', 'Verdana', 'Geneva', 'Lucid', 'Arial', 'Helvetica', 'Avant Garde', sans-serif; text-anchor: end" x="49.96" y="205.914901" transform="rotate(-0 49.96 205.914901)">0</text>
     </g>
    </g>
    <g id="ytick_2">
     <g id="line2d_8">
      <g>
       <use xlink:href="#m20bed564c1" x="56.96" y="179.474773" style="stroke: #000000; stroke-width: 0.8"/>
      </g>
     </g>
     <g id="text_9">
      <text style="font: 10px 'DejaVu Sans', 'Bitstream Vera Sans', 'Computer Modern Sans Serif', 'Lucida Grande', 'Verdana', 'Geneva', 'Lucid', 'Arial', 'Helvetica', 'Avant Garde', sans-serif; text-anchor: end" x="49.96" y="183.273991" transform="rotate(-0 49.96 183.273991)">20</text>
     </g>
    </g>
    <g id="ytick_3">
     <g id="line2d_9">
      <g>
       <use xlink:href="#m20bed564c1" x="56.96" y="156.833864" style="stroke: #000000; stroke-width: 0.8"/>
      </g>
     </g>
     <g id="text_10">
      <text style="font: 10px 'DejaVu Sans', 'Bitstream Vera Sans', 'Computer Modern Sans Serif', 'Lucida Grande', 'Verdana', 'Geneva', 'Lucid', 'Arial', 'Helvetica', 'Avant Garde', sans-serif; text-anchor: end" x="49.96" y="160.633082" transform="rotate(-0 49.96 160.633082)">40</text>
     </g>
    </g>
    <g id="ytick_4">
     <g id="line2d_10">
      <g>
       <use xlink:href="#m20bed564c1" x="56.96" y="134.192955" style="stroke: #000000; stroke-width: 0.8"/>
      </g>
     </g>
     <g id="text_11">
      <text style="font: 10px 'DejaVu Sans', 'Bitstream Vera Sans', 'Computer Modern Sans Serif', 'Lucida Grande', 'Verdana', 'Geneva', 'Lucid', 'Arial', 'Helvetica', 'Avant Garde', sans-serif; text-anchor: end" x="49.96" y="137.992173" transform="rotate(-0 49.96 137.992173)">60</text>
     </g>
    </g>
    <g id="ytick_5">
     <g id="line2d_11">
      <g>
       <use xlink:href="#m20bed564c1" x="56.96" y="111.552045" style="stroke: #000000; stroke-width: 0.8"/>
      </g>
     </g>
     <g id="text_12">
      <text style="font: 10px 'DejaVu Sans', 'Bitstream Vera Sans', 'Computer Modern Sans Serif', 'Lucida Grande', 'Verdana', 'Geneva', 'Lucid', 'Arial', 'Helvetica', 'Avant Garde', sans-serif; text-anchor: end" x="49.96" y="115.351264" transform="rotate(-0 49.96 115.351264)">80</text>
     </g>
    </g>
    <g id="ytick_6">
     <g id="line2d_12">
      <g>
       <use xlink:href="#m20bed564c1" x="56.96" y="88.911136" style="stroke: #000000; stroke-width: 0.8"/>
      </g>
     </g>
     <g id="text_13">
      <text style="font: 10px 'DejaVu Sans', 'Bitstream Vera Sans', 'Computer Modern Sans Serif', 'Lucida Grande', 'Verdana', 'Geneva', 'Lucid', 'Arial', 'Helvetica', 'Avant Garde', sans-serif; text-anchor: end" x="49.96" y="92.710355" transform="rotate(-0 49.96 92.710355)">100</text>
     </g>
    </g>
    <g id="ytick_7">
     <g id="line2d_13">
      <g>
       <use xlink:href="#m20bed564c1" x="56.96" y="66.270227" style="stroke: #000000; stroke-width: 0.8"/>
      </g>
     </g>
     <g id="text_14">
      <text style="font: 10px 'DejaVu Sans', 'Bitstream Vera Sans', 'Computer Modern Sans Serif', 'Lucida Grande', 'Verdana', 'Geneva', 'Lucid', 'Arial', 'Helvetica', 'Avant Garde', sans-serif; text-anchor: end" x="49.96" y="70.069446" transform="rotate(-0 49.96 70.069446)">120</text>
     </g>
    </g>
    <g id="ytick_8">
     <g id="line2d_14">
      <g>
       <use xlink:href="#m20bed564c1" x="56.96" y="43.629318" style="stroke: #000000; stroke-width: 0.8"/>
      </g>
     </g>
     <g id="text_15">
      <text style="font: 10px 'DejaVu Sans', 'Bitstream Vera Sans', 'Computer Modern Sans Serif', 'Lucida Grande', 'Verdana', 'Geneva', 'Lucid', 'Arial', 'Helvetica', 'Avant Garde', sans-serif; text-anchor: end" x="49.96" y="47.428537" transform="rotate(-0 49.96 47.428537)">140</text>
     </g>
    </g>
    <g id="ytick_9">
     <g id="line2d_15">
      <g>
       <use xlink:href="#m20bed564c1" x="56.96" y="20.988409" style="stroke: #000000; stroke-width: 0.8"/>
      </g>
     </g>
     <g id="text_16">
      <text style="font: 10px 'DejaVu Sans', 'Bitstream Vera Sans', 'Computer Modern Sans Serif', 'Lucida Grande', 'Verdana', 'Geneva', 'Lucid', 'Arial', 'Helvetica', 'Avant Garde', sans-serif; text-anchor: end" x="49.96" y="24.787628" transform="rotate(-0 49.96 24.787628)">160</text>
     </g>
    </g>
    <g id="text_17">
     <text style="font: 10px 'DejaVu Sans', 'Bitstream Vera Sans', 'Computer Modern Sans Serif', 'Lucida Grande', 'Verdana', 'Geneva', 'Lucid', 'Arial', 'Helvetica', 'Avant Garde', sans-serif; text-anchor: middle" x="18.792813" y="110.42" transform="rotate(-90 18.792813 110.42)">power (uW)</text>
    </g>
   </g>
   <g id="line2d_16">
    <path d="M 77.824545 156.833864 
L 79.500413 64.006136 
L 81.17628 66.270227 
L 82.852147 50.421591 
L 84.528014 200.983636 
L 86.203881 102.495682 
L 87.879748 111.552045 
L 89.555615 60.61 
L 91.231482 90.043182 
L 92.907349 66.270227 
L 94.583217 86.647045 
L 96.259084 78.722727 
L 97.934951 200.983636 
L 99.610818 93.439318 
L 101.286685 53.817727 
L 102.962552 58.345909 
L 104.638419 77.590682 
L 106.314286 61.742045 
L 107.990153 59.477955 
L 109.66602 47.025455 
L 111.341888 64.006136 
L 113.017755 43.629318 
L 114.693622 113.816136 
L 116.369489 74.194545 
L 118.045356 73.0625 
L 119.721223 51.553636 
L 121.39709 68.534318 
L 123.072957 136.457045 
L 124.748824 60.61 
L 126.424691 49.289545 
L 128.100559 36.837045 
L 129.776426 49.289545 
L 131.452293 40.233182 
L 133.12816 71.930455 
L 134.804027 76.458636 
L 136.479894 40.233182 
L 139.831628 69.666364 
L 141.507495 93.439318 
L 143.183363 74.194545 
L 144.85923 140.985227 
L 146.535097 77.590682 
L 148.210964 69.666364 
L 149.886831 50.421591 
L 151.562698 74.194545 
L 153.238565 75.326591 
L 154.914432 157.965909 
L 156.590299 68.534318 
L 158.266166 53.817727 
L 159.942034 129.664773 
L 161.617901 73.0625 
L 163.293768 56.081818 
L 164.969635 45.893409 
L 166.645502 65.138182 
L 168.321369 53.817727 
L 169.997236 112.684091 
L 171.673103 80.986818 
L 173.34897 56.081818 
L 175.024838 62.874091 
L 176.700705 66.270227 
L 178.376572 178.342727 
L 180.052439 53.817727 
L 181.728306 53.817727 
L 183.404173 135.325 
L 185.08004 76.458636 
L 186.755907 58.345909 
L 188.431774 107.023864 
L 190.107641 54.949773 
L 191.783509 177.210682 
L 193.459376 77.590682 
L 195.135243 93.439318 
L 196.81111 47.025455 
L 198.486977 45.893409 
L 200.162844 96.835455 
L 201.838711 67.402273 
L 203.514578 66.270227 
L 205.190445 67.402273 
L 206.866313 61.742045 
L 208.54218 145.513409 
L 210.218047 198.719545 
L 211.893914 61.742045 
L 213.569781 58.345909 
L 215.245648 119.476364 
L 216.921515 62.874091 
L 218.597382 47.025455 
L 220.273249 53.817727 
L 221.949116 95.703409 
L 223.624984 42.497273 
L 225.300851 127.400682 
L 226.976718 177.210682 
L 228.652585 41.365227 
L 230.328452 54.949773 
L 232.004319 61.742045 
L 233.680186 109.287955 
L 235.356053 73.0625 
L 237.03192 156.833864 
L 238.707788 182.870909 
L 240.383655 91.175227 
L 242.059522 34.572955 
L 243.735389 53.817727 
L 245.411256 200.983636 
L 247.087123 161.362045 
L 248.76299 117.212273 
L 250.438857 82.118864 
L 252.114724 105.891818 
L 253.790591 35.705 
L 255.466459 39.101136 
L 257.142326 111.552045 
L 258.818193 71.930455 
L 260.49406 50.421591 
L 262.169927 73.0625 
L 263.845794 67.402273 
L 265.521661 161.362045 
L 267.197528 65.138182 
L 268.873395 66.270227 
L 270.549263 65.138182 
L 272.22513 198.719545 
L 273.900997 96.835455 
L 275.576864 67.402273 
L 277.252731 75.326591 
L 278.928598 80.986818 
L 280.604465 75.326591 
L 282.280332 52.685682 
L 283.956199 56.081818 
L 285.632066 43.629318 
L 287.307934 137.589091 
L 288.983801 53.817727 
L 290.659668 69.666364 
L 292.335535 73.0625 
L 294.011402 56.081818 
L 295.687269 198.719545 
L 297.363136 41.365227 
L 299.039003 88.911136 
L 300.71487 105.891818 
L 302.390737 50.421591 
L 304.066605 43.629318 
L 305.742472 60.61 
L 307.418339 62.874091 
L 309.094206 53.817727 
L 310.770073 70.798409 
L 312.44594 47.025455 
L 314.121807 60.61 
L 315.797674 114.948182 
L 317.473541 71.930455 
L 319.149409 93.439318 
L 320.825276 59.477955 
L 322.501143 90.043182 
L 324.17701 50.421591 
L 325.852877 77.590682 
L 327.528744 178.342727 
L 329.204611 105.891818 
L 330.880478 79.854773 
L 332.556345 79.854773 
L 334.232212 43.629318 
L 335.90808 178.342727 
L 337.583947 176.078636 
L 339.259814 64.006136 
L 342.611548 59.477955 
L 344.287415 67.402273 
L 345.963282 56.081818 
L 347.639149 54.949773 
L 349.315016 80.986818 
L 350.990884 94.571364 
L 352.666751 124.004545 
L 354.342618 66.270227 
L 356.018485 44.761364 
L 357.694352 88.911136 
L 359.370219 43.629318 
L 361.046086 54.949773 
L 362.721953 59.477955 
L 364.39782 103.627727 
L 366.073687 66.270227 
L 367.749555 73.0625 
L 369.425422 65.138182 
L 371.101289 60.61 
L 372.777156 85.515 
L 374.453023 78.722727 
L 376.12889 198.719545 
L 377.804757 78.722727 
L 379.480624 60.61 
L 381.156491 145.513409 
L 382.832359 60.61 
L 384.508226 57.213864 
L 386.184093 85.515 
L 387.85996 90.043182 
L 389.535827 58.345909 
L 391.211694 200.983636 
L 392.887561 52.685682 
L 394.563428 47.025455 
L 396.239295 42.497273 
L 397.915162 53.817727 
L 399.59103 139.853182 
L 401.266897 77.590682 
L 402.942764 80.986818 
L 404.618631 65.138182 
L 406.294498 108.155909 
L 407.970365 105.891818 
L 409.646232 56.081818 
L 411.322099 78.722727 
L 412.997966 60.61 
L 414.673834 70.798409 
L 416.349701 68.534318 
L 418.025568 126.268636 
L 419.701435 60.61 
L 421.377302 142.117273 
L 423.053169 66.270227 
L 424.729036 96.835455 
L 426.404903 176.078636 
L 428.08077 71.930455 
L 429.756637 100.231591 
L 431.432505 64.006136 
L 433.108372 178.342727 
L 434.784239 56.081818 
L 436.460106 60.61 
L 438.135973 53.817727 
L 439.81184 133.060909 
L 441.487707 200.983636 
L 443.163574 60.61 
L 444.839441 50.421591 
L 446.515309 56.081818 
L 448.191176 137.589091 
L 449.867043 74.194545 
L 451.54291 68.534318 
L 454.894644 43.629318 
L 456.570511 68.534318 
L 458.246378 102.495682 
L 459.922245 198.719545 
L 461.598112 140.985227 
L 463.27398 142.117273 
L 464.949847 65.138182 
L 466.625714 53.817727 
L 468.301581 112.684091 
L 469.977448 19.856364 
L 471.653315 56.081818 
L 473.329182 83.250909 
L 475.005049 102.495682 
L 476.680916 74.194545 
L 478.356783 64.006136 
L 480.032651 66.270227 
L 481.708518 71.930455 
L 483.384385 64.006136 
L 485.060252 79.854773 
L 486.736119 67.402273 
L 488.411986 110.42 
L 490.087853 133.060909 
L 493.439587 59.477955 
L 495.115455 73.0625 
L 495.115455 73.0625 
" clip-path="url(#pdd0d0e9550)" style="fill: none; stroke: #99004d; stroke-width: 0.8; stroke-linecap: square"/>
   </g>
   <g id="patch_3">
    <path d="M 56.96 210.04 
L 56.96 10.8 
" style="fill: none; stroke: #000000; stroke-width: 0.8; stroke-linejoin: miter; stroke-linecap: square"/>
   </g>
   <g id="patch_4">
    <path d="M 515.98 210.04 
L 515.98 10.8 
" style="fill: none; stroke: #000000; stroke-width: 0.8; stroke-linejoin: miter; stroke-linecap: square"/>
   </g>
   <g id="patch_5">
    <path d="M 56.96 210.04 
L 515.98 210.04 
" style="fill: none; stroke: #000000; stroke-width: 0.8; stroke-linejoin: miter; stroke-linecap: square"/>
   </g>
   <g id="patch_6">
    <path d="M 56.96 10.8 
L 515.98 10.8 
" style="fill: none; stroke: #000000; stroke-width: 0.8; stroke-linejoin: miter; stroke-linecap: square"/>
   </g>
  </g>
  <g id="axes_2">
   <g id="matplotlib.axis_3">
    <g id="ytick_10">
     <g id="line2d_17">
      <defs>
       <path id="m6db4c42e89" d="M 0 0 
L 3.5 0 
" style="stroke: #000000; stroke-width: 0.8"/>
      </defs>
      <g>
       <use xlink:href="#m6db4c42e89" x="515.98" y="200.983636" style="stroke: #000000; stroke-width: 0.8"/>
      </g>
     </g>
     <g id="text_18">
      <text style="font: 10px 'DejaVu Sans', 'Bitstream Vera Sans', 'Computer Modern Sans Serif', 'Lucida Grande', 'Verdana', 'Geneva', 'Lucid', 'Arial', 'Helvetica', 'Avant Garde', sans-serif; text-anchor: start" x="522.98" y="204.782855" transform="rotate(-0 522.98 204.782855)">0.0</text>
     </g>
    </g>
    <g id="ytick_11">
     <g id="line2d_18">
      <g>
       <use xlink:href="#m6db4c42e89" x="515.98" y="178.342727" style="stroke: #000000; stroke-width: 0.8"/>
      </g>
     </g>
     <g id="text_19">
      <text style="font: 10px 'DejaVu Sans', 'Bitstream Vera Sans', 'Computer Modern Sans Serif', 'Lucida Grande', 'Verdana', 'Geneva', 'Lucid', 'Arial', 'Helvetica', 'Avant Garde', sans-serif; text-anchor: start" x="522.98" y="182.141946" transform="rotate(-0 522.98 182.141946)">2.5</text>
     </g>
    </g>
    <g id="ytick_12">
     <g id="line2d_19">
      <g>
       <use xlink:href="#m6db4c42e89" x="515.98" y="155.701818" style="stroke: #000000; stroke-width: 0.8"/>
      </g>
     </g>
     <g id="text_20">
      <text style="font: 10px 'DejaVu Sans', 'Bitstream Vera Sans', 'Computer Modern Sans Serif', 'Lucida Grande', 'Verdana', 'Geneva', 'Lucid', 'Arial', 'Helvetica', 'Avant Garde', sans-serif; text-anchor: start" x="522.98" y="159.501037" transform="rotate(-0 522.98 159.501037)">5.0</text>
     </g>
    </g>
    <g id="ytick_13">
     <g id="line2d_20">
      <g>
       <use xlink:href="#m6db4c42e89" x="515.98" y="133.060909" style="stroke: #000000; stroke-width: 0.8"/>
      </g>
     </g>
     <g id="text_21">
      <text style="font: 10px 'DejaVu Sans', 'Bitstream Vera Sans', 'Computer Modern Sans Serif', 'Lucida Grande', 'Verdana', 'Geneva', 'Lucid', 'Arial', 'Helvetica', 'Avant Garde', sans-serif; text-anchor: start" x="522.98" y="136.860128" transform="rotate(-0 522.98 136.860128)">7.5</text>
     </g>
    </g>
    <g id="ytick_14">
     <g id="line2d_21">
      <g>
       <use xlink:href="#m6db4c42e89" x="515.98" y="110.42" style="stroke: #000000; stroke-width: 0.8"/>
      </g>
     </g>
     <g id="text_22">
      <text style="font: 10px 'DejaVu Sans', 'Bitstream Vera Sans', 'Computer Modern Sans Serif', 'Lucida Grande', 'Verdana', 'Geneva', 'Lucid', 'Arial', 'Helvetica', 'Avant Garde', sans-serif; text-anchor: start" x="522.98" y="114.219219" transform="rotate(-0 522.98 114.219219)">10.0</text>
     </g>
    </g>
    <g id="ytick_15">
     <g id="line2d_22">
      <g>
       <use xlink:href="#m6db4c42e89" x="515.98" y="87.779091" style="stroke: #000000; stroke-width: 0.8"/>
      </g>
     </g>
     <g id="text_23">
      <text style="font: 10px 'DejaVu Sans', 'Bitstream Vera Sans', 'Computer Modern Sans Serif', 'Lucida Grande', 'Verdana', 'Geneva', 'Lucid', 'Arial', 'Helvetica', 'Avant Garde', sans-serif; text-anchor: start" x="522.98" y="91.57831" transform="rotate(-0 522.98 91.57831)">12.5</text>
     </g>
    </g>
    <g id="ytick_16">
     <g id="line2d_23">
      <g>
       <use xlink:href="#m6db4c42e89" x="515.98" y="65.138182" style="stroke: #000000; stroke-width: 0.8"/>
      </g>
     </g>
     <g id="text_24">
      <text style="font: 10px 'DejaVu Sans', 'Bitstream Vera Sans', 'Computer Modern Sans Serif', 'Lucida Grande', 'Verdana', 'Geneva', 'Lucid', 'Arial', 'Helvetica', 'Avant Garde', sans-serif; text-anchor: start" x="522.98" y="68.937401" transform="rotate(-0 522.98 68.937401)">15.0</text>
     </g>
    </g>
    <g id="ytick_17">
     <g id="line2d_24">
      <g>
       <use xlink:href="#m6db4c42e89" x="515.98" y="42.497273" style="stroke: #000000; stroke-width: 0.8"/>
      </g>
     </g>
     <g id="text_25">
      <text style="font: 10px 'DejaVu Sans', 'Bitstream Vera Sans', 'Computer Modern Sans Serif', 'Lucida Grande', 'Verdana', 'Geneva', 'Lucid', 'Arial', 'Helvetica', 'Avant Garde', sans-serif; text-anchor: start" x="522.98" y="46.296491" transform="rotate(-0 522.98 46.296491)">17.5</text>
     </g>
    </g>
    <g id="ytick_18">
     <g id="line2d_25">
      <g>
       <use xlink:href="#m6db4c42e89" x="515.98" y="19.856364" style="stroke: #000000; stroke-width: 0.8"/>
      </g>
     </g>
     <g id="text_26">
      <text style="font: 10px 'DejaVu Sans', 'Bitstream Vera Sans', 'Computer Modern Sans Serif', 'Lucida Grande', 'Verdana', 'Geneva', 'Lucid', 'Arial', 'Helvetica', 'Avant Garde', sans-serif; text-anchor: start" x="522.98" y="23.655582" transform="rotate(-0 522.98 23.655582)">20.0</text>
     </g>
    </g>
    <g id="text_27">
     <text style="font: 10px 'DejaVu Sans', 'Bitstream Vera Sans', 'Computer Modern Sans Serif', 'Lucida Grande', 'Verdana', 'Geneva', 'Lucid', 'Arial', 'Helvetica', 'Avant Garde', sans-serif; text-anchor: middle" x="562.844063" y="110.42" transform="rotate(-90 562.844063 110.42)">hw(data)</text>
    </g>
   </g>
   <g id="line2d_26">
    <path d="M 77.824545 182.870909 
L 79.500413 56.081818 
L 81.17628 74.194545 
L 82.852147 47.025455 
L 84.528014 200.983636 
L 86.203881 146.645455 
L 87.879748 155.701818 
L 89.555615 101.363636 
L 91.231482 137.589091 
L 92.907349 74.194545 
L 94.583217 128.532727 
L 96.259084 110.42 
L 97.934951 200.983636 
L 99.610818 128.532727 
L 101.286685 47.025455 
L 102.962552 47.025455 
L 104.638419 119.476364 
L 106.314286 56.081818 
L 107.990153 47.025455 
L 109.66602 65.138182 
L 111.341888 92.307273 
L 113.017755 65.138182 
L 114.693622 155.701818 
L 116.369489 110.42 
L 118.045356 92.307273 
L 119.721223 47.025455 
L 121.39709 37.969091 
L 123.072957 173.814545 
L 124.748824 83.250909 
L 126.424691 65.138182 
L 128.100559 65.138182 
L 129.776426 47.025455 
L 131.452293 65.138182 
L 133.12816 47.025455 
L 134.804027 128.532727 
L 136.479894 28.912727 
L 141.507495 137.589091 
L 143.183363 128.532727 
L 144.85923 173.814545 
L 146.535097 128.532727 
L 148.210964 110.42 
L 149.886831 37.969091 
L 151.562698 92.307273 
L 153.238565 110.42 
L 154.914432 182.870909 
L 156.590299 101.363636 
L 158.266166 92.307273 
L 159.942034 164.758182 
L 161.617901 37.969091 
L 163.293768 56.081818 
L 164.969635 101.363636 
L 166.645502 128.532727 
L 168.321369 56.081818 
L 169.997236 155.701818 
L 171.673103 119.476364 
L 173.34897 74.194545 
L 175.024838 56.081818 
L 176.700705 56.081818 
L 178.376572 191.927273 
L 180.052439 47.025455 
L 181.728306 56.081818 
L 183.404173 173.814545 
L 185.08004 137.589091 
L 186.755907 83.250909 
L 188.431774 146.645455 
L 190.107641 65.138182 
L 191.783509 191.927273 
L 193.459376 101.363636 
L 195.135243 101.363636 
L 196.81111 83.250909 
L 198.486977 47.025455 
L 200.162844 137.589091 
L 201.838711 119.476364 
L 203.514578 92.307273 
L 205.190445 47.025455 
L 206.866313 83.250909 
L 208.54218 173.814545 
L 210.218047 200.983636 
L 211.893914 74.194545 
L 213.569781 83.250909 
L 215.245648 164.758182 
L 216.921515 56.081818 
L 220.273249 56.081818 
L 221.949116 146.645455 
L 223.624984 37.969091 
L 225.300851 164.758182 
L 226.976718 191.927273 
L 228.652585 47.025455 
L 230.328452 83.250909 
L 232.004319 56.081818 
L 233.680186 155.701818 
L 235.356053 47.025455 
L 237.03192 182.870909 
L 238.707788 191.927273 
L 240.383655 119.476364 
L 242.059522 56.081818 
L 243.735389 92.307273 
L 245.411256 200.983636 
L 247.087123 182.870909 
L 248.76299 155.701818 
L 250.438857 83.250909 
L 252.114724 155.701818 
L 253.790591 56.081818 
L 255.466459 56.081818 
L 257.142326 146.645455 
L 258.818193 65.138182 
L 260.49406 83.250909 
L 262.169927 65.138182 
L 263.845794 65.138182 
L 265.521661 182.870909 
L 267.197528 110.42 
L 268.873395 74.194545 
L 270.549263 92.307273 
L 272.22513 200.983636 
L 273.900997 137.589091 
L 275.576864 65.138182 
L 277.252731 37.969091 
L 278.928598 119.476364 
L 280.604465 110.42 
L 282.280332 56.081818 
L 283.956199 101.363636 
L 285.632066 56.081818 
L 287.307934 173.814545 
L 288.983801 101.363636 
L 290.659668 101.363636 
L 292.335535 110.42 
L 294.011402 74.194545 
L 295.687269 200.983636 
L 297.363136 56.081818 
L 299.039003 128.532727 
L 300.71487 155.701818 
L 302.390737 65.138182 
L 304.066605 74.194545 
L 305.742472 37.969091 
L 307.418339 65.138182 
L 309.094206 47.025455 
L 310.770073 119.476364 
L 312.44594 56.081818 
L 314.121807 56.081818 
L 315.797674 164.758182 
L 317.473541 128.532727 
L 319.149409 128.532727 
L 320.825276 101.363636 
L 322.501143 137.589091 
L 324.17701 56.081818 
L 325.852877 119.476364 
L 327.528744 191.927273 
L 329.204611 155.701818 
L 330.880478 128.532727 
L 332.556345 37.969091 
L 334.232212 74.194545 
L 335.90808 191.927273 
L 337.583947 191.927273 
L 339.259814 65.138182 
L 340.935681 101.363636 
L 342.611548 56.081818 
L 344.287415 110.42 
L 345.963282 47.025455 
L 347.639149 92.307273 
L 349.315016 128.532727 
L 350.990884 128.532727 
L 352.666751 155.701818 
L 354.342618 119.476364 
L 356.018485 19.856364 
L 357.694352 137.589091 
L 359.370219 47.025455 
L 361.046086 37.969091 
L 362.721953 92.307273 
L 364.39782 137.589091 
L 366.073687 74.194545 
L 367.749555 119.476364 
L 371.101289 65.138182 
L 372.777156 119.476364 
L 374.453023 137.589091 
L 376.12889 200.983636 
L 377.804757 119.476364 
L 379.480624 92.307273 
L 381.156491 173.814545 
L 382.832359 92.307273 
L 384.508226 74.194545 
L 386.184093 110.42 
L 387.85996 128.532727 
L 389.535827 83.250909 
L 391.211694 200.983636 
L 392.887561 101.363636 
L 394.563428 65.138182 
L 396.239295 83.250909 
L 397.915162 74.194545 
L 399.59103 173.814545 
L 401.266897 101.363636 
L 402.942764 110.42 
L 404.618631 56.081818 
L 406.294498 137.589091 
L 407.970365 128.532727 
L 409.646232 65.138182 
L 411.322099 128.532727 
L 412.997966 56.081818 
L 414.673834 110.42 
L 416.349701 74.194545 
L 418.025568 164.758182 
L 419.701435 101.363636 
L 421.377302 173.814545 
L 423.053169 74.194545 
L 424.729036 146.645455 
L 426.404903 191.927273 
L 428.08077 74.194545 
L 429.756637 155.701818 
L 431.432505 110.42 
L 433.108372 191.927273 
L 434.784239 65.138182 
L 438.135973 65.138182 
L 439.81184 173.814545 
L 441.487707 200.983636 
L 443.163574 65.138182 
L 444.839441 92.307273 
L 446.515309 92.307273 
L 448.191176 173.814545 
L 449.867043 101.363636 
L 451.54291 110.42 
L 453.218777 92.307273 
L 454.894644 56.081818 
L 456.570511 92.307273 
L 459.922245 200.983636 
L 461.598112 173.814545 
L 463.27398 173.814545 
L 464.949847 119.476364 
L 466.625714 47.025455 
L 468.301581 146.645455 
L 469.977448 56.081818 
L 471.653315 110.42 
L 473.329182 128.532727 
L 475.005049 128.532727 
L 476.680916 83.250909 
L 478.356783 92.307273 
L 480.032651 128.532727 
L 481.708518 137.589091 
L 483.384385 119.476364 
L 485.060252 128.532727 
L 486.736119 92.307273 
L 490.087853 164.758182 
L 493.439587 110.42 
L 495.115455 65.138182 
L 495.115455 65.138182 
" clip-path="url(#pdd0d0e9550)" style="fill: none; stroke: #235996; stroke-width: 0.8; stroke-linecap: square"/>
   </g>
   <g id="patch_7">
    <path d="M 56.96 210.04 
L 56.96 10.8 
" style="fill: none; stroke: #000000; stroke-width: 0.8; stroke-linejoin: miter; stroke-linecap: square"/>
   </g>
   <g id="patch_8">
    <path d="M 515.98 210.04 
L 515.98 10.8 
" style="fill: none; stroke: #000000; stroke-width: 0.8; stroke-linejoin: miter; stroke-linecap: square"/>
   </g>
   <g id="patch_9">
    <path d="M 56.96 210.04 
L 515.98 210.04 
" style="fill: none; stroke: #000000; stroke-width: 0.8; stroke-linejoin: miter; stroke-linecap: square"/>
   </g>
   <g id="patch_10">
    <path d="M 56.96 10.8 
L 515.98 10.8 
" style="fill: none; stroke: #000000; stroke-width: 0.8; stroke-linejoin: miter; stroke-linecap: square"/>
   </g>
   <g id="legend_1">
    <g id="patch_11">
     <path d="M 179.254125 43.4565 
L 393.685875 43.4565 
Q 396.565875 43.4565 396.565875 40.5765 
L 396.565875 20.88 
Q 396.565875 18 393.685875 18 
L 179.254125 18 
Q 176.374125 18 176.374125 20.88 
L 176.374125 40.5765 
Q 176.374125 43.4565 179.254125 43.4565 
z
" style="fill: #ffffff; opacity: 0.8; stroke: #000000; stroke-linejoin: miter"/>
    </g>
    <g id="line2d_27">
     <path d="M 182.134125 29.66175 
L 196.534125 29.66175 
L 210.934125 29.66175 
" style="fill: none; stroke: #99004d; stroke-width: 0.8; stroke-linecap: square"/>
    </g>
    <g id="text_28">
     <text style="font: 14.4px 'DejaVu Sans', 'Bitstream Vera Sans', 'Computer Modern Sans Serif', 'Lucida Grande', 'Verdana', 'Geneva', 'Lucid', 'Arial', 'Helvetica', 'Avant Garde', sans-serif; text-anchor: start" x="222.454125" y="34.70175" transform="rotate(-0 222.454125 34.70175)">power</text>
    </g>
    <g id="line2d_28">
     <path d="M 295.763625 29.66175 
L 310.163625 29.66175 
L 324.563625 29.66175 
" style="fill: none; stroke: #235996; stroke-width: 0.8; stroke-linecap: square"/>
    </g>
    <g id="text_29">
     <text style="font: 14.4px 'DejaVu Sans', 'Bitstream Vera Sans', 'Computer Modern Sans Serif', 'Lucida Grande', 'Verdana', 'Geneva', 'Lucid', 'Arial', 'Helvetica', 'Avant Garde', sans-serif; text-anchor: start" x="336.083625" y="34.70175" transform="rotate(-0 336.083625 34.70175)">hw(rs1)</text>
    </g>
   </g>
  </g>
 </g>
 <defs>
  <clipPath id="pdd0d0e9550">
   <rect x="56.96" y="10.8" width="459.02" height="199.24"/>
  </clipPath>
 </defs>
</svg>
