<?xml version="1.0" encoding="utf-8" standalone="no"?>
<!DOCTYPE svg PUBLIC "-//W3C//DTD SVG 1.1//EN"
  "http://www.w3.org/Graphics/SVG/1.1/DTD/svg11.dtd">
<svg xmlns:xlink="http://www.w3.org/1999/xlink" width="576pt" height="252pt" viewBox="0 0 576 252" xmlns="http://www.w3.org/2000/svg" version="1.1">
 <metadata>
  <rdf:RDF xmlns:dc="http://purl.org/dc/elements/1.1/" xmlns:cc="http://creativecommons.org/ns#" xmlns:rdf="http://www.w3.org/1999/02/22-rdf-syntax-ns#">
   <cc:Work>
    <dc:type rdf:resource="http://purl.org/dc/dcmitype/StillImage"/>
    <dc:date>2023-12-07T21:37:41.908728</dc:date>
    <dc:format>image/svg+xml</dc:format>
    <dc:creator>
     <cc:Agent>
      <dc:title>Matplotlib v3.7.4, https://matplotlib.org/</dc:title>
     </cc:Agent>
    </dc:creator>
   </cc:Work>
  </rdf:RDF>
 </metadata>
 <defs>
  <style type="text/css">*{stroke-linejoin: round; stroke-linecap: butt}</style>
 </defs>
 <g id="figure_1">
  <g id="patch_1">
   <path d="M 0 252 
L 576 252 
L 576 0 
L 0 0 
z
" style="fill: #ffffff"/>
  </g>
  <g id="axes_1">
   <g id="patch_2">
    <path d="M 63.17 210.04 
L 525.43 210.04 
L 525.43 11.82 
L 63.17 11.82 
z
" style="fill: #ffffff"/>
   </g>
   <g id="matplotlib.axis_1">
    <g id="xtick_1">
     <g id="line2d_1">
      <defs>
       <path id="m6e58e23433" d="M 0 0 
L 0 3.5 
" style="stroke: #000000; stroke-width: 0.8"/>
      </defs>
      <g>
       <use xlink:href="#m6e58e23433" x="84.181818" y="210.04" style="stroke: #000000; stroke-width: 0.8"/>
      </g>
     </g>
     <g id="text_1">
      <text style="font: 10px 'DejaVu Sans', 'Bitstream Vera Sans', 'Computer Modern Sans Serif', 'Lucida Grande', 'Verdana', 'Geneva', 'Lucid', 'Arial', 'Helvetica', 'Avant Garde', sans-serif; text-anchor: middle" x="84.181818" y="224.638438" transform="rotate(-0 84.181818 224.638438)">0</text>
     </g>
    </g>
    <g id="xtick_2">
     <g id="line2d_2">
      <g>
       <use xlink:href="#m6e58e23433" x="168.56663" y="210.04" style="stroke: #000000; stroke-width: 0.8"/>
      </g>
     </g>
     <g id="text_2">
      <text style="font: 10px 'DejaVu Sans', 'Bitstream Vera Sans', 'Computer Modern Sans Serif', 'Lucida Grande', 'Verdana', 'Geneva', 'Lucid', 'Arial', 'Helvetica', 'Avant Garde', sans-serif; text-anchor: middle" x="168.56663" y="224.638438" transform="rotate(-0 168.56663 224.638438)">50</text>
     </g>
    </g>
    <g id="xtick_3">
     <g id="line2d_3">
      <g>
       <use xlink:href="#m6e58e23433" x="252.951442" y="210.04" style="stroke: #000000; stroke-width: 0.8"/>
      </g>
     </g>
     <g id="text_3">
      <text style="font: 10px 'DejaVu Sans', 'Bitstream Vera Sans', 'Computer Modern Sans Serif', 'Lucida Grande', 'Verdana', 'Geneva', 'Lucid', 'Arial', 'Helvetica', 'Avant Garde', sans-serif; text-anchor: middle" x="252.951442" y="224.638438" transform="rotate(-0 252.951442 224.638438)">100</text>
     </g>
    </g>
    <g id="xtick_4">
     <g id="line2d_4">
      <g>
       <use xlink:href="#m6e58e23433" x="337.336254" y="210.04" style="stroke: #000000; stroke-width: 0.8"/>
      </g>
     </g>
     <g id="text_4">
      <text style="font: 10px 'DejaVu Sans', 'Bitstream Vera Sans', 'Computer Modern Sans Serif', 'Lucida Grande', 'Verdana', 'Geneva', 'Lucid', 'Arial', 'Helvetica', 'Avant Garde', sans-serif; text-anchor: middle" x="337.336254" y="224.638438" transform="rotate(-0 337.336254 224.638438)">150</text>
     </g>
    </g>
    <g id="xtick_5">
     <g id="line2d_5">
      <g>
       <use xlink:href="#m6e58e23433" x="421.721066" y="210.04" style="stroke: #000000; stroke-width: 0.8"/>
      </g>
     </g>
     <g id="text_5">
      <text style="font: 10px 'DejaVu Sans', 'Bitstream Vera Sans', 'Computer Modern Sans Serif', 'Lucida Grande', 'Verdana', 'Geneva', 'Lucid', 'Arial', 'Helvetica', 'Avant Garde', sans-serif; text-anchor: middle" x="421.721066" y="224.638438" transform="rotate(-0 421.721066 224.638438)">200</text>
     </g>
    </g>
    <g id="xtick_6">
     <g id="line2d_6">
      <g>
       <use xlink:href="#m6e58e23433" x="506.105878" y="210.04" style="stroke: #000000; stroke-width: 0.8"/>
      </g>
     </g>
     <g id="text_6">
      <text style="font: 10px 'DejaVu Sans', 'Bitstream Vera Sans', 'Computer Modern Sans Serif', 'Lucida Grande', 'Verdana', 'Geneva', 'Lucid', 'Arial', 'Helvetica', 'Avant Garde', sans-serif; text-anchor: middle" x="506.105878" y="224.638438" transform="rotate(-0 506.105878 224.638438)">250</text>
     </g>
    </g>
    <g id="text_7">
     <text style="font: 10px 'DejaVu Sans', 'Bitstream Vera Sans', 'Computer Modern Sans Serif', 'Lucida Grande', 'Verdana', 'Geneva', 'Lucid', 'Arial', 'Helvetica', 'Avant Garde', sans-serif; text-anchor: middle" x="294.3" y="238.316563" transform="rotate(-0 294.3 238.316563)">Experiment</text>
    </g>
   </g>
   <g id="matplotlib.axis_2">
    <g id="ytick_1">
     <g id="line2d_7">
      <defs>
       <path id="m98c385504c" d="M 0 0 
L -3.5 0 
" style="stroke: #000000; stroke-width: 0.8"/>
      </defs>
      <g>
       <use xlink:href="#m98c385504c" x="63.17" y="195.023333" style="stroke: #000000; stroke-width: 0.8"/>
      </g>
     </g>
     <g id="text_8">
      <text style="font: 10px 'DejaVu Sans', 'Bitstream Vera Sans', 'Computer Modern Sans Serif', 'Lucida Grande', 'Verdana', 'Geneva', 'Lucid', 'Arial', 'Helvetica', 'Avant Garde', sans-serif; text-anchor: end" x="56.17" y="198.822552" transform="rotate(-0 56.17 198.822552)">7750</text>
     </g>
    </g>
    <g id="ytick_2">
     <g id="line2d_8">
      <g>
       <use xlink:href="#m98c385504c" x="63.17" y="164.99" style="stroke: #000000; stroke-width: 0.8"/>
      </g>
     </g>
     <g id="text_9">
      <text style="font: 10px 'DejaVu Sans', 'Bitstream Vera Sans', 'Computer Modern Sans Serif', 'Lucida Grande', 'Verdana', 'Geneva', 'Lucid', 'Arial', 'Helvetica', 'Avant Garde', sans-serif; text-anchor: end" x="56.17" y="168.789219" transform="rotate(-0 56.17 168.789219)">7800</text>
     </g>
    </g>
    <g id="ytick_3">
     <g id="line2d_9">
      <g>
       <use xlink:href="#m98c385504c" x="63.17" y="134.956667" style="stroke: #000000; stroke-width: 0.8"/>
      </g>
     </g>
     <g id="text_10">
      <text style="font: 10px 'DejaVu Sans', 'Bitstream Vera Sans', 'Computer Modern Sans Serif', 'Lucida Grande', 'Verdana', 'Geneva', 'Lucid', 'Arial', 'Helvetica', 'Avant Garde', sans-serif; text-anchor: end" x="56.17" y="138.755885" transform="rotate(-0 56.17 138.755885)">7850</text>
     </g>
    </g>
    <g id="ytick_4">
     <g id="line2d_10">
      <g>
       <use xlink:href="#m98c385504c" x="63.17" y="104.923333" style="stroke: #000000; stroke-width: 0.8"/>
      </g>
     </g>
     <g id="text_11">
      <text style="font: 10px 'DejaVu Sans', 'Bitstream Vera Sans', 'Computer Modern Sans Serif', 'Lucida Grande', 'Verdana', 'Geneva', 'Lucid', 'Arial', 'Helvetica', 'Avant Garde', sans-serif; text-anchor: end" x="56.17" y="108.722552" transform="rotate(-0 56.17 108.722552)">7900</text>
     </g>
    </g>
    <g id="ytick_5">
     <g id="line2d_11">
      <g>
       <use xlink:href="#m98c385504c" x="63.17" y="74.89" style="stroke: #000000; stroke-width: 0.8"/>
      </g>
     </g>
     <g id="text_12">
      <text style="font: 10px 'DejaVu Sans', 'Bitstream Vera Sans', 'Computer Modern Sans Serif', 'Lucida Grande', 'Verdana', 'Geneva', 'Lucid', 'Arial', 'Helvetica', 'Avant Garde', sans-serif; text-anchor: end" x="56.17" y="78.689219" transform="rotate(-0 56.17 78.689219)">7950</text>
     </g>
    </g>
    <g id="ytick_6">
     <g id="line2d_12">
      <g>
       <use xlink:href="#m98c385504c" x="63.17" y="44.856667" style="stroke: #000000; stroke-width: 0.8"/>
      </g>
     </g>
     <g id="text_13">
      <text style="font: 10px 'DejaVu Sans', 'Bitstream Vera Sans', 'Computer Modern Sans Serif', 'Lucida Grande', 'Verdana', 'Geneva', 'Lucid', 'Arial', 'Helvetica', 'Avant Garde', sans-serif; text-anchor: end" x="56.17" y="48.655885" transform="rotate(-0 56.17 48.655885)">8000</text>
     </g>
    </g>
    <g id="ytick_7">
     <g id="line2d_13">
      <g>
       <use xlink:href="#m98c385504c" x="63.17" y="14.823333" style="stroke: #000000; stroke-width: 0.8"/>
      </g>
     </g>
     <g id="text_14">
      <text style="font: 10px 'DejaVu Sans', 'Bitstream Vera Sans', 'Computer Modern Sans Serif', 'Lucida Grande', 'Verdana', 'Geneva', 'Lucid', 'Arial', 'Helvetica', 'Avant Garde', sans-serif; text-anchor: end" x="56.17" y="18.622552" transform="rotate(-0 56.17 18.622552)">8050</text>
     </g>
    </g>
    <g id="text_15">
     <text style="font: 10px 'DejaVu Sans', 'Bitstream Vera Sans', 'Computer Modern Sans Serif', 'Lucida Grande', 'Verdana', 'Geneva', 'Lucid', 'Arial', 'Helvetica', 'Avant Garde', sans-serif; text-anchor: middle" x="18.640313" y="110.93" transform="rotate(-90 18.640313 110.93)">power (uW)</text>
    </g>
   </g>
   <g id="line2d_14">
    <path d="M 84.181818 116.936667 
L 85.869514 42.454 
L 87.557211 64.078 
L 89.244907 173.399333 
L 90.932603 85.702 
L 92.620299 82.098 
L 94.307996 54.467333 
L 95.995692 201.03 
L 97.683388 83.9 
L 99.371084 80.296 
L 101.058781 169.194667 
L 102.746477 86.903333 
L 104.434173 116.936667 
L 106.121869 110.93 
L 107.809566 142.765333 
L 109.497262 158.382667 
L 111.184958 79.695333 
L 112.872654 94.712 
L 114.56035 67.081333 
L 116.248047 123.544 
L 117.935743 55.668667 
L 119.623439 201.03 
L 121.311135 111.530667 
L 122.998832 145.168 
L 124.686528 89.906667 
L 126.374224 83.299333 
L 128.06192 55.668667 
L 129.749617 163.188 
L 131.437313 137.359333 
L 133.125009 166.191333 
L 134.812705 47.86 
L 136.500402 135.557333 
L 138.188098 118.138 
L 139.875794 89.906667 
L 141.56349 127.748667 
L 143.251187 61.675333 
L 144.938883 131.352667 
L 146.626579 81.497333 
L 148.314275 133.755333 
L 150.001972 88.705333 
L 151.689668 90.507333 
L 153.377364 161.386 
L 155.06506 196.825333 
L 156.752756 170.996667 
L 158.440453 71.886667 
L 160.128149 102.520667 
L 161.815845 199.828667 
L 163.503541 109.128 
L 165.191238 178.204667 
L 166.878934 79.695333 
L 168.56663 201.03 
L 170.254326 139.161333 
L 171.942023 83.9 
L 173.629719 51.464 
L 175.317415 107.326 
L 177.005111 179.406 
L 178.692808 201.03 
L 180.380504 136.158 
L 182.0682 81.497333 
L 183.755896 56.269333 
L 185.443593 80.896667 
L 187.131289 201.03 
L 188.818985 115.134667 
L 190.506681 107.326 
L 192.194378 52.064667 
L 193.882074 90.507333 
L 195.56977 62.276 
L 197.257466 74.289333 
L 198.945162 124.745333 
L 200.632859 42.454 
L 202.320555 71.286 
L 204.008251 84.500667 
L 205.695947 115.735333 
L 207.383644 61.074667 
L 209.07134 76.091333 
L 210.759036 188.416 
L 212.446732 156.580667 
L 214.134429 73.688667 
L 215.822125 108.527333 
L 217.509821 77.893333 
L 219.197517 50.262667 
L 220.885214 91.108 
L 222.57291 82.098 
L 224.260606 119.94 
L 225.948302 98.316 
L 227.635999 114.534 
L 229.323695 116.936667 
L 231.011391 200.429333 
L 232.699087 74.289333 
L 234.386783 115.134667 
L 236.07448 82.698667 
L 237.762176 56.269333 
L 239.449872 97.715333 
L 241.137568 61.074667 
L 242.825265 82.698667 
L 244.512961 62.276 
L 246.200657 63.477333 
L 247.888353 40.051333 
L 249.57605 199.828667 
L 251.263746 105.524 
L 252.951442 169.795333 
L 254.639138 113.933333 
L 256.326835 82.698667 
L 258.014531 201.03 
L 259.702227 118.138 
L 261.389923 20.83 
L 263.07762 78.494 
L 264.765316 151.174667 
L 266.453012 198.026667 
L 268.140708 61.074667 
L 269.828405 133.755333 
L 271.516101 187.214667 
L 273.203797 199.828667 
L 276.579189 43.655333 
L 278.266886 92.309333 
L 279.954582 160.184667 
L 281.642278 132.554 
L 283.329974 112.732 
L 285.017671 54.467333 
L 286.705367 87.504 
L 288.393063 70.685333 
L 290.080759 125.346 
L 291.768456 82.098 
L 293.456152 75.490667 
L 295.143848 98.316 
L 296.831544 151.174667 
L 298.519241 181.808667 
L 300.206937 201.03 
L 301.894633 110.329333 
L 303.582329 159.584 
L 305.270026 107.926667 
L 306.957722 161.986667 
L 308.645418 151.174667 
L 310.333114 180.006667 
L 312.020811 107.326 
L 313.708507 98.316 
L 315.396203 71.286 
L 317.083899 52.665333 
L 318.771595 76.692 
L 320.459292 125.346 
L 322.146988 134.356 
L 323.834684 68.282667 
L 325.52238 152.376 
L 327.210077 62.876667 
L 328.897773 158.983333 
L 330.585469 136.758667 
L 332.273165 78.494 
L 333.960862 76.091333 
L 335.648558 109.728667 
L 337.336254 79.094667 
L 339.02395 138.560667 
L 340.711647 39.450667 
L 342.399343 107.926667 
L 344.087039 136.158 
L 345.774735 86.903333 
L 347.462432 26.236 
L 349.150128 156.580667 
L 350.837824 51.464 
L 352.52552 43.054667 
L 354.213217 62.276 
L 355.900913 115.735333 
L 357.588609 68.282667 
L 359.276305 50.262667 
L 360.964001 195.624 
L 362.651698 171.597333 
L 364.339394 167.392667 
L 366.02709 160.184667 
L 367.714786 89.906667 
L 369.402483 52.064667 
L 371.090179 52.064667 
L 372.777875 126.547333 
L 374.465571 52.665333 
L 376.153268 61.074667 
L 377.840964 151.775333 
L 379.52866 105.524 
L 381.216356 162.587333 
L 382.904053 110.329333 
L 384.591749 85.702 
L 387.967141 124.745333 
L 389.654838 96.514 
L 391.342534 70.685333 
L 393.03023 114.534 
L 394.717926 196.825333 
L 396.405622 63.477333 
L 398.093319 124.745333 
L 399.781015 73.088 
L 401.468711 105.524 
L 403.156407 91.108 
L 404.844104 201.03 
L 406.5318 84.500667 
L 408.219496 41.853333 
L 409.907192 60.474 
L 411.594889 177.003333 
L 413.282585 53.266 
L 414.970281 100.118 
L 416.657977 76.091333 
L 418.345674 88.104667 
L 420.03337 70.084667 
L 421.721066 62.276 
L 423.408762 44.256 
L 425.096459 189.016667 
L 426.784155 201.03 
L 428.471851 82.098 
L 430.159547 59.873333 
L 431.847244 53.266 
L 433.53494 151.174667 
L 435.222636 68.883333 
L 436.910332 95.312667 
L 438.598028 125.346 
L 440.285725 106.124667 
L 441.973421 95.312667 
L 443.661117 143.966667 
L 445.348813 77.893333 
L 447.03651 80.296 
L 448.724206 106.725333 
L 450.411902 69.484 
L 452.099598 133.755333 
L 453.787295 42.454 
L 455.474991 125.946667 
L 457.162687 88.104667 
L 458.850383 65.279333 
L 460.53808 177.003333 
L 462.225776 98.316 
L 465.601168 187.214667 
L 467.288865 60.474 
L 468.976561 128.95 
L 470.664257 127.748667 
L 472.351953 76.091333 
L 474.03965 200.429333 
L 475.727346 51.464 
L 477.415042 135.557333 
L 479.102738 90.507333 
L 480.790434 79.695333 
L 482.478131 58.672 
L 484.165827 83.9 
L 485.853523 180.006667 
L 487.541219 29.239333 
L 489.228916 111.530667 
L 490.916612 201.03 
L 492.604308 195.624 
L 494.292004 200.429333 
L 495.979701 63.477333 
L 497.667397 79.094667 
L 499.355093 201.03 
L 501.042789 79.094667 
L 502.730486 129.550667 
L 504.418182 74.89 
L 504.418182 74.89 
" clip-path="url(#p0f9321dac6)" style="fill: none; stroke: #99004d; stroke-width: 0.8; stroke-linecap: square"/>
   </g>
   <g id="patch_3">
    <path d="M 63.17 210.04 
L 63.17 11.82 
" style="fill: none; stroke: #000000; stroke-width: 0.8; stroke-linejoin: miter; stroke-linecap: square"/>
   </g>
   <g id="patch_4">
    <path d="M 525.43 210.04 
L 525.43 11.82 
" style="fill: none; stroke: #000000; stroke-width: 0.8; stroke-linejoin: miter; stroke-linecap: square"/>
   </g>
   <g id="patch_5">
    <path d="M 63.17 210.04 
L 525.43 210.04 
" style="fill: none; stroke: #000000; stroke-width: 0.8; stroke-linejoin: miter; stroke-linecap: square"/>
   </g>
   <g id="patch_6">
    <path d="M 63.17 11.82 
L 525.43 11.82 
" style="fill: none; stroke: #000000; stroke-width: 0.8; stroke-linejoin: miter; stroke-linecap: square"/>
   </g>
  </g>
  <g id="axes_2">
   <g id="matplotlib.axis_3">
    <g id="ytick_8">
     <g id="line2d_15">
      <defs>
       <path id="m56f5572a78" d="M 0 0 
L 3.5 0 
" style="stroke: #000000; stroke-width: 0.8"/>
      </defs>
      <g>
       <use xlink:href="#m56f5572a78" x="525.43" y="201.03" style="stroke: #000000; stroke-width: 0.8"/>
      </g>
     </g>
     <g id="text_16">
      <text style="font: 10px 'DejaVu Sans', 'Bitstream Vera Sans', 'Computer Modern Sans Serif', 'Lucida Grande', 'Verdana', 'Geneva', 'Lucid', 'Arial', 'Helvetica', 'Avant Garde', sans-serif; text-anchor: start" x="532.43" y="204.829219" transform="rotate(-0 532.43 204.829219)">0</text>
     </g>
    </g>
    <g id="ytick_9">
     <g id="line2d_16">
      <g>
       <use xlink:href="#m56f5572a78" x="525.43" y="176.002222" style="stroke: #000000; stroke-width: 0.8"/>
      </g>
     </g>
     <g id="text_17">
      <text style="font: 10px 'DejaVu Sans', 'Bitstream Vera Sans', 'Computer Modern Sans Serif', 'Lucida Grande', 'Verdana', 'Geneva', 'Lucid', 'Arial', 'Helvetica', 'Avant Garde', sans-serif; text-anchor: start" x="532.43" y="179.801441" transform="rotate(-0 532.43 179.801441)">5</text>
     </g>
    </g>
    <g id="ytick_10">
     <g id="line2d_17">
      <g>
       <use xlink:href="#m56f5572a78" x="525.43" y="150.974444" style="stroke: #000000; stroke-width: 0.8"/>
      </g>
     </g>
     <g id="text_18">
      <text style="font: 10px 'DejaVu Sans', 'Bitstream Vera Sans', 'Computer Modern Sans Serif', 'Lucida Grande', 'Verdana', 'Geneva', 'Lucid', 'Arial', 'Helvetica', 'Avant Garde', sans-serif; text-anchor: start" x="532.43" y="154.773663" transform="rotate(-0 532.43 154.773663)">10</text>
     </g>
    </g>
    <g id="ytick_11">
     <g id="line2d_18">
      <g>
       <use xlink:href="#m56f5572a78" x="525.43" y="125.946667" style="stroke: #000000; stroke-width: 0.8"/>
      </g>
     </g>
     <g id="text_19">
      <text style="font: 10px 'DejaVu Sans', 'Bitstream Vera Sans', 'Computer Modern Sans Serif', 'Lucida Grande', 'Verdana', 'Geneva', 'Lucid', 'Arial', 'Helvetica', 'Avant Garde', sans-serif; text-anchor: start" x="532.43" y="129.745885" transform="rotate(-0 532.43 129.745885)">15</text>
     </g>
    </g>
    <g id="ytick_12">
     <g id="line2d_19">
      <g>
       <use xlink:href="#m56f5572a78" x="525.43" y="100.918889" style="stroke: #000000; stroke-width: 0.8"/>
      </g>
     </g>
     <g id="text_20">
      <text style="font: 10px 'DejaVu Sans', 'Bitstream Vera Sans', 'Computer Modern Sans Serif', 'Lucida Grande', 'Verdana', 'Geneva', 'Lucid', 'Arial', 'Helvetica', 'Avant Garde', sans-serif; text-anchor: start" x="532.43" y="104.718108" transform="rotate(-0 532.43 104.718108)">20</text>
     </g>
    </g>
    <g id="ytick_13">
     <g id="line2d_20">
      <g>
       <use xlink:href="#m56f5572a78" x="525.43" y="75.891111" style="stroke: #000000; stroke-width: 0.8"/>
      </g>
     </g>
     <g id="text_21">
      <text style="font: 10px 'DejaVu Sans', 'Bitstream Vera Sans', 'Computer Modern Sans Serif', 'Lucida Grande', 'Verdana', 'Geneva', 'Lucid', 'Arial', 'Helvetica', 'Avant Garde', sans-serif; text-anchor: start" x="532.43" y="79.69033" transform="rotate(-0 532.43 79.69033)">25</text>
     </g>
    </g>
    <g id="ytick_14">
     <g id="line2d_21">
      <g>
       <use xlink:href="#m56f5572a78" x="525.43" y="50.863333" style="stroke: #000000; stroke-width: 0.8"/>
      </g>
     </g>
     <g id="text_22">
      <text style="font: 10px 'DejaVu Sans', 'Bitstream Vera Sans', 'Computer Modern Sans Serif', 'Lucida Grande', 'Verdana', 'Geneva', 'Lucid', 'Arial', 'Helvetica', 'Avant Garde', sans-serif; text-anchor: start" x="532.43" y="54.662552" transform="rotate(-0 532.43 54.662552)">30</text>
     </g>
    </g>
    <g id="ytick_15">
     <g id="line2d_22">
      <g>
       <use xlink:href="#m56f5572a78" x="525.43" y="25.835556" style="stroke: #000000; stroke-width: 0.8"/>
      </g>
     </g>
     <g id="text_23">
      <text style="font: 10px 'DejaVu Sans', 'Bitstream Vera Sans', 'Computer Modern Sans Serif', 'Lucida Grande', 'Verdana', 'Geneva', 'Lucid', 'Arial', 'Helvetica', 'Avant Garde', sans-serif; text-anchor: start" x="532.43" y="29.634774" transform="rotate(-0 532.43 29.634774)">35</text>
     </g>
    </g>
    <g id="text_24">
     <text style="font: 10px 'DejaVu Sans', 'Bitstream Vera Sans', 'Computer Modern Sans Serif', 'Lucida Grande', 'Verdana', 'Geneva', 'Lucid', 'Arial', 'Helvetica', 'Avant Garde', sans-serif; text-anchor: middle" x="562.753438" y="110.93" transform="rotate(-90 562.753438 110.93)">hw(data)</text>
    </g>
   </g>
   <g id="line2d_23">
    <path d="M 84.181818 80.896667 
L 85.869514 90.907778 
L 87.557211 60.874444 
L 89.244907 130.952222 
L 92.620299 70.885556 
L 94.307996 50.863333 
L 95.995692 115.935556 
L 99.371084 55.868889 
L 101.058781 95.913333 
L 102.746477 110.93 
L 104.434173 80.896667 
L 106.121869 100.918889 
L 107.809566 155.98 
L 109.497262 75.891111 
L 111.184958 50.863333 
L 112.872654 105.924444 
L 114.56035 85.902222 
L 116.248047 135.957778 
L 117.935743 60.874444 
L 119.623439 105.924444 
L 122.998832 105.924444 
L 124.686528 65.88 
L 126.374224 80.896667 
L 128.06192 60.874444 
L 129.749617 115.935556 
L 131.437313 110.93 
L 133.125009 140.963333 
L 134.812705 65.88 
L 136.500402 95.913333 
L 138.188098 90.907778 
L 139.875794 65.88 
L 141.56349 100.918889 
L 143.251187 40.852222 
L 144.938883 130.952222 
L 146.626579 65.88 
L 148.314275 80.896667 
L 150.001972 125.946667 
L 151.689668 70.885556 
L 153.377364 100.918889 
L 155.06506 186.013333 
L 156.752756 110.93 
L 158.440453 55.868889 
L 160.128149 100.918889 
L 161.815845 140.963333 
L 163.503541 85.902222 
L 165.191238 170.996667 
L 166.878934 50.863333 
L 168.56663 140.963333 
L 170.254326 125.946667 
L 171.942023 85.902222 
L 173.629719 25.835556 
L 175.317415 140.963333 
L 177.005111 181.007778 
L 178.692808 110.93 
L 180.380504 100.918889 
L 182.0682 65.88 
L 183.755896 65.88 
L 185.443593 60.874444 
L 187.131289 150.974444 
L 188.818985 135.957778 
L 190.506681 140.963333 
L 192.194378 30.841111 
L 193.882074 70.885556 
L 195.56977 45.857778 
L 197.257466 75.891111 
L 198.945162 145.968889 
L 200.632859 20.83 
L 202.320555 50.863333 
L 204.008251 90.907778 
L 205.695947 70.885556 
L 207.383644 35.846667 
L 209.07134 90.907778 
L 210.759036 115.935556 
L 212.446732 130.952222 
L 214.134429 70.885556 
L 215.822125 80.896667 
L 217.509821 105.924444 
L 219.197517 85.902222 
L 220.885214 75.891111 
L 222.57291 70.885556 
L 224.260606 105.924444 
L 225.948302 65.88 
L 227.635999 130.952222 
L 229.323695 80.896667 
L 231.011391 170.996667 
L 232.699087 75.891111 
L 234.386783 65.88 
L 236.07448 75.891111 
L 237.762176 65.88 
L 239.449872 60.874444 
L 241.137568 35.846667 
L 242.825265 75.891111 
L 244.512961 45.857778 
L 246.200657 55.868889 
L 247.888353 70.885556 
L 249.57605 140.963333 
L 251.263746 55.868889 
L 252.951442 100.918889 
L 254.639138 125.946667 
L 256.326835 75.891111 
L 258.014531 130.952222 
L 259.702227 90.907778 
L 261.389923 45.857778 
L 263.07762 40.852222 
L 264.765316 155.98 
L 266.453012 125.946667 
L 268.140708 35.846667 
L 269.828405 80.896667 
L 271.516101 105.924444 
L 273.203797 140.963333 
L 274.891493 125.946667 
L 276.579189 30.841111 
L 278.266886 85.902222 
L 279.954582 90.907778 
L 281.642278 70.885556 
L 283.329974 115.935556 
L 285.017671 50.863333 
L 286.705367 115.935556 
L 288.393063 115.935556 
L 290.080759 80.896667 
L 291.768456 70.885556 
L 293.456152 85.902222 
L 295.143848 65.88 
L 296.831544 155.98 
L 298.519241 130.952222 
L 300.206937 201.03 
L 301.894633 95.913333 
L 305.270026 75.891111 
L 306.957722 105.924444 
L 308.645418 155.98 
L 310.333114 115.935556 
L 312.020811 70.885556 
L 313.708507 135.957778 
L 315.396203 50.863333 
L 317.083899 35.846667 
L 318.771595 95.913333 
L 320.459292 80.896667 
L 322.146988 85.902222 
L 323.834684 95.913333 
L 325.52238 95.913333 
L 327.210077 50.863333 
L 328.897773 150.974444 
L 330.585469 105.924444 
L 332.273165 40.852222 
L 333.960862 90.907778 
L 335.648558 90.907778 
L 337.336254 45.857778 
L 339.02395 120.941111 
L 340.711647 65.88 
L 342.399343 75.891111 
L 344.087039 100.918889 
L 345.774735 110.93 
L 347.462432 25.835556 
L 349.150128 130.952222 
L 350.837824 25.835556 
L 352.52552 25.835556 
L 354.213217 45.857778 
L 357.588609 95.913333 
L 359.276305 85.902222 
L 360.964001 105.924444 
L 362.651698 115.935556 
L 364.339394 150.974444 
L 366.02709 160.985556 
L 367.714786 65.88 
L 369.402483 100.918889 
L 371.090179 30.841111 
L 372.777875 90.907778 
L 374.465571 105.924444 
L 376.153268 35.846667 
L 377.840964 90.907778 
L 379.52866 125.946667 
L 382.904053 95.913333 
L 384.591749 100.918889 
L 386.279445 50.863333 
L 387.967141 75.891111 
L 389.654838 50.863333 
L 391.342534 45.857778 
L 393.03023 130.952222 
L 394.717926 186.013333 
L 396.405622 55.868889 
L 398.093319 75.891111 
L 401.468711 55.868889 
L 403.156407 75.891111 
L 404.844104 150.974444 
L 406.5318 90.907778 
L 408.219496 85.902222 
L 409.907192 100.918889 
L 411.594889 160.985556 
L 413.282585 40.852222 
L 414.970281 80.896667 
L 416.657977 90.907778 
L 418.345674 120.941111 
L 420.03337 40.852222 
L 421.721066 45.857778 
L 423.408762 35.846667 
L 425.096459 120.941111 
L 426.784155 160.985556 
L 428.471851 70.885556 
L 430.159547 95.913333 
L 431.847244 110.93 
L 433.53494 85.902222 
L 435.222636 100.918889 
L 436.910332 110.93 
L 438.598028 150.974444 
L 440.285725 60.874444 
L 441.973421 110.93 
L 443.661117 95.913333 
L 445.348813 35.846667 
L 447.03651 125.946667 
L 448.724206 65.88 
L 450.411902 35.846667 
L 452.099598 80.896667 
L 453.787295 20.83 
L 455.474991 85.902222 
L 457.162687 50.863333 
L 458.850383 70.885556 
L 460.53808 160.985556 
L 462.225776 65.88 
L 463.913472 90.907778 
L 465.601168 105.924444 
L 467.288865 30.841111 
L 468.976561 110.93 
L 472.351953 90.907778 
L 474.03965 181.007778 
L 475.727346 25.835556 
L 477.415042 95.913333 
L 479.102738 70.885556 
L 480.790434 50.863333 
L 482.478131 85.902222 
L 484.165827 85.902222 
L 485.853523 115.935556 
L 487.541219 50.863333 
L 489.228916 105.924444 
L 490.916612 170.996667 
L 494.292004 181.007778 
L 495.979701 55.868889 
L 497.667397 115.935556 
L 499.355093 135.957778 
L 501.042789 45.857778 
L 502.730486 115.935556 
L 504.418182 80.896667 
L 504.418182 80.896667 
" clip-path="url(#p0f9321dac6)" style="fill: none; stroke: #235996; stroke-width: 0.8; stroke-linecap: square"/>
   </g>
   <g id="patch_7">
    <path d="M 63.17 210.04 
L 63.17 11.82 
" style="fill: none; stroke: #000000; stroke-width: 0.8; stroke-linejoin: miter; stroke-linecap: square"/>
   </g>
   <g id="patch_8">
    <path d="M 525.43 210.04 
L 525.43 11.82 
" style="fill: none; stroke: #000000; stroke-width: 0.8; stroke-linejoin: miter; stroke-linecap: square"/>
   </g>
   <g id="patch_9">
    <path d="M 63.17 210.04 
L 525.43 210.04 
" style="fill: none; stroke: #000000; stroke-width: 0.8; stroke-linejoin: miter; stroke-linecap: square"/>
   </g>
   <g id="patch_10">
    <path d="M 63.17 11.82 
L 525.43 11.82 
" style="fill: none; stroke: #000000; stroke-width: 0.8; stroke-linejoin: miter; stroke-linecap: square"/>
   </g>
   <g id="legend_1">
    <g id="patch_11">
     <path d="M 153.689625 44.4765 
L 434.910375 44.4765 
Q 437.790375 44.4765 437.790375 41.5965 
L 437.790375 21.9 
Q 437.790375 19.02 434.910375 19.02 
L 153.689625 19.02 
Q 150.809625 19.02 150.809625 21.9 
L 150.809625 41.5965 
Q 150.809625 44.4765 153.689625 44.4765 
z
" style="fill: #ffffff; opacity: 0.8; stroke: #000000; stroke-linejoin: miter"/>
    </g>
    <g id="line2d_24">
     <path d="M 156.569625 30.68175 
L 170.969625 30.68175 
L 185.369625 30.68175 
" style="fill: none; stroke: #99004d; stroke-width: 0.8; stroke-linecap: square"/>
    </g>
    <g id="text_25">
     <text style="font: 14.4px 'DejaVu Sans', 'Bitstream Vera Sans', 'Computer Modern Sans Serif', 'Lucida Grande', 'Verdana', 'Geneva', 'Lucid', 'Arial', 'Helvetica', 'Avant Garde', sans-serif; text-anchor: start" x="196.889625" y="35.72175" transform="rotate(-0 196.889625 35.72175)">power</text>
    </g>
    <g id="line2d_25">
     <path d="M 270.199125 30.68175 
L 284.599125 30.68175 
L 298.999125 30.68175 
" style="fill: none; stroke: #235996; stroke-width: 0.8; stroke-linecap: square"/>
    </g>
    <g id="text_26">
     <text style="font: 14.4px 'DejaVu Sans', 'Bitstream Vera Sans', 'Computer Modern Sans Serif', 'Lucida Grande', 'Verdana', 'Geneva', 'Lucid', 'Arial', 'Helvetica', 'Avant Garde', sans-serif; text-anchor: start" x="310.519125" y="35.72175" transform="rotate(-0 310.519125 35.72175)">hw(rs1)+hw(rs2)</text>
    </g>
   </g>
  </g>
 </g>
 <defs>
  <clipPath id="p0f9321dac6">
   <rect x="63.17" y="11.82" width="462.26" height="198.22"/>
  </clipPath>
 </defs>
</svg>
