<?xml version="1.0" encoding="utf-8" standalone="no"?>
<!DOCTYPE svg PUBLIC "-//W3C//DTD SVG 1.1//EN"
  "http://www.w3.org/Graphics/SVG/1.1/DTD/svg11.dtd">
<svg xmlns:xlink="http://www.w3.org/1999/xlink" width="576pt" height="252pt" viewBox="0 0 576 252" xmlns="http://www.w3.org/2000/svg" version="1.1">
 <metadata>
  <rdf:RDF xmlns:dc="http://purl.org/dc/elements/1.1/" xmlns:cc="http://creativecommons.org/ns#" xmlns:rdf="http://www.w3.org/1999/02/22-rdf-syntax-ns#">
   <cc:Work>
    <dc:type rdf:resource="http://purl.org/dc/dcmitype/StillImage"/>
    <dc:date>2023-12-04T21:08:58.094863</dc:date>
    <dc:format>image/svg+xml</dc:format>
    <dc:creator>
     <cc:Agent>
      <dc:title>Matplotlib v3.7.4, https://matplotlib.org/</dc:title>
     </cc:Agent>
    </dc:creator>
   </cc:Work>
  </rdf:RDF>
 </metadata>
 <defs>
  <style type="text/css">*{stroke-linejoin: round; stroke-linecap: butt}</style>
 </defs>
 <g id="figure_1">
  <g id="patch_1">
   <path d="M 0 252 
L 576 252 
L 576 0 
L 0 0 
z
" style="fill: #ffffff"/>
  </g>
  <g id="axes_1">
   <g id="patch_2">
    <path d="M 56.96 210.04 
L 525.43 210.04 
L 525.43 10.8 
L 56.96 10.8 
z
" style="fill: #ffffff"/>
   </g>
   <g id="matplotlib.axis_1">
    <g id="xtick_1">
     <g id="line2d_1">
      <defs>
       <path id="mac49512ee7" d="M 0 0 
L 0 3.5 
" style="stroke: #000000; stroke-width: 0.8"/>
      </defs>
      <g>
       <use xlink:href="#mac49512ee7" x="78.254091" y="210.04" style="stroke: #000000; stroke-width: 0.8"/>
      </g>
     </g>
     <g id="text_1">
      <text style="font: 10px 'DejaVu Sans', 'Bitstream Vera Sans', 'Computer Modern Sans Serif', 'Lucida Grande', 'Verdana', 'Geneva', 'Lucid', 'Arial', 'Helvetica', 'Avant Garde', sans-serif; text-anchor: middle" x="78.254091" y="224.638438" transform="rotate(-0 78.254091 224.638438)">0</text>
     </g>
    </g>
    <g id="xtick_2">
     <g id="line2d_2">
      <g>
       <use xlink:href="#mac49512ee7" x="163.772528" y="210.04" style="stroke: #000000; stroke-width: 0.8"/>
      </g>
     </g>
     <g id="text_2">
      <text style="font: 10px 'DejaVu Sans', 'Bitstream Vera Sans', 'Computer Modern Sans Serif', 'Lucida Grande', 'Verdana', 'Geneva', 'Lucid', 'Arial', 'Helvetica', 'Avant Garde', sans-serif; text-anchor: middle" x="163.772528" y="224.638438" transform="rotate(-0 163.772528 224.638438)">50</text>
     </g>
    </g>
    <g id="xtick_3">
     <g id="line2d_3">
      <g>
       <use xlink:href="#mac49512ee7" x="249.290966" y="210.04" style="stroke: #000000; stroke-width: 0.8"/>
      </g>
     </g>
     <g id="text_3">
      <text style="font: 10px 'DejaVu Sans', 'Bitstream Vera Sans', 'Computer Modern Sans Serif', 'Lucida Grande', 'Verdana', 'Geneva', 'Lucid', 'Arial', 'Helvetica', 'Avant Garde', sans-serif; text-anchor: middle" x="249.290966" y="224.638438" transform="rotate(-0 249.290966 224.638438)">100</text>
     </g>
    </g>
    <g id="xtick_4">
     <g id="line2d_4">
      <g>
       <use xlink:href="#mac49512ee7" x="334.809403" y="210.04" style="stroke: #000000; stroke-width: 0.8"/>
      </g>
     </g>
     <g id="text_4">
      <text style="font: 10px 'DejaVu Sans', 'Bitstream Vera Sans', 'Computer Modern Sans Serif', 'Lucida Grande', 'Verdana', 'Geneva', 'Lucid', 'Arial', 'Helvetica', 'Avant Garde', sans-serif; text-anchor: middle" x="334.809403" y="224.638438" transform="rotate(-0 334.809403 224.638438)">150</text>
     </g>
    </g>
    <g id="xtick_5">
     <g id="line2d_5">
      <g>
       <use xlink:href="#mac49512ee7" x="420.32784" y="210.04" style="stroke: #000000; stroke-width: 0.8"/>
      </g>
     </g>
     <g id="text_5">
      <text style="font: 10px 'DejaVu Sans', 'Bitstream Vera Sans', 'Computer Modern Sans Serif', 'Lucida Grande', 'Verdana', 'Geneva', 'Lucid', 'Arial', 'Helvetica', 'Avant Garde', sans-serif; text-anchor: middle" x="420.32784" y="224.638438" transform="rotate(-0 420.32784 224.638438)">200</text>
     </g>
    </g>
    <g id="xtick_6">
     <g id="line2d_6">
      <g>
       <use xlink:href="#mac49512ee7" x="505.846278" y="210.04" style="stroke: #000000; stroke-width: 0.8"/>
      </g>
     </g>
     <g id="text_6">
      <text style="font: 10px 'DejaVu Sans', 'Bitstream Vera Sans', 'Computer Modern Sans Serif', 'Lucida Grande', 'Verdana', 'Geneva', 'Lucid', 'Arial', 'Helvetica', 'Avant Garde', sans-serif; text-anchor: middle" x="505.846278" y="224.638438" transform="rotate(-0 505.846278 224.638438)">250</text>
     </g>
    </g>
    <g id="text_7">
     <text style="font: 10px 'DejaVu Sans', 'Bitstream Vera Sans', 'Computer Modern Sans Serif', 'Lucida Grande', 'Verdana', 'Geneva', 'Lucid', 'Arial', 'Helvetica', 'Avant Garde', sans-serif; text-anchor: middle" x="291.195" y="238.316563" transform="rotate(-0 291.195 238.316563)">Cycles</text>
    </g>
   </g>
   <g id="matplotlib.axis_2">
    <g id="ytick_1">
     <g id="line2d_7">
      <defs>
       <path id="m043b893189" d="M 0 0 
L -3.5 0 
" style="stroke: #000000; stroke-width: 0.8"/>
      </defs>
      <g>
       <use xlink:href="#m043b893189" x="56.96" y="196.021245" style="stroke: #000000; stroke-width: 0.8"/>
      </g>
     </g>
     <g id="text_8">
      <text style="font: 10px 'DejaVu Sans', 'Bitstream Vera Sans', 'Computer Modern Sans Serif', 'Lucida Grande', 'Verdana', 'Geneva', 'Lucid', 'Arial', 'Helvetica', 'Avant Garde', sans-serif; text-anchor: end" x="49.96" y="199.820464" transform="rotate(-0 49.96 199.820464)">40</text>
     </g>
    </g>
    <g id="ytick_2">
     <g id="line2d_8">
      <g>
       <use xlink:href="#m043b893189" x="56.96" y="171.20929" style="stroke: #000000; stroke-width: 0.8"/>
      </g>
     </g>
     <g id="text_9">
      <text style="font: 10px 'DejaVu Sans', 'Bitstream Vera Sans', 'Computer Modern Sans Serif', 'Lucida Grande', 'Verdana', 'Geneva', 'Lucid', 'Arial', 'Helvetica', 'Avant Garde', sans-serif; text-anchor: end" x="49.96" y="175.008509" transform="rotate(-0 49.96 175.008509)">60</text>
     </g>
    </g>
    <g id="ytick_3">
     <g id="line2d_9">
      <g>
       <use xlink:href="#m043b893189" x="56.96" y="146.397335" style="stroke: #000000; stroke-width: 0.8"/>
      </g>
     </g>
     <g id="text_10">
      <text style="font: 10px 'DejaVu Sans', 'Bitstream Vera Sans', 'Computer Modern Sans Serif', 'Lucida Grande', 'Verdana', 'Geneva', 'Lucid', 'Arial', 'Helvetica', 'Avant Garde', sans-serif; text-anchor: end" x="49.96" y="150.196554" transform="rotate(-0 49.96 150.196554)">80</text>
     </g>
    </g>
    <g id="ytick_4">
     <g id="line2d_10">
      <g>
       <use xlink:href="#m043b893189" x="56.96" y="121.58538" style="stroke: #000000; stroke-width: 0.8"/>
      </g>
     </g>
     <g id="text_11">
      <text style="font: 10px 'DejaVu Sans', 'Bitstream Vera Sans', 'Computer Modern Sans Serif', 'Lucida Grande', 'Verdana', 'Geneva', 'Lucid', 'Arial', 'Helvetica', 'Avant Garde', sans-serif; text-anchor: end" x="49.96" y="125.384599" transform="rotate(-0 49.96 125.384599)">100</text>
     </g>
    </g>
    <g id="ytick_5">
     <g id="line2d_11">
      <g>
       <use xlink:href="#m043b893189" x="56.96" y="96.773425" style="stroke: #000000; stroke-width: 0.8"/>
      </g>
     </g>
     <g id="text_12">
      <text style="font: 10px 'DejaVu Sans', 'Bitstream Vera Sans', 'Computer Modern Sans Serif', 'Lucida Grande', 'Verdana', 'Geneva', 'Lucid', 'Arial', 'Helvetica', 'Avant Garde', sans-serif; text-anchor: end" x="49.96" y="100.572643" transform="rotate(-0 49.96 100.572643)">120</text>
     </g>
    </g>
    <g id="ytick_6">
     <g id="line2d_12">
      <g>
       <use xlink:href="#m043b893189" x="56.96" y="71.961469" style="stroke: #000000; stroke-width: 0.8"/>
      </g>
     </g>
     <g id="text_13">
      <text style="font: 10px 'DejaVu Sans', 'Bitstream Vera Sans', 'Computer Modern Sans Serif', 'Lucida Grande', 'Verdana', 'Geneva', 'Lucid', 'Arial', 'Helvetica', 'Avant Garde', sans-serif; text-anchor: end" x="49.96" y="75.760688" transform="rotate(-0 49.96 75.760688)">140</text>
     </g>
    </g>
    <g id="ytick_7">
     <g id="line2d_13">
      <g>
       <use xlink:href="#m043b893189" x="56.96" y="47.149514" style="stroke: #000000; stroke-width: 0.8"/>
      </g>
     </g>
     <g id="text_14">
      <text style="font: 10px 'DejaVu Sans', 'Bitstream Vera Sans', 'Computer Modern Sans Serif', 'Lucida Grande', 'Verdana', 'Geneva', 'Lucid', 'Arial', 'Helvetica', 'Avant Garde', sans-serif; text-anchor: end" x="49.96" y="50.948733" transform="rotate(-0 49.96 50.948733)">160</text>
     </g>
    </g>
    <g id="ytick_8">
     <g id="line2d_14">
      <g>
       <use xlink:href="#m043b893189" x="56.96" y="22.337559" style="stroke: #000000; stroke-width: 0.8"/>
      </g>
     </g>
     <g id="text_15">
      <text style="font: 10px 'DejaVu Sans', 'Bitstream Vera Sans', 'Computer Modern Sans Serif', 'Lucida Grande', 'Verdana', 'Geneva', 'Lucid', 'Arial', 'Helvetica', 'Avant Garde', sans-serif; text-anchor: end" x="49.96" y="26.136778" transform="rotate(-0 49.96 26.136778)">180</text>
     </g>
    </g>
    <g id="text_16">
     <text style="font: 10px 'DejaVu Sans', 'Bitstream Vera Sans', 'Computer Modern Sans Serif', 'Lucida Grande', 'Verdana', 'Geneva', 'Lucid', 'Arial', 'Helvetica', 'Avant Garde', sans-serif; text-anchor: middle" x="18.792813" y="110.42" transform="rotate(-90 18.792813 110.42)">power (uW)</text>
    </g>
   </g>
   <g id="line2d_15">
    <path d="M 78.254091 83.126849 
L 79.96446 53.352503 
L 81.674828 53.352503 
L 83.385197 86.848643 
L 85.095566 136.472553 
L 86.805935 54.593101 
L 88.516303 110.42 
L 90.226672 80.645654 
L 91.937041 88.08924 
L 93.64741 70.720872 
L 95.357778 57.074296 
L 97.068147 99.25462 
L 98.778516 84.367447 
L 100.488885 76.923861 
L 102.199253 110.42 
L 103.909622 47.149514 
L 105.619991 60.79609 
L 107.33036 70.720872 
L 109.040728 75.683263 
L 110.751097 69.480274 
L 112.461466 140.194346 
L 114.171835 80.645654 
L 115.882203 158.803313 
L 117.592572 93.051631 
L 119.302941 119.104184 
L 121.01331 110.42 
L 122.723678 109.179402 
L 124.434047 88.08924 
L 126.144416 125.307173 
L 127.854785 76.923861 
L 129.565153 142.675542 
L 131.275522 88.08924 
L 132.985891 98.014022 
L 134.69626 99.25462 
L 136.406628 54.593101 
L 138.116997 104.217011 
L 139.827366 135.231955 
L 141.537735 69.480274 
L 143.248103 126.547771 
L 144.958472 116.622989 
L 146.668841 96.773425 
L 148.37921 58.314894 
L 150.089578 80.645654 
L 151.799947 157.562715 
L 153.510316 79.405056 
L 155.220685 122.825978 
L 156.931053 78.164458 
L 158.641422 83.126849 
L 160.351791 99.25462 
L 162.06216 52.111905 
L 163.772528 116.622989 
L 165.482897 101.735816 
L 167.193266 76.923861 
L 168.903635 126.547771 
L 170.614003 112.901196 
L 172.324372 148.878531 
L 174.034741 111.660598 
L 175.74511 68.239676 
L 177.455478 96.773425 
L 179.165847 65.758481 
L 180.876216 90.570436 
L 182.586585 100.495218 
L 184.296953 65.758481 
L 186.007322 160.04391 
L 187.717691 135.231955 
L 189.42806 100.495218 
L 192.848797 57.074296 
L 194.559166 54.593101 
L 196.269535 94.292229 
L 197.979903 73.202067 
L 199.690272 83.126849 
L 201.400641 68.239676 
L 203.111009 54.593101 
L 204.821378 127.788369 
L 206.531747 55.833699 
L 208.242116 83.126849 
L 209.952484 70.720872 
L 211.662853 80.645654 
L 213.373222 63.277285 
L 215.083591 53.352503 
L 216.793959 44.668319 
L 218.504328 74.442665 
L 220.214697 89.329838 
L 221.925066 140.194346 
L 223.635434 135.231955 
L 225.345803 52.111905 
L 227.056172 44.668319 
L 228.766541 137.713151 
L 230.476909 54.593101 
L 232.187278 54.593101 
L 233.897647 78.164458 
L 235.608016 167.487497 
L 237.318384 98.014022 
L 239.028753 132.75076 
L 240.739122 111.660598 
L 242.449491 78.164458 
L 244.159859 81.886252 
L 245.870228 79.405056 
L 247.580597 127.788369 
L 249.290966 53.352503 
L 251.001334 157.562715 
L 252.711703 76.923861 
L 254.422072 74.442665 
L 256.132441 66.999078 
L 257.842809 64.517883 
L 259.553178 79.405056 
L 261.263547 99.25462 
L 262.973916 173.690486 
L 264.684284 91.811034 
L 266.394653 68.239676 
L 268.105022 63.277285 
L 269.815391 110.42 
L 271.525759 145.156737 
L 273.236128 88.08924 
L 274.946497 143.916139 
L 276.656866 57.074296 
L 278.367234 140.194346 
L 280.077603 99.25462 
L 281.787972 95.532827 
L 283.498341 75.683263 
L 285.208709 38.46533 
L 286.919078 57.074296 
L 288.629447 131.510162 
L 292.050184 63.277285 
L 293.760553 68.239676 
L 295.470922 80.645654 
L 297.181291 86.848643 
L 298.891659 112.901196 
L 300.602028 200.983636 
L 302.312397 83.126849 
L 304.022766 69.480274 
L 305.733134 121.58538 
L 307.443503 75.683263 
L 309.153872 50.871308 
L 310.864241 84.367447 
L 312.574609 137.713151 
L 314.284978 121.58538 
L 315.995347 55.833699 
L 317.705716 88.08924 
L 319.416084 132.75076 
L 321.126453 58.314894 
L 322.836822 27.29995 
L 324.547191 81.886252 
L 326.257559 192.299452 
L 327.967928 43.427721 
L 329.678297 94.292229 
L 331.388666 79.405056 
L 333.099034 85.608045 
L 334.809403 44.668319 
L 336.519772 55.833699 
L 338.230141 73.202067 
L 339.940509 19.856364 
L 341.650878 142.675542 
L 343.361247 71.961469 
L 345.071616 90.570436 
L 346.781984 85.608045 
L 348.492353 90.570436 
L 350.202722 136.472553 
L 351.913091 38.46533 
L 353.623459 84.367447 
L 355.333828 89.329838 
L 357.044197 109.179402 
L 358.754566 112.901196 
L 360.464934 48.390112 
L 362.175303 102.976413 
L 363.885672 75.683263 
L 365.596041 76.923861 
L 367.306409 130.269564 
L 369.016778 85.608045 
L 370.727147 84.367447 
L 372.437516 178.652877 
L 374.147884 23.578157 
L 375.858253 132.75076 
L 377.568622 79.405056 
L 379.278991 105.457609 
L 380.989359 122.825978 
L 382.699728 89.329838 
L 384.410097 91.811034 
L 386.120465 96.773425 
L 387.830834 57.074296 
L 389.541203 79.405056 
L 391.251572 110.42 
L 392.96194 55.833699 
L 394.672309 90.570436 
L 396.382678 115.382391 
L 398.093047 75.683263 
L 399.803415 70.720872 
L 401.513784 90.570436 
L 403.224153 133.991357 
L 404.934522 44.668319 
L 406.64489 99.25462 
L 408.355259 62.036687 
L 410.065628 121.58538 
L 411.775997 98.014022 
L 413.486365 53.352503 
L 415.196734 121.58538 
L 416.907103 48.390112 
L 418.617472 65.758481 
L 420.32784 78.164458 
L 422.038209 85.608045 
L 423.748578 119.104184 
L 425.458947 74.442665 
L 427.169315 122.825978 
L 428.879684 109.179402 
L 430.590053 76.923861 
L 432.300422 125.307173 
L 434.01079 88.08924 
L 435.721159 112.901196 
L 437.431528 81.886252 
L 439.141897 73.202067 
L 440.852265 102.976413 
L 442.562634 55.833699 
L 444.273003 111.660598 
L 445.983372 104.217011 
L 447.69374 60.79609 
L 449.404109 104.217011 
L 451.114478 99.25462 
L 452.824847 111.660598 
L 454.535215 122.825978 
L 456.245584 75.683263 
L 457.955953 78.164458 
L 459.666322 120.344782 
L 461.37669 84.367447 
L 463.087059 98.014022 
L 464.797428 60.79609 
L 466.507797 76.923861 
L 468.218165 143.916139 
L 469.928534 122.825978 
L 473.349272 55.833699 
L 475.05964 78.164458 
L 476.770009 69.480274 
L 478.480378 124.066575 
L 480.190747 71.961469 
L 481.901115 184.855866 
L 483.611484 74.442665 
L 485.321853 65.758481 
L 487.032222 93.051631 
L 488.74259 148.878531 
L 490.452959 79.405056 
L 492.163328 106.698207 
L 493.873697 136.472553 
L 495.584065 93.051631 
L 497.294434 130.269564 
L 499.004803 45.908917 
L 500.715172 64.517883 
L 502.42554 75.683263 
L 504.135909 88.08924 
L 504.135909 88.08924 
" clip-path="url(#p2ec8545a0c)" style="fill: none; stroke: #99004d; stroke-width: 0.8; stroke-linecap: square"/>
   </g>
   <g id="patch_3">
    <path d="M 56.96 210.04 
L 56.96 10.8 
" style="fill: none; stroke: #000000; stroke-width: 0.8; stroke-linejoin: miter; stroke-linecap: square"/>
   </g>
   <g id="patch_4">
    <path d="M 525.43 210.04 
L 525.43 10.8 
" style="fill: none; stroke: #000000; stroke-width: 0.8; stroke-linejoin: miter; stroke-linecap: square"/>
   </g>
   <g id="patch_5">
    <path d="M 56.96 210.04 
L 525.43 210.04 
" style="fill: none; stroke: #000000; stroke-width: 0.8; stroke-linejoin: miter; stroke-linecap: square"/>
   </g>
   <g id="patch_6">
    <path d="M 56.96 10.8 
L 525.43 10.8 
" style="fill: none; stroke: #000000; stroke-width: 0.8; stroke-linejoin: miter; stroke-linecap: square"/>
   </g>
  </g>
  <g id="axes_2">
   <g id="matplotlib.axis_3">
    <g id="ytick_9">
     <g id="line2d_16">
      <defs>
       <path id="m628f22a4cd" d="M 0 0 
L 3.5 0 
" style="stroke: #000000; stroke-width: 0.8"/>
      </defs>
      <g>
       <use xlink:href="#m628f22a4cd" x="525.43" y="185.001818" style="stroke: #000000; stroke-width: 0.8"/>
      </g>
     </g>
     <g id="text_17">
      <text style="font: 10px 'DejaVu Sans', 'Bitstream Vera Sans', 'Computer Modern Sans Serif', 'Lucida Grande', 'Verdana', 'Geneva', 'Lucid', 'Arial', 'Helvetica', 'Avant Garde', sans-serif; text-anchor: start" x="532.43" y="188.801037" transform="rotate(-0 532.43 188.801037)">5</text>
     </g>
    </g>
    <g id="ytick_10">
     <g id="line2d_17">
      <g>
       <use xlink:href="#m628f22a4cd" x="525.43" y="158.365455" style="stroke: #000000; stroke-width: 0.8"/>
      </g>
     </g>
     <g id="text_18">
      <text style="font: 10px 'DejaVu Sans', 'Bitstream Vera Sans', 'Computer Modern Sans Serif', 'Lucida Grande', 'Verdana', 'Geneva', 'Lucid', 'Arial', 'Helvetica', 'Avant Garde', sans-serif; text-anchor: start" x="532.43" y="162.164673" transform="rotate(-0 532.43 162.164673)">10</text>
     </g>
    </g>
    <g id="ytick_11">
     <g id="line2d_18">
      <g>
       <use xlink:href="#m628f22a4cd" x="525.43" y="131.729091" style="stroke: #000000; stroke-width: 0.8"/>
      </g>
     </g>
     <g id="text_19">
      <text style="font: 10px 'DejaVu Sans', 'Bitstream Vera Sans', 'Computer Modern Sans Serif', 'Lucida Grande', 'Verdana', 'Geneva', 'Lucid', 'Arial', 'Helvetica', 'Avant Garde', sans-serif; text-anchor: start" x="532.43" y="135.52831" transform="rotate(-0 532.43 135.52831)">15</text>
     </g>
    </g>
    <g id="ytick_12">
     <g id="line2d_19">
      <g>
       <use xlink:href="#m628f22a4cd" x="525.43" y="105.092727" style="stroke: #000000; stroke-width: 0.8"/>
      </g>
     </g>
     <g id="text_20">
      <text style="font: 10px 'DejaVu Sans', 'Bitstream Vera Sans', 'Computer Modern Sans Serif', 'Lucida Grande', 'Verdana', 'Geneva', 'Lucid', 'Arial', 'Helvetica', 'Avant Garde', sans-serif; text-anchor: start" x="532.43" y="108.891946" transform="rotate(-0 532.43 108.891946)">20</text>
     </g>
    </g>
    <g id="ytick_13">
     <g id="line2d_20">
      <g>
       <use xlink:href="#m628f22a4cd" x="525.43" y="78.456364" style="stroke: #000000; stroke-width: 0.8"/>
      </g>
     </g>
     <g id="text_21">
      <text style="font: 10px 'DejaVu Sans', 'Bitstream Vera Sans', 'Computer Modern Sans Serif', 'Lucida Grande', 'Verdana', 'Geneva', 'Lucid', 'Arial', 'Helvetica', 'Avant Garde', sans-serif; text-anchor: start" x="532.43" y="82.255582" transform="rotate(-0 532.43 82.255582)">25</text>
     </g>
    </g>
    <g id="ytick_14">
     <g id="line2d_21">
      <g>
       <use xlink:href="#m628f22a4cd" x="525.43" y="51.82" style="stroke: #000000; stroke-width: 0.8"/>
      </g>
     </g>
     <g id="text_22">
      <text style="font: 10px 'DejaVu Sans', 'Bitstream Vera Sans', 'Computer Modern Sans Serif', 'Lucida Grande', 'Verdana', 'Geneva', 'Lucid', 'Arial', 'Helvetica', 'Avant Garde', sans-serif; text-anchor: start" x="532.43" y="55.619219" transform="rotate(-0 532.43 55.619219)">30</text>
     </g>
    </g>
    <g id="ytick_15">
     <g id="line2d_22">
      <g>
       <use xlink:href="#m628f22a4cd" x="525.43" y="25.183636" style="stroke: #000000; stroke-width: 0.8"/>
      </g>
     </g>
     <g id="text_23">
      <text style="font: 10px 'DejaVu Sans', 'Bitstream Vera Sans', 'Computer Modern Sans Serif', 'Lucida Grande', 'Verdana', 'Geneva', 'Lucid', 'Arial', 'Helvetica', 'Avant Garde', sans-serif; text-anchor: start" x="532.43" y="28.982855" transform="rotate(-0 532.43 28.982855)">35</text>
     </g>
    </g>
    <g id="text_24">
     <text style="font: 10px 'DejaVu Sans', 'Bitstream Vera Sans', 'Computer Modern Sans Serif', 'Lucida Grande', 'Verdana', 'Geneva', 'Lucid', 'Arial', 'Helvetica', 'Avant Garde', sans-serif; text-anchor: middle" x="562.753438" y="110.42" transform="rotate(-90 562.753438 110.42)">hw(data)</text>
    </g>
   </g>
   <g id="line2d_23">
    <path d="M 78.254091 62.474545 
L 79.96446 51.82 
L 81.674828 46.492727 
L 83.385197 78.456364 
L 85.095566 115.747273 
L 86.805935 41.165455 
L 88.516303 105.092727 
L 90.226672 83.783636 
L 91.937041 89.110909 
L 93.64741 41.165455 
L 95.357778 89.110909 
L 97.068147 73.129091 
L 98.778516 110.42 
L 100.488885 57.147273 
L 102.199253 121.074545 
L 103.909622 46.492727 
L 105.619991 57.147273 
L 107.33036 46.492727 
L 109.040728 94.438182 
L 110.751097 57.147273 
L 112.461466 174.347273 
L 114.171835 46.492727 
L 115.882203 110.42 
L 117.592572 62.474545 
L 119.302941 185.001818 
L 121.01331 131.729091 
L 122.723678 115.747273 
L 124.434047 62.474545 
L 126.144416 131.729091 
L 127.854785 57.147273 
L 129.565153 142.383636 
L 131.275522 94.438182 
L 132.985891 78.456364 
L 134.69626 94.438182 
L 136.406628 57.147273 
L 139.827366 163.692727 
L 141.537735 73.129091 
L 143.248103 147.710909 
L 144.958472 83.783636 
L 146.668841 105.092727 
L 148.37921 30.510909 
L 150.089578 126.401818 
L 151.799947 158.365455 
L 153.510316 67.801818 
L 155.220685 169.02 
L 156.931053 83.783636 
L 158.641422 89.110909 
L 160.351791 73.129091 
L 162.06216 62.474545 
L 163.772528 153.038182 
L 165.482897 142.383636 
L 167.193266 115.747273 
L 168.903635 137.056364 
L 170.614003 131.729091 
L 172.324372 169.02 
L 174.034741 99.765455 
L 175.74511 57.147273 
L 177.455478 99.765455 
L 179.165847 57.147273 
L 180.876216 73.129091 
L 182.586585 121.074545 
L 184.296953 57.147273 
L 186.007322 163.692727 
L 187.717691 126.401818 
L 189.42806 121.074545 
L 191.138428 94.438182 
L 192.848797 51.82 
L 194.559166 57.147273 
L 196.269535 78.456364 
L 197.979903 73.129091 
L 199.690272 78.456364 
L 201.400641 57.147273 
L 203.111009 62.474545 
L 204.821378 121.074545 
L 206.531747 35.838182 
L 208.242116 78.456364 
L 209.952484 78.456364 
L 211.662853 67.801818 
L 213.373222 46.492727 
L 216.793959 25.183636 
L 218.504328 67.801818 
L 220.214697 62.474545 
L 221.925066 126.401818 
L 223.635434 163.692727 
L 225.345803 62.474545 
L 227.056172 57.147273 
L 228.766541 190.329091 
L 230.476909 67.801818 
L 232.187278 51.82 
L 233.897647 57.147273 
L 235.608016 174.347273 
L 237.318384 121.074545 
L 239.028753 163.692727 
L 240.739122 126.401818 
L 242.449491 78.456364 
L 244.159859 94.438182 
L 245.870228 89.110909 
L 247.580597 142.383636 
L 249.290966 46.492727 
L 251.001334 153.038182 
L 252.711703 46.492727 
L 254.422072 51.82 
L 256.132441 67.801818 
L 257.842809 46.492727 
L 259.553178 110.42 
L 261.263547 94.438182 
L 262.973916 190.329091 
L 264.684284 126.401818 
L 266.394653 46.492727 
L 268.105022 57.147273 
L 269.815391 105.092727 
L 271.525759 131.729091 
L 273.236128 94.438182 
L 274.946497 131.729091 
L 276.656866 46.492727 
L 278.367234 137.056364 
L 280.077603 73.129091 
L 281.787972 110.42 
L 283.498341 62.474545 
L 285.208709 35.838182 
L 286.919078 83.783636 
L 288.629447 153.038182 
L 290.339816 99.765455 
L 292.050184 57.147273 
L 293.760553 67.801818 
L 295.470922 62.474545 
L 297.181291 89.110909 
L 298.891659 105.092727 
L 300.602028 190.329091 
L 302.312397 73.129091 
L 304.022766 41.165455 
L 305.733134 158.365455 
L 307.443503 110.42 
L 309.153872 46.492727 
L 310.864241 62.474545 
L 312.574609 174.347273 
L 315.995347 89.110909 
L 317.705716 78.456364 
L 319.416084 169.02 
L 321.126453 89.110909 
L 322.836822 51.82 
L 324.547191 105.092727 
L 326.257559 185.001818 
L 327.967928 94.438182 
L 329.678297 83.783636 
L 331.388666 57.147273 
L 333.099034 94.438182 
L 334.809403 41.165455 
L 336.519772 83.783636 
L 339.940509 19.856364 
L 341.650878 147.710909 
L 343.361247 73.129091 
L 345.071616 99.765455 
L 346.781984 73.129091 
L 348.492353 153.038182 
L 350.202722 110.42 
L 351.913091 57.147273 
L 353.623459 83.783636 
L 355.333828 94.438182 
L 357.044197 142.383636 
L 358.754566 126.401818 
L 360.464934 41.165455 
L 362.175303 110.42 
L 363.885672 67.801818 
L 365.596041 51.82 
L 367.306409 105.092727 
L 369.016778 73.129091 
L 370.727147 83.783636 
L 372.437516 200.983636 
L 374.147884 30.510909 
L 375.858253 126.401818 
L 377.568622 62.474545 
L 379.278991 137.056364 
L 380.989359 137.056364 
L 382.699728 115.747273 
L 384.410097 99.765455 
L 386.120465 115.747273 
L 387.830834 25.183636 
L 389.541203 57.147273 
L 391.251572 67.801818 
L 392.96194 51.82 
L 394.672309 78.456364 
L 396.382678 121.074545 
L 398.093047 62.474545 
L 399.803415 67.801818 
L 401.513784 105.092727 
L 403.224153 131.729091 
L 404.934522 19.856364 
L 406.64489 89.110909 
L 408.355259 78.456364 
L 410.065628 142.383636 
L 411.775997 105.092727 
L 413.486365 46.492727 
L 415.196734 126.401818 
L 416.907103 51.82 
L 418.617472 46.492727 
L 420.32784 99.765455 
L 422.038209 78.456364 
L 423.748578 126.401818 
L 425.458947 41.165455 
L 427.169315 126.401818 
L 428.879684 137.056364 
L 430.590053 67.801818 
L 432.300422 105.092727 
L 434.01079 89.110909 
L 435.721159 142.383636 
L 437.431528 121.074545 
L 439.141897 83.783636 
L 440.852265 115.747273 
L 442.562634 62.474545 
L 444.273003 115.747273 
L 445.983372 142.383636 
L 447.69374 46.492727 
L 449.404109 115.747273 
L 451.114478 89.110909 
L 452.824847 99.765455 
L 454.535215 142.383636 
L 456.245584 83.783636 
L 457.955953 89.110909 
L 459.666322 137.056364 
L 461.37669 94.438182 
L 463.087059 131.729091 
L 464.797428 57.147273 
L 466.507797 51.82 
L 468.218165 174.347273 
L 469.928534 105.092727 
L 471.638903 121.074545 
L 473.349272 46.492727 
L 475.05964 78.456364 
L 476.770009 73.129091 
L 478.480378 115.747273 
L 480.190747 78.456364 
L 481.901115 169.02 
L 483.611484 99.765455 
L 485.321853 51.82 
L 487.032222 67.801818 
L 488.74259 153.038182 
L 490.452959 67.801818 
L 492.163328 99.765455 
L 493.873697 163.692727 
L 495.584065 105.092727 
L 497.294434 126.401818 
L 499.004803 30.510909 
L 500.715172 78.456364 
L 502.42554 78.456364 
L 504.135909 89.110909 
L 504.135909 89.110909 
" clip-path="url(#p2ec8545a0c)" style="fill: none; stroke: #235996; stroke-width: 0.8; stroke-linecap: square"/>
   </g>
   <g id="patch_7">
    <path d="M 56.96 210.04 
L 56.96 10.8 
" style="fill: none; stroke: #000000; stroke-width: 0.8; stroke-linejoin: miter; stroke-linecap: square"/>
   </g>
   <g id="patch_8">
    <path d="M 525.43 210.04 
L 525.43 10.8 
" style="fill: none; stroke: #000000; stroke-width: 0.8; stroke-linejoin: miter; stroke-linecap: square"/>
   </g>
   <g id="patch_9">
    <path d="M 56.96 210.04 
L 525.43 210.04 
" style="fill: none; stroke: #000000; stroke-width: 0.8; stroke-linejoin: miter; stroke-linecap: square"/>
   </g>
   <g id="patch_10">
    <path d="M 56.96 10.8 
L 525.43 10.8 
" style="fill: none; stroke: #000000; stroke-width: 0.8; stroke-linejoin: miter; stroke-linecap: square"/>
   </g>
   <g id="legend_1">
    <g id="patch_11">
     <path d="M 150.584625 43.4565 
L 431.805375 43.4565 
Q 434.685375 43.4565 434.685375 40.5765 
L 434.685375 20.88 
Q 434.685375 18 431.805375 18 
L 150.584625 18 
Q 147.704625 18 147.704625 20.88 
L 147.704625 40.5765 
Q 147.704625 43.4565 150.584625 43.4565 
z
" style="fill: #ffffff; opacity: 0.8; stroke: #000000; stroke-linejoin: miter"/>
    </g>
    <g id="line2d_24">
     <path d="M 153.464625 29.66175 
L 167.864625 29.66175 
L 182.264625 29.66175 
" style="fill: none; stroke: #99004d; stroke-width: 0.8; stroke-linecap: square"/>
    </g>
    <g id="text_25">
     <text style="font: 14.4px 'DejaVu Sans', 'Bitstream Vera Sans', 'Computer Modern Sans Serif', 'Lucida Grande', 'Verdana', 'Geneva', 'Lucid', 'Arial', 'Helvetica', 'Avant Garde', sans-serif; text-anchor: start" x="193.784625" y="34.70175" transform="rotate(-0 193.784625 34.70175)">power</text>
    </g>
    <g id="line2d_25">
     <path d="M 267.094125 29.66175 
L 281.494125 29.66175 
L 295.894125 29.66175 
" style="fill: none; stroke: #235996; stroke-width: 0.8; stroke-linecap: square"/>
    </g>
    <g id="text_26">
     <text style="font: 14.4px 'DejaVu Sans', 'Bitstream Vera Sans', 'Computer Modern Sans Serif', 'Lucida Grande', 'Verdana', 'Geneva', 'Lucid', 'Arial', 'Helvetica', 'Avant Garde', sans-serif; text-anchor: start" x="307.414125" y="34.70175" transform="rotate(-0 307.414125 34.70175)">hw(rs1)+hw(rs2)</text>
    </g>
   </g>
  </g>
 </g>
 <defs>
  <clipPath id="p2ec8545a0c">
   <rect x="56.96" y="10.8" width="468.47" height="199.24"/>
  </clipPath>
 </defs>
</svg>
