<?xml version="1.0" encoding="utf-8" standalone="no"?>
<!DOCTYPE svg PUBLIC "-//W3C//DTD SVG 1.1//EN"
  "http://www.w3.org/Graphics/SVG/1.1/DTD/svg11.dtd">
<svg xmlns:xlink="http://www.w3.org/1999/xlink" width="576pt" height="252pt" viewBox="0 0 576 252" xmlns="http://www.w3.org/2000/svg" version="1.1">
 <metadata>
  <rdf:RDF xmlns:dc="http://purl.org/dc/elements/1.1/" xmlns:cc="http://creativecommons.org/ns#" xmlns:rdf="http://www.w3.org/1999/02/22-rdf-syntax-ns#">
   <cc:Work>
    <dc:type rdf:resource="http://purl.org/dc/dcmitype/StillImage"/>
    <dc:date>2023-11-26T17:37:03.280774</dc:date>
    <dc:format>image/svg+xml</dc:format>
    <dc:creator>
     <cc:Agent>
      <dc:title>Matplotlib v3.8.2, https://matplotlib.org/</dc:title>
     </cc:Agent>
    </dc:creator>
   </cc:Work>
  </rdf:RDF>
 </metadata>
 <defs>
  <style type="text/css">*{stroke-linejoin: round; stroke-linecap: butt}</style>
 </defs>
 <g id="figure_1">
  <g id="patch_1">
   <path d="M 0 252 
L 576 252 
L 576 0 
L 0 0 
z
" style="fill: #ffffff"/>
  </g>
  <g id="axes_1">
   <g id="patch_2">
    <path d="M 56.87 210.04 
L 525.43 210.04 
L 525.43 10.8 
L 56.87 10.8 
z
" style="fill: #ffffff"/>
   </g>
   <g id="matplotlib.axis_1">
    <g id="xtick_1">
     <g id="line2d_1">
      <defs>
       <path id="mfd9b9c1a49" d="M 0 0 
L 0 3.5 
" style="stroke: #000000; stroke-width: 0.8"/>
      </defs>
      <g>
       <use xlink:href="#mfd9b9c1a49" x="78.168182" y="210.04" style="stroke: #000000; stroke-width: 0.8"/>
      </g>
     </g>
     <g id="text_1">
      <text style="font: 10px 'DejaVu Sans', 'Bitstream Vera Sans', 'Computer Modern Sans Serif', 'Lucida Grande', 'Verdana', 'Geneva', 'Lucid', 'Arial', 'Helvetica', 'Avant Garde', sans-serif; text-anchor: middle" x="78.168182" y="224.638438" transform="rotate(-0 78.168182 224.638438)">0</text>
     </g>
    </g>
    <g id="xtick_2">
     <g id="line2d_2">
      <g>
       <use xlink:href="#mfd9b9c1a49" x="163.703049" y="210.04" style="stroke: #000000; stroke-width: 0.8"/>
      </g>
     </g>
     <g id="text_2">
      <text style="font: 10px 'DejaVu Sans', 'Bitstream Vera Sans', 'Computer Modern Sans Serif', 'Lucida Grande', 'Verdana', 'Geneva', 'Lucid', 'Arial', 'Helvetica', 'Avant Garde', sans-serif; text-anchor: middle" x="163.703049" y="224.638438" transform="rotate(-0 163.703049 224.638438)">50</text>
     </g>
    </g>
    <g id="xtick_3">
     <g id="line2d_3">
      <g>
       <use xlink:href="#mfd9b9c1a49" x="249.237915" y="210.04" style="stroke: #000000; stroke-width: 0.8"/>
      </g>
     </g>
     <g id="text_3">
      <text style="font: 10px 'DejaVu Sans', 'Bitstream Vera Sans', 'Computer Modern Sans Serif', 'Lucida Grande', 'Verdana', 'Geneva', 'Lucid', 'Arial', 'Helvetica', 'Avant Garde', sans-serif; text-anchor: middle" x="249.237915" y="224.638438" transform="rotate(-0 249.237915 224.638438)">100</text>
     </g>
    </g>
    <g id="xtick_4">
     <g id="line2d_4">
      <g>
       <use xlink:href="#mfd9b9c1a49" x="334.772782" y="210.04" style="stroke: #000000; stroke-width: 0.8"/>
      </g>
     </g>
     <g id="text_4">
      <text style="font: 10px 'DejaVu Sans', 'Bitstream Vera Sans', 'Computer Modern Sans Serif', 'Lucida Grande', 'Verdana', 'Geneva', 'Lucid', 'Arial', 'Helvetica', 'Avant Garde', sans-serif; text-anchor: middle" x="334.772782" y="224.638438" transform="rotate(-0 334.772782 224.638438)">150</text>
     </g>
    </g>
    <g id="xtick_5">
     <g id="line2d_5">
      <g>
       <use xlink:href="#mfd9b9c1a49" x="420.307649" y="210.04" style="stroke: #000000; stroke-width: 0.8"/>
      </g>
     </g>
     <g id="text_5">
      <text style="font: 10px 'DejaVu Sans', 'Bitstream Vera Sans', 'Computer Modern Sans Serif', 'Lucida Grande', 'Verdana', 'Geneva', 'Lucid', 'Arial', 'Helvetica', 'Avant Garde', sans-serif; text-anchor: middle" x="420.307649" y="224.638438" transform="rotate(-0 420.307649 224.638438)">200</text>
     </g>
    </g>
    <g id="xtick_6">
     <g id="line2d_6">
      <g>
       <use xlink:href="#mfd9b9c1a49" x="505.842516" y="210.04" style="stroke: #000000; stroke-width: 0.8"/>
      </g>
     </g>
     <g id="text_6">
      <text style="font: 10px 'DejaVu Sans', 'Bitstream Vera Sans', 'Computer Modern Sans Serif', 'Lucida Grande', 'Verdana', 'Geneva', 'Lucid', 'Arial', 'Helvetica', 'Avant Garde', sans-serif; text-anchor: middle" x="505.842516" y="224.638438" transform="rotate(-0 505.842516 224.638438)">250</text>
     </g>
    </g>
    <g id="text_7">
     <text style="font: 10px 'DejaVu Sans', 'Bitstream Vera Sans', 'Computer Modern Sans Serif', 'Lucida Grande', 'Verdana', 'Geneva', 'Lucid', 'Arial', 'Helvetica', 'Avant Garde', sans-serif; text-anchor: middle" x="291.15" y="238.316563" transform="rotate(-0 291.15 238.316563)">Cycles</text>
    </g>
   </g>
   <g id="matplotlib.axis_2">
    <g id="ytick_1">
     <g id="line2d_7">
      <defs>
       <path id="mfde6ab7b81" d="M 0 0 
L -3.5 0 
" style="stroke: #000000; stroke-width: 0.8"/>
      </defs>
      <g>
       <use xlink:href="#mfde6ab7b81" x="56.87" y="208.530606" style="stroke: #000000; stroke-width: 0.8"/>
      </g>
     </g>
     <g id="text_8">
      <text style="font: 10px 'DejaVu Sans', 'Bitstream Vera Sans', 'Computer Modern Sans Serif', 'Lucida Grande', 'Verdana', 'Geneva', 'Lucid', 'Arial', 'Helvetica', 'Avant Garde', sans-serif; text-anchor: end" x="49.87" y="212.329825" transform="rotate(-0 49.87 212.329825)">0</text>
     </g>
    </g>
    <g id="ytick_2">
     <g id="line2d_8">
      <g>
       <use xlink:href="#mfde6ab7b81" x="56.87" y="181.577143" style="stroke: #000000; stroke-width: 0.8"/>
      </g>
     </g>
     <g id="text_9">
      <text style="font: 10px 'DejaVu Sans', 'Bitstream Vera Sans', 'Computer Modern Sans Serif', 'Lucida Grande', 'Verdana', 'Geneva', 'Lucid', 'Arial', 'Helvetica', 'Avant Garde', sans-serif; text-anchor: end" x="49.87" y="185.376362" transform="rotate(-0 49.87 185.376362)">25</text>
     </g>
    </g>
    <g id="ytick_3">
     <g id="line2d_9">
      <g>
       <use xlink:href="#mfde6ab7b81" x="56.87" y="154.62368" style="stroke: #000000; stroke-width: 0.8"/>
      </g>
     </g>
     <g id="text_10">
      <text style="font: 10px 'DejaVu Sans', 'Bitstream Vera Sans', 'Computer Modern Sans Serif', 'Lucida Grande', 'Verdana', 'Geneva', 'Lucid', 'Arial', 'Helvetica', 'Avant Garde', sans-serif; text-anchor: end" x="49.87" y="158.422898" transform="rotate(-0 49.87 158.422898)">50</text>
     </g>
    </g>
    <g id="ytick_4">
     <g id="line2d_10">
      <g>
       <use xlink:href="#mfde6ab7b81" x="56.87" y="127.670216" style="stroke: #000000; stroke-width: 0.8"/>
      </g>
     </g>
     <g id="text_11">
      <text style="font: 10px 'DejaVu Sans', 'Bitstream Vera Sans', 'Computer Modern Sans Serif', 'Lucida Grande', 'Verdana', 'Geneva', 'Lucid', 'Arial', 'Helvetica', 'Avant Garde', sans-serif; text-anchor: end" x="49.87" y="131.469435" transform="rotate(-0 49.87 131.469435)">75</text>
     </g>
    </g>
    <g id="ytick_5">
     <g id="line2d_11">
      <g>
       <use xlink:href="#mfde6ab7b81" x="56.87" y="100.716753" style="stroke: #000000; stroke-width: 0.8"/>
      </g>
     </g>
     <g id="text_12">
      <text style="font: 10px 'DejaVu Sans', 'Bitstream Vera Sans', 'Computer Modern Sans Serif', 'Lucida Grande', 'Verdana', 'Geneva', 'Lucid', 'Arial', 'Helvetica', 'Avant Garde', sans-serif; text-anchor: end" x="49.87" y="104.515972" transform="rotate(-0 49.87 104.515972)">100</text>
     </g>
    </g>
    <g id="ytick_6">
     <g id="line2d_12">
      <g>
       <use xlink:href="#mfde6ab7b81" x="56.87" y="73.76329" style="stroke: #000000; stroke-width: 0.8"/>
      </g>
     </g>
     <g id="text_13">
      <text style="font: 10px 'DejaVu Sans', 'Bitstream Vera Sans', 'Computer Modern Sans Serif', 'Lucida Grande', 'Verdana', 'Geneva', 'Lucid', 'Arial', 'Helvetica', 'Avant Garde', sans-serif; text-anchor: end" x="49.87" y="77.562509" transform="rotate(-0 49.87 77.562509)">125</text>
     </g>
    </g>
    <g id="ytick_7">
     <g id="line2d_13">
      <g>
       <use xlink:href="#mfde6ab7b81" x="56.87" y="46.809827" style="stroke: #000000; stroke-width: 0.8"/>
      </g>
     </g>
     <g id="text_14">
      <text style="font: 10px 'DejaVu Sans', 'Bitstream Vera Sans', 'Computer Modern Sans Serif', 'Lucida Grande', 'Verdana', 'Geneva', 'Lucid', 'Arial', 'Helvetica', 'Avant Garde', sans-serif; text-anchor: end" x="49.87" y="50.609046" transform="rotate(-0 49.87 50.609046)">150</text>
     </g>
    </g>
    <g id="ytick_8">
     <g id="line2d_14">
      <g>
       <use xlink:href="#mfde6ab7b81" x="56.87" y="19.856364" style="stroke: #000000; stroke-width: 0.8"/>
      </g>
     </g>
     <g id="text_15">
      <text style="font: 10px 'DejaVu Sans', 'Bitstream Vera Sans', 'Computer Modern Sans Serif', 'Lucida Grande', 'Verdana', 'Geneva', 'Lucid', 'Arial', 'Helvetica', 'Avant Garde', sans-serif; text-anchor: end" x="49.87" y="23.655582" transform="rotate(-0 49.87 23.655582)">175</text>
     </g>
    </g>
    <g id="text_16">
     <text style="font: 10px 'DejaVu Sans', 'Bitstream Vera Sans', 'Computer Modern Sans Serif', 'Lucida Grande', 'Verdana', 'Geneva', 'Lucid', 'Arial', 'Helvetica', 'Avant Garde', sans-serif; text-anchor: middle" x="18.702813" y="110.42" transform="rotate(-90 18.702813 110.42)">power (uW)</text>
    </g>
   </g>
   <g id="line2d_15">
    <path d="M 78.168182 56.513074 
L 79.878879 80.232121 
L 81.589576 60.825628 
L 83.300274 47.887965 
L 85.010971 94.247922 
L 86.721668 44.65355 
L 88.432366 126.592078 
L 90.143063 70.528874 
L 91.85376 42.497273 
L 93.564458 79.153983 
L 95.275155 48.966104 
L 96.985853 57.591212 
L 98.69655 62.981905 
L 100.407247 43.575411 
L 102.117945 89.935368 
L 103.828642 79.153983 
L 105.539339 65.138182 
L 107.250037 105.029307 
L 108.960734 64.060043 
L 110.671431 86.700952 
L 112.382129 80.232121 
L 114.092826 102.87303 
L 115.803523 98.560476 
L 117.514221 74.841429 
L 119.224918 86.700952 
L 120.935615 57.591212 
L 122.646313 103.951169 
L 124.35701 162.170649 
L 126.067707 87.779091 
L 127.778405 200.983636 
L 129.489102 111.498139 
L 131.199799 70.528874 
L 132.910497 87.779091 
L 134.621194 61.903766 
L 136.331891 59.747489 
L 138.042589 47.887965 
L 139.753286 85.622814 
L 141.463983 81.31026 
L 143.174681 71.607013 
L 144.885378 56.513074 
L 146.596075 94.247922 
L 148.306773 73.76329 
L 150.01747 66.21632 
L 151.728167 64.060043 
L 153.438865 111.498139 
L 155.149562 114.732554 
L 156.860259 56.513074 
L 158.570957 82.388398 
L 160.281654 60.825628 
L 161.992351 112.576277 
L 163.703049 58.669351 
L 165.413746 60.825628 
L 167.124443 30.637749 
L 168.835141 79.153983 
L 170.545838 111.498139 
L 172.256535 114.732554 
L 173.967233 84.544675 
L 175.67793 75.919567 
L 177.388627 74.841429 
L 179.099325 125.513939 
L 180.810022 53.278658 
L 182.520719 100.716753 
L 184.231417 53.278658 
L 185.942114 54.356797 
L 187.652811 82.388398 
L 189.363509 83.466537 
L 191.074206 78.075844 
L 192.784903 92.091645 
L 194.495601 71.607013 
L 196.206298 101.794892 
L 197.916995 58.669351 
L 199.627693 73.76329 
L 201.33839 81.31026 
L 203.049087 56.513074 
L 204.759785 95.326061 
L 206.470482 71.607013 
L 208.181179 67.294459 
L 209.891877 51.122381 
L 211.602574 59.747489 
L 213.313271 109.341861 
L 215.023969 83.466537 
L 216.734666 75.919567 
L 218.445363 119.045108 
L 220.156061 64.060043 
L 221.866758 45.731688 
L 223.577455 88.857229 
L 225.288153 102.87303 
L 226.99885 84.544675 
L 228.709547 34.950303 
L 230.420245 106.107446 
L 232.130942 99.638615 
L 233.841639 76.997706 
L 235.552337 84.544675 
L 237.263034 91.013506 
L 238.973731 105.029307 
L 240.684429 61.903766 
L 242.395126 98.560476 
L 244.105823 58.669351 
L 245.816521 54.356797 
L 247.527218 52.200519 
L 249.237915 167.561342 
L 250.948613 75.919567 
L 252.65931 39.262857 
L 254.370007 59.747489 
L 256.080705 82.388398 
L 257.791402 30.637749 
L 259.502099 42.497273 
L 261.212797 75.919567 
L 262.923494 40.340996 
L 264.634191 84.544675 
L 266.344889 121.201385 
L 268.055586 68.372597 
L 269.766283 87.779091 
L 271.476981 64.060043 
L 273.187678 79.153983 
L 274.898375 69.450736 
L 276.609073 50.044242 
L 278.31977 116.888831 
L 280.030467 48.966104 
L 281.741165 64.060043 
L 283.451862 42.497273 
L 285.162559 54.356797 
L 286.873257 97.482338 
L 288.583954 92.091645 
L 290.294651 135.217186 
L 292.005349 61.903766 
L 293.716046 72.685152 
L 295.426743 110.42 
L 297.137441 57.591212 
L 298.848138 76.997706 
L 300.558835 91.013506 
L 302.269533 100.716753 
L 303.98023 144.920433 
L 305.690927 82.388398 
L 307.401625 61.903766 
L 309.112322 54.356797 
L 310.823019 80.232121 
L 312.533717 34.950303 
L 315.955111 106.107446 
L 317.665809 70.528874 
L 319.376506 65.138182 
L 321.087203 52.200519 
L 322.797901 93.169784 
L 324.508598 71.607013 
L 326.219295 86.700952 
L 327.929993 61.903766 
L 329.64069 61.903766 
L 331.351387 73.76329 
L 333.062085 51.122381 
L 334.772782 67.294459 
L 336.483479 74.841429 
L 338.194177 68.372597 
L 339.904874 145.998571 
L 341.615571 56.513074 
L 343.326269 93.169784 
L 345.036966 84.544675 
L 346.747663 198.827359 
L 348.458361 85.622814 
L 350.169058 30.637749 
L 351.879755 72.685152 
L 353.590453 67.294459 
L 355.30115 112.576277 
L 357.011847 75.919567 
L 358.722545 101.794892 
L 360.433242 55.434935 
L 362.143939 19.856364 
L 363.854637 75.919567 
L 365.565334 87.779091 
L 367.276031 91.013506 
L 368.986729 66.21632 
L 370.697426 112.576277 
L 372.408123 42.497273 
L 374.118821 71.607013 
L 375.829518 91.013506 
L 377.540215 86.700952 
L 379.250913 111.498139 
L 380.96161 78.075844 
L 382.672307 65.138182 
L 384.383005 79.153983 
L 386.093702 69.450736 
L 387.804399 89.935368 
L 389.515097 198.827359 
L 391.225794 50.044242 
L 392.936491 103.951169 
L 394.647189 33.872165 
L 396.357886 60.825628 
L 398.068583 112.576277 
L 399.779281 58.669351 
L 401.489978 70.528874 
L 403.200675 60.825628 
L 404.911373 44.65355 
L 406.62207 66.21632 
L 408.332767 54.356797 
L 410.043465 57.591212 
L 411.754162 59.747489 
L 413.464859 78.075844 
L 415.175557 27.403333 
L 416.886254 86.700952 
L 418.596951 69.450736 
L 420.307649 70.528874 
L 422.018346 55.434935 
L 423.729043 115.810693 
L 425.439741 123.357662 
L 427.150438 54.356797 
L 428.861135 76.997706 
L 430.571833 71.607013 
L 432.28253 107.185584 
L 433.993227 94.247922 
L 435.703925 85.622814 
L 437.414622 64.060043 
L 439.125319 143.842294 
L 440.836017 103.951169 
L 442.546714 85.622814 
L 444.257411 55.434935 
L 445.968109 89.935368 
L 447.678806 106.107446 
L 449.389503 89.935368 
L 451.100201 82.388398 
L 452.810898 56.513074 
L 454.521595 84.544675 
L 456.232293 71.607013 
L 457.94299 75.919567 
L 459.653687 134.139048 
L 461.364385 65.138182 
L 463.075082 76.997706 
L 464.785779 65.138182 
L 466.496477 46.809827 
L 468.207174 41.419134 
L 469.917871 112.576277 
L 471.628569 52.200519 
L 473.339266 56.513074 
L 475.049963 97.482338 
L 476.760661 113.654416 
L 478.471358 74.841429 
L 480.182055 60.825628 
L 481.892753 69.450736 
L 483.60345 111.498139 
L 485.314147 92.091645 
L 487.024845 65.138182 
L 488.735542 60.825628 
L 490.44624 72.685152 
L 492.156937 53.278658 
L 493.867634 85.622814 
L 495.578332 72.685152 
L 497.289029 36.028442 
L 500.710424 103.951169 
L 502.421121 75.919567 
L 504.131818 38.184719 
L 504.131818 38.184719 
" clip-path="url(#pe4d21d7a44)" style="fill: none; stroke: #99004d; stroke-width: 0.8; stroke-linecap: square"/>
   </g>
   <g id="patch_3">
    <path d="M 56.87 210.04 
L 56.87 10.8 
" style="fill: none; stroke: #000000; stroke-width: 0.8; stroke-linejoin: miter; stroke-linecap: square"/>
   </g>
   <g id="patch_4">
    <path d="M 525.43 210.04 
L 525.43 10.8 
" style="fill: none; stroke: #000000; stroke-width: 0.8; stroke-linejoin: miter; stroke-linecap: square"/>
   </g>
   <g id="patch_5">
    <path d="M 56.87 210.04 
L 525.43 210.04 
" style="fill: none; stroke: #000000; stroke-width: 0.8; stroke-linejoin: miter; stroke-linecap: square"/>
   </g>
   <g id="patch_6">
    <path d="M 56.87 10.8 
L 525.43 10.8 
" style="fill: none; stroke: #000000; stroke-width: 0.8; stroke-linejoin: miter; stroke-linecap: square"/>
   </g>
  </g>
  <g id="axes_2">
   <g id="matplotlib.axis_3">
    <g id="ytick_9">
     <g id="line2d_16">
      <defs>
       <path id="m1af7cd91f7" d="M 0 0 
L 3.5 0 
" style="stroke: #000000; stroke-width: 0.8"/>
      </defs>
      <g>
       <use xlink:href="#m1af7cd91f7" x="525.43" y="200.983636" style="stroke: #000000; stroke-width: 0.8"/>
      </g>
     </g>
     <g id="text_17">
      <text style="font: 10px 'DejaVu Sans', 'Bitstream Vera Sans', 'Computer Modern Sans Serif', 'Lucida Grande', 'Verdana', 'Geneva', 'Lucid', 'Arial', 'Helvetica', 'Avant Garde', sans-serif; text-anchor: start" x="532.43" y="204.782855" transform="rotate(-0 532.43 204.782855)">0</text>
     </g>
    </g>
    <g id="ytick_10">
     <g id="line2d_17">
      <g>
       <use xlink:href="#m1af7cd91f7" x="525.43" y="175.108312" style="stroke: #000000; stroke-width: 0.8"/>
      </g>
     </g>
     <g id="text_18">
      <text style="font: 10px 'DejaVu Sans', 'Bitstream Vera Sans', 'Computer Modern Sans Serif', 'Lucida Grande', 'Verdana', 'Geneva', 'Lucid', 'Arial', 'Helvetica', 'Avant Garde', sans-serif; text-anchor: start" x="532.43" y="178.90753" transform="rotate(-0 532.43 178.90753)">5</text>
     </g>
    </g>
    <g id="ytick_11">
     <g id="line2d_18">
      <g>
       <use xlink:href="#m1af7cd91f7" x="525.43" y="149.232987" style="stroke: #000000; stroke-width: 0.8"/>
      </g>
     </g>
     <g id="text_19">
      <text style="font: 10px 'DejaVu Sans', 'Bitstream Vera Sans', 'Computer Modern Sans Serif', 'Lucida Grande', 'Verdana', 'Geneva', 'Lucid', 'Arial', 'Helvetica', 'Avant Garde', sans-serif; text-anchor: start" x="532.43" y="153.032206" transform="rotate(-0 532.43 153.032206)">10</text>
     </g>
    </g>
    <g id="ytick_12">
     <g id="line2d_19">
      <g>
       <use xlink:href="#m1af7cd91f7" x="525.43" y="123.357662" style="stroke: #000000; stroke-width: 0.8"/>
      </g>
     </g>
     <g id="text_20">
      <text style="font: 10px 'DejaVu Sans', 'Bitstream Vera Sans', 'Computer Modern Sans Serif', 'Lucida Grande', 'Verdana', 'Geneva', 'Lucid', 'Arial', 'Helvetica', 'Avant Garde', sans-serif; text-anchor: start" x="532.43" y="127.156881" transform="rotate(-0 532.43 127.156881)">15</text>
     </g>
    </g>
    <g id="ytick_13">
     <g id="line2d_20">
      <g>
       <use xlink:href="#m1af7cd91f7" x="525.43" y="97.482338" style="stroke: #000000; stroke-width: 0.8"/>
      </g>
     </g>
     <g id="text_21">
      <text style="font: 10px 'DejaVu Sans', 'Bitstream Vera Sans', 'Computer Modern Sans Serif', 'Lucida Grande', 'Verdana', 'Geneva', 'Lucid', 'Arial', 'Helvetica', 'Avant Garde', sans-serif; text-anchor: start" x="532.43" y="101.281556" transform="rotate(-0 532.43 101.281556)">20</text>
     </g>
    </g>
    <g id="ytick_14">
     <g id="line2d_21">
      <g>
       <use xlink:href="#m1af7cd91f7" x="525.43" y="71.607013" style="stroke: #000000; stroke-width: 0.8"/>
      </g>
     </g>
     <g id="text_22">
      <text style="font: 10px 'DejaVu Sans', 'Bitstream Vera Sans', 'Computer Modern Sans Serif', 'Lucida Grande', 'Verdana', 'Geneva', 'Lucid', 'Arial', 'Helvetica', 'Avant Garde', sans-serif; text-anchor: start" x="532.43" y="75.406232" transform="rotate(-0 532.43 75.406232)">25</text>
     </g>
    </g>
    <g id="ytick_15">
     <g id="line2d_22">
      <g>
       <use xlink:href="#m1af7cd91f7" x="525.43" y="45.731688" style="stroke: #000000; stroke-width: 0.8"/>
      </g>
     </g>
     <g id="text_23">
      <text style="font: 10px 'DejaVu Sans', 'Bitstream Vera Sans', 'Computer Modern Sans Serif', 'Lucida Grande', 'Verdana', 'Geneva', 'Lucid', 'Arial', 'Helvetica', 'Avant Garde', sans-serif; text-anchor: start" x="532.43" y="49.530907" transform="rotate(-0 532.43 49.530907)">30</text>
     </g>
    </g>
    <g id="ytick_16">
     <g id="line2d_23">
      <g>
       <use xlink:href="#m1af7cd91f7" x="525.43" y="19.856364" style="stroke: #000000; stroke-width: 0.8"/>
      </g>
     </g>
     <g id="text_24">
      <text style="font: 10px 'DejaVu Sans', 'Bitstream Vera Sans', 'Computer Modern Sans Serif', 'Lucida Grande', 'Verdana', 'Geneva', 'Lucid', 'Arial', 'Helvetica', 'Avant Garde', sans-serif; text-anchor: start" x="532.43" y="23.655582" transform="rotate(-0 532.43 23.655582)">35</text>
     </g>
    </g>
    <g id="text_25">
     <text style="font: 10px 'DejaVu Sans', 'Bitstream Vera Sans', 'Computer Modern Sans Serif', 'Lucida Grande', 'Verdana', 'Geneva', 'Lucid', 'Arial', 'Helvetica', 'Avant Garde', sans-serif; text-anchor: middle" x="562.753438" y="110.42" transform="rotate(-90 562.753438 110.42)">hw(data)</text>
    </g>
   </g>
   <g id="line2d_24">
    <path d="M 78.168182 50.906753 
L 79.878879 113.007532 
L 81.589576 76.782078 
L 83.300274 56.081818 
L 85.010971 102.657403 
L 86.721668 71.607013 
L 88.432366 149.232987 
L 90.143063 61.256883 
L 91.85376 30.206494 
L 93.564458 61.256883 
L 95.275155 45.731688 
L 96.985853 40.556623 
L 98.69655 81.957143 
L 100.407247 45.731688 
L 102.117945 144.057922 
L 103.828642 50.906753 
L 107.250037 113.007532 
L 108.960734 56.081818 
L 110.671431 107.832468 
L 112.382129 76.782078 
L 114.092826 154.408052 
L 115.803523 97.482338 
L 117.514221 66.431948 
L 119.224918 107.832468 
L 120.935615 76.782078 
L 122.646313 159.583117 
L 124.35701 175.108312 
L 126.067707 97.482338 
L 127.778405 200.983636 
L 129.489102 164.758182 
L 131.199799 81.957143 
L 132.910497 97.482338 
L 134.621194 76.782078 
L 136.331891 76.782078 
L 138.042589 87.132208 
L 139.753286 113.007532 
L 141.463983 92.307273 
L 143.174681 92.307273 
L 144.885378 66.431948 
L 146.596075 118.182597 
L 148.306773 50.906753 
L 150.01747 56.081818 
L 151.728167 76.782078 
L 153.438865 128.532727 
L 155.149562 159.583117 
L 156.860259 45.731688 
L 158.570957 169.933247 
L 160.281654 81.957143 
L 161.992351 159.583117 
L 163.703049 40.556623 
L 165.413746 61.256883 
L 167.124443 61.256883 
L 168.835141 123.357662 
L 170.545838 154.408052 
L 172.256535 138.882857 
L 173.967233 92.307273 
L 177.388627 71.607013 
L 179.099325 185.458442 
L 180.810022 81.957143 
L 182.520719 118.182597 
L 184.231417 35.381558 
L 187.652811 107.832468 
L 189.363509 138.882857 
L 191.074206 97.482338 
L 192.784903 123.357662 
L 194.495601 81.957143 
L 196.206298 138.882857 
L 197.916995 45.731688 
L 199.627693 102.657403 
L 201.33839 113.007532 
L 203.049087 56.081818 
L 204.759785 123.357662 
L 206.470482 118.182597 
L 208.181179 66.431948 
L 209.891877 61.256883 
L 211.602574 102.657403 
L 213.313271 128.532727 
L 215.023969 66.431948 
L 216.734666 144.057922 
L 218.445363 144.057922 
L 220.156061 71.607013 
L 221.866758 40.556623 
L 223.577455 102.657403 
L 225.288153 154.408052 
L 226.99885 71.607013 
L 228.709547 50.906753 
L 230.420245 123.357662 
L 232.130942 123.357662 
L 233.841639 102.657403 
L 235.552337 87.132208 
L 237.263034 92.307273 
L 238.973731 185.458442 
L 240.684429 102.657403 
L 242.395126 138.882857 
L 244.105823 76.782078 
L 245.816521 50.906753 
L 247.527218 61.256883 
L 249.237915 175.108312 
L 250.948613 71.607013 
L 252.65931 61.256883 
L 254.370007 81.957143 
L 256.080705 87.132208 
L 257.791402 35.381558 
L 259.502099 25.031429 
L 261.212797 92.307273 
L 262.923494 35.381558 
L 264.634191 66.431948 
L 266.344889 159.583117 
L 268.055586 92.307273 
L 269.766283 87.132208 
L 271.476981 76.782078 
L 273.187678 107.832468 
L 274.898375 92.307273 
L 276.609073 81.957143 
L 278.31977 159.583117 
L 280.030467 66.431948 
L 281.741165 71.607013 
L 283.451862 19.856364 
L 285.162559 45.731688 
L 286.873257 123.357662 
L 288.583954 128.532727 
L 290.294651 154.408052 
L 292.005349 71.607013 
L 293.716046 102.657403 
L 295.426743 128.532727 
L 297.137441 71.607013 
L 298.848138 118.182597 
L 300.558835 113.007532 
L 302.269533 97.482338 
L 303.98023 175.108312 
L 305.690927 113.007532 
L 307.401625 56.081818 
L 309.112322 92.307273 
L 310.823019 97.482338 
L 312.533717 30.206494 
L 314.244414 87.132208 
L 315.955111 128.532727 
L 317.665809 87.132208 
L 319.376506 81.957143 
L 321.087203 71.607013 
L 322.797901 123.357662 
L 324.508598 107.832468 
L 326.219295 107.832468 
L 329.64069 45.731688 
L 331.351387 71.607013 
L 333.062085 45.731688 
L 334.772782 66.431948 
L 336.483479 102.657403 
L 338.194177 45.731688 
L 339.904874 123.357662 
L 341.615571 76.782078 
L 343.326269 102.657403 
L 345.036966 107.832468 
L 346.747663 195.808571 
L 348.458361 92.307273 
L 350.169058 30.206494 
L 351.879755 92.307273 
L 353.590453 113.007532 
L 355.30115 123.357662 
L 357.011847 97.482338 
L 358.722545 144.057922 
L 360.433242 56.081818 
L 362.143939 45.731688 
L 363.854637 97.482338 
L 365.565334 113.007532 
L 367.276031 92.307273 
L 368.986729 66.431948 
L 370.697426 102.657403 
L 372.408123 40.556623 
L 375.829518 154.408052 
L 377.540215 107.832468 
L 379.250913 133.707792 
L 380.96161 92.307273 
L 382.672307 66.431948 
L 384.383005 97.482338 
L 386.093702 71.607013 
L 387.804399 113.007532 
L 389.515097 195.808571 
L 391.225794 71.607013 
L 392.936491 128.532727 
L 394.647189 45.731688 
L 396.357886 50.906753 
L 398.068583 138.882857 
L 399.779281 87.132208 
L 401.489978 66.431948 
L 403.200675 107.832468 
L 404.911373 45.731688 
L 406.62207 45.731688 
L 408.332767 30.206494 
L 410.043465 45.731688 
L 411.754162 40.556623 
L 413.464859 76.782078 
L 415.175557 25.031429 
L 416.886254 107.832468 
L 418.596951 61.256883 
L 420.307649 71.607013 
L 422.018346 30.206494 
L 423.729043 144.057922 
L 425.439741 149.232987 
L 427.150438 40.556623 
L 428.861135 71.607013 
L 430.571833 92.307273 
L 432.28253 144.057922 
L 433.993227 113.007532 
L 435.703925 113.007532 
L 437.414622 71.607013 
L 439.125319 175.108312 
L 440.836017 144.057922 
L 442.546714 56.081818 
L 444.257411 87.132208 
L 445.968109 102.657403 
L 447.678806 133.707792 
L 449.389503 81.957143 
L 451.100201 81.957143 
L 452.810898 40.556623 
L 454.521595 97.482338 
L 456.232293 97.482338 
L 457.94299 71.607013 
L 459.653687 149.232987 
L 461.364385 56.081818 
L 463.075082 107.832468 
L 464.785779 92.307273 
L 466.496477 50.906753 
L 468.207174 45.731688 
L 469.917871 138.882857 
L 471.628569 50.906753 
L 473.339266 50.906753 
L 475.049963 118.182597 
L 476.760661 133.707792 
L 478.471358 81.957143 
L 480.182055 102.657403 
L 481.892753 97.482338 
L 483.60345 133.707792 
L 485.314147 97.482338 
L 487.024845 56.081818 
L 488.735542 81.957143 
L 490.44624 102.657403 
L 492.156937 56.081818 
L 493.867634 61.256883 
L 495.578332 118.182597 
L 497.289029 50.906753 
L 498.999726 113.007532 
L 500.710424 144.057922 
L 502.421121 76.782078 
L 504.131818 50.906753 
L 504.131818 50.906753 
" clip-path="url(#pe4d21d7a44)" style="fill: none; stroke: #235996; stroke-width: 0.8; stroke-linecap: square"/>
   </g>
   <g id="patch_7">
    <path d="M 56.87 210.04 
L 56.87 10.8 
" style="fill: none; stroke: #000000; stroke-width: 0.8; stroke-linejoin: miter; stroke-linecap: square"/>
   </g>
   <g id="patch_8">
    <path d="M 525.43 210.04 
L 525.43 10.8 
" style="fill: none; stroke: #000000; stroke-width: 0.8; stroke-linejoin: miter; stroke-linecap: square"/>
   </g>
   <g id="patch_9">
    <path d="M 56.87 210.04 
L 525.43 210.04 
" style="fill: none; stroke: #000000; stroke-width: 0.8; stroke-linejoin: miter; stroke-linecap: square"/>
   </g>
   <g id="patch_10">
    <path d="M 56.87 10.8 
L 525.43 10.8 
" style="fill: none; stroke: #000000; stroke-width: 0.8; stroke-linejoin: miter; stroke-linecap: square"/>
   </g>
   <g id="legend_1">
    <g id="patch_11">
     <path d="M 150.539625 43.4565 
L 431.760375 43.4565 
Q 434.640375 43.4565 434.640375 40.5765 
L 434.640375 20.88 
Q 434.640375 18 431.760375 18 
L 150.539625 18 
Q 147.659625 18 147.659625 20.88 
L 147.659625 40.5765 
Q 147.659625 43.4565 150.539625 43.4565 
z
" style="fill: #ffffff; opacity: 0.8; stroke: #000000; stroke-linejoin: miter"/>
    </g>
    <g id="line2d_25">
     <path d="M 153.419625 29.66175 
L 167.819625 29.66175 
L 182.219625 29.66175 
" style="fill: none; stroke: #99004d; stroke-width: 0.8; stroke-linecap: square"/>
    </g>
    <g id="text_26">
     <text style="font: 14.4px 'DejaVu Sans', 'Bitstream Vera Sans', 'Computer Modern Sans Serif', 'Lucida Grande', 'Verdana', 'Geneva', 'Lucid', 'Arial', 'Helvetica', 'Avant Garde', sans-serif; text-anchor: start" x="193.739625" y="34.70175" transform="rotate(-0 193.739625 34.70175)">power</text>
    </g>
    <g id="line2d_26">
     <path d="M 267.049125 29.66175 
L 281.449125 29.66175 
L 295.849125 29.66175 
" style="fill: none; stroke: #235996; stroke-width: 0.8; stroke-linecap: square"/>
    </g>
    <g id="text_27">
     <text style="font: 14.4px 'DejaVu Sans', 'Bitstream Vera Sans', 'Computer Modern Sans Serif', 'Lucida Grande', 'Verdana', 'Geneva', 'Lucid', 'Arial', 'Helvetica', 'Avant Garde', sans-serif; text-anchor: start" x="307.369125" y="34.70175" transform="rotate(-0 307.369125 34.70175)">hw(rs1)+hw(rs2)</text>
    </g>
   </g>
  </g>
 </g>
 <defs>
  <clipPath id="pe4d21d7a44">
   <rect x="56.87" y="10.8" width="468.56" height="199.24"/>
  </clipPath>
 </defs>
</svg>
