<?xml version="1.0" encoding="utf-8" standalone="no"?>
<!DOCTYPE svg PUBLIC "-//W3C//DTD SVG 1.1//EN"
  "http://www.w3.org/Graphics/SVG/1.1/DTD/svg11.dtd">
<svg xmlns:xlink="http://www.w3.org/1999/xlink" width="576pt" height="252pt" viewBox="0 0 576 252" xmlns="http://www.w3.org/2000/svg" version="1.1">
 <metadata>
  <rdf:RDF xmlns:dc="http://purl.org/dc/elements/1.1/" xmlns:cc="http://creativecommons.org/ns#" xmlns:rdf="http://www.w3.org/1999/02/22-rdf-syntax-ns#">
   <cc:Work>
    <dc:type rdf:resource="http://purl.org/dc/dcmitype/StillImage"/>
    <dc:date>2023-12-06T21:04:26.688179</dc:date>
    <dc:format>image/svg+xml</dc:format>
    <dc:creator>
     <cc:Agent>
      <dc:title>Matplotlib v3.7.4, https://matplotlib.org/</dc:title>
     </cc:Agent>
    </dc:creator>
   </cc:Work>
  </rdf:RDF>
 </metadata>
 <defs>
  <style type="text/css">*{stroke-linejoin: round; stroke-linecap: butt}</style>
 </defs>
 <g id="figure_1">
  <g id="patch_1">
   <path d="M 0 252 
L 576 252 
L 576 0 
L 0 0 
z
" style="fill: #ffffff"/>
  </g>
  <g id="axes_1">
   <g id="patch_2">
    <path d="M 56.87 210.04 
L 525.43 210.04 
L 525.43 10.8 
L 56.87 10.8 
z
" style="fill: #ffffff"/>
   </g>
   <g id="matplotlib.axis_1">
    <g id="xtick_1">
     <g id="line2d_1">
      <defs>
       <path id="m8ede813145" d="M 0 0 
L 0 3.5 
" style="stroke: #000000; stroke-width: 0.8"/>
      </defs>
      <g>
       <use xlink:href="#m8ede813145" x="78.168182" y="210.04" style="stroke: #000000; stroke-width: 0.8"/>
      </g>
     </g>
     <g id="text_1">
      <text style="font: 10px 'DejaVu Sans', 'Bitstream Vera Sans', 'Computer Modern Sans Serif', 'Lucida Grande', 'Verdana', 'Geneva', 'Lucid', 'Arial', 'Helvetica', 'Avant Garde', sans-serif; text-anchor: middle" x="78.168182" y="224.638438" transform="rotate(-0 78.168182 224.638438)">0</text>
     </g>
    </g>
    <g id="xtick_2">
     <g id="line2d_2">
      <g>
       <use xlink:href="#m8ede813145" x="163.703049" y="210.04" style="stroke: #000000; stroke-width: 0.8"/>
      </g>
     </g>
     <g id="text_2">
      <text style="font: 10px 'DejaVu Sans', 'Bitstream Vera Sans', 'Computer Modern Sans Serif', 'Lucida Grande', 'Verdana', 'Geneva', 'Lucid', 'Arial', 'Helvetica', 'Avant Garde', sans-serif; text-anchor: middle" x="163.703049" y="224.638438" transform="rotate(-0 163.703049 224.638438)">50</text>
     </g>
    </g>
    <g id="xtick_3">
     <g id="line2d_3">
      <g>
       <use xlink:href="#m8ede813145" x="249.237915" y="210.04" style="stroke: #000000; stroke-width: 0.8"/>
      </g>
     </g>
     <g id="text_3">
      <text style="font: 10px 'DejaVu Sans', 'Bitstream Vera Sans', 'Computer Modern Sans Serif', 'Lucida Grande', 'Verdana', 'Geneva', 'Lucid', 'Arial', 'Helvetica', 'Avant Garde', sans-serif; text-anchor: middle" x="249.237915" y="224.638438" transform="rotate(-0 249.237915 224.638438)">100</text>
     </g>
    </g>
    <g id="xtick_4">
     <g id="line2d_4">
      <g>
       <use xlink:href="#m8ede813145" x="334.772782" y="210.04" style="stroke: #000000; stroke-width: 0.8"/>
      </g>
     </g>
     <g id="text_4">
      <text style="font: 10px 'DejaVu Sans', 'Bitstream Vera Sans', 'Computer Modern Sans Serif', 'Lucida Grande', 'Verdana', 'Geneva', 'Lucid', 'Arial', 'Helvetica', 'Avant Garde', sans-serif; text-anchor: middle" x="334.772782" y="224.638438" transform="rotate(-0 334.772782 224.638438)">150</text>
     </g>
    </g>
    <g id="xtick_5">
     <g id="line2d_5">
      <g>
       <use xlink:href="#m8ede813145" x="420.307649" y="210.04" style="stroke: #000000; stroke-width: 0.8"/>
      </g>
     </g>
     <g id="text_5">
      <text style="font: 10px 'DejaVu Sans', 'Bitstream Vera Sans', 'Computer Modern Sans Serif', 'Lucida Grande', 'Verdana', 'Geneva', 'Lucid', 'Arial', 'Helvetica', 'Avant Garde', sans-serif; text-anchor: middle" x="420.307649" y="224.638438" transform="rotate(-0 420.307649 224.638438)">200</text>
     </g>
    </g>
    <g id="xtick_6">
     <g id="line2d_6">
      <g>
       <use xlink:href="#m8ede813145" x="505.842516" y="210.04" style="stroke: #000000; stroke-width: 0.8"/>
      </g>
     </g>
     <g id="text_6">
      <text style="font: 10px 'DejaVu Sans', 'Bitstream Vera Sans', 'Computer Modern Sans Serif', 'Lucida Grande', 'Verdana', 'Geneva', 'Lucid', 'Arial', 'Helvetica', 'Avant Garde', sans-serif; text-anchor: middle" x="505.842516" y="224.638438" transform="rotate(-0 505.842516 224.638438)">250</text>
     </g>
    </g>
    <g id="text_7">
     <text style="font: 10px 'DejaVu Sans', 'Bitstream Vera Sans', 'Computer Modern Sans Serif', 'Lucida Grande', 'Verdana', 'Geneva', 'Lucid', 'Arial', 'Helvetica', 'Avant Garde', sans-serif; text-anchor: middle" x="291.15" y="238.316563" transform="rotate(-0 291.15 238.316563)">Cycles</text>
    </g>
   </g>
   <g id="matplotlib.axis_2">
    <g id="ytick_1">
     <g id="line2d_7">
      <defs>
       <path id="meb127ed722" d="M 0 0 
L -3.5 0 
" style="stroke: #000000; stroke-width: 0.8"/>
      </defs>
      <g>
       <use xlink:href="#meb127ed722" x="56.87" y="184.231981" style="stroke: #000000; stroke-width: 0.8"/>
      </g>
     </g>
     <g id="text_8">
      <text style="font: 10px 'DejaVu Sans', 'Bitstream Vera Sans', 'Computer Modern Sans Serif', 'Lucida Grande', 'Verdana', 'Geneva', 'Lucid', 'Arial', 'Helvetica', 'Avant Garde', sans-serif; text-anchor: end" x="49.87" y="188.0312" transform="rotate(-0 49.87 188.0312)">25</text>
     </g>
    </g>
    <g id="ytick_2">
     <g id="line2d_8">
      <g>
       <use xlink:href="#meb127ed722" x="56.87" y="158.05752" style="stroke: #000000; stroke-width: 0.8"/>
      </g>
     </g>
     <g id="text_9">
      <text style="font: 10px 'DejaVu Sans', 'Bitstream Vera Sans', 'Computer Modern Sans Serif', 'Lucida Grande', 'Verdana', 'Geneva', 'Lucid', 'Arial', 'Helvetica', 'Avant Garde', sans-serif; text-anchor: end" x="49.87" y="161.856738" transform="rotate(-0 49.87 161.856738)">50</text>
     </g>
    </g>
    <g id="ytick_3">
     <g id="line2d_9">
      <g>
       <use xlink:href="#meb127ed722" x="56.87" y="131.883058" style="stroke: #000000; stroke-width: 0.8"/>
      </g>
     </g>
     <g id="text_10">
      <text style="font: 10px 'DejaVu Sans', 'Bitstream Vera Sans', 'Computer Modern Sans Serif', 'Lucida Grande', 'Verdana', 'Geneva', 'Lucid', 'Arial', 'Helvetica', 'Avant Garde', sans-serif; text-anchor: end" x="49.87" y="135.682277" transform="rotate(-0 49.87 135.682277)">75</text>
     </g>
    </g>
    <g id="ytick_4">
     <g id="line2d_10">
      <g>
       <use xlink:href="#meb127ed722" x="56.87" y="105.708597" style="stroke: #000000; stroke-width: 0.8"/>
      </g>
     </g>
     <g id="text_11">
      <text style="font: 10px 'DejaVu Sans', 'Bitstream Vera Sans', 'Computer Modern Sans Serif', 'Lucida Grande', 'Verdana', 'Geneva', 'Lucid', 'Arial', 'Helvetica', 'Avant Garde', sans-serif; text-anchor: end" x="49.87" y="109.507816" transform="rotate(-0 49.87 109.507816)">100</text>
     </g>
    </g>
    <g id="ytick_5">
     <g id="line2d_11">
      <g>
       <use xlink:href="#meb127ed722" x="56.87" y="79.534136" style="stroke: #000000; stroke-width: 0.8"/>
      </g>
     </g>
     <g id="text_12">
      <text style="font: 10px 'DejaVu Sans', 'Bitstream Vera Sans', 'Computer Modern Sans Serif', 'Lucida Grande', 'Verdana', 'Geneva', 'Lucid', 'Arial', 'Helvetica', 'Avant Garde', sans-serif; text-anchor: end" x="49.87" y="83.333354" transform="rotate(-0 49.87 83.333354)">125</text>
     </g>
    </g>
    <g id="ytick_6">
     <g id="line2d_12">
      <g>
       <use xlink:href="#meb127ed722" x="56.87" y="53.359674" style="stroke: #000000; stroke-width: 0.8"/>
      </g>
     </g>
     <g id="text_13">
      <text style="font: 10px 'DejaVu Sans', 'Bitstream Vera Sans', 'Computer Modern Sans Serif', 'Lucida Grande', 'Verdana', 'Geneva', 'Lucid', 'Arial', 'Helvetica', 'Avant Garde', sans-serif; text-anchor: end" x="49.87" y="57.158893" transform="rotate(-0 49.87 57.158893)">150</text>
     </g>
    </g>
    <g id="ytick_7">
     <g id="line2d_13">
      <g>
       <use xlink:href="#meb127ed722" x="56.87" y="27.185213" style="stroke: #000000; stroke-width: 0.8"/>
      </g>
     </g>
     <g id="text_14">
      <text style="font: 10px 'DejaVu Sans', 'Bitstream Vera Sans', 'Computer Modern Sans Serif', 'Lucida Grande', 'Verdana', 'Geneva', 'Lucid', 'Arial', 'Helvetica', 'Avant Garde', sans-serif; text-anchor: end" x="49.87" y="30.984432" transform="rotate(-0 49.87 30.984432)">175</text>
     </g>
    </g>
    <g id="text_15">
     <text style="font: 10px 'DejaVu Sans', 'Bitstream Vera Sans', 'Computer Modern Sans Serif', 'Lucida Grande', 'Verdana', 'Geneva', 'Lucid', 'Arial', 'Helvetica', 'Avant Garde', sans-serif; text-anchor: middle" x="18.702813" y="110.42" transform="rotate(-90 18.702813 110.42)">power (uW)</text>
    </g>
   </g>
   <g id="line2d_14">
    <path d="M 78.168182 77.440179 
L 79.878879 74.299243 
L 81.589576 77.440179 
L 83.300274 90.00392 
L 85.010971 76.3932 
L 86.721668 72.205286 
L 88.432366 76.3932 
L 90.143063 65.923416 
L 91.85376 63.829459 
L 93.564458 86.862985 
L 95.275155 80.581114 
L 96.985853 86.862985 
L 98.69655 81.628092 
L 100.407247 55.453631 
L 102.117945 148.634714 
L 103.828642 91.050899 
L 105.539339 53.359674 
L 107.250037 77.440179 
L 108.960734 47.077803 
L 110.671431 79.534136 
L 112.382129 62.78248 
L 114.092826 108.849532 
L 115.803523 55.453631 
L 117.514221 68.017373 
L 119.224918 53.359674 
L 120.935615 75.346222 
L 122.646313 200.983636 
L 124.35701 98.379748 
L 126.067707 85.816006 
L 127.778405 71.158308 
L 129.489102 96.285791 
L 131.199799 68.017373 
L 132.910497 61.735502 
L 136.331891 98.379748 
L 138.042589 74.299243 
L 139.753286 70.111329 
L 141.463983 40.795933 
L 143.174681 105.708597 
L 144.885378 57.547588 
L 146.596075 84.769028 
L 148.306773 77.440179 
L 150.01747 71.158308 
L 151.728167 68.017373 
L 153.438865 69.064351 
L 155.149562 48.124782 
L 156.860259 70.111329 
L 158.570957 60.688523 
L 160.281654 104.661618 
L 161.992351 108.849532 
L 163.703049 66.970394 
L 165.413746 58.594566 
L 167.124443 78.487157 
L 168.835141 82.675071 
L 170.545838 63.829459 
L 172.256535 107.802554 
L 173.967233 77.440179 
L 175.67793 65.923416 
L 177.388627 79.534136 
L 179.099325 75.346222 
L 180.810022 91.050899 
L 182.520719 111.990468 
L 184.231417 126.648166 
L 185.942114 49.17176 
L 187.652811 98.379748 
L 189.363509 93.144855 
L 191.074206 66.970394 
L 192.784903 85.816006 
L 194.495601 66.970394 
L 196.206298 72.205286 
L 197.916995 96.285791 
L 199.627693 70.111329 
L 201.33839 19.856364 
L 203.049087 78.487157 
L 204.759785 81.628092 
L 206.470482 85.816006 
L 208.181179 94.191834 
L 209.891877 54.406653 
L 211.602574 63.829459 
L 213.313271 70.111329 
L 215.023969 84.769028 
L 216.734666 87.909963 
L 218.445363 93.144855 
L 220.156061 171.66824 
L 221.866758 87.909963 
L 223.577455 100.473705 
L 225.288153 91.050899 
L 226.99885 107.802554 
L 228.709547 77.440179 
L 230.420245 95.238812 
L 232.130942 80.581114 
L 233.841639 61.735502 
L 235.552337 51.265717 
L 237.263034 128.742123 
L 238.973731 108.849532 
L 240.684429 97.332769 
L 242.395126 83.722049 
L 244.105823 90.00392 
L 245.816521 113.037446 
L 247.527218 129.789101 
L 249.237915 92.097877 
L 250.948613 124.554209 
L 252.65931 92.097877 
L 254.370007 85.816006 
L 256.080705 72.205286 
L 257.791402 49.17176 
L 261.212797 106.755575 
L 262.923494 87.909963 
L 264.634191 42.88989 
L 266.344889 48.124782 
L 268.055586 85.816006 
L 269.766283 64.876437 
L 271.476981 94.191834 
L 273.187678 80.581114 
L 274.898375 73.252265 
L 276.609073 84.769028 
L 278.31977 93.144855 
L 280.030467 50.218739 
L 281.741165 63.829459 
L 283.451862 79.534136 
L 285.162559 63.829459 
L 286.873257 74.299243 
L 288.583954 78.487157 
L 290.294651 48.124782 
L 292.005349 47.077803 
L 293.716046 104.661618 
L 295.426743 69.064351 
L 297.137441 132.930037 
L 298.848138 105.708597 
L 300.558835 80.581114 
L 302.269533 166.433347 
L 303.98023 85.816006 
L 305.690927 126.648166 
L 307.401625 100.473705 
L 309.112322 39.748954 
L 312.533717 74.299243 
L 314.244414 33.467084 
L 315.955111 72.205286 
L 317.665809 90.00392 
L 319.376506 136.070972 
L 321.087203 126.648166 
L 322.797901 71.158308 
L 324.508598 71.158308 
L 326.219295 110.943489 
L 327.929993 92.097877 
L 329.64069 120.366295 
L 331.351387 71.158308 
L 333.062085 77.440179 
L 334.772782 66.970394 
L 336.483479 76.3932 
L 338.194177 82.675071 
L 339.904874 85.816006 
L 341.615571 97.332769 
L 343.326269 127.695145 
L 345.036966 72.205286 
L 346.747663 147.587735 
L 348.458361 198.889679 
L 350.169058 54.406653 
L 351.879755 71.158308 
L 353.590453 118.272338 
L 355.30115 104.661618 
L 357.011847 76.3932 
L 358.722545 116.178382 
L 360.433242 96.285791 
L 362.143939 44.983847 
L 363.854637 80.581114 
L 365.565334 43.936868 
L 367.276031 57.547588 
L 368.986729 93.144855 
L 370.697426 53.359674 
L 372.408123 121.413274 
L 374.118821 93.144855 
L 375.829518 83.722049 
L 377.540215 82.675071 
L 379.250913 47.077803 
L 380.96161 43.936868 
L 382.672307 108.849532 
L 384.383005 73.252265 
L 386.093702 60.688523 
L 387.804399 84.769028 
L 389.515097 49.17176 
L 391.225794 63.829459 
L 392.936491 106.755575 
L 394.647189 84.769028 
L 396.357886 66.970394 
L 398.068583 91.050899 
L 399.779281 105.708597 
L 401.489978 60.688523 
L 403.200675 39.748954 
L 404.911373 153.869606 
L 406.62207 69.064351 
L 408.332767 87.909963 
L 410.043465 60.688523 
L 411.754162 124.554209 
L 413.464859 71.158308 
L 415.175557 86.862985 
L 416.886254 64.876437 
L 418.596951 44.983847 
L 420.307649 93.144855 
L 422.018346 106.755575 
L 423.729043 61.735502 
L 425.439741 50.218739 
L 427.150438 196.795723 
L 428.861135 73.252265 
L 430.571833 80.581114 
L 432.28253 77.440179 
L 433.993227 82.675071 
L 435.703925 72.205286 
L 437.414622 98.379748 
L 439.125319 99.426726 
L 440.836017 95.238812 
L 442.546714 73.252265 
L 444.257411 58.594566 
L 445.968109 55.453631 
L 447.678806 98.379748 
L 449.389503 53.359674 
L 451.100201 68.017373 
L 452.810898 61.735502 
L 454.521595 80.581114 
L 456.232293 74.299243 
L 457.94299 95.238812 
L 459.653687 105.708597 
L 461.364385 91.050899 
L 463.075082 75.346222 
L 464.785779 70.111329 
L 466.496477 61.735502 
L 468.207174 69.064351 
L 469.917871 66.970394 
L 471.628569 99.426726 
L 473.339266 31.373127 
L 475.049963 64.876437 
L 476.760661 124.554209 
L 478.471358 47.077803 
L 480.182055 59.641545 
L 481.892753 54.406653 
L 483.60345 66.970394 
L 485.314147 95.238812 
L 487.024845 91.050899 
L 490.44624 56.50061 
L 492.156937 153.869606 
L 493.867634 74.299243 
L 495.578332 88.956942 
L 497.289029 76.3932 
L 498.999726 164.33939 
L 500.710424 90.00392 
L 502.421121 40.795933 
L 504.131818 74.299243 
L 504.131818 74.299243 
" clip-path="url(#p8a074689ff)" style="fill: none; stroke: #99004d; stroke-width: 0.8; stroke-linecap: square"/>
   </g>
   <g id="patch_3">
    <path d="M 56.87 210.04 
L 56.87 10.8 
" style="fill: none; stroke: #000000; stroke-width: 0.8; stroke-linejoin: miter; stroke-linecap: square"/>
   </g>
   <g id="patch_4">
    <path d="M 525.43 210.04 
L 525.43 10.8 
" style="fill: none; stroke: #000000; stroke-width: 0.8; stroke-linejoin: miter; stroke-linecap: square"/>
   </g>
   <g id="patch_5">
    <path d="M 56.87 210.04 
L 525.43 210.04 
" style="fill: none; stroke: #000000; stroke-width: 0.8; stroke-linejoin: miter; stroke-linecap: square"/>
   </g>
   <g id="patch_6">
    <path d="M 56.87 10.8 
L 525.43 10.8 
" style="fill: none; stroke: #000000; stroke-width: 0.8; stroke-linejoin: miter; stroke-linecap: square"/>
   </g>
  </g>
  <g id="axes_2">
   <g id="matplotlib.axis_3">
    <g id="ytick_8">
     <g id="line2d_15">
      <defs>
       <path id="m65d6f299b5" d="M 0 0 
L 3.5 0 
" style="stroke: #000000; stroke-width: 0.8"/>
      </defs>
      <g>
       <use xlink:href="#m65d6f299b5" x="525.43" y="206.014949" style="stroke: #000000; stroke-width: 0.8"/>
      </g>
     </g>
     <g id="text_16">
      <text style="font: 10px 'DejaVu Sans', 'Bitstream Vera Sans', 'Computer Modern Sans Serif', 'Lucida Grande', 'Verdana', 'Geneva', 'Lucid', 'Arial', 'Helvetica', 'Avant Garde', sans-serif; text-anchor: start" x="532.43" y="209.814168" transform="rotate(-0 532.43 209.814168)">0</text>
     </g>
    </g>
    <g id="ytick_9">
     <g id="line2d_16">
      <g>
       <use xlink:href="#m65d6f299b5" x="525.43" y="180.858384" style="stroke: #000000; stroke-width: 0.8"/>
      </g>
     </g>
     <g id="text_17">
      <text style="font: 10px 'DejaVu Sans', 'Bitstream Vera Sans', 'Computer Modern Sans Serif', 'Lucida Grande', 'Verdana', 'Geneva', 'Lucid', 'Arial', 'Helvetica', 'Avant Garde', sans-serif; text-anchor: start" x="532.43" y="184.657603" transform="rotate(-0 532.43 184.657603)">5</text>
     </g>
    </g>
    <g id="ytick_10">
     <g id="line2d_17">
      <g>
       <use xlink:href="#m65d6f299b5" x="525.43" y="155.701818" style="stroke: #000000; stroke-width: 0.8"/>
      </g>
     </g>
     <g id="text_18">
      <text style="font: 10px 'DejaVu Sans', 'Bitstream Vera Sans', 'Computer Modern Sans Serif', 'Lucida Grande', 'Verdana', 'Geneva', 'Lucid', 'Arial', 'Helvetica', 'Avant Garde', sans-serif; text-anchor: start" x="532.43" y="159.501037" transform="rotate(-0 532.43 159.501037)">10</text>
     </g>
    </g>
    <g id="ytick_11">
     <g id="line2d_18">
      <g>
       <use xlink:href="#m65d6f299b5" x="525.43" y="130.545253" style="stroke: #000000; stroke-width: 0.8"/>
      </g>
     </g>
     <g id="text_19">
      <text style="font: 10px 'DejaVu Sans', 'Bitstream Vera Sans', 'Computer Modern Sans Serif', 'Lucida Grande', 'Verdana', 'Geneva', 'Lucid', 'Arial', 'Helvetica', 'Avant Garde', sans-serif; text-anchor: start" x="532.43" y="134.344471" transform="rotate(-0 532.43 134.344471)">15</text>
     </g>
    </g>
    <g id="ytick_12">
     <g id="line2d_19">
      <g>
       <use xlink:href="#m65d6f299b5" x="525.43" y="105.388687" style="stroke: #000000; stroke-width: 0.8"/>
      </g>
     </g>
     <g id="text_20">
      <text style="font: 10px 'DejaVu Sans', 'Bitstream Vera Sans', 'Computer Modern Sans Serif', 'Lucida Grande', 'Verdana', 'Geneva', 'Lucid', 'Arial', 'Helvetica', 'Avant Garde', sans-serif; text-anchor: start" x="532.43" y="109.187906" transform="rotate(-0 532.43 109.187906)">20</text>
     </g>
    </g>
    <g id="ytick_13">
     <g id="line2d_20">
      <g>
       <use xlink:href="#m65d6f299b5" x="525.43" y="80.232121" style="stroke: #000000; stroke-width: 0.8"/>
      </g>
     </g>
     <g id="text_21">
      <text style="font: 10px 'DejaVu Sans', 'Bitstream Vera Sans', 'Computer Modern Sans Serif', 'Lucida Grande', 'Verdana', 'Geneva', 'Lucid', 'Arial', 'Helvetica', 'Avant Garde', sans-serif; text-anchor: start" x="532.43" y="84.03134" transform="rotate(-0 532.43 84.03134)">25</text>
     </g>
    </g>
    <g id="ytick_14">
     <g id="line2d_21">
      <g>
       <use xlink:href="#m65d6f299b5" x="525.43" y="55.075556" style="stroke: #000000; stroke-width: 0.8"/>
      </g>
     </g>
     <g id="text_22">
      <text style="font: 10px 'DejaVu Sans', 'Bitstream Vera Sans', 'Computer Modern Sans Serif', 'Lucida Grande', 'Verdana', 'Geneva', 'Lucid', 'Arial', 'Helvetica', 'Avant Garde', sans-serif; text-anchor: start" x="532.43" y="58.874774" transform="rotate(-0 532.43 58.874774)">30</text>
     </g>
    </g>
    <g id="ytick_15">
     <g id="line2d_22">
      <g>
       <use xlink:href="#m65d6f299b5" x="525.43" y="29.91899" style="stroke: #000000; stroke-width: 0.8"/>
      </g>
     </g>
     <g id="text_23">
      <text style="font: 10px 'DejaVu Sans', 'Bitstream Vera Sans', 'Computer Modern Sans Serif', 'Lucida Grande', 'Verdana', 'Geneva', 'Lucid', 'Arial', 'Helvetica', 'Avant Garde', sans-serif; text-anchor: start" x="532.43" y="33.718209" transform="rotate(-0 532.43 33.718209)">35</text>
     </g>
    </g>
    <g id="text_24">
     <text style="font: 10px 'DejaVu Sans', 'Bitstream Vera Sans', 'Computer Modern Sans Serif', 'Lucida Grande', 'Verdana', 'Geneva', 'Lucid', 'Arial', 'Helvetica', 'Avant Garde', sans-serif; text-anchor: middle" x="562.753438" y="110.42" transform="rotate(-90 562.753438 110.42)">hw(data)</text>
    </g>
   </g>
   <g id="line2d_23">
    <path d="M 78.168182 70.169495 
L 79.878879 120.482626 
L 81.589576 50.044242 
L 83.300274 115.451313 
L 85.010971 75.200808 
L 86.721668 90.294747 
L 88.432366 115.451313 
L 90.143063 100.357374 
L 91.85376 70.169495 
L 93.564458 90.294747 
L 95.275155 95.326061 
L 96.985853 110.42 
L 98.69655 120.482626 
L 100.407247 55.075556 
L 102.117945 195.952323 
L 103.828642 100.357374 
L 105.539339 55.075556 
L 107.250037 110.42 
L 108.960734 29.91899 
L 110.671431 65.138182 
L 112.382129 75.200808 
L 114.092826 125.513939 
L 115.803523 75.200808 
L 117.514221 105.388687 
L 119.224918 55.075556 
L 120.935615 55.075556 
L 122.646313 200.983636 
L 124.35701 120.482626 
L 126.067707 115.451313 
L 127.778405 70.169495 
L 129.489102 120.482626 
L 131.199799 70.169495 
L 132.910497 75.200808 
L 134.621194 110.42 
L 136.331891 125.513939 
L 138.042589 115.451313 
L 139.753286 55.075556 
L 141.463983 34.950303 
L 143.174681 115.451313 
L 144.885378 29.91899 
L 146.596075 110.42 
L 148.306773 115.451313 
L 150.01747 90.294747 
L 151.728167 85.263434 
L 155.149562 55.075556 
L 156.860259 120.482626 
L 158.570957 65.138182 
L 160.281654 120.482626 
L 161.992351 130.545253 
L 163.703049 70.169495 
L 165.413746 39.981616 
L 167.124443 70.169495 
L 168.835141 70.169495 
L 170.545838 85.263434 
L 172.256535 95.326061 
L 173.967233 90.294747 
L 175.67793 70.169495 
L 177.388627 65.138182 
L 179.099325 95.326061 
L 180.810022 115.451313 
L 182.520719 150.670505 
L 184.231417 140.607879 
L 185.942114 39.981616 
L 187.652811 150.670505 
L 189.363509 100.357374 
L 191.074206 29.91899 
L 192.784903 65.138182 
L 194.495601 85.263434 
L 196.206298 100.357374 
L 197.916995 120.482626 
L 199.627693 55.075556 
L 201.33839 34.950303 
L 203.049087 85.263434 
L 204.759785 120.482626 
L 206.470482 115.451313 
L 208.181179 100.357374 
L 209.891877 55.075556 
L 211.602574 60.106869 
L 213.313271 105.388687 
L 215.023969 110.42 
L 216.734666 100.357374 
L 218.445363 135.576566 
L 220.156061 155.701818 
L 221.866758 100.357374 
L 223.577455 135.576566 
L 225.288153 105.388687 
L 226.99885 110.42 
L 230.420245 130.545253 
L 232.130942 110.42 
L 233.841639 70.169495 
L 235.552337 50.044242 
L 237.263034 135.576566 
L 238.973731 165.764444 
L 240.684429 165.764444 
L 242.395126 130.545253 
L 244.105823 75.200808 
L 245.816521 110.42 
L 247.527218 170.795758 
L 249.237915 95.326061 
L 250.948613 160.733131 
L 252.65931 95.326061 
L 254.370007 120.482626 
L 256.080705 95.326061 
L 257.791402 60.106869 
L 259.502099 55.075556 
L 261.212797 140.607879 
L 262.923494 105.388687 
L 264.634191 50.044242 
L 266.344889 50.044242 
L 268.055586 115.451313 
L 269.766283 60.106869 
L 271.476981 125.513939 
L 273.187678 95.326061 
L 274.898375 95.326061 
L 276.609073 100.357374 
L 278.31977 100.357374 
L 280.030467 65.138182 
L 281.741165 65.138182 
L 283.451862 135.576566 
L 285.162559 80.232121 
L 286.873257 95.326061 
L 288.583954 90.294747 
L 290.294651 60.106869 
L 292.005349 55.075556 
L 293.716046 120.482626 
L 295.426743 100.357374 
L 297.137441 160.733131 
L 298.848138 130.545253 
L 300.558835 110.42 
L 302.269533 170.795758 
L 303.98023 100.357374 
L 305.690927 175.827071 
L 307.401625 95.326061 
L 309.112322 80.232121 
L 310.823019 55.075556 
L 312.533717 90.294747 
L 314.244414 65.138182 
L 315.955111 95.326061 
L 317.665809 115.451313 
L 319.376506 185.889697 
L 321.087203 180.858384 
L 322.797901 110.42 
L 324.508598 100.357374 
L 326.219295 135.576566 
L 327.929993 95.326061 
L 329.64069 130.545253 
L 331.351387 110.42 
L 333.062085 100.357374 
L 334.772782 75.200808 
L 336.483479 70.169495 
L 338.194177 90.294747 
L 339.904874 85.263434 
L 341.615571 125.513939 
L 343.326269 140.607879 
L 345.036966 100.357374 
L 346.747663 185.889697 
L 348.458361 190.92101 
L 350.169058 45.012929 
L 351.879755 65.138182 
L 353.590453 140.607879 
L 357.011847 100.357374 
L 358.722545 150.670505 
L 360.433242 135.576566 
L 362.143939 39.981616 
L 363.854637 90.294747 
L 365.565334 29.91899 
L 367.276031 55.075556 
L 368.986729 105.388687 
L 370.697426 50.044242 
L 372.408123 145.639192 
L 374.118821 100.357374 
L 375.829518 110.42 
L 377.540215 85.263434 
L 380.96161 75.200808 
L 382.672307 100.357374 
L 384.383005 85.263434 
L 386.093702 50.044242 
L 387.804399 95.326061 
L 389.515097 45.012929 
L 391.225794 95.326061 
L 392.936491 165.764444 
L 394.647189 105.388687 
L 396.357886 65.138182 
L 398.068583 95.326061 
L 399.779281 120.482626 
L 401.489978 65.138182 
L 403.200675 34.950303 
L 404.911373 185.889697 
L 406.62207 70.169495 
L 408.332767 95.326061 
L 410.043465 45.012929 
L 411.754162 140.607879 
L 413.464859 65.138182 
L 415.175557 135.576566 
L 416.886254 120.482626 
L 418.596951 34.950303 
L 420.307649 110.42 
L 422.018346 150.670505 
L 423.729043 50.044242 
L 425.439741 39.981616 
L 427.150438 190.92101 
L 428.861135 80.232121 
L 430.571833 90.294747 
L 432.28253 95.326061 
L 433.993227 115.451313 
L 435.703925 100.357374 
L 437.414622 155.701818 
L 439.125319 130.545253 
L 440.836017 110.42 
L 442.546714 105.388687 
L 444.257411 60.106869 
L 445.968109 34.950303 
L 447.678806 90.294747 
L 449.389503 45.012929 
L 451.100201 75.200808 
L 452.810898 70.169495 
L 454.521595 85.263434 
L 456.232293 95.326061 
L 459.653687 145.639192 
L 461.364385 145.639192 
L 463.075082 90.294747 
L 466.496477 50.044242 
L 468.207174 55.075556 
L 469.917871 50.044242 
L 471.628569 130.545253 
L 473.339266 24.887677 
L 475.049963 50.044242 
L 476.760661 160.733131 
L 478.471358 39.981616 
L 480.182055 50.044242 
L 481.892753 45.012929 
L 483.60345 100.357374 
L 485.314147 115.451313 
L 487.024845 100.357374 
L 488.735542 90.294747 
L 490.44624 50.044242 
L 492.156937 195.952323 
L 493.867634 55.075556 
L 495.578332 100.357374 
L 497.289029 100.357374 
L 498.999726 165.764444 
L 500.710424 85.263434 
L 502.421121 19.856364 
L 504.131818 70.169495 
L 504.131818 70.169495 
" clip-path="url(#p8a074689ff)" style="fill: none; stroke: #235996; stroke-width: 0.8; stroke-linecap: square"/>
   </g>
   <g id="patch_7">
    <path d="M 56.87 210.04 
L 56.87 10.8 
" style="fill: none; stroke: #000000; stroke-width: 0.8; stroke-linejoin: miter; stroke-linecap: square"/>
   </g>
   <g id="patch_8">
    <path d="M 525.43 210.04 
L 525.43 10.8 
" style="fill: none; stroke: #000000; stroke-width: 0.8; stroke-linejoin: miter; stroke-linecap: square"/>
   </g>
   <g id="patch_9">
    <path d="M 56.87 210.04 
L 525.43 210.04 
" style="fill: none; stroke: #000000; stroke-width: 0.8; stroke-linejoin: miter; stroke-linecap: square"/>
   </g>
   <g id="patch_10">
    <path d="M 56.87 10.8 
L 525.43 10.8 
" style="fill: none; stroke: #000000; stroke-width: 0.8; stroke-linejoin: miter; stroke-linecap: square"/>
   </g>
   <g id="legend_1">
    <g id="patch_11">
     <path d="M 150.539625 43.4565 
L 431.760375 43.4565 
Q 434.640375 43.4565 434.640375 40.5765 
L 434.640375 20.88 
Q 434.640375 18 431.760375 18 
L 150.539625 18 
Q 147.659625 18 147.659625 20.88 
L 147.659625 40.5765 
Q 147.659625 43.4565 150.539625 43.4565 
z
" style="fill: #ffffff; opacity: 0.8; stroke: #000000; stroke-linejoin: miter"/>
    </g>
    <g id="line2d_24">
     <path d="M 153.419625 29.66175 
L 167.819625 29.66175 
L 182.219625 29.66175 
" style="fill: none; stroke: #99004d; stroke-width: 0.8; stroke-linecap: square"/>
    </g>
    <g id="text_25">
     <text style="font: 14.4px 'DejaVu Sans', 'Bitstream Vera Sans', 'Computer Modern Sans Serif', 'Lucida Grande', 'Verdana', 'Geneva', 'Lucid', 'Arial', 'Helvetica', 'Avant Garde', sans-serif; text-anchor: start" x="193.739625" y="34.70175" transform="rotate(-0 193.739625 34.70175)">power</text>
    </g>
    <g id="line2d_25">
     <path d="M 267.049125 29.66175 
L 281.449125 29.66175 
L 295.849125 29.66175 
" style="fill: none; stroke: #235996; stroke-width: 0.8; stroke-linecap: square"/>
    </g>
    <g id="text_26">
     <text style="font: 14.4px 'DejaVu Sans', 'Bitstream Vera Sans', 'Computer Modern Sans Serif', 'Lucida Grande', 'Verdana', 'Geneva', 'Lucid', 'Arial', 'Helvetica', 'Avant Garde', sans-serif; text-anchor: start" x="307.369125" y="34.70175" transform="rotate(-0 307.369125 34.70175)">hw(rs1)+hw(rs2)</text>
    </g>
   </g>
  </g>
 </g>
 <defs>
  <clipPath id="p8a074689ff">
   <rect x="56.87" y="10.8" width="468.56" height="199.24"/>
  </clipPath>
 </defs>
</svg>
