<?xml version="1.0" encoding="utf-8" standalone="no"?>
<!DOCTYPE svg PUBLIC "-//W3C//DTD SVG 1.1//EN"
  "http://www.w3.org/Graphics/SVG/1.1/DTD/svg11.dtd">
<svg xmlns:xlink="http://www.w3.org/1999/xlink" width="576pt" height="252pt" viewBox="0 0 576 252" xmlns="http://www.w3.org/2000/svg" version="1.1">
 <metadata>
  <rdf:RDF xmlns:dc="http://purl.org/dc/elements/1.1/" xmlns:cc="http://creativecommons.org/ns#" xmlns:rdf="http://www.w3.org/1999/02/22-rdf-syntax-ns#">
   <cc:Work>
    <dc:type rdf:resource="http://purl.org/dc/dcmitype/StillImage"/>
    <dc:date>2023-12-04T21:07:45.664731</dc:date>
    <dc:format>image/svg+xml</dc:format>
    <dc:creator>
     <cc:Agent>
      <dc:title>Matplotlib v3.7.4, https://matplotlib.org/</dc:title>
     </cc:Agent>
    </dc:creator>
   </cc:Work>
  </rdf:RDF>
 </metadata>
 <defs>
  <style type="text/css">*{stroke-linejoin: round; stroke-linecap: butt}</style>
 </defs>
 <g id="figure_1">
  <g id="patch_1">
   <path d="M 0 252 
L 576 252 
L 576 0 
L 0 0 
z
" style="fill: #ffffff"/>
  </g>
  <g id="axes_1">
   <g id="patch_2">
    <path d="M 56.87 210.04 
L 525.43 210.04 
L 525.43 10.8 
L 56.87 10.8 
z
" style="fill: #ffffff"/>
   </g>
   <g id="matplotlib.axis_1">
    <g id="xtick_1">
     <g id="line2d_1">
      <defs>
       <path id="md75a44f7d7" d="M 0 0 
L 0 3.5 
" style="stroke: #000000; stroke-width: 0.8"/>
      </defs>
      <g>
       <use xlink:href="#md75a44f7d7" x="78.168182" y="210.04" style="stroke: #000000; stroke-width: 0.8"/>
      </g>
     </g>
     <g id="text_1">
      <text style="font: 10px 'DejaVu Sans', 'Bitstream Vera Sans', 'Computer Modern Sans Serif', 'Lucida Grande', 'Verdana', 'Geneva', 'Lucid', 'Arial', 'Helvetica', 'Avant Garde', sans-serif; text-anchor: middle" x="78.168182" y="224.638438" transform="rotate(-0 78.168182 224.638438)">0</text>
     </g>
    </g>
    <g id="xtick_2">
     <g id="line2d_2">
      <g>
       <use xlink:href="#md75a44f7d7" x="163.703049" y="210.04" style="stroke: #000000; stroke-width: 0.8"/>
      </g>
     </g>
     <g id="text_2">
      <text style="font: 10px 'DejaVu Sans', 'Bitstream Vera Sans', 'Computer Modern Sans Serif', 'Lucida Grande', 'Verdana', 'Geneva', 'Lucid', 'Arial', 'Helvetica', 'Avant Garde', sans-serif; text-anchor: middle" x="163.703049" y="224.638438" transform="rotate(-0 163.703049 224.638438)">50</text>
     </g>
    </g>
    <g id="xtick_3">
     <g id="line2d_3">
      <g>
       <use xlink:href="#md75a44f7d7" x="249.237915" y="210.04" style="stroke: #000000; stroke-width: 0.8"/>
      </g>
     </g>
     <g id="text_3">
      <text style="font: 10px 'DejaVu Sans', 'Bitstream Vera Sans', 'Computer Modern Sans Serif', 'Lucida Grande', 'Verdana', 'Geneva', 'Lucid', 'Arial', 'Helvetica', 'Avant Garde', sans-serif; text-anchor: middle" x="249.237915" y="224.638438" transform="rotate(-0 249.237915 224.638438)">100</text>
     </g>
    </g>
    <g id="xtick_4">
     <g id="line2d_4">
      <g>
       <use xlink:href="#md75a44f7d7" x="334.772782" y="210.04" style="stroke: #000000; stroke-width: 0.8"/>
      </g>
     </g>
     <g id="text_4">
      <text style="font: 10px 'DejaVu Sans', 'Bitstream Vera Sans', 'Computer Modern Sans Serif', 'Lucida Grande', 'Verdana', 'Geneva', 'Lucid', 'Arial', 'Helvetica', 'Avant Garde', sans-serif; text-anchor: middle" x="334.772782" y="224.638438" transform="rotate(-0 334.772782 224.638438)">150</text>
     </g>
    </g>
    <g id="xtick_5">
     <g id="line2d_5">
      <g>
       <use xlink:href="#md75a44f7d7" x="420.307649" y="210.04" style="stroke: #000000; stroke-width: 0.8"/>
      </g>
     </g>
     <g id="text_5">
      <text style="font: 10px 'DejaVu Sans', 'Bitstream Vera Sans', 'Computer Modern Sans Serif', 'Lucida Grande', 'Verdana', 'Geneva', 'Lucid', 'Arial', 'Helvetica', 'Avant Garde', sans-serif; text-anchor: middle" x="420.307649" y="224.638438" transform="rotate(-0 420.307649 224.638438)">200</text>
     </g>
    </g>
    <g id="xtick_6">
     <g id="line2d_6">
      <g>
       <use xlink:href="#md75a44f7d7" x="505.842516" y="210.04" style="stroke: #000000; stroke-width: 0.8"/>
      </g>
     </g>
     <g id="text_6">
      <text style="font: 10px 'DejaVu Sans', 'Bitstream Vera Sans', 'Computer Modern Sans Serif', 'Lucida Grande', 'Verdana', 'Geneva', 'Lucid', 'Arial', 'Helvetica', 'Avant Garde', sans-serif; text-anchor: middle" x="505.842516" y="224.638438" transform="rotate(-0 505.842516 224.638438)">250</text>
     </g>
    </g>
    <g id="text_7">
     <text style="font: 10px 'DejaVu Sans', 'Bitstream Vera Sans', 'Computer Modern Sans Serif', 'Lucida Grande', 'Verdana', 'Geneva', 'Lucid', 'Arial', 'Helvetica', 'Avant Garde', sans-serif; text-anchor: middle" x="291.15" y="238.316563" transform="rotate(-0 291.15 238.316563)">Cycles</text>
    </g>
   </g>
   <g id="matplotlib.axis_2">
    <g id="ytick_1">
     <g id="line2d_7">
      <defs>
       <path id="md4e5c0e764" d="M 0 0 
L -3.5 0 
" style="stroke: #000000; stroke-width: 0.8"/>
      </defs>
      <g>
       <use xlink:href="#md4e5c0e764" x="56.87" y="204.997537" style="stroke: #000000; stroke-width: 0.8"/>
      </g>
     </g>
     <g id="text_8">
      <text style="font: 10px 'DejaVu Sans', 'Bitstream Vera Sans', 'Computer Modern Sans Serif', 'Lucida Grande', 'Verdana', 'Geneva', 'Lucid', 'Arial', 'Helvetica', 'Avant Garde', sans-serif; text-anchor: end" x="49.87" y="208.796756" transform="rotate(-0 49.87 208.796756)">50</text>
     </g>
    </g>
    <g id="ytick_2">
     <g id="line2d_8">
      <g>
       <use xlink:href="#md4e5c0e764" x="56.87" y="179.910657" style="stroke: #000000; stroke-width: 0.8"/>
      </g>
     </g>
     <g id="text_9">
      <text style="font: 10px 'DejaVu Sans', 'Bitstream Vera Sans', 'Computer Modern Sans Serif', 'Lucida Grande', 'Verdana', 'Geneva', 'Lucid', 'Arial', 'Helvetica', 'Avant Garde', sans-serif; text-anchor: end" x="49.87" y="183.709876" transform="rotate(-0 49.87 183.709876)">100</text>
     </g>
    </g>
    <g id="ytick_3">
     <g id="line2d_9">
      <g>
       <use xlink:href="#md4e5c0e764" x="56.87" y="154.823777" style="stroke: #000000; stroke-width: 0.8"/>
      </g>
     </g>
     <g id="text_10">
      <text style="font: 10px 'DejaVu Sans', 'Bitstream Vera Sans', 'Computer Modern Sans Serif', 'Lucida Grande', 'Verdana', 'Geneva', 'Lucid', 'Arial', 'Helvetica', 'Avant Garde', sans-serif; text-anchor: end" x="49.87" y="158.622996" transform="rotate(-0 49.87 158.622996)">150</text>
     </g>
    </g>
    <g id="ytick_4">
     <g id="line2d_10">
      <g>
       <use xlink:href="#md4e5c0e764" x="56.87" y="129.736898" style="stroke: #000000; stroke-width: 0.8"/>
      </g>
     </g>
     <g id="text_11">
      <text style="font: 10px 'DejaVu Sans', 'Bitstream Vera Sans', 'Computer Modern Sans Serif', 'Lucida Grande', 'Verdana', 'Geneva', 'Lucid', 'Arial', 'Helvetica', 'Avant Garde', sans-serif; text-anchor: end" x="49.87" y="133.536116" transform="rotate(-0 49.87 133.536116)">200</text>
     </g>
    </g>
    <g id="ytick_5">
     <g id="line2d_11">
      <g>
       <use xlink:href="#md4e5c0e764" x="56.87" y="104.650018" style="stroke: #000000; stroke-width: 0.8"/>
      </g>
     </g>
     <g id="text_12">
      <text style="font: 10px 'DejaVu Sans', 'Bitstream Vera Sans', 'Computer Modern Sans Serif', 'Lucida Grande', 'Verdana', 'Geneva', 'Lucid', 'Arial', 'Helvetica', 'Avant Garde', sans-serif; text-anchor: end" x="49.87" y="108.449236" transform="rotate(-0 49.87 108.449236)">250</text>
     </g>
    </g>
    <g id="ytick_6">
     <g id="line2d_12">
      <g>
       <use xlink:href="#md4e5c0e764" x="56.87" y="79.563138" style="stroke: #000000; stroke-width: 0.8"/>
      </g>
     </g>
     <g id="text_13">
      <text style="font: 10px 'DejaVu Sans', 'Bitstream Vera Sans', 'Computer Modern Sans Serif', 'Lucida Grande', 'Verdana', 'Geneva', 'Lucid', 'Arial', 'Helvetica', 'Avant Garde', sans-serif; text-anchor: end" x="49.87" y="83.362356" transform="rotate(-0 49.87 83.362356)">300</text>
     </g>
    </g>
    <g id="ytick_7">
     <g id="line2d_13">
      <g>
       <use xlink:href="#md4e5c0e764" x="56.87" y="54.476258" style="stroke: #000000; stroke-width: 0.8"/>
      </g>
     </g>
     <g id="text_14">
      <text style="font: 10px 'DejaVu Sans', 'Bitstream Vera Sans', 'Computer Modern Sans Serif', 'Lucida Grande', 'Verdana', 'Geneva', 'Lucid', 'Arial', 'Helvetica', 'Avant Garde', sans-serif; text-anchor: end" x="49.87" y="58.275477" transform="rotate(-0 49.87 58.275477)">350</text>
     </g>
    </g>
    <g id="ytick_8">
     <g id="line2d_14">
      <g>
       <use xlink:href="#md4e5c0e764" x="56.87" y="29.389378" style="stroke: #000000; stroke-width: 0.8"/>
      </g>
     </g>
     <g id="text_15">
      <text style="font: 10px 'DejaVu Sans', 'Bitstream Vera Sans', 'Computer Modern Sans Serif', 'Lucida Grande', 'Verdana', 'Geneva', 'Lucid', 'Arial', 'Helvetica', 'Avant Garde', sans-serif; text-anchor: end" x="49.87" y="33.188597" transform="rotate(-0 49.87 33.188597)">400</text>
     </g>
    </g>
    <g id="text_16">
     <text style="font: 10px 'DejaVu Sans', 'Bitstream Vera Sans', 'Computer Modern Sans Serif', 'Lucida Grande', 'Verdana', 'Geneva', 'Lucid', 'Arial', 'Helvetica', 'Avant Garde', sans-serif; text-anchor: middle" x="18.702813" y="110.42" transform="rotate(-90 18.702813 110.42)">power (uW)</text>
    </g>
   </g>
   <g id="line2d_15">
    <path d="M 78.168182 53.97452 
L 79.878879 51.465832 
L 81.589576 84.580514 
L 83.300274 29.389378 
L 85.010971 50.462357 
L 86.721668 65.012747 
L 88.432366 70.030123 
L 90.143063 43.438031 
L 91.85376 88.594415 
L 93.564458 194.962785 
L 95.275155 159.841153 
L 96.985853 60.998847 
L 98.69655 141.7786 
L 100.407247 71.535336 
L 102.117945 168.87243 
L 103.828642 66.51796 
L 105.539339 58.991896 
L 107.250037 138.266437 
L 108.960734 154.823777 
L 110.671431 163.855054 
L 112.382129 60.497109 
L 114.092826 62.002322 
L 115.803523 43.939768 
L 117.514221 121.709096 
L 119.224918 69.026648 
L 120.935615 98.127429 
L 122.646313 81.570088 
L 124.35701 68.023173 
L 126.067707 72.538811 
L 127.778405 67.019698 
L 129.489102 96.622216 
L 131.199799 53.97452 
L 132.910497 81.570088 
L 134.621194 138.768174 
L 136.331891 38.420655 
L 138.042589 73.040549 
L 139.753286 53.97452 
L 141.463983 75.047499 
L 143.174681 115.688245 
L 144.885378 46.950194 
L 146.596075 133.750798 
L 148.306773 118.69867 
L 150.01747 100.636117 
L 151.728167 152.816827 
L 153.438865 39.925868 
L 155.149562 63.005797 
L 156.860259 27.884165 
L 158.570957 181.917608 
L 160.281654 36.413704 
L 161.992351 48.957144 
L 163.703049 54.476258 
L 165.413746 131.24211 
L 167.124443 49.458882 
L 168.835141 111.172606 
L 170.545838 168.87243 
L 172.256535 59.995371 
L 173.967233 159.841153 
L 175.67793 45.946719 
L 177.388627 37.918917 
L 179.099325 85.583989 
L 180.810022 91.103102 
L 182.520719 132.245585 
L 184.231417 50.964095 
L 185.942114 43.939768 
L 187.652811 50.462357 
L 189.363509 99.632642 
L 191.074206 35.911967 
L 192.784903 37.41718 
L 194.495601 63.507535 
L 196.206298 43.939768 
L 197.916995 103.646542 
L 199.627693 74.545762 
L 201.33839 65.012747 
L 203.049087 27.884165 
L 204.759785 38.922392 
L 206.470482 78.057925 
L 208.181179 109.667394 
L 209.891877 84.580514 
L 211.602574 165.862005 
L 213.313271 81.570088 
L 215.023969 51.96757 
L 216.734666 76.552712 
L 218.445363 43.438031 
L 220.156061 49.960619 
L 221.866758 108.663918 
L 223.577455 155.827253 
L 225.288153 117.695195 
L 226.99885 129.23516 
L 228.709547 47.953669 
L 230.420245 125.221259 
L 232.130942 180.914132 
L 233.841639 49.960619 
L 235.552337 75.047499 
L 237.263034 63.005797 
L 238.973731 101.137854 
L 240.684429 91.60484 
L 242.395126 73.542287 
L 244.105823 94.113528 
L 245.816521 107.660443 
L 247.527218 92.608315 
L 249.237915 74.545762 
L 250.948613 82.071826 
L 252.65931 54.977995 
L 254.370007 169.875905 
L 256.080705 52.971045 
L 257.791402 62.504059 
L 259.502099 25.877215 
L 261.212797 100.134379 
L 264.634191 32.901541 
L 266.344889 48.957144 
L 268.055586 87.590939 
L 269.766283 172.886331 
L 271.476981 145.792501 
L 273.187678 49.458882 
L 274.898375 96.622216 
L 276.609073 200.983636 
L 278.31977 55.981471 
L 280.030467 85.583989 
L 281.741165 54.476258 
L 283.451862 65.012747 
L 285.162559 120.203883 
L 286.873257 121.709096 
L 288.583954 105.653493 
L 290.294651 75.549237 
L 292.005349 172.886331 
L 293.716046 107.158706 
L 295.426743 49.960619 
L 297.137441 128.733422 
L 298.848138 154.823777 
L 300.558835 102.643067 
L 302.269533 46.448456 
L 303.98023 78.057925 
L 305.690927 72.538811 
L 307.401625 28.88764 
L 309.112322 65.012747 
L 310.823019 107.158706 
L 312.533717 107.158706 
L 314.244414 104.650018 
L 315.955111 83.075301 
L 317.665809 144.789025 
L 319.376506 32.901541 
L 321.087203 84.078776 
L 322.797901 19.856364 
L 324.508598 66.016223 
L 326.219295 73.542287 
L 327.929993 52.469307 
L 329.64069 148.802926 
L 331.351387 54.476258 
L 333.062085 64.009272 
L 334.772782 35.911967 
L 336.483479 172.886331 
L 338.194177 94.615266 
L 339.904874 171.882856 
L 341.615571 41.932818 
L 343.326269 108.663918 
L 345.036966 127.729947 
L 346.747663 59.995371 
L 348.458361 42.936293 
L 350.169058 48.957144 
L 351.879755 137.764699 
L 353.590453 73.542287 
L 355.30115 59.995371 
L 357.011847 96.120478 
L 358.722545 41.932818 
L 360.433242 78.559663 
L 362.143939 59.995371 
L 363.854637 189.945409 
L 365.565334 43.438031 
L 367.276031 75.549237 
L 368.986729 120.705621 
L 370.697426 90.099627 
L 372.408123 76.050975 
L 374.118821 70.030123 
L 375.829518 42.936293 
L 377.540215 70.531861 
L 379.250913 84.580514 
L 380.96161 159.841153 
L 382.672307 165.862005 
L 384.383005 42.936293 
L 386.093702 67.019698 
L 387.804399 130.740373 
L 389.515097 58.490159 
L 391.225794 48.957144 
L 392.936491 76.552712 
L 394.647189 51.96757 
L 396.357886 50.462357 
L 398.068583 78.559663 
L 399.779281 65.514485 
L 401.489978 101.639592 
L 403.200675 170.879381 
L 404.911373 78.057925 
L 406.62207 71.033599 
L 408.332767 51.96757 
L 410.043465 90.601365 
L 411.754162 75.549237 
L 413.464859 29.891116 
L 415.175557 180.914132 
L 416.886254 64.009272 
L 418.596951 120.705621 
L 420.307649 108.162181 
L 422.018346 129.736898 
L 423.729043 43.438031 
L 425.439741 24.87374 
L 427.150438 110.169131 
L 428.861135 137.764699 
L 430.571833 48.957144 
L 433.993227 191.95236 
L 435.703925 54.977995 
L 437.414622 118.69867 
L 439.125319 50.964095 
L 440.836017 81.570088 
L 442.546714 93.61179 
L 444.257411 154.823777 
L 445.968109 78.057925 
L 447.678806 154.823777 
L 449.389503 178.907182 
L 451.100201 70.030123 
L 452.810898 63.005797 
L 454.521595 87.590939 
L 456.232293 43.939768 
L 457.94299 56.984946 
L 459.653687 112.176082 
L 461.364385 32.901541 
L 463.075082 57.988421 
L 464.785779 37.918917 
L 466.496477 180.914132 
L 468.207174 46.950194 
L 469.917871 48.957144 
L 471.628569 127.729947 
L 473.339266 177.903707 
L 475.049963 63.005797 
L 476.760661 185.931508 
L 478.471358 53.97452 
L 480.182055 59.493634 
L 481.892753 193.95931 
L 483.60345 80.566613 
L 485.314147 26.88069 
L 487.024845 58.991896 
L 488.735542 38.922392 
L 490.44624 95.618741 
L 492.156937 36.915442 
L 493.867634 48.957144 
L 495.578332 139.771649 
L 497.289029 62.002322 
L 498.999726 48.455407 
L 500.710424 112.677819 
L 502.421121 68.023173 
L 504.131818 59.995371 
L 504.131818 59.995371 
" clip-path="url(#pa441847273)" style="fill: none; stroke: #99004d; stroke-width: 0.8; stroke-linecap: square"/>
   </g>
   <g id="patch_3">
    <path d="M 56.87 210.04 
L 56.87 10.8 
" style="fill: none; stroke: #000000; stroke-width: 0.8; stroke-linejoin: miter; stroke-linecap: square"/>
   </g>
   <g id="patch_4">
    <path d="M 525.43 210.04 
L 525.43 10.8 
" style="fill: none; stroke: #000000; stroke-width: 0.8; stroke-linejoin: miter; stroke-linecap: square"/>
   </g>
   <g id="patch_5">
    <path d="M 56.87 210.04 
L 525.43 210.04 
" style="fill: none; stroke: #000000; stroke-width: 0.8; stroke-linejoin: miter; stroke-linecap: square"/>
   </g>
   <g id="patch_6">
    <path d="M 56.87 10.8 
L 525.43 10.8 
" style="fill: none; stroke: #000000; stroke-width: 0.8; stroke-linejoin: miter; stroke-linecap: square"/>
   </g>
  </g>
  <g id="axes_2">
   <g id="matplotlib.axis_3">
    <g id="ytick_9">
     <g id="line2d_16">
      <defs>
       <path id="m280522d414" d="M 0 0 
L 3.5 0 
" style="stroke: #000000; stroke-width: 0.8"/>
      </defs>
      <g>
       <use xlink:href="#m280522d414" x="525.43" y="187.261873" style="stroke: #000000; stroke-width: 0.8"/>
      </g>
     </g>
     <g id="text_17">
      <text style="font: 10px 'DejaVu Sans', 'Bitstream Vera Sans', 'Computer Modern Sans Serif', 'Lucida Grande', 'Verdana', 'Geneva', 'Lucid', 'Arial', 'Helvetica', 'Avant Garde', sans-serif; text-anchor: start" x="532.43" y="191.061092" transform="rotate(-0 532.43 191.061092)">10</text>
     </g>
    </g>
    <g id="ytick_10">
     <g id="line2d_17">
      <g>
       <use xlink:href="#m280522d414" x="525.43" y="159.818347" style="stroke: #000000; stroke-width: 0.8"/>
      </g>
     </g>
     <g id="text_18">
      <text style="font: 10px 'DejaVu Sans', 'Bitstream Vera Sans', 'Computer Modern Sans Serif', 'Lucida Grande', 'Verdana', 'Geneva', 'Lucid', 'Arial', 'Helvetica', 'Avant Garde', sans-serif; text-anchor: start" x="532.43" y="163.617566" transform="rotate(-0 532.43 163.617566)">20</text>
     </g>
    </g>
    <g id="ytick_11">
     <g id="line2d_18">
      <g>
       <use xlink:href="#m280522d414" x="525.43" y="132.374821" style="stroke: #000000; stroke-width: 0.8"/>
      </g>
     </g>
     <g id="text_19">
      <text style="font: 10px 'DejaVu Sans', 'Bitstream Vera Sans', 'Computer Modern Sans Serif', 'Lucida Grande', 'Verdana', 'Geneva', 'Lucid', 'Arial', 'Helvetica', 'Avant Garde', sans-serif; text-anchor: start" x="532.43" y="136.17404" transform="rotate(-0 532.43 136.17404)">30</text>
     </g>
    </g>
    <g id="ytick_12">
     <g id="line2d_19">
      <g>
       <use xlink:href="#m280522d414" x="525.43" y="104.931295" style="stroke: #000000; stroke-width: 0.8"/>
      </g>
     </g>
     <g id="text_20">
      <text style="font: 10px 'DejaVu Sans', 'Bitstream Vera Sans', 'Computer Modern Sans Serif', 'Lucida Grande', 'Verdana', 'Geneva', 'Lucid', 'Arial', 'Helvetica', 'Avant Garde', sans-serif; text-anchor: start" x="532.43" y="108.730514" transform="rotate(-0 532.43 108.730514)">40</text>
     </g>
    </g>
    <g id="ytick_13">
     <g id="line2d_20">
      <g>
       <use xlink:href="#m280522d414" x="525.43" y="77.487769" style="stroke: #000000; stroke-width: 0.8"/>
      </g>
     </g>
     <g id="text_21">
      <text style="font: 10px 'DejaVu Sans', 'Bitstream Vera Sans', 'Computer Modern Sans Serif', 'Lucida Grande', 'Verdana', 'Geneva', 'Lucid', 'Arial', 'Helvetica', 'Avant Garde', sans-serif; text-anchor: start" x="532.43" y="81.286987" transform="rotate(-0 532.43 81.286987)">50</text>
     </g>
    </g>
    <g id="ytick_14">
     <g id="line2d_21">
      <g>
       <use xlink:href="#m280522d414" x="525.43" y="50.044242" style="stroke: #000000; stroke-width: 0.8"/>
      </g>
     </g>
     <g id="text_22">
      <text style="font: 10px 'DejaVu Sans', 'Bitstream Vera Sans', 'Computer Modern Sans Serif', 'Lucida Grande', 'Verdana', 'Geneva', 'Lucid', 'Arial', 'Helvetica', 'Avant Garde', sans-serif; text-anchor: start" x="532.43" y="53.843461" transform="rotate(-0 532.43 53.843461)">60</text>
     </g>
    </g>
    <g id="ytick_15">
     <g id="line2d_22">
      <g>
       <use xlink:href="#m280522d414" x="525.43" y="22.600716" style="stroke: #000000; stroke-width: 0.8"/>
      </g>
     </g>
     <g id="text_23">
      <text style="font: 10px 'DejaVu Sans', 'Bitstream Vera Sans', 'Computer Modern Sans Serif', 'Lucida Grande', 'Verdana', 'Geneva', 'Lucid', 'Arial', 'Helvetica', 'Avant Garde', sans-serif; text-anchor: start" x="532.43" y="26.399935" transform="rotate(-0 532.43 26.399935)">70</text>
     </g>
    </g>
    <g id="text_24">
     <text style="font: 10px 'DejaVu Sans', 'Bitstream Vera Sans', 'Computer Modern Sans Serif', 'Lucida Grande', 'Verdana', 'Geneva', 'Lucid', 'Arial', 'Helvetica', 'Avant Garde', sans-serif; text-anchor: middle" x="562.753438" y="110.42" transform="rotate(-90 562.753438 110.42)">hw(data)</text>
    </g>
   </g>
   <g id="line2d_23">
    <path d="M 78.168182 93.953884 
L 79.878879 96.698237 
L 81.589576 140.607879 
L 83.300274 39.066832 
L 85.010971 61.021653 
L 86.721668 58.2773 
L 88.432366 102.186942 
L 90.143063 71.999063 
L 91.85376 157.073994 
L 93.564458 151.585289 
L 95.275155 118.653058 
L 96.985853 77.487769 
L 98.69655 148.840937 
L 100.407247 93.953884 
L 102.117945 198.239284 
L 103.828642 102.186942 
L 105.539339 58.2773 
L 107.250037 124.141763 
L 108.960734 113.164353 
L 110.671431 173.54011 
L 112.382129 110.42 
L 114.092826 74.743416 
L 115.803523 55.532948 
L 117.514221 124.141763 
L 119.224918 110.42 
L 120.935615 124.141763 
L 122.646313 115.908705 
L 124.35701 126.886116 
L 126.067707 135.119174 
L 127.778405 71.999063 
L 129.489102 96.698237 
L 131.199799 52.788595 
L 132.910497 115.908705 
L 134.621194 135.119174 
L 136.331891 61.021653 
L 138.042589 88.465179 
L 139.753286 55.532948 
L 141.463983 88.465179 
L 143.174681 170.795758 
L 144.885378 55.532948 
L 146.596075 121.39741 
L 148.306773 173.54011 
L 150.01747 135.119174 
L 151.728167 195.494931 
L 153.438865 50.044242 
L 155.149562 99.44259 
L 156.860259 47.29989 
L 158.570957 157.073994 
L 160.281654 50.044242 
L 161.992351 58.2773 
L 163.703049 63.766006 
L 165.413746 168.051405 
L 167.124443 61.021653 
L 168.835141 77.487769 
L 170.545838 148.840937 
L 172.256535 50.044242 
L 173.967233 151.585289 
L 175.67793 41.811185 
L 177.388627 58.2773 
L 179.099325 140.607879 
L 180.810022 151.585289 
L 182.520719 176.284463 
L 184.231417 77.487769 
L 185.942114 85.720826 
L 187.652811 71.999063 
L 189.363509 82.976474 
L 191.074206 44.555537 
L 192.784903 52.788595 
L 194.495601 118.653058 
L 196.206298 39.066832 
L 197.916995 52.788595 
L 199.627693 93.953884 
L 201.33839 113.164353 
L 203.049087 41.811185 
L 204.759785 58.2773 
L 206.470482 146.096584 
L 208.181179 151.585289 
L 209.891877 85.720826 
L 211.602574 162.5627 
L 213.313271 148.840937 
L 215.023969 52.788595 
L 216.734666 126.886116 
L 218.445363 63.766006 
L 220.156061 50.044242 
L 221.866758 151.585289 
L 223.577455 176.284463 
L 225.288153 104.931295 
L 226.99885 143.352231 
L 228.709547 58.2773 
L 230.420245 190.006226 
L 232.130942 157.073994 
L 233.841639 69.254711 
L 235.552337 58.2773 
L 237.263034 77.487769 
L 238.973731 69.254711 
L 240.684429 99.44259 
L 242.395126 102.186942 
L 244.105823 143.352231 
L 245.816521 151.585289 
L 247.527218 151.585289 
L 249.237915 77.487769 
L 250.948613 115.908705 
L 252.65931 71.999063 
L 254.370007 190.006226 
L 256.080705 80.232121 
L 257.791402 77.487769 
L 259.502099 19.856364 
L 261.212797 52.788595 
L 262.923494 118.653058 
L 264.634191 22.600716 
L 266.344889 69.254711 
L 268.055586 104.931295 
L 269.766283 181.773168 
L 271.476981 154.329642 
L 273.187678 52.788595 
L 274.898375 132.374821 
L 276.609073 165.307052 
L 278.31977 58.2773 
L 281.741165 124.141763 
L 283.451862 104.931295 
L 285.162559 143.352231 
L 286.873257 80.232121 
L 288.583954 99.44259 
L 290.294651 96.698237 
L 292.005349 132.374821 
L 293.716046 77.487769 
L 295.426743 61.021653 
L 297.137441 129.630468 
L 298.848138 168.051405 
L 300.558835 137.863526 
L 302.269533 93.953884 
L 303.98023 107.675647 
L 305.690927 85.720826 
L 307.401625 55.532948 
L 309.112322 80.232121 
L 310.823019 162.5627 
L 312.533717 143.352231 
L 314.244414 85.720826 
L 315.955111 93.953884 
L 317.665809 129.630468 
L 319.376506 52.788595 
L 321.087203 30.833774 
L 322.797901 30.833774 
L 324.508598 69.254711 
L 326.219295 115.908705 
L 327.929993 99.44259 
L 329.64069 135.119174 
L 331.351387 71.999063 
L 333.062085 50.044242 
L 334.772782 55.532948 
L 336.483479 121.39741 
L 338.194177 129.630468 
L 339.904874 135.119174 
L 341.615571 55.532948 
L 343.326269 118.653058 
L 345.036966 113.164353 
L 346.747663 36.322479 
L 348.458361 61.021653 
L 351.879755 121.39741 
L 353.590453 80.232121 
L 355.30115 124.141763 
L 357.011847 124.141763 
L 358.722545 69.254711 
L 360.433242 146.096584 
L 362.143939 58.2773 
L 363.854637 154.329642 
L 365.565334 55.532948 
L 367.276031 148.840937 
L 368.986729 162.5627 
L 370.697426 132.374821 
L 372.408123 71.999063 
L 374.118821 93.953884 
L 375.829518 50.044242 
L 377.540215 124.141763 
L 379.250913 140.607879 
L 380.96161 124.141763 
L 382.672307 129.630468 
L 384.383005 47.29989 
L 386.093702 110.42 
L 387.804399 113.164353 
L 389.515097 82.976474 
L 391.225794 61.021653 
L 392.936491 126.886116 
L 394.647189 50.044242 
L 396.357886 74.743416 
L 398.068583 88.465179 
L 399.779281 107.675647 
L 401.489978 121.39741 
L 403.200675 200.983636 
L 404.911373 93.953884 
L 406.62207 80.232121 
L 408.332767 41.811185 
L 410.043465 93.953884 
L 411.754162 107.675647 
L 413.464859 52.788595 
L 415.175557 200.983636 
L 416.886254 124.141763 
L 418.596951 135.119174 
L 420.307649 132.374821 
L 422.018346 187.261873 
L 423.729043 44.555537 
L 425.439741 36.322479 
L 427.150438 77.487769 
L 428.861135 137.863526 
L 430.571833 55.532948 
L 432.28253 181.773168 
L 433.993227 187.261873 
L 435.703925 69.254711 
L 437.414622 146.096584 
L 439.125319 69.254711 
L 440.836017 126.886116 
L 442.546714 135.119174 
L 444.257411 118.653058 
L 445.968109 137.863526 
L 447.678806 176.284463 
L 449.389503 148.840937 
L 451.100201 58.2773 
L 452.810898 58.2773 
L 454.521595 102.186942 
L 457.94299 91.209532 
L 459.653687 159.818347 
L 461.364385 28.089421 
L 463.075082 113.164353 
L 464.785779 55.532948 
L 466.496477 176.284463 
L 468.207174 74.743416 
L 469.917871 102.186942 
L 471.628569 110.42 
L 473.339266 126.886116 
L 475.049963 104.931295 
L 476.760661 126.886116 
L 478.471358 91.209532 
L 480.182055 102.186942 
L 481.892753 184.517521 
L 483.60345 126.886116 
L 485.314147 61.021653 
L 487.024845 115.908705 
L 488.735542 41.811185 
L 490.44624 132.374821 
L 492.156937 28.089421 
L 493.867634 52.788595 
L 495.578332 135.119174 
L 497.289029 110.42 
L 498.999726 61.021653 
L 500.710424 107.675647 
L 502.421121 107.675647 
L 504.131818 50.044242 
L 504.131818 50.044242 
" clip-path="url(#pa441847273)" style="fill: none; stroke: #235996; stroke-width: 0.8; stroke-linecap: square"/>
   </g>
   <g id="patch_7">
    <path d="M 56.87 210.04 
L 56.87 10.8 
" style="fill: none; stroke: #000000; stroke-width: 0.8; stroke-linejoin: miter; stroke-linecap: square"/>
   </g>
   <g id="patch_8">
    <path d="M 525.43 210.04 
L 525.43 10.8 
" style="fill: none; stroke: #000000; stroke-width: 0.8; stroke-linejoin: miter; stroke-linecap: square"/>
   </g>
   <g id="patch_9">
    <path d="M 56.87 210.04 
L 525.43 210.04 
" style="fill: none; stroke: #000000; stroke-width: 0.8; stroke-linejoin: miter; stroke-linecap: square"/>
   </g>
   <g id="patch_10">
    <path d="M 56.87 10.8 
L 525.43 10.8 
" style="fill: none; stroke: #000000; stroke-width: 0.8; stroke-linejoin: miter; stroke-linecap: square"/>
   </g>
   <g id="legend_1">
    <g id="patch_11">
     <path d="M 150.539625 43.4565 
L 431.760375 43.4565 
Q 434.640375 43.4565 434.640375 40.5765 
L 434.640375 20.88 
Q 434.640375 18 431.760375 18 
L 150.539625 18 
Q 147.659625 18 147.659625 20.88 
L 147.659625 40.5765 
Q 147.659625 43.4565 150.539625 43.4565 
z
" style="fill: #ffffff; opacity: 0.8; stroke: #000000; stroke-linejoin: miter"/>
    </g>
    <g id="line2d_24">
     <path d="M 153.419625 29.66175 
L 167.819625 29.66175 
L 182.219625 29.66175 
" style="fill: none; stroke: #99004d; stroke-width: 0.8; stroke-linecap: square"/>
    </g>
    <g id="text_25">
     <text style="font: 14.4px 'DejaVu Sans', 'Bitstream Vera Sans', 'Computer Modern Sans Serif', 'Lucida Grande', 'Verdana', 'Geneva', 'Lucid', 'Arial', 'Helvetica', 'Avant Garde', sans-serif; text-anchor: start" x="193.739625" y="34.70175" transform="rotate(-0 193.739625 34.70175)">power</text>
    </g>
    <g id="line2d_25">
     <path d="M 267.049125 29.66175 
L 281.449125 29.66175 
L 295.849125 29.66175 
" style="fill: none; stroke: #235996; stroke-width: 0.8; stroke-linecap: square"/>
    </g>
    <g id="text_26">
     <text style="font: 14.4px 'DejaVu Sans', 'Bitstream Vera Sans', 'Computer Modern Sans Serif', 'Lucida Grande', 'Verdana', 'Geneva', 'Lucid', 'Arial', 'Helvetica', 'Avant Garde', sans-serif; text-anchor: start" x="307.369125" y="34.70175" transform="rotate(-0 307.369125 34.70175)">hw(rs1)+hw(rs2)</text>
    </g>
   </g>
  </g>
 </g>
 <defs>
  <clipPath id="pa441847273">
   <rect x="56.87" y="10.8" width="468.56" height="199.24"/>
  </clipPath>
 </defs>
</svg>
