<?xml version="1.0" encoding="utf-8" standalone="no"?>
<!DOCTYPE svg PUBLIC "-//W3C//DTD SVG 1.1//EN"
  "http://www.w3.org/Graphics/SVG/1.1/DTD/svg11.dtd">
<svg xmlns:xlink="http://www.w3.org/1999/xlink" width="576pt" height="252pt" viewBox="0 0 576 252" xmlns="http://www.w3.org/2000/svg" version="1.1">
 <metadata>
  <rdf:RDF xmlns:dc="http://purl.org/dc/elements/1.1/" xmlns:cc="http://creativecommons.org/ns#" xmlns:rdf="http://www.w3.org/1999/02/22-rdf-syntax-ns#">
   <cc:Work>
    <dc:type rdf:resource="http://purl.org/dc/dcmitype/StillImage"/>
    <dc:date>2023-12-06T04:12:43.883423</dc:date>
    <dc:format>image/svg+xml</dc:format>
    <dc:creator>
     <cc:Agent>
      <dc:title>Matplotlib v3.7.4, https://matplotlib.org/</dc:title>
     </cc:Agent>
    </dc:creator>
   </cc:Work>
  </rdf:RDF>
 </metadata>
 <defs>
  <style type="text/css">*{stroke-linejoin: round; stroke-linecap: butt}</style>
 </defs>
 <g id="figure_1">
  <g id="patch_1">
   <path d="M 0 252 
L 576 252 
L 576 0 
L 0 0 
z
" style="fill: #ffffff"/>
  </g>
  <g id="axes_1">
   <g id="patch_2">
    <path d="M 56.87 210.04 
L 525.43 210.04 
L 525.43 10.8 
L 56.87 10.8 
z
" style="fill: #ffffff"/>
   </g>
   <g id="matplotlib.axis_1">
    <g id="xtick_1">
     <g id="line2d_1">
      <defs>
       <path id="m94fd69155f" d="M 0 0 
L 0 3.5 
" style="stroke: #000000; stroke-width: 0.8"/>
      </defs>
      <g>
       <use xlink:href="#m94fd69155f" x="78.168182" y="210.04" style="stroke: #000000; stroke-width: 0.8"/>
      </g>
     </g>
     <g id="text_1">
      <text style="font: 10px 'DejaVu Sans', 'Bitstream Vera Sans', 'Computer Modern Sans Serif', 'Lucida Grande', 'Verdana', 'Geneva', 'Lucid', 'Arial', 'Helvetica', 'Avant Garde', sans-serif; text-anchor: middle" x="78.168182" y="224.638438" transform="rotate(-0 78.168182 224.638438)">0</text>
     </g>
    </g>
    <g id="xtick_2">
     <g id="line2d_2">
      <g>
       <use xlink:href="#m94fd69155f" x="163.703049" y="210.04" style="stroke: #000000; stroke-width: 0.8"/>
      </g>
     </g>
     <g id="text_2">
      <text style="font: 10px 'DejaVu Sans', 'Bitstream Vera Sans', 'Computer Modern Sans Serif', 'Lucida Grande', 'Verdana', 'Geneva', 'Lucid', 'Arial', 'Helvetica', 'Avant Garde', sans-serif; text-anchor: middle" x="163.703049" y="224.638438" transform="rotate(-0 163.703049 224.638438)">50</text>
     </g>
    </g>
    <g id="xtick_3">
     <g id="line2d_3">
      <g>
       <use xlink:href="#m94fd69155f" x="249.237915" y="210.04" style="stroke: #000000; stroke-width: 0.8"/>
      </g>
     </g>
     <g id="text_3">
      <text style="font: 10px 'DejaVu Sans', 'Bitstream Vera Sans', 'Computer Modern Sans Serif', 'Lucida Grande', 'Verdana', 'Geneva', 'Lucid', 'Arial', 'Helvetica', 'Avant Garde', sans-serif; text-anchor: middle" x="249.237915" y="224.638438" transform="rotate(-0 249.237915 224.638438)">100</text>
     </g>
    </g>
    <g id="xtick_4">
     <g id="line2d_4">
      <g>
       <use xlink:href="#m94fd69155f" x="334.772782" y="210.04" style="stroke: #000000; stroke-width: 0.8"/>
      </g>
     </g>
     <g id="text_4">
      <text style="font: 10px 'DejaVu Sans', 'Bitstream Vera Sans', 'Computer Modern Sans Serif', 'Lucida Grande', 'Verdana', 'Geneva', 'Lucid', 'Arial', 'Helvetica', 'Avant Garde', sans-serif; text-anchor: middle" x="334.772782" y="224.638438" transform="rotate(-0 334.772782 224.638438)">150</text>
     </g>
    </g>
    <g id="xtick_5">
     <g id="line2d_5">
      <g>
       <use xlink:href="#m94fd69155f" x="420.307649" y="210.04" style="stroke: #000000; stroke-width: 0.8"/>
      </g>
     </g>
     <g id="text_5">
      <text style="font: 10px 'DejaVu Sans', 'Bitstream Vera Sans', 'Computer Modern Sans Serif', 'Lucida Grande', 'Verdana', 'Geneva', 'Lucid', 'Arial', 'Helvetica', 'Avant Garde', sans-serif; text-anchor: middle" x="420.307649" y="224.638438" transform="rotate(-0 420.307649 224.638438)">200</text>
     </g>
    </g>
    <g id="xtick_6">
     <g id="line2d_6">
      <g>
       <use xlink:href="#m94fd69155f" x="505.842516" y="210.04" style="stroke: #000000; stroke-width: 0.8"/>
      </g>
     </g>
     <g id="text_6">
      <text style="font: 10px 'DejaVu Sans', 'Bitstream Vera Sans', 'Computer Modern Sans Serif', 'Lucida Grande', 'Verdana', 'Geneva', 'Lucid', 'Arial', 'Helvetica', 'Avant Garde', sans-serif; text-anchor: middle" x="505.842516" y="224.638438" transform="rotate(-0 505.842516 224.638438)">250</text>
     </g>
    </g>
    <g id="text_7">
     <text style="font: 10px 'DejaVu Sans', 'Bitstream Vera Sans', 'Computer Modern Sans Serif', 'Lucida Grande', 'Verdana', 'Geneva', 'Lucid', 'Arial', 'Helvetica', 'Avant Garde', sans-serif; text-anchor: middle" x="291.15" y="238.316563" transform="rotate(-0 291.15 238.316563)">Cycles</text>
    </g>
   </g>
   <g id="matplotlib.axis_2">
    <g id="ytick_1">
     <g id="line2d_7">
      <defs>
       <path id="md561f7c94f" d="M 0 0 
L -3.5 0 
" style="stroke: #000000; stroke-width: 0.8"/>
      </defs>
      <g>
       <use xlink:href="#md561f7c94f" x="56.87" y="200.983636" style="stroke: #000000; stroke-width: 0.8"/>
      </g>
     </g>
     <g id="text_8">
      <text style="font: 10px 'DejaVu Sans', 'Bitstream Vera Sans', 'Computer Modern Sans Serif', 'Lucida Grande', 'Verdana', 'Geneva', 'Lucid', 'Arial', 'Helvetica', 'Avant Garde', sans-serif; text-anchor: end" x="49.87" y="204.782855" transform="rotate(-0 49.87 204.782855)">50</text>
     </g>
    </g>
    <g id="ytick_2">
     <g id="line2d_8">
      <g>
       <use xlink:href="#md561f7c94f" x="56.87" y="176.440645" style="stroke: #000000; stroke-width: 0.8"/>
      </g>
     </g>
     <g id="text_9">
      <text style="font: 10px 'DejaVu Sans', 'Bitstream Vera Sans', 'Computer Modern Sans Serif', 'Lucida Grande', 'Verdana', 'Geneva', 'Lucid', 'Arial', 'Helvetica', 'Avant Garde', sans-serif; text-anchor: end" x="49.87" y="180.239864" transform="rotate(-0 49.87 180.239864)">100</text>
     </g>
    </g>
    <g id="ytick_3">
     <g id="line2d_9">
      <g>
       <use xlink:href="#md561f7c94f" x="56.87" y="151.897655" style="stroke: #000000; stroke-width: 0.8"/>
      </g>
     </g>
     <g id="text_10">
      <text style="font: 10px 'DejaVu Sans', 'Bitstream Vera Sans', 'Computer Modern Sans Serif', 'Lucida Grande', 'Verdana', 'Geneva', 'Lucid', 'Arial', 'Helvetica', 'Avant Garde', sans-serif; text-anchor: end" x="49.87" y="155.696873" transform="rotate(-0 49.87 155.696873)">150</text>
     </g>
    </g>
    <g id="ytick_4">
     <g id="line2d_10">
      <g>
       <use xlink:href="#md561f7c94f" x="56.87" y="127.354664" style="stroke: #000000; stroke-width: 0.8"/>
      </g>
     </g>
     <g id="text_11">
      <text style="font: 10px 'DejaVu Sans', 'Bitstream Vera Sans', 'Computer Modern Sans Serif', 'Lucida Grande', 'Verdana', 'Geneva', 'Lucid', 'Arial', 'Helvetica', 'Avant Garde', sans-serif; text-anchor: end" x="49.87" y="131.153882" transform="rotate(-0 49.87 131.153882)">200</text>
     </g>
    </g>
    <g id="ytick_5">
     <g id="line2d_11">
      <g>
       <use xlink:href="#md561f7c94f" x="56.87" y="102.811673" style="stroke: #000000; stroke-width: 0.8"/>
      </g>
     </g>
     <g id="text_12">
      <text style="font: 10px 'DejaVu Sans', 'Bitstream Vera Sans', 'Computer Modern Sans Serif', 'Lucida Grande', 'Verdana', 'Geneva', 'Lucid', 'Arial', 'Helvetica', 'Avant Garde', sans-serif; text-anchor: end" x="49.87" y="106.610892" transform="rotate(-0 49.87 106.610892)">250</text>
     </g>
    </g>
    <g id="ytick_6">
     <g id="line2d_12">
      <g>
       <use xlink:href="#md561f7c94f" x="56.87" y="78.268682" style="stroke: #000000; stroke-width: 0.8"/>
      </g>
     </g>
     <g id="text_13">
      <text style="font: 10px 'DejaVu Sans', 'Bitstream Vera Sans', 'Computer Modern Sans Serif', 'Lucida Grande', 'Verdana', 'Geneva', 'Lucid', 'Arial', 'Helvetica', 'Avant Garde', sans-serif; text-anchor: end" x="49.87" y="82.067901" transform="rotate(-0 49.87 82.067901)">300</text>
     </g>
    </g>
    <g id="ytick_7">
     <g id="line2d_13">
      <g>
       <use xlink:href="#md561f7c94f" x="56.87" y="53.725691" style="stroke: #000000; stroke-width: 0.8"/>
      </g>
     </g>
     <g id="text_14">
      <text style="font: 10px 'DejaVu Sans', 'Bitstream Vera Sans', 'Computer Modern Sans Serif', 'Lucida Grande', 'Verdana', 'Geneva', 'Lucid', 'Arial', 'Helvetica', 'Avant Garde', sans-serif; text-anchor: end" x="49.87" y="57.52491" transform="rotate(-0 49.87 57.52491)">350</text>
     </g>
    </g>
    <g id="ytick_8">
     <g id="line2d_14">
      <g>
       <use xlink:href="#md561f7c94f" x="56.87" y="29.1827" style="stroke: #000000; stroke-width: 0.8"/>
      </g>
     </g>
     <g id="text_15">
      <text style="font: 10px 'DejaVu Sans', 'Bitstream Vera Sans', 'Computer Modern Sans Serif', 'Lucida Grande', 'Verdana', 'Geneva', 'Lucid', 'Arial', 'Helvetica', 'Avant Garde', sans-serif; text-anchor: end" x="49.87" y="32.981919" transform="rotate(-0 49.87 32.981919)">400</text>
     </g>
    </g>
    <g id="text_16">
     <text style="font: 10px 'DejaVu Sans', 'Bitstream Vera Sans', 'Computer Modern Sans Serif', 'Lucida Grande', 'Verdana', 'Geneva', 'Lucid', 'Arial', 'Helvetica', 'Avant Garde', sans-serif; text-anchor: middle" x="18.702813" y="110.42" transform="rotate(-90 18.702813 110.42)">power (uW)</text>
    </g>
   </g>
   <g id="line2d_15">
    <path d="M 78.168182 53.725691 
L 79.878879 56.67085 
L 81.589576 87.104159 
L 83.300274 52.253112 
L 85.010971 100.848234 
L 86.721668 81.213841 
L 88.432366 92.994476 
L 90.143063 53.234831 
L 91.85376 97.903075 
L 93.564458 47.835373 
L 95.275155 60.106869 
L 96.985853 87.595018 
L 98.69655 27.710121 
L 100.407247 103.302533 
L 102.117945 19.856364 
L 103.828642 116.555748 
L 105.539339 72.869224 
L 107.250037 59.616009 
L 108.960734 61.088588 
L 110.671431 56.67085 
L 112.382129 61.088588 
L 114.092826 42.926775 
L 115.803523 154.842814 
L 117.514221 138.15358 
L 119.224918 30.65528 
L 120.935615 149.934215 
L 122.646313 98.884794 
L 124.35701 21.819803 
L 126.067707 38.509037 
L 127.778405 53.725691 
L 129.489102 53.234831 
L 131.199799 109.68371 
L 132.910497 53.234831 
L 134.621194 92.503617 
L 136.331891 65.506327 
L 138.042589 106.247692 
L 139.753286 114.101449 
L 141.463983 84.159 
L 143.174681 65.997186 
L 144.885378 49.307953 
L 146.596075 48.326233 
L 148.306773 42.435915 
L 150.01747 101.829953 
L 151.728167 80.232121 
L 153.438865 155.824533 
L 155.149562 38.018177 
L 158.570957 135.208421 
L 160.281654 118.519187 
L 161.992351 51.271392 
L 163.703049 61.579448 
L 165.413746 62.070308 
L 167.124443 69.433205 
L 168.835141 57.16171 
L 170.545838 39.490756 
L 172.256535 53.234831 
L 173.967233 89.558458 
L 175.67793 164.66001 
L 177.388627 122.446066 
L 179.099325 112.628869 
L 180.810022 62.561168 
L 182.520719 53.234831 
L 184.231417 49.798813 
L 185.942114 43.417635 
L 187.652811 134.226701 
L 189.363509 64.524607 
L 191.074206 118.028327 
L 192.784903 36.054738 
L 194.495601 48.326233 
L 196.206298 123.427785 
L 197.916995 50.780532 
L 199.627693 136.19014 
L 201.33839 34.582158 
L 203.049087 74.832663 
L 204.759785 41.454196 
L 206.470482 32.618719 
L 208.181179 63.542887 
L 209.891877 121.464346 
L 211.602574 59.125149 
L 213.313271 98.393934 
L 215.023969 56.67085 
L 216.734666 69.433205 
L 218.445363 24.764962 
L 220.156061 72.869224 
L 221.866758 47.835373 
L 223.577455 77.286962 
L 225.288153 102.811673 
L 226.99885 42.435915 
L 228.709547 73.850944 
L 230.420245 96.921355 
L 232.130942 38.509037 
L 233.841639 92.012757 
L 237.263034 36.545597 
L 238.973731 62.561168 
L 240.684429 70.414925 
L 242.395126 113.610589 
L 244.105823 78.268682 
L 245.816521 188.221281 
L 247.527218 171.532047 
L 249.237915 69.924065 
L 250.948613 69.924065 
L 252.65931 200.983636 
L 254.370007 77.777822 
L 256.080705 30.65528 
L 257.791402 121.464346 
L 259.502099 72.378364 
L 261.212797 199.020197 
L 262.923494 76.796102 
L 264.634191 33.600439 
L 266.344889 77.286962 
L 268.055586 186.257842 
L 269.766283 162.696571 
L 271.476981 91.521897 
L 273.187678 45.871934 
L 274.898375 53.234831 
L 276.609073 75.814383 
L 278.31977 72.378364 
L 280.030467 146.989056 
L 281.741165 68.451486 
L 283.451862 55.198271 
L 285.162559 43.417635 
L 286.873257 103.302533 
L 288.583954 55.68913 
L 290.294651 87.104159 
L 292.005349 52.253112 
L 293.716046 73.360084 
L 295.426743 113.610589 
L 297.137441 82.68642 
L 298.848138 64.524607 
L 300.558835 39.490756 
L 302.269533 91.031037 
L 303.98023 104.284252 
L 305.690927 51.271392 
L 307.401625 77.286962 
L 309.112322 53.725691 
L 310.823019 129.808963 
L 312.533717 47.344513 
L 315.955111 74.341803 
L 317.665809 74.832663 
L 319.376506 67.960626 
L 321.087203 43.908495 
L 322.797901 119.500907 
L 324.508598 49.307953 
L 326.219295 44.399355 
L 327.929993 96.921355 
L 329.64069 52.253112 
L 331.351387 62.070308 
L 333.062085 97.412215 
L 334.772782 84.64986 
L 336.483479 60.597729 
L 338.194177 188.221281 
L 339.904874 63.052028 
L 341.615571 105.756832 
L 343.326269 68.451486 
L 345.036966 49.307953 
L 346.747663 53.234831 
L 348.458361 38.999897 
L 350.169058 65.015467 
L 351.879755 82.19556 
L 353.590453 51.271392 
L 355.30115 159.751412 
L 357.011847 57.16171 
L 358.722545 53.234831 
L 360.433242 76.305243 
L 362.143939 59.125149 
L 363.854637 55.68913 
L 365.565334 62.070308 
L 367.276031 78.759542 
L 368.986729 57.65257 
L 372.408123 153.861094 
L 374.118821 46.362794 
L 375.829518 102.811673 
L 377.540215 54.216551 
L 379.250913 174.477206 
L 380.96161 165.641729 
L 382.672307 82.19556 
L 384.383005 49.307953 
L 386.093702 59.125149 
L 389.515097 39.490756 
L 391.225794 83.66814 
L 392.936491 133.735841 
L 394.647189 79.250402 
L 396.357886 85.140719 
L 398.068583 39.490756 
L 399.779281 73.850944 
L 401.489978 36.545597 
L 403.200675 29.67356 
L 404.911373 117.046608 
L 406.62207 65.506327 
L 408.332767 46.853654 
L 410.043465 90.049318 
L 411.754162 50.289672 
L 413.464859 63.052028 
L 415.175557 26.728401 
L 416.886254 53.725691 
L 418.596951 55.198271 
L 420.307649 53.234831 
L 422.018346 76.796102 
L 423.729043 60.106869 
L 425.439741 72.869224 
L 427.150438 110.17457 
L 428.861135 75.323523 
L 430.571833 118.519187 
L 432.28253 73.360084 
L 433.993227 70.905785 
L 435.703925 28.69184 
L 437.414622 73.850944 
L 439.125319 173.495487 
L 440.836017 175.458926 
L 442.546714 42.435915 
L 444.257411 147.970776 
L 445.968109 62.070308 
L 447.678806 56.17999 
L 449.389503 51.271392 
L 451.100201 80.722981 
L 452.810898 77.286962 
L 454.521595 84.159 
L 456.232293 85.140719 
L 457.94299 162.696571 
L 459.653687 124.409505 
L 461.364385 128.336383 
L 463.075082 91.031037 
L 464.785779 70.905785 
L 466.496477 131.281542 
L 468.207174 79.741261 
L 469.917871 130.299823 
L 471.628569 79.250402 
L 473.339266 110.17457 
L 475.049963 174.477206 
L 476.760661 61.088588 
L 478.471358 90.540177 
L 480.182055 123.427785 
L 481.892753 113.119729 
L 483.60345 86.122439 
L 485.314147 70.414925 
L 487.024845 48.326233 
L 488.735542 55.198271 
L 490.44624 102.811673 
L 492.156937 65.015467 
L 493.867634 81.704701 
L 495.578332 101.339093 
L 497.289029 107.720271 
L 498.999726 78.268682 
L 500.710424 73.850944 
L 502.421121 82.68642 
L 504.131818 58.634289 
L 504.131818 58.634289 
" clip-path="url(#p8e4765fb71)" style="fill: none; stroke: #99004d; stroke-width: 0.8; stroke-linecap: square"/>
   </g>
   <g id="patch_3">
    <path d="M 56.87 210.04 
L 56.87 10.8 
" style="fill: none; stroke: #000000; stroke-width: 0.8; stroke-linejoin: miter; stroke-linecap: square"/>
   </g>
   <g id="patch_4">
    <path d="M 525.43 210.04 
L 525.43 10.8 
" style="fill: none; stroke: #000000; stroke-width: 0.8; stroke-linejoin: miter; stroke-linecap: square"/>
   </g>
   <g id="patch_5">
    <path d="M 56.87 210.04 
L 525.43 210.04 
" style="fill: none; stroke: #000000; stroke-width: 0.8; stroke-linejoin: miter; stroke-linecap: square"/>
   </g>
   <g id="patch_6">
    <path d="M 56.87 10.8 
L 525.43 10.8 
" style="fill: none; stroke: #000000; stroke-width: 0.8; stroke-linejoin: miter; stroke-linecap: square"/>
   </g>
  </g>
  <g id="axes_2">
   <g id="matplotlib.axis_3">
    <g id="ytick_9">
     <g id="line2d_16">
      <defs>
       <path id="mc758d6c067" d="M 0 0 
L 3.5 0 
" style="stroke: #000000; stroke-width: 0.8"/>
      </defs>
      <g>
       <use xlink:href="#mc758d6c067" x="525.43" y="189.483492" style="stroke: #000000; stroke-width: 0.8"/>
      </g>
     </g>
     <g id="text_17">
      <text style="font: 10px 'DejaVu Sans', 'Bitstream Vera Sans', 'Computer Modern Sans Serif', 'Lucida Grande', 'Verdana', 'Geneva', 'Lucid', 'Arial', 'Helvetica', 'Avant Garde', sans-serif; text-anchor: start" x="532.43" y="193.282711" transform="rotate(-0 532.43 193.282711)">10</text>
     </g>
    </g>
    <g id="ytick_10">
     <g id="line2d_17">
      <g>
       <use xlink:href="#mc758d6c067" x="525.43" y="160.733131" style="stroke: #000000; stroke-width: 0.8"/>
      </g>
     </g>
     <g id="text_18">
      <text style="font: 10px 'DejaVu Sans', 'Bitstream Vera Sans', 'Computer Modern Sans Serif', 'Lucida Grande', 'Verdana', 'Geneva', 'Lucid', 'Arial', 'Helvetica', 'Avant Garde', sans-serif; text-anchor: start" x="532.43" y="164.53235" transform="rotate(-0 532.43 164.53235)">20</text>
     </g>
    </g>
    <g id="ytick_11">
     <g id="line2d_18">
      <g>
       <use xlink:href="#mc758d6c067" x="525.43" y="131.982771" style="stroke: #000000; stroke-width: 0.8"/>
      </g>
     </g>
     <g id="text_19">
      <text style="font: 10px 'DejaVu Sans', 'Bitstream Vera Sans', 'Computer Modern Sans Serif', 'Lucida Grande', 'Verdana', 'Geneva', 'Lucid', 'Arial', 'Helvetica', 'Avant Garde', sans-serif; text-anchor: start" x="532.43" y="135.781989" transform="rotate(-0 532.43 135.781989)">30</text>
     </g>
    </g>
    <g id="ytick_12">
     <g id="line2d_19">
      <g>
       <use xlink:href="#mc758d6c067" x="525.43" y="103.23241" style="stroke: #000000; stroke-width: 0.8"/>
      </g>
     </g>
     <g id="text_20">
      <text style="font: 10px 'DejaVu Sans', 'Bitstream Vera Sans', 'Computer Modern Sans Serif', 'Lucida Grande', 'Verdana', 'Geneva', 'Lucid', 'Arial', 'Helvetica', 'Avant Garde', sans-serif; text-anchor: start" x="532.43" y="107.031629" transform="rotate(-0 532.43 107.031629)">40</text>
     </g>
    </g>
    <g id="ytick_13">
     <g id="line2d_20">
      <g>
       <use xlink:href="#mc758d6c067" x="525.43" y="74.482049" style="stroke: #000000; stroke-width: 0.8"/>
      </g>
     </g>
     <g id="text_21">
      <text style="font: 10px 'DejaVu Sans', 'Bitstream Vera Sans', 'Computer Modern Sans Serif', 'Lucida Grande', 'Verdana', 'Geneva', 'Lucid', 'Arial', 'Helvetica', 'Avant Garde', sans-serif; text-anchor: start" x="532.43" y="78.281268" transform="rotate(-0 532.43 78.281268)">50</text>
     </g>
    </g>
    <g id="ytick_14">
     <g id="line2d_21">
      <g>
       <use xlink:href="#mc758d6c067" x="525.43" y="45.731688" style="stroke: #000000; stroke-width: 0.8"/>
      </g>
     </g>
     <g id="text_22">
      <text style="font: 10px 'DejaVu Sans', 'Bitstream Vera Sans', 'Computer Modern Sans Serif', 'Lucida Grande', 'Verdana', 'Geneva', 'Lucid', 'Arial', 'Helvetica', 'Avant Garde', sans-serif; text-anchor: start" x="532.43" y="49.530907" transform="rotate(-0 532.43 49.530907)">60</text>
     </g>
    </g>
    <g id="ytick_15">
     <g id="line2d_22">
      <g>
       <use xlink:href="#mc758d6c067" x="525.43" y="16.981328" style="stroke: #000000; stroke-width: 0.8"/>
      </g>
     </g>
     <g id="text_23">
      <text style="font: 10px 'DejaVu Sans', 'Bitstream Vera Sans', 'Computer Modern Sans Serif', 'Lucida Grande', 'Verdana', 'Geneva', 'Lucid', 'Arial', 'Helvetica', 'Avant Garde', sans-serif; text-anchor: start" x="532.43" y="20.780546" transform="rotate(-0 532.43 20.780546)">70</text>
     </g>
    </g>
    <g id="text_24">
     <text style="font: 10px 'DejaVu Sans', 'Bitstream Vera Sans', 'Computer Modern Sans Serif', 'Lucida Grande', 'Verdana', 'Geneva', 'Lucid', 'Arial', 'Helvetica', 'Avant Garde', sans-serif; text-anchor: middle" x="562.753438" y="110.42" transform="rotate(-90 562.753438 110.42)">hw(data)</text>
    </g>
   </g>
   <g id="line2d_23">
    <path d="M 78.168182 68.731977 
L 79.878879 129.107734 
L 81.589576 126.232698 
L 83.300274 60.106869 
L 85.010971 88.857229 
L 86.721668 163.608167 
L 88.432366 88.857229 
L 90.143063 80.232121 
L 91.85376 129.107734 
L 93.564458 48.606724 
L 95.275155 103.23241 
L 96.985853 19.856364 
L 98.69655 28.481472 
L 100.407247 65.856941 
L 102.117945 19.856364 
L 103.828642 106.107446 
L 105.539339 120.482626 
L 108.960734 108.982482 
L 110.671431 45.731688 
L 112.382129 103.23241 
L 114.092826 45.731688 
L 115.803523 126.232698 
L 117.514221 120.482626 
L 119.224918 39.981616 
L 120.935615 126.232698 
L 122.646313 140.607879 
L 124.35701 34.231544 
L 126.067707 37.10658 
L 127.778405 97.482338 
L 129.489102 108.982482 
L 131.199799 172.233276 
L 132.910497 103.23241 
L 134.621194 137.732843 
L 136.331891 74.482049 
L 138.042589 152.108023 
L 139.753286 94.607302 
L 141.463983 74.482049 
L 143.174681 39.981616 
L 144.885378 83.107157 
L 146.596075 65.856941 
L 148.306773 45.731688 
L 150.01747 149.232987 
L 151.728167 111.857518 
L 153.438865 192.358528 
L 155.149562 57.231833 
L 156.860259 34.231544 
L 158.570957 180.858384 
L 160.281654 108.982482 
L 161.992351 88.857229 
L 163.703049 134.857807 
L 165.413746 129.107734 
L 167.124443 111.857518 
L 168.835141 117.60759 
L 170.545838 39.981616 
L 172.256535 97.482338 
L 173.967233 80.232121 
L 175.67793 175.108312 
L 177.388627 154.983059 
L 179.099325 91.732266 
L 180.810022 88.857229 
L 182.520719 83.107157 
L 184.231417 48.606724 
L 185.942114 88.857229 
L 187.652811 140.607879 
L 189.363509 108.982482 
L 191.074206 120.482626 
L 192.784903 51.48176 
L 194.495601 48.606724 
L 196.206298 180.858384 
L 197.916995 71.607013 
L 199.627693 152.108023 
L 201.33839 48.606724 
L 203.049087 111.857518 
L 204.759785 28.481472 
L 206.470482 57.231833 
L 208.181179 120.482626 
L 209.891877 106.107446 
L 211.602574 85.982193 
L 213.313271 114.732554 
L 215.023969 71.607013 
L 216.734666 106.107446 
L 218.445363 39.981616 
L 220.156061 97.482338 
L 221.866758 42.856652 
L 223.577455 140.607879 
L 225.288153 120.482626 
L 226.99885 42.856652 
L 228.709547 88.857229 
L 230.420245 149.232987 
L 232.130942 71.607013 
L 233.841639 120.482626 
L 235.552337 88.857229 
L 237.263034 37.10658 
L 238.973731 74.482049 
L 240.684429 106.107446 
L 242.395126 108.982482 
L 244.105823 97.482338 
L 245.816521 172.233276 
L 247.527218 120.482626 
L 249.237915 126.232698 
L 250.948613 48.606724 
L 252.65931 175.108312 
L 254.370007 106.107446 
L 256.080705 62.981905 
L 257.791402 108.982482 
L 259.502099 106.107446 
L 261.212797 166.483203 
L 262.923494 126.232698 
L 264.634191 51.48176 
L 266.344889 100.357374 
L 268.055586 177.983348 
L 269.766283 195.233564 
L 271.476981 77.357085 
L 273.187678 65.856941 
L 274.898375 77.357085 
L 276.609073 120.482626 
L 278.31977 91.732266 
L 280.030467 189.483492 
L 281.741165 117.60759 
L 283.451862 68.731977 
L 285.162559 60.106869 
L 286.873257 80.232121 
L 288.583954 71.607013 
L 290.294651 117.60759 
L 292.005349 74.482049 
L 293.716046 37.10658 
L 295.426743 129.107734 
L 297.137441 88.857229 
L 298.848138 154.983059 
L 300.558835 74.482049 
L 302.269533 146.357951 
L 303.98023 172.233276 
L 305.690927 45.731688 
L 307.401625 77.357085 
L 309.112322 68.731977 
L 310.823019 117.60759 
L 312.533717 37.10658 
L 314.244414 111.857518 
L 315.955111 123.357662 
L 317.665809 100.357374 
L 319.376506 111.857518 
L 321.087203 57.231833 
L 322.797901 120.482626 
L 324.508598 97.482338 
L 326.219295 42.856652 
L 327.929993 134.857807 
L 329.64069 57.231833 
L 331.351387 106.107446 
L 333.062085 34.231544 
L 334.772782 154.983059 
L 336.483479 39.981616 
L 338.194177 146.357951 
L 339.904874 60.106869 
L 341.615571 129.107734 
L 343.326269 108.982482 
L 345.036966 80.232121 
L 346.747663 108.982482 
L 348.458361 42.856652 
L 350.169058 48.606724 
L 351.879755 91.732266 
L 353.590453 37.10658 
L 355.30115 200.983636 
L 357.011847 45.731688 
L 360.433242 74.482049 
L 362.143939 83.107157 
L 363.854637 77.357085 
L 365.565334 111.857518 
L 367.276031 77.357085 
L 368.986729 85.982193 
L 370.697426 114.732554 
L 372.408123 114.732554 
L 374.118821 37.10658 
L 375.829518 97.482338 
L 377.540215 68.731977 
L 379.250913 160.733131 
L 380.96161 126.232698 
L 382.672307 108.982482 
L 384.383005 60.106869 
L 386.093702 57.231833 
L 387.804399 83.107157 
L 389.515097 39.981616 
L 391.225794 77.357085 
L 392.936491 123.357662 
L 394.647189 88.857229 
L 396.357886 120.482626 
L 398.068583 37.10658 
L 399.779281 68.731977 
L 401.489978 45.731688 
L 403.200675 19.856364 
L 404.911373 91.732266 
L 406.62207 94.607302 
L 408.332767 48.606724 
L 410.043465 103.23241 
L 411.754162 85.982193 
L 413.464859 97.482338 
L 415.175557 31.356508 
L 416.886254 62.981905 
L 418.596951 48.606724 
L 420.307649 94.607302 
L 422.018346 108.982482 
L 423.729043 106.107446 
L 425.439741 80.232121 
L 427.150438 71.607013 
L 428.861135 74.482049 
L 430.571833 169.35824 
L 432.28253 103.23241 
L 433.993227 77.357085 
L 435.703925 19.856364 
L 437.414622 57.231833 
L 439.125319 143.482915 
L 440.836017 189.483492 
L 442.546714 60.106869 
L 444.257411 149.232987 
L 445.968109 71.607013 
L 447.678806 117.60759 
L 449.389503 45.731688 
L 451.100201 111.857518 
L 452.810898 114.732554 
L 454.521595 131.982771 
L 456.232293 140.607879 
L 457.94299 140.607879 
L 459.653687 123.357662 
L 461.364385 175.108312 
L 463.075082 103.23241 
L 464.785779 94.607302 
L 466.496477 129.107734 
L 468.207174 131.982771 
L 469.917871 120.482626 
L 471.628569 103.23241 
L 473.339266 186.608456 
L 475.049963 114.732554 
L 476.760661 85.982193 
L 478.471358 83.107157 
L 480.182055 134.857807 
L 481.892753 172.233276 
L 483.60345 114.732554 
L 485.314147 83.107157 
L 487.024845 60.106869 
L 488.735542 91.732266 
L 490.44624 134.857807 
L 492.156937 120.482626 
L 493.867634 149.232987 
L 495.578332 157.858095 
L 497.289029 143.482915 
L 498.999726 91.732266 
L 500.710424 108.982482 
L 502.421121 131.982771 
L 504.131818 111.857518 
L 504.131818 111.857518 
" clip-path="url(#p8e4765fb71)" style="fill: none; stroke: #235996; stroke-width: 0.8; stroke-linecap: square"/>
   </g>
   <g id="patch_7">
    <path d="M 56.87 210.04 
L 56.87 10.8 
" style="fill: none; stroke: #000000; stroke-width: 0.8; stroke-linejoin: miter; stroke-linecap: square"/>
   </g>
   <g id="patch_8">
    <path d="M 525.43 210.04 
L 525.43 10.8 
" style="fill: none; stroke: #000000; stroke-width: 0.8; stroke-linejoin: miter; stroke-linecap: square"/>
   </g>
   <g id="patch_9">
    <path d="M 56.87 210.04 
L 525.43 210.04 
" style="fill: none; stroke: #000000; stroke-width: 0.8; stroke-linejoin: miter; stroke-linecap: square"/>
   </g>
   <g id="patch_10">
    <path d="M 56.87 10.8 
L 525.43 10.8 
" style="fill: none; stroke: #000000; stroke-width: 0.8; stroke-linejoin: miter; stroke-linecap: square"/>
   </g>
   <g id="legend_1">
    <g id="patch_11">
     <path d="M 150.539625 43.4565 
L 431.760375 43.4565 
Q 434.640375 43.4565 434.640375 40.5765 
L 434.640375 20.88 
Q 434.640375 18 431.760375 18 
L 150.539625 18 
Q 147.659625 18 147.659625 20.88 
L 147.659625 40.5765 
Q 147.659625 43.4565 150.539625 43.4565 
z
" style="fill: #ffffff; opacity: 0.8; stroke: #000000; stroke-linejoin: miter"/>
    </g>
    <g id="line2d_24">
     <path d="M 153.419625 29.66175 
L 167.819625 29.66175 
L 182.219625 29.66175 
" style="fill: none; stroke: #99004d; stroke-width: 0.8; stroke-linecap: square"/>
    </g>
    <g id="text_25">
     <text style="font: 14.4px 'DejaVu Sans', 'Bitstream Vera Sans', 'Computer Modern Sans Serif', 'Lucida Grande', 'Verdana', 'Geneva', 'Lucid', 'Arial', 'Helvetica', 'Avant Garde', sans-serif; text-anchor: start" x="193.739625" y="34.70175" transform="rotate(-0 193.739625 34.70175)">power</text>
    </g>
    <g id="line2d_25">
     <path d="M 267.049125 29.66175 
L 281.449125 29.66175 
L 295.849125 29.66175 
" style="fill: none; stroke: #235996; stroke-width: 0.8; stroke-linecap: square"/>
    </g>
    <g id="text_26">
     <text style="font: 14.4px 'DejaVu Sans', 'Bitstream Vera Sans', 'Computer Modern Sans Serif', 'Lucida Grande', 'Verdana', 'Geneva', 'Lucid', 'Arial', 'Helvetica', 'Avant Garde', sans-serif; text-anchor: start" x="307.369125" y="34.70175" transform="rotate(-0 307.369125 34.70175)">hw(rs1)+hw(rs2)</text>
    </g>
   </g>
  </g>
 </g>
 <defs>
  <clipPath id="p8e4765fb71">
   <rect x="56.87" y="10.8" width="468.56" height="199.24"/>
  </clipPath>
 </defs>
</svg>
