<?xml version="1.0" encoding="utf-8" standalone="no"?>
<!DOCTYPE svg PUBLIC "-//W3C//DTD SVG 1.1//EN"
  "http://www.w3.org/Graphics/SVG/1.1/DTD/svg11.dtd">
<svg xmlns:xlink="http://www.w3.org/1999/xlink" width="576pt" height="252pt" viewBox="0 0 576 252" xmlns="http://www.w3.org/2000/svg" version="1.1">
 <metadata>
  <rdf:RDF xmlns:dc="http://purl.org/dc/elements/1.1/" xmlns:cc="http://creativecommons.org/ns#" xmlns:rdf="http://www.w3.org/1999/02/22-rdf-syntax-ns#">
   <cc:Work>
    <dc:type rdf:resource="http://purl.org/dc/dcmitype/StillImage"/>
    <dc:date>2023-11-26T17:36:54.360756</dc:date>
    <dc:format>image/svg+xml</dc:format>
    <dc:creator>
     <cc:Agent>
      <dc:title>Matplotlib v3.8.2, https://matplotlib.org/</dc:title>
     </cc:Agent>
    </dc:creator>
   </cc:Work>
  </rdf:RDF>
 </metadata>
 <defs>
  <style type="text/css">*{stroke-linejoin: round; stroke-linecap: butt}</style>
 </defs>
 <g id="figure_1">
  <g id="patch_1">
   <path d="M 0 252 
L 576 252 
L 576 0 
L 0 0 
z
" style="fill: #ffffff"/>
  </g>
  <g id="axes_1">
   <g id="patch_2">
    <path d="M 56.87 210.04 
L 525.43 210.04 
L 525.43 10.8 
L 56.87 10.8 
z
" style="fill: #ffffff"/>
   </g>
   <g id="matplotlib.axis_1">
    <g id="xtick_1">
     <g id="line2d_1">
      <defs>
       <path id="m2911b01042" d="M 0 0 
L 0 3.5 
" style="stroke: #000000; stroke-width: 0.8"/>
      </defs>
      <g>
       <use xlink:href="#m2911b01042" x="78.168182" y="210.04" style="stroke: #000000; stroke-width: 0.8"/>
      </g>
     </g>
     <g id="text_1">
      <text style="font: 10px 'DejaVu Sans', 'Bitstream Vera Sans', 'Computer Modern Sans Serif', 'Lucida Grande', 'Verdana', 'Geneva', 'Lucid', 'Arial', 'Helvetica', 'Avant Garde', sans-serif; text-anchor: middle" x="78.168182" y="224.638438" transform="rotate(-0 78.168182 224.638438)">0</text>
     </g>
    </g>
    <g id="xtick_2">
     <g id="line2d_2">
      <g>
       <use xlink:href="#m2911b01042" x="163.703049" y="210.04" style="stroke: #000000; stroke-width: 0.8"/>
      </g>
     </g>
     <g id="text_2">
      <text style="font: 10px 'DejaVu Sans', 'Bitstream Vera Sans', 'Computer Modern Sans Serif', 'Lucida Grande', 'Verdana', 'Geneva', 'Lucid', 'Arial', 'Helvetica', 'Avant Garde', sans-serif; text-anchor: middle" x="163.703049" y="224.638438" transform="rotate(-0 163.703049 224.638438)">50</text>
     </g>
    </g>
    <g id="xtick_3">
     <g id="line2d_3">
      <g>
       <use xlink:href="#m2911b01042" x="249.237915" y="210.04" style="stroke: #000000; stroke-width: 0.8"/>
      </g>
     </g>
     <g id="text_3">
      <text style="font: 10px 'DejaVu Sans', 'Bitstream Vera Sans', 'Computer Modern Sans Serif', 'Lucida Grande', 'Verdana', 'Geneva', 'Lucid', 'Arial', 'Helvetica', 'Avant Garde', sans-serif; text-anchor: middle" x="249.237915" y="224.638438" transform="rotate(-0 249.237915 224.638438)">100</text>
     </g>
    </g>
    <g id="xtick_4">
     <g id="line2d_4">
      <g>
       <use xlink:href="#m2911b01042" x="334.772782" y="210.04" style="stroke: #000000; stroke-width: 0.8"/>
      </g>
     </g>
     <g id="text_4">
      <text style="font: 10px 'DejaVu Sans', 'Bitstream Vera Sans', 'Computer Modern Sans Serif', 'Lucida Grande', 'Verdana', 'Geneva', 'Lucid', 'Arial', 'Helvetica', 'Avant Garde', sans-serif; text-anchor: middle" x="334.772782" y="224.638438" transform="rotate(-0 334.772782 224.638438)">150</text>
     </g>
    </g>
    <g id="xtick_5">
     <g id="line2d_5">
      <g>
       <use xlink:href="#m2911b01042" x="420.307649" y="210.04" style="stroke: #000000; stroke-width: 0.8"/>
      </g>
     </g>
     <g id="text_5">
      <text style="font: 10px 'DejaVu Sans', 'Bitstream Vera Sans', 'Computer Modern Sans Serif', 'Lucida Grande', 'Verdana', 'Geneva', 'Lucid', 'Arial', 'Helvetica', 'Avant Garde', sans-serif; text-anchor: middle" x="420.307649" y="224.638438" transform="rotate(-0 420.307649 224.638438)">200</text>
     </g>
    </g>
    <g id="xtick_6">
     <g id="line2d_6">
      <g>
       <use xlink:href="#m2911b01042" x="505.842516" y="210.04" style="stroke: #000000; stroke-width: 0.8"/>
      </g>
     </g>
     <g id="text_6">
      <text style="font: 10px 'DejaVu Sans', 'Bitstream Vera Sans', 'Computer Modern Sans Serif', 'Lucida Grande', 'Verdana', 'Geneva', 'Lucid', 'Arial', 'Helvetica', 'Avant Garde', sans-serif; text-anchor: middle" x="505.842516" y="224.638438" transform="rotate(-0 505.842516 224.638438)">250</text>
     </g>
    </g>
    <g id="text_7">
     <text style="font: 10px 'DejaVu Sans', 'Bitstream Vera Sans', 'Computer Modern Sans Serif', 'Lucida Grande', 'Verdana', 'Geneva', 'Lucid', 'Arial', 'Helvetica', 'Avant Garde', sans-serif; text-anchor: middle" x="291.15" y="238.316563" transform="rotate(-0 291.15 238.316563)">Cycles</text>
    </g>
   </g>
   <g id="matplotlib.axis_2">
    <g id="ytick_1">
     <g id="line2d_7">
      <defs>
       <path id="m5930b8401a" d="M 0 0 
L -3.5 0 
" style="stroke: #000000; stroke-width: 0.8"/>
      </defs>
      <g>
       <use xlink:href="#m5930b8401a" x="56.87" y="200.983636" style="stroke: #000000; stroke-width: 0.8"/>
      </g>
     </g>
     <g id="text_8">
      <text style="font: 10px 'DejaVu Sans', 'Bitstream Vera Sans', 'Computer Modern Sans Serif', 'Lucida Grande', 'Verdana', 'Geneva', 'Lucid', 'Arial', 'Helvetica', 'Avant Garde', sans-serif; text-anchor: end" x="49.87" y="204.782855" transform="rotate(-0 49.87 204.782855)">50</text>
     </g>
    </g>
    <g id="ytick_2">
     <g id="line2d_8">
      <g>
       <use xlink:href="#m5930b8401a" x="56.87" y="176.703841" style="stroke: #000000; stroke-width: 0.8"/>
      </g>
     </g>
     <g id="text_9">
      <text style="font: 10px 'DejaVu Sans', 'Bitstream Vera Sans', 'Computer Modern Sans Serif', 'Lucida Grande', 'Verdana', 'Geneva', 'Lucid', 'Arial', 'Helvetica', 'Avant Garde', sans-serif; text-anchor: end" x="49.87" y="180.50306" transform="rotate(-0 49.87 180.50306)">100</text>
     </g>
    </g>
    <g id="ytick_3">
     <g id="line2d_9">
      <g>
       <use xlink:href="#m5930b8401a" x="56.87" y="152.424046" style="stroke: #000000; stroke-width: 0.8"/>
      </g>
     </g>
     <g id="text_10">
      <text style="font: 10px 'DejaVu Sans', 'Bitstream Vera Sans', 'Computer Modern Sans Serif', 'Lucida Grande', 'Verdana', 'Geneva', 'Lucid', 'Arial', 'Helvetica', 'Avant Garde', sans-serif; text-anchor: end" x="49.87" y="156.223265" transform="rotate(-0 49.87 156.223265)">150</text>
     </g>
    </g>
    <g id="ytick_4">
     <g id="line2d_10">
      <g>
       <use xlink:href="#m5930b8401a" x="56.87" y="128.144251" style="stroke: #000000; stroke-width: 0.8"/>
      </g>
     </g>
     <g id="text_11">
      <text style="font: 10px 'DejaVu Sans', 'Bitstream Vera Sans', 'Computer Modern Sans Serif', 'Lucida Grande', 'Verdana', 'Geneva', 'Lucid', 'Arial', 'Helvetica', 'Avant Garde', sans-serif; text-anchor: end" x="49.87" y="131.943469" transform="rotate(-0 49.87 131.943469)">200</text>
     </g>
    </g>
    <g id="ytick_5">
     <g id="line2d_11">
      <g>
       <use xlink:href="#m5930b8401a" x="56.87" y="103.864455" style="stroke: #000000; stroke-width: 0.8"/>
      </g>
     </g>
     <g id="text_12">
      <text style="font: 10px 'DejaVu Sans', 'Bitstream Vera Sans', 'Computer Modern Sans Serif', 'Lucida Grande', 'Verdana', 'Geneva', 'Lucid', 'Arial', 'Helvetica', 'Avant Garde', sans-serif; text-anchor: end" x="49.87" y="107.663674" transform="rotate(-0 49.87 107.663674)">250</text>
     </g>
    </g>
    <g id="ytick_6">
     <g id="line2d_12">
      <g>
       <use xlink:href="#m5930b8401a" x="56.87" y="79.58466" style="stroke: #000000; stroke-width: 0.8"/>
      </g>
     </g>
     <g id="text_13">
      <text style="font: 10px 'DejaVu Sans', 'Bitstream Vera Sans', 'Computer Modern Sans Serif', 'Lucida Grande', 'Verdana', 'Geneva', 'Lucid', 'Arial', 'Helvetica', 'Avant Garde', sans-serif; text-anchor: end" x="49.87" y="83.383879" transform="rotate(-0 49.87 83.383879)">300</text>
     </g>
    </g>
    <g id="ytick_7">
     <g id="line2d_13">
      <g>
       <use xlink:href="#m5930b8401a" x="56.87" y="55.304865" style="stroke: #000000; stroke-width: 0.8"/>
      </g>
     </g>
     <g id="text_14">
      <text style="font: 10px 'DejaVu Sans', 'Bitstream Vera Sans', 'Computer Modern Sans Serif', 'Lucida Grande', 'Verdana', 'Geneva', 'Lucid', 'Arial', 'Helvetica', 'Avant Garde', sans-serif; text-anchor: end" x="49.87" y="59.104083" transform="rotate(-0 49.87 59.104083)">350</text>
     </g>
    </g>
    <g id="ytick_8">
     <g id="line2d_14">
      <g>
       <use xlink:href="#m5930b8401a" x="56.87" y="31.025069" style="stroke: #000000; stroke-width: 0.8"/>
      </g>
     </g>
     <g id="text_15">
      <text style="font: 10px 'DejaVu Sans', 'Bitstream Vera Sans', 'Computer Modern Sans Serif', 'Lucida Grande', 'Verdana', 'Geneva', 'Lucid', 'Arial', 'Helvetica', 'Avant Garde', sans-serif; text-anchor: end" x="49.87" y="34.824288" transform="rotate(-0 49.87 34.824288)">400</text>
     </g>
    </g>
    <g id="text_16">
     <text style="font: 10px 'DejaVu Sans', 'Bitstream Vera Sans', 'Computer Modern Sans Serif', 'Lucida Grande', 'Verdana', 'Geneva', 'Lucid', 'Arial', 'Helvetica', 'Avant Garde', sans-serif; text-anchor: middle" x="18.702813" y="110.42" transform="rotate(-90 18.702813 110.42)">power (uW)</text>
    </g>
   </g>
   <g id="line2d_15">
    <path d="M 78.168182 90.26777 
L 79.878879 63.074399 
L 81.589576 24.712323 
L 83.300274 64.531187 
L 85.010971 181.5598 
L 86.721668 29.568282 
L 88.432366 99.979688 
L 90.143063 67.444762 
L 91.85376 56.276057 
L 93.564458 96.580517 
L 95.275155 71.815126 
L 96.985853 198.070061 
L 100.407247 55.790461 
L 102.117945 70.358338 
L 103.828642 89.782174 
L 105.539339 67.444762 
L 107.250037 70.358338 
L 108.960734 21.798747 
L 110.671431 200.983636 
L 112.382129 29.568282 
L 114.092826 64.531187 
L 115.803523 58.704036 
L 117.514221 178.646225 
L 119.224918 52.876885 
L 120.935615 88.325386 
L 122.646313 153.395238 
L 124.35701 100.95088 
L 126.067707 29.568282 
L 127.778405 88.810982 
L 129.489102 96.094921 
L 131.199799 40.251392 
L 132.910497 197.098869 
L 134.621194 33.453049 
L 136.331891 122.3171 
L 138.042589 38.309008 
L 141.463983 186.415759 
L 143.174681 61.617612 
L 144.885378 82.498235 
L 146.596075 133.971401 
L 148.306773 44.621755 
L 150.01747 63.074399 
L 151.728167 146.596895 
L 153.438865 57.247248 
L 155.149562 67.930358 
L 156.860259 94.152537 
L 158.570957 95.609325 
L 160.281654 59.675228 
L 161.992351 50.934502 
L 163.703049 77.642276 
L 165.413746 90.26777 
L 167.124443 60.64642 
L 168.835141 106.778031 
L 170.545838 28.59709 
L 172.256535 69.387146 
L 173.967233 86.868599 
L 175.67793 75.699893 
L 177.388627 89.296578 
L 179.099325 82.498235 
L 180.810022 86.868599 
L 182.520719 94.638133 
L 185.942114 53.848077 
L 187.652811 65.016783 
L 189.363509 108.720414 
L 191.074206 50.934502 
L 192.784903 63.559995 
L 194.495601 34.424241 
L 196.206298 68.415954 
L 197.916995 89.782174 
L 199.627693 93.666941 
L 201.33839 58.21844 
L 203.049087 27.625898 
L 204.759785 51.420097 
L 206.470482 50.934502 
L 208.181179 182.530992 
L 209.891877 44.136159 
L 211.602574 54.819269 
L 215.023969 170.87669 
L 216.734666 100.465284 
L 218.445363 86.868599 
L 220.156061 53.848077 
L 221.866758 134.942593 
L 223.577455 150.481662 
L 225.288153 134.456997 
L 226.99885 69.387146 
L 228.709547 48.020926 
L 230.420245 57.732844 
L 232.130942 88.810982 
L 233.841639 61.617612 
L 235.552337 180.588608 
L 237.263034 43.164967 
L 238.973731 104.835647 
L 240.684429 50.934502 
L 242.395126 62.588803 
L 244.105823 69.387146 
L 245.816521 70.358338 
L 247.527218 78.127872 
L 249.237915 40.251392 
L 250.948613 44.621755 
L 252.65931 109.691606 
L 254.370007 90.26777 
L 256.080705 95.609325 
L 257.791402 63.559995 
L 259.502099 53.848077 
L 261.212797 115.518757 
L 262.923494 67.444762 
L 264.634191 56.276057 
L 266.344889 197.098869 
L 268.055586 182.530992 
L 269.766283 50.934502 
L 271.476981 19.856364 
L 273.187678 63.559995 
L 274.898375 140.769744 
L 276.609073 166.020731 
L 278.31977 84.440619 
L 280.030467 30.539474 
L 281.741165 91.238962 
L 283.451862 29.568282 
L 285.162559 65.502379 
L 286.873257 144.654511 
L 288.583954 52.391289 
L 290.294651 135.913785 
L 292.005349 55.790461 
L 293.716046 69.387146 
L 295.426743 54.819269 
L 297.137441 189.329335 
L 298.848138 160.19358 
L 300.558835 48.020926 
L 302.269533 55.790461 
L 303.98023 92.210154 
L 305.690927 105.321243 
L 307.401625 77.15668 
L 309.112322 34.424241 
L 310.823019 66.473571 
L 312.533717 60.64642 
L 314.244414 83.469427 
L 315.955111 86.383003 
L 317.665809 79.099064 
L 319.376506 81.041448 
L 321.087203 164.078348 
L 322.797901 56.761652 
L 324.508598 140.769744 
L 326.219295 94.638133 
L 327.929993 68.90155 
L 329.64069 165.049539 
L 331.351387 72.300721 
L 333.062085 119.403524 
L 334.772782 79.099064 
L 336.483479 56.761652 
L 338.194177 84.440619 
L 339.904874 43.164967 
L 341.615571 55.790461 
L 343.326269 55.790461 
L 345.036966 36.366624 
L 346.747663 49.96331 
L 348.458361 60.160824 
L 350.169058 74.728701 
L 351.879755 68.415954 
L 353.590453 73.271913 
L 355.30115 68.90155 
L 357.011847 50.448906 
L 358.722545 118.917928 
L 360.433242 51.905693 
L 362.143939 97.066113 
L 363.854637 111.63399 
L 367.276031 123.288291 
L 368.986729 115.033161 
L 370.697426 89.296578 
L 372.408123 76.671085 
L 374.118821 90.26777 
L 375.829518 32.481857 
L 377.540215 45.107351 
L 379.250913 38.309008 
L 380.96161 80.070256 
L 382.672307 76.671085 
L 384.383005 41.222583 
L 387.804399 101.436476 
L 389.515097 154.366429 
L 391.225794 54.333673 
L 392.936491 113.090777 
L 394.647189 142.226532 
L 396.357886 48.992118 
L 398.068583 33.453049 
L 399.779281 91.724558 
L 401.489978 48.506522 
L 403.200675 32.481857 
L 404.911373 39.2802 
L 406.62207 43.164967 
L 408.332767 104.350051 
L 410.043465 117.461141 
L 411.754162 41.222583 
L 413.464859 152.424046 
L 415.175557 55.790461 
L 416.886254 80.555852 
L 418.596951 59.189632 
L 420.307649 53.848077 
L 422.018346 68.415954 
L 423.729043 99.008496 
L 425.439741 50.934502 
L 427.150438 43.164967 
L 428.861135 54.819269 
L 430.571833 83.469427 
L 432.28253 100.95088 
L 433.993227 46.078543 
L 435.703925 101.922072 
L 437.414622 92.695749 
L 439.125319 97.551709 
L 440.836017 54.819269 
L 442.546714 37.823412 
L 444.257411 46.078543 
L 445.968109 68.415954 
L 447.678806 54.333673 
L 449.389503 56.276057 
L 451.100201 54.333673 
L 452.810898 86.383003 
L 454.521595 91.724558 
L 456.232293 68.90155 
L 457.94299 178.646225 
L 459.653687 57.247248 
L 461.364385 86.383003 
L 463.075082 46.078543 
L 464.785779 43.650563 
L 466.496477 43.164967 
L 468.207174 117.461141 
L 469.917871 51.905693 
L 471.628569 112.119586 
L 473.339266 119.403524 
L 475.049963 59.675228 
L 476.760661 147.568087 
L 478.471358 29.568282 
L 480.182055 29.568282 
L 481.892753 148.539279 
L 483.60345 58.704036 
L 485.314147 56.761652 
L 487.024845 74.728701 
L 488.735542 48.020926 
L 490.44624 48.992118 
L 492.156937 49.477714 
L 493.867634 182.530992 
L 495.578332 99.494092 
L 497.289029 43.164967 
L 498.999726 47.049734 
L 500.710424 73.271913 
L 502.421121 91.238962 
L 504.131818 91.238962 
L 504.131818 91.238962 
" clip-path="url(#p58d93c7f47)" style="fill: none; stroke: #99004d; stroke-width: 0.8; stroke-linecap: square"/>
   </g>
   <g id="patch_3">
    <path d="M 56.87 210.04 
L 56.87 10.8 
" style="fill: none; stroke: #000000; stroke-width: 0.8; stroke-linejoin: miter; stroke-linecap: square"/>
   </g>
   <g id="patch_4">
    <path d="M 525.43 210.04 
L 525.43 10.8 
" style="fill: none; stroke: #000000; stroke-width: 0.8; stroke-linejoin: miter; stroke-linecap: square"/>
   </g>
   <g id="patch_5">
    <path d="M 56.87 210.04 
L 525.43 210.04 
" style="fill: none; stroke: #000000; stroke-width: 0.8; stroke-linejoin: miter; stroke-linecap: square"/>
   </g>
   <g id="patch_6">
    <path d="M 56.87 10.8 
L 525.43 10.8 
" style="fill: none; stroke: #000000; stroke-width: 0.8; stroke-linejoin: miter; stroke-linecap: square"/>
   </g>
  </g>
  <g id="axes_2">
   <g id="matplotlib.axis_3">
    <g id="ytick_9">
     <g id="line2d_16">
      <defs>
       <path id="m7f864279ac" d="M 0 0 
L 3.5 0 
" style="stroke: #000000; stroke-width: 0.8"/>
      </defs>
      <g>
       <use xlink:href="#m7f864279ac" x="525.43" y="195.045037" style="stroke: #000000; stroke-width: 0.8"/>
      </g>
     </g>
     <g id="text_17">
      <text style="font: 10px 'DejaVu Sans', 'Bitstream Vera Sans', 'Computer Modern Sans Serif', 'Lucida Grande', 'Verdana', 'Geneva', 'Lucid', 'Arial', 'Helvetica', 'Avant Garde', sans-serif; text-anchor: start" x="532.43" y="198.844256" transform="rotate(-0 532.43 198.844256)">10</text>
     </g>
    </g>
    <g id="ytick_10">
     <g id="line2d_17">
      <g>
       <use xlink:href="#m7f864279ac" x="525.43" y="165.352042" style="stroke: #000000; stroke-width: 0.8"/>
      </g>
     </g>
     <g id="text_18">
      <text style="font: 10px 'DejaVu Sans', 'Bitstream Vera Sans', 'Computer Modern Sans Serif', 'Lucida Grande', 'Verdana', 'Geneva', 'Lucid', 'Arial', 'Helvetica', 'Avant Garde', sans-serif; text-anchor: start" x="532.43" y="169.15126" transform="rotate(-0 532.43 169.15126)">20</text>
     </g>
    </g>
    <g id="ytick_11">
     <g id="line2d_18">
      <g>
       <use xlink:href="#m7f864279ac" x="525.43" y="135.659046" style="stroke: #000000; stroke-width: 0.8"/>
      </g>
     </g>
     <g id="text_19">
      <text style="font: 10px 'DejaVu Sans', 'Bitstream Vera Sans', 'Computer Modern Sans Serif', 'Lucida Grande', 'Verdana', 'Geneva', 'Lucid', 'Arial', 'Helvetica', 'Avant Garde', sans-serif; text-anchor: start" x="532.43" y="139.458265" transform="rotate(-0 532.43 139.458265)">30</text>
     </g>
    </g>
    <g id="ytick_12">
     <g id="line2d_19">
      <g>
       <use xlink:href="#m7f864279ac" x="525.43" y="105.966051" style="stroke: #000000; stroke-width: 0.8"/>
      </g>
     </g>
     <g id="text_20">
      <text style="font: 10px 'DejaVu Sans', 'Bitstream Vera Sans', 'Computer Modern Sans Serif', 'Lucida Grande', 'Verdana', 'Geneva', 'Lucid', 'Arial', 'Helvetica', 'Avant Garde', sans-serif; text-anchor: start" x="532.43" y="109.765269" transform="rotate(-0 532.43 109.765269)">40</text>
     </g>
    </g>
    <g id="ytick_13">
     <g id="line2d_20">
      <g>
       <use xlink:href="#m7f864279ac" x="525.43" y="76.273055" style="stroke: #000000; stroke-width: 0.8"/>
      </g>
     </g>
     <g id="text_21">
      <text style="font: 10px 'DejaVu Sans', 'Bitstream Vera Sans', 'Computer Modern Sans Serif', 'Lucida Grande', 'Verdana', 'Geneva', 'Lucid', 'Arial', 'Helvetica', 'Avant Garde', sans-serif; text-anchor: start" x="532.43" y="80.072274" transform="rotate(-0 532.43 80.072274)">50</text>
     </g>
    </g>
    <g id="ytick_14">
     <g id="line2d_21">
      <g>
       <use xlink:href="#m7f864279ac" x="525.43" y="46.58006" style="stroke: #000000; stroke-width: 0.8"/>
      </g>
     </g>
     <g id="text_22">
      <text style="font: 10px 'DejaVu Sans', 'Bitstream Vera Sans', 'Computer Modern Sans Serif', 'Lucida Grande', 'Verdana', 'Geneva', 'Lucid', 'Arial', 'Helvetica', 'Avant Garde', sans-serif; text-anchor: start" x="532.43" y="50.379278" transform="rotate(-0 532.43 50.379278)">60</text>
     </g>
    </g>
    <g id="ytick_15">
     <g id="line2d_22">
      <g>
       <use xlink:href="#m7f864279ac" x="525.43" y="16.887064" style="stroke: #000000; stroke-width: 0.8"/>
      </g>
     </g>
     <g id="text_23">
      <text style="font: 10px 'DejaVu Sans', 'Bitstream Vera Sans', 'Computer Modern Sans Serif', 'Lucida Grande', 'Verdana', 'Geneva', 'Lucid', 'Arial', 'Helvetica', 'Avant Garde', sans-serif; text-anchor: start" x="532.43" y="20.686283" transform="rotate(-0 532.43 20.686283)">70</text>
     </g>
    </g>
    <g id="text_24">
     <text style="font: 10px 'DejaVu Sans', 'Bitstream Vera Sans', 'Computer Modern Sans Serif', 'Lucida Grande', 'Verdana', 'Geneva', 'Lucid', 'Arial', 'Helvetica', 'Avant Garde', sans-serif; text-anchor: middle" x="562.753438" y="110.42" transform="rotate(-90 562.753438 110.42)">hw(data)</text>
    </g>
   </g>
   <g id="line2d_23">
    <path d="M 78.168182 114.873949 
L 79.878879 100.027452 
L 81.589576 22.825663 
L 83.300274 49.549359 
L 85.010971 120.812548 
L 86.721668 25.794963 
L 88.432366 129.720447 
L 90.143063 97.058152 
L 91.85376 102.996751 
L 93.564458 132.689747 
L 95.275155 123.781848 
L 96.985853 183.167839 
L 98.69655 120.812548 
L 100.407247 76.273055 
L 102.117945 76.273055 
L 103.828642 49.549359 
L 105.539339 73.303756 
L 107.250037 70.334456 
L 108.960734 19.856364 
L 110.671431 186.137139 
L 112.382129 34.702861 
L 114.092826 55.487958 
L 115.803523 43.61076 
L 117.514221 192.075738 
L 119.224918 43.61076 
L 120.935615 108.93535 
L 122.646313 153.474844 
L 124.35701 97.058152 
L 126.067707 22.825663 
L 127.778405 117.843249 
L 129.489102 114.873949 
L 131.199799 52.518659 
L 132.910497 200.983636 
L 134.621194 46.58006 
L 136.331891 144.566945 
L 138.042589 58.457258 
L 139.753286 168.321341 
L 141.463983 183.167839 
L 143.174681 76.273055 
L 144.885378 79.242355 
L 146.596075 144.566945 
L 148.306773 91.119553 
L 150.01747 70.334456 
L 151.728167 159.413443 
L 153.438865 88.150253 
L 155.149562 70.334456 
L 156.860259 97.058152 
L 158.570957 46.58006 
L 160.281654 37.672161 
L 161.992351 100.027452 
L 163.703049 108.93535 
L 165.413746 108.93535 
L 167.124443 85.180954 
L 168.835141 102.996751 
L 170.545838 31.733562 
L 173.967233 85.180954 
L 175.67793 141.597645 
L 177.388627 97.058152 
L 179.099325 85.180954 
L 180.810022 100.027452 
L 182.520719 46.58006 
L 184.231417 138.628346 
L 185.942114 91.119553 
L 187.652811 88.150253 
L 189.363509 120.812548 
L 191.074206 79.242355 
L 192.784903 108.93535 
L 194.495601 70.334456 
L 196.206298 58.457258 
L 197.916995 64.395857 
L 199.627693 91.119553 
L 201.33839 40.641461 
L 203.049087 25.794963 
L 204.759785 111.90465 
L 206.470482 76.273055 
L 208.181179 165.352042 
L 209.891877 52.518659 
L 211.602574 46.58006 
L 213.313271 120.812548 
L 215.023969 120.812548 
L 216.734666 64.395857 
L 218.445363 126.751148 
L 220.156061 37.672161 
L 221.866758 156.444143 
L 223.577455 189.106438 
L 225.288153 144.566945 
L 226.99885 120.812548 
L 228.709547 61.426557 
L 230.420245 55.487958 
L 232.130942 150.505544 
L 233.841639 102.996751 
L 235.552337 144.566945 
L 237.263034 31.733562 
L 238.973731 159.413443 
L 240.684429 34.702861 
L 242.395126 61.426557 
L 244.105823 49.549359 
L 245.816521 67.365156 
L 247.527218 64.395857 
L 249.237915 64.395857 
L 250.948613 61.426557 
L 252.65931 156.444143 
L 254.370007 76.273055 
L 256.080705 162.382742 
L 257.791402 55.487958 
L 259.502099 91.119553 
L 261.212797 108.93535 
L 262.923494 34.702861 
L 264.634191 97.058152 
L 266.344889 168.321341 
L 268.055586 195.045037 
L 269.766283 61.426557 
L 271.476981 25.794963 
L 273.187678 138.628346 
L 274.898375 141.597645 
L 276.609073 123.781848 
L 278.31977 114.873949 
L 280.030467 37.672161 
L 281.741165 117.843249 
L 283.451862 31.733562 
L 285.162559 105.966051 
L 286.873257 174.25994 
L 288.583954 67.365156 
L 290.294651 156.444143 
L 292.005349 102.996751 
L 293.716046 102.996751 
L 295.426743 43.61076 
L 297.137441 150.505544 
L 298.848138 111.90465 
L 300.558835 58.457258 
L 302.269533 49.549359 
L 303.98023 108.93535 
L 305.690927 67.365156 
L 307.401625 126.751148 
L 309.112322 37.672161 
L 310.823019 34.702861 
L 312.533717 129.720447 
L 314.244414 70.334456 
L 315.955111 94.088852 
L 317.665809 79.242355 
L 319.376506 97.058152 
L 321.087203 138.628346 
L 322.797901 102.996751 
L 324.508598 129.720447 
L 326.219295 88.150253 
L 327.929993 70.334456 
L 329.64069 126.751148 
L 331.351387 46.58006 
L 333.062085 100.027452 
L 334.772782 138.628346 
L 336.483479 70.334456 
L 338.194177 91.119553 
L 339.904874 70.334456 
L 341.615571 97.058152 
L 343.326269 49.549359 
L 345.036966 37.672161 
L 346.747663 120.812548 
L 348.458361 114.873949 
L 350.169058 67.365156 
L 351.879755 97.058152 
L 353.590453 61.426557 
L 355.30115 67.365156 
L 357.011847 70.334456 
L 358.722545 159.413443 
L 360.433242 64.395857 
L 362.143939 144.566945 
L 363.854637 135.659046 
L 365.565334 150.505544 
L 367.276031 82.211654 
L 368.986729 180.198539 
L 370.697426 91.119553 
L 372.408123 132.689747 
L 375.829518 43.61076 
L 377.540215 52.518659 
L 379.250913 40.641461 
L 380.96161 88.150253 
L 382.672307 141.597645 
L 384.383005 58.457258 
L 386.093702 100.027452 
L 387.804399 61.426557 
L 389.515097 159.413443 
L 391.225794 102.996751 
L 392.936491 117.843249 
L 394.647189 153.474844 
L 396.357886 70.334456 
L 398.068583 43.61076 
L 399.779281 34.702861 
L 401.489978 61.426557 
L 403.200675 55.487958 
L 404.911373 76.273055 
L 406.62207 19.856364 
L 408.332767 79.242355 
L 410.043465 111.90465 
L 411.754162 49.549359 
L 413.464859 156.444143 
L 415.175557 94.088852 
L 416.886254 88.150253 
L 418.596951 76.273055 
L 420.307649 46.58006 
L 423.729043 111.90465 
L 425.439741 61.426557 
L 427.150438 52.518659 
L 428.861135 73.303756 
L 430.571833 88.150253 
L 432.28253 91.119553 
L 435.703925 55.487958 
L 437.414622 147.536244 
L 439.125319 100.027452 
L 442.546714 58.457258 
L 444.257411 34.702861 
L 445.968109 108.93535 
L 447.678806 67.365156 
L 449.389503 64.395857 
L 451.100201 88.150253 
L 452.810898 114.873949 
L 454.521595 37.672161 
L 456.232293 120.812548 
L 457.94299 132.689747 
L 459.653687 76.273055 
L 461.364385 108.93535 
L 463.075082 43.61076 
L 464.785779 70.334456 
L 466.496477 22.825663 
L 468.207174 117.843249 
L 469.917871 43.61076 
L 473.339266 114.873949 
L 475.049963 52.518659 
L 476.760661 192.075738 
L 478.471358 28.764262 
L 480.182055 34.702861 
L 481.892753 183.167839 
L 483.60345 43.61076 
L 485.314147 52.518659 
L 487.024845 70.334456 
L 488.735542 28.764262 
L 490.44624 40.641461 
L 492.156937 61.426557 
L 493.867634 159.413443 
L 495.578332 61.426557 
L 497.289029 55.487958 
L 498.999726 43.61076 
L 500.710424 123.781848 
L 502.421121 138.628346 
L 504.131818 141.597645 
L 504.131818 141.597645 
" clip-path="url(#p58d93c7f47)" style="fill: none; stroke: #235996; stroke-width: 0.8; stroke-linecap: square"/>
   </g>
   <g id="patch_7">
    <path d="M 56.87 210.04 
L 56.87 10.8 
" style="fill: none; stroke: #000000; stroke-width: 0.8; stroke-linejoin: miter; stroke-linecap: square"/>
   </g>
   <g id="patch_8">
    <path d="M 525.43 210.04 
L 525.43 10.8 
" style="fill: none; stroke: #000000; stroke-width: 0.8; stroke-linejoin: miter; stroke-linecap: square"/>
   </g>
   <g id="patch_9">
    <path d="M 56.87 210.04 
L 525.43 210.04 
" style="fill: none; stroke: #000000; stroke-width: 0.8; stroke-linejoin: miter; stroke-linecap: square"/>
   </g>
   <g id="patch_10">
    <path d="M 56.87 10.8 
L 525.43 10.8 
" style="fill: none; stroke: #000000; stroke-width: 0.8; stroke-linejoin: miter; stroke-linecap: square"/>
   </g>
   <g id="legend_1">
    <g id="patch_11">
     <path d="M 150.539625 43.4565 
L 431.760375 43.4565 
Q 434.640375 43.4565 434.640375 40.5765 
L 434.640375 20.88 
Q 434.640375 18 431.760375 18 
L 150.539625 18 
Q 147.659625 18 147.659625 20.88 
L 147.659625 40.5765 
Q 147.659625 43.4565 150.539625 43.4565 
z
" style="fill: #ffffff; opacity: 0.8; stroke: #000000; stroke-linejoin: miter"/>
    </g>
    <g id="line2d_24">
     <path d="M 153.419625 29.66175 
L 167.819625 29.66175 
L 182.219625 29.66175 
" style="fill: none; stroke: #99004d; stroke-width: 0.8; stroke-linecap: square"/>
    </g>
    <g id="text_25">
     <text style="font: 14.4px 'DejaVu Sans', 'Bitstream Vera Sans', 'Computer Modern Sans Serif', 'Lucida Grande', 'Verdana', 'Geneva', 'Lucid', 'Arial', 'Helvetica', 'Avant Garde', sans-serif; text-anchor: start" x="193.739625" y="34.70175" transform="rotate(-0 193.739625 34.70175)">power</text>
    </g>
    <g id="line2d_25">
     <path d="M 267.049125 29.66175 
L 281.449125 29.66175 
L 295.849125 29.66175 
" style="fill: none; stroke: #235996; stroke-width: 0.8; stroke-linecap: square"/>
    </g>
    <g id="text_26">
     <text style="font: 14.4px 'DejaVu Sans', 'Bitstream Vera Sans', 'Computer Modern Sans Serif', 'Lucida Grande', 'Verdana', 'Geneva', 'Lucid', 'Arial', 'Helvetica', 'Avant Garde', sans-serif; text-anchor: start" x="307.369125" y="34.70175" transform="rotate(-0 307.369125 34.70175)">hw(rs1)+hw(rs2)</text>
    </g>
   </g>
  </g>
 </g>
 <defs>
  <clipPath id="p58d93c7f47">
   <rect x="56.87" y="10.8" width="468.56" height="199.24"/>
  </clipPath>
 </defs>
</svg>
