<?xml version="1.0" encoding="utf-8" standalone="no"?>
<!DOCTYPE svg PUBLIC "-//W3C//DTD SVG 1.1//EN"
  "http://www.w3.org/Graphics/SVG/1.1/DTD/svg11.dtd">
<svg xmlns:xlink="http://www.w3.org/1999/xlink" width="576pt" height="252pt" viewBox="0 0 576 252" xmlns="http://www.w3.org/2000/svg" version="1.1">
 <metadata>
  <rdf:RDF xmlns:dc="http://purl.org/dc/elements/1.1/" xmlns:cc="http://creativecommons.org/ns#" xmlns:rdf="http://www.w3.org/1999/02/22-rdf-syntax-ns#">
   <cc:Work>
    <dc:type rdf:resource="http://purl.org/dc/dcmitype/StillImage"/>
    <dc:date>2023-12-05T15:21:10.086852</dc:date>
    <dc:format>image/svg+xml</dc:format>
    <dc:creator>
     <cc:Agent>
      <dc:title>Matplotlib v3.7.4, https://matplotlib.org/</dc:title>
     </cc:Agent>
    </dc:creator>
   </cc:Work>
  </rdf:RDF>
 </metadata>
 <defs>
  <style type="text/css">*{stroke-linejoin: round; stroke-linecap: butt}</style>
 </defs>
 <g id="figure_1">
  <g id="patch_1">
   <path d="M 0 252 
L 576 252 
L 576 0 
L 0 0 
z
" style="fill: #ffffff"/>
  </g>
  <g id="axes_1">
   <g id="patch_2">
    <path d="M 56.87 210.04 
L 525.43 210.04 
L 525.43 14.61541 
L 56.87 14.61541 
z
" style="fill: #ffffff"/>
   </g>
   <g id="matplotlib.axis_1">
    <g id="xtick_1">
     <g id="line2d_1">
      <defs>
       <path id="m3ae32cfdd5" d="M 0 0 
L 0 3.5 
" style="stroke: #000000; stroke-width: 0.8"/>
      </defs>
      <g>
       <use xlink:href="#m3ae32cfdd5" x="78.168182" y="210.04" style="stroke: #000000; stroke-width: 0.8"/>
      </g>
     </g>
     <g id="text_1">
      <text style="font: 10px 'DejaVu Sans', 'Bitstream Vera Sans', 'Computer Modern Sans Serif', 'Lucida Grande', 'Verdana', 'Geneva', 'Lucid', 'Arial', 'Helvetica', 'Avant Garde', sans-serif; text-anchor: middle" x="78.168182" y="224.638438" transform="rotate(-0 78.168182 224.638438)">0</text>
     </g>
    </g>
    <g id="xtick_2">
     <g id="line2d_2">
      <g>
       <use xlink:href="#m3ae32cfdd5" x="163.703049" y="210.04" style="stroke: #000000; stroke-width: 0.8"/>
      </g>
     </g>
     <g id="text_2">
      <text style="font: 10px 'DejaVu Sans', 'Bitstream Vera Sans', 'Computer Modern Sans Serif', 'Lucida Grande', 'Verdana', 'Geneva', 'Lucid', 'Arial', 'Helvetica', 'Avant Garde', sans-serif; text-anchor: middle" x="163.703049" y="224.638438" transform="rotate(-0 163.703049 224.638438)">50</text>
     </g>
    </g>
    <g id="xtick_3">
     <g id="line2d_3">
      <g>
       <use xlink:href="#m3ae32cfdd5" x="249.237915" y="210.04" style="stroke: #000000; stroke-width: 0.8"/>
      </g>
     </g>
     <g id="text_3">
      <text style="font: 10px 'DejaVu Sans', 'Bitstream Vera Sans', 'Computer Modern Sans Serif', 'Lucida Grande', 'Verdana', 'Geneva', 'Lucid', 'Arial', 'Helvetica', 'Avant Garde', sans-serif; text-anchor: middle" x="249.237915" y="224.638438" transform="rotate(-0 249.237915 224.638438)">100</text>
     </g>
    </g>
    <g id="xtick_4">
     <g id="line2d_4">
      <g>
       <use xlink:href="#m3ae32cfdd5" x="334.772782" y="210.04" style="stroke: #000000; stroke-width: 0.8"/>
      </g>
     </g>
     <g id="text_4">
      <text style="font: 10px 'DejaVu Sans', 'Bitstream Vera Sans', 'Computer Modern Sans Serif', 'Lucida Grande', 'Verdana', 'Geneva', 'Lucid', 'Arial', 'Helvetica', 'Avant Garde', sans-serif; text-anchor: middle" x="334.772782" y="224.638438" transform="rotate(-0 334.772782 224.638438)">150</text>
     </g>
    </g>
    <g id="xtick_5">
     <g id="line2d_5">
      <g>
       <use xlink:href="#m3ae32cfdd5" x="420.307649" y="210.04" style="stroke: #000000; stroke-width: 0.8"/>
      </g>
     </g>
     <g id="text_5">
      <text style="font: 10px 'DejaVu Sans', 'Bitstream Vera Sans', 'Computer Modern Sans Serif', 'Lucida Grande', 'Verdana', 'Geneva', 'Lucid', 'Arial', 'Helvetica', 'Avant Garde', sans-serif; text-anchor: middle" x="420.307649" y="224.638438" transform="rotate(-0 420.307649 224.638438)">200</text>
     </g>
    </g>
    <g id="xtick_6">
     <g id="line2d_6">
      <g>
       <use xlink:href="#m3ae32cfdd5" x="505.842516" y="210.04" style="stroke: #000000; stroke-width: 0.8"/>
      </g>
     </g>
     <g id="text_6">
      <text style="font: 10px 'DejaVu Sans', 'Bitstream Vera Sans', 'Computer Modern Sans Serif', 'Lucida Grande', 'Verdana', 'Geneva', 'Lucid', 'Arial', 'Helvetica', 'Avant Garde', sans-serif; text-anchor: middle" x="505.842516" y="224.638438" transform="rotate(-0 505.842516 224.638438)">250</text>
     </g>
    </g>
    <g id="text_7">
     <text style="font: 10px 'DejaVu Sans', 'Bitstream Vera Sans', 'Computer Modern Sans Serif', 'Lucida Grande', 'Verdana', 'Geneva', 'Lucid', 'Arial', 'Helvetica', 'Avant Garde', sans-serif; text-anchor: middle" x="291.15" y="238.316563" transform="rotate(-0 291.15 238.316563)">Cycles</text>
    </g>
   </g>
   <g id="matplotlib.axis_2">
    <g id="ytick_1">
     <g id="line2d_7">
      <defs>
       <path id="me11dfe905e" d="M 0 0 
L -3.5 0 
" style="stroke: #000000; stroke-width: 0.8"/>
      </defs>
      <g>
       <use xlink:href="#me11dfe905e" x="56.87" y="199.17205" style="stroke: #000000; stroke-width: 0.8"/>
      </g>
     </g>
     <g id="text_8">
      <text style="font: 10px 'DejaVu Sans', 'Bitstream Vera Sans', 'Computer Modern Sans Serif', 'Lucida Grande', 'Verdana', 'Geneva', 'Lucid', 'Arial', 'Helvetica', 'Avant Garde', sans-serif; text-anchor: end" x="49.87" y="202.971269" transform="rotate(-0 49.87 202.971269)">50</text>
     </g>
    </g>
    <g id="ytick_2">
     <g id="line2d_8">
      <g>
       <use xlink:href="#me11dfe905e" x="56.87" y="174.35938" style="stroke: #000000; stroke-width: 0.8"/>
      </g>
     </g>
     <g id="text_9">
      <text style="font: 10px 'DejaVu Sans', 'Bitstream Vera Sans', 'Computer Modern Sans Serif', 'Lucida Grande', 'Verdana', 'Geneva', 'Lucid', 'Arial', 'Helvetica', 'Avant Garde', sans-serif; text-anchor: end" x="49.87" y="178.158599" transform="rotate(-0 49.87 178.158599)">100</text>
     </g>
    </g>
    <g id="ytick_3">
     <g id="line2d_9">
      <g>
       <use xlink:href="#me11dfe905e" x="56.87" y="149.54671" style="stroke: #000000; stroke-width: 0.8"/>
      </g>
     </g>
     <g id="text_10">
      <text style="font: 10px 'DejaVu Sans', 'Bitstream Vera Sans', 'Computer Modern Sans Serif', 'Lucida Grande', 'Verdana', 'Geneva', 'Lucid', 'Arial', 'Helvetica', 'Avant Garde', sans-serif; text-anchor: end" x="49.87" y="153.345929" transform="rotate(-0 49.87 153.345929)">150</text>
     </g>
    </g>
    <g id="ytick_4">
     <g id="line2d_10">
      <g>
       <use xlink:href="#me11dfe905e" x="56.87" y="124.73404" style="stroke: #000000; stroke-width: 0.8"/>
      </g>
     </g>
     <g id="text_11">
      <text style="font: 10px 'DejaVu Sans', 'Bitstream Vera Sans', 'Computer Modern Sans Serif', 'Lucida Grande', 'Verdana', 'Geneva', 'Lucid', 'Arial', 'Helvetica', 'Avant Garde', sans-serif; text-anchor: end" x="49.87" y="128.533259" transform="rotate(-0 49.87 128.533259)">200</text>
     </g>
    </g>
    <g id="ytick_5">
     <g id="line2d_11">
      <g>
       <use xlink:href="#me11dfe905e" x="56.87" y="99.92137" style="stroke: #000000; stroke-width: 0.8"/>
      </g>
     </g>
     <g id="text_12">
      <text style="font: 10px 'DejaVu Sans', 'Bitstream Vera Sans', 'Computer Modern Sans Serif', 'Lucida Grande', 'Verdana', 'Geneva', 'Lucid', 'Arial', 'Helvetica', 'Avant Garde', sans-serif; text-anchor: end" x="49.87" y="103.720589" transform="rotate(-0 49.87 103.720589)">250</text>
     </g>
    </g>
    <g id="ytick_6">
     <g id="line2d_12">
      <g>
       <use xlink:href="#me11dfe905e" x="56.87" y="75.1087" style="stroke: #000000; stroke-width: 0.8"/>
      </g>
     </g>
     <g id="text_13">
      <text style="font: 10px 'DejaVu Sans', 'Bitstream Vera Sans', 'Computer Modern Sans Serif', 'Lucida Grande', 'Verdana', 'Geneva', 'Lucid', 'Arial', 'Helvetica', 'Avant Garde', sans-serif; text-anchor: end" x="49.87" y="78.907918" transform="rotate(-0 49.87 78.907918)">300</text>
     </g>
    </g>
    <g id="ytick_7">
     <g id="line2d_13">
      <g>
       <use xlink:href="#me11dfe905e" x="56.87" y="50.29603" style="stroke: #000000; stroke-width: 0.8"/>
      </g>
     </g>
     <g id="text_14">
      <text style="font: 10px 'DejaVu Sans', 'Bitstream Vera Sans', 'Computer Modern Sans Serif', 'Lucida Grande', 'Verdana', 'Geneva', 'Lucid', 'Arial', 'Helvetica', 'Avant Garde', sans-serif; text-anchor: end" x="49.87" y="54.095248" transform="rotate(-0 49.87 54.095248)">350</text>
     </g>
    </g>
    <g id="ytick_8">
     <g id="line2d_14">
      <g>
       <use xlink:href="#me11dfe905e" x="56.87" y="25.483359" style="stroke: #000000; stroke-width: 0.8"/>
      </g>
     </g>
     <g id="text_15">
      <text style="font: 10px 'DejaVu Sans', 'Bitstream Vera Sans', 'Computer Modern Sans Serif', 'Lucida Grande', 'Verdana', 'Geneva', 'Lucid', 'Arial', 'Helvetica', 'Avant Garde', sans-serif; text-anchor: end" x="49.87" y="29.282578" transform="rotate(-0 49.87 29.282578)">400</text>
     </g>
    </g>
    <g id="text_16">
     <text style="font: 10px 'DejaVu Sans', 'Bitstream Vera Sans', 'Computer Modern Sans Serif', 'Lucida Grande', 'Verdana', 'Geneva', 'Lucid', 'Arial', 'Helvetica', 'Avant Garde', sans-serif; text-anchor: middle" x="18.702813" y="112.327705" transform="rotate(-90 18.702813 112.327705)">power (uW)</text>
    </g>
   </g>
   <g id="line2d_15">
    <path d="M 78.168182 31.934654 
L 79.878879 115.801479 
L 83.300274 44.837242 
L 85.010971 39.378455 
L 86.721668 38.882201 
L 88.432366 104.38765 
L 90.143063 44.340989 
L 91.85376 56.747324 
L 93.564458 81.063741 
L 95.275155 71.138672 
L 96.985853 102.89889 
L 98.69655 124.73404 
L 100.407247 64.191125 
L 102.117945 171.38186 
L 103.828642 79.57498 
L 105.539339 91.485062 
L 107.250037 86.026275 
L 108.960734 57.739831 
L 110.671431 42.852228 
L 112.382129 66.176138 
L 114.092826 47.814763 
L 115.803523 85.530021 
L 117.514221 45.829749 
L 119.224918 24.987106 
L 120.935615 32.92716 
L 122.646313 85.033768 
L 124.35701 114.808972 
L 126.067707 36.400934 
L 127.778405 85.033768 
L 129.489102 33.919667 
L 131.199799 130.689081 
L 132.910497 146.56919 
L 134.621194 62.206111 
L 136.331891 124.73404 
L 138.042589 72.131179 
L 139.753286 73.619939 
L 141.463983 47.814763 
L 143.174681 42.852228 
L 144.885378 49.799776 
L 146.596075 67.664899 
L 148.306773 76.59746 
L 150.01747 99.92137 
L 151.728167 194.209516 
L 153.438865 57.739831 
L 155.149562 60.717351 
L 156.860259 77.093713 
L 158.570957 109.846438 
L 160.281654 90.988809 
L 161.992351 147.561697 
L 163.703049 57.739831 
L 165.413746 92.477569 
L 167.124443 27.468373 
L 168.835141 143.591669 
L 170.545838 40.867215 
L 172.256535 72.627433 
L 173.967233 46.822256 
L 175.67793 32.92716 
L 177.388627 66.672392 
L 179.099325 73.123686 
L 180.810022 93.966329 
L 182.520719 42.355975 
L 184.231417 50.792283 
L 185.942114 75.1087 
L 187.652811 85.530021 
L 189.363509 113.816465 
L 191.074206 74.612446 
L 192.784903 188.254476 
L 194.495601 87.018781 
L 196.206298 51.288536 
L 197.916995 78.08622 
L 199.627693 102.402637 
L 201.33839 55.258564 
L 203.049087 79.078727 
L 204.759785 94.958836 
L 206.470482 72.627433 
L 208.181179 45.829749 
L 209.891877 65.679885 
L 211.602574 53.769803 
L 213.313271 133.666601 
L 215.023969 37.393441 
L 216.734666 64.191125 
L 218.445363 116.793986 
L 220.156061 102.89889 
L 221.866758 89.996302 
L 223.577455 66.176138 
L 225.288153 55.258564 
L 226.99885 50.792283 
L 228.709547 59.724844 
L 230.420245 45.829749 
L 232.130942 47.814763 
L 233.841639 114.808972 
L 235.552337 67.664899 
L 237.263034 31.934654 
L 238.973731 37.889694 
L 240.684429 37.889694 
L 242.395126 128.704067 
L 244.105823 46.326002 
L 245.816521 24.987106 
L 247.527218 114.808972 
L 249.237915 80.071234 
L 250.948613 149.050457 
L 252.65931 42.852228 
L 254.370007 49.303523 
L 256.080705 52.777297 
L 257.791402 54.76231 
L 259.502099 84.537514 
L 261.212797 63.198618 
L 262.923494 60.717351 
L 264.634191 23.498346 
L 266.344889 43.844735 
L 268.055586 71.634926 
L 269.766283 89.003795 
L 271.476981 130.192827 
L 273.187678 54.266057 
L 274.898375 67.168645 
L 276.609073 58.732337 
L 278.31977 142.599163 
L 280.030467 64.191125 
L 281.741165 51.78479 
L 283.451862 90.988809 
L 285.162559 71.634926 
L 286.873257 84.041261 
L 288.583954 42.852228 
L 290.294651 47.814763 
L 292.005349 62.702365 
L 293.716046 130.689081 
L 295.426743 34.415921 
L 297.137441 131.185334 
L 298.848138 47.814763 
L 300.558835 121.75652 
L 302.269533 126.719054 
L 303.98023 48.311016 
L 305.690927 75.1087 
L 307.401625 141.606656 
L 309.112322 36.897188 
L 310.823019 23.994599 
L 312.533717 40.867215 
L 314.244414 93.470076 
L 315.955111 85.033768 
L 317.665809 45.829749 
L 319.376506 150.539217 
L 321.087203 91.981315 
L 322.797901 43.844735 
L 324.508598 63.694871 
L 326.219295 35.904681 
L 327.929993 51.288536 
L 329.64069 59.724844 
L 331.351387 66.672392 
L 333.062085 171.38186 
L 334.772782 42.852228 
L 336.483479 47.814763 
L 338.194177 55.258564 
L 339.904874 77.093713 
L 341.615571 142.599163 
L 343.326269 200.164557 
L 345.036966 83.048754 
L 346.747663 101.906383 
L 348.458361 42.852228 
L 350.169058 55.754817 
L 351.879755 25.483359 
L 353.590453 131.681588 
L 355.30115 75.1087 
L 357.011847 85.033768 
L 358.722545 72.131179 
L 360.433242 67.664899 
L 362.143939 56.747324 
L 363.854637 57.243577 
L 365.565334 153.020484 
L 367.276031 52.777297 
L 368.986729 34.912174 
L 370.697426 60.717351 
L 372.408123 77.589967 
L 374.118821 174.35938 
L 375.829518 35.408427 
L 377.540215 44.837242 
L 379.250913 104.883904 
L 380.96161 55.754817 
L 382.672307 92.973822 
L 384.383005 68.161152 
L 386.093702 46.822256 
L 387.804399 113.816465 
L 389.515097 89.003795 
L 391.225794 34.912174 
L 392.936491 154.509244 
L 394.647189 71.634926 
L 396.357886 54.76231 
L 398.068583 151.531724 
L 399.779281 38.882201 
L 401.489978 57.739831 
L 403.200675 68.161152 
L 404.911373 49.799776 
L 406.62207 23.994599 
L 408.332767 34.912174 
L 410.043465 112.327705 
L 411.754162 88.507542 
L 413.464859 85.033768 
L 415.175557 29.94964 
L 416.886254 55.754817 
L 418.596951 47.318509 
L 420.307649 75.1087 
L 422.018346 32.92716 
L 423.729043 32.430907 
L 425.439741 195.202023 
L 428.861135 117.786492 
L 430.571833 51.78479 
L 432.28253 181.306928 
L 433.993227 62.702365 
L 435.703925 23.994599 
L 437.414622 32.92716 
L 439.125319 133.666601 
L 440.836017 85.530021 
L 442.546714 61.709858 
L 444.257411 201.157064 
L 445.968109 74.612446 
L 447.678806 71.138672 
L 449.389503 98.928863 
L 451.100201 57.739831 
L 452.810898 66.176138 
L 454.521595 52.777297 
L 456.232293 33.423414 
L 457.94299 61.213604 
L 459.653687 74.116193 
L 461.364385 44.837242 
L 463.075082 50.792283 
L 464.785779 195.202023 
L 466.496477 109.846438 
L 468.207174 74.612446 
L 469.917871 77.093713 
L 471.628569 75.604953 
L 473.339266 55.754817 
L 475.049963 100.913877 
L 476.760661 44.837242 
L 478.471358 73.123686 
L 480.182055 74.612446 
L 481.892753 93.966329 
L 483.60345 38.882201 
L 485.314147 190.239489 
L 487.024845 138.629135 
L 488.735542 68.161152 
L 490.44624 48.807269 
L 492.156937 26.475866 
L 493.867634 58.732337 
L 495.578332 120.267759 
L 497.289029 58.732337 
L 498.999726 69.649912 
L 500.710424 32.430907 
L 502.421121 89.996302 
L 504.131818 58.732337 
L 504.131818 58.732337 
" clip-path="url(#pb6d35156f7)" style="fill: none; stroke: #99004d; stroke-width: 0.8; stroke-linecap: square"/>
   </g>
   <g id="patch_3">
    <path d="M 56.87 210.04 
L 56.87 14.61541 
" style="fill: none; stroke: #000000; stroke-width: 0.8; stroke-linejoin: miter; stroke-linecap: square"/>
   </g>
   <g id="patch_4">
    <path d="M 525.43 210.04 
L 525.43 14.61541 
" style="fill: none; stroke: #000000; stroke-width: 0.8; stroke-linejoin: miter; stroke-linecap: square"/>
   </g>
   <g id="patch_5">
    <path d="M 56.87 210.04 
L 525.43 210.04 
" style="fill: none; stroke: #000000; stroke-width: 0.8; stroke-linejoin: miter; stroke-linecap: square"/>
   </g>
   <g id="patch_6">
    <path d="M 56.87 14.61541 
L 525.43 14.61541 
" style="fill: none; stroke: #000000; stroke-width: 0.8; stroke-linejoin: miter; stroke-linecap: square"/>
   </g>
  </g>
  <g id="axes_2">
   <g id="matplotlib.axis_3">
    <g id="ytick_9">
     <g id="line2d_16">
      <defs>
       <path id="m2ef625db66" d="M 0 0 
L 3.5 0 
" style="stroke: #000000; stroke-width: 0.8"/>
      </defs>
      <g>
       <use xlink:href="#m2ef625db66" x="525.43" y="189.507312" style="stroke: #000000; stroke-width: 0.8"/>
      </g>
     </g>
     <g id="text_17">
      <text style="font: 10px 'DejaVu Sans', 'Bitstream Vera Sans', 'Computer Modern Sans Serif', 'Lucida Grande', 'Verdana', 'Geneva', 'Lucid', 'Arial', 'Helvetica', 'Avant Garde', sans-serif; text-anchor: start" x="532.43" y="193.306531" transform="rotate(-0 532.43 193.306531)">10</text>
     </g>
    </g>
    <g id="ytick_10">
     <g id="line2d_17">
      <g>
       <use xlink:href="#m2ef625db66" x="525.43" y="160.382932" style="stroke: #000000; stroke-width: 0.8"/>
      </g>
     </g>
     <g id="text_18">
      <text style="font: 10px 'DejaVu Sans', 'Bitstream Vera Sans', 'Computer Modern Sans Serif', 'Lucida Grande', 'Verdana', 'Geneva', 'Lucid', 'Arial', 'Helvetica', 'Avant Garde', sans-serif; text-anchor: start" x="532.43" y="164.182151" transform="rotate(-0 532.43 164.182151)">20</text>
     </g>
    </g>
    <g id="ytick_11">
     <g id="line2d_18">
      <g>
       <use xlink:href="#m2ef625db66" x="525.43" y="131.258552" style="stroke: #000000; stroke-width: 0.8"/>
      </g>
     </g>
     <g id="text_19">
      <text style="font: 10px 'DejaVu Sans', 'Bitstream Vera Sans', 'Computer Modern Sans Serif', 'Lucida Grande', 'Verdana', 'Geneva', 'Lucid', 'Arial', 'Helvetica', 'Avant Garde', sans-serif; text-anchor: start" x="532.43" y="135.057771" transform="rotate(-0 532.43 135.057771)">30</text>
     </g>
    </g>
    <g id="ytick_12">
     <g id="line2d_19">
      <g>
       <use xlink:href="#m2ef625db66" x="525.43" y="102.134172" style="stroke: #000000; stroke-width: 0.8"/>
      </g>
     </g>
     <g id="text_20">
      <text style="font: 10px 'DejaVu Sans', 'Bitstream Vera Sans', 'Computer Modern Sans Serif', 'Lucida Grande', 'Verdana', 'Geneva', 'Lucid', 'Arial', 'Helvetica', 'Avant Garde', sans-serif; text-anchor: start" x="532.43" y="105.933391" transform="rotate(-0 532.43 105.933391)">40</text>
     </g>
    </g>
    <g id="ytick_13">
     <g id="line2d_20">
      <g>
       <use xlink:href="#m2ef625db66" x="525.43" y="73.009792" style="stroke: #000000; stroke-width: 0.8"/>
      </g>
     </g>
     <g id="text_21">
      <text style="font: 10px 'DejaVu Sans', 'Bitstream Vera Sans', 'Computer Modern Sans Serif', 'Lucida Grande', 'Verdana', 'Geneva', 'Lucid', 'Arial', 'Helvetica', 'Avant Garde', sans-serif; text-anchor: start" x="532.43" y="76.809011" transform="rotate(-0 532.43 76.809011)">50</text>
     </g>
    </g>
    <g id="ytick_14">
     <g id="line2d_21">
      <g>
       <use xlink:href="#m2ef625db66" x="525.43" y="43.885412" style="stroke: #000000; stroke-width: 0.8"/>
      </g>
     </g>
     <g id="text_22">
      <text style="font: 10px 'DejaVu Sans', 'Bitstream Vera Sans', 'Computer Modern Sans Serif', 'Lucida Grande', 'Verdana', 'Geneva', 'Lucid', 'Arial', 'Helvetica', 'Avant Garde', sans-serif; text-anchor: start" x="532.43" y="47.684631" transform="rotate(-0 532.43 47.684631)">60</text>
     </g>
    </g>
    <g id="ytick_15">
     <g id="line2d_22">
      <g>
       <use xlink:href="#m2ef625db66" x="525.43" y="14.761032" style="stroke: #000000; stroke-width: 0.8"/>
      </g>
     </g>
     <g id="text_23">
      <text style="font: 10px 'DejaVu Sans', 'Bitstream Vera Sans', 'Computer Modern Sans Serif', 'Lucida Grande', 'Verdana', 'Geneva', 'Lucid', 'Arial', 'Helvetica', 'Avant Garde', sans-serif; text-anchor: start" x="532.43" y="18.56025" transform="rotate(-0 532.43 18.56025)">70</text>
     </g>
    </g>
    <g id="text_24">
     <text style="font: 10px 'DejaVu Sans', 'Bitstream Vera Sans', 'Computer Modern Sans Serif', 'Lucida Grande', 'Verdana', 'Geneva', 'Lucid', 'Arial', 'Helvetica', 'Avant Garde', sans-serif; text-anchor: middle" x="562.753438" y="112.327705" transform="rotate(-90 562.753438 112.327705)">hw(data)</text>
    </g>
   </g>
   <g id="line2d_23">
    <path d="M 78.168182 43.885412 
L 79.878879 151.645618 
L 81.589576 113.783924 
L 83.300274 84.659544 
L 85.010971 93.396858 
L 86.721668 52.622726 
L 88.432366 96.309296 
L 90.143063 73.009792 
L 91.85376 99.221734 
L 93.564458 67.184916 
L 95.275155 96.309296 
L 96.985853 134.17099 
L 98.69655 122.521238 
L 100.407247 73.009792 
L 102.117945 195.332188 
L 103.828642 99.221734 
L 105.539339 99.221734 
L 107.250037 105.04661 
L 108.960734 43.885412 
L 110.671431 49.710288 
L 112.382129 67.184916 
L 114.092826 116.696362 
L 115.803523 99.221734 
L 117.514221 90.48442 
L 119.224918 40.972974 
L 120.935615 61.36004 
L 122.646313 90.48442 
L 124.35701 142.908304 
L 126.067707 73.009792 
L 127.778405 151.645618 
L 129.489102 40.972974 
L 131.199799 122.521238 
L 132.910497 142.908304 
L 134.621194 87.571982 
L 136.331891 166.207808 
L 138.042589 75.92223 
L 139.753286 55.535164 
L 141.463983 107.959048 
L 143.174681 58.447602 
L 144.885378 113.783924 
L 146.596075 75.92223 
L 148.306773 102.134172 
L 150.01747 122.521238 
L 151.728167 166.207808 
L 153.438865 67.184916 
L 155.149562 75.92223 
L 156.860259 90.48442 
L 158.570957 128.346114 
L 160.281654 90.48442 
L 161.992351 180.769998 
L 163.703049 78.834668 
L 165.413746 134.17099 
L 167.124443 40.972974 
L 168.835141 122.521238 
L 170.545838 40.972974 
L 172.256535 84.659544 
L 173.967233 75.92223 
L 175.67793 40.972974 
L 177.388627 49.710288 
L 179.099325 110.871486 
L 180.810022 131.258552 
L 182.520719 58.447602 
L 184.231417 99.221734 
L 185.942114 128.346114 
L 187.652811 93.396858 
L 189.363509 70.097354 
L 191.074206 102.134172 
L 192.784903 172.032684 
L 194.495601 116.696362 
L 196.206298 81.747106 
L 197.916995 128.346114 
L 199.627693 169.120246 
L 201.33839 96.309296 
L 203.049087 84.659544 
L 204.759785 128.346114 
L 206.470482 128.346114 
L 208.181179 78.834668 
L 209.891877 61.36004 
L 211.602574 35.148098 
L 213.313271 113.783924 
L 215.023969 78.834668 
L 216.734666 84.659544 
L 218.445363 125.433676 
L 220.156061 160.382932 
L 221.866758 142.908304 
L 223.577455 81.747106 
L 225.288153 78.834668 
L 226.99885 87.571982 
L 228.709547 64.272478 
L 230.420245 64.272478 
L 232.130942 52.622726 
L 233.841639 93.396858 
L 235.552337 119.6088 
L 237.263034 52.622726 
L 238.973731 40.972974 
L 242.395126 160.382932 
L 244.105823 67.184916 
L 245.816521 23.498346 
L 247.527218 122.521238 
L 249.237915 119.6088 
L 250.948613 192.41975 
L 252.65931 40.972974 
L 254.370007 113.783924 
L 256.080705 96.309296 
L 257.791402 110.871486 
L 259.502099 35.148098 
L 261.212797 70.097354 
L 262.923494 116.696362 
L 264.634191 35.148098 
L 266.344889 38.060536 
L 268.055586 61.36004 
L 269.766283 99.221734 
L 271.476981 139.995866 
L 273.187678 90.48442 
L 274.898375 107.959048 
L 276.609073 67.184916 
L 278.31977 180.769998 
L 280.030467 73.009792 
L 281.741165 102.134172 
L 283.451862 99.221734 
L 285.162559 90.48442 
L 286.873257 169.120246 
L 288.583954 64.272478 
L 290.294651 55.535164 
L 292.005349 139.995866 
L 293.716046 157.470494 
L 295.426743 52.622726 
L 297.137441 122.521238 
L 298.848138 113.783924 
L 300.558835 148.73318 
L 302.269533 142.908304 
L 303.98023 58.447602 
L 305.690927 128.346114 
L 307.401625 119.6088 
L 309.112322 67.184916 
L 310.823019 32.23566 
L 312.533717 67.184916 
L 314.244414 93.396858 
L 315.955111 81.747106 
L 317.665809 81.747106 
L 319.376506 145.820742 
L 321.087203 102.134172 
L 322.797901 40.972974 
L 324.508598 93.396858 
L 326.219295 49.710288 
L 327.929993 70.097354 
L 329.64069 105.04661 
L 331.351387 84.659544 
L 333.062085 142.908304 
L 334.772782 87.571982 
L 336.483479 78.834668 
L 338.194177 87.571982 
L 339.904874 105.04661 
L 341.615571 192.41975 
L 343.326269 186.594874 
L 345.036966 102.134172 
L 346.747663 154.558056 
L 348.458361 87.571982 
L 350.169058 70.097354 
L 351.879755 29.323222 
L 353.590453 119.6088 
L 355.30115 78.834668 
L 357.011847 116.696362 
L 358.722545 96.309296 
L 360.433242 87.571982 
L 362.143939 110.871486 
L 363.854637 52.622726 
L 365.565334 177.85756 
L 367.276031 107.959048 
L 368.986729 52.622726 
L 370.697426 107.959048 
L 372.408123 81.747106 
L 374.118821 160.382932 
L 375.829518 61.36004 
L 377.540215 75.92223 
L 379.250913 157.470494 
L 380.96161 84.659544 
L 382.672307 172.032684 
L 384.383005 142.908304 
L 386.093702 122.521238 
L 387.804399 131.258552 
L 389.515097 96.309296 
L 391.225794 55.535164 
L 392.936491 174.945122 
L 394.647189 73.009792 
L 396.357886 87.571982 
L 398.068583 113.783924 
L 399.779281 67.184916 
L 403.200675 67.184916 
L 404.911373 87.571982 
L 406.62207 29.323222 
L 408.332767 38.060536 
L 410.043465 116.696362 
L 411.754162 116.696362 
L 413.464859 107.959048 
L 415.175557 29.323222 
L 416.886254 58.447602 
L 418.596951 67.184916 
L 420.307649 110.871486 
L 422.018346 46.79785 
L 423.729043 55.535164 
L 425.439741 201.157064 
L 427.150438 172.032684 
L 428.861135 148.73318 
L 430.571833 119.6088 
L 432.28253 125.433676 
L 433.993227 61.36004 
L 435.703925 26.410784 
L 437.414622 32.23566 
L 439.125319 151.645618 
L 440.836017 35.148098 
L 442.546714 81.747106 
L 444.257411 183.682436 
L 445.968109 105.04661 
L 447.678806 73.009792 
L 449.389503 154.558056 
L 451.100201 35.148098 
L 452.810898 137.083428 
L 454.521595 55.535164 
L 456.232293 55.535164 
L 457.94299 70.097354 
L 459.653687 148.73318 
L 461.364385 78.834668 
L 463.075082 93.396858 
L 464.785779 166.207808 
L 466.496477 154.558056 
L 468.207174 107.959048 
L 469.917871 96.309296 
L 471.628569 131.258552 
L 473.339266 96.309296 
L 475.049963 131.258552 
L 476.760661 58.447602 
L 478.471358 96.309296 
L 480.182055 90.48442 
L 481.892753 113.783924 
L 483.60345 52.622726 
L 485.314147 192.41975 
L 487.024845 119.6088 
L 488.735542 119.6088 
L 490.44624 102.134172 
L 492.156937 29.323222 
L 493.867634 64.272478 
L 495.578332 131.258552 
L 497.289029 90.48442 
L 498.999726 81.747106 
L 500.710424 38.060536 
L 502.421121 128.346114 
L 504.131818 64.272478 
L 504.131818 64.272478 
" clip-path="url(#pb6d35156f7)" style="fill: none; stroke: #235996; stroke-width: 0.8; stroke-linecap: square"/>
   </g>
   <g id="patch_7">
    <path d="M 56.87 210.04 
L 56.87 14.61541 
" style="fill: none; stroke: #000000; stroke-width: 0.8; stroke-linejoin: miter; stroke-linecap: square"/>
   </g>
   <g id="patch_8">
    <path d="M 525.43 210.04 
L 525.43 14.61541 
" style="fill: none; stroke: #000000; stroke-width: 0.8; stroke-linejoin: miter; stroke-linecap: square"/>
   </g>
   <g id="patch_9">
    <path d="M 56.87 210.04 
L 525.43 210.04 
" style="fill: none; stroke: #000000; stroke-width: 0.8; stroke-linejoin: miter; stroke-linecap: square"/>
   </g>
   <g id="patch_10">
    <path d="M 56.87 14.61541 
L 525.43 14.61541 
" style="fill: none; stroke: #000000; stroke-width: 0.8; stroke-linejoin: miter; stroke-linecap: square"/>
   </g>
   <g id="legend_1">
    <g id="patch_11">
     <path d="M 150.539625 47.27191 
L 431.760375 47.27191 
Q 434.640375 47.27191 434.640375 44.39191 
L 434.640375 24.69541 
Q 434.640375 21.81541 431.760375 21.81541 
L 150.539625 21.81541 
Q 147.659625 21.81541 147.659625 24.69541 
L 147.659625 44.39191 
Q 147.659625 47.27191 150.539625 47.27191 
z
" style="fill: #ffffff; opacity: 0.8; stroke: #000000; stroke-linejoin: miter"/>
    </g>
    <g id="line2d_24">
     <path d="M 153.419625 33.47716 
L 167.819625 33.47716 
L 182.219625 33.47716 
" style="fill: none; stroke: #99004d; stroke-width: 0.8; stroke-linecap: square"/>
    </g>
    <g id="text_25">
     <text style="font: 14.4px 'DejaVu Sans', 'Bitstream Vera Sans', 'Computer Modern Sans Serif', 'Lucida Grande', 'Verdana', 'Geneva', 'Lucid', 'Arial', 'Helvetica', 'Avant Garde', sans-serif; text-anchor: start" x="193.739625" y="38.51716" transform="rotate(-0 193.739625 38.51716)">power</text>
    </g>
    <g id="line2d_25">
     <path d="M 267.049125 33.47716 
L 281.449125 33.47716 
L 295.849125 33.47716 
" style="fill: none; stroke: #235996; stroke-width: 0.8; stroke-linecap: square"/>
    </g>
    <g id="text_26">
     <text style="font: 14.4px 'DejaVu Sans', 'Bitstream Vera Sans', 'Computer Modern Sans Serif', 'Lucida Grande', 'Verdana', 'Geneva', 'Lucid', 'Arial', 'Helvetica', 'Avant Garde', sans-serif; text-anchor: start" x="307.369125" y="38.51716" transform="rotate(-0 307.369125 38.51716)">hw(rs1)+hw(rs2)</text>
    </g>
   </g>
  </g>
 </g>
 <defs>
  <clipPath id="pb6d35156f7">
   <rect x="56.87" y="14.61541" width="468.56" height="195.42459"/>
  </clipPath>
 </defs>
</svg>
