<?xml version="1.0" encoding="utf-8" standalone="no"?>
<!DOCTYPE svg PUBLIC "-//W3C//DTD SVG 1.1//EN"
  "http://www.w3.org/Graphics/SVG/1.1/DTD/svg11.dtd">
<svg xmlns:xlink="http://www.w3.org/1999/xlink" width="576pt" height="252pt" viewBox="0 0 576 252" xmlns="http://www.w3.org/2000/svg" version="1.1">
 <metadata>
  <rdf:RDF xmlns:dc="http://purl.org/dc/elements/1.1/" xmlns:cc="http://creativecommons.org/ns#" xmlns:rdf="http://www.w3.org/1999/02/22-rdf-syntax-ns#">
   <cc:Work>
    <dc:type rdf:resource="http://purl.org/dc/dcmitype/StillImage"/>
    <dc:date>2023-12-06T19:15:09.070440</dc:date>
    <dc:format>image/svg+xml</dc:format>
    <dc:creator>
     <cc:Agent>
      <dc:title>Matplotlib v3.7.4, https://matplotlib.org/</dc:title>
     </cc:Agent>
    </dc:creator>
   </cc:Work>
  </rdf:RDF>
 </metadata>
 <defs>
  <style type="text/css">*{stroke-linejoin: round; stroke-linecap: butt}</style>
 </defs>
 <g id="figure_1">
  <g id="patch_1">
   <path d="M 0 252 
L 576 252 
L 576 0 
L 0 0 
z
" style="fill: #ffffff"/>
  </g>
  <g id="axes_1">
   <g id="patch_2">
    <path d="M 56.87 210.04 
L 525.43 210.04 
L 525.43 12.604987 
L 56.87 12.604987 
z
" style="fill: #ffffff"/>
   </g>
   <g id="matplotlib.axis_1">
    <g id="xtick_1">
     <g id="line2d_1">
      <defs>
       <path id="ma14c9f601c" d="M 0 0 
L 0 3.5 
" style="stroke: #000000; stroke-width: 0.8"/>
      </defs>
      <g>
       <use xlink:href="#ma14c9f601c" x="78.168182" y="210.04" style="stroke: #000000; stroke-width: 0.8"/>
      </g>
     </g>
     <g id="text_1">
      <text style="font: 10px 'DejaVu Sans', 'Bitstream Vera Sans', 'Computer Modern Sans Serif', 'Lucida Grande', 'Verdana', 'Geneva', 'Lucid', 'Arial', 'Helvetica', 'Avant Garde', sans-serif; text-anchor: middle" x="78.168182" y="224.638438" transform="rotate(-0 78.168182 224.638438)">0</text>
     </g>
    </g>
    <g id="xtick_2">
     <g id="line2d_2">
      <g>
       <use xlink:href="#ma14c9f601c" x="163.703049" y="210.04" style="stroke: #000000; stroke-width: 0.8"/>
      </g>
     </g>
     <g id="text_2">
      <text style="font: 10px 'DejaVu Sans', 'Bitstream Vera Sans', 'Computer Modern Sans Serif', 'Lucida Grande', 'Verdana', 'Geneva', 'Lucid', 'Arial', 'Helvetica', 'Avant Garde', sans-serif; text-anchor: middle" x="163.703049" y="224.638438" transform="rotate(-0 163.703049 224.638438)">50</text>
     </g>
    </g>
    <g id="xtick_3">
     <g id="line2d_3">
      <g>
       <use xlink:href="#ma14c9f601c" x="249.237915" y="210.04" style="stroke: #000000; stroke-width: 0.8"/>
      </g>
     </g>
     <g id="text_3">
      <text style="font: 10px 'DejaVu Sans', 'Bitstream Vera Sans', 'Computer Modern Sans Serif', 'Lucida Grande', 'Verdana', 'Geneva', 'Lucid', 'Arial', 'Helvetica', 'Avant Garde', sans-serif; text-anchor: middle" x="249.237915" y="224.638438" transform="rotate(-0 249.237915 224.638438)">100</text>
     </g>
    </g>
    <g id="xtick_4">
     <g id="line2d_4">
      <g>
       <use xlink:href="#ma14c9f601c" x="334.772782" y="210.04" style="stroke: #000000; stroke-width: 0.8"/>
      </g>
     </g>
     <g id="text_4">
      <text style="font: 10px 'DejaVu Sans', 'Bitstream Vera Sans', 'Computer Modern Sans Serif', 'Lucida Grande', 'Verdana', 'Geneva', 'Lucid', 'Arial', 'Helvetica', 'Avant Garde', sans-serif; text-anchor: middle" x="334.772782" y="224.638438" transform="rotate(-0 334.772782 224.638438)">150</text>
     </g>
    </g>
    <g id="xtick_5">
     <g id="line2d_5">
      <g>
       <use xlink:href="#ma14c9f601c" x="420.307649" y="210.04" style="stroke: #000000; stroke-width: 0.8"/>
      </g>
     </g>
     <g id="text_5">
      <text style="font: 10px 'DejaVu Sans', 'Bitstream Vera Sans', 'Computer Modern Sans Serif', 'Lucida Grande', 'Verdana', 'Geneva', 'Lucid', 'Arial', 'Helvetica', 'Avant Garde', sans-serif; text-anchor: middle" x="420.307649" y="224.638438" transform="rotate(-0 420.307649 224.638438)">200</text>
     </g>
    </g>
    <g id="xtick_6">
     <g id="line2d_6">
      <g>
       <use xlink:href="#ma14c9f601c" x="505.842516" y="210.04" style="stroke: #000000; stroke-width: 0.8"/>
      </g>
     </g>
     <g id="text_6">
      <text style="font: 10px 'DejaVu Sans', 'Bitstream Vera Sans', 'Computer Modern Sans Serif', 'Lucida Grande', 'Verdana', 'Geneva', 'Lucid', 'Arial', 'Helvetica', 'Avant Garde', sans-serif; text-anchor: middle" x="505.842516" y="224.638438" transform="rotate(-0 505.842516 224.638438)">250</text>
     </g>
    </g>
    <g id="text_7">
     <text style="font: 10px 'DejaVu Sans', 'Bitstream Vera Sans', 'Computer Modern Sans Serif', 'Lucida Grande', 'Verdana', 'Geneva', 'Lucid', 'Arial', 'Helvetica', 'Avant Garde', sans-serif; text-anchor: middle" x="291.15" y="238.316563" transform="rotate(-0 291.15 238.316563)">Cycles</text>
    </g>
   </g>
   <g id="matplotlib.axis_2">
    <g id="ytick_1">
     <g id="line2d_7">
      <defs>
       <path id="m0d39496943" d="M 0 0 
L -3.5 0 
" style="stroke: #000000; stroke-width: 0.8"/>
      </defs>
      <g>
       <use xlink:href="#m0d39496943" x="56.87" y="195.6404" style="stroke: #000000; stroke-width: 0.8"/>
      </g>
     </g>
     <g id="text_8">
      <text style="font: 10px 'DejaVu Sans', 'Bitstream Vera Sans', 'Computer Modern Sans Serif', 'Lucida Grande', 'Verdana', 'Geneva', 'Lucid', 'Arial', 'Helvetica', 'Avant Garde', sans-serif; text-anchor: end" x="49.87" y="199.439619" transform="rotate(-0 49.87 199.439619)">50</text>
     </g>
    </g>
    <g id="ytick_2">
     <g id="line2d_8">
      <g>
       <use xlink:href="#m0d39496943" x="56.87" y="173.035063" style="stroke: #000000; stroke-width: 0.8"/>
      </g>
     </g>
     <g id="text_9">
      <text style="font: 10px 'DejaVu Sans', 'Bitstream Vera Sans', 'Computer Modern Sans Serif', 'Lucida Grande', 'Verdana', 'Geneva', 'Lucid', 'Arial', 'Helvetica', 'Avant Garde', sans-serif; text-anchor: end" x="49.87" y="176.834282" transform="rotate(-0 49.87 176.834282)">100</text>
     </g>
    </g>
    <g id="ytick_3">
     <g id="line2d_9">
      <g>
       <use xlink:href="#m0d39496943" x="56.87" y="150.429727" style="stroke: #000000; stroke-width: 0.8"/>
      </g>
     </g>
     <g id="text_10">
      <text style="font: 10px 'DejaVu Sans', 'Bitstream Vera Sans', 'Computer Modern Sans Serif', 'Lucida Grande', 'Verdana', 'Geneva', 'Lucid', 'Arial', 'Helvetica', 'Avant Garde', sans-serif; text-anchor: end" x="49.87" y="154.228945" transform="rotate(-0 49.87 154.228945)">150</text>
     </g>
    </g>
    <g id="ytick_4">
     <g id="line2d_10">
      <g>
       <use xlink:href="#m0d39496943" x="56.87" y="127.82439" style="stroke: #000000; stroke-width: 0.8"/>
      </g>
     </g>
     <g id="text_11">
      <text style="font: 10px 'DejaVu Sans', 'Bitstream Vera Sans', 'Computer Modern Sans Serif', 'Lucida Grande', 'Verdana', 'Geneva', 'Lucid', 'Arial', 'Helvetica', 'Avant Garde', sans-serif; text-anchor: end" x="49.87" y="131.623608" transform="rotate(-0 49.87 131.623608)">200</text>
     </g>
    </g>
    <g id="ytick_5">
     <g id="line2d_11">
      <g>
       <use xlink:href="#m0d39496943" x="56.87" y="105.219053" style="stroke: #000000; stroke-width: 0.8"/>
      </g>
     </g>
     <g id="text_12">
      <text style="font: 10px 'DejaVu Sans', 'Bitstream Vera Sans', 'Computer Modern Sans Serif', 'Lucida Grande', 'Verdana', 'Geneva', 'Lucid', 'Arial', 'Helvetica', 'Avant Garde', sans-serif; text-anchor: end" x="49.87" y="109.018271" transform="rotate(-0 49.87 109.018271)">250</text>
     </g>
    </g>
    <g id="ytick_6">
     <g id="line2d_12">
      <g>
       <use xlink:href="#m0d39496943" x="56.87" y="82.613716" style="stroke: #000000; stroke-width: 0.8"/>
      </g>
     </g>
     <g id="text_13">
      <text style="font: 10px 'DejaVu Sans', 'Bitstream Vera Sans', 'Computer Modern Sans Serif', 'Lucida Grande', 'Verdana', 'Geneva', 'Lucid', 'Arial', 'Helvetica', 'Avant Garde', sans-serif; text-anchor: end" x="49.87" y="86.412935" transform="rotate(-0 49.87 86.412935)">300</text>
     </g>
    </g>
    <g id="ytick_7">
     <g id="line2d_13">
      <g>
       <use xlink:href="#m0d39496943" x="56.87" y="60.008379" style="stroke: #000000; stroke-width: 0.8"/>
      </g>
     </g>
     <g id="text_14">
      <text style="font: 10px 'DejaVu Sans', 'Bitstream Vera Sans', 'Computer Modern Sans Serif', 'Lucida Grande', 'Verdana', 'Geneva', 'Lucid', 'Arial', 'Helvetica', 'Avant Garde', sans-serif; text-anchor: end" x="49.87" y="63.807598" transform="rotate(-0 49.87 63.807598)">350</text>
     </g>
    </g>
    <g id="ytick_8">
     <g id="line2d_14">
      <g>
       <use xlink:href="#m0d39496943" x="56.87" y="37.403042" style="stroke: #000000; stroke-width: 0.8"/>
      </g>
     </g>
     <g id="text_15">
      <text style="font: 10px 'DejaVu Sans', 'Bitstream Vera Sans', 'Computer Modern Sans Serif', 'Lucida Grande', 'Verdana', 'Geneva', 'Lucid', 'Arial', 'Helvetica', 'Avant Garde', sans-serif; text-anchor: end" x="49.87" y="41.202261" transform="rotate(-0 49.87 41.202261)">400</text>
     </g>
    </g>
    <g id="ytick_9">
     <g id="line2d_15">
      <g>
       <use xlink:href="#m0d39496943" x="56.87" y="14.797705" style="stroke: #000000; stroke-width: 0.8"/>
      </g>
     </g>
     <g id="text_16">
      <text style="font: 10px 'DejaVu Sans', 'Bitstream Vera Sans', 'Computer Modern Sans Serif', 'Lucida Grande', 'Verdana', 'Geneva', 'Lucid', 'Arial', 'Helvetica', 'Avant Garde', sans-serif; text-anchor: end" x="49.87" y="18.596924" transform="rotate(-0 49.87 18.596924)">450</text>
     </g>
    </g>
    <g id="text_17">
     <text style="font: 10px 'DejaVu Sans', 'Bitstream Vera Sans', 'Computer Modern Sans Serif', 'Lucida Grande', 'Verdana', 'Geneva', 'Lucid', 'Arial', 'Helvetica', 'Avant Garde', sans-serif; text-anchor: middle" x="18.702813" y="111.322494" transform="rotate(-90 18.702813 111.322494)">power (uW)</text>
    </g>
   </g>
   <g id="line2d_16">
    <path d="M 78.168182 59.556272 
L 79.878879 60.460486 
L 81.589576 135.058097 
L 83.300274 51.870458 
L 85.010971 61.364699 
L 86.721668 72.215261 
L 88.432366 47.34939 
L 90.143063 76.736328 
L 91.85376 69.050514 
L 93.564458 71.763154 
L 95.275155 119.686468 
L 96.985853 55.939418 
L 98.69655 109.74012 
L 100.407247 139.127058 
L 102.117945 99.341665 
L 103.828642 145.004446 
L 107.250037 73.571581 
L 108.960734 58.652059 
L 110.671431 131.89335 
L 112.382129 74.475795 
L 114.092826 62.268913 
L 115.803523 121.494895 
L 117.514221 70.858941 
L 119.224918 92.107957 
L 120.935615 36.046722 
L 122.646313 75.832115 
L 124.35701 92.560064 
L 126.067707 111.09644 
L 127.778405 47.801497 
L 129.489102 49.609924 
L 131.199799 75.832115 
L 132.910497 180.268771 
L 134.621194 53.678885 
L 136.331891 112.904867 
L 138.042589 142.291805 
L 139.753286 48.70571 
L 141.463983 75.832115 
L 143.174681 69.050514 
L 144.885378 40.567789 
L 146.596075 182.981412 
L 148.306773 106.123266 
L 150.01747 101.602199 
L 151.728167 63.173126 
L 153.438865 104.314839 
L 155.149562 81.257396 
L 156.860259 91.655851 
L 158.570957 38.307255 
L 160.281654 38.759362 
L 161.992351 41.472003 
L 163.703049 200.161468 
L 165.413746 71.311047 
L 167.124443 46.897284 
L 168.835141 105.219053 
L 170.545838 67.694193 
L 172.256535 87.134783 
L 173.967233 41.019896 
L 175.67793 75.380008 
L 177.388627 102.506412 
L 179.099325 77.188435 
L 180.810022 101.150092 
L 182.520719 133.249671 
L 184.231417 61.364699 
L 185.942114 86.23057 
L 187.652811 94.368491 
L 189.363509 42.376216 
L 191.074206 124.207536 
L 192.784903 57.747845 
L 194.495601 108.835907 
L 196.206298 53.226778 
L 197.916995 84.87425 
L 199.627693 66.78998 
L 201.33839 80.805289 
L 203.049087 40.567789 
L 204.759785 109.74012 
L 206.470482 63.173126 
L 208.181179 101.602199 
L 209.891877 82.161609 
L 211.602574 57.295738 
L 213.313271 54.583098 
L 215.023969 39.663576 
L 216.734666 147.717086 
L 218.445363 68.598407 
L 220.156061 49.157817 
L 221.866758 91.655851 
L 223.577455 170.322423 
L 225.288153 99.341665 
L 226.99885 59.556272 
L 228.709547 77.640542 
L 230.420245 135.962311 
L 232.130942 64.981553 
L 233.841639 60.460486 
L 235.552337 82.613716 
L 237.263034 38.759362 
L 238.973731 55.487312 
L 240.684429 55.035205 
L 242.395126 56.391525 
L 244.105823 90.29953 
L 245.816521 70.406834 
L 247.527218 96.176918 
L 249.237915 36.046722 
L 250.948613 172.13085 
L 252.65931 179.364558 
L 254.370007 69.954727 
L 256.080705 192.023546 
L 257.791402 45.99307 
L 259.502099 94.368491 
L 261.212797 96.176918 
L 262.923494 63.173126 
L 264.634191 47.801497 
L 266.344889 130.53703 
L 268.055586 42.376216 
L 269.766283 118.782255 
L 271.476981 69.050514 
L 273.187678 54.130991 
L 274.898375 45.99307 
L 276.609073 118.782255 
L 278.31977 57.747845 
L 280.030467 78.996862 
L 281.741165 68.598407 
L 283.451862 161.280288 
L 285.162559 68.598407 
L 286.873257 66.78998 
L 288.583954 118.782255 
L 290.294651 55.487312 
L 292.005349 79.901075 
L 293.716046 83.517929 
L 295.426743 31.525654 
L 297.137441 102.506412 
L 298.848138 79.901075 
L 300.558835 81.709502 
L 302.269533 145.004446 
L 303.98023 103.410626 
L 305.690927 33.334081 
L 307.401625 80.805289 
L 309.112322 102.958519 
L 310.823019 191.119333 
L 312.533717 104.766946 
L 314.244414 103.410626 
L 315.955111 60.460486 
L 317.665809 75.832115 
L 319.376506 80.805289 
L 321.087203 56.843632 
L 322.797901 201.065681 
L 324.508598 103.410626 
L 326.219295 115.165401 
L 327.929993 87.134783 
L 329.64069 67.242087 
L 331.351387 129.18071 
L 333.062085 51.870458 
L 334.772782 76.284221 
L 336.483479 54.583098 
L 338.194177 79.448969 
L 339.904874 36.046722 
L 341.615571 83.970036 
L 343.326269 59.556272 
L 345.036966 45.99307 
L 346.747663 136.866524 
L 348.458361 112.904867 
L 350.169058 133.249671 
L 351.879755 63.173126 
L 353.590453 158.567648 
L 355.30115 40.567789 
L 357.011847 98.437452 
L 358.722545 68.1463 
L 360.433242 98.889558 
L 362.143939 21.579306 
L 365.565334 91.655851 
L 367.276031 85.778463 
L 368.986729 61.816806 
L 370.697426 108.3838 
L 372.408123 70.858941 
L 374.118821 82.613716 
L 375.829518 56.391525 
L 377.540215 93.464278 
L 379.250913 72.215261 
L 380.96161 70.406834 
L 382.672307 115.617508 
L 384.383005 103.410626 
L 386.093702 77.640542 
L 387.804399 130.53703 
L 389.515097 71.311047 
L 391.225794 158.567648 
L 392.936491 80.805289 
L 394.647189 86.23057 
L 396.357886 49.157817 
L 398.068583 74.927901 
L 399.779281 87.134783 
L 401.489978 57.747845 
L 403.200675 135.962311 
L 404.911373 58.652059 
L 406.62207 59.556272 
L 408.332767 52.322564 
L 410.043465 126.015963 
L 411.754162 44.184643 
L 413.464859 55.487312 
L 415.175557 96.176918 
L 416.886254 84.422143 
L 418.596951 40.567789 
L 420.307649 61.364699 
L 422.018346 60.912592 
L 423.729043 55.487312 
L 425.439741 70.406834 
L 427.150438 39.663576 
L 428.861135 175.747704 
L 430.571833 122.851216 
L 432.28253 64.981553 
L 433.993227 76.736328 
L 435.703925 64.07734 
L 437.414622 55.035205 
L 439.125319 47.801497 
L 440.836017 50.514137 
L 442.546714 38.759362 
L 444.257411 89.847424 
L 445.968109 91.655851 
L 447.678806 105.219053 
L 449.389503 62.721019 
L 451.100201 66.78998 
L 452.810898 77.188435 
L 454.521595 52.322564 
L 456.232293 100.697985 
L 457.94299 187.502479 
L 459.653687 68.1463 
L 461.364385 82.613716 
L 463.075082 75.832115 
L 464.785779 74.927901 
L 466.496477 53.678885 
L 468.207174 41.924109 
L 469.917871 60.912592 
L 471.628569 143.196019 
L 473.339266 193.831973 
L 475.049963 99.793772 
L 476.760661 100.245879 
L 478.471358 80.805289 
L 480.182055 91.655851 
L 481.892753 82.613716 
L 483.60345 78.544755 
L 485.314147 67.694193 
L 487.024845 87.134783 
L 488.735542 84.422143 
L 490.44624 118.330148 
L 492.156937 41.472003 
L 493.867634 107.02748 
L 495.578332 93.464278 
L 497.289029 33.334081 
L 498.999726 171.226637 
L 500.710424 107.02748 
L 502.421121 79.448969 
L 504.131818 110.644334 
L 504.131818 110.644334 
" clip-path="url(#pf2743c9dd3)" style="fill: none; stroke: #99004d; stroke-width: 0.8; stroke-linecap: square"/>
   </g>
   <g id="patch_3">
    <path d="M 56.87 210.04 
L 56.87 12.604987 
" style="fill: none; stroke: #000000; stroke-width: 0.8; stroke-linejoin: miter; stroke-linecap: square"/>
   </g>
   <g id="patch_4">
    <path d="M 525.43 210.04 
L 525.43 12.604987 
" style="fill: none; stroke: #000000; stroke-width: 0.8; stroke-linejoin: miter; stroke-linecap: square"/>
   </g>
   <g id="patch_5">
    <path d="M 56.87 210.04 
L 525.43 210.04 
" style="fill: none; stroke: #000000; stroke-width: 0.8; stroke-linejoin: miter; stroke-linecap: square"/>
   </g>
   <g id="patch_6">
    <path d="M 56.87 12.604987 
L 525.43 12.604987 
" style="fill: none; stroke: #000000; stroke-width: 0.8; stroke-linejoin: miter; stroke-linecap: square"/>
   </g>
  </g>
  <g id="axes_2">
   <g id="matplotlib.axis_3">
    <g id="ytick_10">
     <g id="line2d_17">
      <defs>
       <path id="m4329df46d2" d="M 0 0 
L 3.5 0 
" style="stroke: #000000; stroke-width: 0.8"/>
      </defs>
      <g>
       <use xlink:href="#m4329df46d2" x="525.43" y="187.043308" style="stroke: #000000; stroke-width: 0.8"/>
      </g>
     </g>
     <g id="text_18">
      <text style="font: 10px 'DejaVu Sans', 'Bitstream Vera Sans', 'Computer Modern Sans Serif', 'Lucida Grande', 'Verdana', 'Geneva', 'Lucid', 'Arial', 'Helvetica', 'Avant Garde', sans-serif; text-anchor: start" x="532.43" y="190.842527" transform="rotate(-0 532.43 190.842527)">10</text>
     </g>
    </g>
    <g id="ytick_11">
     <g id="line2d_18">
      <g>
       <use xlink:href="#m4329df46d2" x="525.43" y="158.998562" style="stroke: #000000; stroke-width: 0.8"/>
      </g>
     </g>
     <g id="text_19">
      <text style="font: 10px 'DejaVu Sans', 'Bitstream Vera Sans', 'Computer Modern Sans Serif', 'Lucida Grande', 'Verdana', 'Geneva', 'Lucid', 'Arial', 'Helvetica', 'Avant Garde', sans-serif; text-anchor: start" x="532.43" y="162.797781" transform="rotate(-0 532.43 162.797781)">20</text>
     </g>
    </g>
    <g id="ytick_12">
     <g id="line2d_19">
      <g>
       <use xlink:href="#m4329df46d2" x="525.43" y="130.953816" style="stroke: #000000; stroke-width: 0.8"/>
      </g>
     </g>
     <g id="text_20">
      <text style="font: 10px 'DejaVu Sans', 'Bitstream Vera Sans', 'Computer Modern Sans Serif', 'Lucida Grande', 'Verdana', 'Geneva', 'Lucid', 'Arial', 'Helvetica', 'Avant Garde', sans-serif; text-anchor: start" x="532.43" y="134.753035" transform="rotate(-0 532.43 134.753035)">30</text>
     </g>
    </g>
    <g id="ytick_13">
     <g id="line2d_20">
      <g>
       <use xlink:href="#m4329df46d2" x="525.43" y="102.90907" style="stroke: #000000; stroke-width: 0.8"/>
      </g>
     </g>
     <g id="text_21">
      <text style="font: 10px 'DejaVu Sans', 'Bitstream Vera Sans', 'Computer Modern Sans Serif', 'Lucida Grande', 'Verdana', 'Geneva', 'Lucid', 'Arial', 'Helvetica', 'Avant Garde', sans-serif; text-anchor: start" x="532.43" y="106.708289" transform="rotate(-0 532.43 106.708289)">40</text>
     </g>
    </g>
    <g id="ytick_14">
     <g id="line2d_21">
      <g>
       <use xlink:href="#m4329df46d2" x="525.43" y="74.864324" style="stroke: #000000; stroke-width: 0.8"/>
      </g>
     </g>
     <g id="text_22">
      <text style="font: 10px 'DejaVu Sans', 'Bitstream Vera Sans', 'Computer Modern Sans Serif', 'Lucida Grande', 'Verdana', 'Geneva', 'Lucid', 'Arial', 'Helvetica', 'Avant Garde', sans-serif; text-anchor: start" x="532.43" y="78.663543" transform="rotate(-0 532.43 78.663543)">50</text>
     </g>
    </g>
    <g id="ytick_15">
     <g id="line2d_22">
      <g>
       <use xlink:href="#m4329df46d2" x="525.43" y="46.819578" style="stroke: #000000; stroke-width: 0.8"/>
      </g>
     </g>
     <g id="text_23">
      <text style="font: 10px 'DejaVu Sans', 'Bitstream Vera Sans', 'Computer Modern Sans Serif', 'Lucida Grande', 'Verdana', 'Geneva', 'Lucid', 'Arial', 'Helvetica', 'Avant Garde', sans-serif; text-anchor: start" x="532.43" y="50.618796" transform="rotate(-0 532.43 50.618796)">60</text>
     </g>
    </g>
    <g id="ytick_16">
     <g id="line2d_23">
      <g>
       <use xlink:href="#m4329df46d2" x="525.43" y="18.774832" style="stroke: #000000; stroke-width: 0.8"/>
      </g>
     </g>
     <g id="text_24">
      <text style="font: 10px 'DejaVu Sans', 'Bitstream Vera Sans', 'Computer Modern Sans Serif', 'Lucida Grande', 'Verdana', 'Geneva', 'Lucid', 'Arial', 'Helvetica', 'Avant Garde', sans-serif; text-anchor: start" x="532.43" y="22.57405" transform="rotate(-0 532.43 22.57405)">70</text>
     </g>
    </g>
    <g id="text_25">
     <text style="font: 10px 'DejaVu Sans', 'Bitstream Vera Sans', 'Computer Modern Sans Serif', 'Lucida Grande', 'Verdana', 'Geneva', 'Lucid', 'Arial', 'Helvetica', 'Avant Garde', sans-serif; text-anchor: middle" x="562.753438" y="111.322494" transform="rotate(-90 562.753438 111.322494)">hw(data)</text>
    </g>
   </g>
   <g id="line2d_24">
    <path d="M 78.168182 100.104595 
L 79.878879 86.082222 
L 81.589576 150.585138 
L 83.300274 74.864324 
L 85.010971 38.406154 
L 86.721668 114.126968 
L 88.432366 58.037476 
L 90.143063 142.171714 
L 91.85376 116.931443 
L 93.564458 52.428527 
L 95.275155 97.300121 
L 96.985853 52.428527 
L 98.69655 119.735918 
L 100.407247 105.713544 
L 102.117945 41.210628 
L 103.828642 119.735918 
L 105.539339 72.059849 
L 107.250037 94.495646 
L 108.960734 72.059849 
L 110.671431 122.540392 
L 112.382129 69.255375 
L 114.092826 41.210628 
L 115.803523 122.540392 
L 117.514221 116.931443 
L 119.224918 80.473273 
L 120.935615 38.406154 
L 122.646313 63.646425 
L 124.35701 94.495646 
L 126.067707 100.104595 
L 129.489102 55.233001 
L 131.199799 52.428527 
L 132.910497 156.194087 
L 134.621194 60.841951 
L 136.331891 86.082222 
L 138.042589 147.780664 
L 139.753286 44.015103 
L 141.463983 66.4509 
L 143.174681 77.668798 
L 144.885378 41.210628 
L 146.596075 133.758291 
L 148.306773 144.976189 
L 150.01747 130.953816 
L 151.728167 72.059849 
L 153.438865 128.149341 
L 155.149562 102.90907 
L 156.860259 161.803037 
L 158.570957 52.428527 
L 160.281654 24.383781 
L 161.992351 55.233001 
L 163.703049 189.847783 
L 165.413746 32.797205 
L 167.124443 46.819578 
L 168.835141 116.931443 
L 170.545838 111.322494 
L 172.256535 91.691171 
L 173.967233 44.015103 
L 175.67793 125.344867 
L 177.388627 167.411986 
L 179.099325 125.344867 
L 180.810022 55.233001 
L 182.520719 153.389613 
L 184.231417 105.713544 
L 185.942114 116.931443 
L 187.652811 111.322494 
L 189.363509 55.233001 
L 191.074206 136.562765 
L 192.784903 77.668798 
L 194.495601 158.998562 
L 196.206298 97.300121 
L 199.627693 63.646425 
L 201.33839 114.126968 
L 203.049087 32.797205 
L 204.759785 164.607511 
L 206.470482 97.300121 
L 208.181179 102.90907 
L 209.891877 139.36724 
L 211.602574 102.90907 
L 213.313271 44.015103 
L 215.023969 46.819578 
L 216.734666 170.216461 
L 218.445363 86.082222 
L 220.156061 58.037476 
L 221.866758 86.082222 
L 223.577455 173.020935 
L 225.288153 125.344867 
L 226.99885 111.322494 
L 228.709547 88.886697 
L 230.420245 122.540392 
L 232.130942 119.735918 
L 233.841639 72.059849 
L 235.552337 122.540392 
L 237.263034 27.188255 
L 238.973731 58.037476 
L 240.684429 72.059849 
L 242.395126 72.059849 
L 244.105823 142.171714 
L 245.816521 105.713544 
L 247.527218 52.428527 
L 249.237915 27.188255 
L 250.948613 173.020935 
L 252.65931 158.998562 
L 254.370007 80.473273 
L 256.080705 164.607511 
L 257.791402 52.428527 
L 259.502099 158.998562 
L 261.212797 119.735918 
L 262.923494 111.322494 
L 264.634191 55.233001 
L 266.344889 170.216461 
L 268.055586 69.255375 
L 269.766283 187.043308 
L 271.476981 60.841951 
L 273.187678 77.668798 
L 274.898375 21.579306 
L 276.609073 94.495646 
L 278.31977 58.037476 
L 280.030467 105.713544 
L 281.741165 46.819578 
L 283.451862 116.931443 
L 285.162559 41.210628 
L 286.873257 86.082222 
L 288.583954 111.322494 
L 290.294651 44.015103 
L 292.005349 86.082222 
L 293.716046 80.473273 
L 295.426743 24.383781 
L 297.137441 125.344867 
L 298.848138 88.886697 
L 300.558835 91.691171 
L 302.269533 139.36724 
L 303.98023 133.758291 
L 305.690927 29.99273 
L 307.401625 108.518019 
L 309.112322 125.344867 
L 310.823019 167.411986 
L 312.533717 55.233001 
L 314.244414 128.149341 
L 315.955111 46.819578 
L 317.665809 69.255375 
L 319.376506 72.059849 
L 321.087203 35.601679 
L 322.797901 198.261207 
L 324.508598 72.059849 
L 326.219295 122.540392 
L 327.929993 83.277748 
L 329.64069 114.126968 
L 331.351387 181.434359 
L 333.062085 72.059849 
L 334.772782 97.300121 
L 336.483479 66.4509 
L 338.194177 66.4509 
L 339.904874 41.210628 
L 341.615571 173.020935 
L 343.326269 69.255375 
L 345.036966 49.624052 
L 346.747663 156.194087 
L 348.458361 83.277748 
L 350.169058 125.344867 
L 351.879755 80.473273 
L 353.590453 130.953816 
L 355.30115 52.428527 
L 357.011847 128.149341 
L 358.722545 91.691171 
L 360.433242 102.90907 
L 362.143939 32.797205 
L 363.854637 72.059849 
L 365.565334 108.518019 
L 367.276031 105.713544 
L 368.986729 58.037476 
L 370.697426 128.149341 
L 372.408123 91.691171 
L 374.118821 111.322494 
L 375.829518 66.4509 
L 377.540215 130.953816 
L 379.250913 100.104595 
L 380.96161 66.4509 
L 382.672307 97.300121 
L 384.383005 91.691171 
L 386.093702 119.735918 
L 387.804399 158.998562 
L 389.515097 116.931443 
L 391.225794 164.607511 
L 392.936491 158.998562 
L 394.647189 133.758291 
L 396.357886 80.473273 
L 398.068583 119.735918 
L 399.779281 128.149341 
L 401.489978 63.646425 
L 403.200675 184.238834 
L 404.911373 58.037476 
L 406.62207 55.233001 
L 408.332767 29.99273 
L 410.043465 144.976189 
L 411.754162 35.601679 
L 413.464859 80.473273 
L 415.175557 116.931443 
L 416.886254 139.36724 
L 418.596951 58.037476 
L 420.307649 60.841951 
L 422.018346 80.473273 
L 423.729043 77.668798 
L 425.439741 105.713544 
L 427.150438 41.210628 
L 428.861135 192.652257 
L 430.571833 142.171714 
L 432.28253 41.210628 
L 433.993227 139.36724 
L 435.703925 88.886697 
L 439.125319 27.188255 
L 440.836017 49.624052 
L 442.546714 32.797205 
L 444.257411 153.389613 
L 445.968109 139.36724 
L 447.678806 136.562765 
L 449.389503 49.624052 
L 451.100201 80.473273 
L 452.810898 128.149341 
L 454.521595 86.082222 
L 456.232293 108.518019 
L 457.94299 158.998562 
L 459.653687 60.841951 
L 461.364385 111.322494 
L 463.075082 80.473273 
L 464.785779 44.015103 
L 466.496477 58.037476 
L 468.207174 32.797205 
L 469.917871 91.691171 
L 471.628569 201.065681 
L 473.339266 184.238834 
L 475.049963 144.976189 
L 478.471358 83.277748 
L 480.182055 86.082222 
L 481.892753 74.864324 
L 483.60345 52.428527 
L 485.314147 83.277748 
L 487.024845 136.562765 
L 488.735542 108.518019 
L 490.44624 116.931443 
L 492.156937 44.015103 
L 493.867634 170.216461 
L 495.578332 133.758291 
L 497.289029 49.624052 
L 498.999726 170.216461 
L 500.710424 125.344867 
L 502.421121 58.037476 
L 504.131818 108.518019 
L 504.131818 108.518019 
" clip-path="url(#pf2743c9dd3)" style="fill: none; stroke: #235996; stroke-width: 0.8; stroke-linecap: square"/>
   </g>
   <g id="patch_7">
    <path d="M 56.87 210.04 
L 56.87 12.604987 
" style="fill: none; stroke: #000000; stroke-width: 0.8; stroke-linejoin: miter; stroke-linecap: square"/>
   </g>
   <g id="patch_8">
    <path d="M 525.43 210.04 
L 525.43 12.604987 
" style="fill: none; stroke: #000000; stroke-width: 0.8; stroke-linejoin: miter; stroke-linecap: square"/>
   </g>
   <g id="patch_9">
    <path d="M 56.87 210.04 
L 525.43 210.04 
" style="fill: none; stroke: #000000; stroke-width: 0.8; stroke-linejoin: miter; stroke-linecap: square"/>
   </g>
   <g id="patch_10">
    <path d="M 56.87 12.604987 
L 525.43 12.604987 
" style="fill: none; stroke: #000000; stroke-width: 0.8; stroke-linejoin: miter; stroke-linecap: square"/>
   </g>
   <g id="legend_1">
    <g id="patch_11">
     <path d="M 150.539625 45.261487 
L 431.760375 45.261487 
Q 434.640375 45.261487 434.640375 42.381487 
L 434.640375 22.684987 
Q 434.640375 19.804987 431.760375 19.804987 
L 150.539625 19.804987 
Q 147.659625 19.804987 147.659625 22.684987 
L 147.659625 42.381487 
Q 147.659625 45.261487 150.539625 45.261487 
z
" style="fill: #ffffff; opacity: 0.8; stroke: #000000; stroke-linejoin: miter"/>
    </g>
    <g id="line2d_25">
     <path d="M 153.419625 31.466737 
L 167.819625 31.466737 
L 182.219625 31.466737 
" style="fill: none; stroke: #99004d; stroke-width: 0.8; stroke-linecap: square"/>
    </g>
    <g id="text_26">
     <text style="font: 14.4px 'DejaVu Sans', 'Bitstream Vera Sans', 'Computer Modern Sans Serif', 'Lucida Grande', 'Verdana', 'Geneva', 'Lucid', 'Arial', 'Helvetica', 'Avant Garde', sans-serif; text-anchor: start" x="193.739625" y="36.506737" transform="rotate(-0 193.739625 36.506737)">power</text>
    </g>
    <g id="line2d_26">
     <path d="M 267.049125 31.466737 
L 281.449125 31.466737 
L 295.849125 31.466737 
" style="fill: none; stroke: #235996; stroke-width: 0.8; stroke-linecap: square"/>
    </g>
    <g id="text_27">
     <text style="font: 14.4px 'DejaVu Sans', 'Bitstream Vera Sans', 'Computer Modern Sans Serif', 'Lucida Grande', 'Verdana', 'Geneva', 'Lucid', 'Arial', 'Helvetica', 'Avant Garde', sans-serif; text-anchor: start" x="307.369125" y="36.506737" transform="rotate(-0 307.369125 36.506737)">hw(rs1)+hw(rs2)</text>
    </g>
   </g>
  </g>
 </g>
 <defs>
  <clipPath id="pf2743c9dd3">
   <rect x="56.87" y="12.604987" width="468.56" height="197.435013"/>
  </clipPath>
 </defs>
</svg>
