<?xml version="1.0" encoding="utf-8" standalone="no"?>
<!DOCTYPE svg PUBLIC "-//W3C//DTD SVG 1.1//EN"
  "http://www.w3.org/Graphics/SVG/1.1/DTD/svg11.dtd">
<svg xmlns:xlink="http://www.w3.org/1999/xlink" width="576pt" height="252pt" viewBox="0 0 576 252" xmlns="http://www.w3.org/2000/svg" version="1.1">
 <metadata>
  <rdf:RDF xmlns:dc="http://purl.org/dc/elements/1.1/" xmlns:cc="http://creativecommons.org/ns#" xmlns:rdf="http://www.w3.org/1999/02/22-rdf-syntax-ns#">
   <cc:Work>
    <dc:type rdf:resource="http://purl.org/dc/dcmitype/StillImage"/>
    <dc:date>2023-12-06T19:46:15.119342</dc:date>
    <dc:format>image/svg+xml</dc:format>
    <dc:creator>
     <cc:Agent>
      <dc:title>Matplotlib v3.7.4, https://matplotlib.org/</dc:title>
     </cc:Agent>
    </dc:creator>
   </cc:Work>
  </rdf:RDF>
 </metadata>
 <defs>
  <style type="text/css">*{stroke-linejoin: round; stroke-linecap: butt}</style>
 </defs>
 <g id="figure_1">
  <g id="patch_1">
   <path d="M 0 252 
L 576 252 
L 576 0 
L 0 0 
z
" style="fill: #ffffff"/>
  </g>
  <g id="axes_1">
   <g id="patch_2">
    <path d="M 56.87 210.04 
L 525.43 210.04 
L 525.43 11.54 
L 56.87 11.54 
z
" style="fill: #ffffff"/>
   </g>
   <g id="matplotlib.axis_1">
    <g id="xtick_1">
     <g id="line2d_1">
      <defs>
       <path id="ma6a9ee7b54" d="M 0 0 
L 0 3.5 
" style="stroke: #000000; stroke-width: 0.8"/>
      </defs>
      <g>
       <use xlink:href="#ma6a9ee7b54" x="78.168182" y="210.04" style="stroke: #000000; stroke-width: 0.8"/>
      </g>
     </g>
     <g id="text_1">
      <text style="font: 10px 'DejaVu Sans', 'Bitstream Vera Sans', 'Computer Modern Sans Serif', 'Lucida Grande', 'Verdana', 'Geneva', 'Lucid', 'Arial', 'Helvetica', 'Avant Garde', sans-serif; text-anchor: middle" x="78.168182" y="224.638438" transform="rotate(-0 78.168182 224.638438)">0</text>
     </g>
    </g>
    <g id="xtick_2">
     <g id="line2d_2">
      <g>
       <use xlink:href="#ma6a9ee7b54" x="163.703049" y="210.04" style="stroke: #000000; stroke-width: 0.8"/>
      </g>
     </g>
     <g id="text_2">
      <text style="font: 10px 'DejaVu Sans', 'Bitstream Vera Sans', 'Computer Modern Sans Serif', 'Lucida Grande', 'Verdana', 'Geneva', 'Lucid', 'Arial', 'Helvetica', 'Avant Garde', sans-serif; text-anchor: middle" x="163.703049" y="224.638438" transform="rotate(-0 163.703049 224.638438)">50</text>
     </g>
    </g>
    <g id="xtick_3">
     <g id="line2d_3">
      <g>
       <use xlink:href="#ma6a9ee7b54" x="249.237915" y="210.04" style="stroke: #000000; stroke-width: 0.8"/>
      </g>
     </g>
     <g id="text_3">
      <text style="font: 10px 'DejaVu Sans', 'Bitstream Vera Sans', 'Computer Modern Sans Serif', 'Lucida Grande', 'Verdana', 'Geneva', 'Lucid', 'Arial', 'Helvetica', 'Avant Garde', sans-serif; text-anchor: middle" x="249.237915" y="224.638438" transform="rotate(-0 249.237915 224.638438)">100</text>
     </g>
    </g>
    <g id="xtick_4">
     <g id="line2d_4">
      <g>
       <use xlink:href="#ma6a9ee7b54" x="334.772782" y="210.04" style="stroke: #000000; stroke-width: 0.8"/>
      </g>
     </g>
     <g id="text_4">
      <text style="font: 10px 'DejaVu Sans', 'Bitstream Vera Sans', 'Computer Modern Sans Serif', 'Lucida Grande', 'Verdana', 'Geneva', 'Lucid', 'Arial', 'Helvetica', 'Avant Garde', sans-serif; text-anchor: middle" x="334.772782" y="224.638438" transform="rotate(-0 334.772782 224.638438)">150</text>
     </g>
    </g>
    <g id="xtick_5">
     <g id="line2d_5">
      <g>
       <use xlink:href="#ma6a9ee7b54" x="420.307649" y="210.04" style="stroke: #000000; stroke-width: 0.8"/>
      </g>
     </g>
     <g id="text_5">
      <text style="font: 10px 'DejaVu Sans', 'Bitstream Vera Sans', 'Computer Modern Sans Serif', 'Lucida Grande', 'Verdana', 'Geneva', 'Lucid', 'Arial', 'Helvetica', 'Avant Garde', sans-serif; text-anchor: middle" x="420.307649" y="224.638438" transform="rotate(-0 420.307649 224.638438)">200</text>
     </g>
    </g>
    <g id="xtick_6">
     <g id="line2d_6">
      <g>
       <use xlink:href="#ma6a9ee7b54" x="505.842516" y="210.04" style="stroke: #000000; stroke-width: 0.8"/>
      </g>
     </g>
     <g id="text_6">
      <text style="font: 10px 'DejaVu Sans', 'Bitstream Vera Sans', 'Computer Modern Sans Serif', 'Lucida Grande', 'Verdana', 'Geneva', 'Lucid', 'Arial', 'Helvetica', 'Avant Garde', sans-serif; text-anchor: middle" x="505.842516" y="224.638438" transform="rotate(-0 505.842516 224.638438)">250</text>
     </g>
    </g>
    <g id="text_7">
     <text style="font: 10px 'DejaVu Sans', 'Bitstream Vera Sans', 'Computer Modern Sans Serif', 'Lucida Grande', 'Verdana', 'Geneva', 'Lucid', 'Arial', 'Helvetica', 'Avant Garde', sans-serif; text-anchor: middle" x="291.15" y="238.316563" transform="rotate(-0 291.15 238.316563)">Cycles</text>
    </g>
   </g>
   <g id="matplotlib.axis_2">
    <g id="ytick_1">
     <g id="line2d_7">
      <defs>
       <path id="m2f1f612dba" d="M 0 0 
L -3.5 0 
" style="stroke: #000000; stroke-width: 0.8"/>
      </defs>
      <g>
       <use xlink:href="#m2f1f612dba" x="56.87" y="184.565576" style="stroke: #000000; stroke-width: 0.8"/>
      </g>
     </g>
     <g id="text_8">
      <text style="font: 10px 'DejaVu Sans', 'Bitstream Vera Sans', 'Computer Modern Sans Serif', 'Lucida Grande', 'Verdana', 'Geneva', 'Lucid', 'Arial', 'Helvetica', 'Avant Garde', sans-serif; text-anchor: end" x="49.87" y="188.364795" transform="rotate(-0 49.87 188.364795)">100</text>
     </g>
    </g>
    <g id="ytick_2">
     <g id="line2d_8">
      <g>
       <use xlink:href="#m2f1f612dba" x="56.87" y="158.859801" style="stroke: #000000; stroke-width: 0.8"/>
      </g>
     </g>
     <g id="text_9">
      <text style="font: 10px 'DejaVu Sans', 'Bitstream Vera Sans', 'Computer Modern Sans Serif', 'Lucida Grande', 'Verdana', 'Geneva', 'Lucid', 'Arial', 'Helvetica', 'Avant Garde', sans-serif; text-anchor: end" x="49.87" y="162.659019" transform="rotate(-0 49.87 162.659019)">150</text>
     </g>
    </g>
    <g id="ytick_3">
     <g id="line2d_9">
      <g>
       <use xlink:href="#m2f1f612dba" x="56.87" y="133.154025" style="stroke: #000000; stroke-width: 0.8"/>
      </g>
     </g>
     <g id="text_10">
      <text style="font: 10px 'DejaVu Sans', 'Bitstream Vera Sans', 'Computer Modern Sans Serif', 'Lucida Grande', 'Verdana', 'Geneva', 'Lucid', 'Arial', 'Helvetica', 'Avant Garde', sans-serif; text-anchor: end" x="49.87" y="136.953244" transform="rotate(-0 49.87 136.953244)">200</text>
     </g>
    </g>
    <g id="ytick_4">
     <g id="line2d_10">
      <g>
       <use xlink:href="#m2f1f612dba" x="56.87" y="107.448249" style="stroke: #000000; stroke-width: 0.8"/>
      </g>
     </g>
     <g id="text_11">
      <text style="font: 10px 'DejaVu Sans', 'Bitstream Vera Sans', 'Computer Modern Sans Serif', 'Lucida Grande', 'Verdana', 'Geneva', 'Lucid', 'Arial', 'Helvetica', 'Avant Garde', sans-serif; text-anchor: end" x="49.87" y="111.247468" transform="rotate(-0 49.87 111.247468)">250</text>
     </g>
    </g>
    <g id="ytick_5">
     <g id="line2d_11">
      <g>
       <use xlink:href="#m2f1f612dba" x="56.87" y="81.742473" style="stroke: #000000; stroke-width: 0.8"/>
      </g>
     </g>
     <g id="text_12">
      <text style="font: 10px 'DejaVu Sans', 'Bitstream Vera Sans', 'Computer Modern Sans Serif', 'Lucida Grande', 'Verdana', 'Geneva', 'Lucid', 'Arial', 'Helvetica', 'Avant Garde', sans-serif; text-anchor: end" x="49.87" y="85.541692" transform="rotate(-0 49.87 85.541692)">300</text>
     </g>
    </g>
    <g id="ytick_6">
     <g id="line2d_12">
      <g>
       <use xlink:href="#m2f1f612dba" x="56.87" y="56.036698" style="stroke: #000000; stroke-width: 0.8"/>
      </g>
     </g>
     <g id="text_13">
      <text style="font: 10px 'DejaVu Sans', 'Bitstream Vera Sans', 'Computer Modern Sans Serif', 'Lucida Grande', 'Verdana', 'Geneva', 'Lucid', 'Arial', 'Helvetica', 'Avant Garde', sans-serif; text-anchor: end" x="49.87" y="59.835916" transform="rotate(-0 49.87 59.835916)">350</text>
     </g>
    </g>
    <g id="ytick_7">
     <g id="line2d_13">
      <g>
       <use xlink:href="#m2f1f612dba" x="56.87" y="30.330922" style="stroke: #000000; stroke-width: 0.8"/>
      </g>
     </g>
     <g id="text_14">
      <text style="font: 10px 'DejaVu Sans', 'Bitstream Vera Sans', 'Computer Modern Sans Serif', 'Lucida Grande', 'Verdana', 'Geneva', 'Lucid', 'Arial', 'Helvetica', 'Avant Garde', sans-serif; text-anchor: end" x="49.87" y="34.130141" transform="rotate(-0 49.87 34.130141)">400</text>
     </g>
    </g>
    <g id="text_15">
     <text style="font: 10px 'DejaVu Sans', 'Bitstream Vera Sans', 'Computer Modern Sans Serif', 'Lucida Grande', 'Verdana', 'Geneva', 'Lucid', 'Arial', 'Helvetica', 'Avant Garde', sans-serif; text-anchor: middle" x="18.702813" y="110.79" transform="rotate(-90 18.702813 110.79)">power (uW)</text>
    </g>
   </g>
   <g id="line2d_14">
    <path d="M 78.168182 99.222401 
L 79.878879 106.420018 
L 81.589576 59.635506 
L 83.300274 46.268503 
L 85.010971 81.742473 
L 86.721668 103.849441 
L 88.432366 107.448249 
L 90.143063 52.437889 
L 91.85376 57.064929 
L 93.564458 100.250632 
L 95.275155 159.888032 
L 96.985853 80.714242 
L 98.69655 117.730559 
L 100.407247 80.714242 
L 102.117945 58.09316 
L 103.828642 116.702328 
L 105.539339 150.633952 
L 107.250037 38.042655 
L 108.960734 82.770704 
L 110.671431 138.29518 
L 112.382129 37.014424 
L 114.092826 116.702328 
L 115.803523 39.070886 
L 117.514221 150.633952 
L 119.224918 62.720199 
L 120.935615 103.335325 
L 122.646313 63.234315 
L 124.35701 102.307094 
L 126.067707 47.81085 
L 127.778405 43.18381 
L 129.489102 64.776661 
L 131.199799 112.075289 
L 132.910497 25.703882 
L 134.621194 100.250632 
L 136.331891 29.816807 
L 138.042589 111.561173 
L 139.753286 88.940091 
L 141.463983 201.017273 
L 143.174681 50.895543 
L 144.885378 107.448249 
L 146.596075 117.730559 
L 148.306773 65.804893 
L 150.01747 65.804893 
L 151.728167 117.730559 
L 153.438865 98.708285 
L 155.149562 90.996553 
L 156.860259 28.788575 
L 158.570957 183.537345 
L 160.281654 98.708285 
L 161.992351 61.691968 
L 163.703049 100.764747 
L 165.413746 104.877672 
L 167.124443 69.917817 
L 168.835141 129.041101 
L 170.545838 131.097563 
L 172.256535 87.91186 
L 173.967233 53.46612 
L 175.67793 80.714242 
L 177.388627 75.573087 
L 179.099325 73.516625 
L 180.810022 104.363556 
L 182.520719 41.127348 
L 184.231417 29.816807 
L 185.942114 166.057418 
L 187.652811 85.341282 
L 189.363509 125.956408 
L 191.074206 90.996553 
L 192.784903 102.82121 
L 196.206298 70.431932 
L 197.916995 79.686011 
L 199.627693 34.443846 
L 201.33839 86.883629 
L 203.049087 71.974279 
L 204.759785 50.895543 
L 206.470482 146.521028 
L 208.181179 68.889586 
L 209.891877 99.736516 
L 211.602574 105.391787 
L 213.313271 98.708285 
L 215.023969 139.323411 
L 216.734666 39.070886 
L 218.445363 59.121391 
L 220.156061 27.760344 
L 221.866758 110.532942 
L 223.577455 71.460163 
L 225.288153 29.816807 
L 226.99885 78.65778 
L 228.709547 20.562727 
L 230.420245 55.522582 
L 232.130942 64.262546 
L 233.841639 107.962365 
L 235.552337 192.791425 
L 237.263034 57.579044 
L 238.973731 67.861355 
L 240.684429 81.228358 
L 242.395126 144.464566 
L 244.105823 57.579044 
L 245.816521 96.137708 
L 247.527218 96.137708 
L 249.237915 187.650269 
L 250.948613 61.691968 
L 254.370007 99.222401 
L 256.080705 41.127348 
L 257.791402 87.91186 
L 259.502099 52.952005 
L 261.212797 55.522582 
L 262.923494 97.680054 
L 264.634191 62.206084 
L 266.344889 76.601318 
L 268.055586 64.776661 
L 269.766283 69.403701 
L 271.476981 51.409658 
L 273.187678 53.46612 
L 274.898375 71.460163 
L 276.609073 60.663737 
L 278.31977 61.691968 
L 280.030467 45.240272 
L 281.741165 39.585001 
L 283.451862 137.781064 
L 285.162559 107.962365 
L 286.873257 45.240272 
L 288.583954 76.087203 
L 290.294651 128.01287 
L 292.005349 30.845038 
L 293.716046 125.956408 
L 295.426743 78.65778 
L 297.137441 74.030741 
L 298.848138 75.573087 
L 300.558835 73.00251 
L 302.269533 195.876118 
L 303.98023 99.222401 
L 305.690927 45.240272 
L 307.401625 129.041101 
L 309.112322 68.37547 
L 310.823019 71.460163 
L 312.533717 61.691968 
L 314.244414 78.65778 
L 315.955111 54.494351 
L 317.665809 76.087203 
L 319.376506 45.240272 
L 321.087203 59.635506 
L 322.797901 37.528539 
L 324.508598 199.989042 
L 326.219295 89.968322 
L 327.929993 104.877672 
L 329.64069 123.38583 
L 333.062085 66.319008 
L 334.772782 83.28482 
L 336.483479 39.585001 
L 338.194177 64.262546 
L 339.904874 185.593807 
L 341.615571 61.691968 
L 343.326269 61.177853 
L 345.036966 170.170342 
L 346.747663 59.121391 
L 348.458361 52.437889 
L 350.169058 69.403701 
L 351.879755 125.956408 
L 353.590453 45.754387 
L 355.30115 129.041101 
L 357.011847 37.528539 
L 358.722545 66.833124 
L 360.433242 57.579044 
L 362.143939 68.889586 
L 363.854637 104.363556 
L 365.565334 51.409658 
L 367.276031 59.635506 
L 368.986729 104.363556 
L 370.697426 101.278863 
L 372.408123 69.917817 
L 374.118821 62.720199 
L 375.829518 92.538899 
L 377.540215 147.549259 
L 379.250913 53.46612 
L 380.96161 97.165939 
L 382.672307 80.200127 
L 384.383005 89.968322 
L 386.093702 96.137708 
L 387.804399 33.929731 
L 389.515097 48.324965 
L 391.225794 32.9015 
L 392.936491 102.307094 
L 394.647189 76.601318 
L 396.357886 54.494351 
L 398.068583 64.776661 
L 399.779281 77.115434 
L 401.489978 98.708285 
L 403.200675 33.929731 
L 404.911373 32.387384 
L 406.62207 47.81085 
L 408.332767 143.436335 
L 410.043465 35.986193 
L 411.754162 35.986193 
L 413.464859 59.121391 
L 415.175557 72.488394 
L 416.886254 71.974279 
L 418.596951 87.91186 
L 420.307649 65.804893 
L 422.018346 144.464566 
L 423.729043 30.845038 
L 425.439741 176.339728 
L 427.150438 102.307094 
L 428.861135 109.504711 
L 430.571833 40.099117 
L 432.28253 38.55677 
L 433.993227 164.000956 
L 435.703925 118.75879 
L 437.414622 32.9015 
L 439.125319 74.030741 
L 440.836017 47.296734 
L 442.546714 63.74843 
L 444.257411 73.00251 
L 445.968109 47.81085 
L 447.678806 30.845038 
L 449.389503 54.494351 
L 451.100201 66.319008 
L 452.810898 86.369513 
L 454.521595 24.675651 
L 456.232293 85.341282 
L 457.94299 37.528539 
L 459.653687 105.391787 
L 461.364385 40.099117 
L 463.075082 104.363556 
L 464.785779 64.776661 
L 466.496477 95.109477 
L 468.207174 51.923774 
L 469.917871 33.929731 
L 471.628569 110.532942 
L 473.339266 107.962365 
L 475.049963 92.024784 
L 476.760661 47.296734 
L 478.471358 187.136154 
L 480.182055 109.504711 
L 481.892753 137.781064 
L 483.60345 103.335325 
L 485.314147 83.798936 
L 487.024845 137.266949 
L 488.735542 60.663737 
L 490.44624 104.363556 
L 492.156937 74.544856 
L 493.867634 41.641463 
L 495.578332 77.629549 
L 497.289029 35.986193 
L 498.999726 62.720199 
L 500.710424 60.663737 
L 502.421121 156.803339 
L 504.131818 54.494351 
L 504.131818 54.494351 
" clip-path="url(#pe81c9270b3)" style="fill: none; stroke: #99004d; stroke-width: 0.8; stroke-linecap: square"/>
   </g>
   <g id="patch_3">
    <path d="M 56.87 210.04 
L 56.87 11.54 
" style="fill: none; stroke: #000000; stroke-width: 0.8; stroke-linejoin: miter; stroke-linecap: square"/>
   </g>
   <g id="patch_4">
    <path d="M 525.43 210.04 
L 525.43 11.54 
" style="fill: none; stroke: #000000; stroke-width: 0.8; stroke-linejoin: miter; stroke-linecap: square"/>
   </g>
   <g id="patch_5">
    <path d="M 56.87 210.04 
L 525.43 210.04 
" style="fill: none; stroke: #000000; stroke-width: 0.8; stroke-linejoin: miter; stroke-linecap: square"/>
   </g>
   <g id="patch_6">
    <path d="M 56.87 11.54 
L 525.43 11.54 
" style="fill: none; stroke: #000000; stroke-width: 0.8; stroke-linejoin: miter; stroke-linecap: square"/>
   </g>
  </g>
  <g id="axes_2">
   <g id="matplotlib.axis_3">
    <g id="ytick_8">
     <g id="line2d_15">
      <defs>
       <path id="mbc8083c9e1" d="M 0 0 
L 3.5 0 
" style="stroke: #000000; stroke-width: 0.8"/>
      </defs>
      <g>
       <use xlink:href="#mbc8083c9e1" x="525.43" y="186.695483" style="stroke: #000000; stroke-width: 0.8"/>
      </g>
     </g>
     <g id="text_16">
      <text style="font: 10px 'DejaVu Sans', 'Bitstream Vera Sans', 'Computer Modern Sans Serif', 'Lucida Grande', 'Verdana', 'Geneva', 'Lucid', 'Arial', 'Helvetica', 'Avant Garde', sans-serif; text-anchor: start" x="532.43" y="190.494702" transform="rotate(-0 532.43 190.494702)">10</text>
     </g>
    </g>
    <g id="ytick_9">
     <g id="line2d_16">
      <g>
       <use xlink:href="#mbc8083c9e1" x="525.43" y="158.051905" style="stroke: #000000; stroke-width: 0.8"/>
      </g>
     </g>
     <g id="text_17">
      <text style="font: 10px 'DejaVu Sans', 'Bitstream Vera Sans', 'Computer Modern Sans Serif', 'Lucida Grande', 'Verdana', 'Geneva', 'Lucid', 'Arial', 'Helvetica', 'Avant Garde', sans-serif; text-anchor: start" x="532.43" y="161.851124" transform="rotate(-0 532.43 161.851124)">20</text>
     </g>
    </g>
    <g id="ytick_10">
     <g id="line2d_17">
      <g>
       <use xlink:href="#mbc8083c9e1" x="525.43" y="129.408326" style="stroke: #000000; stroke-width: 0.8"/>
      </g>
     </g>
     <g id="text_18">
      <text style="font: 10px 'DejaVu Sans', 'Bitstream Vera Sans', 'Computer Modern Sans Serif', 'Lucida Grande', 'Verdana', 'Geneva', 'Lucid', 'Arial', 'Helvetica', 'Avant Garde', sans-serif; text-anchor: start" x="532.43" y="133.207545" transform="rotate(-0 532.43 133.207545)">30</text>
     </g>
    </g>
    <g id="ytick_11">
     <g id="line2d_18">
      <g>
       <use xlink:href="#mbc8083c9e1" x="525.43" y="100.764747" style="stroke: #000000; stroke-width: 0.8"/>
      </g>
     </g>
     <g id="text_19">
      <text style="font: 10px 'DejaVu Sans', 'Bitstream Vera Sans', 'Computer Modern Sans Serif', 'Lucida Grande', 'Verdana', 'Geneva', 'Lucid', 'Arial', 'Helvetica', 'Avant Garde', sans-serif; text-anchor: start" x="532.43" y="104.563966" transform="rotate(-0 532.43 104.563966)">40</text>
     </g>
    </g>
    <g id="ytick_12">
     <g id="line2d_19">
      <g>
       <use xlink:href="#mbc8083c9e1" x="525.43" y="72.121169" style="stroke: #000000; stroke-width: 0.8"/>
      </g>
     </g>
     <g id="text_20">
      <text style="font: 10px 'DejaVu Sans', 'Bitstream Vera Sans', 'Computer Modern Sans Serif', 'Lucida Grande', 'Verdana', 'Geneva', 'Lucid', 'Arial', 'Helvetica', 'Avant Garde', sans-serif; text-anchor: start" x="532.43" y="75.920388" transform="rotate(-0 532.43 75.920388)">50</text>
     </g>
    </g>
    <g id="ytick_13">
     <g id="line2d_20">
      <g>
       <use xlink:href="#mbc8083c9e1" x="525.43" y="43.47759" style="stroke: #000000; stroke-width: 0.8"/>
      </g>
     </g>
     <g id="text_21">
      <text style="font: 10px 'DejaVu Sans', 'Bitstream Vera Sans', 'Computer Modern Sans Serif', 'Lucida Grande', 'Verdana', 'Geneva', 'Lucid', 'Arial', 'Helvetica', 'Avant Garde', sans-serif; text-anchor: start" x="532.43" y="47.276809" transform="rotate(-0 532.43 47.276809)">60</text>
     </g>
    </g>
    <g id="ytick_14">
     <g id="line2d_21">
      <g>
       <use xlink:href="#mbc8083c9e1" x="525.43" y="14.834012" style="stroke: #000000; stroke-width: 0.8"/>
      </g>
     </g>
     <g id="text_22">
      <text style="font: 10px 'DejaVu Sans', 'Bitstream Vera Sans', 'Computer Modern Sans Serif', 'Lucida Grande', 'Verdana', 'Geneva', 'Lucid', 'Arial', 'Helvetica', 'Avant Garde', sans-serif; text-anchor: start" x="532.43" y="18.63323" transform="rotate(-0 532.43 18.63323)">70</text>
     </g>
    </g>
    <g id="text_23">
     <text style="font: 10px 'DejaVu Sans', 'Bitstream Vera Sans', 'Computer Modern Sans Serif', 'Lucida Grande', 'Verdana', 'Geneva', 'Lucid', 'Arial', 'Helvetica', 'Avant Garde', sans-serif; text-anchor: middle" x="562.753438" y="110.79" transform="rotate(-90 562.753438 110.79)">hw(data)</text>
    </g>
   </g>
   <g id="line2d_22">
    <path d="M 78.168182 132.272684 
L 79.878879 95.036032 
L 81.589576 66.392453 
L 83.300274 46.341948 
L 85.010971 63.528095 
L 86.721668 54.935022 
L 88.432366 132.272684 
L 90.143063 29.155801 
L 91.85376 57.79938 
L 93.564458 49.206306 
L 95.275155 120.815253 
L 96.985853 109.357821 
L 98.69655 143.730115 
L 100.407247 74.985527 
L 102.117945 77.849885 
L 103.828642 112.222179 
L 105.539339 103.629105 
L 107.250037 37.748874 
L 108.960734 109.357821 
L 110.671431 120.815253 
L 112.382129 40.613232 
L 114.092826 117.950895 
L 115.803523 29.155801 
L 117.514221 140.865758 
L 119.224918 112.222179 
L 120.935615 146.594473 
L 122.646313 97.90039 
L 124.35701 106.493463 
L 126.067707 60.663737 
L 127.778405 92.171674 
L 129.489102 106.493463 
L 131.199799 149.458831 
L 132.910497 40.613232 
L 134.621194 112.222179 
L 136.331891 49.206306 
L 138.042589 149.458831 
L 139.753286 89.307316 
L 141.463983 152.323189 
L 143.174681 80.714242 
L 146.596075 155.187547 
L 148.306773 138.0014 
L 150.01747 92.171674 
L 151.728167 100.764747 
L 153.438865 126.543968 
L 155.149562 112.222179 
L 156.860259 29.155801 
L 158.570957 201.017273 
L 160.281654 100.764747 
L 161.992351 57.79938 
L 163.703049 126.543968 
L 165.413746 123.67961 
L 167.124443 77.849885 
L 168.835141 123.67961 
L 170.545838 140.865758 
L 172.256535 112.222179 
L 173.967233 80.714242 
L 175.67793 117.950895 
L 177.388627 49.206306 
L 179.099325 92.171674 
L 180.810022 26.291443 
L 182.520719 43.47759 
L 184.231417 43.47759 
L 185.942114 132.272684 
L 187.652811 112.222179 
L 189.363509 115.086537 
L 191.074206 100.764747 
L 192.784903 123.67961 
L 194.495601 129.408326 
L 196.206298 109.357821 
L 197.916995 49.206306 
L 199.627693 49.206306 
L 201.33839 86.442958 
L 203.049087 69.256811 
L 204.759785 43.47759 
L 206.470482 146.594473 
L 208.181179 69.256811 
L 209.891877 40.613232 
L 211.602574 49.206306 
L 213.313271 158.051905 
L 215.023969 160.916263 
L 216.734666 34.884517 
L 218.445363 80.714242 
L 220.156061 26.291443 
L 221.866758 103.629105 
L 223.577455 77.849885 
L 225.288153 49.206306 
L 226.99885 126.543968 
L 228.709547 26.291443 
L 230.420245 106.493463 
L 232.130942 57.79938 
L 233.841639 112.222179 
L 235.552337 132.272684 
L 237.263034 40.613232 
L 238.973731 63.528095 
L 240.684429 97.90039 
L 242.395126 146.594473 
L 244.105823 100.764747 
L 245.816521 178.10241 
L 247.527218 140.865758 
L 249.237915 180.966768 
L 250.948613 34.884517 
L 252.65931 86.442958 
L 254.370007 120.815253 
L 256.080705 72.121169 
L 257.791402 138.0014 
L 259.502099 40.613232 
L 261.212797 32.020159 
L 262.923494 120.815253 
L 264.634191 74.985527 
L 266.344889 95.036032 
L 268.055586 77.849885 
L 269.766283 77.849885 
L 271.476981 83.5786 
L 273.187678 43.47759 
L 274.898375 95.036032 
L 276.609073 52.070664 
L 278.31977 60.663737 
L 280.030467 49.206306 
L 281.741165 60.663737 
L 283.451862 132.272684 
L 285.162559 138.0014 
L 286.873257 37.748874 
L 288.583954 135.137042 
L 292.005349 43.47759 
L 293.716046 115.086537 
L 295.426743 106.493463 
L 297.137441 106.493463 
L 298.848138 63.528095 
L 300.558835 60.663737 
L 302.269533 138.0014 
L 303.98023 106.493463 
L 305.690927 66.392453 
L 307.401625 106.493463 
L 309.112322 74.985527 
L 310.823019 112.222179 
L 312.533717 72.121169 
L 314.244414 97.90039 
L 315.955111 57.79938 
L 317.665809 129.408326 
L 319.376506 72.121169 
L 321.087203 97.90039 
L 322.797901 49.206306 
L 324.508598 146.594473 
L 326.219295 140.865758 
L 327.929993 126.543968 
L 329.64069 155.187547 
L 331.351387 32.020159 
L 333.062085 72.121169 
L 334.772782 92.171674 
L 336.483479 54.935022 
L 338.194177 57.79938 
L 339.904874 192.424199 
L 341.615571 92.171674 
L 343.326269 89.307316 
L 345.036966 172.373694 
L 346.747663 54.935022 
L 348.458361 97.90039 
L 350.169058 129.408326 
L 351.879755 183.831126 
L 353.590453 60.663737 
L 355.30115 103.629105 
L 357.011847 43.47759 
L 358.722545 100.764747 
L 360.433242 60.663737 
L 362.143939 117.950895 
L 363.854637 95.036032 
L 365.565334 49.206306 
L 367.276031 43.47759 
L 368.986729 109.357821 
L 370.697426 135.137042 
L 372.408123 106.493463 
L 374.118821 123.67961 
L 375.829518 106.493463 
L 377.540215 146.594473 
L 379.250913 92.171674 
L 380.96161 112.222179 
L 382.672307 95.036032 
L 384.383005 74.985527 
L 386.093702 152.323189 
L 387.804399 34.884517 
L 389.515097 95.036032 
L 391.225794 43.47759 
L 392.936491 97.90039 
L 394.647189 89.307316 
L 396.357886 29.155801 
L 398.068583 69.256811 
L 399.779281 72.121169 
L 401.489978 166.644978 
L 403.200675 37.748874 
L 404.911373 40.613232 
L 406.62207 69.256811 
L 408.332767 117.950895 
L 410.043465 46.341948 
L 411.754162 40.613232 
L 413.464859 43.47759 
L 415.175557 132.272684 
L 416.886254 66.392453 
L 418.596951 103.629105 
L 420.307649 66.392453 
L 422.018346 189.559841 
L 423.729043 40.613232 
L 425.439741 189.559841 
L 427.150438 106.493463 
L 428.861135 106.493463 
L 430.571833 43.47759 
L 432.28253 43.47759 
L 433.993227 115.086537 
L 435.703925 123.67961 
L 437.414622 40.613232 
L 439.125319 112.222179 
L 440.836017 69.256811 
L 442.546714 103.629105 
L 444.257411 46.341948 
L 445.968109 26.291443 
L 447.678806 32.020159 
L 449.389503 57.79938 
L 451.100201 57.79938 
L 452.810898 106.493463 
L 454.521595 20.562727 
L 456.232293 138.0014 
L 457.94299 80.714242 
L 459.653687 83.5786 
L 461.364385 29.155801 
L 463.075082 158.051905 
L 464.785779 46.341948 
L 466.496477 115.086537 
L 468.207174 46.341948 
L 469.917871 54.935022 
L 471.628569 112.222179 
L 473.339266 138.0014 
L 475.049963 135.137042 
L 476.760661 54.935022 
L 478.471358 178.10241 
L 480.182055 49.206306 
L 481.892753 132.272684 
L 483.60345 103.629105 
L 485.314147 100.764747 
L 487.024845 143.730115 
L 488.735542 60.663737 
L 490.44624 72.121169 
L 492.156937 66.392453 
L 493.867634 52.070664 
L 495.578332 138.0014 
L 497.289029 46.341948 
L 498.999726 115.086537 
L 500.710424 46.341948 
L 502.421121 115.086537 
L 504.131818 26.291443 
L 504.131818 26.291443 
" clip-path="url(#pe81c9270b3)" style="fill: none; stroke: #235996; stroke-width: 0.8; stroke-linecap: square"/>
   </g>
   <g id="patch_7">
    <path d="M 56.87 210.04 
L 56.87 11.54 
" style="fill: none; stroke: #000000; stroke-width: 0.8; stroke-linejoin: miter; stroke-linecap: square"/>
   </g>
   <g id="patch_8">
    <path d="M 525.43 210.04 
L 525.43 11.54 
" style="fill: none; stroke: #000000; stroke-width: 0.8; stroke-linejoin: miter; stroke-linecap: square"/>
   </g>
   <g id="patch_9">
    <path d="M 56.87 210.04 
L 525.43 210.04 
" style="fill: none; stroke: #000000; stroke-width: 0.8; stroke-linejoin: miter; stroke-linecap: square"/>
   </g>
   <g id="patch_10">
    <path d="M 56.87 11.54 
L 525.43 11.54 
" style="fill: none; stroke: #000000; stroke-width: 0.8; stroke-linejoin: miter; stroke-linecap: square"/>
   </g>
   <g id="legend_1">
    <g id="patch_11">
     <path d="M 150.539625 44.1965 
L 431.760375 44.1965 
Q 434.640375 44.1965 434.640375 41.3165 
L 434.640375 21.62 
Q 434.640375 18.74 431.760375 18.74 
L 150.539625 18.74 
Q 147.659625 18.74 147.659625 21.62 
L 147.659625 41.3165 
Q 147.659625 44.1965 150.539625 44.1965 
z
" style="fill: #ffffff; opacity: 0.8; stroke: #000000; stroke-linejoin: miter"/>
    </g>
    <g id="line2d_23">
     <path d="M 153.419625 30.40175 
L 167.819625 30.40175 
L 182.219625 30.40175 
" style="fill: none; stroke: #99004d; stroke-width: 0.8; stroke-linecap: square"/>
    </g>
    <g id="text_24">
     <text style="font: 14.4px 'DejaVu Sans', 'Bitstream Vera Sans', 'Computer Modern Sans Serif', 'Lucida Grande', 'Verdana', 'Geneva', 'Lucid', 'Arial', 'Helvetica', 'Avant Garde', sans-serif; text-anchor: start" x="193.739625" y="35.44175" transform="rotate(-0 193.739625 35.44175)">power</text>
    </g>
    <g id="line2d_24">
     <path d="M 267.049125 30.40175 
L 281.449125 30.40175 
L 295.849125 30.40175 
" style="fill: none; stroke: #235996; stroke-width: 0.8; stroke-linecap: square"/>
    </g>
    <g id="text_25">
     <text style="font: 14.4px 'DejaVu Sans', 'Bitstream Vera Sans', 'Computer Modern Sans Serif', 'Lucida Grande', 'Verdana', 'Geneva', 'Lucid', 'Arial', 'Helvetica', 'Avant Garde', sans-serif; text-anchor: start" x="307.369125" y="35.44175" transform="rotate(-0 307.369125 35.44175)">hw(rs1)+hw(rs2)</text>
    </g>
   </g>
  </g>
 </g>
 <defs>
  <clipPath id="pe81c9270b3">
   <rect x="56.87" y="11.54" width="468.56" height="198.5"/>
  </clipPath>
 </defs>
</svg>
